<?xml version="1.0" encoding="UTF-8"?>
<svg id="_레이어_1" data-name="레이어 1" xmlns="http://www.w3.org/2000/svg" viewBox="0 0 319.725 154.641">
  <defs>
    <style>
      .cls-1 {
        fill: #2e9141;
      }

      .cls-1, .cls-2, .cls-3, .cls-4 {
        stroke-width: 0px;
      }

      .cls-2 {
        fill: #0099d7;
      }

      .cls-3 {
        fill: #f37032;
      }

      .cls-4 {
        fill: #8459a5;
      }
    </style>
  </defs>
  <g>
    <polygon class="cls-2" points="186.992 54.578 177.547 54.578 177.547 71.864 161.516 87.798 168.174 94.497 182.27 80.487 196.365 94.497 203.024 87.798 186.992 71.864 186.992 54.578"/>
    <polygon class="cls-2" points="212.98 98.467 222.425 98.467 222.425 77.119 222.425 67.674 222.425 51.573 212.98 51.573 212.98 67.674 200.55 67.674 200.55 77.119 212.98 77.119 212.98 98.467"/>
    <rect class="cls-2" x="231.705" y="51.573" width="9.445" height="46.894"/>
    <polygon class="cls-2" points="212.98 117.192 231.705 117.192 231.705 126.471 212.98 126.471 212.98 154.641 241.15 154.641 241.15 145.196 222.425 145.196 222.425 135.916 241.15 135.916 241.15 107.747 212.98 107.747 212.98 117.192"/>
  </g>
  <g>
    <polygon class="cls-4" points="307.294 70.297 307.294 51.573 297.849 51.573 297.849 70.297 297.849 79.742 297.849 98.467 307.294 98.467 307.294 79.742 319.725 79.742 319.725 70.297 307.294 70.297"/>
    <polygon class="cls-4" points="288.569 107.747 279.124 107.747 279.124 135.916 310.015 135.916 310.015 126.471 288.569 126.471 288.569 107.747"/>
    <polygon class="cls-4" points="288.569 86.017 263.955 86.017 263.955 79.082 288.569 79.082 288.569 54.578 254.51 54.578 254.51 64.023 279.124 64.023 279.124 69.637 254.51 69.637 254.51 95.462 288.569 95.462 288.569 86.017"/>
  </g>
  <g>
    <polygon class="cls-1" points="47.746 70.297 35.566 70.297 35.566 79.742 47.746 79.742 47.746 98.467 57.191 98.467 57.191 51.573 47.746 51.573 47.746 70.297"/>
    <rect class="cls-1" x="66.471" y="51.573" width="9.445" height="46.894"/>
    <path class="cls-1" d="m15.019,68.429c-8.282,0-15.019,6.738-15.019,15.019s6.738,15.019,15.019,15.019,15.019-6.738,15.019-15.019-6.738-15.019-15.019-15.019Zm0,20.594c-3.074,0-5.574-2.501-5.574-5.574s2.501-5.574,5.574-5.574,5.574,2.501,5.574,5.574-2.5,5.574-5.574,5.574Z"/>
    <polygon class="cls-1" points="19.742 45.995 10.297 45.995 10.297 54.045 0 54.045 0 63.49 10.297 63.49 19.742 63.49 30.038 63.49 30.038 54.045 19.742 54.045 19.742 45.995"/>
  </g>
  <g>
    <path class="cls-3" d="m88.071,95.462h39.309v-40.883h-39.309v40.883Zm9.445-31.438h20.419v21.993h-20.419v-21.993Z"/>
    <g>
      <polygon class="cls-3" points="163.224 45.003 168.499 39.891 155.246 26.214 168.828 26.214 168.828 18.868 151.294 18.868 151.294 0 141.849 0 141.849 18.868 124.315 18.868 124.315 26.214 137.897 26.214 124.644 39.891 129.92 45.003 141.849 32.692 141.849 98.467 151.294 98.467 151.294 32.692 163.224 45.003"/>
      <rect class="cls-3" x="155.534" y="4.606" width="12.798" height="7.346" transform="translate(43.299 118.809) rotate(-45.902)"/>
      <rect class="cls-3" x="127.537" y="1.88" width="7.346" height="12.798" transform="translate(31.221 93.642) rotate(-44.099)"/>
    </g>
  </g>
</svg>