<?xml version="1.0" encoding="utf-8"?>
<!-- Generator: Adobe Illustrator 28.0.0, SVG Export Plug-In . SVG Version: 6.00 Build 0)  -->
<svg version="1.1" id="_레이어_1" xmlns="http://www.w3.org/2000/svg" xmlns:xlink="http://www.w3.org/1999/xlink" x="0px"
	 y="0px" viewBox="0 0 548.4 282.1" style="enable-background:new 0 0 548.4 282.1;" xml:space="preserve">
<style type="text/css">
	.st0{fill:#FFFFFF;stroke:#000000;stroke-miterlimit:10;}
	.st1{fill:#D2D2D4;}
	.st2{fill:#E6E6E5;}
	.st3{fill:none;stroke:#BE1E2D;stroke-width:2;stroke-miterlimit:10;}
	.st4{fill:#BE1E2D;}
	.st5{fill:#231F20;}
	.st6{font-family:'AppleSDGothicNeoEB00';}
	.st7{font-size:17px;}
	.st8{font-size:9.911px;}
	.st9{font-size:15px;}
	.st10{font-size:8.745px;}
	.st11{fill:none;stroke:#BE1E2D;stroke-width:1.55;stroke-miterlimit:10;}
	.st12{font-size:12px;}
	.st13{fill:none;stroke:#BE1E2D;stroke-width:2.122;stroke-miterlimit:10;}
	.st14{fill:#FFFFFF;}
	.st15{font-size:9.973px;}
	.st16{font-size:12.7px;}
	.st17{font-size:13px;}
	.st18{font-family:'AppleSDGothicNeoR00';}
	.st19{font-size:6.996px;}
</style>
<rect y="0" class="st0" width="548.1" height="282.1"/>
<rect x="280.3" y="96.4" class="st1" width="187.4" height="89.2"/>
<rect y="0" class="st1" width="274.7" height="89.2"/>
<rect y="96.4" class="st2" width="274.7" height="89.2"/>
<rect y="192.9" class="st1" width="274.7" height="89.2"/>
<g>
	<path class="st3" d="M200.8,104.1C192.5,75.8,163.9,55,130,55s-62.5,20.9-70.8,49.2"/>
	<polygon class="st4" points="206.4,96.6 200.1,101.8 192.2,100.8 204.2,115.6 	"/>
</g>
<g>
	<path class="st3" d="M198,155.6c-8.4,28.3-36.9,49.2-70.8,49.2s-62.5-20.9-70.8-49.2"/>
	<polygon class="st4" points="189.3,158.9 197.3,158 203.5,163.1 201.4,144.2 	"/>
</g>
<g>
	<path class="st3" d="M152.9,142c-4.9-8.3-14.6-14-25.7-14c-13.5,0-24.8,8.3-28.1,19.5"/>
	<polygon class="st4" points="155,137.9 152.2,140.9 148.2,141 155.3,147.4 	"/>
</g>
<g>
	<path class="st3" d="M352.2,142c-4.9-8.3-14.6-14-25.7-14c-13.5,0-24.8,8.3-28.1,19.5"/>
	<polygon class="st4" points="354.3,137.9 351.6,140.9 347.5,141 354.6,147.4 	"/>
</g>
<g>
	<path class="st3" d="M300.7,168.1c4.9,8.3,14.6,14,25.7,14c13.5,0,24.8-8.3,28.1-19.5"/>
	<polygon class="st4" points="298.6,172.1 301.4,169.2 305.4,169.1 298.4,162.6 	"/>
</g>
<g>
	<path class="st3" d="M168.8,229.6c-6.9-14.6-23-24.8-41.7-24.8c-21,0-38.6,12.9-43.8,30.4"/>
	<polygon class="st4" points="171.1,225.6 168.3,228.5 164.3,228.4 170.9,235.2 	"/>
</g>
<g>
	<path class="st3" d="M171.7,30.1C164.7,44.7,148.7,55,130,55c-21,0-38.6-12.9-43.8-30.4"/>
	<polygon class="st4" points="167.1,31.4 171.1,31.3 174,34.1 173.8,24.6 	"/>
</g>
<text transform="matrix(1 0 0 1 32.3 134.941)" class="st5 st6 st7">알코올</text>
<text transform="matrix(1 0 0 1 165.208 134.94)" class="st5 st6 st7">아세트알데히드</text>
<text transform="matrix(1 0 0 1 399.22 134.94)" class="st5 st6 st7">초산</text>
<text transform="matrix(1 0 0 1 489.585 134.94)" class="st5 st6 st7">혈액순환</text>
<text transform="matrix(1 0 0 1 109.992 118.311)" class="st5 st6 st7">ADH</text>
<text transform="matrix(1 0 0 1 296.525 118.312)" class="st5 st6 st7">ALDH2</text>
<text transform="matrix(1 0 0 1 79.129 166.314)" class="st5 st6 st7">NAD</text>
<text transform="matrix(1 0 0 1 113.4692 160.6525)" class="st5 st6 st8">+</text>
<text transform="matrix(1 0 0 1 282.592 160.87)" class="st5 st6 st9">NAD</text>
<text transform="matrix(1 0 0 1 312.8926 155.8752)" class="st5 st6 st10">+</text>
<text transform="matrix(1 0 0 1 7.01 258.649)" class="st5 st6 st7">NADPH + H</text>
<text transform="matrix(1 0 0 1 92.8594 252.988)" class="st5 st6 st8">+</text>
<text transform="matrix(1 0 0 1 97.954 258.649)" class="st5 st6 st7"> + O</text>
<text transform="matrix(1 0 0 1 127.6338 260.3098)" class="st5 st6 st8">2</text>
<text transform="matrix(1 0 0 1 148.688 258.649)" class="st5 st6 st7">NADP</text>
<text transform="matrix(1 0 0 1 193.1943 252.988)" class="st5 st6 st8">+</text>
<text transform="matrix(1 0 0 1 198.288 258.649)" class="st5 st6 st7"> + 2H</text>
<text transform="matrix(1 0 0 1 236.9111 261.3098)" class="st5 st6 st8">2</text>
<text transform="matrix(1 0 0 1 242.223 258.649)" class="st5 st6 st7">O</text>
<text transform="matrix(1 0 0 1 65.41 17.22)" class="st5 st6 st7">H</text>
<text transform="matrix(1 0 0 1 77.2422 18.881)" class="st5 st6 st8">2</text>
<text transform="matrix(1 0 0 1 82.554 17.22)" class="st5 st6 st7">O</text>
<text transform="matrix(1 0 0 1 94.5562 18.881)" class="st5 st6 st8">2</text>
<text transform="matrix(1 0 0 1 155.253 17.22)" class="st5 st6 st7">H</text>
<text transform="matrix(1 0 0 1 167.0859 18.881)" class="st5 st6 st8">2</text>
<text transform="matrix(1 0 0 1 172.398 17.22)" class="st5 st6 st7">O</text>
<text transform="matrix(1 0 0 1 131.573 166.314)" class="st5 st6 st7">NADH</text>
<text transform="matrix(1 0 0 1 335.745 160.87)" class="st5 st6 st9">NADH</text>
<g>
	<line class="st11" x1="99" y1="125.9" x2="150" y2="125.9"/>
	<polygon class="st4" points="161,125.9 145.6,132.2 149.2,125.9 145.6,119.6 	"/>
</g>
<text transform="matrix(1 0 0 1 110.162 221.736)" class="st5 st6 st12">CYP2E1</text>
<text transform="matrix(1 0 0 1 110.162 50.96)" class="st5 st6 st12">Catalase</text>
<g>
	<line class="st13" x1="274.7" y1="125.9" x2="375.9" y2="125.9"/>
	<polygon class="st4" points="390.9,125.9 369.8,134.6 374.8,125.9 369.8,117.3 	"/>
</g>
<g>
	<line class="st13" x1="435.2" y1="125.9" x2="464.8" y2="125.9"/>
	<polygon class="st4" points="479.8,125.9 458.7,134.6 463.7,125.9 458.7,117.3 	"/>
</g>
<g>
	<circle class="st5" cx="231.9" cy="106" r="5.5"/>
	<text transform="matrix(1 0 0 1 230.052 110.007)" class="st14 st6 st15">1</text>
</g>
<g>
	<circle class="st5" cx="292.9" cy="223.4" r="5.5"/>
	<text transform="matrix(1 0 0 1 290.993 227.406)" class="st14 st6 st15">1</text>
</g>
<g>
	<circle class="st5" cx="326.5" cy="171.8" r="5.5"/>
	<text transform="matrix(1 0 0 1 323.9 175.865)" class="st14 st6 st15">2</text>
</g>
<g>
	<circle class="st5" cx="292.9" cy="243" r="5.5"/>
	<text transform="matrix(1 0 0 1 290.299 247.095)" class="st14 st6 st15">2</text>
</g>
<g>
	<circle class="st5" cx="127.1" cy="227.2" r="5.5"/>
	<text transform="matrix(1 0 0 1 124.58 231.324)" class="st14 st6 st15">2</text>
</g>
<g>
	<circle class="st5" cx="326.5" cy="137.1" r="5.5"/>
	<text transform="matrix(1 0 0 1 323.925 141.159)" class="st14 st6 st15">3</text>
</g>
<g>
	<circle class="st5" cx="292.9" cy="262.7" r="5.5"/>
	<text transform="matrix(1 0 0 1 290.325 266.761)" class="st14 st6 st15">3</text>
</g>
<g>
	<circle class="st5" cx="125.1" cy="137.7" r="5.5"/>
	<text transform="matrix(1 0 0 1 122.521 141.801)" class="st14 st6 st15">3</text>
</g>
<text transform="matrix(1 0 0 1 226.852 12.451)" class="st5 st6 st16">퍼록시좀</text>
<text transform="matrix(1 0 0 1 235.467 178.746)" class="st5 st6 st16">세포질</text>
<text transform="matrix(1 0 0 1 215.477 275.729)" class="st5 st6 st16">마이크로좀</text>
<text transform="matrix(1 0 0 1 283.642 208.881)" class="st5 st6 st17">결과</text>
<text transform="matrix(1 0 0 1 306.131 226.915)" class="st5 st18 st12">알데히드 결합물 형성</text>
<text transform="matrix(1 0 0 1 306.131 247.045)" class="st5 st18 st12">활성산소 혈성 증가</text>
<text transform="matrix(1 0 0 1 306.131 266.674)" class="st5 st18 st12">NADH:NAD</text>
<text transform="matrix(1 0 0 1 363.6592 262.6779)" class="st5 st18 st19">+</text>
<text transform="matrix(1 0 0 1 367.458 266.674)" class="st5 st18 st12"> 비율 증가</text>
</svg>
