<?xml version="1.0" encoding="UTF-8"?>
<svg xmlns="http://www.w3.org/2000/svg" xmlns:xlink="http://www.w3.org/1999/xlink" viewBox="0 0 497.081 419.599">
  <defs>
    <style>
      .cls-1 {
        fill: #2e2a2c;
      }

      .cls-1, .cls-2, .cls-3, .cls-4, .cls-5, .cls-6, .cls-7, .cls-8, .cls-9, .cls-10, .cls-11, .cls-12, .cls-13, .cls-14, .cls-15, .cls-16, .cls-17, .cls-18, .cls-19, .cls-20, .cls-21, .cls-22, .cls-23, .cls-24, .cls-25, .cls-26, .cls-27, .cls-28, .cls-29, .cls-30, .cls-31, .cls-32, .cls-33, .cls-34, .cls-35, .cls-36, .cls-37, .cls-38, .cls-39, .cls-40, .cls-41, .cls-42, .cls-43, .cls-44, .cls-45, .cls-46, .cls-47, .cls-48, .cls-49, .cls-50, .cls-51, .cls-52, .cls-53, .cls-54, .cls-55, .cls-56, .cls-57, .cls-58, .cls-59, .cls-60, .cls-61, .cls-62, .cls-63, .cls-64, .cls-65, .cls-66, .cls-67, .cls-68, .cls-69, .cls-70, .cls-71, .cls-72, .cls-73, .cls-74, .cls-75, .cls-76, .cls-77, .cls-78, .cls-79, .cls-80, .cls-81, .cls-82, .cls-83, .cls-84, .cls-85, .cls-86, .cls-87, .cls-88, .cls-89, .cls-90, .cls-91, .cls-92, .cls-93, .cls-94 {
        stroke-width: 0px;
      }

      .cls-2 {
        fill: url(#radial-gradient-74);
      }

      .cls-95 {
        fill: none;
        stroke: #231f20;
        stroke-miterlimit: 10;
      }

      .cls-3 {
        fill: url(#radial-gradient-58);
      }

      .cls-4 {
        fill: url(#radial-gradient-68);
      }

      .cls-96 {
        letter-spacing: -.015em;
      }

      .cls-5 {
        fill: url(#radial-gradient-79);
      }

      .cls-6 {
        fill: url(#radial-gradient-30);
      }

      .cls-7 {
        fill: url(#radial-gradient-70);
      }

      .cls-8 {
        fill: url(#radial-gradient-16);
      }

      .cls-9 {
        fill: #d92f30;
      }

      .cls-10 {
        fill: url(#radial-gradient-40);
      }

      .cls-11 {
        fill: #63191b;
      }

      .cls-12 {
        fill: url(#radial-gradient-39);
      }

      .cls-13 {
        fill: url(#radial-gradient-46);
      }

      .cls-97 {
        letter-spacing: -.031em;
      }

      .cls-14 {
        fill: url(#radial-gradient-77);
      }

      .cls-98 {
        letter-spacing: -.019em;
      }

      .cls-15 {
        fill: url(#radial-gradient-59);
      }

      .cls-16 {
        fill: url(#radial-gradient-3);
      }

      .cls-16, .cls-92 {
        mix-blend-mode: screen;
        opacity: .32;
      }

      .cls-17 {
        fill: url(#radial-gradient-57);
      }

      .cls-18 {
        fill: url(#radial-gradient-8);
      }

      .cls-19 {
        fill: #00aeef;
      }

      .cls-99 {
        letter-spacing: -.036em;
      }

      .cls-100 {
        isolation: isolate;
      }

      .cls-20 {
        fill: url(#radial-gradient-69);
      }

      .cls-21 {
        fill: url(#radial-gradient-43);
      }

      .cls-22 {
        fill: url(#radial-gradient-13);
      }

      .cls-101, .cls-102, .cls-103, .cls-104, .cls-105 {
        fill: #231f20;
      }

      .cls-101, .cls-102, .cls-104 {
        font-size: 12px;
      }

      .cls-101, .cls-106, .cls-103, .cls-105 {
        font-family: NotoSansCJKkr-Bold-KSCpc-EUC-H, 'Noto Sans CJK KR';
        font-weight: 700;
      }

      .cls-23 {
        fill: url(#radial-gradient-12);
      }

      .cls-107 {
        letter-spacing: -.061em;
      }

      .cls-24 {
        fill: url(#radial-gradient-80);
      }

      .cls-25 {
        fill: url(#radial-gradient-35);
      }

      .cls-26 {
        fill: url(#radial-gradient-27);
      }

      .cls-27 {
        fill: url(#radial-gradient-29);
      }

      .cls-28 {
        fill: url(#radial-gradient-60);
      }

      .cls-108 {
        letter-spacing: 0em;
      }

      .cls-29 {
        fill: #242423;
      }

      .cls-30 {
        fill: url(#radial-gradient-61);
      }

      .cls-31 {
        fill: url(#radial-gradient-55);
      }

      .cls-32 {
        fill: url(#radial-gradient-53);
      }

      .cls-33 {
        fill: url(#radial-gradient-38);
      }

      .cls-34 {
        fill: url(#radial-gradient-75);
      }

      .cls-35 {
        fill: url(#radial-gradient-65);
      }

      .cls-109 {
        letter-spacing: -.011em;
      }

      .cls-36 {
        fill: url(#radial-gradient-71);
      }

      .cls-37 {
        fill: url(#radial-gradient-22);
      }

      .cls-38 {
        fill: url(#radial-gradient-62);
      }

      .cls-39 {
        fill: url(#radial-gradient-82);
      }

      .cls-40 {
        fill: url(#radial-gradient-47);
      }

      .cls-41 {
        fill: url(#radial-gradient-19);
      }

      .cls-42 {
        fill: url(#radial-gradient-20);
      }

      .cls-43 {
        fill: url(#radial-gradient-76);
      }

      .cls-44 {
        fill: url(#radial-gradient-25);
      }

      .cls-45 {
        fill: url(#radial-gradient-63);
      }

      .cls-46 {
        fill: url(#radial-gradient-33);
      }

      .cls-102 {
        font-family: NotoSansCJKkr-Medium-KSCpc-EUC-H, 'Noto Sans CJK KR';
        font-weight: 500;
      }

      .cls-47 {
        fill: url(#radial-gradient-17);
      }

      .cls-48 {
        fill: #e7dadb;
      }

      .cls-49 {
        fill: #c88797;
        mix-blend-mode: multiply;
        opacity: .55;
      }

      .cls-50 {
        fill: url(#radial-gradient-32);
      }

      .cls-51 {
        fill: url(#radial-gradient-21);
      }

      .cls-52 {
        fill: url(#radial-gradient-64);
      }

      .cls-53 {
        fill: url(#radial-gradient-54);
      }

      .cls-110 {
        letter-spacing: -.014em;
      }

      .cls-54 {
        fill: url(#radial-gradient-2);
      }

      .cls-106 {
        fill: #fff;
        font-size: 10px;
      }

      .cls-55 {
        fill: url(#radial-gradient-41);
      }

      .cls-56 {
        fill: url(#radial-gradient-50);
      }

      .cls-57 {
        fill: url(#radial-gradient-7);
      }

      .cls-58 {
        fill: url(#radial-gradient-66);
      }

      .cls-59 {
        fill: url(#radial-gradient-34);
      }

      .cls-60 {
        fill: url(#radial-gradient-26);
      }

      .cls-61 {
        fill: url(#radial-gradient-5);
      }

      .cls-62 {
        fill: url(#radial-gradient-24);
      }

      .cls-63 {
        fill: url(#radial-gradient);
      }

      .cls-64 {
        fill: url(#radial-gradient-37);
      }

      .cls-65 {
        fill: url(#radial-gradient-45);
      }

      .cls-111 {
        letter-spacing: 0em;
      }

      .cls-66 {
        fill: url(#radial-gradient-31);
      }

      .cls-67 {
        fill: #96282d;
      }

      .cls-68 {
        fill: url(#radial-gradient-14);
      }

      .cls-69 {
        fill: #444445;
      }

      .cls-70 {
        fill: #b0292f;
      }

      .cls-71 {
        fill: url(#radial-gradient-18);
      }

      .cls-72 {
        fill: url(#radial-gradient-10);
      }

      .cls-73 {
        fill: url(#radial-gradient-42);
      }

      .cls-74 {
        fill: url(#radial-gradient-52);
      }

      .cls-75 {
        fill: url(#radial-gradient-67);
      }

      .cls-103 {
        font-size: 15.822px;
      }

      .cls-76 {
        fill: #ba695a;
      }

      .cls-112 {
        letter-spacing: -.061em;
      }

      .cls-77 {
        fill: url(#radial-gradient-28);
      }

      .cls-104 {
        font-family: NotoSansCJKkr-DemiLight-KSCpc-EUC-H, 'Noto Sans CJK KR';
        font-weight: 300;
      }

      .cls-78 {
        fill: url(#radial-gradient-78);
      }

      .cls-79 {
        fill: url(#radial-gradient-51);
      }

      .cls-80 {
        fill: url(#radial-gradient-6);
      }

      .cls-81 {
        fill: url(#radial-gradient-44);
      }

      .cls-82 {
        fill: url(#radial-gradient-15);
      }

      .cls-83 {
        fill: url(#radial-gradient-9);
      }

      .cls-84 {
        fill: url(#radial-gradient-49);
      }

      .cls-85 {
        fill: url(#radial-gradient-81);
      }

      .cls-113 {
        letter-spacing: -.011em;
      }

      .cls-86 {
        fill: url(#radial-gradient-11);
      }

      .cls-87 {
        fill: url(#radial-gradient-56);
      }

      .cls-88 {
        fill: url(#radial-gradient-48);
      }

      .cls-89 {
        fill: url(#radial-gradient-73);
      }

      .cls-90 {
        fill: url(#radial-gradient-36);
      }

      .cls-91 {
        fill: #c78479;
      }

      .cls-105 {
        font-size: 14px;
      }

      .cls-92 {
        fill: url(#radial-gradient-4);
      }

      .cls-93 {
        fill: url(#radial-gradient-23);
      }

      .cls-94 {
        fill: url(#radial-gradient-72);
      }
    </style>
    <radialGradient id="radial-gradient" cx="217.339" cy="181.513" fx="217.339" fy="181.513" r="36.147" gradientUnits="userSpaceOnUse">
      <stop offset=".053" stop-color="#9b3640"/>
      <stop offset="1" stop-color="#85242d"/>
    </radialGradient>
    <radialGradient id="radial-gradient-2" cx="181.859" cy="191.784" fx="181.859" fy="191.784" r="37.191" xlink:href="#radial-gradient"/>
    <radialGradient id="radial-gradient-3" cx="220.514" cy="171.43" fx="220.514" fy="171.43" r="32.715" gradientUnits="userSpaceOnUse">
      <stop offset="0" stop-color="#d3818a"/>
      <stop offset=".413" stop-color="#d27e87"/>
      <stop offset=".697" stop-color="#ce757e"/>
      <stop offset=".941" stop-color="#c96570"/>
      <stop offset="1" stop-color="#c8616c"/>
    </radialGradient>
    <radialGradient id="radial-gradient-4" cx="180.925" cy="174.231" fx="180.925" fy="174.231" r="41.378" xlink:href="#radial-gradient-3"/>
    <radialGradient id="radial-gradient-5" cx="85.621" cy="322.586" fx="85.621" fy="322.586" r="21.411" gradientUnits="userSpaceOnUse">
      <stop offset=".107" stop-color="#d2646d"/>
      <stop offset="1" stop-color="#cb525d"/>
    </radialGradient>
    <radialGradient id="radial-gradient-6" cx="71.749" cy="277.736" fx="71.749" fy="277.736" r="50.628" gradientUnits="userSpaceOnUse">
      <stop offset="0" stop-color="#f7a7b3"/>
      <stop offset=".395" stop-color="#f6a3ae"/>
      <stop offset=".829" stop-color="#f598a1"/>
      <stop offset="1" stop-color="#f5939a"/>
    </radialGradient>
    <radialGradient id="radial-gradient-7" cx="127.06" cy="329.801" fx="127.06" fy="329.801" r="23.908" gradientTransform="translate(0 -1.762) scale(1 1.025)" xlink:href="#radial-gradient-6"/>
    <radialGradient id="radial-gradient-8" cx="102.264" cy="313.66" fx="102.264" fy="313.66" r="1.846" gradientTransform="translate(0 -1.762) scale(1 1.025)" gradientUnits="userSpaceOnUse">
      <stop offset="0" stop-color="#e8baae"/>
      <stop offset=".39" stop-color="#e8baae"/>
      <stop offset=".554" stop-color="#e6b6a9"/>
      <stop offset=".726" stop-color="#e2ab9d"/>
      <stop offset=".901" stop-color="#dc9988"/>
      <stop offset="1" stop-color="#d88c79"/>
    </radialGradient>
    <radialGradient id="radial-gradient-9" cx="105.145" cy="314.516" fx="105.145" fy="314.516" r="1.582" xlink:href="#radial-gradient-8"/>
    <radialGradient id="radial-gradient-10" cx="101.076" cy="317.457" fx="101.076" fy="317.457" r="1.616" xlink:href="#radial-gradient-8"/>
    <radialGradient id="radial-gradient-11" cx="-248.033" cy="3530.8" fx="-248.033" fy="3530.8" r="1.45" gradientTransform="translate(-646.066 3870.816) rotate(-171.574) scale(1 1.025) skewX(.413)" xlink:href="#radial-gradient-8"/>
    <radialGradient id="radial-gradient-12" cx="100.285" cy="320.541" fx="100.285" fy="320.541" r="1.846" xlink:href="#radial-gradient-8"/>
    <radialGradient id="radial-gradient-13" cx="-428.996" cy="311.733" fx="-428.996" fy="311.733" r="1.641" gradientTransform="translate(610.791 167.318) rotate(19.337) scale(1.003 1.022) skewX(.892)" xlink:href="#radial-gradient-8"/>
    <radialGradient id="radial-gradient-14" cx="103.772" cy="324.432" fx="103.772" fy="324.432" r="1.534" xlink:href="#radial-gradient-8"/>
    <radialGradient id="radial-gradient-15" cx="99.458" cy="324.607" fx="99.458" fy="324.607" r="1.923" xlink:href="#radial-gradient-8"/>
    <radialGradient id="radial-gradient-16" cx="100.327" cy="328.719" fx="100.327" fy="328.719" r="2.102" xlink:href="#radial-gradient-8"/>
    <radialGradient id="radial-gradient-17" cx="70.557" cy="537.349" fx="70.557" fy="537.349" r="1.718" gradientTransform="translate(24.176 -298.954) scale(1.131 1.179)" xlink:href="#radial-gradient-8"/>
    <radialGradient id="radial-gradient-18" cx="101.313" cy="332.905" fx="101.313" fy="332.905" r="2.489" xlink:href="#radial-gradient-8"/>
    <radialGradient id="radial-gradient-19" cx="105.53" cy="332.432" fx="105.53" fy="332.432" r="1.953" xlink:href="#radial-gradient-8"/>
    <radialGradient id="radial-gradient-20" cx="108.771" cy="336" fx="108.771" fy="336" r="2.246" xlink:href="#radial-gradient-8"/>
    <radialGradient id="radial-gradient-21" cx="103.659" cy="337.697" fx="103.659" fy="337.697" r="3.136" xlink:href="#radial-gradient-8"/>
    <radialGradient id="radial-gradient-22" cx="112.226" cy="337.659" fx="112.226" fy="337.659" r="1.999" xlink:href="#radial-gradient-8"/>
    <radialGradient id="radial-gradient-23" cx="112.753" cy="343.256" fx="112.753" fy="343.256" r="2.715" xlink:href="#radial-gradient-8"/>
    <radialGradient id="radial-gradient-24" cx="108.482" cy="342.445" fx="108.482" fy="342.445" r="2.908" xlink:href="#radial-gradient-8"/>
    <radialGradient id="radial-gradient-25" cx="128.992" cy="358.497" fx="128.992" fy="358.497" r="7.026" xlink:href="#radial-gradient-8"/>
    <radialGradient id="radial-gradient-26" cx="151.384" cy="308.622" fx="151.384" fy="308.622" r="1.894" xlink:href="#radial-gradient-8"/>
    <radialGradient id="radial-gradient-27" cx="148.365" cy="311.755" fx="148.365" fy="311.755" r="1.634" xlink:href="#radial-gradient-8"/>
    <radialGradient id="radial-gradient-28" cx="151.703" cy="312.459" fx="151.703" fy="312.459" r="1.619" xlink:href="#radial-gradient-8"/>
    <radialGradient id="radial-gradient-29" cx="148.341" cy="315.599" fx="148.341" fy="315.599" r="1.565" xlink:href="#radial-gradient-8"/>
    <radialGradient id="radial-gradient-30" cx="151.242" cy="315.699" fx="151.242" fy="315.699" r="1.769" xlink:href="#radial-gradient-8"/>
    <radialGradient id="radial-gradient-31" cx="147.775" cy="319.085" fx="147.775" fy="319.085" r="1.501" xlink:href="#radial-gradient-8"/>
    <radialGradient id="radial-gradient-32" cx="151.359" cy="319.722" fx="151.359" fy="319.722" r="1.802" xlink:href="#radial-gradient-8"/>
    <radialGradient id="radial-gradient-33" cx="148.714" cy="322.901" fx="148.714" fy="322.901" r="1.372" xlink:href="#radial-gradient-8"/>
    <radialGradient id="radial-gradient-34" cx="152.278" cy="323.184" fx="152.278" fy="323.184" r="2.146" xlink:href="#radial-gradient-8"/>
    <radialGradient id="radial-gradient-35" cx="149.28" cy="326.264" fx="149.28" fy="326.264" r="1.647" xlink:href="#radial-gradient-8"/>
    <radialGradient id="radial-gradient-36" cx="150.066" cy="329.934" fx="150.066" fy="329.934" r="1.707" xlink:href="#radial-gradient-8"/>
    <radialGradient id="radial-gradient-37" cx="153.575" cy="328.371" fx="153.575" fy="328.371" r="1.708" xlink:href="#radial-gradient-8"/>
    <radialGradient id="radial-gradient-38" cx="149.575" cy="332.882" fx="149.575" fy="332.882" r="1.554" xlink:href="#radial-gradient-8"/>
    <radialGradient id="radial-gradient-39" cx="153.742" cy="332.84" fx="153.742" fy="332.84" r="1.846" xlink:href="#radial-gradient-8"/>
    <radialGradient id="radial-gradient-40" cx="149.168" cy="336.16" fx="149.168" fy="336.16" r="1.625" xlink:href="#radial-gradient-8"/>
    <radialGradient id="radial-gradient-41" cx="152.553" cy="337.206" fx="152.553" fy="337.206" r="1.981" xlink:href="#radial-gradient-8"/>
    <radialGradient id="radial-gradient-42" cx="147.802" cy="339.222" fx="147.802" fy="339.222" r="1.519" xlink:href="#radial-gradient-8"/>
    <radialGradient id="radial-gradient-43" cx="150.635" cy="341.027" fx="150.635" fy="341.027" r="2.049" xlink:href="#radial-gradient-8"/>
    <radialGradient id="radial-gradient-44" cx="146.037" cy="342.996" fx="146.037" fy="342.996" r="1.876" xlink:href="#radial-gradient-8"/>
    <radialGradient id="radial-gradient-45" cx="149.696" cy="344.655" fx="149.696" fy="344.655" r="2.367" xlink:href="#radial-gradient-8"/>
    <radialGradient id="radial-gradient-46" cx="144.492" cy="346.783" fx="144.492" fy="346.783" r="1.946" xlink:href="#radial-gradient-8"/>
    <radialGradient id="radial-gradient-47" cx="147.77" cy="349.323" fx="147.77" fy="349.323" r="2.251" xlink:href="#radial-gradient-8"/>
    <radialGradient id="radial-gradient-48" cx="142.081" cy="349.519" fx="142.081" fy="349.519" r="1.675" xlink:href="#radial-gradient-8"/>
    <radialGradient id="radial-gradient-49" cx="143.232" cy="353.256" fx="143.232" fy="353.256" r="2.612" xlink:href="#radial-gradient-8"/>
    <radialGradient id="radial-gradient-50" cx="69.037" cy="381.522" fx="69.037" fy="381.522" r="1.63" gradientTransform="translate(61.345 -42.684) scale(1.111 1.049)" xlink:href="#radial-gradient-8"/>
    <radialGradient id="radial-gradient-51" cx="138.117" cy="354.768" fx="138.117" fy="354.768" r="2.42" xlink:href="#radial-gradient-8"/>
    <radialGradient id="radial-gradient-52" cx="23.574" cy="502.705" fx="23.574" fy="502.705" r="1.826" gradientTransform="translate(106.876 -220.508) scale(1.187 1.149)" xlink:href="#radial-gradient-8"/>
    <radialGradient id="radial-gradient-53" cx="132.537" cy="351.639" fx="132.537" fy="351.639" r="2.539" xlink:href="#radial-gradient-8"/>
    <radialGradient id="radial-gradient-54" cx="152.598" cy="304.458" fx="152.598" fy="304.458" r="1.926" xlink:href="#radial-gradient-8"/>
    <radialGradient id="radial-gradient-55" cx="106.685" cy="308.097" fx="106.685" fy="308.097" r="1.247" xlink:href="#radial-gradient-8"/>
    <radialGradient id="radial-gradient-56" cx="110.07" cy="308.12" fx="110.07" fy="308.12" r="1.248" xlink:href="#radial-gradient-8"/>
    <radialGradient id="radial-gradient-57" cx="114.149" cy="309.295" fx="114.149" fy="309.295" r="1.586" xlink:href="#radial-gradient-8"/>
    <radialGradient id="radial-gradient-58" cx="118.12" cy="310.649" fx="118.12" fy="310.649" r="1.305" xlink:href="#radial-gradient-8"/>
    <radialGradient id="radial-gradient-59" cx="121.995" cy="311.58" fx="121.995" fy="311.58" r="1.51" xlink:href="#radial-gradient-8"/>
    <radialGradient id="radial-gradient-60" cx="128.027" cy="311.743" fx="128.027" fy="311.743" r="1.921" xlink:href="#radial-gradient-8"/>
    <radialGradient id="radial-gradient-61" cx="132.392" cy="311.486" fx="132.392" fy="311.486" r="1.329" xlink:href="#radial-gradient-8"/>
    <radialGradient id="radial-gradient-62" cx="137.015" cy="310.221" fx="137.015" fy="310.221" r="1.525" xlink:href="#radial-gradient-8"/>
    <radialGradient id="radial-gradient-63" cx="141" cy="308.671" fx="141" fy="308.671" r="1.149" xlink:href="#radial-gradient-8"/>
    <radialGradient id="radial-gradient-64" cx="144.214" cy="306.981" fx="144.214" fy="306.981" r="1.279" xlink:href="#radial-gradient-8"/>
    <radialGradient id="radial-gradient-65" cx="146.763" cy="304.92" fx="146.763" fy="304.92" r="1.207" xlink:href="#radial-gradient-8"/>
    <radialGradient id="radial-gradient-66" cx="149.782" cy="302.599" fx="149.782" fy="302.599" r="1.356" xlink:href="#radial-gradient-8"/>
    <radialGradient id="radial-gradient-67" cx="152.742" cy="300.575" fx="152.742" fy="300.575" r="1.603" xlink:href="#radial-gradient-8"/>
    <radialGradient id="radial-gradient-68" cx="104.906" cy="310.487" fx="104.906" fy="310.487" r="1.621" xlink:href="#radial-gradient-8"/>
    <radialGradient id="radial-gradient-69" cx="107.828" cy="311.292" fx="107.828" fy="311.292" r="1.694" xlink:href="#radial-gradient-8"/>
    <radialGradient id="radial-gradient-70" cx="111.353" cy="312.658" fx="111.353" fy="312.658" r="1.879" xlink:href="#radial-gradient-8"/>
    <radialGradient id="radial-gradient-71" cx="116.42" cy="313.934" fx="116.42" fy="313.934" r="1.986" xlink:href="#radial-gradient-8"/>
    <radialGradient id="radial-gradient-72" cx="121.62" cy="314.51" fx="121.62" fy="314.51" r="1.947" xlink:href="#radial-gradient-8"/>
    <radialGradient id="radial-gradient-73" cx="127.518" cy="315.023" fx="127.518" fy="315.023" r="2.048" xlink:href="#radial-gradient-8"/>
    <radialGradient id="radial-gradient-74" cx="132.919" cy="314.493" fx="132.919" fy="314.493" r="1.811" xlink:href="#radial-gradient-8"/>
    <radialGradient id="radial-gradient-75" cx="137.727" cy="313.193" fx="137.727" fy="313.193" r="1.592" xlink:href="#radial-gradient-8"/>
    <radialGradient id="radial-gradient-76" cx="142.019" cy="311.109" fx="142.019" fy="311.109" r="1.509" xlink:href="#radial-gradient-8"/>
    <radialGradient id="radial-gradient-77" cx="145.064" cy="309.29" fx="145.064" fy="309.29" r="1.299" xlink:href="#radial-gradient-8"/>
    <radialGradient id="radial-gradient-78" cx="148.157" cy="307.302" fx="148.157" fy="307.302" r="1.53" xlink:href="#radial-gradient-8"/>
    <radialGradient id="radial-gradient-79" cx="303.662" cy="126.452" fx="303.662" fy="126.452" r="6.967" xlink:href="#radial-gradient-6"/>
    <radialGradient id="radial-gradient-80" cx="290.469" cy="76.789" fx="290.469" fy="76.789" r="66.843" xlink:href="#radial-gradient-6"/>
    <radialGradient id="radial-gradient-81" cx="337.117" cy="123.264" fx="337.117" fy="123.264" r="18.368" xlink:href="#radial-gradient-6"/>
    <radialGradient id="radial-gradient-82" cx="322.691" cy="148.757" fx="322.691" fy="148.757" r="16.368" xlink:href="#radial-gradient-6"/>
  </defs>
  <g class="cls-100">
    <g id="_레이어_1" data-name="레이어 1">
      <g>
        <path class="cls-11" d="m211.68,184.731s-13.702-1.606-18.826,3.188c-5.064,4.738-.285,35.961-.285,35.961,0,0,11.997,3.995,21.922-6.668,10.161-10.915.708-32.682-2.811-32.482Z"/>
        <path class="cls-63" d="m202.741,217.127c-.269,1.185-.485,2.48.025,3.547.886,1.855,3.383,2.02,5.41,1.696,9.14-1.46,31.689-18.987,35.151-21.702,1.57-1.23,3.179-2.502,4.258-4.188,1.082-1.691,1.534-3.908.619-5.569-.852-1.547-2.637-2.264-4.311-2.841-10.025-3.453-20.43-5.446-30.811-5.944-3.429-.164-6.978-.141-10.175,1.311-.532.242-1.069.536-1.438,1.011-.708.909-.596,2.236-.094,3.209.502.973,1.319,1.708,2.006,2.545,2.857,3.472,3.361,8.552,2.706,13.229-.653,4.662-2.311,9.129-3.348,13.695Z"/>
        <path class="cls-54" d="m159.112,205.341c-2.548,6.354-.772,16.609,1.16,23.045.635,2.114,1.557,4.115,2.193,6.231.676,2.248,1.023,4.613,1.022,6.978,0,.669-.022,1.366.242,1.972.432.992,1.556,1.474,2.582,1.39,1.028-.085,1.972-.63,2.843-1.227,4.584-3.146,8.014-7.987,12.62-11.309,5.794-4.178,12.978-5.648,19.964-7.446.657-.169,1.445-.48,1.555-1.171.094-.59-.376-1.073-.715-1.543-1.232-1.702-.962-4.116-.503-6.243.807-3.736,2.029-7.408,2.619-11.203.592-3.806.495-7.85-1.225-11.142-.993-1.901-4.241-8.324-6.412-8.76-5.858-1.178-18.46,2.528-21.176,3.635-5.26,2.142-13.21,7.925-16.767,16.794Z"/>
        <path class="cls-16" d="m216.48,211.143c7.121-2.604,14.054-6.183,20.559-10.637,2.564-1.755,5.385-4.381,4.842-7.345-.476-2.596-3.283-3.816-5.769-4.55-8.844-2.612-18.001-3.871-27.083-3.763-.914.011-4.204-.038-4.171,1.466.011.513.593.988.861,1.34.476.624.903,1.291,1.276,1.99.747,1.401,1.28,2.936,1.563,4.535.459,2.589.267,5.277-.17,7.899-.424,2.543-1.411,5.131-1.185,7.696.051.57.164,1.155.496,1.602.443.598,1.2.853,1.934.965,2.274.347,4.618-.382,6.847-1.198Z"/>
        <path class="cls-92" d="m189.828,187.569c-.075.011-.15.022-.225.034-3.486.529-6.89,1.551-10.213,2.716-4.721,1.655-9.569,3.757-13.137,7.541-3.836,4.07-4.985,9.734-5.34,15.178-.327,5.019,2.573,16.575,6.339,17.597,2.915.791,5.99-1.137,8.633-2.819,2.658-1.692,5.06-3.832,7.628-5.746,3.655-2.724,7.656-4.997,11.204-8.004,3.577-3.031,6.75-6.997,7.741-11.688,1.116-5.28-.91-10.973-4.971-13.982-2.074-1.537-5.215-1.192-7.661-.827Z"/>
      </g>
      <g>
        <path class="cls-61" d="m97.908,310.977c-2.629-2.897-7.245-3.759-10.743-2.007-1.449.726-2.677,1.827-4.081,2.638-1.403.811-3.132,1.322-4.641.73-1.159-.454-6.147-5.319-7.7-8.789-.655-1.464-1.246-3.546-1.772-6.167-1.168.451-2.473.732-3.948.763.295,1.481.611,2.868.968,4.066,1.283,4.303,3.095,6.407,5.359,8.925.836,1.027,1.631,2.086,2.374,3.182,2.116,3.117,3.88,7.101,2.359,10.547-.861,1.951-2.662,3.357-4.61,4.222-1.949.865-4.067,1.261-6.149,1.72-4.574,1.009-9.225,2.438-12.773,5.496-3.548,3.058-5.735,8.108-4.23,12.544,1.19,3.508,4.453,5.968,8.028,7.043.63-1.907,1.639-3.554,2.814-5.14-2.332-.421-4.589-2.103-4.884-4.444-.106-.842.074-1.763.673-2.364.502-.505,1.234-.728,1.922-.848,1.297-.226,2.627-.146,3.905.17,6.634,1.64,13.629,3.459,20.379,2.07,5.36-1.103,10.231-4.245,13.652-8.516,3.421-4.271,5.408-9.624,5.866-15.077.319-3.799-.206-7.94-2.769-10.762Z"/>
        <path class="cls-80" d="m91.99,316.262c-1.687-2.488-3.994-2.391-6.387-2.26-.739.04-4.917,1.191-6.097.712-2.694-1.094-4.396-3.628-6.364-5.623-2.045-2.073-3.77-4.411-4.622-7.269-.359-1.204-.654-2.566-.923-3.997-.518.122-1.083.174-1.651.227.258,1.348.543,2.626.884,3.769.998,3.349,2.996,6.151,5.348,8.644,1.005,1.072,2.144,2.09,3.042,3.253,1.478,1.913,2.762,4.066,3.798,6.249,2.176,4.588.285,9.055-3.98,11.574-5.003,2.955-10.98,2.07-16.325,4.002-.651.235-1.27.49-1.858.769-3.184,1.514-6.286,4.402-6.697,7.904-.052.442-.07.883-.06,1.322.948-.064,1.927.09,2.842.443-.195-2.244.636-4.502,2.31-5.088,2.284-.801,6.894-.543,8.745-.339,3.34.368,6.59.983,9.966.892,6.336-.17,11.762-1.477,15.158-7.341,2.713-4.685,6.317-12.762,2.871-17.843Z"/>
      </g>
      <g>
        <g>
          <path class="cls-57" d="m150.703,336.401c-.691-4.198-1.093-8.508-.761-12.708.198-2.499.258-5.252,1.064-7.632.212-.626.574-1.397.916-2.176-1.174-.643-2.677-.998-4.052-1.057-1.703-.074-9.332,4.34-10.826,4.631-6.719,1.309-6.951-1.449-13.201-.72-5.864.684-11.65.782-16.964-.251-.959.93-1.912,1.868-2.766,2.894-1.013,1.217-1.253,1.462-1.915,2.581.593,1.418-.406,3.032.435,4.435.34.567.94,1.011,1.264,1.598.316.572.331,1.206.332,1.814.002,2-.073,4.075.64,6.179.411,1.212,1.075,2.404,1.51,3.655.441,1.272.622,2.677.031,3.686-.338.577-.896.976-1.483,1.343,2.559,3.093,4.528,6.744,8.337,9.286,3.416,2.28,1.274,1.433,4.548.554,1.931-.519,4.121-2.948,6.192-2.972,2.029-.024,3.301,2.153,5.056,3.779,1.833,1.697,4.139,2.876,5.758,4.278.079.068.13.141.206.21,2.131-.178,4.036-1.013,4.359-2.856.106-.601.969-.077,1.266-.567.851-1.407,3.06-1.626,4.825-2.284,1.83-.681,1.698-2.905,1.267-4.874-.424-1.934-.967-4.047.275-5.209.826-.773,2.366-1.021,2.94-1.958.539-.88.09-2.132-.118-3.258-.18-.975-.025-1.981.863-2.401Z"/>
          <path class="cls-49" d="m138.652,322.891c.254,1.34.511,2.695.771,4.067.067.353.146.731.423,1.038.278.308.827.479,1.064.242.177-.683.123-1.448-.151-2.187,2.091-.107,3.953-.948,5.092-2.304.513-.61.884-1.321,1.527-1.829.642-.508,1.675-.783,2.656-.383.176.072.301.192.449.292.017-.557.083-1.102.205-1.641-.377-.226-.776-.412-1.205-.479-.159-.673-.316-1.341-.473-2.006.823.082,1.65.165,2.483.248-.011-.732-.346-1.511-.93-2.168-.262-.294-.609-.583-1.019-.663-.409-.08-2.047.381-2.686.071-.229.198-.472.378-.724.553.126.156.255.31.364.472.294.437.591.92,1.117,1.19.065.033.137.042.205.067-.508,2.613-2.176,4.904-4.673,6.329-.966.552-2.603.822-3.395-.173-.31-.389-.797-1.018-1.099-.734Z"/>
          <path class="cls-49" d="m151.826,336.444c-.08-.203-.136-.406-.202-.609-1.315-.27-2.656-1.511-3.006-2.706-.422-1.441.186-2.711.953-3.754.527-.718,1.157-1.473.938-2.433-.217-.951-1.831-1.898-2.471-1.281.69,1.8-.661,3.311-2.266,4.136-1.442.741-3.132,1.169-4.919,1.248-.968.043-2.02-.032-2.945-.535-1.393-.758-2.073-2.219-2.611-3.515-.385-.928-.767-1.848-1.145-2.759-.23-.555.059-1.21.631-1.351,1.681-.414,3.116-1.329,3.996-2.601.61-.882.951-1.9,1.391-2.862.018-.039.042-.073.06-.111-.644-.029-1.272-.081-1.847-.21-1.244,1.81-2.609,3.653-4.931,4.36-.077.023-.153.048-.231.071.67-1.363,1.128-2.801,1.481-4.264-.636.165-1.32.259-2.044.297-.019.103-.043.205-.062.308-.506,2.748-1.728,5.364-3.775,7.358-1.027,1.001-2.449,1.87-4.075,1.522-.245-.052-.498-.138-.691-.306-.239-.209-.344-.511-.387-.793-.24-1.562,1.009-3.07.111-4.466-.836-1.301-2.784-1.333-4.257-1.135-3.509.475-7.057,1.112-10.437.142-.412-.118-.86-.294-1.061-.662-.276-.506.101-1.112.627-1.298.527-.186,1.138-.072,1.715.054,3.913.853,8.369,2.129,11.915.469.84-.393,1.709-.948,2.709-.731-.947-.306-1.79-.747-2.526-1.298-.73.17-1.432.418-2.112.68-1.237.477-2.487.986-3.858,1.03-1.903.061-3.754-.774-5.594-1.181-1.81-.4-3.969-.227-4.831,1.222-.191.321-.307.702-.246,1.085.077.48.413.863.828,1.181-.012.009-.029.011-.041.021-.301.253-.399.668-.477,1.06-.201,1.012-.351,2.142.199,3.106.541.948,1.649,1.499,2.724,1.677,1.645.272,3.245-.175,4.86-.442,2.549-.421,5.281-.373,8.051.11.166.449.469.857.864,1.202-.433.1-.734.427-.971.769-.425.615-.731,1.316-.9,2.069-.747,3.318,1.155,7.142,2.451,11.001-.026-.006-.05-.004-.076-.01-.319.484.037,1.243.593,1.722.306,1.129.514,2.25.547,3.345-.714.055-1.417.14-2.1.234-.428.059-.854.126-1.278.19-.161-.381-.368-.766-.515-1.142-.293-.75-.345-1.517-.476-2.271-.18-1.038-.563-2.125-1.225-2.982.054-.555.065-1.121.005-1.693-.22-2.09-1.19-4.157-1.257-6.159-.037-1.112.203-2.2.096-3.283-.05-.511-.46-.914-.961-.933-.864-.034-1.911-1.311-2.575-.099-.168,1.404.75,2.85,1.414,4.271.958,2.051,1.417,4.306,1.332,6.486-.213-.083-.426-.169-.641-.23-.667-.19-1.336-.268-1.997-.294-.08-.686-1.463-11.299-10.02-10.064-8.61,1.242.454,1.083.454,1.083,0,0,3.468.012,6.081,3.483-.202.024-.372.149-.542.257-.405.257-.923.391-1.399.224-.216-.075-.416-.209-.639-.25-.222-.041-.487.059-.513.282-.023.197.151.378.33.476.179.099.383.155.536.296.225.206.278.533.316.83.272.127.586.022.798-.165.211-.187.348-.444.512-.676.164-.232.374-.451.655-.51.145-.03.297-.025.446-.03.766,1.216,1.429,2.764,1.849,4.786-.889.097-1.735.341-2.475.762-.002.434.14.893.399,1.283.141.213.345.423.578.443.141.012.266-.048.386-.107.826-.405,1.708-.764,2.69-.753.664.007,1.376.233,1.98.643-.02.107-.017.222-.04.328-.085.395-.188.809-.058,1.235.127.415.453.765.766,1.094.329.033.566-.168.744-.429.08.366.137.737.177,1.102.099.897.19,1.845.687,2.691.067.115.166.214.253.321-1.228.22-2.433.483-3.606.805-.181-.354.062-.717.252-1.008.532-.814.498-2.052-.08-3.046-.431-.385-.981.029-1.131.511-.15.483-.181,1.095-.602,1.329-.428.237-1.028-.058-1.492-.402-.461-.341-.93-.758-1.445-.81-.47-.047-.859.225-1.212.486-.309.23-.65.55-.551.991.039.174.145.335.27.468.767.822,2.189.715,2.708,1.739.102.201.15.42.241.626.145.328.399.579.688.773.031.163.09.322.21.45.189.203.448.292.693.358,3.087.84,5.97-.249,8.844-1.014.163-.043.332-.079.498-.119.088.757-.108,1.514-.556,2.017-.721.812-1.842,1.119-2.917,1.402-1.152.303-2.298.604-3.439.904-1.273.335-2.675.651-4.006-.052-1.432-.755-2.298-2.428-3.019-3.931-.464-.969-.924-1.927-1.379-2.876-.055-.115-.117-.237-.22-.303-.126-.08-.272-.048-.384.015-.45.25-.579.909-.445,1.505.136.599.484,1.153.834,1.683,1.518,2.302,3.41,4.702,5.872,5.684,1.684.671,3.407.579,5.043.355,2.207-.301,4.549-.971,5.432-3.02.02-.047.024-.104.043-.153.812.431,1.686.745,2.361,1.436.655.671,1.014,1.604,1.71,2.251.789.734,1.822.934,2.757,1.02.581.053,1.252.026,1.428-.485.092-.266.02-.601.004-.91-.046-.906.412-1.636,1.058-2.08.646-.445,1.469-.641,2.3-.79.223-.04.469-.12.635-.251.367.192.737.378,1.107.561,1.908.942,3.914,1.892,5.888,2.126,2,.237,3.953-.426,4.439-2.107.421-1.454-.309-3.27-.759-4.937-.279-1.035-.412-2.047-.478-3.037.766.151,1.545.043,2.061-.327,1.019-.73,1.239-2.098,1.279-3.413.047-1.54-.142-3.12-.458-4.694.193.112.383.227.593.318.687.296,1.376.402,2.031.383-.182-.359-.372-.713-.522-1.094Zm-29.852-11.92c-2.54.19-5.041.376-7.504.561-.84.063-1.675.125-2.506.187-.715.053-1.431.107-2.152.042-.801-.071-1.637-.311-2.237-.872-.595-.556-.87-1.487-.466-2.102.153-.235.388-.407.547-.637.064-.092.105-.202.129-.314,3.784,1.714,8.238,1.428,12.145.194.345-.109.71-.226,1.093-.148.861.176,1.28,1.209,1.194,1.994-.041.373-.149.733-.243,1.095Zm8.226,1.551c.585-.666,1.116-1.372,1.607-2.1.236.616.698,1.215,1.061,1.822.833,1.395,1.175,2.968,2.195,4.34.569.766,1.348,1.403,2.21,1.92-2.532.681-5.882-.366-7.8-2.527-.425-.479-.786-1.002-1.271-1.42-.064-.056-.138-.102-.208-.152.854-.48,1.578-1.168,2.206-1.883Zm-7.37,10.201c-.799-2.985-.769-6.215,1.152-8.07.653.286,1.37.432,2.026.38.188-.015.368-.047.546-.083.462.518,1.323.84,1.968,1.274.295.198.549.438.789.694-1.051.003-1.963.553-2.752,1.117-.31.222-.63.454-.792.797-.201.424-.136.958-.066,1.469.186,1.367.393,2.805,1.187,4.115.461.761,1.143,1.585.99,2.345-.121.601-.735.891-1.337,1.034-.605.144-1.251.165-1.906.127-.661-1.756-1.345-3.48-1.805-5.199Zm10.653,15.119c-.685.124-1.291.51-1.474,1.17-.111.401-.062.873-.15,1.287-.18.842-.978,1.358-1.891,1.223-.359-.053-.758-.22-1.011-.545-.23-.296-.293-.656-.429-.988-.496-1.2-1.84-1.851-2.987-2.317-.263-.107-.539-.206-.808-.276.03-.267.066-.533.082-.803.022-.374.02-.77-.07-1.154,2.519-.442,5.32-.367,7.887,1.333.576.381,1.269.842,1.872,1.024.002.002.004.004.007.005-.355-.02-.702-.018-1.03.041Zm14.206-9.069c-.135.2-.292.398-.538.485-.533.187-1.33-.244-1.699-.805-.367-.558-.382-1.179-.227-1.683.154-.504.457-.925.694-1.383.382-.74.589-1.578.608-2.462.012-.543-.062-1.142-.457-1.657-.392-.512-1.193-.868-1.652-.611.389,1.017.425,2.068.098,2.949-.373,1.006-1.208,1.845-1.048,3.032.083.617.43,1.246.648,1.876.235.679.335,1.395.798,2.033.163.225.366.407.585.571-.096.189-.166.394-.181.616-.053.76.262,1.603.501,2.425.525,1.796.655,3.776-.497,4.836-.997.917-2.75.906-4.376.365-1.605-.533-3.114-1.512-4.564-2.471-.934-.617-1.936-1.325-2.348-2.293-.307-.721-.216-1.434-.139-2.108.27-2.371.291-4.788.069-7.2-.075-.809-.22-1.704-.871-2.355-.646-.645-1.92-.69-1.985.071-.023.275.112.571.234.855,1.151,2.67,1.426,5.566.74,8.073-.136.498-.31.988-.321,1.536-.005.259.051.525.115.791-.151-.088-.296-.192-.449-.271-1.749-.908-3.529-1.199-5.264-1.219-.03-.156-.062-.313-.099-.466-.18-.749-.412-1.489-.656-2.223.393.045.788.035,1.171.022.778-.027,1.615-.075,2.118-.573.53-.526.548-1.425.379-2.26-.263-1.301-.907-2.563-1.311-3.829-.399-1.251-.538-2.616.139-3.516.295-.393.725-.668,1.169-.913.472-.26.995-.482,1.575-.52.144.163.285.33.446.479,1.274,1.183,3.111,1.7,4.723,1.615.427-.022.837-.102,1.206-.247-.337,3.882.051,8.096,1.253,12.469-.736-.071-1.115.711-.829,1.432.288.725,1.053,1.312,1.809,1.591.761.281,1.523.308,2.27.331.463.015.942.027,1.322-.14.38-.167.638-.559.499-1.021-.272-.901-1.544-1.19-2.413-1.732-1.336-.833-1.792-2.433-1.984-3.757-.358-2.467-.406-4.854-.152-7.106.116-1.027.284-2.072.122-3.124.605.211,1.22.372,1.831.439,1.692.186,3.28-.176,4.556-.905.514-.294,1.161-.058,1.359.511.326.941.83,1.891,1.53,2.692-.016.291.059.611.155.925.645,2.113.41,4.241-.66,5.826Z"/>
          <path class="cls-49" d="m111.765,333.228c.022.047.048.095.069.129-.018-.013-.041-.017-.059-.029-.001-.034.007-.068-.009-.1Z"/>
        </g>
        <path class="cls-91" d="m152.411,327.555c-1.893-7.781,2.583-21.743.426-21.622,0,0-9.282,8.82-16.112,11.021-6.829,2.201-15.448,1.742-17.892.428-2.445-1.314-8.972-4.589-13.93-1.09-4.605,3.25-11.64,26.91,4.443,34.357,1.816.03,3.618-.369,3.415-2.538-.125-1.342-.452-2.63-.75-3.92-3.078-2.017-9.864-7.749-8.481-18.449,1.776-13.749,6.51-4.615,12.059-4.371,5.549.244,19.151,4.371,36.058-9.866,0,0-3.635,6.402-2.777,16.382.858,9.98,2.298,21.498-5.78,27.734-8.078,6.235-10.356,1.936-9.911,4.922.446,2.986,10.404,5.5,15.709-4.091,5.305-9.591,5.417-21.116,3.523-28.897Z"/>
        <g>
          <g>
            <path class="cls-18" d="m100.974,322.698c1.059.534,2.435.11,3.137-.84.702-.949.761-2.302.295-3.404-.642-.225-1.294-.453-1.969-.499-.676-.046-1.391.11-1.889.57-.295.273-.498.636-.644,1.014-.111.287-.192.588-.213.896-.062.917.469,1.853,1.283,2.263Z"/>
            <path class="cls-83" d="m104.912,319.361c-.376.104-.733.278-1.048.51-.338.25-.626.565-.882.902-.165.218-.322.454-.373.725-.125.655.431,1.296,1.066,1.478s1.307.02,1.93-.182c.876-.285,1.852-.811,1.951-1.744.065-.617-.322-1.234-.861-1.535-.539-.301-1.195-.317-1.783-.154Z"/>
            <path class="cls-72" d="m99.27,322.552c-.698.522-.891,1.626-.415,2.373.255.4.657.681,1.075.895.715.365,1.558.563,2.31.305.752-.258,1.34-1.077,1.153-1.867-.142-.602-.668-1.041-.876-1.624-1.066-.393-2.341-.76-3.247-.083Z"/>
            <path class="cls-86" d="m102.206,324.873c.425,1.018,1.778,1.427,2.845,1.263,1.066-.163,1.891-1.393,1.5-2.423-.103-.272-.279-.516-.503-.699-.705-.577-1.73-.464-2.577-.165-.511.181-1.072.511-1.122,1.061-.019.209-.225.768-.143.963Z"/>
            <path class="cls-23" d="m102.838,327.167c-.501-.361-1.001-.721-1.502-1.082-.641-.462-1.341-.943-2.122-.934-1.021.013-1.91,1.028-1.806,2.064.069.688.506,1.296,1.047,1.718.58.453,1.29.729,2.016.782.433.032.885-.019,1.259-.24.536-.318.838-.958.863-1.592.024-.634.757-.349.247-.717Z"/>
            <path class="cls-22" d="m101.473,328.79c.422.895,1.578,1.149,2.536,1.007.344-.051.686-.14.99-.308.969-.534,1.364-1.923.833-2.918-.111-.208-.26-.401-.46-.521-.25-.151-.551-.173-.84-.176-.84-.009-1.72.13-2.386.646-.666.517-1.039,1.493-.673,2.27Z"/>
            <path class="cls-68" d="m101.562,332.521c-.286-.68-.391-1.741.111-2.266.501-.525,1.134-.846,2.32-.8.541.021,1.032.188,1.394.401.48.283.638.618.685,1.171.024.286.047.584-.054.851-.307.815-1.457,1.05-2.187,1.236-.638.163-1.821.009-2.269-.594Z"/>
            <path class="cls-82" d="m101.526,331.298c-.446-.431-.813-.94-1.26-1.369s-1.008-.783-1.62-.796c-.954-.02-1.766.848-1.932,1.805-.043.247-.051.506.022.746.092.306.304.557.511.798.742.865,1.656,1.808,2.774,1.728.567-.041,1.086-.354,1.491-.758.423-.423.751-1.083.475-1.623-.108-.21-.291-.367-.461-.53Z"/>
            <path class="cls-8" d="m97.594,334.276c-.507.424-.969,1.018-.919,1.688.056.757.737,1.308,1.415,1.624,1.622.755,3.575.705,5.144-.13.187-.1.378-.219.477-.409.103-.197.091-.438.044-.657-.117-.548-.436-1.049-.878-1.383-.264-.199-.565-.337-.858-.486-.965-.492-1.969-1.146-3.028-.966-.521.089-.99.378-1.398.719Z"/>
            <path class="cls-47" d="m107.037,335.267c-.007.443-.158.891-.457,1.204-.286.299-.68.456-1.07.574-.85.259-1.742.375-2.631.343-.741-.027-1.583-.227-1.945-.902-.436-.812.075-1.825.719-2.458.848-.832,2.02-1.387,3.18-1.21,1.16.177,2.223,1.233,2.204,2.448Z"/>
            <path class="cls-71" d="m96.955,340.065c-.107.725.454,1.378,1.046,1.796,1.967,1.389,4.771,1.376,6.704-.028.286-.207.563-.457.683-.794.182-.511-.043-1.077-.293-1.561-.296-.572-.655-1.143-1.201-1.47-.275-.165-.585-.259-.897-.328-1.794-.396-3.743.046-5.197,1.181-.394.307-.772.701-.846,1.203Z"/>
            <path class="cls-41" d="m108.426,339.737c.028-.531-.036-1.089-.317-1.54-.373-.599-1.084-.915-1.775-.944-.691-.03-1.367.19-2.002.467-.838.366-1.721.959-1.852,1.885-.098.693.283,1.398.836,1.817.553.418,1.251.587,1.935.637,1.154.084,2.491-.272,2.968-1.345.135-.304.188-.641.206-.976Z"/>
            <path class="cls-42" d="m108.393,345.672c-1.033.036-1.942-.701-2.64-1.49-.179-.203-.354-.415-.463-.665-.326-.751.058-1.669.697-2.155.639-.486,1.466-.625,2.263-.666.804-.042,1.634.007,2.375.34.74.333,1.379.994,1.525,1.808.151.846-.262,1.724-.908,2.264-.647.54-1.492.779-2.327.843-.739.056-.385.471-.521-.279Z"/>
            <path class="cls-51" d="m101.959,349.182c1.351.111,2.76-.027,3.944-.691,1.281-.718,2.214-2.048,2.474-3.522.08-.454.077-.983-.245-1.309-.196-.199-.474-.282-.718-.414-.481-.259-.837-.711-1.299-1.005-.588-.375-1.301-.467-1.988-.537-.436-.044-.874-.083-1.311-.064-1.745.075-3.468,1.208-4.018,2.906-.551,1.7.32,3.834,1.98,4.416.38.133.781.187,1.181.22Z"/>
            <path class="cls-37" d="m113.96,342.964c.49.439.752,1.092.883,1.744.161.798.109,1.729-.469,2.279-.396.376-.956.496-1.487.602-.696.139-1.433.274-2.102.022-.89-.335-1.451-1.347-1.404-2.315.048-.968.635-1.852,1.425-2.375.945-.625,2.3-.723,3.154.043Z"/>
            <path class="cls-93" d="m111.01,350.747c-.201.97-.364,1.969-.222,2.954.072.5.229,1.001.542,1.393.313.392.8.658,1.287.608.53-.055.887-.477,1.102-.978.439-1.026-.583-3.083-.33-4.399.318-1.648,1.454-1.144,1.251-2.815-.107-.882-1.325-.62-1.623-.507-1.256.474-1.679,2.16-2.007,3.744Z"/>
            <path class="cls-62" d="m112.43,349.855c.116-1.58-1.211-3.043-2.73-3.334-1.519-.292-3.097.412-4.188,1.528-.355.364-.671.773-.892,1.236-.769,1.614-.078,3.853,1.528,4.59.923.423,1.999.349,2.953.023,1.06-.363,2.037-1.051,2.62-2.028.583-.976.624-.87.708-2.015Z"/>
            <path class="cls-76" d="m112.284,348.782c-.181-.655-.635-.887-1.244-1.159-1.64-.732-3.183-1.687-4.54-2.886-2.409-2.127-3.809-4.163-4.403-7.35-.213-1.142-.581-3.306-.611-4.465-.061-2.325.046-4.506.515-6.77.4-1.931,1.218-5.077,2.23-7.245.039-.084.234-.22.259-.284-.13-.048-.25-.107-.359-.179-3.372,6.079-4.286,13.597-2.418,20.435.336,1.232.762,2.449,1.409,3.547,1.276,2.162,3.284,3.678,5.454,4.947.929.543,3.477,1.507,3.787,1.65-.031-.079-.058-.159-.081-.241Z"/>
          </g>
          <g>
            <path class="cls-44" d="m125.418,370.501c.312,1.292.322,2.676.877,3.879.556,1.203,1.961,2.172,3.135,1.603.81-.393,1.188-1.338,1.496-2.201.753-2.113,1.507-4.226,2.26-6.339.438-1.228.879-2.471,1.026-3.77.152-1.343-.02-2.724-.497-3.984-.158-.418-.355-.832-.671-1.14-.395-.386-.934-.57-1.46-.718-.884-.25-1.8-.432-2.715-.374-1.728.11-3.361,1.115-4.34,2.579-.979,1.463-1.31,3.345-.977,5.087.357,1.871,1.421,3.528,1.867,5.379Z"/>
            <path class="cls-60" d="m153.548,313.408c-.462-.436-1.124-.598-1.737-.534-.614.064-1.186.331-1.707.66-.638.402-1.239.933-1.504,1.655-.265.723-.1,1.665.537,2.109.358.25.804.312,1.231.329,1.143.046,2.359-.222,3.132-1.062.773-.84.9-2.351.047-3.156Z"/>
            <path class="cls-26" d="m145.661,318.483c.023.263.131.516.279.735.432.639,1.198.994,1.945,1.013.747.02,1.472-.266,2.08-.694.35-.246.677-.552.85-.951.173-.399.164-.907-.107-1.257-.102-.132-.236-.235-.373-.327-1.126-.752-2.662-.772-3.767-.048-.514.337-.961.895-.906,1.529Z"/>
            <path class="cls-77" d="m152.497,317.136c-1.312-.175-2.781.421-3.258,1.673-.099.259-.153.543-.117.822.083.638.64,1.146,1.247,1.312.606.166,1.247.046,1.831-.161.843-.3,1.681-.864,1.908-1.752.072-.283.076-.592-.028-.87-.234-.628-.937-.938-1.582-1.024Z"/>
            <path class="cls-27" d="m146.158,322.225c.01.382.072.774.259,1.109.329.591.991.909,1.636,1.041.505.104,1.057.109,1.487-.167.427-.274.66-.781.781-1.286.179-.746.117-1.643-.449-2.167-.394-.364-.945-.47-1.467-.52-.581-.056-1.217-.046-1.665.325-.461.381-.599,1.049-.582,1.665Z"/>
            <path class="cls-6" d="m150.594,320.631c-1.113.244-1.985,1.313-2.028,2.49-.011.309.032.63.186.899.233.407.692.638,1.144.687.452.049.902-.058,1.332-.191.773-.238,1.55-.582,2.062-1.217.512-.635.684-1.624.212-2.318-.414-.608-1.208-.839-1.913-.754-.705.085-1.345.431-1.967.771-.383.209,1.398-.461.972-.368Z"/>
            <path class="cls-66" d="m149.349,327.406c.138-.212.209-.466.246-.721.13-.905-.179-1.878-.809-2.544-.671-.477-1.628-.474-2.262.023-.634.497-.883,1.458-.561,2.228.116.279.297.526.5.747.386.419.879.759,1.429.847.549.089,1.152-.112,1.457-.58Z"/>
            <path class="cls-50" d="m150.591,329.019c.884.148,1.83-.112,2.456-.749.625-.637.887-1.652.587-2.525-.405-1.178-1.857-1.856-2.955-1.382-.278.12-.527.299-.755.501-.489.433-.894.993-1.042,1.645-.148.653-.007,1.402.455,1.891.33.349.791.54,1.254.618Z"/>
            <path class="cls-46" d="m147.079,328.429c-.436.574-.305,1.47.16,2.044.211.261.478.468.749.662.34.243.72.479,1.129.468.445-.012.836-.324,1.057-.717s.295-.857.333-1.313c.013-.162.021-.332-.042-.483-.063-.152-.188-.266-.313-.37-.45-.376-.96-.705-1.526-.808-.566-.103-1.198.058-1.547.517Z"/>
            <path class="cls-59" d="m151.533,327.61c-1.074.403-1.846,1.517-1.874,2.705-.028,1.19.69,2.382,1.744,2.895.573.279,1.254.36,1.825.108.573-.253.971-.805,1.221-1.393.265-.624.392-1.329.255-2.006-.2-.992-1.001-1.841-1.956-2.075-.956-.234-.646-1.037-1.216-.235Z"/>
            <path class="cls-25" d="m147.25,332.525c-.116.758.029,1.581.479,2.208.449.627,1.219,1.026,1.957.926.622-.084,1.179-.523,1.419-1.117.24-.594.154-1.323-.219-1.855-.13-.185-.29-.346-.427-.525-.186-.243-.331-.52-.542-.741-.602-.631-1.719-.598-2.255.067-.233.29-.355.662-.413,1.037Z"/>
            <path class="cls-90" d="m151.915,336.914c.039-.629-.283-1.261-.771-1.654-.488-.392-1.122-.557-1.732-.526-.513.026-1.047.207-1.352.628-.211.292-.29.668-.295,1.036-.022,1.445,1.144,2.833,2.535,3.018.358.047.732.021,1.052-.142.588-.3.885-1.015.895-1.699.01-.683-.373.02-.331-.661Z"/>
            <path class="cls-64" d="m153.207,333.179c-1.125.505-1.952,1.706-1.939,2.997.004.394.087.808.335,1.114.312.384.825.526,1.304.542.962.032,1.947-.396,2.476-1.212.529-.815.517-2.014-.126-2.768-.643-.754-1.789-.79-2.049-.673Z"/>
            <path class="cls-33" d="m149.497,342.288c.808-.023,1.659-.481,1.874-1.283.129-.483.012-1.005-.158-1.481-.248-.692-.674-1.402-1.356-1.614-.62-.194-1.31.101-1.71.614-.4.513-.543,1.204-.523,1.872.015.488.124,1.002.448,1.365.355.398.909.542,1.426.527Z"/>
            <path class="cls-12" d="m155.916,338.466c-.333-.536-.961-.829-1.569-.842-.609-.013-1.196.222-1.707.552-.663.429-1.24,1.055-1.444,1.841-.204.786.044,1.736.712,2.192.265.181.576.275.888.322.893.134,1.833-.13,2.496-.741.663-.611,1.024-1.567.903-2.491-.039-.292-.124-.583-.28-.833Z"/>
            <path class="cls-10" d="m151.294,343.022c-.001-.178-.019-.357-.071-.527-.135-.439-.489-.78-.883-.995-1.042-.568-2.468-.257-3.099.747-.632,1.005-.282,2.57.76,3.145.605.333,1.358.322,1.959.009.601-.313,1.044-.907,1.23-1.578.072-.259.107-.529.105-.8Z"/>
            <path class="cls-55" d="m152.344,341.898c-.318.028-.62.152-.894.317-.575.348-1.037.889-1.301,1.524-.433,1.04-.257,2.405.6,3.143.874.753,2.246.648,3.107-.08.861-.727,1.241-1.945,1.182-3.107-.009-.172-.027-.347-.096-.505-.138-.314-.448-.503-.74-.671-.58-.334-1.205-.68-1.859-.622Z"/>
            <path class="cls-73" d="m149.022,347.895c.72-.488,1.257-1.459.887-2.282-.308-.685-1.108-.978-1.832-1.024-1.126-.07-2.439.5-2.608,1.651-.122.833.459,1.688,1.226,1.992.767.304,1.651.12,2.327-.338Z"/>
            <path class="cls-21" d="m148.026,348.646c.008.754.375,1.48.897,2.015.595.61,1.462,1.004,2.263.802,1.045-.263,1.635-1.415,1.838-2.511.116-.625.141-1.307-.156-1.874-.403-.77-1.282-1.122-2.103-1.312-.242-.056-.494-.103-.734-.046-.225.054-.419.196-.598.344-.769.638-1.418,1.549-1.407,2.582Z"/>
            <path class="cls-81" d="m143.361,351.79c.361.873,1.43,1.188,2.334,1.098,1.419-.142,2.818-1.188,2.984-2.655.029-.255.02-.519-.052-.767-.226-.778-1.03-1.247-1.804-1.36-1.624-.237-3.353.965-3.57,2.643-.045.349-.028.715.107,1.041Z"/>
            <path class="cls-65" d="m148.257,355.618c.689.627,1.779.623,2.533.115.753-.508,1.183-1.432,1.269-2.366.086-.934-.137-1.88-.473-2.759-.294-.77-.804-1.601-1.593-1.689-.464-.051-.91.178-1.277.468-1.591,1.257-2.02,3.844-.931,5.635.133.218.285.426.473.596Z"/>
            <path class="cls-13" d="m147.077,352.786c-1.093-.878-2.647-1.084-3.894-.516-.659.3-1.241.817-1.531,1.501-.291.684-.254,1.538.18,2.149.447.631,1.248.92,1.994.872.746-.048,1.442-.389,2.061-.813.825-.565,1.612-1.475,1.433-2.496-.12-.688.293-.267-.242-.697Z"/>
            <path class="cls-40" d="m149.2,354.073c-1.066-.328-2.266.026-3.058.814-.793.789-1.185,1.967-1.131,3.119.022.468.116.943.351,1.346.398.68,1.171,1.073,1.93,1.094.759.021,1.496-.294,2.097-.766.279-.219.539-.48.691-.808.126-.271.172-.575.213-.874.121-.884.195-1.832-.195-2.638-.389-.805-.167-1.745-.898-1.288Z"/>
            <path class="cls-88" d="m142.832,355.048c-.477-.078-.969-.109-1.436.004-1.139.276-1.978,1.497-1.862,2.713.021.223.072.448.179.644.309.565.999.768,1.62.803,1.245.071,2.647-.467,3.066-1.677.277-.798-.011-1.82-.738-2.231-.255-.144-.544-.209-.829-.256Z"/>
            <path class="cls-84" d="m145.688,357.939c-1.359-.503-2.855.133-4.005,1.01-.877.669-1.679,1.535-1.968,2.631-.289,1.097.077,2.446,1.051,2.989.464.259,1.007.312,1.53.288,1.399-.066,2.794-.705,3.624-1.862.83-1.157,1.003-2.845.271-4.094-.089-.152-.19-.297-.318-.414-.439-.402.365-.343-.185-.546Z"/>
            <path class="cls-56" d="m140.419,358.321c.018-.379.001-.765-.123-1.128-.325-.945-1.422-1.572-2.452-1.466-1.031.106-1.917.888-2.187,1.842-.264.936.125,2.089,1.056,2.496.44.193.94.203,1.421.193.648-.014,1.359-.086,1.802-.533.362-.365.459-.9.483-1.405Z"/>
            <path class="cls-79" d="m141.386,363.805c.39-.703.455-1.595.164-2.357-.29-.762-.933-1.375-1.689-1.603-.82-.246-1.697-.048-2.499.238-.99.353-1.976.873-2.576,1.762-.601.89-.697,2.223.018,3.037.673.767,1.793.851,2.781.781,1.462-.104,3.073-.546,3.8-1.857Z"/>
            <path class="cls-74" d="m137.887,357.915c-.738-1.795-2.992-2.85-4.862-2.275-.828.254-1.613.877-1.714,1.723-.112.937.64,1.783,1.468,2.277.788.471,1.718.753,2.628.65.909-.103,1.785-.63,2.161-1.443.376-.813,1.064-.4.319-.932Z"/>
            <path class="cls-32" d="m136.11,361.527c.167-1.52-.45-3.119-1.585-4.113-1.135-.994-2.756-1.354-4.169-.925-.363.11-.718.272-.996.536-.455.432-.658,1.104-.617,1.747.041.643.305,1.257.661,1.79,1.054,1.578,2.984,2.478,4.806,2.244.351-.045.702-.131,1.011-.307.765-.437.79-.067.889-.972Z"/>
          </g>
          <path class="cls-76" d="m149.372,350.726c1.694-3.761,4.791-8.55,1.632-20.862-.683-2.664-.968-5.155-.999-7.878-.02-1.731.333-3.609.572-4.794.37-1.834.935-4.745.208-7.41-.152-.557-.479.267-1.038.442,1.464,2.849.047,6.282-.35,9.406-.896,7.06,2.897,14.22,2.089,21.353-.484,4.268-1.891,7.625-3.952,11.413-.766,1.409-3.256,6.98-8.389,7.372-.856.065-1.661.26-2.476-.047-.226-.085-2.072-1.207-2.085-1.195-.59.544.133,1.498.87,1.85,2.915,1.392,6.521.311,8.887-1.789,2.361-2.094,3.746-5.013,5.03-7.861Z"/>
          <path class="cls-53" d="m150.173,310.845c-.048-.433.297-.783.612-1.063.88-.78,1.999-1.611,3.124-1.21.936.333,1.453,1.492,1.269,2.475-.185.984-.938,1.764-1.814,2.192-.768.375-1.726.504-2.475.045-.63-.386-1.004-1.146-1.014-1.889-.01-.743-.193-.019.298-.55Z"/>
          <path class="cls-31" d="m104.664,314.589c-.043-.122-.083-.251-.061-.378.021-.124.099-.23.183-.323.589-.647,1.523-.823,2.395-.866.375-.018.789-.005,1.073.249.225.201.319.513.37.812.064.377.069.79-.136,1.107-.363.559-1.152.549-1.81.632-.285.036-.574.101-.857.043-.582-.118-.954-.708-1.156-1.276Z"/>
          <path class="cls-87" d="m109.892,315.65c-.721.33-1.692-.135-1.913-.916-.035-.125-.053-.257-.028-.383.042-.208.195-.372.355-.508.756-.644,1.81-.912,2.786-.708.251.052.505.139.693.316.357.335.384.927.159,1.356-.225.429-.65.713-1.093.896-.591.244-.365.204-.959-.052Z"/>
          <path class="cls-17" d="m113.666,317.251c-.591-.112-1.204-.233-1.694-.593s-.818-1.031-.596-1.595c.264-.67,1.099-.845,1.808-.912.955-.09,1.964-.143,2.834.286.372.183.727.487.807.899.1.508-.249.989-.645,1.304-1.051.838-1.188.862-2.515.611Z"/>
          <path class="cls-3" d="m116.392,317.953c-.532-.484-.684-1.437-.154-1.903.122-.107.269-.182.42-.239.509-.196,1.069-.214,1.616-.207.641.009,1.376.101,1.746.641.351.512.197,1.253-.219,1.697-.82.846-2.814.723-3.038.229,0,0,.161.267-.371-.217Z"/>
          <path class="cls-15" d="m123.958,316.972c.207.126.403.286.525.499.343.599-.037,1.397-.618,1.733-.582.336-1.29.339-1.964.348-.588.008-1.197.024-1.742-.214-.545-.237-1.005-.809-.916-1.401.107-.711.885-1.065,1.571-1.226,1.045-.245,2.211-.308,3.144.26Z"/>
          <path class="cls-28" d="m124.346,318.803c.137.499.683.745,1.173.877,1.665.447,3.453.348,5.037-.278.368-.145.752-.346.912-.713.243-.557-.154-1.225-.664-1.562-.674-.445-1.507-.523-2.302-.552-.312-.011-.624-.017-.933.016-.708.075-1.375.352-2.021.649-.324.149-.652.309-.899.569-.247.26-.4.641-.303.995Z"/>
          <path class="cls-30" d="m132.447,319.285c.448-.002.906-.006,1.323-.162.418-.156.794-.496.872-.945.099-.57-.318-1.141-.834-1.395-.516-.253-1.107-.259-1.674-.242-.462.015-.935.044-1.351.241-.416.197-.768.597-.782,1.07-.016.536.406,1.013.893,1.224.487.21,1.028.211,1.552.208Z"/>
          <path class="cls-38" d="m135.593,318.065c1.002.011,2.001-.17,2.929-.531.315-.123.629-.271.867-.513.238-.242.391-.596.323-.939-.069-.349-.355-.628-.678-.763-.323-.135-.68-.145-1.025-.121-.838.058-1.65.305-2.42.635-.604.259-1.243.639-1.412,1.289-.051.197-.045.432.096.58.07.073.163.116.255.154.743.309.267.199,1.063.208Z"/>
          <path class="cls-45" d="m140.937,316.161c.312-.21.662-.355.98-.555.318-.2.614-.47.734-.834.119-.364.01-.83-.322-1.024-.158-.092-.343-.114-.522-.125-.711-.045-1.467.065-2.011.521-.545.456-.789,1.332-.393,1.949.074.115.169.219.288.285.188.103.41.099.619.076.582-.063.143.035.627-.292Z"/>
          <path class="cls-52" d="m142.759,314.944c.577-.205,1.154-.411,1.73-.616.405-.144.821-.294,1.143-.581.322-.287.535-.745.418-1.175-.108-.399-.482-.687-.875-.78-.393-.093-.803-.019-1.182.104-.685.222-1.351.643-1.64,1.316-.172.401-.166.941.173,1.224.253.21.604.215.925.21.28-.005-.955.392-.692.299Z"/>
          <path class="cls-35" d="m145.342,312.661c1.111.219,2.22-.444,2.875-1.361.161-.226.307-.492.268-.774-.051-.363-.392-.619-.733-.737-.829-.286-1.806.041-2.289.765-.162.244-.27.521-.374.798-.133.354-.252.786-.022,1.094.288.386-.163.371.275.215Z"/>
          <path class="cls-58" d="m148.087,310.452c.848.017,1.692-.168,2.448-.535.442-.215.869-.508,1.102-.948.233-.439.219-1.051-.139-1.411-.259-.26-.639-.345-.996-.352-1.017-.022-2.014.519-2.555,1.386-.289.463-.434,1.114-.091,1.557.39.503-.363.464.231.304Z"/>
          <path class="cls-75" d="m151.379,308.72c1.109.235,2.301-.096,3.114-.865.212-.201.402-.434.503-.713.218-.602-.042-1.334-.536-1.757-.494-.424-1.174-.563-1.8-.481-1.074.141-2.034.952-2.309,2.022-.137.533-.093,1.153.256,1.588.384.479.265.515.771.207Z"/>
          <path class="cls-4" d="m102.616,316.509c-.155.329-.233.695-.226,1.061.005.312.078.636.275.877.117.144.272.252.434.339.724.389,1.621.376,2.359.036.737-.341,1.314-.987,1.648-1.736.171-.384.278-.848.074-1.221-.152-.277-.445-.442-.735-.558-.688-.276-1.46-.357-2.168-.159-.708.198-1.343.688-1.66,1.36Z"/>
          <path class="cls-20" d="m109.467,319.274c.351-.35.544-.838.637-1.331.1-.527.084-1.113-.219-1.558-.309-.453-.873-.678-1.411-.671-.538.007-1.052.217-1.516.488-.574.336-1.107.787-1.394,1.395-.287.608-.282,1.394.14,1.926.326.412.854.622,1.37.642.516.02,1.022-.13,1.495-.333.326-.14.646-.308.898-.559Z"/>
          <path class="cls-7" d="m112.631,317.193c-.865-.351-1.879-.335-2.686.117-.807.453-1.369,1.357-1.349,2.302.019.946.662,1.876,1.555,2.147.471.143.978.109,1.452-.009.882-.218,1.718-.754,2.127-1.577.408-.822.295-1.94-.393-2.558-.206-.185-.451-.32-.706-.423Z"/>
          <path class="cls-36" d="m114.945,323.061c.279.132.594.142.899.15.583.015,1.187.027,1.721-.203.588-.253,1.024-.77,1.377-1.31.108-.165.211-.335.278-.521.214-.59.033-1.287-.36-1.783-.393-.496-.971-.81-1.568-.992-.886-.269-1.88-.257-2.681.193-.802.451-1.358,1.389-1.227,2.322.101.716.569,1.332,1.103,1.815.14.127.288.248.457.328Z"/>
          <path class="cls-94" d="m122.803,319.025c-1.1-.14-2.299-.193-3.214.428-.529.359-.915.93-1.057,1.566-.089.396-.083.823.062,1.206.241.638.848,1.085,1.494,1.263.645.178,1.327.122,1.979,0,.995-.186,2.078-.635,2.414-1.607.122-.353.129-.737.111-1.113-.019-.385-.073-.792-.303-1.101-.335-.451-.939-.571-1.486-.64Z"/>
          <path class="cls-89" d="m129.794,319.993c-.567-.436-1.299-.575-2.002-.591-.872-.02-1.769.139-2.487.631-.718.492-1.223,1.361-1.133,2.251.079.783.634,1.504,1.362,1.768.399.145.828.158,1.249.171,1.149.034,2.427.02,3.249-.784.458-.447.706-1.11.661-1.763-.045-.653-.383-1.285-.898-1.682Z"/>
          <path class="cls-2" d="m134.375,319.27c-.216-.115-.454-.176-.692-.217-.795-.137-1.638-.056-2.334.34-.696.396-1.222,1.133-1.272,1.954-.051.822.434,1.69,1.194,1.976.321.121.667.139,1.006.128.738-.023,1.483-.179,2.106-.57.623-.39,1.113-1.036,1.217-1.782.02-.141.025-.288-.019-.425-.036-.112-.103-.211-.169-.308-.287-.422-.592-.861-1.037-1.098Z"/>
          <path class="cls-34" d="m138.609,317.959c-.805-.121-1.656-.007-2.337.428-.681.436-1.165,1.22-1.15,2.053.003.176.029.354.101.515.256.572.977.724,1.585.724,1.253,0,2.633-.429,3.196-1.561.174-.35.256-.771.126-1.148-.211-.614-.896-.918-1.521-1.012Z"/>
          <path class="cls-43" d="m142.993,315.882c-.923-.115-1.918-.015-2.642.561-.724.577-1.051,1.729-.522,2.526.059.089.128.173.213.236.171.128.388.162.597.185.859.096,1.763.067,2.516-.341.753-.408,1.311-1.272,1.163-2.146-.029-.17-.084-.338-.181-.48-.25-.365-.717-.487-1.144-.541Z"/>
          <path class="cls-14" d="m143.935,317.309c.91.239,1.986.068,2.538-.688.26-.357.378-.806.421-1.254.029-.303.018-.634-.158-.886-.245-.351-.718-.429-1.132-.411-.628.026-1.26.209-1.743.609-.484.401-.798,1.039-.733,1.683.029.288.143.585.373.759.128.096.282.148.435.188Z"/>
          <path class="cls-78" d="m148.986,315.455c.916-.428,1.412-1.521,1.361-2.564-.01-.204-.039-.413-.143-.59-.274-.471-.914-.513-1.438-.454-.646.073-1.297.218-1.847.561-.551.343-.993.911-1.069,1.574-.075.664.285,1.402.902,1.641.289.112.605.111.911.096.453-.022.913-.073,1.322-.264Z"/>
          <path class="cls-76" d="m123.06,320.326c3.011.227,6.06.391,9.024-.161,2.98-.555,5.811-1.803,8.556-3.011,2.695-1.185,5.294-2.61,7.609-4.429.116-.091.231-.183.345-.276,1.103-.896,2.188-1.971,2.481-3.391-.376.097-.668.384-.947.656-3.779,3.682-8.446,6.409-13.49,8.002-5.844,1.846-12.402,2.02-18.503.928-1.586-.284-3.158-.666-4.703-1.144-1.512-.467-2.969-1.151-4.537-1.393-1.111-.172-2.29-.099-3.273.438,3.09-.218,5.977,1.09,8.84,2.099,2.792.983,5.646,1.458,8.559,1.678.013,0,.026.002.039.003Z"/>
        </g>
      </g>
      <g>
        <path class="cls-5" d="m309.283,122.069c-5.148,2.071-10.07,4.023-14.445,5.744,2.743.784,5.938,1.802,9.044,3.023,3.767-1.295,6.783-3.054,8.603-4.264-1.485-1.737-2.529-3.331-3.203-4.503Z"/>
        <path class="cls-24" d="m309.491,117.228h.001c2.321-.937,4.679-1.894,7.047-2.863,17.371-7.108,37.559-6.413,44.911-5.855,4.232-2.394,8.56-8.542,7.804-23.872-.34-6.886-2.084-15.356-6.349-23.742-.685.787-1.397,1.539-2.111,2.28-2.367,2.462-4.815,5.008-6.089,9.14-.293.948-1.165,1.557-2.107,1.557-.215,0-.435-.032-.652-.098-1.163-.359-1.817-1.594-1.458-2.758,1.584-5.135,4.528-8.197,7.126-10.898,1.11-1.153,2.13-2.215,2.965-3.351-4.896-7.933-12.262-15.536-23.098-21.364-3.08,3-5.797,6.722-7.649,10.567-.381.79-1.167,1.25-1.989,1.25-.322,0-.646-.07-.955-.219-1.099-.528-1.56-1.847-1.031-2.944,1.847-3.838,4.469-7.571,7.465-10.722-2.395-1.099-4.949-2.11-7.653-3.033-.126.141-.266.273-.432.381-3.345,2.164-7.131,3.263-10.667,3.263-2.986,0-5.793-.784-8.003-2.372-.988-.711-1.213-2.089-.503-3.078.711-.99,2.089-1.211,3.079-.503,2.618,1.883,6.735,1.996,10.615.521-5.967-1.598-12.591-2.782-19.994-3.42-.145-.012-.284-.016-.428-.027-.923,7.531-6.528,14.133-13.384,18.42,3.472,1.468,8.157,2.449,12.074-.281.995-.694,2.372-.452,3.07.548.696.999.451,2.374-.549,3.071-2.385,1.663-5.187,2.49-8.226,2.49-3.293,0-6.864-.984-10.483-2.918-1.999,2.445-1.838,5.549-1.409,9.971.352,3.632.751,7.747-1.047,11.495-.379.791-1.169,1.252-1.99,1.252-.32,0-.645-.07-.954-.218-1.097-.527-1.561-1.845-1.034-2.943,1.202-2.504.985-5.49.681-8.655-2.321-1.175-5.474-2.268-7.914-1.199-1.778.781-3.083,2.688-3.877,5.665-.263.987-1.154,1.638-2.13,1.638-.188,0-.379-.024-.57-.075-1.178-.314-1.877-1.523-1.562-2.7,1.157-4.338,3.299-7.22,6.366-8.567,2.665-1.171,5.806-1.062,9.346.279-.033-3.912.831-7.847,5.013-10.934.012-.009.024-.019.036-.028.023-.017.042-.034.065-.052.049-.035.103-.058.154-.089.047-.029.088-.064.138-.089,6.992-3.576,12.853-9.53,13.762-16.364-4.442-.194-8.685-.096-12.761.224-1.723,5.867-6.785,9.568-11.421,12.935-3.84,2.79-7.469,5.424-9.489,9.089-.402.729-1.156,1.142-1.933,1.142-.36,0-.725-.089-1.064-.275-1.066-.588-1.455-1.929-.866-2.996,2.496-4.526,6.698-7.578,10.76-10.529,3.846-2.793,7.363-5.348,9.093-8.858-11.674,1.519-21.733,5.029-30.219,9.67,1.9,6.072-1.14,10.664-4.58,14.518,6.289,3.192,8.988,8.373,7.61,14.811-.221,1.035-1.137,1.745-2.154,1.745-.154,0-.309-.016-.465-.049-1.191-.255-1.95-1.427-1.694-2.619,1.025-4.79-1.117-8.216-6.47-10.483-3.8,4.093-5.883,7.101-4.511,11.195.388,1.155-.234,2.405-1.389,2.792-.233.078-.47.116-.702.116-.922,0-1.782-.582-2.091-1.505-2.448-7.295,2.325-12.316,6.535-16.746,4.068-4.279,6.719-7.413,5.958-11.477-12.166,7.583-20.688,17.438-25.69,26.474,3.986,1.767,7.541,4.563,10.375,8.276.74.968.553,2.352-.415,3.092-.399.305-.87.452-1.337.452-.663,0-1.32-.299-1.755-.867-2.459-3.22-5.451-5.587-8.838-7.038-1.452,3.189-2.451,6.212-2.974,8.906-1.742,8.985-.931,17.455,4.14,23.653,1.198-1.376,2.094-2.955,2.536-4.59.32-1.176,1.528-1.868,2.707-1.552,1.176.319,1.87,1.53,1.552,2.705-.648,2.388-1.919,4.631-3.64,6.545,3.345,2.673,7.852,4.686,13.729,5.823-1.386-3.26-1.802-8.458,1.976-16.283,1.001-2.074,1.947-4.901.768-6.582-1.696-2.419-7.22-2.434-9.021-2.25-1.237.126-2.296-.755-2.421-1.965-.126-1.211.748-2.294,1.959-2.423.974-.103,9.599-.865,13.088,4.094.776,1.103,1.205,2.365,1.318,3.767,4.021.678,6.995.074,8.401-1.755,1.531-1.994,1.257-5.46-.754-9.51-.541-1.091-.096-2.415.995-2.957,1.087-.537,2.415-.096,2.957.995,2.787,5.617,2.897,10.778.3,14.158-1.185,1.543-3.793,3.757-8.981,3.757-1.044,0-2.226-.124-3.488-.327-.286.931-.658,1.898-1.149,2.914-5.582,11.563-.161,15.023.073,15.164.011.007.02.017.031.024,3.243.264,6.836.296,10.763.1,2.922-2.31,8.883-6.533,16.383-9.339-1.672-.602-3.481-.849-5.4-.849h-.04c-1.199,0-2.183-1.223-2.204-2.428-.022-1.218.949-2.353,2.167-2.374,2.046-.03,4.022.253,5.891.841-1.35-5.801.62-10.872,6.014-15.648.912-.808,2.303-.722,3.113.189.807.912.722,2.306-.19,3.114-5.4,4.783-6.302,9.117-3.144,15.296.09-.019.177-.046.267-.065,7.735-1.657,14.81-4.206,20.814-6.802-.485-2.787-.462-5.357.047-8.298h-.009c-6.441-1.471-9.54-7.04-8.29-14.69.197-1.202,1.324-1.926,2.533-1.733,1.202.197,2.018,1.374,1.821,2.576-.613,3.759-.238,8.547,5.036,9.905.08.021.154.067.23.096,1.022-2.326,2.484-4.433,4.371-6.212.887-.836,2.28-.791,3.119.095.836.886.794,2.284-.092,3.119-3.528,3.327-5.151,8.199-4.578,13.384,8.984-4.412,14.793-9.121,15.56-11.969.315-1.178,1.529-1.873,2.703-1.556,1.178.317,1.874,1.527,1.557,2.703-3.115,11.568-33.266,21.415-43.898,23.693-8.942,1.916-16.625,7.053-20.358,9.892-1.338,3.329-2.117,8.545,3.235,12.708,8.567,6.663,30.46-.004,30.46-.004,0,0,.042.009.103.022,6.007-2.344,13.763-5.401,21.998-8.723h0Zm36.603-51.673c.748-.961,2.134-1.136,3.095-.391.964.747,1.139,2.133.392,3.095-2.872,3.703-3.991,6.962-3.326,9.686.595,2.434,2.67,4.577,6.144,6.388,2.552-1.996,4.667-3.978,5.756-6.798.438-1.136,1.716-1.7,2.852-1.263,1.137.439,1.702,1.716,1.264,2.853-1.815,4.702-5.566,7.518-9.194,10.241-4.271,3.208-8.306,6.237-9.757,12.321-.241,1.013-1.146,1.695-2.144,1.695-.169,0-.34-.02-.513-.061-1.185-.282-1.917-1.472-1.634-2.657,1.575-6.61,5.603-10.36,9.571-13.437-3.603-2.26-5.845-5.015-6.632-8.237-1-4.096.389-8.616,4.126-13.436Zm-30.519-5.578c-5.852-2.424-9.649-3.721-13.87.014-.912.809-2.306.722-3.113-.19-.807-.912-.722-2.305.19-3.113,6.497-5.751,12.863-3.114,18.482-.786,1.245.516,2.441,1.011,3.605,1.415-.03-2.435-.625-4.374-1.844-5.711-1.385-1.519-3.573-2.354-6.504-2.484-1.218-.054-2.16-1.084-2.105-2.301.053-1.217,1.104-2.151,2.3-2.106,4.146.184,7.366,1.503,9.569,3.92,2.158,2.367,3.166,5.608,3.01,9.627,3.37.122,6.632-1.481,10.241-6.861.681-1.013,2.051-1.28,3.062-.602,1.011.679,1.281,2.049.603,3.061-4.552,6.783-9.139,8.828-13.47,8.828-3.617,0-7.058-1.425-10.154-2.708Zm-44.306,59.009c-.422.386-.955.577-1.486.577-.597,0-1.195-.242-1.63-.719-.82-.9-.757-2.295.144-3.116,6.498-5.93,17.352-7.965,28.845-10.119,7.254-1.359,14.659-2.757,20.842-5.182-1.811-5.611.139-11.252,5.177-15.201-.079-.121-.165-.236-.22-.375-1.439-3.639-1.528-7.075-.256-9.935,1.242-2.793,3.747-4.96,7.245-6.268,1.144-.421,2.413.153,2.839,1.295.427,1.141-.154,2.412-1.294,2.838-2.398.895-4,2.217-4.759,3.927-.791,1.779-.681,3.973.326,6.522.09.227.129.46.142.691.885.088,2.029-.022,2.859-.91.831-.891,2.229-.936,3.118-.105.89.832.936,2.228.105,3.118-1.43,1.53-3.398,2.336-5.589,2.336-.393,0-.794-.031-1.199-.083-3.882,2.741-5.454,6.416-4.417,10.297,1.598-.853,3.069-1.812,4.374-2.901.933-.781,2.326-.655,3.108.281.78.936.653,2.326-.281,3.107-7.758,6.471-19.73,8.714-31.306,10.884-10.858,2.036-21.113,3.958-26.685,9.042Z"/>
        <path class="cls-85" d="m318.211,118.448c-1.606.656-3.205,1.307-4.793,1.951.754,1.239,1.942,2.922,3.686,4.695.146.106.286.224.406.368.024.029.04.062.062.092,3.665,3.553,9.558,7.298,18.558,8.343,5.187-.598,13.733-2.303,19.321-7.157,7.519-6.532,5.753-11.214,2.991-13.977-8.496-.4-25.667-.275-40.231,5.684Z"/>
        <path class="cls-39" d="m309.444,133.352c2.782,1.469,5.137,3.126,6.504,4.949,5.711,7.615,5.713,22.087,10.472,29.439h9.518s-4.648-20.896-4.644-30.177c-7.009-1.552-12.089-4.633-15.659-7.789-1.338.943-3.462,2.292-6.191,3.578Z"/>
      </g>
      <polygon class="cls-19" points="58.947 321.022 46.133 306.51 46.133 311.998 0 311.998 0 330.045 46.133 330.045 46.133 335.532 58.947 321.022"/>
      <polygon class="cls-19" points="132.514 245.521 113.184 244.449 117.09 248.304 84.686 281.139 97.531 293.815 129.935 260.98 133.841 264.834 132.514 245.521"/>
      <polygon class="cls-19" points="247.187 129.38 227.857 128.308 231.764 132.163 199.359 164.998 212.204 177.675 244.608 144.839 248.514 148.693 247.187 129.38"/>
      <g>
        <path class="cls-95" d="m166.51,344.127c6.589-2.481,37.555-14.939,54.051-49.437,15.182-31.749,8.01-61.046,5.949-68.494"/>
        <polyline class="cls-69" points="223.269 218.687 220.78 238.008 227.357 230.07 237.481 232.01 223.269 218.687"/>
      </g>
      <g>
        <path class="cls-95" d="m242.851,221.305c6.987-.87,40.008-5.736,64.119-35.416,22.19-27.315,22.073-57.476,21.811-65.2"/>
        <polyline class="cls-69" points="327.387 112.63 320.446 130.832 328.698 124.653 338.087 128.909 327.387 112.63"/>
      </g>
      <ellipse class="cls-48" cx="205.021" cy="295.68" rx="28.409" ry="13.238"/>
      <path class="cls-29" d="m159.467,365.52c2.998-.974,5.469-2.986,5.963-6.254.474-3.141-1.542-6.058-3.571-8.237-2.463-2.645-5.763-4.692-8.968-6.303-2.876-1.445-6.184-3.109-9.49-3.085-.835.006-3.488.986-2.174-.815.843-1.155,3.286-1.094,4.545-.95,3.217.367,6.644,1.903,9.48,3.396,5.22,2.75,12.48,7.432,13.304,13.809.949,7.344-5.324,12.138-12.017,12.813.486,1.007,3.077,2.463.964,3.68-1.512.87-4.334-1.089-5.62-1.819-1.909-1.084-7.816-3.663-3.816-6.173,1.285-.807,2.853-1.372,4.279-1.839,1.867-.61,3.616-1.48,5.579-1.786,1.938-.301,1.804,1.279.437,2.166-.347.225-3.679,1.678-3.596,1.932.224.687,4.129-.372,4.699-.537.393-.128-.602.175,0,0Z"/>
      <path class="cls-29" d="m240.702,67.835c2.998-.974,5.469-2.986,5.963-6.254.474-3.141-1.542-6.058-3.571-8.237-2.463-2.645-5.763-4.692-8.968-6.303-2.876-1.445-6.184-3.109-9.49-3.085-.835.006-3.488.986-2.174-.815.843-1.155,3.286-1.094,4.545-.95,3.217.367,6.644,1.903,9.48,3.396,5.22,2.75,12.48,7.432,13.304,13.809.949,7.344-5.324,12.138-12.017,12.813.486,1.007,3.077,2.463.964,3.68-1.512.87-4.334-1.089-5.62-1.819-1.909-1.084-7.816-3.663-3.816-6.173,1.285-.807,2.853-1.372,4.279-1.839,1.867-.61,3.616-1.48,5.579-1.786,1.938-.301,1.804,1.279.437,2.166-.347.225-3.679,1.678-3.596,1.932.224.687,4.129-.372,4.699-.537.393-.128-.602.175,0,0Z"/>
      <text class="cls-101" transform="translate(130.372 386.711)"><tspan x="0" y="0">HMGB1</tspan><tspan class="cls-107" x="43.175" y="0">-</tspan><tspan x="46.883" y="0">TLR4</tspan></text>
      <text class="cls-101" transform="translate(148.082 58.05)"><tspan x="0" y="0">HMGB1</tspan><tspan class="cls-107" x="43.175" y="0">-</tspan><tspan x="46.883" y="0">TLR4</tspan></text>
      <g>
        <g>
          <g>
            <polygon class="cls-1" points="314.434 44.455 315.316 2.275 316.198 44.455 314.434 44.455"/>
            <polygon class="cls-1" points="316.198 99.54 315.316 128.012 314.434 99.54 316.198 99.54"/>
          </g>
          <g>
            <polygon class="cls-1" points="303.966 46.386 292.405 13.924 305.624 45.846 303.966 46.386"/>
            <polygon class="cls-1" points="326.666 97.609 339.401 131.997 325.008 98.149 326.666 97.609"/>
          </g>
          <g>
            <polygon class="cls-1" points="294.867 51.407 266.612 20.425 296.219 50.391 294.867 51.407"/>
            <polygon class="cls-1" points="335.765 92.588 361.654 120.612 334.413 93.604 335.765 92.588"/>
          </g>
          <g>
            <polygon class="cls-1" points="288.234 58.911 250.625 38.911 289.117 57.542 288.234 58.911"/>
            <polygon class="cls-1" points="342.398 85.085 369.149 99.54 341.515 86.453 342.398 85.085"/>
          </g>
          <g>
            <polygon class="cls-1" points="284.868 67.993 248.049 60.689 285.175 66.437 284.868 67.993"/>
            <polygon class="cls-1" points="345.764 76.002 364.23 79.959 345.457 77.558 345.764 76.002"/>
          </g>
          <g>
            <polygon class="cls-1" points="285.175 77.558 244.067 83.761 284.868 76.002 285.175 77.558"/>
            <polygon class="cls-1" points="345.457 66.437 387.888 60.462 345.764 67.993 345.457 66.437"/>
          </g>
          <g>
            <polygon class="cls-1" points="289.117 86.453 269.715 95.394 288.234 85.085 289.117 86.453"/>
            <polygon class="cls-1" points="341.515 57.542 373.097 42.656 342.398 58.911 341.515 57.542"/>
          </g>
          <g>
            <polygon class="cls-1" points="296.219 93.604 281.564 106.6 294.867 92.588 296.219 93.604"/>
            <polygon class="cls-1" points="334.413 50.391 364.23 19.796 335.765 51.407 334.413 50.391"/>
          </g>
          <g>
            <polygon class="cls-1" points="305.624 98.149 299.015 112.892 303.966 97.609 305.624 98.149"/>
            <polygon class="cls-1" points="325.008 45.846 339.401 13.085 326.666 46.386 325.008 45.846"/>
          </g>
          <g>
            <polygon class="cls-1" points="319.66 44.72 324.353 25.9 321.399 44.988 319.66 44.72"/>
            <polygon class="cls-1" points="312.262 93.244 303.797 132.836 308.802 98.199 312.262 93.244"/>
          </g>
          <g>
            <polygon class="cls-1" points="308.978 45.035 305.042 21.088 310.715 44.754 308.978 45.035"/>
            <polygon class="cls-1" points="321.654 98.96 324.353 117.744 319.918 99.241 321.654 98.96"/>
          </g>
          <g>
            <polygon class="cls-1" points="299.06 48.602 286.214 27.304 300.585 47.806 299.06 48.602"/>
            <polygon class="cls-1" points="331.572 95.394 339.401 108.373 330.047 96.189 331.572 95.394"/>
          </g>
          <g>
            <polygon class="cls-1" points="291.103 54.99 269.715 37.782 292.232 53.776 291.103 54.99"/>
            <polygon class="cls-1" points="339.529 89.005 352.1 99.008 338.4 90.219 339.529 89.005"/>
          </g>
          <g>
            <polygon class="cls-1" points="286.067 63.431 257.184 52.52 286.663 61.944 286.067 63.431"/>
            <polygon class="cls-1" points="344.565 80.565 382.266 93.244 343.969 82.052 344.565 80.565"/>
          </g>
          <g>
            <polygon class="cls-1" points="284.558 72.904 262.064 72.332 284.551 71.324 284.558 72.904"/>
            <polygon class="cls-1" points="346.074 71.091 379.221 71.533 346.081 72.671 346.074 71.091"/>
          </g>
          <g>
            <polygon class="cls-1" points="286.759 82.268 256.013 92.004 286.149 80.786 286.759 82.268"/>
            <polygon class="cls-1" points="343.873 61.727 359.586 57.715 344.483 63.209 343.873 61.727"/>
          </g>
          <g>
            <polygon class="cls-1" points="292.405 90.394 265.275 110.506 291.265 89.187 292.405 90.394"/>
            <polygon class="cls-1" points="338.227 53.602 355.332 41.887 339.367 54.808 338.227 53.602"/>
          </g>
          <g>
            <polygon class="cls-1" points="300.814 96.3 281.564 125.495 299.282 95.516 300.814 96.3"/>
            <polygon class="cls-1" points="329.818 47.695 343.995 27.085 331.35 48.479 329.818 47.695"/>
          </g>
        </g>
        <path class="cls-9" d="m308.295,113.676c-1.696-15.261-8.513-14.791-10.753-14.637-7.017.484-14.874,7.109-14.952,7.175l-9.222,7.853,5.002-10.934c2.376-5.192,2.562-9.473.552-12.726-4.548-7.36-18.667-8.229-18.808-8.237l-16.725-.933,16.176-4.263c6.485-1.708,10.598-4.424,12.227-8.068,2.034-4.55-.461-9.341-.485-9.39l-3.181-5.988,6.767,1.263c2.033.714,4.247.372,5.967-.103h.001c9.375,0,12.193-13.325,12.223-13.463l.951-4.751,3.496,4.3c2.501,2.841,5.428,4.227,9.024,3.979,9.43-.651,19.478-11.098,19.578-11.205l3.423-3.589,1.154,4.829c1.583,6.585,5.923,11.063,12.905,13.298,5.499,1.759,10.638,1.442,10.689,1.438l4.199-.281-1.496,3.867c-3.227,8.305-2.252,15.531,2.897,21.475,3.938,4.547,8.828,6.615,8.879,6.636l8.072,3.356-8.599,1.674c-22.955,4.467-21.569,17.966-21.552,18.1l.615,5-4.539-2.34c-3.508-1.811-7.142-2.6-10.8-2.347-10.815.746-18.838,10.293-18.918,10.389l-4.065,4.908-.702-6.286Z"/>
        <g>
          <path class="cls-67" d="m278.924,90.407c.539.872.914,1.82,1.138,2.837.539-2.937.164-5.477-1.138-7.584-4.548-7.36-18.667-8.229-18.808-8.237l-1.859-.104-14.866,3.917,16.725.933c.142.008,14.26.877,18.808,8.237Z"/>
          <path class="cls-70" d="m355.297,59.812c.246-2.148.808-4.382,1.71-6.703l1.496-3.867-1.857.124c-1.303,3.709-1.755,7.198-1.348,10.446Z"/>
          <path class="cls-70" d="m272.33,62.561c.945-4.008-1-7.749-1.022-7.792l-.382-.719-2.799-.522,3.181,5.988c.012.025.651,1.252,1.022,3.045Z"/>
          <path class="cls-67" d="m346.698,104.284l-3.918-2.02c-3.508-1.811-7.142-2.6-10.8-2.347-10.815.746-18.838,10.293-18.918,10.389l-4.065,4.908-.702-6.286c-1.696-15.261-8.513-14.791-10.752-14.637-7.017.484-14.874,7.109-14.952,7.175l-5.665,4.824-3.557,7.776,9.222-7.853c.078-.066,7.935-6.691,14.952-7.175,2.24-.154,9.056-.624,10.752,14.637l.702,6.286,4.065-4.908c.08-.096,8.103-9.644,18.918-10.389,3.658-.252,7.292.537,10.8,2.347l4.539,2.34-.615-5s-.003-.029-.006-.067Z"/>
          <path class="cls-67" d="m368.256,81.504c-22.955,4.467-21.569,17.966-21.552,18.1l.238,1.937c.905-4.232,4.845-12.085,21.314-15.29l8.599-1.674-7.776-3.233-.822.16Z"/>
        </g>
        <path class="cls-1" d="m308.103,113.696c-.152-1.001-.263-2.009-.448-3.003-.215-.988-.379-1.989-.689-2.952-.561-1.93-1.307-3.85-2.541-5.433-.334-.37-.622-.785-1.013-1.094-.189-.16-.359-.344-.562-.485l-.613-.416c-.849-.502-1.798-.82-2.781-.918-.49-.06-.988-.047-1.489-.021-.511.024-1.001.123-1.5.18-.495.081-.985.215-1.474.325-.48.16-.965.299-1.439.474-1.897.705-3.7,1.657-5.422,2.725-1.721,1.066-3.366,2.283-4.889,3.582l-9.135,8.243-3.753,3.387,1.989-4.677,3.072-7.224,1.541-3.61c.496-1.17.935-2.311,1.245-3.486.633-2.329.748-4.735-.056-6.736-.753-1.997-2.47-3.656-4.536-4.86-1.033-.61-2.149-1.128-3.311-1.568-1.159-.449-2.361-.826-3.586-1.144-2.453-.618-4.999-1.058-7.515-1.182-5.297-.359-10.597-.688-15.891-1.096l-9.304-.717,9.001-2.176,11.822-2.858,2.957-.71,1.478-.357c.476-.126.957-.237,1.428-.375,1.89-.533,3.731-1.211,5.415-2.131,1.669-.927,3.197-2.1,4.244-3.611,1.058-1.5,1.543-3.336,1.485-5.204-.025-.934-.176-1.873-.422-2.789-.119-.459-.272-.911-.443-1.351-.084-.22-.18-.439-.275-.634l-.343-.666c-.909-1.78-1.836-3.551-2.769-5.319l-.59-1.117,1.253.239,6.761,1.292.047.009.041.014c.865.308,1.812.418,2.762.37.951-.044,1.907-.228,2.846-.489l.078-.022h.083c1.94,0,3.82-.68,5.344-1.872,1.54-1.18,2.726-2.794,3.679-4.513.945-1.73,1.671-3.592,2.2-5.494.13-.481.245-.945.327-1.429l.272-1.493.544-2.986.311-1.706,1.142,1.357,3.493,4.15c1.13,1.256,2.486,2.343,4.005,2.951,1.519.615,3.181.8,4.851.52,1.68-.184,3.333-.769,4.924-1.453,3.188-1.412,6.128-3.456,8.849-5.717,1.36-1.131,2.683-2.33,3.906-3.574l3.676-3.964,2.01-2.168.723,2.886,1.188,4.738c.372,1.471.893,2.871,1.6,4.168,1.407,2.597,3.574,4.702,6.208,6.15,2.63,1.462,5.661,2.321,8.75,2.741,1.545.202,3.125.311,4.66.282l.556-.018.567-.041,1.241-.092,2.482-.184,3.005-.223-1.06,2.802-1.034,2.733c-.168.451-.355.922-.507,1.356l-.452,1.297c-.556,1.736-.931,3.505-1.072,5.267-.139,1.761-.041,3.515.338,5.2.377,1.686,1.035,3.302,1.936,4.802.901,1.499,2.039,2.887,3.329,4.143,1.304,1.245,2.758,2.362,4.31,3.322.765.478,1.586.94,2.346,1.293l2.674,1.133,5.45,2.304,5.985,2.53-6.375,1.202-5.488,1.035-2.744.517c-.907.177-1.771.356-2.652.55-3.488.797-6.901,1.916-9.906,3.644-3.007,1.684-5.635,4.016-7.107,6.98-.746,1.453-1.229,3.096-1.284,4.658-.004.094-.003.189-.002.267.003.061-.005.012.004.098l.016.171.064.684.127,1.368.255,2.736.213,2.293-1.983-1.093-4.886-2.692c-1.577-.833-3.255-1.478-4.999-1.875-3.489-.826-7.214-.484-10.671.677-1.732.584-3.392,1.385-4.991,2.293-1.595.919-3.088,2.011-4.512,3.179-1.414,1.181-2.774,2.435-3.944,3.853l-3.575,4.263-.354.422-.057-.541-.663-6.29Zm.384-.041l.74,6.282-.411-.119,3.522-4.306c1.146-1.48,2.491-2.803,3.891-4.048,1.411-1.237,2.904-2.392,4.506-3.398,1.596-1.01,3.273-1.921,5.057-2.618,3.554-1.371,7.547-2.002,11.424-1.317,1.932.323,3.815.926,5.589,1.736l5.076,2.427-1.77,1.2-.416-2.716-.208-1.358-.104-.679-.026-.17c-.006-.028-.024-.191-.028-.244-.012-.15-.021-.284-.024-.419-.03-1.063.089-2.068.303-3.064.214-.993.532-1.961.943-2.887.416-.924.917-1.808,1.486-2.644.584-.822,1.212-1.618,1.914-2.336,1.383-1.462,2.983-2.681,4.665-3.719,3.387-2.065,7.097-3.374,10.829-4.332.93-.231,1.89-.431,2.807-.624l2.738-.55,5.475-1.1-.39,3.732-5.478-2.24-2.788-1.144c-1.035-.466-1.936-.966-2.847-1.518-3.583-2.209-6.764-5.154-8.994-8.857-1.106-1.847-1.933-3.885-2.399-5.997-.48-2.112-.56-4.288-.359-6.395.201-2.111.676-4.164,1.336-6.125l.531-1.453c.179-.483.358-.914.537-1.373l1.074-2.716,1.944,2.578-2.472.148-1.236.074-.672.038c-.24.009-.461.012-.685.013-1.777.006-3.506-.14-5.239-.391-3.449-.523-6.887-1.528-10.007-3.318-3.115-1.767-5.827-4.441-7.452-7.646-.824-1.589-1.407-3.283-1.795-4.977l-1.082-4.764,2.734.718-3.856,3.907c-1.367,1.305-2.777,2.512-4.257,3.657-2.962,2.269-6.147,4.32-9.71,5.739-1.784.686-3.65,1.27-5.629,1.419-1.952.245-4.068-.043-5.908-.871-1.858-.827-3.365-2.142-4.605-3.618l-3.37-4.292,1.452-.349-.648,2.973-.324,1.486c-.104.512-.255,1.027-.4,1.521-.597,1.991-1.391,3.921-2.431,5.74-1.044,1.81-2.365,3.516-4.084,4.834-.859.653-1.825,1.192-2.864,1.55-1.037.361-2.14.536-3.233.537l.16-.022c-1.005.273-2.047.47-3.116.513-1.066.04-2.166-.067-3.209-.427l.088.024-6.772-1.234.663-.878c.944,1.767,1.895,3.53,2.864,5.285l.361.659c.13.251.24.488.341.733.204.486.383.978.529,1.481.298,1.003.494,2.042.551,3.101.114,2.103-.344,4.341-1.536,6.182-1.171,1.852-2.878,3.261-4.682,4.364-1.822,1.096-3.774,1.903-5.756,2.553-.495.168-.996.306-1.494.459l-1.461.418-2.922.839-11.691,3.338-.303-2.893c5.308.183,10.61.446,15.915.679,2.788.13,5.502.587,8.192,1.25,1.343.343,2.676.752,3.99,1.255,1.308.514,2.593,1.132,3.825,1.883,1.229.751,2.411,1.645,3.433,2.75,1.015,1.094,1.9,2.4,2.415,3.861.532,1.451.69,2.981.632,4.442-.055,1.468-.356,2.873-.762,4.214-.409,1.337-.943,2.631-1.536,3.839l-1.724,3.529-3.458,7.053-1.764-1.29,9.63-7.728c1.678-1.276,3.428-2.404,5.252-3.432,1.826-1.017,3.732-1.914,5.742-2.556.502-.159,1.018-.283,1.525-.425.523-.092,1.036-.223,1.563-.291.529-.047,1.06-.134,1.584-.143.531-.013,1.072-.01,1.608.07,1.073.139,2.113.521,3.017,1.095l.65.469c.214.159.391.359.587.536.407.346.697.788,1.036,1.188,1.258,1.684,1.99,3.651,2.531,5.619.312.98.475,1.991.688,2.991.184,1.005.292,2.021.442,3.031Z"/>
      </g>
      <text class="cls-106" transform="translate(279.636 67.993)"><tspan x="0" y="0">HMGB1</tspan><tspan class="cls-112" x="35.979" y="0">-</tspan><tspan x="39.069" y="0">TLR4 ↑ </tspan><tspan x="18.095" y="10">NF-κB ↑</tspan><tspan class="cls-98" x="8.71" y="20">C</tspan><tspan x="15.09" y="20">y</tspan><tspan class="cls-98" x="20.83" y="20">t</tspan><tspan x="24.84" y="20">okines ↑</tspan></text>
      <ellipse class="cls-48" cx="303.797" cy="184.472" rx="28.409" ry="13.238"/>
      <text class="cls-102" transform="translate(287.469 189.246)"><tspan x="0" y="0">TNF-α</tspan></text>
      <text class="cls-102" transform="translate(194.676 299.818)"><tspan x="0" y="0">L</tspan><tspan class="cls-109" x="6.684" y="0">P</tspan><tspan class="cls-111" x="14.316" y="0">S</tspan></text>
      <text class="cls-104" transform="translate(358.46 158.346)"><tspan x="0" y="0">혈액내 TNF-a 가 뇌에서 </tspan><tspan x="0" y="14.4">염증을 유발함.</tspan></text>
      <text class="cls-105" transform="translate(328.833 199.026)"><tspan x="0" y="0">혈액으로 분비</tspan></text>
      <text class="cls-104" transform="translate(260.603 246.669)"><tspan x="0" y="0">술은 장내 균총의 변화를 </tspan><tspan x="0" y="14.4">초래하여, L</tspan><tspan class="cls-113" x="56.508" y="14.4">P</tspan><tspan x="63.888" y="14.4">S가 혈액으로 </tspan><tspan x="0" y="28.801">들어오는 양을 증가시킴.</tspan></text>
      <text class="cls-104" transform="translate(239.648 369.778)"><tspan x="0" y="0">장내에서 술은 HMGB1 와 TLR 신호를 </tspan><tspan x="0" y="14.4">자극하여 장의 투과성을 증가시킴.</tspan></text>
      <text class="cls-105" transform="translate(234.838 312.107)"><tspan x="0" y="0">“</tspan><tspan class="cls-96" x="8.05" y="0">L</tspan><tspan class="cls-110" x="15.918" y="0">e</tspan><tspan x="23.855" y="0">aky</tspan><tspan class="cls-99" x="48.635" y="0">”</tspan><tspan x="56.181" y="0">gut</tspan></text>
      <text class="cls-104" transform="translate(11.086 179.892)"><tspan x="0" y="0">간에서 발생한 사이토카인이 </tspan><tspan x="0" y="14.4">혈액을 통해 뇌로 들어감</tspan></text>
      <text class="cls-101" transform="translate(112.305 337.034)"><tspan x="0" y="0">E</tspan><tspan class="cls-97" x="7.38" y="0">T</tspan><tspan class="cls-108" x="14.508" y="0">OH</tspan></text>
      <text class="cls-101" transform="translate(8.198 325.344)"><tspan x="0" y="0">E</tspan><tspan class="cls-97" x="7.38" y="0">T</tspan><tspan class="cls-108" x="14.508" y="0">OH</tspan></text>
      <text class="cls-103" transform="translate(36.512 366.798) scale(.885 1)"><tspan x="0" y="0">위</tspan></text>
      <text class="cls-103" transform="translate(137.273 218.687) scale(.885 1)"><tspan x="0" y="0">간</tspan></text>
      <text class="cls-103" transform="translate(224.832 13.924) scale(.885 1)"><tspan x="0" y="0">두뇌</tspan></text>
      <text class="cls-101" transform="translate(102.646 282.444) rotate(-45)"><tspan x="0" y="0">E</tspan><tspan class="cls-97" x="7.38" y="0">T</tspan><tspan class="cls-108" x="14.508" y="0">OH</tspan></text>
      <text class="cls-101" transform="translate(215.602 165.203) rotate(-45)"><tspan x="0" y="0">E</tspan><tspan class="cls-97" x="7.38" y="0">T</tspan><tspan class="cls-108" x="14.508" y="0">OH</tspan></text>
    </g>
  </g>
</svg>