<?xml version="1.0" encoding="utf-8"?>
<!-- Generator: Adobe Illustrator 28.0.0, SVG Export Plug-In . SVG Version: 6.00 Build 0)  -->
<svg version="1.1" id="레이어_1" xmlns="http://www.w3.org/2000/svg" xmlns:xlink="http://www.w3.org/1999/xlink" x="0px"
	 y="0px" viewBox="0 0 380.1 347.2" style="enable-background:new 0 0 380.1 347.2;" xml:space="preserve">
<style type="text/css">
	.st0{fill:#FFFFFF;stroke:#000000;stroke-miterlimit:10;}
	.st1{fill-rule:evenodd;clip-rule:evenodd;fill:#F2F2F3;}
	.st2{fill:none;stroke:#000000;stroke-width:0.72;stroke-linejoin:round;stroke-miterlimit:10;}
	.st3{fill-rule:evenodd;clip-rule:evenodd;}
	.st4{fill-rule:evenodd;clip-rule:evenodd;fill:#8165A2;}
	.st5{fill:none;stroke:#000000;stroke-width:0.48;stroke-linejoin:round;stroke-miterlimit:10;}
	.st6{fill:none;stroke:#898989;stroke-width:0.48;stroke-linejoin:round;stroke-miterlimit:10;}
	.st7{font-family:'MalgunGothic';}
	.st8{font-size:6px;}
	.st9{font-family:'MalgunGothicBold';}
	.st10{font-size:12px;}
</style>
<rect class="st0" width="380.1" height="347.2"/>
<g>
	<g>
		<polygon class="st1" points="18.9,126.7 33.8,126.7 33.8,138.9 18.9,138.9 		"/>
		<polygon class="st2" points="18.9,126.7 33.8,126.7 33.8,138.9 18.9,138.9 		"/>
	</g>
	<g>
		<polygon class="st3" points="48.8,45.6 63.7,45.6 63.7,138.9 48.8,138.9 		"/>
		<polygon class="st2" points="48.8,45.6 63.7,45.6 63.7,138.9 48.8,138.9 		"/>
	</g>
	<g>
		<polygon class="st4" points="78.6,97.2 93.6,97.2 93.6,138.9 78.6,138.9 		"/>
		<polygon class="st2" points="78.6,97.2 93.6,97.2 93.6,138.9 78.6,138.9 		"/>
	</g>
	<g>
		<path d="M26.4,126.7v-1 M24.1,125.8h4.6"/>
		<path class="st5" d="M26.4,126.7v-1 M24.1,125.8h4.6"/>
	</g>
	<g>
		<path d="M56.3,45.6v-7.4 M54,38.2h4.6"/>
		<path class="st5" d="M56.3,45.6v-7.4 M54,38.2h4.6"/>
	</g>
	<g>
		<path d="M86.1,97.2V94 M83.9,94h4.4"/>
		<path class="st5" d="M86.1,97.2V94 M83.9,94h4.4"/>
	</g>
	<g>
		<path class="st6" d="M8.5,138.9h3"/>
	</g>
	<g>
		<line class="st6" x1="11.5" y1="138.9" x2="101" y2="138.9"/>
	</g>
	<g>
		<path class="st6" d="M11.5,138.9v2.9 M41.3,138.9v2.9 M71.1,138.9v2.9 M101,138.9v2.9"/>
	</g>
	<g>
		<g>
			<text transform="matrix(1 0 0 1 20.6801 119.5142)" class="st7 st8">11</text>
			<text transform="matrix(1 0 0 1 27.3971 119.5142)" class="st7 st8">.</text>
			<text transform="matrix(1 0 0 1 28.7161 119.5142)" class="st7 st8">8</text>
		</g>
	</g>
	<g>
		<g>
			<text transform="matrix(1 0 0 1 50.5395 38.4361)" class="st7 st8">90</text>
			<text transform="matrix(1 0 0 1 57.2565 38.4361)" class="st7 st8">.</text>
			<text transform="matrix(1 0 0 1 58.5755 38.4361)" class="st7 st8">6</text>
		</g>
	</g>
	<g>
		<g>
			<text transform="matrix(1 0 0 1 80.3989 89.9829)" class="st7 st8">40</text>
			<text transform="matrix(1 0 0 1 87.1159 89.9829)" class="st7 st8">.</text>
			<text transform="matrix(1 0 0 1 88.4349 89.9829)" class="st7 st8">5</text>
		</g>
	</g>
	<g>
		<g>
			<text transform="matrix(1 0 0 1 32.7895 23.6001)" class="st9 st10">IL</text>
		</g>
	</g>
	<g>
		<g>
			<text transform="matrix(1 0 0 1 42.6332 23.6001)" class="st9 st10">-</text>
		</g>
	</g>
	<g>
		<g>
			<text transform="matrix(1 0 0 1 47.5551 23.6001)" class="st9 st10">4</text>
			<text transform="matrix(1 0 0 1 54.5101 23.6001)" class="st9 st10"> </text>
			<text transform="matrix(1 0 0 1 58.8251 23.6001)" class="st9 st10">i</text>
			<text transform="matrix(1 0 0 1 62.0701 23.6001)" class="st9 st10">n</text>
			<text transform="matrix(1 0 0 1 69.3831 23.6001)" class="st9 st10"> </text>
			<text transform="matrix(1 0 0 1 73.5891 23.6001)" class="st9 st10">B</text>
			<text transform="matrix(1 0 0 1 81.2601 23.6001)" class="st9 st10">A</text>
			<text transform="matrix(1 0 0 1 89.6671 23.6001)" class="st9 st10">L</text>
			<text transform="matrix(1 0 0 1 95.7901 23.6001)" class="st9 st10">F</text>
		</g>
	</g>
	<g>
		<polygon class="st1" points="148.9,129.1 163.8,129.1 163.8,138.9 148.9,138.9 		"/>
		<polygon class="st2" points="148.9,129.1 163.8,129.1 163.8,138.9 148.9,138.9 		"/>
	</g>
	<g>
		<polygon class="st3" points="178.8,50.1 193.7,50.1 193.7,138.9 178.8,138.9 		"/>
		<polygon class="st2" points="178.8,50.1 193.7,50.1 193.7,138.9 178.8,138.9 		"/>
	</g>
	<g>
		<polygon class="st4" points="208.7,110.2 223.6,110.2 223.6,138.9 208.7,138.9 		"/>
		<polygon class="st2" points="208.7,110.2 223.6,110.2 223.6,138.9 208.7,138.9 		"/>
	</g>
	<g>
		<path d="M156.4,129.1v-1 M154.1,128.2h4.6"/>
		<path class="st5" d="M156.4,129.1v-1 M154.1,128.2h4.6"/>
	</g>
	<g>
		<path d="M186.2,50.1v-0.8 M184,49.2h4.6"/>
		<path class="st5" d="M186.2,50.1v-0.8 M184,49.2h4.6"/>
	</g>
	<g>
		<path d="M216.1,110.2v-2.4 M213.8,107.8h4.6"/>
		<path class="st5" d="M216.1,110.2v-2.4 M213.8,107.8h4.6"/>
	</g>
	<g>
		<path class="st6" d="M138.6,138.9h2.9"/>
	</g>
	<g>
		<line class="st6" x1="141.5" y1="138.9" x2="231" y2="138.9"/>
	</g>
	<g>
		<path class="st6" d="M141.5,138.9v2.9 M171.4,138.9v2.9 M201.1,138.9v2.9 M231,138.9v2.9"/>
	</g>
	<g>
		<g>
			<text transform="matrix(1 0 0 1 150.6669 121.9204)" class="st7 st8">14</text>
			<text transform="matrix(1 0 0 1 157.3839 121.9204)" class="st7 st8">.</text>
			<text transform="matrix(1 0 0 1 158.7029 121.9204)" class="st7 st8">2</text>
		</g>
	</g>
	<g>
		<g>
			<text transform="matrix(1 0 0 1 178.8544 42.8892)" class="st7 st8">129</text>
			<text transform="matrix(1 0 0 1 188.9304 42.8892)" class="st7 st8">.</text>
			<text transform="matrix(1 0 0 1 190.2494 42.8892)" class="st7 st8">4</text>
		</g>
	</g>
	<g>
		<g>
			<text transform="matrix(1 0 0 1 210.3857 102.9829)" class="st7 st8">41</text>
			<text transform="matrix(1 0 0 1 217.1037 102.9829)" class="st7 st8">.</text>
			<text transform="matrix(1 0 0 1 218.4217 102.9829)" class="st7 st8">8</text>
		</g>
	</g>
	<g>
		<g>
			<text transform="matrix(1 0 0 1 162.7841 23.6001)" class="st9 st10">IL</text>
		</g>
	</g>
	<g>
		<g>
			<text transform="matrix(1 0 0 1 172.6201 23.6001)" class="st9 st10">-</text>
		</g>
	</g>
	<g>
		<g>
			<text transform="matrix(1 0 0 1 177.5419 23.6001)" class="st9 st10">5</text>
			<text transform="matrix(1 0 0 1 184.4969 23.6001)" class="st9 st10"> </text>
			<text transform="matrix(1 0 0 1 188.8119 23.6001)" class="st9 st10">i</text>
			<text transform="matrix(1 0 0 1 192.0569 23.6001)" class="st9 st10">n</text>
			<text transform="matrix(1 0 0 1 199.3689 23.6001)" class="st9 st10"> </text>
			<text transform="matrix(1 0 0 1 203.5759 23.6001)" class="st9 st10">B</text>
			<text transform="matrix(1 0 0 1 211.2469 23.6001)" class="st9 st10">A</text>
			<text transform="matrix(1 0 0 1 219.6539 23.6001)" class="st9 st10">L</text>
			<text transform="matrix(1 0 0 1 225.7759 23.6001)" class="st9 st10">F</text>
		</g>
	</g>
	<g>
		<polygon class="st1" points="284.4,129.5 299.3,129.5 299.3,138.9 284.4,138.9 		"/>
		<polygon class="st2" points="284.4,129.5 299.3,129.5 299.3,138.9 284.4,138.9 		"/>
	</g>
	<g>
		<polygon class="st3" points="314.3,49.7 329.2,49.7 329.2,138.9 314.3,138.9 		"/>
		<polygon class="st2" points="314.3,49.7 329.2,49.7 329.2,138.9 314.3,138.9 		"/>
	</g>
	<g>
		<polygon class="st4" points="344.2,109.3 359.1,109.3 359.1,138.9 344.2,138.9 		"/>
		<polygon class="st2" points="344.2,109.3 359.1,109.3 359.1,138.9 344.2,138.9 		"/>
	</g>
	<g>
		<path d="M291.9,129.5v-0.8 M289.6,128.7h4.6"/>
		<path class="st5" d="M291.9,129.5v-0.8 M289.6,128.7h4.6"/>
	</g>
	<g>
		<path d="M321.7,49.7v-6.6 M319.5,43.1h4.6"/>
		<path class="st5" d="M321.7,49.7v-6.6 M319.5,43.1h4.6"/>
	</g>
	<g>
		<path d="M351.6,109.3v-2 M349.3,107.3h4.6"/>
		<path class="st5" d="M351.6,109.3v-2 M349.3,107.3h4.6"/>
	</g>
	<g>
		<path class="st6" d="M274.1,138.9h2.9"/>
	</g>
	<g>
		<line class="st6" x1="277" y1="138.9" x2="366.5" y2="138.9"/>
	</g>
	<g>
		<path class="st6" d="M277,138.9v2.9 M306.9,138.9v2.9 M336.6,138.9v2.9 M366.5,138.9v2.9"/>
	</g>
	<g>
		<g>
			<text transform="matrix(1 0 0 1 286.1819 122.3111)" class="st7 st8">15</text>
			<text transform="matrix(1 0 0 1 292.8999 122.3111)" class="st7 st8">.</text>
			<text transform="matrix(1 0 0 1 294.2179 122.3111)" class="st7 st8">9</text>
		</g>
	</g>
	<g>
		<g>
			<text transform="matrix(1 0 0 1 314.3615 42.4595)" class="st7 st8">151</text>
			<text transform="matrix(1 0 0 1 324.4375 42.4595)" class="st7 st8">.</text>
			<text transform="matrix(1 0 0 1 325.7565 42.4595)" class="st7 st8">7</text>
		</g>
	</g>
	<g>
		<g>
			<text transform="matrix(1 0 0 1 345.9006 102.2017)" class="st7 st8">50</text>
			<text transform="matrix(1 0 0 1 352.6186 102.2017)" class="st7 st8">.</text>
			<text transform="matrix(1 0 0 1 353.9366 102.2017)" class="st7 st8">1</text>
		</g>
	</g>
	<g>
		<g>
			<text transform="matrix(1 0 0 1 291.8928 23.6001)" class="st9 st10">IL</text>
		</g>
	</g>
	<g>
		<g>
			<text transform="matrix(1 0 0 1 301.7287 23.6001)" class="st9 st10">-</text>
		</g>
	</g>
	<g>
		<g>
			<text transform="matrix(1 0 0 1 306.6506 23.6001)" class="st9 st10">13</text>
			<text transform="matrix(1 0 0 1 320.5606 23.6001)" class="st9 st10"> </text>
			<text transform="matrix(1 0 0 1 324.8756 23.6001)" class="st9 st10">i</text>
			<text transform="matrix(1 0 0 1 328.1206 23.6001)" class="st9 st10">n</text>
			<text transform="matrix(1 0 0 1 335.4326 23.6001)" class="st9 st10"> </text>
			<text transform="matrix(1 0 0 1 339.6396 23.6001)" class="st9 st10">B</text>
			<text transform="matrix(1 0 0 1 347.3106 23.6001)" class="st9 st10">A</text>
			<text transform="matrix(1 0 0 1 355.7176 23.6001)" class="st9 st10">L</text>
			<text transform="matrix(1 0 0 1 361.8396 23.6001)" class="st9 st10">F</text>
		</g>
	</g>
	<g>
		<polygon class="st1" points="18.1,228.5 32.9,228.5 32.9,317.8 18.1,317.8 		"/>
		<polygon class="st2" points="18.1,228.5 32.9,228.5 32.9,317.8 18.1,317.8 		"/>
	</g>
	<g>
		<polygon class="st3" points="47.6,261 62.4,261 62.4,317.8 47.6,317.8 		"/>
		<polygon class="st2" points="47.6,261 62.4,261 62.4,317.8 47.6,317.8 		"/>
	</g>
	<g>
		<polygon class="st4" points="77.1,238.3 91.9,238.3 91.9,317.8 77.1,317.8 		"/>
		<polygon class="st2" points="77.1,238.3 91.9,238.3 91.9,317.8 77.1,317.8 		"/>
	</g>
	<g>
		<path d="M25.5,228.5v-6.2 M23.3,222.3h4.4"/>
		<path class="st5" d="M25.5,228.5v-6.2 M23.3,222.3h4.4"/>
	</g>
	<g>
		<path d="M55.1,261v-5 M52.8,256h4.4"/>
		<path class="st5" d="M55.1,261v-5 M52.8,256h4.4"/>
	</g>
	<g>
		<path d="M84.6,238.3v-6.6 M82.3,231.7h4.4"/>
		<path class="st5" d="M84.6,238.3v-6.6 M82.3,231.7h4.4"/>
	</g>
	<g>
		<line class="st6" x1="10.8" y1="317.8" x2="99.3" y2="317.8"/>
	</g>
	<g>
		<path class="st6" d="M10.8,317.8v2.9 M40.3,317.8v2.9 M69.8,317.8v2.9 M99.3,317.8v2.9"/>
	</g>
	<g>
		<g>
			<text transform="matrix(1 0 0 1 19.7973 221.2796)" class="st7 st8">21</text>
			<text transform="matrix(1 0 0 1 26.5143 221.2796)" class="st7 st8">.</text>
			<text transform="matrix(1 0 0 1 27.8333 221.2796)" class="st7 st8">7</text>
		</g>
	</g>
	<g>
		<g>
			<text transform="matrix(1 0 0 1 49.3129 253.803)" class="st7 st8">13</text>
			<text transform="matrix(1 0 0 1 56.0299 253.803)" class="st7 st8">.</text>
			<text transform="matrix(1 0 0 1 57.3489 253.803)" class="st7 st8">8</text>
		</g>
	</g>
	<g>
		<g>
			<text transform="matrix(1 0 0 1 78.8364 231.1624)" class="st7 st8">19</text>
			<text transform="matrix(1 0 0 1 85.5534 231.1624)" class="st7 st8">.</text>
			<text transform="matrix(1 0 0 1 86.8724 231.1624)" class="st7 st8">3</text>
		</g>
	</g>
	<g>
		<polygon class="st1" points="148.9,233.3 163.8,233.3 163.8,317.8 148.9,317.8 		"/>
		<polygon class="st2" points="148.9,233.3 163.8,233.3 163.8,317.8 148.9,317.8 		"/>
	</g>
	<g>
		<polygon class="st3" points="178.8,265.2 193.7,265.2 193.7,317.8 178.8,317.8 		"/>
		<polygon class="st2" points="178.8,265.2 193.7,265.2 193.7,317.8 178.8,317.8 		"/>
	</g>
	<g>
		<polygon class="st4" points="208.7,244.2 223.6,244.2 223.6,317.8 208.7,317.8 		"/>
		<polygon class="st2" points="208.7,244.2 223.6,244.2 223.6,317.8 208.7,317.8 		"/>
	</g>
	<g>
		<path d="M156.4,233.3v-4.8 M154.1,228.5h4.6"/>
		<path class="st5" d="M156.4,233.3v-4.8 M154.1,228.5h4.6"/>
	</g>
	<g>
		<path d="M186.2,265.2v-4.1 M184,261.1h4.6"/>
		<path class="st5" d="M186.2,265.2v-4.1 M184,261.1h4.6"/>
	</g>
	<g>
		<path d="M216.1,244.2v-5.9 M213.8,238.3h4.6"/>
		<path class="st5" d="M216.1,244.2v-5.9 M213.8,238.3h4.6"/>
	</g>
	<g>
		<path class="st6" d="M138.6,317.8h2.9"/>
	</g>
	<g>
		<line class="st6" x1="141.5" y1="317.8" x2="231" y2="317.8"/>
	</g>
	<g>
		<path class="st6" d="M141.5,317.8v2.9 M171.4,317.8v2.9 M201.1,317.8v2.9 M231,317.8v2.9"/>
	</g>
	<g>
		<g>
			<text transform="matrix(1 0 0 1 150.6669 226.1311)" class="st7 st8">98</text>
			<text transform="matrix(1 0 0 1 157.3839 226.1311)" class="st7 st8">.</text>
			<text transform="matrix(1 0 0 1 158.7029 226.1311)" class="st7 st8">5</text>
		</g>
	</g>
	<g>
		<g>
			<text transform="matrix(1 0 0 1 180.5263 258.0374)" class="st7 st8">61</text>
			<text transform="matrix(1 0 0 1 187.2443 258.0374)" class="st7 st8">.</text>
			<text transform="matrix(1 0 0 1 188.5623 258.0374)" class="st7 st8">3</text>
		</g>
	</g>
	<g>
		<g>
			<text transform="matrix(1 0 0 1 210.3857 237.0217)" class="st7 st8">85</text>
			<text transform="matrix(1 0 0 1 217.1037 237.0217)" class="st7 st8">.</text>
			<text transform="matrix(1 0 0 1 218.4217 237.0217)" class="st7 st8">8</text>
		</g>
	</g>
	<g>
		<g>
			<text transform="matrix(1 0 0 1 148.2998 202.5374)" class="st9 st10">IL</text>
		</g>
	</g>
	<g>
		<g>
			<text transform="matrix(1 0 0 1 158.1357 202.5374)" class="st9 st10">-</text>
		</g>
	</g>
	<g>
		<g>
			<text transform="matrix(1 0 0 1 163.0576 202.5374)" class="st9 st10">10</text>
			<text transform="matrix(1 0 0 1 176.9676 202.5374)" class="st9 st10"> </text>
			<text transform="matrix(1 0 0 1 181.2826 202.5374)" class="st9 st10">i</text>
			<text transform="matrix(1 0 0 1 184.5276 202.5374)" class="st9 st10">n</text>
			<text transform="matrix(1 0 0 1 191.8396 202.5374)" class="st9 st10"> </text>
			<text transform="matrix(1 0 0 1 196.0466 202.5374)" class="st9 st10">S</text>
			<text transform="matrix(1 0 0 1 202.8856 202.5374)" class="st9 st10">e</text>
			<text transform="matrix(1 0 0 1 209.4836 202.5374)" class="st9 st10">r</text>
			<text transform="matrix(1 0 0 1 214.1696 202.5374)" class="st9 st10">u</text>
			<text transform="matrix(1 0 0 1 221.4836 202.5374)" class="st9 st10">m</text>
		</g>
	</g>
	<g>
		<g>
			<text transform="matrix(1 0 0 1 13.9311 202.5374)" class="st9 st10">IL</text>
		</g>
	</g>
	<g>
		<g>
			<text transform="matrix(1 0 0 1 23.767 202.5374)" class="st9 st10">-</text>
		</g>
	</g>
	<g>
		<g>
			<text transform="matrix(1 0 0 1 28.6889 202.5374)" class="st9 st10">2</text>
			<text transform="matrix(1 0 0 1 35.6439 202.5374)" class="st9 st10"> </text>
			<text transform="matrix(1 0 0 1 39.9589 202.5374)" class="st9 st10">i</text>
			<text transform="matrix(1 0 0 1 43.2039 202.5374)" class="st9 st10">n</text>
			<text transform="matrix(1 0 0 1 50.5159 202.5374)" class="st9 st10"> </text>
			<text transform="matrix(1 0 0 1 54.7229 202.5374)" class="st9 st10">S</text>
			<text transform="matrix(1 0 0 1 61.5619 202.5374)" class="st9 st10">e</text>
			<text transform="matrix(1 0 0 1 68.1599 202.5374)" class="st9 st10">r</text>
			<text transform="matrix(1 0 0 1 72.8459 202.5374)" class="st9 st10">u</text>
			<text transform="matrix(1 0 0 1 80.1599 202.5374)" class="st9 st10">m</text>
		</g>
	</g>
	<g>
		<polygon class="st1" points="284.4,224.2 299.3,224.2 299.3,317.8 284.4,317.8 		"/>
		<polygon class="st2" points="284.4,224.2 299.3,224.2 299.3,317.8 284.4,317.8 		"/>
	</g>
	<g>
		<polygon class="st3" points="314.3,249.7 329.2,249.7 329.2,317.8 314.3,317.8 		"/>
		<polygon class="st2" points="314.3,249.7 329.2,249.7 329.2,317.8 314.3,317.8 		"/>
	</g>
	<g>
		<polygon class="st4" points="344.2,244.8 359.1,244.8 359.1,317.8 344.2,317.8 		"/>
		<polygon class="st2" points="344.2,244.8 359.1,244.8 359.1,317.8 344.2,317.8 		"/>
	</g>
	<g>
		<path d="M291.9,224.2v-6.5 M289.6,217.7h4.6"/>
		<path class="st5" d="M291.9,224.2v-6.5 M289.6,217.7h4.6"/>
	</g>
	<g>
		<path d="M321.7,249.7v-3.8 M319.5,245.9h4.6"/>
		<path class="st5" d="M321.7,249.7v-3.8 M319.5,245.9h4.6"/>
	</g>
	<g>
		<path d="M351.6,244.8v-6.1 M349.3,238.7h4.6"/>
		<path class="st5" d="M351.6,244.8v-6.1 M349.3,238.7h4.6"/>
	</g>
	<g>
		<path class="st6" d="M274.1,317.8h2.9"/>
	</g>
	<g>
		<line class="st6" x1="277" y1="317.8" x2="366.5" y2="317.8"/>
	</g>
	<g>
		<path class="st6" d="M277,317.8v2.9 M306.9,317.8v2.9 M336.6,317.8v2.9 M366.5,317.8v2.9"/>
	</g>
	<g>
		<g>
			<text transform="matrix(1 0 0 1 284.5022 217.0217)" class="st7 st8">272</text>
			<text transform="matrix(1 0 0 1 294.5782 217.0217)" class="st7 st8">.</text>
			<text transform="matrix(1 0 0 1 295.8972 217.0217)" class="st7 st8">8</text>
		</g>
	</g>
	<g>
		<g>
			<text transform="matrix(1 0 0 1 314.3615 242.6155)" class="st7 st8">198</text>
			<text transform="matrix(1 0 0 1 324.4375 242.6155)" class="st7 st8">.</text>
			<text transform="matrix(1 0 0 1 325.7565 242.6155)" class="st7 st8">2</text>
		</g>
	</g>
	<g>
		<g>
			<text transform="matrix(1 0 0 1 344.2131 237.6467)" class="st7 st8">212</text>
			<text transform="matrix(1 0 0 1 354.2891 237.6467)" class="st7 st8">.</text>
			<text transform="matrix(1 0 0 1 355.6081 237.6467)" class="st7 st8">7</text>
		</g>
	</g>
	<g>
		<g>
			<text transform="matrix(1 0 0 1 283.8147 202.5374)" class="st9 st10">IL</text>
		</g>
	</g>
	<g>
		<g>
			<text transform="matrix(1 0 0 1 293.6506 202.5374)" class="st9 st10">-</text>
		</g>
	</g>
	<g>
		<g>
			<text transform="matrix(1 0 0 1 298.5725 202.5374)" class="st9 st10">12</text>
			<text transform="matrix(1 0 0 1 312.4825 202.5374)" class="st9 st10"> </text>
			<text transform="matrix(1 0 0 1 316.7975 202.5374)" class="st9 st10">i</text>
			<text transform="matrix(1 0 0 1 320.0425 202.5374)" class="st9 st10">n</text>
			<text transform="matrix(1 0 0 1 327.3545 202.5374)" class="st9 st10"> </text>
			<text transform="matrix(1 0 0 1 331.5615 202.5374)" class="st9 st10">S</text>
			<text transform="matrix(1 0 0 1 338.4005 202.5374)" class="st9 st10">e</text>
			<text transform="matrix(1 0 0 1 344.9985 202.5374)" class="st9 st10">r</text>
			<text transform="matrix(1 0 0 1 349.6845 202.5374)" class="st9 st10">u</text>
			<text transform="matrix(1 0 0 1 356.9985 202.5374)" class="st9 st10">m</text>
		</g>
	</g>
</g>
</svg>
