<?xml version="1.0" encoding="utf-8"?>
<!-- Generator: Adobe Illustrator 28.0.0, SVG Export Plug-In . SVG Version: 6.00 Build 0)  -->
<svg version="1.1" id="_레이어_1" xmlns="http://www.w3.org/2000/svg" xmlns:xlink="http://www.w3.org/1999/xlink" x="0px"
	 y="0px" viewBox="0 0 272.3 179.5" style="enable-background:new 0 0 272.3 179.5;" xml:space="preserve">
<style type="text/css">
	.st0{fill:#FFFFFF;}
	.st1{fill:none;stroke:#060303;stroke-width:1.392;stroke-linejoin:round;}
	.st2{fill:#E6DFEA;}
	.st3{fill:#CABFD6;}
	.st4{fill:#AF9FC1;}
	.st5{fill:#060303;}
	.st6{fill:none;stroke:#868686;stroke-width:1.392;stroke-linejoin:round;}
	.st7{fill:none;stroke:#868686;stroke-width:1.167;stroke-linejoin:round;}
	.st8{font-family:'Calibri';}
	.st9{font-size:11.138px;}
	.st10{fill:#231F20;}
	.st11{font-family:'AppleSDGothicNeoEB00';}
	.st12{font-size:11px;}
	.st13{fill-rule:evenodd;clip-rule:evenodd;fill:#FFFFFF;stroke:#231F20;stroke-width:0.5;stroke-miterlimit:10;}
	.st14{fill:none;stroke:#231F20;stroke-width:0.5;stroke-miterlimit:10;}
	.st15{fill-rule:evenodd;clip-rule:evenodd;fill:#E6DFEA;stroke:#231F20;stroke-width:0.5;stroke-miterlimit:10;}
	.st16{fill-rule:evenodd;clip-rule:evenodd;fill:#CABFD6;stroke:#231F20;stroke-width:0.5;stroke-miterlimit:10;}
	.st17{fill-rule:evenodd;clip-rule:evenodd;fill:#AF9FC1;stroke:#231F20;stroke-width:0.5;stroke-miterlimit:10;}
	.st18{font-family:'AppleSDGothicNeoR00';}
</style>
<rect y="-1.2" class="st0" width="272.3" height="180.8"/>
<polygon class="st0" points="78.9,129.8 96.1,129.8 96.1,161.8 78.9,161.8 78.9,129.8 78.9,129.8 "/>
<polygon class="st1" points="78.9,129.8 96.1,129.8 96.1,161.8 78.9,161.8 78.9,129.8 78.9,129.8 "/>
<polygon class="st2" points="96.1,112.6 112.8,112.6 112.8,161.8 96.1,161.8 96.1,112.6 96.1,112.6 "/>
<polygon class="st1" points="96.1,112.6 112.8,112.6 112.8,161.8 96.1,161.8 96.1,112.6 96.1,112.6 "/>
<polygon class="st3" points="112.8,80.1 130,80.1 130,161.8 112.8,161.8 112.8,80.1 112.8,80.1 "/>
<polygon class="st1" points="112.8,80.1 130,80.1 130,161.8 112.8,161.8 112.8,80.1 112.8,80.1 "/>
<polygon class="st4" points="130,43.4 147.2,43.4 147.2,161.8 130,161.8 130,43.4 130,43.4 "/>
<polygon class="st1" points="130,43.4 147.2,43.4 147.2,161.8 130,161.8 130,43.4 130,43.4 "/>
<path class="st5" d="M87.7,129.8V127V129.8z M83.1,127h8.8H83.1z"/>
<path class="st1" d="M87.7,129.8V127 M83.1,127h8.8"/>
<path class="st5" d="M104.4,112.6v-2.8V112.6z M100.3,109.8h8.4H100.3z"/>
<path class="st1" d="M104.4,112.6v-2.8 M100.3,109.8h8.4"/>
<path class="st5" d="M121.6,80.1V75V80.1z M117.4,75h8.4H117.4z"/>
<path class="st1" d="M121.6,80.1V75 M117.4,75h8.4"/>
<path class="st5" d="M138.3,43.4V33.2V43.4z M134.2,33.2h8.8H134.2z"/>
<path class="st1" d="M138.3,43.4V33.2 M134.2,33.2h8.8"/>
<line class="st6" x1="39.4" y1="161.8" x2="39.4" y2="5.8"/>
<path class="st6" d="M35.7,161.8h3.7 M35.7,139.5h3.7 M35.7,117.2h3.7 M35.7,94.9h3.7 M35.7,72.7h3.7 M35.7,50.4h3.7 M35.7,28.1h3.7
	 M35.7,5.8h3.7"/>
<line class="st7" x1="39.4" y1="161.8" x2="171.2" y2="161.8"/>
<path class="st7" d="M39.4,161.8v4.6 M105,161.8h66.2v4.6"/>
<text transform="matrix(1 0 0 1 23.147 164.567)" class="st5 st8 st9">0</text>
<g>
	<text transform="matrix(1 0 0 1 17.579 142.278)" class="st5 st8 st9">1</text>
	<text transform="matrix(1 0 0 1 23.147 142.278)" class="st5 st8 st9">0</text>
</g>
<g>
	<text transform="matrix(1 0 0 1 17.579 120.02)" class="st5 st8 st9">2</text>
	<text transform="matrix(1 0 0 1 23.147 120.02)" class="st5 st8 st9">0</text>
</g>
<g>
	<text transform="matrix(1 0 0 1 17.579 97.746)" class="st5 st8 st9">3</text>
	<text transform="matrix(1 0 0 1 23.147 97.746)" class="st5 st8 st9">0</text>
</g>
<g>
	<text transform="matrix(1 0 0 1 17.579 75.473)" class="st5 st8 st9">4</text>
	<text transform="matrix(1 0 0 1 23.147 75.473)" class="st5 st8 st9">0</text>
</g>
<g>
	<text transform="matrix(1 0 0 1 17.579 53.186)" class="st5 st8 st9">5</text>
	<text transform="matrix(1 0 0 1 23.147 53.186)" class="st5 st8 st9">0</text>
</g>
<g>
	<text transform="matrix(1 0 0 1 17.579 31.39)" class="st5 st8 st9">6</text>
	<text transform="matrix(1 0 0 1 23.147 31.39)" class="st5 st8 st9">0</text>
</g>
<g>
	<text transform="matrix(1 0 0 1 17.579 9.088)" class="st5 st8 st9">7</text>
	<text transform="matrix(1 0 0 1 23.147 9.088)" class="st5 st8 st9">0</text>
</g>
<text transform="matrix(6.123234e-17 -1 1 6.123234e-17 9.68 157.424)" class="st10 st11 st12">탐식된 박테리아가 있는 세포 (%)</text>
<polygon class="st13" points="172.9,20.6 178,20.6 178,25.7 172.9,25.7 172.9,20.6 172.9,20.6 "/>
<polygon class="st14" points="172.9,20.6 178,20.6 178,25.7 172.9,25.7 172.9,20.6 172.9,20.6 "/>
<polygon class="st15" points="172.9,34.5 178,34.5 178,39.7 172.9,39.7 172.9,34.5 172.9,34.5 "/>
<polygon class="st14" points="172.9,34.5 178,34.5 178,39.7 172.9,39.7 172.9,34.5 172.9,34.5 "/>
<polygon class="st16" points="172.9,48.5 178,48.5 178,53.6 172.9,53.6 172.9,48.5 172.9,48.5 "/>
<polygon class="st14" points="172.9,48.5 178,48.5 178,53.6 172.9,53.6 172.9,48.5 172.9,48.5 "/>
<polygon class="st17" points="172.9,62.4 178,62.4 178,67.5 172.9,67.5 172.9,62.4 172.9,62.4 "/>
<polygon class="st14" points="172.9,62.4 178,62.4 178,67.5 172.9,67.5 172.9,62.4 172.9,62.4 "/>
<text transform="matrix(1 0 0 1 96.088 176.706)" class="st10 st11 st12">60 분후</text>
<text transform="matrix(1 0 0 1 184.225 28.121)" class="st10 st18 st12">대조군</text>
<text transform="matrix(1 0 0 1 184.225 41.321)" class="st10 st18 st12">헤미셀란 1 ug/ml</text>
<text transform="matrix(1 0 0 1 184.225 54.521)" class="st10 st18 st12">헤미셀란 10 ug/ml</text>
<text transform="matrix(1 0 0 1 184.225 67.721)" class="st10 st18 st12">헤미셀란 100 ug/ml</text>
</svg>
