<?xml version="1.0" encoding="utf-8"?>
<!-- Generator: Adobe Illustrator 28.0.0, SVG Export Plug-In . SVG Version: 6.00 Build 0)  -->
<svg version="1.1" id="레이어_1" xmlns="http://www.w3.org/2000/svg" xmlns:xlink="http://www.w3.org/1999/xlink" x="0px"
	 y="0px" viewBox="0 0 207.5 185" style="enable-background:new 0 0 207.5 185;" xml:space="preserve">
<style type="text/css">
	.st0{fill:#FFFFFF;stroke:#000000;stroke-miterlimit:10;}
	.st1{fill-rule:evenodd;clip-rule:evenodd;fill:#F2F2F3;}
	.st2{fill:none;stroke:#000000;stroke-width:0.72;stroke-linejoin:round;stroke-miterlimit:10;}
	.st3{fill-rule:evenodd;clip-rule:evenodd;}
	.st4{fill-rule:evenodd;clip-rule:evenodd;fill:#8165A2;}
	.st5{fill:none;stroke:#868686;stroke-width:0.72;stroke-linejoin:round;stroke-miterlimit:10;}
	.st6{font-family:'AppleSDGothicNeoR00';}
	.st7{font-size:8px;}
	.st8{font-size:8.04px;}
	.st9{font-size:7px;}
	.st10{font-family:'AppleSDGothicNeoEB00';}
	.st11{font-size:9px;}
</style>
<rect class="st0" width="207.5" height="185"/>
<g>
	<polygon class="st1" points="36.2,146.6 59.1,146.6 59.1,148.7 36.2,148.7 	"/>
	<polygon class="st2" points="36.2,146.6 59.1,146.6 59.1,148.7 36.2,148.7 	"/>
</g>
<g>
	<polygon class="st3" points="93.4,59.9 116.2,59.9 116.2,148.7 93.4,148.7 	"/>
	<polygon class="st2" points="93.4,59.9 116.2,59.9 116.2,148.7 93.4,148.7 	"/>
</g>
<g>
	<polygon class="st4" points="150.5,122.3 173.5,122.3 173.5,148.7 150.5,148.7 	"/>
	<polygon class="st2" points="150.5,122.3 173.5,122.3 173.5,148.7 150.5,148.7 	"/>
</g>
<g>
	<path d="M47.7,146.6v-0.2 M45.4,146.3h4.4"/>
	<path class="st2" d="M47.7,146.6v-0.2 M45.4,146.3h4.4"/>
</g>
<g>
	<path d="M104.8,59.9v-6.5 M102.5,53.4h4.6"/>
	<path class="st2" d="M104.8,59.9v-6.5 M102.5,53.4h4.6"/>
</g>
<g>
	<path d="M161.9,122.3v-2.5 M159.8,119.8h4.4"/>
	<path class="st2" d="M161.9,122.3v-2.5 M159.8,119.8h4.4"/>
</g>
<g>
	<path class="st5" d="M16.5,148.7H19"/>
</g>
<g>
	<line class="st5" x1="19" y1="148.7" x2="190.6" y2="148.7"/>
</g>
<g>
	<path class="st5" d="M76.3,148.7v2.5 M133.4,148.7v2.5 M190.6,148.7v2.5"/>
</g>
<g>
	<g>
		<text transform="matrix(1 0 0 1 38.3325 136.6122)" class="st6 st7">4</text>
		<text transform="matrix(1 0 0 1 42.7245 136.6122)" class="st6 st7">.</text>
		<text transform="matrix(1 0 0 1 44.5885 136.6122)" class="st6 st7">22</text>
		<text transform="matrix(1 0 0 1 53.0205 136.6122)" class="st6 st7">9</text>
	</g>
</g>
<g>
	<g>
		<text transform="matrix(1 0 0 1 95.5032 47.6021)" class="st6 st7">172</text>
		<text transform="matrix(1 0 0 1 106.3992 47.6021)" class="st6 st7">.</text>
		<text transform="matrix(1 0 0 1 108.2632 47.6021)" class="st6 st7">59</text>
		<text transform="matrix(1 0 0 1 116.5912 47.6021)" class="st6 st7">4</text>
	</g>
</g>
<g>
	<g>
		<text transform="matrix(1 0 0 1 154.0217 114.3465)" class="st6 st7">51</text>
		<text transform="matrix(1 0 0 1 160.7737 114.3465)" class="st6 st7">.</text>
		<text transform="matrix(1 0 0 1 162.6377 114.3465)" class="st6 st7">20</text>
		<text transform="matrix(1 0 0 1 171.8447 114.3465)" class="st6 st7">9</text>
	</g>
</g>
<g>
	<g>
		<text transform="matrix(1 0 0 1 35.7906 161.3325)" class="st6 st8">V</text>
		<text transform="matrix(1 0 0 1 40.6146 161.3325)" class="st6 st8">e</text>
		<text transform="matrix(1 0 0 1 44.5946 161.3325)" class="st6 st8">h</text>
		<text transform="matrix(1 0 0 1 48.8796 161.3325)" class="st6 st8">i</text>
		<text transform="matrix(1 0 0 1 50.6646 161.3325)" class="st6 st8">c</text>
		<text transform="matrix(1 0 0 1 54.3546 161.3325)" class="st6 st8">l</text>
		<text transform="matrix(1 0 0 1 56.1396 161.3325)" class="st6 st8">e</text>
	</g>
</g>
<g>
	<g>
		<text transform="matrix(1 0 0 1 92.1187 161.3325)" class="st6 st8">P</text>
		<text transform="matrix(1 0 0 1 96.4927 161.3325)" class="st6 st8">o</text>
		<text transform="matrix(1 0 0 1 100.8577 161.3325)" class="st6 st8">s</text>
		<text transform="matrix(1 0 0 1 104.1707 161.3325)" class="st6 st8">i</text>
		<text transform="matrix(1 0 0 1 105.9557 161.3325)" class="st6 st8">t</text>
		<text transform="matrix(1 0 0 1 108.7217 161.3325)" class="st6 st8">i</text>
		<text transform="matrix(1 0 0 1 110.6187 161.3325)" class="st6 st8">v</text>
		<text transform="matrix(1 0 0 1 114.5497 161.3325)" class="st6 st8">e</text>
	</g>
</g>
<g>
	<g>
		<text transform="matrix(1 0 0 1 93.1656 171.0981)" class="st6 st8">co</text>
		<text transform="matrix(1 0 0 1 101.0126 171.0981)" class="st6 st8">n</text>
		<text transform="matrix(1 0 0 1 105.2976 171.0981)" class="st6 st8">t</text>
		<text transform="matrix(1 0 0 1 108.1766 171.0981)" class="st6 st8">r</text>
		<text transform="matrix(1 0 0 1 110.9176 171.0981)" class="st6 st8">o</text>
		<text transform="matrix(1 0 0 1 115.1796 171.0981)" class="st6 st8">l</text>
	</g>
</g>
<text transform="matrix(1 0 0 1 149.9544 161.4048)" class="st6 st9">헤미셀란</text>
<text transform="matrix(1 0 0 1 48.5364 26.5011)" class="st10 st11">폐포세척액중 OVA-specific IgE</text>
</svg>
