<?xml version="1.0" encoding="utf-8"?>
<!-- Generator: Adobe Illustrator 28.0.0, SVG Export Plug-In . SVG Version: 6.00 Build 0)  -->
<svg version="1.1" id="레이어_1" xmlns="http://www.w3.org/2000/svg" xmlns:xlink="http://www.w3.org/1999/xlink" x="0px"
	 y="0px" viewBox="0 0 512.5 181.2" style="enable-background:new 0 0 512.5 181.2;" xml:space="preserve">
<style type="text/css">
	.st0{fill:#FFFFFF;stroke:#000000;stroke-miterlimit:10;}
	.st1{font-family:'ArialMT';}
	.st2{font-size:8.2917px;}
	.st3{font-family:'NanumGothic';}
	.st4{fill:none;stroke:#898989;stroke-width:0.3605;stroke-linejoin:round;stroke-miterlimit:10;}
	.st5{fill:none;stroke:#000000;stroke-width:0.721;stroke-linejoin:round;stroke-miterlimit:10;}
	.st6{fill:none;stroke:#7F7F7F;stroke-width:1.1717;stroke-linecap:round;stroke-linejoin:round;stroke-miterlimit:10;}
	.st7{fill:#7F7F7F;}
	.st8{fill:none;stroke:#7F7F7F;stroke-width:0.3605;stroke-linejoin:round;stroke-miterlimit:10;}
	.st9{fill:none;stroke:#0E0E0E;stroke-width:1.1717;stroke-linecap:round;stroke-linejoin:round;stroke-miterlimit:10;}
	.st10{fill-rule:evenodd;clip-rule:evenodd;fill:#0E0E0E;}
	.st11{fill:none;stroke:#0E0E0E;stroke-width:0.3605;stroke-linejoin:round;stroke-miterlimit:10;}
	.st12{fill:none;stroke:#90AAD8;stroke-width:1.1717;stroke-linecap:round;stroke-linejoin:round;stroke-miterlimit:10;}
	.st13{fill:#90AAD8;}
	.st14{fill:none;stroke:#90AAD8;stroke-width:0.3605;stroke-linejoin:round;stroke-miterlimit:10;}
	.st15{fill:none;stroke:#7B5CA3;stroke-width:1.1717;stroke-linecap:round;stroke-linejoin:round;stroke-miterlimit:10;}
	.st16{fill-rule:evenodd;clip-rule:evenodd;fill:#7B5CA3;}
	.st17{fill:none;stroke:#7B5CA3;stroke-width:0.3605;stroke-linejoin:round;stroke-miterlimit:10;}
	.st18{font-family:'Calibri';}
	.st19{font-size:7.4806px;}
	.st20{font-family:'Calibri-Bold';}
	.st21{font-size:10.5449px;}
	.st22{font-size:6.0385px;}
	.st23{font-family:'MalgunGothic';}
</style>
<rect class="st0" width="512.5" height="181.2"/>
<g>
	<g>
		<text transform="matrix(1 0 0 1 9.1027 165.6582)" class="st1 st2">•</text>
	</g>
	<g>
		<g>
			<text transform="matrix(1 0 0 1 19.2892 165.6582)" class="st3 st2">R</text>
			<text transform="matrix(1 0 0 1 24.4302 165.6582)" class="st3 st2">unn</text>
			<text transform="matrix(1 0 0 1 39.5542 165.6582)" class="st3 st2">i</text>
			<text transform="matrix(1 0 0 1 41.5432 165.6582)" class="st3 st2">n</text>
			<text transform="matrix(1 0 0 1 46.5852 165.6582)" class="st3 st2">g</text>
			<text transform="matrix(1 0 0 1 51.5432 165.6582)" class="st3 st2"> </text>
			<text transform="matrix(1 0 0 1 53.6242 165.6582)" class="st3 st2">t</text>
			<text transform="matrix(1 0 0 1 56.6012 165.6582)" class="st3 st2">i</text>
			<text transform="matrix(1 0 0 1 58.5912 165.6582)" class="st3 st2">m</text>
			<text transform="matrix(1 0 0 1 66.1612 165.6582)" class="st3 st2">e</text>
			<text transform="matrix(1 0 0 1 70.6722 165.6582)" class="st3 st2"> </text>
			<text transform="matrix(1 0 0 1 73.0102 165.6582)" class="st3 st2">:</text>
			<text transform="matrix(1 0 0 1 75.5312 165.6582)" class="st3 st2"> 4</text>
			<text transform="matrix(1 0 0 1 82.9102 165.6582)" class="st3 st2">r</text>
			<text transform="matrix(1 0 0 1 85.8872 165.6582)" class="st3 st2">p</text>
			<text transform="matrix(1 0 0 1 90.9282 165.6582)" class="st3 st2">m</text>
			<text transform="matrix(1 0 0 1 98.4982 165.6582)" class="st3 st2"> </text>
		</g>
		<g>
			<g>
				<text transform="matrix(1 0 0 1 100.674 165.6582)" class="st3 st2">에</text>
				<text transform="matrix(1 0 0 1 108.426 165.6582)" class="st3 st2">서</text>
			</g>
			<g>
				<g>
					<text transform="matrix(1 0 0 1 118.6115 165.6582)" class="st3 st2">떨어지</text>
					<text transform="matrix(1 0 0 1 141.8695 165.6582)" class="st3 st2">지</text>
				</g>
				<g>
					<g>
						<text transform="matrix(1 0 0 1 152.1388 165.6582)" class="st3 st2">않</text>
						<text transform="matrix(1 0 0 1 159.8908 165.6582)" class="st3 st2">고</text>
					</g>
					<g>
						<g>
							<text transform="matrix(1 0 0 1 170.0704 165.6582)" class="st3 st2">운동</text>
							<text transform="matrix(1 0 0 1 185.5754 165.6582)" class="st3 st2">한</text>
						</g>
						<g>
							<g>
								<text transform="matrix(1 0 0 1 195.7599 165.6582)" class="st3 st2">시</text>
							</g>
							<g>
								<g>
									<text transform="matrix(1 0 0 1 203.5109 165.6582)" class="st3 st2">간</text>
								</g>
								<g>
									<g>
										<text transform="matrix(1 0 0 1 259.8107 165.6582)" class="st1 st2">•</text>
									</g>
									<g>
										<g>
											<text transform="matrix(1 0 0 1 269.9913 165.6582)" class="st3 st2">F</text>
											<text transform="matrix(1 0 0 1 274.1453 165.6582)" class="st3 st2">a</text>
											<text transform="matrix(1 0 0 1 278.6563 165.6582)" class="st3 st2">lli</text>
											<text transform="matrix(1 0 0 1 284.6253 165.6582)" class="st3 st2">ng</text>
											<text transform="matrix(1 0 0 1 294.7083 165.6582)" class="st3 st2"> </text>
											<text transform="matrix(1 0 0 1 296.8723 165.6582)" class="st3 st2">fr</text>
											<text transform="matrix(1 0 0 1 302.8253 165.6582)" class="st3 st2">e</text>
											<text transform="matrix(1 0 0 1 307.3363 165.6582)" class="st3 st2">qu</text>
											<text transform="matrix(1 0 0 1 317.4193 165.6582)" class="st3 st2">e</text>
											<text transform="matrix(1 0 0 1 321.9293 165.6582)" class="st3 st2">n</text>
											<text transform="matrix(1 0 0 1 326.9703 165.6582)" class="st3 st2">c</text>
											<text transform="matrix(1 0 0 1 331.0253 165.6582)" class="st3 st2">y</text>
											<text transform="matrix(1 0 0 1 334.8973 165.6582)" class="st3 st2"> </text>
											<text transform="matrix(1 0 0 1 337.0613 165.6582)" class="st3 st2">:</text>
											<text transform="matrix(1 0 0 1 339.5823 165.6582)" class="st3 st2"> 4</text>
											<text transform="matrix(1 0 0 1 346.9623 165.6582)" class="st3 st2">r</text>
											<text transform="matrix(1 0 0 1 349.9383 165.6582)" class="st3 st2">p</text>
											<text transform="matrix(1 0 0 1 354.9793 165.6582)" class="st3 st2">m</text>
										</g>
										<g>
											<g>
												<text transform="matrix(1 0 0 1 362.5538 165.6582)" class="st3 st2">에</text>
												<text transform="matrix(1 0 0 1 370.3068 165.6582)" class="st3 st2">서</text>
											</g>
											<g>
												<g>
													<text transform="matrix(1 0 0 1 380.3097 165.6582)" class="st3 st2">3</text>
													<text transform="matrix(1 0 0 1 385.3507 165.6582)" class="st3 st2">0</text>
												</g>
												<g>
													<g>
														<text transform="matrix(1 0 0 1 390.4025 165.6582)" class="st3 st2">분</text>
													</g>
													<g>
														<g>
															<text transform="matrix(1 0 0 1 400.4122 165.6582)" class="st3 st2">동</text>
															<text transform="matrix(1 0 0 1 408.1652 165.6582)" class="st3 st2">안</text>
														</g>
														<g>
															<g>
																<text transform="matrix(1 0 0 1 418.3439 165.6582)" class="st3 st2">운동</text>
																<text transform="matrix(1 0 0 1 433.8489 165.6582)" class="st3 st2">시</text>
															</g>
															<g>
																<g>
																	<text transform="matrix(1 0 0 1 444.0323 165.6582)" class="st3 st2">떨어</text>
																	<text transform="matrix(1 0 0 1 459.5373 165.6582)" class="st3 st2">진</text>
																</g>
																<g>
																	<g>
																		<text transform="matrix(1 0 0 1 469.8038 165.6582)" class="st3 st2">횟</text>
																		<text transform="matrix(1 0 0 1 477.5568 165.6582)" class="st3 st2">수</text>
																	</g>
																</g>
															</g>
														</g>
													</g>
												</g>
											</g>
										</g>
									</g>
								</g>
							</g>
						</g>
					</g>
				</g>
			</g>
		</g>
	</g>
	<g>
		<line class="st4" x1="287.9" y1="130.9" x2="287.9" y2="24.8"/>
	</g>
	<g>
		<path class="st4" d="M285.5,130.9h2.3 M285.5,109.6h2.3 M285.5,88.5h2.3 M285.5,67.2h2.3 M285.5,46h2.3 M285.5,24.8h2.3"/>
	</g>
	<g>
		<line class="st4" x1="287.9" y1="130.9" x2="449.4" y2="130.9"/>
	</g>
	<g>
		<path class="st4" d="M287.9,130.9v2.3 M308,130.9v2.3 M328.2,130.9v2.3 M348.4,130.9v2.3 M368.6,130.9v2.3 M388.8,130.9v2.3
			 M409,130.9v2.3 M429.2,130.9v2.3 M449.4,130.9v2.3"/>
	</g>
	<g>
		<path d="M287.9,111v2.9 M287.9,111v-3 M286.1,113.9h3.4 M286.1,108h3.4"/>
		<path class="st5" d="M287.9,111v2.9 M287.9,111v-3 M286.1,113.9h3.4 M286.1,108h3.4"/>
	</g>
	<g>
		<path d="M298,113.5v2.5 M298,113.5V111 M296.2,116h3.4 M296.2,111h3.4"/>
		<path class="st5" d="M298,113.5v2.5 M298,113.5V111 M296.2,116h3.4 M296.2,111h3.4"/>
	</g>
	<g>
		<path d="M308,111.8v3 M308,111.8v-3 M306.3,114.8h3.4 M306.3,108.8h3.4"/>
		<path class="st5" d="M308,111.8v3 M308,111.8v-3 M306.3,114.8h3.4 M306.3,108.8h3.4"/>
	</g>
	<g>
		<path d="M348.4,114.8v2.5 M348.4,114.8v-2.5 M346.7,117.3h3.4 M346.7,112.2h3.4"/>
		<path class="st5" d="M348.4,114.8v2.5 M348.4,114.8v-2.5 M346.7,117.3h3.4 M346.7,112.2h3.4"/>
	</g>
	<g>
		<path d="M388.8,117.3v2.5 M388.8,117.3v-2.5 M387.2,119.8h3.3 M387.2,114.8h3.3"/>
		<path class="st5" d="M388.8,117.3v2.5 M388.8,117.3v-2.5 M387.2,119.8h3.3 M387.2,114.8h3.3"/>
	</g>
	<g>
		<path d="M449.4,116v2.2 M449.4,116v-2.2 M447.7,118.2h3.3 M447.7,113.9h3.3"/>
		<path class="st5" d="M449.4,116v2.2 M449.4,116v-2.2 M447.7,118.2h3.3 M447.7,113.9h3.3"/>
	</g>
	<g>
		<path d="M287.9,109.3v3.8 M287.9,109.3v-3.9 M286.1,113.1h3.4 M286.1,105.4h3.4"/>
		<path class="st5" d="M287.9,109.3v3.8 M287.9,109.3v-3.9 M286.1,113.1h3.4 M286.1,105.4h3.4"/>
	</g>
	<g>
		<path d="M298,60.4v8.9 M298,60.4v-8.9 M296.2,69.3h3.4 M296.2,51.5h3.4"/>
		<path class="st5" d="M298,60.4v8.9 M298,60.4v-8.9 M296.2,69.3h3.4 M296.2,51.5h3.4"/>
	</g>
	<g>
		<path d="M308,54.1v9.7 M308,54.1v-9.8 M306.3,63.8h3.4 M306.3,44.3h3.4"/>
		<path class="st5" d="M308,54.1v9.7 M308,54.1v-9.8 M306.3,63.8h3.4 M306.3,44.3h3.4"/>
	</g>
	<g>
		<path d="M348.4,49v9.7 M348.4,49v-9.7 M346.7,58.7h3.4 M346.7,39.2h3.4"/>
		<path class="st5" d="M348.4,49v9.7 M348.4,49v-9.7 M346.7,58.7h3.4 M346.7,39.2h3.4"/>
	</g>
	<g>
		<path d="M388.8,52.4v8 M388.8,52.4v-8.1 M387.2,60.4h3.3 M387.2,44.3h3.3"/>
		<path class="st5" d="M388.8,52.4v8 M388.8,52.4v-8.1 M387.2,60.4h3.3 M387.2,44.3h3.3"/>
	</g>
	<g>
		<path d="M449.4,61.7v5.1 M449.4,61.7v-5 M447.7,66.8h3.3 M447.7,56.6h3.3"/>
		<path class="st5" d="M449.4,61.7v5.1 M449.4,61.7v-5 M447.7,66.8h3.3 M447.7,56.6h3.3"/>
	</g>
	<g>
		<path d="M287.9,114.3v2.5 M287.9,114.3v-2.5 M286.1,116.8h3.4 M286.1,111.8h3.4"/>
		<path class="st5" d="M287.9,114.3v2.5 M287.9,114.3v-2.5 M286.1,116.8h3.4 M286.1,111.8h3.4"/>
	</g>
	<g>
		<path d="M298,59.2v8 M298,59.2v-8 M296.2,67.2h3.4 M296.2,51.1h3.4"/>
		<path class="st5" d="M298,59.2v8 M298,59.2v-8 M296.2,67.2h3.4 M296.2,51.1h3.4"/>
	</g>
	<g>
		<path d="M308,56.2v9.4 M308,56.2v-9.4 M306.3,65.6h3.4 M306.3,46.8h3.4"/>
		<path class="st5" d="M308,56.2v9.4 M308,56.2v-9.4 M306.3,65.6h3.4 M306.3,46.8h3.4"/>
	</g>
	<g>
		<path d="M348.4,54.1v8.8 M348.4,54.1v-8.9 M346.7,62.9h3.4 M346.7,45.2h3.4"/>
		<path class="st5" d="M348.4,54.1v8.8 M348.4,54.1v-8.9 M346.7,62.9h3.4 M346.7,45.2h3.4"/>
	</g>
	<g>
		<path d="M388.8,63.8v8.9 M388.8,63.8v-8.9 M387.2,72.8h3.3 M387.2,54.9h3.3"/>
		<path class="st5" d="M388.8,63.8v8.9 M388.8,63.8v-8.9 M387.2,72.8h3.3 M387.2,54.9h3.3"/>
	</g>
	<g>
		<path d="M449.4,74.8v6.4 M449.4,74.8v-6.3 M447.7,81.2h3.3 M447.7,68.5h3.3"/>
		<path class="st5" d="M449.4,74.8v6.4 M449.4,74.8v-6.3 M447.7,81.2h3.3 M447.7,68.5h3.3"/>
	</g>
	<g>
		<path d="M287.9,112.6v2.6 M287.9,112.6v-2.5 M286.1,115.2h3.4 M286.1,110.1h3.4"/>
		<path class="st5" d="M287.9,112.6v2.6 M287.9,112.6v-2.5 M286.1,115.2h3.4 M286.1,110.1h3.4"/>
	</g>
	<g>
		<path d="M298,71.1v7.7 M298,71.1v-7.7 M296.2,78.7h3.4 M296.2,63.4h3.4"/>
		<path class="st5" d="M298,71.1v7.7 M298,71.1v-7.7 M296.2,78.7h3.4 M296.2,63.4h3.4"/>
	</g>
	<g>
		<path d="M308,64.7v8.1 M308,64.7v-8 M306.3,72.8h3.4 M306.3,56.6h3.4"/>
		<path class="st5" d="M308,64.7v8.1 M308,64.7v-8 M306.3,72.8h3.4 M306.3,56.6h3.4"/>
	</g>
	<g>
		<path d="M348.4,62.1v9.4 M348.4,62.1v-9.4 M346.7,71.5h3.4 M346.7,52.8h3.4"/>
		<path class="st5" d="M348.4,62.1v9.4 M348.4,62.1v-9.4 M346.7,71.5h3.4 M346.7,52.8h3.4"/>
	</g>
	<g>
		<path d="M388.8,74.8v7.2 M388.8,74.8v-7.2 M387.2,82.1h3.3 M387.2,67.6h3.3"/>
		<path class="st5" d="M388.8,74.8v7.2 M388.8,74.8v-7.2 M387.2,82.1h3.3 M387.2,67.6h3.3"/>
	</g>
	<g>
		<path d="M449.4,87.2v5.9 M449.4,87.2v-5.9 M447.7,93.1h3.3 M447.7,81.2h3.3"/>
		<path class="st5" d="M449.4,87.2v5.9 M449.4,87.2v-5.9 M447.7,93.1h3.3 M447.7,81.2h3.3"/>
	</g>
	<g>
		<polyline class="st6" points="287.9,110.9 298,113.5 308.1,111.8 348.5,114.7 388.8,117.3 449.4,116.1 		"/>
	</g>
	<g>
		<polygon class="st7" points="287.8,109.1 289.7,111 287.8,112.9 285.9,111 		"/>
		<polygon class="st8" points="287.8,109.1 289.7,111 287.8,112.9 285.9,111 		"/>
		<polygon class="st7" points="297.9,111.6 299.8,113.5 297.9,115.4 296,113.5 		"/>
		<polygon class="st8" points="297.9,111.6 299.8,113.5 297.9,115.4 296,113.5 		"/>
		<polygon class="st7" points="308,109.9 309.9,111.8 308,113.7 306.1,111.8 		"/>
		<polygon class="st8" points="308,109.9 309.9,111.8 308,113.7 306.1,111.8 		"/>
		<polygon class="st7" points="348.4,112.9 350.3,114.7 348.4,116.6 346.5,114.7 		"/>
		<polygon class="st8" points="348.4,112.9 350.3,114.7 348.4,116.6 346.5,114.7 		"/>
		<polygon class="st7" points="388.8,115.4 390.6,117.3 388.8,119.2 386.9,117.3 		"/>
		<polygon class="st8" points="388.8,115.4 390.6,117.3 388.8,119.2 386.9,117.3 		"/>
		<polygon class="st7" points="449.3,114.1 451.2,116 449.3,117.9 447.4,116 		"/>
		<polygon class="st8" points="449.3,114.1 451.2,116 449.3,117.9 447.4,116 		"/>
	</g>
	<g>
		<polyline class="st9" points="287.9,109.2 298,60.5 308.1,54.1 348.5,49 388.8,52.4 449.4,61.7 		"/>
	</g>
	<g>
		<polygon class="st10" points="285.9,107.4 289.7,107.4 289.7,111.1 285.9,111.1 		"/>
		<polygon class="st11" points="285.9,107.4 289.7,107.4 289.7,111.1 285.9,111.1 		"/>
		<polygon class="st10" points="296,58.5 299.8,58.5 299.8,62.3 296,62.3 		"/>
		<polygon class="st11" points="296,58.5 299.8,58.5 299.8,62.3 296,62.3 		"/>
		<polygon class="st10" points="306.1,52.2 309.9,52.2 309.9,56 306.1,56 		"/>
		<polygon class="st11" points="306.1,52.2 309.9,52.2 309.9,56 306.1,56 		"/>
		<polygon class="st10" points="346.5,47.1 350.3,47.1 350.3,50.8 346.5,50.8 		"/>
		<polygon class="st11" points="346.5,47.1 350.3,47.1 350.3,50.8 346.5,50.8 		"/>
		<polygon class="st10" points="386.9,50.5 390.6,50.5 390.6,54.3 386.9,54.3 		"/>
		<polygon class="st11" points="386.9,50.5 390.6,50.5 390.6,54.3 386.9,54.3 		"/>
		<polygon class="st10" points="447.4,59.8 451.2,59.8 451.2,63.6 447.4,63.6 		"/>
		<polygon class="st11" points="447.4,59.8 451.2,59.8 451.2,63.6 447.4,63.6 		"/>
	</g>
	<g>
		<polyline class="st12" points="287.9,114.4 298,59.2 308.1,56.2 348.5,54.1 388.8,63.8 449.4,74.9 		"/>
	</g>
	<g>
		<polygon class="st13" points="287.8,112.4 289.7,116.2 285.9,116.2 		"/>
		<polygon class="st14" points="287.8,112.4 289.7,116.2 285.9,116.2 		"/>
		<polygon class="st13" points="297.9,57.2 299.8,61 296,61 		"/>
		<polygon class="st14" points="297.9,57.2 299.8,61 296,61 		"/>
		<polygon class="st13" points="308,54.3 309.9,58.1 306.1,58.1 		"/>
		<polygon class="st14" points="308,54.3 309.9,58.1 306.1,58.1 		"/>
		<polygon class="st13" points="348.4,52.2 350.3,56 346.5,56 		"/>
		<polygon class="st14" points="348.4,52.2 350.3,56 346.5,56 		"/>
		<polygon class="st13" points="388.8,61.9 390.6,65.7 386.9,65.7 		"/>
		<polygon class="st14" points="388.8,61.9 390.6,65.7 386.9,65.7 		"/>
		<polygon class="st13" points="449.3,72.9 451.2,76.7 447.4,76.7 		"/>
		<polygon class="st14" points="449.3,72.9 451.2,76.7 447.4,76.7 		"/>
	</g>
	<g>
		<polyline class="st15" points="287.9,112.7 298,71 308.1,64.7 348.5,62.1 388.8,74.9 449.4,87.1 		"/>
	</g>
	<g>
		<polygon class="st16" points="285.9,110.7 289.7,110.7 289.7,114.5 285.9,114.5 		"/>
		<polygon class="st17" points="285.9,110.7 289.7,110.7 289.7,114.5 285.9,114.5 		"/>
		<polygon class="st16" points="296,69.1 299.8,69.1 299.8,72.9 296,72.9 		"/>
		<polygon class="st17" points="296,69.1 299.8,69.1 299.8,72.9 296,72.9 		"/>
		<polygon class="st16" points="306.1,62.7 309.9,62.7 309.9,66.5 306.1,66.5 		"/>
		<polygon class="st17" points="306.1,62.7 309.9,62.7 309.9,66.5 306.1,66.5 		"/>
		<polygon class="st16" points="346.5,60.2 350.3,60.2 350.3,64 346.5,64 		"/>
		<polygon class="st17" points="346.5,60.2 350.3,60.2 350.3,64 346.5,64 		"/>
		<polygon class="st16" points="386.9,72.9 390.6,72.9 390.6,76.7 386.9,76.7 		"/>
		<polygon class="st17" points="386.9,72.9 390.6,72.9 390.6,76.7 386.9,76.7 		"/>
		<polygon class="st16" points="447.4,85.3 451.2,85.3 451.2,89.1 447.4,89.1 		"/>
		<polygon class="st17" points="447.4,85.3 451.2,85.3 451.2,89.1 447.4,89.1 		"/>
	</g>
	<g>
		<g>
			<text transform="matrix(1 0 0 1 277.0909 133.0098)" class="st18 st19">0</text>
		</g>
	</g>
	<g>
		<g>
			<text transform="matrix(1 0 0 1 277.0909 111.793)" class="st18 st19">5</text>
		</g>
	</g>
	<g>
		<g>
			<text transform="matrix(1 0 0 1 273.2833 90.5694)" class="st18 st19">10</text>
		</g>
	</g>
	<g>
		<g>
			<text transform="matrix(1 0 0 1 273.2833 69.3457)" class="st18 st19">15</text>
		</g>
	</g>
	<g>
		<g>
			<text transform="matrix(1 0 0 1 273.2833 48.1285)" class="st18 st19">20</text>
		</g>
	</g>
	<g>
		<g>
			<text transform="matrix(1 0 0 1 273.2833 26.9112)" class="st18 st19">25</text>
		</g>
	</g>
	<g>
		<g>
			<text transform="matrix(1 0 0 1 285.9572 142.7735)" class="st18 st19">0</text>
		</g>
	</g>
	<g>
		<g>
			<text transform="matrix(1 0 0 1 306.1544 142.7735)" class="st18 st19">1</text>
		</g>
	</g>
	<g>
		<g>
			<text transform="matrix(1 0 0 1 326.339 142.7735)" class="st18 st19">2</text>
		</g>
	</g>
	<g>
		<g>
			<text transform="matrix(1 0 0 1 346.5353 142.7735)" class="st18 st19">3</text>
		</g>
	</g>
	<g>
		<g>
			<text transform="matrix(1 0 0 1 366.7257 142.7735)" class="st18 st19">4</text>
		</g>
	</g>
	<g>
		<g>
			<text transform="matrix(1 0 0 1 386.9171 142.7735)" class="st18 st19">5</text>
		</g>
	</g>
	<g>
		<g>
			<text transform="matrix(1 0 0 1 407.1075 142.7735)" class="st18 st19">6</text>
		</g>
	</g>
	<g>
		<g>
			<text transform="matrix(1 0 0 1 427.3038 142.7735)" class="st18 st19">7</text>
		</g>
	</g>
	<g>
		<g>
			<text transform="matrix(1 0 0 1 447.4943 142.7735)" class="st18 st19">8</text>
		</g>
	</g>
	<g>
		<g>
			<text transform="matrix(1.748456e-07 -1 1 1.748456e-07 266.5578 104.6296)" class="st18 st19">F</text>
			<text transform="matrix(1.748456e-07 -1 1 1.748456e-07 266.5578 101.199)" class="st18 st19">a</text>
			<text transform="matrix(1.748456e-07 -1 1 1.748456e-07 266.5578 97.6023)" class="st18 st19">lli</text>
			<text transform="matrix(1.748456e-07 -1 1 1.748456e-07 266.5578 92.4519)" class="st18 st19">n</text>
			<text transform="matrix(1.748456e-07 -1 1 1.748456e-07 266.5578 88.4909)" class="st18 st19">g</text>
			<text transform="matrix(1.748456e-07 -1 1 1.748456e-07 266.5578 84.9704)" class="st18 st19"> </text>
			<text transform="matrix(1.748456e-07 -1 1 1.748456e-07 266.5578 83.2644)" class="st18 st19">F</text>
			<text transform="matrix(1.748456e-07 -1 1 1.748456e-07 266.5578 79.8347)" class="st18 st19">r</text>
			<text transform="matrix(1.748456e-07 -1 1 1.748456e-07 266.5578 77.2263)" class="st18 st19">e</text>
			<text transform="matrix(1.748456e-07 -1 1 1.748456e-07 266.5578 73.5261)" class="st18 st19">qu</text>
			<text transform="matrix(1.748456e-07 -1 1 1.748456e-07 266.5578 65.6072)" class="st18 st19">e</text>
			<text transform="matrix(1.748456e-07 -1 1 1.748456e-07 266.5578 61.906)" class="st18 st19">n</text>
			<text transform="matrix(1.748456e-07 -1 1 1.748456e-07 266.5578 57.946)" class="st18 st19">c</text>
			<text transform="matrix(1.748456e-07 -1 1 1.748456e-07 266.5578 54.7917)" class="st18 st19">y</text>
		</g>
	</g>
	<g>
		<g>
			<text transform="matrix(1 0 0 1 359.8956 152.5372)" class="st18 st19">T</text>
			<text transform="matrix(1 0 0 1 363.5026 152.5372)" class="st18 st19">i</text>
			<text transform="matrix(1 0 0 1 365.2196 152.5372)" class="st18 st19">me</text>
			<text transform="matrix(1 0 0 1 374.8736 152.5372)" class="st18 st19"> </text>
			<text transform="matrix(1 0 0 1 376.7586 152.5372)" class="st18 st19">(</text>
			<text transform="matrix(1 0 0 1 379.0116 152.5372)" class="st18 st19">h</text>
			<text transform="matrix(1 0 0 1 382.9716 152.5372)" class="st18 st19">)</text>
		</g>
	</g>
	<g>
		<g>
			<text transform="matrix(1 0 0 1 342.1349 17.816)" class="st20 st21">F</text>
			<text transform="matrix(1 0 0 1 346.7329 17.816)" class="st20 st21">alli</text>
			<text transform="matrix(1 0 0 1 359.7919 17.816)" class="st20 st21">n</text>
			<text transform="matrix(1 0 0 1 365.4609 17.816)" class="st20 st21">g</text>
			<text transform="matrix(1 0 0 1 370.4179 17.816)" class="st20 st21"> </text>
			<text transform="matrix(1 0 0 1 372.5909 17.816)" class="st20 st21">F</text>
			<text transform="matrix(1 0 0 1 377.4519 17.816)" class="st20 st21">r</text>
			<text transform="matrix(1 0 0 1 381.1489 17.816)" class="st20 st21">e</text>
			<text transform="matrix(1 0 0 1 386.4559 17.816)" class="st20 st21">qu</text>
			<text transform="matrix(1 0 0 1 397.7949 17.816)" class="st20 st21">e</text>
			<text transform="matrix(1 0 0 1 403.1039 17.816)" class="st20 st21">n</text>
			<text transform="matrix(1 0 0 1 408.7729 17.816)" class="st20 st21">cy</text>
		</g>
	</g>
	<g>
		<line class="st6" x1="457" y1="40.6" x2="471.4" y2="40.6"/>
	</g>
	<g>
		<polygon class="st7" points="464.1,39.2 465.6,40.6 464.1,42 462.7,40.6 		"/>
		<polygon class="st8" points="464.1,39.2 465.6,40.6 464.1,42 462.7,40.6 		"/>
	</g>
	<g>
		<g>
			<text transform="matrix(1 0 0 1 472.9132 42.2901)" class="st18 st22">N</text>
			<text transform="matrix(1 0 0 1 476.7932 42.2901)" class="st18 st22">o</text>
			<text transform="matrix(1 0 0 1 479.9532 42.2901)" class="st18 st22">r</text>
			<text transform="matrix(1 0 0 1 482.0282 42.2901)" class="st18 st22">m</text>
			<text transform="matrix(1 0 0 1 486.8942 42.2901)" class="st18 st22">a</text>
			<text transform="matrix(1 0 0 1 489.7802 42.2901)" class="st18 st22">l</text>
		</g>
	</g>
	<g>
		<line class="st9" x1="457" y1="62.4" x2="471.4" y2="62.4"/>
	</g>
	<g>
		<polygon class="st10" points="462.6,60.8 465.6,60.8 465.6,63.8 462.6,63.8 		"/>
		<polygon class="st11" points="462.6,60.8 465.6,60.8 465.6,63.8 462.6,63.8 		"/>
	</g>
	<g>
		<g>
			<text transform="matrix(1 0 0 1 472.9132 64.0821)" class="st18 st22">E</text>
			<text transform="matrix(1 0 0 1 475.8862 64.0821)" class="st18 st22">t</text>
			<text transform="matrix(1 0 0 1 477.8722 64.0821)" class="st18 st22">O</text>
			<text transform="matrix(1 0 0 1 481.8402 64.0821)" class="st18 st22">H</text>
			<text transform="matrix(1 0 0 1 485.6202 64.0821)" class="st18 st22"> </text>
			<text transform="matrix(1 0 0 1 486.9742 64.0821)" class="st18 st22">o</text>
			<text transform="matrix(1 0 0 1 490.1342 64.0821)" class="st18 st22">n</text>
			<text transform="matrix(1 0 0 1 493.2882 64.0821)" class="st18 st22">l</text>
			<text transform="matrix(1 0 0 1 494.6432 64.0821)" class="st18 st22">y</text>
		</g>
	</g>
	<g>
		<line class="st12" x1="457" y1="84.2" x2="471.4" y2="84.2"/>
	</g>
	<g>
		<polygon class="st13" points="464.1,82.7 465.6,85.6 462.7,85.6 		"/>
		<polygon class="st14" points="464.1,82.7 465.6,85.6 462.7,85.6 		"/>
	</g>
	<g>
		<g>
			<text transform="matrix(1 0 0 1 472.9132 87.1778)" class="st23 st22">경쟁제품</text>
		</g>
	</g>
	<g>
		<g>
			<text transform="matrix(1 0 0 1 472.9132 95.5625)" class="st18 st22">300</text>
			<text transform="matrix(1 0 0 1 482.0952 95.5625)" class="st18 st22"> </text>
			<text transform="matrix(1 0 0 1 483.3572 95.5625)" class="st18 st22">m</text>
			<text transform="matrix(1 0 0 1 488.2242 95.5625)" class="st18 st22">g</text>
			<text transform="matrix(1 0 0 1 491.1012 95.5625)" class="st18 st22">/</text>
			<text transform="matrix(1 0 0 1 493.4402 95.5625)" class="st18 st22">k</text>
			<text transform="matrix(1 0 0 1 496.1492 95.5625)" class="st18 st22">g</text>
		</g>
	</g>
	<g>
		<line class="st15" x1="457" y1="106" x2="471.4" y2="106"/>
	</g>
	<g>
		<polygon class="st16" points="462.6,104.4 465.6,104.4 465.6,107.4 462.6,107.4 		"/>
		<polygon class="st17" points="462.6,104.4 465.6,104.4 465.6,107.4 462.6,107.4 		"/>
	</g>
	<g>
		<g>
			<text transform="matrix(1 0 0 1 472.9132 108.9766)" class="st23 st22">취트키</text>
		</g>
	</g>
	<g>
		<g>
			<text transform="matrix(1 0 0 1 472.9132 117.3497)" class="st18 st22">208</text>
			<text transform="matrix(1 0 0 1 482.0952 117.3497)" class="st18 st22"> </text>
			<text transform="matrix(1 0 0 1 483.3572 117.3497)" class="st18 st22">m</text>
			<text transform="matrix(1 0 0 1 488.2242 117.3497)" class="st18 st22">g</text>
			<text transform="matrix(1 0 0 1 491.1012 117.3497)" class="st18 st22">/</text>
			<text transform="matrix(1 0 0 1 493.4402 117.3497)" class="st18 st22">k</text>
			<text transform="matrix(1 0 0 1 496.1492 117.3497)" class="st18 st22">g</text>
		</g>
	</g>
	<g>
		<path class="st4" d="M42.2,85.8"/>
	</g>
	<g>
		<line class="st4" x1="42.2" y1="130.9" x2="42.2" y2="25.5"/>
	</g>
	<g>
		<path class="st4" d="M39.8,130.9h2.3 M39.8,115.9h2.3 M39.8,100.8h2.3 M39.8,85.8h2.3 M39.8,70.7h2.3 M39.8,55.6h2.3 M39.8,40.6
			h2.3 M39.8,25.5h2.3"/>
	</g>
	<g>
		<line class="st4" x1="42.2" y1="130.9" x2="198.5" y2="130.9"/>
	</g>
	<g>
		<path class="st4" d="M42.2,130.9v2.3 M61.7,130.9v2.3 M81.3,130.9v2.3 M100.8,130.9v2.3 M120.3,130.9v2.3 M139.9,130.9v2.3
			 M159.4,130.9v2.3 M178.9,130.9v2.3 M198.5,130.9v2.3"/>
	</g>
	<g>
		<path d="M42.2,54.1v10.8 M42.2,54.1V43.3 M40.5,64.9h3.4 M40.5,43.3h3.4"/>
		<path class="st5" d="M42.2,54.1v10.8 M42.2,54.1V43.3 M40.5,64.9h3.4 M40.5,43.3h3.4"/>
	</g>
	<g>
		<path d="M52,59.9v9.9 M52,59.9v-10 M50.3,69.8h3.3 M50.3,49.9h3.3"/>
		<path class="st5" d="M52,59.9v9.9 M52,59.9v-10 M50.3,69.8h3.3 M50.3,49.9h3.3"/>
	</g>
	<g>
		<path d="M61.7,61.3v9.4 M61.7,61.3V52 M60,70.7h3.4 M60,52h3.4"/>
		<path class="st5" d="M61.7,61.3v9.4 M61.7,61.3V52 M60,70.7h3.4 M60,52h3.4"/>
	</g>
	<g>
		<path d="M100.8,51.7v7.6 M100.8,51.7v-7.5 M99.1,59.3h3.3 M99.1,44.2h3.3"/>
		<path class="st5" d="M100.8,51.7v7.6 M100.8,51.7v-7.5 M99.1,59.3h3.3 M99.1,44.2h3.3"/>
	</g>
	<g>
		<path d="M139.9,53.8v7.2 M139.9,53.8v-7.2 M138.2,61.1h3.4 M138.2,46.6h3.4"/>
		<path class="st5" d="M139.9,53.8v7.2 M139.9,53.8v-7.2 M138.2,61.1h3.4 M138.2,46.6h3.4"/>
	</g>
	<g>
		<path d="M198.5,50.2v9.6 M198.5,50.2v-9.6 M196.7,59.9h3.4 M196.7,40.6h3.4"/>
		<path class="st5" d="M198.5,50.2v9.6 M198.5,50.2v-9.6 M196.7,59.9h3.4 M196.7,40.6h3.4"/>
	</g>
	<g>
		<path d="M42.2,56.3v12.3 M42.2,56.3V43.9 M40.5,68.6h3.4 M40.5,43.9h3.4"/>
		<path class="st5" d="M42.2,56.3v12.3 M42.2,56.3V43.9 M40.5,68.6h3.4 M40.5,43.9h3.4"/>
	</g>
	<g>
		<path d="M52,106.5v5.4 M52,106.5v-5.4 M50.3,111.9h3.3 M50.3,101.1h3.3"/>
		<path class="st5" d="M52,106.5v5.4 M52,106.5v-5.4 M50.3,111.9h3.3 M50.3,101.1h3.3"/>
	</g>
	<g>
		<path d="M61.7,109.2v5.1 M61.7,109.2v-5 M60,114.3h3.4 M60,104.1h3.4"/>
		<path class="st5" d="M61.7,109.2v5.1 M61.7,109.2v-5 M60,114.3h3.4 M60,104.1h3.4"/>
	</g>
	<g>
		<path d="M100.8,105.3v5.4 M100.8,105.3v-5.4 M99.1,110.7h3.3 M99.1,99.9h3.3"/>
		<path class="st5" d="M100.8,105.3v5.4 M100.8,105.3v-5.4 M99.1,110.7h3.3 M99.1,99.9h3.3"/>
	</g>
	<g>
		<path d="M139.9,103.8v5.8 M139.9,103.8v-5.7 M138.2,109.5h3.4 M138.2,98.1h3.4"/>
		<path class="st5" d="M139.9,103.8v5.8 M139.9,103.8v-5.7 M138.2,109.5h3.4 M138.2,98.1h3.4"/>
	</g>
	<g>
		<path d="M198.5,97.2v8.4 M198.5,97.2v-8.5 M196.7,105.6h3.4 M196.7,88.7h3.4"/>
		<path class="st5" d="M198.5,97.2v8.4 M198.5,97.2v-8.5 M196.7,105.6h3.4 M196.7,88.7h3.4"/>
	</g>
	<g>
		<path d="M42.2,52.3v8.5 M42.2,52.3v-8.4 M40.5,60.8h3.4 M40.5,43.9h3.4"/>
		<path class="st5" d="M42.2,52.3v8.5 M42.2,52.3v-8.4 M40.5,60.8h3.4 M40.5,43.9h3.4"/>
	</g>
	<g>
		<path d="M52,102.9v6 M52,102.9v-6 M50.3,108.9h3.3 M50.3,96.8h3.3"/>
		<path class="st5" d="M52,102.9v6 M52,102.9v-6 M50.3,108.9h3.3 M50.3,96.8h3.3"/>
	</g>
	<g>
		<path d="M61.7,99.9v4.5 M61.7,99.9v-4.5 M60,104.4h3.4 M60,95.4h3.4"/>
		<path class="st5" d="M61.7,99.9v4.5 M61.7,99.9v-4.5 M60,104.4h3.4 M60,95.4h3.4"/>
	</g>
	<g>
		<path d="M100.8,95v6.4 M100.8,95v-6.3 M99.1,101.4h3.3 M99.1,88.7h3.3"/>
		<path class="st5" d="M100.8,95v6.4 M100.8,95v-6.3 M99.1,101.4h3.3 M99.1,88.7h3.3"/>
	</g>
	<g>
		<path d="M139.9,94.1v6.7 M139.9,94.1v-6.6 M138.2,100.8h3.4 M138.2,87.6h3.4"/>
		<path class="st5" d="M139.9,94.1v6.7 M139.9,94.1v-6.6 M138.2,100.8h3.4 M138.2,87.6h3.4"/>
	</g>
	<g>
		<path d="M198.5,87.8v6.7 M198.5,87.8v-6.6 M196.7,94.5h3.4 M196.7,81.2h3.4"/>
		<path class="st5" d="M198.5,87.8v6.7 M198.5,87.8v-6.6 M196.7,94.5h3.4 M196.7,81.2h3.4"/>
	</g>
	<g>
		<path d="M42.2,53.8v9.6 M42.2,53.8v-9.6 M40.5,63.5h3.4 M40.5,44.2h3.4"/>
		<path class="st5" d="M42.2,53.8v9.6 M42.2,53.8v-9.6 M40.5,63.5h3.4 M40.5,44.2h3.4"/>
	</g>
	<g>
		<path d="M52,100.2v5.4 M52,100.2v-5.4 M50.3,105.6h3.3 M50.3,94.8h3.3"/>
		<path class="st5" d="M52,100.2v5.4 M52,100.2v-5.4 M50.3,105.6h3.3 M50.3,94.8h3.3"/>
	</g>
	<g>
		<path d="M61.7,92.3v6.9 M61.7,92.3v-6.8 M60,99.3h3.4 M60,85.5h3.4"/>
		<path class="st5" d="M61.7,92.3v6.9 M61.7,92.3v-6.8 M60,99.3h3.4 M60,85.5h3.4"/>
	</g>
	<g>
		<path d="M100.8,91.4v6.7 M100.8,91.4v-6.6 M99.1,98.1h3.3 M99.1,84.8h3.3"/>
		<path class="st5" d="M100.8,91.4v6.7 M100.8,91.4v-6.6 M99.1,98.1h3.3 M99.1,84.8h3.3"/>
	</g>
	<g>
		<path d="M139.9,80.9v7.8 M139.9,80.9v-7.8 M138.2,88.7h3.4 M138.2,73.1h3.4"/>
		<path class="st5" d="M139.9,80.9v7.8 M139.9,80.9v-7.8 M138.2,88.7h3.4 M138.2,73.1h3.4"/>
	</g>
	<g>
		<path d="M198.5,75.2v9.4 M198.5,75.2v-9.4 M196.7,84.6h3.4 M196.7,65.8h3.4"/>
		<path class="st5" d="M198.5,75.2v9.4 M198.5,75.2v-9.4 M196.7,84.6h3.4 M196.7,65.8h3.4"/>
	</g>
	<g>
		<polyline class="st6" points="42.2,54.2 51.9,59.8 61.7,61.4 100.8,51.7 139.8,53.8 198.5,50.2 		"/>
	</g>
	<g>
		<polygon class="st7" points="42.2,52.2 44.1,54.1 42.2,56 40.3,54.1 		"/>
		<polygon class="st8" points="42.2,52.2 44.1,54.1 42.2,56 40.3,54.1 		"/>
		<polygon class="st7" points="52,58 53.9,59.9 52,61.8 50.1,59.9 		"/>
		<polygon class="st8" points="52,58 53.9,59.9 52,61.8 50.1,59.9 		"/>
		<polygon class="st7" points="61.7,59.4 63.6,61.3 61.7,63.2 59.8,61.3 		"/>
		<polygon class="st8" points="61.7,59.4 63.6,61.3 61.7,63.2 59.8,61.3 		"/>
		<polygon class="st7" points="100.7,49.8 102.6,51.7 100.7,53.6 98.9,51.7 		"/>
		<polygon class="st8" points="100.7,49.8 102.6,51.7 100.7,53.6 98.9,51.7 		"/>
		<polygon class="st7" points="139.9,51.9 141.8,53.8 139.9,55.7 138,53.8 		"/>
		<polygon class="st8" points="139.9,51.9 141.8,53.8 139.9,55.7 138,53.8 		"/>
		<polygon class="st7" points="198.4,48.3 200.3,50.2 198.4,52.1 196.6,50.2 		"/>
		<polygon class="st8" points="198.4,48.3 200.3,50.2 198.4,52.1 196.6,50.2 		"/>
	</g>
	<g>
		<polyline class="st9" points="42.2,56.2 51.9,106.5 61.7,109.2 100.8,105.3 139.8,103.8 198.5,97.2 		"/>
	</g>
	<g>
		<polygon class="st10" points="40.3,54.4 44.1,54.4 44.1,58.1 40.3,58.1 		"/>
		<polygon class="st11" points="40.3,54.4 44.1,54.4 44.1,58.1 40.3,58.1 		"/>
		<polygon class="st10" points="50.1,104.6 53.9,104.6 53.9,108.3 50.1,108.3 		"/>
		<polygon class="st11" points="50.1,104.6 53.9,104.6 53.9,108.3 50.1,108.3 		"/>
		<polygon class="st10" points="59.8,107.3 63.6,107.3 63.6,111.1 59.8,111.1 		"/>
		<polygon class="st11" points="59.8,107.3 63.6,107.3 63.6,111.1 59.8,111.1 		"/>
		<polygon class="st10" points="98.9,103.4 102.6,103.4 102.6,107.2 98.9,107.2 		"/>
		<polygon class="st11" points="98.9,103.4 102.6,103.4 102.6,107.2 98.9,107.2 		"/>
		<polygon class="st10" points="138,101.9 141.8,101.9 141.8,105.6 138,105.6 		"/>
		<polygon class="st11" points="138,101.9 141.8,101.9 141.8,105.6 138,105.6 		"/>
		<polygon class="st10" points="196.6,95.3 200.3,95.3 200.3,99.1 196.6,99.1 		"/>
		<polygon class="st11" points="196.6,95.3 200.3,95.3 200.3,99.1 196.6,99.1 		"/>
	</g>
	<g>
		<polyline class="st12" points="42.2,52.4 51.9,102.9 61.7,99.9 100.8,95.1 139.8,94.2 198.5,87.9 		"/>
	</g>
	<g>
		<polygon class="st13" points="42.2,50.4 44.1,54.2 40.3,54.2 		"/>
		<polygon class="st14" points="42.2,50.4 44.1,54.2 40.3,54.2 		"/>
		<polygon class="st13" points="52,101 53.9,104.7 50.1,104.7 		"/>
		<polygon class="st14" points="52,101 53.9,104.7 50.1,104.7 		"/>
		<polygon class="st13" points="61.7,98 63.6,101.8 59.8,101.8 		"/>
		<polygon class="st14" points="61.7,98 63.6,101.8 59.8,101.8 		"/>
		<polygon class="st13" points="100.7,93.1 102.6,96.9 98.9,96.9 		"/>
		<polygon class="st14" points="100.7,93.1 102.6,96.9 98.9,96.9 		"/>
		<polygon class="st13" points="139.9,92.2 141.8,96 138,96 		"/>
		<polygon class="st14" points="139.9,92.2 141.8,96 138,96 		"/>
		<polygon class="st13" points="198.4,85.9 200.3,89.7 196.6,89.7 		"/>
		<polygon class="st14" points="198.4,85.9 200.3,89.7 196.6,89.7 		"/>
	</g>
	<g>
		<polyline class="st15" points="42.2,53.8 51.9,100.2 61.7,92.4 100.8,91.5 139.8,80.9 198.5,75.2 		"/>
	</g>
	<g>
		<polygon class="st16" points="40.3,51.9 44.1,51.9 44.1,55.7 40.3,55.7 		"/>
		<polygon class="st17" points="40.3,51.9 44.1,51.9 44.1,55.7 40.3,55.7 		"/>
		<polygon class="st16" points="50.1,98.3 53.9,98.3 53.9,102 50.1,102 		"/>
		<polygon class="st17" points="50.1,98.3 53.9,98.3 53.9,102 50.1,102 		"/>
		<polygon class="st16" points="59.8,90.4 63.6,90.4 63.6,94.2 59.8,94.2 		"/>
		<polygon class="st17" points="59.8,90.4 63.6,90.4 63.6,94.2 59.8,94.2 		"/>
		<polygon class="st16" points="98.9,89.5 102.6,89.5 102.6,93.3 98.9,93.3 		"/>
		<polygon class="st17" points="98.9,89.5 102.6,89.5 102.6,93.3 98.9,93.3 		"/>
		<polygon class="st16" points="138,79 141.8,79 141.8,82.8 138,82.8 		"/>
		<polygon class="st17" points="138,79 141.8,79 141.8,82.8 138,82.8 		"/>
		<polygon class="st16" points="196.6,73.3 200.3,73.3 200.3,77.1 196.6,77.1 		"/>
		<polygon class="st17" points="196.6,73.3 200.3,73.3 200.3,77.1 196.6,77.1 		"/>
	</g>
	<g>
		<g>
			<text transform="matrix(1 0 0 1 27.6037 133.0098)" class="st18 st19">50</text>
		</g>
	</g>
	<g>
		<g>
			<text transform="matrix(1 0 0 1 23.7902 117.959)" class="st18 st19">1</text>
			<text transform="matrix(1 0 0 1 27.5822 117.959)" class="st18 st19">0</text>
			<text transform="matrix(1 0 0 1 31.4552 117.959)" class="st18 st19">0</text>
		</g>
	</g>
	<g>
		<g>
			<text transform="matrix(1 0 0 1 23.7902 102.9092)" class="st18 st19">1</text>
			<text transform="matrix(1 0 0 1 27.5822 102.9092)" class="st18 st19">5</text>
			<text transform="matrix(1 0 0 1 31.4552 102.9092)" class="st18 st19">0</text>
		</g>
	</g>
	<g>
		<g>
			<text transform="matrix(1 0 0 1 23.7902 87.8584)" class="st18 st19">2</text>
			<text transform="matrix(1 0 0 1 27.5822 87.8584)" class="st18 st19">0</text>
			<text transform="matrix(1 0 0 1 31.4552 87.8584)" class="st18 st19">0</text>
		</g>
	</g>
	<g>
		<g>
			<text transform="matrix(1 0 0 1 23.7902 72.8086)" class="st18 st19">2</text>
			<text transform="matrix(1 0 0 1 27.5822 72.8086)" class="st18 st19">5</text>
			<text transform="matrix(1 0 0 1 31.4552 72.8086)" class="st18 st19">0</text>
		</g>
	</g>
	<g>
		<g>
			<text transform="matrix(1 0 0 1 23.7902 57.7574)" class="st18 st19">3</text>
			<text transform="matrix(1 0 0 1 27.5822 57.7574)" class="st18 st19">0</text>
			<text transform="matrix(1 0 0 1 31.4552 57.7574)" class="st18 st19">0</text>
		</g>
	</g>
	<g>
		<g>
			<text transform="matrix(1 0 0 1 23.7902 42.7066)" class="st18 st19">3</text>
			<text transform="matrix(1 0 0 1 27.5822 42.7066)" class="st18 st19">5</text>
			<text transform="matrix(1 0 0 1 31.4552 42.7066)" class="st18 st19">0</text>
		</g>
	</g>
	<g>
		<g>
			<text transform="matrix(1 0 0 1 23.7902 27.6563)" class="st18 st19">4</text>
			<text transform="matrix(1 0 0 1 27.5822 27.6563)" class="st18 st19">0</text>
			<text transform="matrix(1 0 0 1 31.4552 27.6563)" class="st18 st19">0</text>
		</g>
	</g>
	<g>
		<g>
			<text transform="matrix(1 0 0 1 40.2775 142.7735)" class="st18 st19">0</text>
		</g>
	</g>
	<g>
		<g>
			<text transform="matrix(1 0 0 1 59.8175 142.7735)" class="st18 st19">1</text>
		</g>
	</g>
	<g>
		<g>
			<text transform="matrix(1 0 0 1 79.3507 142.7735)" class="st18 st19">2</text>
		</g>
	</g>
	<g>
		<g>
			<text transform="matrix(1 0 0 1 98.8839 142.7735)" class="st18 st19">3</text>
		</g>
	</g>
	<g>
		<g>
			<text transform="matrix(1 0 0 1 118.4181 142.7735)" class="st18 st19">4</text>
		</g>
	</g>
	<g>
		<g>
			<text transform="matrix(1 0 0 1 137.9513 142.7735)" class="st18 st19">5</text>
		</g>
	</g>
	<g>
		<g>
			<text transform="matrix(1 0 0 1 157.4904 142.7735)" class="st18 st19">6</text>
		</g>
	</g>
	<g>
		<g>
			<text transform="matrix(1 0 0 1 177.0246 142.7735)" class="st18 st19">7</text>
		</g>
	</g>
	<g>
		<g>
			<text transform="matrix(1 0 0 1 196.5578 142.7735)" class="st18 st19">8</text>
		</g>
	</g>
	<g>
		<g>
			<text transform="matrix(1.748456e-07 -1 1 1.748456e-07 17.1227 105.2751)" class="st18 st19">R</text>
			<text transform="matrix(1.748456e-07 -1 1 1.748456e-07 17.1227 101.2126)" class="st18 st19">unn</text>
			<text transform="matrix(1.748456e-07 -1 1 1.748456e-07 17.1227 89.3327)" class="st18 st19">i</text>
			<text transform="matrix(1.748456e-07 -1 1 1.748456e-07 17.1227 87.6159)" class="st18 st19">n</text>
			<text transform="matrix(1.748456e-07 -1 1 1.748456e-07 17.1227 83.656)" class="st18 st19">g</text>
			<text transform="matrix(1.748456e-07 -1 1 1.748456e-07 17.1227 80.1345)" class="st18 st19"> </text>
			<text transform="matrix(1.748456e-07 -1 1 1.748456e-07 17.1227 78.4275)" class="st18 st19">T</text>
			<text transform="matrix(1.748456e-07 -1 1 1.748456e-07 17.1227 74.821)" class="st18 st19">i</text>
			<text transform="matrix(1.748456e-07 -1 1 1.748456e-07 17.1227 73.1042)" class="st18 st19">me</text>
			<text transform="matrix(1.748456e-07 -1 1 1.748456e-07 17.1227 63.4519)" class="st18 st19"> </text>
			<text transform="matrix(1.748456e-07 -1 1 1.748456e-07 17.1227 61.655)" class="st18 st19">(</text>
			<text transform="matrix(1.748456e-07 -1 1 1.748456e-07 17.1227 59.4021)" class="st18 st19">s</text>
			<text transform="matrix(1.748456e-07 -1 1 1.748456e-07 17.1227 56.5144)" class="st18 st19">e</text>
			<text transform="matrix(1.748456e-07 -1 1 1.748456e-07 17.1227 52.8142)" class="st18 st19">c</text>
			<text transform="matrix(1.748456e-07 -1 1 1.748456e-07 17.1227 49.6579)" class="st18 st19">)</text>
		</g>
	</g>
	<g>
		<g>
			<text transform="matrix(1 0 0 1 110.4669 152.5372)" class="st18 st19">T</text>
			<text transform="matrix(1 0 0 1 114.0749 152.5372)" class="st18 st19">i</text>
			<text transform="matrix(1 0 0 1 115.7919 152.5372)" class="st18 st19">me</text>
			<text transform="matrix(1 0 0 1 125.4449 152.5372)" class="st18 st19"> </text>
			<text transform="matrix(1 0 0 1 127.3299 152.5372)" class="st18 st19">(</text>
			<text transform="matrix(1 0 0 1 129.5829 152.5372)" class="st18 st19">h</text>
			<text transform="matrix(1 0 0 1 133.5439 152.5372)" class="st18 st19">)</text>
		</g>
	</g>
	<g>
		<g>
			<text transform="matrix(1 0 0 1 100.6329 17.9336)" class="st20 st21">Runn</text>
			<text transform="matrix(1 0 0 1 123.5879 17.9336)" class="st20 st21">i</text>
			<text transform="matrix(1 0 0 1 126.1979 17.9336)" class="st20 st21">n</text>
			<text transform="matrix(1 0 0 1 131.8679 17.9336)" class="st20 st21">g</text>
			<text transform="matrix(1 0 0 1 136.8249 17.9336)" class="st20 st21"> </text>
			<text transform="matrix(1 0 0 1 139.0829 17.9336)" class="st20 st21">T</text>
			<text transform="matrix(1 0 0 1 144.3029 17.9336)" class="st20 st21">i</text>
			<text transform="matrix(1 0 0 1 146.9149 17.9336)" class="st20 st21">m</text>
			<text transform="matrix(1 0 0 1 155.4819 17.9336)" class="st20 st21">e</text>
		</g>
	</g>
	<g>
		<line class="st6" x1="206.1" y1="41.3" x2="220.5" y2="41.3"/>
	</g>
	<g>
		<polygon class="st7" points="213.2,39.8 214.7,41.2 213.2,42.7 211.8,41.2 		"/>
		<polygon class="st8" points="213.2,39.8 214.7,41.2 213.2,42.7 211.8,41.2 		"/>
	</g>
	<g>
		<g>
			<text transform="matrix(1 0 0 1 221.9767 42.9649)" class="st18 st22">N</text>
			<text transform="matrix(1 0 0 1 225.8567 42.9649)" class="st18 st22">o</text>
			<text transform="matrix(1 0 0 1 229.0167 42.9649)" class="st18 st22">r</text>
			<text transform="matrix(1 0 0 1 231.0917 42.9649)" class="st18 st22">m</text>
			<text transform="matrix(1 0 0 1 235.9577 42.9649)" class="st18 st22">a</text>
			<text transform="matrix(1 0 0 1 238.8447 42.9649)" class="st18 st22">l</text>
		</g>
	</g>
	<g>
		<line class="st9" x1="206.1" y1="63.3" x2="220.5" y2="63.3"/>
	</g>
	<g>
		<polygon class="st10" points="211.7,61.7 214.7,61.7 214.7,64.7 211.7,64.7 		"/>
		<polygon class="st11" points="211.7,61.7 214.7,61.7 214.7,64.7 211.7,64.7 		"/>
	</g>
	<g>
		<g>
			<text transform="matrix(1 0 0 1 221.9767 64.9629)" class="st18 st22">E</text>
			<text transform="matrix(1 0 0 1 224.9497 64.9629)" class="st18 st22">t</text>
			<text transform="matrix(1 0 0 1 226.9357 64.9629)" class="st18 st22">O</text>
			<text transform="matrix(1 0 0 1 230.9037 64.9629)" class="st18 st22">H</text>
			<text transform="matrix(1 0 0 1 234.6847 64.9629)" class="st18 st22"> </text>
			<text transform="matrix(1 0 0 1 236.0377 64.9629)" class="st18 st22">o</text>
			<text transform="matrix(1 0 0 1 239.1977 64.9629)" class="st18 st22">n</text>
			<text transform="matrix(1 0 0 1 242.3517 64.9629)" class="st18 st22">l</text>
			<text transform="matrix(1 0 0 1 243.7077 64.9629)" class="st18 st22">y</text>
		</g>
	</g>
	<g>
		<line class="st12" x1="206.1" y1="85.3" x2="220.5" y2="85.3"/>
	</g>
	<g>
		<polygon class="st13" points="213.2,83.8 214.7,86.7 211.8,86.7 		"/>
		<polygon class="st14" points="213.2,83.8 214.7,86.7 211.8,86.7 		"/>
	</g>
	<g>
		<g>
			<text transform="matrix(1 0 0 1 221.9767 88.2637)" class="st23 st22">경쟁제품</text>
		</g>
	</g>
	<g>
		<g>
			<text transform="matrix(1 0 0 1 221.9767 96.6485)" class="st18 st22">300</text>
			<text transform="matrix(1 0 0 1 231.1587 96.6485)" class="st18 st22"> </text>
			<text transform="matrix(1 0 0 1 232.4207 96.6485)" class="st18 st22">m</text>
			<text transform="matrix(1 0 0 1 237.2867 96.6485)" class="st18 st22">g</text>
			<text transform="matrix(1 0 0 1 240.1657 96.6485)" class="st18 st22">/</text>
			<text transform="matrix(1 0 0 1 242.5037 96.6485)" class="st18 st22">k</text>
			<text transform="matrix(1 0 0 1 245.2127 96.6485)" class="st18 st22">g</text>
		</g>
	</g>
	<g>
		<line class="st15" x1="206.1" y1="107.2" x2="220.5" y2="107.2"/>
	</g>
	<g>
		<polygon class="st16" points="211.7,105.7 214.7,105.7 214.7,108.6 211.7,108.6 		"/>
		<polygon class="st17" points="211.7,105.7 214.7,105.7 214.7,108.6 211.7,108.6 		"/>
	</g>
	<g>
		<g>
			<text transform="matrix(1 0 0 1 221.9767 110.2618)" class="st23 st22">취트키</text>
		</g>
	</g>
	<g>
		<g>
			<text transform="matrix(1 0 0 1 221.9767 118.6407)" class="st18 st22">208</text>
			<text transform="matrix(1 0 0 1 231.1587 118.6407)" class="st18 st22"> </text>
			<text transform="matrix(1 0 0 1 232.4207 118.6407)" class="st18 st22">m</text>
			<text transform="matrix(1 0 0 1 237.2867 118.6407)" class="st18 st22">g</text>
			<text transform="matrix(1 0 0 1 240.1657 118.6407)" class="st18 st22">/</text>
			<text transform="matrix(1 0 0 1 242.5037 118.6407)" class="st18 st22">k</text>
			<text transform="matrix(1 0 0 1 245.2127 118.6407)" class="st18 st22">g</text>
		</g>
	</g>
</g>
</svg>
