<?xml version="1.0" encoding="utf-8"?>
<!-- Generator: Adobe Illustrator 28.0.0, SVG Export Plug-In . SVG Version: 6.00 Build 0)  -->
<svg version="1.1" id="레이어_1" xmlns="http://www.w3.org/2000/svg" xmlns:xlink="http://www.w3.org/1999/xlink" x="0px"
	 y="0px" viewBox="0 0 595.3 227.1" style="enable-background:new 0 0 595.3 227.1;" xml:space="preserve">
<style type="text/css">
	.st0{fill:#FFFFFF;}
	.st1{fill:none;stroke:#898989;stroke-width:0.48;stroke-linejoin:round;stroke-miterlimit:10;}
	
		.st2{clip-path:url(#SVGID_00000065054436970468662130000012630948230399454393_);fill:none;stroke:#7F7F7F;stroke-width:1.56;stroke-linecap:round;stroke-linejoin:round;stroke-miterlimit:10;}
	.st3{fill:#7F7F7F;}
	.st4{fill:none;stroke:#7F7F7F;stroke-width:0.48;stroke-linejoin:round;stroke-miterlimit:10;}
	
		.st5{clip-path:url(#SVGID_00000162342178995868260510000001318296011787559871_);fill:none;stroke:#0E0E0E;stroke-width:1.56;stroke-linecap:round;stroke-linejoin:round;stroke-miterlimit:10;}
	.st6{fill-rule:evenodd;clip-rule:evenodd;fill:#0E0E0E;}
	.st7{fill:none;stroke:#0E0E0E;stroke-width:0.48;stroke-linejoin:round;stroke-miterlimit:10;}
	
		.st8{clip-path:url(#SVGID_00000078019264851271293490000002867572211893344403_);fill:none;stroke:#90AAD8;stroke-width:1.56;stroke-linecap:round;stroke-linejoin:round;stroke-miterlimit:10;}
	.st9{fill:#90AAD8;}
	.st10{fill:none;stroke:#90AAD8;stroke-width:0.48;stroke-linejoin:round;stroke-miterlimit:10;}
	
		.st11{clip-path:url(#SVGID_00000165198944931186189090000012570043665391631269_);fill:none;stroke:#7B5CA3;stroke-width:1.56;stroke-linecap:round;stroke-linejoin:round;stroke-miterlimit:10;}
	.st12{fill-rule:evenodd;clip-rule:evenodd;fill:#7B5CA3;}
	.st13{fill:none;stroke:#7B5CA3;stroke-width:0.48;stroke-linejoin:round;stroke-miterlimit:10;}
	.st14{fill:#7B5CA3;}
	.st15{font-family:'Calibri';}
	.st16{font-size:9.96px;}
	.st17{fill:none;stroke:#7F7F7F;stroke-width:1.56;stroke-linecap:round;stroke-linejoin:round;stroke-miterlimit:10;}
	.st18{font-size:8.04px;}
	.st19{fill:none;stroke:#0E0E0E;stroke-width:1.56;stroke-linecap:round;stroke-linejoin:round;stroke-miterlimit:10;}
	.st20{fill:none;stroke:#90AAD8;stroke-width:1.56;stroke-linecap:round;stroke-linejoin:round;stroke-miterlimit:10;}
	.st21{fill:none;stroke:#7B5CA3;stroke-width:1.56;stroke-linecap:round;stroke-linejoin:round;stroke-miterlimit:10;}
	
		.st22{clip-path:url(#SVGID_00000174575307122175581500000000599991364420237711_);fill-rule:evenodd;clip-rule:evenodd;fill:#0E0E0E;}
	
		.st23{clip-path:url(#SVGID_00000038413340517921971650000016578037788763276179_);fill:none;stroke:#000000;stroke-width:0.72;stroke-linejoin:round;stroke-miterlimit:10;}
	
		.st24{clip-path:url(#SVGID_00000181777202338167610190000016362212173798896039_);fill-rule:evenodd;clip-rule:evenodd;fill:#90AAD8;}
	
		.st25{clip-path:url(#SVGID_00000129905149667230478160000008878611718655131302_);fill:none;stroke:#000000;stroke-width:0.72;stroke-linejoin:round;stroke-miterlimit:10;}
	
		.st26{clip-path:url(#SVGID_00000113338777613118411950000001385813754602593696_);fill-rule:evenodd;clip-rule:evenodd;fill:#7B5CA3;}
	
		.st27{clip-path:url(#SVGID_00000098905050832851025240000003652511463207831974_);fill:none;stroke:#000000;stroke-width:0.72;stroke-linejoin:round;stroke-miterlimit:10;}
	.st28{fill:none;}
	.st29{clip-path:url(#SVGID_00000080166834701396646750000013926321750344881049_);}
	.st30{clip-path:url(#SVGID_00000129915436235029058410000016147965193015346337_);}
	.st31{clip-path:url(#SVGID_00000146498348824531534710000004564905157550254514_);}
	.st32{clip-path:url(#SVGID_00000163050574439261255160000017380709612966300293_);}
	.st33{font-family:'AppleSDGothicNeoEB00';}
	.st34{font-size:12px;}
	.st35{fill:none;stroke:#ED1C24;stroke-width:0.96;stroke-miterlimit:8;stroke-dasharray:36576,12192;}
	.st36{font-size:7.742px;}
	.st37{font-size:9px;}
</style>
<rect class="st0" width="595.3" height="227.1"/>
<g>
	<path class="st1" d="M46.5,155.7h213.7 M46.5,135.3h213.7 M46.5,114.9h213.7 M46.5,94.5h213.7 M46.5,74.2h213.7 M46.5,53.8h213.7
		 M46.5,33.4h213.7"/>
</g>
<g>
	<line class="st1" x1="46.5" y1="176" x2="46.5" y2="33.4"/>
</g>
<g>
	<path class="st1" d="M43.2,176h3.2 M43.2,155.7h3.2 M43.2,135.3h3.2 M43.2,114.9h3.2 M43.2,94.5h3.2 M43.2,74.2h3.2 M43.2,53.8h3.2
		 M43.2,33.4h3.2"/>
</g>
<g>
	<line class="st1" x1="46.5" y1="176" x2="260.2" y2="176"/>
</g>
<g>
	<path class="st1" d="M46.5,176v3.2 M73.1,176v3.2 M99.9,176v3.2 M126.6,176v3.2 M153.3,176v3.2 M180,176v3.2 M206.8,176v3.2
		 M233.4,176v3.2 M260.2,176v3.2"/>
</g>
<g>
	<g>
		<defs>
			<rect id="SVGID_1_" x="46.3" y="33.4" width="214.6" height="143.3"/>
		</defs>
		<clipPath id="SVGID_00000058582282196969441530000008280827057034944958_">
			<use xlink:href="#SVGID_1_"  style="overflow:visible;"/>
		</clipPath>
		
			<polyline style="clip-path:url(#SVGID_00000058582282196969441530000008280827057034944958_);fill:none;stroke:#7F7F7F;stroke-width:1.56;stroke-linecap:round;stroke-linejoin:round;stroke-miterlimit:10;" points="
			46.4,176 59.7,176 73.2,176 126.6,176 180,176 260.1,176 		"/>
	</g>
</g>
<g>
	<polygon class="st3" points="46.5,173.5 49,176 46.5,178.5 43.9,176 	"/>
	<polygon class="st4" points="46.5,173.5 49,176 46.5,178.5 43.9,176 	"/>
	<polygon class="st3" points="59.8,173.5 62.3,176 59.8,178.5 57.3,176 	"/>
	<polygon class="st4" points="59.8,173.5 62.3,176 59.8,178.5 57.3,176 	"/>
	<polygon class="st3" points="73.1,173.5 75.6,176 73.1,178.5 70.6,176 	"/>
	<polygon class="st4" points="73.1,173.5 75.6,176 73.1,178.5 70.6,176 	"/>
	<polygon class="st3" points="126.6,173.5 129.1,176 126.6,178.5 124.1,176 	"/>
	<polygon class="st4" points="126.6,173.5 129.1,176 126.6,178.5 124.1,176 	"/>
	<polygon class="st3" points="180,173.5 182.5,176 180,178.5 177.5,176 	"/>
	<polygon class="st4" points="180,173.5 182.5,176 180,178.5 177.5,176 	"/>
	<polygon class="st3" points="260.2,173.5 262.7,176 260.2,178.5 257.7,176 	"/>
	<polygon class="st4" points="260.2,173.5 262.7,176 260.2,178.5 257.7,176 	"/>
</g>
<g>
	<g>
		<defs>
			<rect id="SVGID_00000102544267822571299040000001288752591762572472_" x="46.3" y="33.4" width="214.6" height="143.3"/>
		</defs>
		<clipPath id="SVGID_00000070087072349047019950000001459734644748192643_">
			<use xlink:href="#SVGID_00000102544267822571299040000001288752591762572472_"  style="overflow:visible;"/>
		</clipPath>
		
			<polyline style="clip-path:url(#SVGID_00000070087072349047019950000001459734644748192643_);fill:none;stroke:#0E0E0E;stroke-width:1.56;stroke-linecap:round;stroke-linejoin:round;stroke-miterlimit:10;" points="
			46.4,170.8 59.7,117.7 73.2,80.3 126.6,57.1 180,95.4 260.1,157.3 		"/>
	</g>
</g>
<g>
	<polygon class="st6" points="43.9,168.2 49,168.2 49,173.2 43.9,173.2 	"/>
	<polygon class="st7" points="43.9,168.2 49,168.2 49,173.2 43.9,173.2 	"/>
	<polygon class="st6" points="57.3,115.3 62.3,115.3 62.3,120.3 57.3,120.3 	"/>
	<polygon class="st7" points="57.3,115.3 62.3,115.3 62.3,120.3 57.3,120.3 	"/>
	<polygon class="st6" points="70.6,77.8 75.6,77.8 75.6,82.9 70.6,82.9 	"/>
	<polygon class="st7" points="70.6,77.8 75.6,77.8 75.6,82.9 70.6,82.9 	"/>
	<polygon class="st6" points="124.1,54.6 129.1,54.6 129.1,59.6 124.1,59.6 	"/>
	<polygon class="st7" points="124.1,54.6 129.1,54.6 129.1,59.6 124.1,59.6 	"/>
	<polygon class="st6" points="177.5,92.8 182.5,92.8 182.5,97.9 177.5,97.9 	"/>
	<polygon class="st7" points="177.5,92.8 182.5,92.8 182.5,97.9 177.5,97.9 	"/>
	<polygon class="st6" points="257.7,154.8 262.7,154.8 262.7,159.8 257.7,159.8 	"/>
	<polygon class="st7" points="257.7,154.8 262.7,154.8 262.7,159.8 257.7,159.8 	"/>
</g>
<g>
	<g>
		<defs>
			<rect id="SVGID_00000022548825392027929880000012016791285005581714_" x="46.3" y="33.4" width="214.6" height="143.3"/>
		</defs>
		<clipPath id="SVGID_00000014604460650803380990000014276616657730955962_">
			<use xlink:href="#SVGID_00000022548825392027929880000012016791285005581714_"  style="overflow:visible;"/>
		</clipPath>
		
			<polyline style="clip-path:url(#SVGID_00000014604460650803380990000014276616657730955962_);fill:none;stroke:#90AAD8;stroke-width:1.56;stroke-linecap:round;stroke-linejoin:round;stroke-miterlimit:10;" points="
			46.4,174.4 59.7,132.8 73.2,94.2 126.6,71.8 180,109.7 260.1,164.2 		"/>
	</g>
</g>
<g>
	<polygon class="st9" points="46.5,171.9 49,177 43.9,177 	"/>
	<polygon class="st10" points="46.5,171.9 49,177 43.9,177 	"/>
	<polygon class="st9" points="59.8,130.4 62.3,135.4 57.3,135.4 	"/>
	<polygon class="st10" points="59.8,130.4 62.3,135.4 57.3,135.4 	"/>
	<polygon class="st9" points="73.1,91.6 75.6,96.7 70.6,96.7 	"/>
	<polygon class="st10" points="73.1,91.6 75.6,96.7 70.6,96.7 	"/>
	<polygon class="st9" points="126.6,69.2 129.1,74.2 124.1,74.2 	"/>
	<polygon class="st10" points="126.6,69.2 129.1,74.2 124.1,74.2 	"/>
	<polygon class="st9" points="180,107.1 182.5,112.2 177.5,112.2 	"/>
	<polygon class="st10" points="180,107.1 182.5,112.2 177.5,112.2 	"/>
	<polygon class="st9" points="260.2,161.7 262.7,166.8 257.7,166.8 	"/>
	<polygon class="st10" points="260.2,161.7 262.7,166.8 257.7,166.8 	"/>
</g>
<g>
	<g>
		<defs>
			<rect id="SVGID_00000137845024354565473050000004188051930372566958_" x="46.3" y="33.4" width="214.6" height="143.3"/>
		</defs>
		<clipPath id="SVGID_00000060749224866102678480000012623366950664542876_">
			<use xlink:href="#SVGID_00000137845024354565473050000004188051930372566958_"  style="overflow:visible;"/>
		</clipPath>
		
			<polyline style="clip-path:url(#SVGID_00000060749224866102678480000012623366950664542876_);fill:none;stroke:#7B5CA3;stroke-width:1.56;stroke-linecap:round;stroke-linejoin:round;stroke-miterlimit:10;" points="
			46.4,174.8 59.7,145.9 73.2,121.1 126.6,92.5 180,123.5 260.1,171.1 		"/>
	</g>
</g>
<g>
	<polygon class="st12" points="43.9,172.3 49,172.3 49,177.3 43.9,177.3 	"/>
	<polygon class="st13" points="43.9,172.3 49,172.3 49,177.3 43.9,177.3 	"/>
	<polygon class="st12" points="57.3,143.4 62.3,143.4 62.3,148.4 57.3,148.4 	"/>
	<polygon class="st13" points="57.3,143.4 62.3,143.4 62.3,148.4 57.3,148.4 	"/>
	<polygon class="st12" points="70.6,118.5 75.6,118.5 75.6,123.6 70.6,123.6 	"/>
	<polygon class="st13" points="70.6,118.5 75.6,118.5 75.6,123.6 70.6,123.6 	"/>
	<polygon class="st12" points="124.1,90.1 129.1,90.1 129.1,95.1 124.1,95.1 	"/>
	<polygon class="st13" points="124.1,90.1 129.1,90.1 129.1,95.1 124.1,95.1 	"/>
	<polygon class="st12" points="177.5,120.9 182.5,120.9 182.5,126 177.5,126 	"/>
	<polygon class="st13" points="177.5,120.9 182.5,120.9 182.5,126 177.5,126 	"/>
	<polygon class="st12" points="257.7,168.7 262.7,168.7 262.7,173.7 257.7,173.7 	"/>
	<polygon class="st13" points="257.7,168.7 262.7,168.7 262.7,173.7 257.7,173.7 	"/>
</g>
<g>
	<path class="st14" d="M49,177.3l-5-5 M43.9,177.3l5-5"/>
	<path class="st13" d="M49,177.3l-5-5 M43.9,177.3l5-5"/>
	<path class="st14" d="M62.3,148.4l-5-5 M57.3,148.4l5-5"/>
	<path class="st13" d="M62.3,148.4l-5-5 M57.3,148.4l5-5"/>
	<path class="st14" d="M75.6,123.6l-5-5 M70.6,123.6l5-5"/>
	<path class="st13" d="M75.6,123.6l-5-5 M70.6,123.6l5-5"/>
	<path class="st14" d="M129.1,95.1l-5-5 M124.1,95.1l5-5"/>
	<path class="st13" d="M129.1,95.1l-5-5 M124.1,95.1l5-5"/>
	<path class="st14" d="M182.5,126l-5-5 M177.5,126l5-5"/>
	<path class="st13" d="M182.5,126l-5-5 M177.5,126l5-5"/>
	<path class="st14" d="M262.7,173.7l-5-5 M257.7,173.7l5-5"/>
	<path class="st13" d="M262.7,173.7l-5-5 M257.7,173.7l5-5"/>
</g>
<g>
	<g>
		<text transform="matrix(1 0 0 1 32.0764 178.8456)" class="st15 st16">0</text>
	</g>
</g>
<g>
	<g>
		<text transform="matrix(1 0 0 1 24.4826 158.4862)" class="st15 st16">0.5</text>
	</g>
</g>
<g>
	<g>
		<text transform="matrix(1 0 0 1 32.0764 138.1112)" class="st15 st16">1</text>
	</g>
</g>
<g>
	<g>
		<text transform="matrix(1 0 0 1 24.4826 117.744)" class="st15 st16">1.5</text>
	</g>
</g>
<g>
	<g>
		<text transform="matrix(1 0 0 1 32.0764 97.3847)" class="st15 st16">2</text>
	</g>
</g>
<g>
	<g>
		<text transform="matrix(1 0 0 1 24.4826 77.0097)" class="st15 st16">2.5</text>
	</g>
</g>
<g>
	<g>
		<text transform="matrix(1 0 0 1 32.0764 56.6347)" class="st15 st16">3</text>
	</g>
</g>
<g>
	<g>
		<text transform="matrix(1 0 0 1 24.4826 36.2753)" class="st15 st16">3.5</text>
	</g>
</g>
<g>
	<g>
		<text transform="matrix(1 0 0 1 43.8889 191.8456)" class="st15 st16">0</text>
	</g>
</g>
<g>
	<g>
		<text transform="matrix(1 0 0 1 70.6076 191.8456)" class="st15 st16">1</text>
	</g>
</g>
<g>
	<g>
		<text transform="matrix(1 0 0 1 97.3264 191.8456)" class="st15 st16">2</text>
	</g>
</g>
<g>
	<g>
		<text transform="matrix(1 0 0 1 124.0373 191.8456)" class="st15 st16">3</text>
	</g>
</g>
<g>
	<g>
		<text transform="matrix(1 0 0 1 150.7561 191.8456)" class="st15 st16">4</text>
	</g>
</g>
<g>
	<g>
		<text transform="matrix(1 0 0 1 177.4748 191.8456)" class="st15 st16">5</text>
	</g>
</g>
<g>
	<g>
		<text transform="matrix(1 0 0 1 204.1936 191.8456)" class="st15 st16">6</text>
	</g>
</g>
<g>
	<g>
		<text transform="matrix(1 0 0 1 230.9123 191.8456)" class="st15 st16">7</text>
	</g>
</g>
<g>
	<g>
		<text transform="matrix(1 0 0 1 257.6311 191.8456)" class="st15 st16">8</text>
	</g>
</g>
<g>
	<g>
		<text transform="matrix(1.748456e-07 -1 1 1.748456e-07 13.4265 176.6208)" class="st15 st16">A</text>
		<text transform="matrix(1.748456e-07 -1 1 1.748456e-07 13.4265 170.8572)" class="st15 st16">c</text>
		<text transform="matrix(1.748456e-07 -1 1 1.748456e-07 13.4265 166.655)" class="st15 st16">e</text>
		<text transform="matrix(1.748456e-07 -1 1 1.748456e-07 13.4265 161.7292)" class="st15 st16">ta</text>
		<text transform="matrix(1.748456e-07 -1 1 1.748456e-07 13.4265 153.5837)" class="st15 st16">l</text>
		<text transform="matrix(1.748456e-07 -1 1 1.748456e-07 13.4265 151.2976)" class="st15 st16">d</text>
		<text transform="matrix(1.748456e-07 -1 1 1.748456e-07 13.4265 146.0242)" class="st15 st16">e</text>
		<text transform="matrix(1.748456e-07 -1 1 1.748456e-07 13.4265 141.0993)" class="st15 st16">h</text>
		<text transform="matrix(1.748456e-07 -1 1 1.748456e-07 13.4265 135.8269)" class="st15 st16">y</text>
		<text transform="matrix(1.748456e-07 -1 1 1.748456e-07 13.4265 131.2673)" class="st15 st16">d</text>
		<text transform="matrix(1.748456e-07 -1 1 1.748456e-07 13.4265 125.9958)" class="st15 st16">e</text>
		<text transform="matrix(1.748456e-07 -1 1 1.748456e-07 13.4265 121.0691)" class="st15 st16"> </text>
		<text transform="matrix(1.748456e-07 -1 1 1.748456e-07 13.4265 118.6784)" class="st15 st16">c</text>
		<text transform="matrix(1.748456e-07 -1 1 1.748456e-07 13.4265 114.4763)" class="st15 st16">o</text>
		<text transform="matrix(1.748456e-07 -1 1 1.748456e-07 13.4265 109.2048)" class="st15 st16">n</text>
		<text transform="matrix(1.748456e-07 -1 1 1.748456e-07 13.4265 103.9324)" class="st15 st16">c</text>
		<text transform="matrix(1.748456e-07 -1 1 1.748456e-07 13.4265 99.7302)" class="st15 st16">e</text>
		<text transform="matrix(1.748456e-07 -1 1 1.748456e-07 13.4265 94.8044)" class="st15 st16">n</text>
		<text transform="matrix(1.748456e-07 -1 1 1.748456e-07 13.4265 89.531)" class="st15 st16">t</text>
		<text transform="matrix(1.748456e-07 -1 1 1.748456e-07 13.4265 86.1755)" class="st15 st16">r</text>
		<text transform="matrix(1.748456e-07 -1 1 1.748456e-07 13.4265 82.7038)" class="st15 st16">a</text>
		<text transform="matrix(1.748456e-07 -1 1 1.748456e-07 13.4265 77.9128)" class="st15 st16">ti</text>
		<text transform="matrix(1.748456e-07 -1 1 1.748456e-07 13.4265 72.363)" class="st15 st16">o</text>
		<text transform="matrix(1.748456e-07 -1 1 1.748456e-07 13.4265 67.0915)" class="st15 st16">n</text>
		<text transform="matrix(1.748456e-07 -1 1 1.748456e-07 13.4265 61.8181)" class="st15 st16"> </text>
		<text transform="matrix(1.748456e-07 -1 1 1.748456e-07 13.4266 59.5466)" class="st15 st16">(</text>
		<text transform="matrix(1.748456e-07 -1 1 1.748456e-07 13.4266 56.5466)" class="st15 st16">m</text>
		<text transform="matrix(1.748456e-07 -1 1 1.748456e-07 13.4266 48.6208)" class="st15 st16">g/</text>
		<text transform="matrix(1.748456e-07 -1 1 1.748456e-07 13.4266 40.0857)" class="st15 st16">L</text>
		<text transform="matrix(1.748456e-07 -1 1 1.748456e-07 13.4266 35.8884)" class="st15 st16">)</text>
	</g>
</g>
<g>
	<g>
		<text transform="matrix(1 0 0 1 139.4514 209.2675)" class="st15 st16">T</text>
		<text transform="matrix(1 0 0 1 144.2554 209.2675)" class="st15 st16">i</text>
		<text transform="matrix(1 0 0 1 146.5404 209.2675)" class="st15 st16">me</text>
		<text transform="matrix(1 0 0 1 159.3934 209.2675)" class="st15 st16"> </text>
		<text transform="matrix(1 0 0 1 161.9034 209.2675)" class="st15 st16">(</text>
		<text transform="matrix(1 0 0 1 164.9044 209.2675)" class="st15 st16">h</text>
		<text transform="matrix(1 0 0 1 170.1764 209.2675)" class="st15 st16">)</text>
	</g>
</g>
<g>
	<line class="st17" x1="273.4" y1="53.8" x2="292.6" y2="53.8"/>
</g>
<g>
	<polygon class="st3" points="283,51.8 284.9,53.7 283,55.6 281.1,53.7 	"/>
	<polygon class="st4" points="283,51.8 284.9,53.7 283,55.6 281.1,53.7 	"/>
</g>
<g>
	<g>
		<text transform="matrix(1 0 0 1 294.6389 56.0253)" class="st15 st18">N</text>
		<text transform="matrix(1 0 0 1 299.8049 56.0253)" class="st15 st18">o</text>
		<text transform="matrix(1 0 0 1 304.0119 56.0253)" class="st15 st18">r</text>
		<text transform="matrix(1 0 0 1 306.7749 56.0253)" class="st15 st18">m</text>
		<text transform="matrix(1 0 0 1 313.2539 56.0253)" class="st15 st18">a</text>
		<text transform="matrix(1 0 0 1 317.0969 56.0253)" class="st15 st18">l</text>
	</g>
</g>
<g>
	<line class="st19" x1="273.4" y1="81" x2="292.6" y2="81"/>
</g>
<g>
	<polygon class="st6" points="280.9,78.9 284.9,78.9 284.9,82.9 280.9,82.9 	"/>
	<polygon class="st7" points="280.9,78.9 284.9,78.9 284.9,82.9 280.9,82.9 	"/>
</g>
<g>
	<g>
		<text transform="matrix(1 0 0 1 294.6389 83.2518)" class="st15 st18">E</text>
		<text transform="matrix(1 0 0 1 298.5969 83.2518)" class="st15 st18">t</text>
		<text transform="matrix(1 0 0 1 301.2419 83.2518)" class="st15 st18">O</text>
		<text transform="matrix(1 0 0 1 306.5249 83.2518)" class="st15 st18">H</text>
		<text transform="matrix(1 0 0 1 311.5579 83.2518)" class="st15 st18"> </text>
		<text transform="matrix(1 0 0 1 313.3599 83.2518)" class="st15 st18">o</text>
		<text transform="matrix(1 0 0 1 317.5679 83.2518)" class="st15 st18">n</text>
		<text transform="matrix(1 0 0 1 321.7679 83.2518)" class="st15 st18">l</text>
		<text transform="matrix(1 0 0 1 323.5729 83.2518)" class="st15 st18">y</text>
	</g>
</g>
<g>
	<line class="st20" x1="273.4" y1="108.2" x2="292.6" y2="108.2"/>
</g>
<g>
	<polygon class="st9" points="283,106.3 284.9,110.1 281.1,110.1 	"/>
	<polygon class="st10" points="283,106.3 284.9,110.1 281.1,110.1 	"/>
</g>
<g>
	<g>
		<text transform="matrix(1 0 0 1 294.6389 123.3847)" class="st15 st18">300</text>
		<text transform="matrix(1 0 0 1 306.8639 123.3847)" class="st15 st18"> </text>
		<text transform="matrix(1 0 0 1 308.5449 123.3847)" class="st15 st18">m</text>
		<text transform="matrix(1 0 0 1 315.0239 123.3847)" class="st15 st18">g</text>
		<text transform="matrix(1 0 0 1 318.8569 123.3847)" class="st15 st18">/</text>
		<text transform="matrix(1 0 0 1 321.9699 123.3847)" class="st15 st18">k</text>
		<text transform="matrix(1 0 0 1 325.5769 123.3847)" class="st15 st18">g</text>
	</g>
</g>
<g>
	<line class="st21" x1="273.4" y1="135.5" x2="292.6" y2="135.5"/>
</g>
<g>
	<polygon class="st12" points="281.1,133.5 284.9,133.5 284.9,137.3 281.1,137.3 	"/>
	<polygon class="st13" points="281.1,133.5 284.9,133.5 284.9,137.3 281.1,137.3 	"/>
</g>
<g>
	<path class="st14" d="M284.9,137.3l-3.8-3.8 M281.1,137.3l3.8-3.8"/>
	<path class="st13" d="M284.9,137.3l-3.8-3.8 M281.1,137.3l3.8-3.8"/>
</g>
<g>
	<g>
		<text transform="matrix(1 0 0 1 294.6389 150.619)" class="st15 st18">208</text>
		<text transform="matrix(1 0 0 1 306.8639 150.619)" class="st15 st18"> </text>
		<text transform="matrix(1 0 0 1 308.5449 150.619)" class="st15 st18">m</text>
		<text transform="matrix(1 0 0 1 315.0239 150.619)" class="st15 st18">g</text>
		<text transform="matrix(1 0 0 1 318.8569 150.619)" class="st15 st18">/</text>
		<text transform="matrix(1 0 0 1 321.9699 150.619)" class="st15 st18">k</text>
		<text transform="matrix(1 0 0 1 325.5769 150.619)" class="st15 st18">g</text>
	</g>
</g>
<g>
	<path class="st1" d="M390.5,158.8h196.9 M390.5,140.8h196.9 M390.5,122.8h196.9 M390.5,104.8h196.9 M390.5,86.8h196.9 M390.5,68.8
		h196.9 M390.5,50.8h196.9 M390.5,32.7h196.9"/>
</g>
<g>
	<g>
		<defs>
			<rect id="SVGID_00000096748848463454420030000000274026604989307828_" x="390.4" y="32.7" width="197.8" height="144.8"/>
		</defs>
		<clipPath id="SVGID_00000015339113625554229580000016732042158846146434_">
			<use xlink:href="#SVGID_00000096748848463454420030000000274026604989307828_"  style="overflow:visible;"/>
		</clipPath>
		
			<polygon style="clip-path:url(#SVGID_00000015339113625554229580000016732042158846146434_);fill-rule:evenodd;clip-rule:evenodd;fill:#0E0E0E;" points="
			454.5,40.3 474.1,40.3 474.1,176.8 454.5,176.8 		"/>
	</g>
	<g>
		<defs>
			<rect id="SVGID_00000103961598250795136130000000661657666410651291_" x="390.4" y="32.7" width="197.8" height="144.8"/>
		</defs>
		<clipPath id="SVGID_00000006706147547435418740000016327804929308029878_">
			<use xlink:href="#SVGID_00000103961598250795136130000000661657666410651291_"  style="overflow:visible;"/>
		</clipPath>
		
			<polygon style="clip-path:url(#SVGID_00000006706147547435418740000016327804929308029878_);fill:none;stroke:#000000;stroke-width:0.72;stroke-linejoin:round;stroke-miterlimit:10;" points="
			454.5,40.3 474.1,40.3 474.1,176.8 454.5,176.8 		"/>
	</g>
</g>
<g>
	<g>
		<defs>
			<rect id="SVGID_00000142142955408358724330000015238335365960595609_" x="390.4" y="32.7" width="197.8" height="144.8"/>
		</defs>
		<clipPath id="SVGID_00000133529027416246598630000010463137281730222211_">
			<use xlink:href="#SVGID_00000142142955408358724330000015238335365960595609_"  style="overflow:visible;"/>
		</clipPath>
		
			<polygon style="clip-path:url(#SVGID_00000133529027416246598630000010463137281730222211_);fill-rule:evenodd;clip-rule:evenodd;fill:#90AAD8;" points="
			503.8,62.6 523.5,62.6 523.5,176.8 503.8,176.8 		"/>
	</g>
	<g>
		<defs>
			<rect id="SVGID_00000152986852131871082940000013275824001630442639_" x="390.4" y="32.7" width="197.8" height="144.8"/>
		</defs>
		<clipPath id="SVGID_00000174586309018022153990000009133223877771013766_">
			<use xlink:href="#SVGID_00000152986852131871082940000013275824001630442639_"  style="overflow:visible;"/>
		</clipPath>
		
			<polygon style="clip-path:url(#SVGID_00000174586309018022153990000009133223877771013766_);fill:none;stroke:#000000;stroke-width:0.72;stroke-linejoin:round;stroke-miterlimit:10;" points="
			503.8,62.6 523.5,62.6 523.5,176.8 503.8,176.8 		"/>
	</g>
</g>
<g>
	<g>
		<defs>
			<rect id="SVGID_00000083778923857004018850000003543843886668317105_" x="390.4" y="32.7" width="197.8" height="144.8"/>
		</defs>
		<clipPath id="SVGID_00000072989271147164803600000008798476878419797141_">
			<use xlink:href="#SVGID_00000083778923857004018850000003543843886668317105_"  style="overflow:visible;"/>
		</clipPath>
		
			<polygon style="clip-path:url(#SVGID_00000072989271147164803600000008798476878419797141_);fill-rule:evenodd;clip-rule:evenodd;fill:#7B5CA3;" points="
			553,90.7 572.7,90.7 572.7,176.8 553,176.8 		"/>
	</g>
	<g>
		<defs>
			<rect id="SVGID_00000150101318336865100790000004066719363767764116_" x="390.4" y="32.7" width="197.8" height="144.8"/>
		</defs>
		<clipPath id="SVGID_00000088841466406298314680000012376796719482929852_">
			<use xlink:href="#SVGID_00000150101318336865100790000004066719363767764116_"  style="overflow:visible;"/>
		</clipPath>
		
			<polygon style="clip-path:url(#SVGID_00000088841466406298314680000012376796719482929852_);fill:none;stroke:#000000;stroke-width:0.72;stroke-linejoin:round;stroke-miterlimit:10;" points="
			553,90.7 572.7,90.7 572.7,176.8 553,176.8 		"/>
	</g>
</g>
<g>
	<line class="st1" x1="390.5" y1="176.8" x2="390.5" y2="32.7"/>
</g>
<g>
	<path class="st1" d="M387.3,176.8h3.2 M387.3,158.8h3.2 M387.3,140.8h3.2 M387.3,122.8h3.2 M387.3,104.8h3.2 M387.3,86.8h3.2
		 M387.3,68.8h3.2 M387.3,50.8h3.2 M387.3,32.7h3.2"/>
</g>
<g>
	<line class="st1" x1="390.5" y1="176.8" x2="587.4" y2="176.8"/>
</g>
<g>
	<path class="st1" d="M390.5,176.8v3.1 M439.7,176.8v3.1 M489,176.8v3.1 M538.2,176.8v3.1 M587.4,176.8v3.1"/>
</g>
<g>
	<g>
		<text transform="matrix(1 0 0 1 376.1233 179.6347)" class="st15 st16">0</text>
	</g>
</g>
<g>
	<g>
		<text transform="matrix(1 0 0 1 376.1233 161.6268)" class="st15 st16">2</text>
	</g>
</g>
<g>
	<g>
		<text transform="matrix(1 0 0 1 376.1233 143.619)" class="st15 st16">4</text>
	</g>
</g>
<g>
	<g>
		<text transform="matrix(1 0 0 1 376.1233 125.6112)" class="st15 st16">6</text>
	</g>
</g>
<g>
	<g>
		<text transform="matrix(1 0 0 1 376.1233 107.6034)" class="st15 st16">8</text>
	</g>
</g>
<g>
	<g>
		<text transform="matrix(1 0 0 1 371.0529 89.5956)" class="st15 st16">10</text>
	</g>
</g>
<g>
	<g>
		<text transform="matrix(1 0 0 1 371.0529 71.5878)" class="st15 st16">12</text>
	</g>
</g>
<g>
	<g>
		<text transform="matrix(1 0 0 1 371.0529 53.58)" class="st15 st16">14</text>
	</g>
</g>
<g>
	<g>
		<text transform="matrix(1 0 0 1 371.0529 35.5722)" class="st15 st16">16</text>
	</g>
</g>
<g>
	<g>
		<text transform="matrix(1 0 0 1 399.9514 192.6347)" class="st15 st16">N</text>
		<text transform="matrix(1 0 0 1 406.4304 192.6347)" class="st15 st16">o</text>
		<text transform="matrix(1 0 0 1 411.7024 192.6347)" class="st15 st16">r</text>
		<text transform="matrix(1 0 0 1 415.1754 192.6347)" class="st15 st16">m</text>
		<text transform="matrix(1 0 0 1 423.1014 192.6347)" class="st15 st16">a</text>
		<text transform="matrix(1 0 0 1 427.8924 192.6347)" class="st15 st16">l</text>
	</g>
</g>
<g>
	<g>
		<text transform="matrix(1 0 0 1 442.8654 192.6347)" class="st15 st16"> </text>
		<text transform="matrix(1 0 0 1 445.1364 192.6347)" class="st15 st16">E</text>
		<text transform="matrix(1 0 0 1 450.0504 192.6347)" class="st15 st16">t</text>
		<text transform="matrix(1 0 0 1 453.2974 192.6347)" class="st15 st16">O</text>
		<text transform="matrix(1 0 0 1 460.0114 192.6347)" class="st15 st16">H</text>
		<text transform="matrix(1 0 0 1 466.2464 192.6347)" class="st15 st16"> </text>
		<text transform="matrix(1 0 0 1 468.4084 192.6347)" class="st15 st16">o</text>
		<text transform="matrix(1 0 0 1 473.6804 192.6347)" class="st15 st16">n</text>
		<text transform="matrix(1 0 0 1 478.9534 192.6347)" class="st15 st16">ly</text>
	</g>
</g>
<polygon class="st28" points="362.1,215.2 598.5,215.2 598.5,180.7 362.1,180.7 "/>
<g>
	<g>
		<defs>
			<rect id="SVGID_00000002383724236620723060000016518176773294185622_" x="362.1" y="180.7" width="236.4" height="34.6"/>
		</defs>
		<clipPath id="SVGID_00000052801976939133291170000001290275867206953904_">
			<use xlink:href="#SVGID_00000002383724236620723060000016518176773294185622_"  style="overflow:visible;"/>
		</clipPath>
		<g style="clip-path:url(#SVGID_00000052801976939133291170000001290275867206953904_);">
			<g>
				<defs>
					<rect id="SVGID_00000166665496440002369460000009021369938586052752_" x="362.1" y="180.7" width="236.4" height="34.6"/>
				</defs>
				<clipPath id="SVGID_00000183243699543295999980000011919455161709923512_">
					<use xlink:href="#SVGID_00000166665496440002369460000009021369938586052752_"  style="overflow:visible;"/>
				</clipPath>
				<g style="clip-path:url(#SVGID_00000183243699543295999980000011919455161709923512_);">
					<text transform="matrix(1 0 0 1 491.9748 209.9159)" class="st15 st16">300</text>
					<text transform="matrix(1 0 0 1 507.1198 209.9159)" class="st15 st16"> </text>
					<text transform="matrix(1 0 0 1 509.5098 209.9159)" class="st15 st16">m</text>
					<text transform="matrix(1 0 0 1 517.4368 209.9159)" class="st15 st16">g/</text>
					<text transform="matrix(1 0 0 1 525.9718 209.9159)" class="st15 st16">k</text>
					<text transform="matrix(1 0 0 1 530.5298 209.9159)" class="st15 st16">g</text>
				</g>
			</g>
		</g>
	</g>
</g>
<g>
	<g>
		<defs>
			<rect id="SVGID_00000146474732853068876520000013295591145952158864_" x="406.9" y="180.7" width="191.5" height="34.6"/>
		</defs>
		<clipPath id="SVGID_00000093890373057156996810000006712195351920320654_">
			<use xlink:href="#SVGID_00000146474732853068876520000013295591145952158864_"  style="overflow:visible;"/>
		</clipPath>
		<g style="clip-path:url(#SVGID_00000093890373057156996810000006712195351920320654_);">
			<g>
				<defs>
					<rect id="SVGID_00000161624165215285341240000002607959953908555405_" x="406.9" y="180.7" width="191.5" height="34.6"/>
				</defs>
				<clipPath id="SVGID_00000073705078076214502780000006662173791394016189_">
					<use xlink:href="#SVGID_00000161624165215285341240000002607959953908555405_"  style="overflow:visible;"/>
				</clipPath>
				<g style="clip-path:url(#SVGID_00000073705078076214502780000006662173791394016189_);">
					<text transform="matrix(1 0 0 1 541.2249 209.9159)" class="st15 st16">208</text>
					<text transform="matrix(1 0 0 1 556.3699 209.9159)" class="st15 st16"> </text>
					<text transform="matrix(1 0 0 1 558.7599 209.9159)" class="st15 st16">m</text>
					<text transform="matrix(1 0 0 1 566.6869 209.9159)" class="st15 st16">g/</text>
					<text transform="matrix(1 0 0 1 575.2219 209.9159)" class="st15 st16">k</text>
					<text transform="matrix(1 0 0 1 579.7799 209.9159)" class="st15 st16">g</text>
				</g>
			</g>
		</g>
	</g>
</g>
<g>
	<g>
		<text transform="matrix(1.748456e-07 -1 1 1.748456e-07 364.7507 152.0661)" class="st15 st16">B</text>
		<text transform="matrix(1.748456e-07 -1 1 1.748456e-07 364.7507 146.6579)" class="st15 st16">l</text>
		<text transform="matrix(1.748456e-07 -1 1 1.748456e-07 364.7507 144.3728)" class="st15 st16">oo</text>
		<text transform="matrix(1.748456e-07 -1 1 1.748456e-07 364.7507 133.8279)" class="st15 st16">d</text>
		<text transform="matrix(1.748456e-07 -1 1 1.748456e-07 364.7507 128.5544)" class="st15 st16"> </text>
		<text transform="matrix(1.748456e-07 -1 1 1.748456e-07 364.7507 126.2839)" class="st15 st16">A</text>
		<text transform="matrix(1.748456e-07 -1 1 1.748456e-07 364.7507 120.5212)" class="st15 st16">c</text>
		<text transform="matrix(1.748456e-07 -1 1 1.748456e-07 364.7507 116.3191)" class="st15 st16">e</text>
		<text transform="matrix(1.748456e-07 -1 1 1.748456e-07 364.7507 111.3923)" class="st15 st16">ta</text>
		<text transform="matrix(1.748456e-07 -1 1 1.748456e-07 364.7507 103.2458)" class="st15 st16">l</text>
		<text transform="matrix(1.748456e-07 -1 1 1.748456e-07 364.7507 100.9607)" class="st15 st16">d</text>
		<text transform="matrix(1.748456e-07 -1 1 1.748456e-07 364.7507 95.6882)" class="st15 st16">e</text>
		<text transform="matrix(1.748456e-07 -1 1 1.748456e-07 364.7507 90.7615)" class="st15 st16">h</text>
		<text transform="matrix(1.748456e-07 -1 1 1.748456e-07 364.7507 85.489)" class="st15 st16">y</text>
		<text transform="matrix(1.748456e-07 -1 1 1.748456e-07 364.7507 80.9304)" class="st15 st16">d</text>
		<text transform="matrix(1.748456e-07 -1 1 1.748456e-07 364.7507 75.6589)" class="st15 st16">e</text>
		<text transform="matrix(1.748456e-07 -1 1 1.748456e-07 364.7507 70.7331)" class="st15 st16"> </text>
		<text transform="matrix(1.748456e-07 -1 1 1.748456e-07 364.7507 68.3415)" class="st15 st16">A</text>
		<text transform="matrix(1.748456e-07 -1 1 1.748456e-07 364.7507 62.5788)" class="st15 st16">U</text>
		<text transform="matrix(1.748456e-07 -1 1 1.748456e-07 364.7507 56.2175)" class="st15 st16">C</text>
	</g>
</g>
<g>
	<g>
		<g>
			<text transform="matrix(1 0 0 1 406.9672 19.7223)" class="st33 st34">혈중 아세트알데히드 누적농도</text>
		</g>
	</g>
</g>
<g>
	<g>
		<line class="st35" x1="398.2" y1="39.7" x2="579.8" y2="39.7"/>
	</g>
</g>
<text transform="matrix(1 0 0 1 295.0407 111.4096)" class="st33 st36">경쟁사제품</text>
<text transform="matrix(1 0 0 1 494.6072 192.6347)" class="st33 st37">경쟁사제품</text>
<text transform="matrix(1 0 0 1 295.0407 138.111)" class="st33 st36">헤미셀란 제품</text>
<text transform="matrix(1 0 0 1 541.5961 191.9351)" class="st33 st37">헤미셀란 제품</text>
<text transform="matrix(1 0 0 1 88.0525 19.7224)" class="st33 st34">혈중 아세트알데히드</text>
</svg>
