<?xml version="1.0" encoding="utf-8"?>
<!-- Generator: Adobe Illustrator 28.0.0, SVG Export Plug-In . SVG Version: 6.00 Build 0)  -->
<svg version="1.1" id="레이어_1" xmlns="http://www.w3.org/2000/svg" xmlns:xlink="http://www.w3.org/1999/xlink" x="0px"
	 y="0px" viewBox="0 0 595.276 227.097" style="enable-background:new 0 0 595.276 227.097;" xml:space="preserve">
<style type="text/css">
	.st0{fill:none;stroke:#898989;stroke-width:0.48;stroke-linejoin:round;stroke-miterlimit:10;}
	
		.st1{clip-path:url(#SVGID_00000061429129112252912950000010526543126619662224_);fill:none;stroke:#7F7F7F;stroke-width:1.56;stroke-linecap:round;stroke-linejoin:round;stroke-miterlimit:10;}
	.st2{fill:#7F7F7F;}
	.st3{fill:none;stroke:#7F7F7F;stroke-width:0.48;stroke-linejoin:round;stroke-miterlimit:10;}
	
		.st4{clip-path:url(#SVGID_00000129909292377848960630000009895841671432501145_);fill:none;stroke:#0E0E0E;stroke-width:1.56;stroke-linecap:round;stroke-linejoin:round;stroke-miterlimit:10;}
	.st5{fill-rule:evenodd;clip-rule:evenodd;fill:#0E0E0E;}
	.st6{fill:none;stroke:#0E0E0E;stroke-width:0.48;stroke-linejoin:round;stroke-miterlimit:10;}
	
		.st7{clip-path:url(#SVGID_00000068653223527393959350000010655047472248620194_);fill:none;stroke:#90AAD8;stroke-width:1.56;stroke-linecap:round;stroke-linejoin:round;stroke-miterlimit:10;}
	.st8{fill:#90AAD8;}
	.st9{fill:none;stroke:#90AAD8;stroke-width:0.48;stroke-linejoin:round;stroke-miterlimit:10;}
	
		.st10{clip-path:url(#SVGID_00000175317917341096687530000001480787709412286886_);fill:none;stroke:#7B5CA3;stroke-width:1.56;stroke-linecap:round;stroke-linejoin:round;stroke-miterlimit:10;}
	.st11{fill-rule:evenodd;clip-rule:evenodd;fill:#7B5CA3;}
	.st12{fill:none;stroke:#7B5CA3;stroke-width:0.48;stroke-linejoin:round;stroke-miterlimit:10;}
	.st13{fill:#7B5CA3;}
	.st14{font-family:'Calibri';}
	.st15{font-size:9.96px;}
	.st16{fill:none;stroke:#7F7F7F;stroke-width:1.56;stroke-linecap:round;stroke-linejoin:round;stroke-miterlimit:10;}
	.st17{font-size:8.04px;}
	.st18{fill:none;stroke:#0E0E0E;stroke-width:1.56;stroke-linecap:round;stroke-linejoin:round;stroke-miterlimit:10;}
	.st19{fill:none;stroke:#90AAD8;stroke-width:1.56;stroke-linecap:round;stroke-linejoin:round;stroke-miterlimit:10;}
	.st20{fill:none;stroke:#7B5CA3;stroke-width:1.56;stroke-linecap:round;stroke-linejoin:round;stroke-miterlimit:10;}
	
		.st21{clip-path:url(#SVGID_00000147941067266102755040000009823766664940468101_);fill-rule:evenodd;clip-rule:evenodd;fill:#0E0E0E;}
	
		.st22{clip-path:url(#SVGID_00000147941067266102755040000009823766664940468101_);fill:none;stroke:#000000;stroke-width:0.72;stroke-linejoin:round;stroke-miterlimit:10;}
	
		.st23{clip-path:url(#SVGID_00000002345514134588766930000007148254172205922691_);fill-rule:evenodd;clip-rule:evenodd;fill:#90AAD8;}
	
		.st24{clip-path:url(#SVGID_00000002345514134588766930000007148254172205922691_);fill:none;stroke:#000000;stroke-width:0.72;stroke-linejoin:round;stroke-miterlimit:10;}
	
		.st25{clip-path:url(#SVGID_00000172423239076706834270000008990564691582142623_);fill-rule:evenodd;clip-rule:evenodd;fill:#7B5CA3;}
	
		.st26{clip-path:url(#SVGID_00000172423239076706834270000008990564691582142623_);fill:none;stroke:#000000;stroke-width:0.72;stroke-linejoin:round;stroke-miterlimit:10;}
	.st27{fill-rule:evenodd;clip-rule:evenodd;fill:none;}
	.st28{clip-path:url(#SVGID_00000062896181930353427940000013716733891409798299_);}
	.st29{clip-path:url(#SVGID_00000049224176725576180260000004784954565202877589_);}
	.st30{clip-path:url(#SVGID_00000089540607966896152250000005922984244404213643_);}
	.st31{clip-path:url(#SVGID_00000018952113294826646320000013167897718331308478_);}
	.st32{font-family:'AppleSDGothicNeoEB00';}
	.st33{font-size:12px;}
	.st34{fill:none;stroke:#ED1C24;stroke-width:0.96;stroke-miterlimit:8;stroke-dasharray:36576,12192;}
	.st35{font-size:7.742px;}
	.st36{font-size:9px;}
</style>
<g>
	<path class="st0" d="M46.465,155.696h213.72 M46.465,135.296h213.72 M46.465,114.896h213.72 M46.465,94.496h213.72 M46.465,74.216
		h213.72 M46.465,53.816h213.72 M46.465,33.416h213.72"/>
</g>
<g>
	<line class="st0" x1="46.465" y1="175.976" x2="46.465" y2="33.416"/>
</g>
<g>
	<path class="st0" d="M43.225,175.976h3.24 M43.225,155.696h3.24 M43.225,135.296h3.24 M43.225,114.896h3.24 M43.225,94.496h3.24
		 M43.225,74.216h3.24 M43.225,53.816h3.24 M43.225,33.416h3.24"/>
</g>
<g>
	<line class="st0" x1="46.465" y1="175.976" x2="260.185" y2="175.976"/>
</g>
<g>
	<path class="st0" d="M46.465,175.976v3.24 M73.105,175.976v3.24 M99.865,175.976v3.24 M126.625,175.976v3.24 M153.265,175.976v3.24
		 M180.025,175.976v3.24 M206.785,175.976v3.24 M233.425,175.976v3.24 M260.185,175.976v3.24"/>
</g>
<g>
	<defs>
		<polygon id="SVGID_1_" points="46.345,176.696 260.905,176.696 260.905,33.416 46.345,33.416 46.345,176.696 		"/>
	</defs>
	<clipPath id="SVGID_00000168093392376621302940000017891375456693971331_">
		<use xlink:href="#SVGID_1_"  style="overflow:visible;"/>
	</clipPath>
	
		<polyline style="clip-path:url(#SVGID_00000168093392376621302940000017891375456693971331_);fill:none;stroke:#7F7F7F;stroke-width:1.56;stroke-linecap:round;stroke-linejoin:round;stroke-miterlimit:10;" points="
		46.405,176.036 59.725,176.036 73.165,176.036 126.565,176.036 179.965,176.036 260.125,176.036 	"/>
</g>
<g>
	<polygon class="st2" points="46.46,173.477 48.98,175.997 46.46,178.517 43.94,175.997 46.46,173.477 	"/>
	<polygon class="st3" points="46.46,173.477 48.98,175.997 46.46,178.517 43.94,175.997 46.46,173.477 	"/>
	<polygon class="st2" points="59.78,173.477 62.3,175.997 59.78,178.517 57.26,175.997 59.78,173.477 	"/>
	<polygon class="st3" points="59.78,173.477 62.3,175.997 59.78,178.517 57.26,175.997 59.78,173.477 	"/>
	<polygon class="st2" points="73.1,173.477 75.62,175.997 73.1,178.517 70.58,175.997 73.1,173.477 	"/>
	<polygon class="st3" points="73.1,173.477 75.62,175.997 73.1,178.517 70.58,175.997 73.1,173.477 	"/>
	<polygon class="st2" points="126.62,173.477 129.14,175.997 126.62,178.517 124.1,175.997 126.62,173.477 	"/>
	<polygon class="st3" points="126.62,173.477 129.14,175.997 126.62,178.517 124.1,175.997 126.62,173.477 	"/>
	<polygon class="st2" points="180.02,173.477 182.54,175.997 180.02,178.517 177.5,175.997 180.02,173.477 	"/>
	<polygon class="st3" points="180.02,173.477 182.54,175.997 180.02,178.517 177.5,175.997 180.02,173.477 	"/>
	<polygon class="st2" points="260.18,173.477 262.7,175.997 260.18,178.517 257.66,175.997 260.18,173.477 	"/>
	<polygon class="st3" points="260.18,173.477 262.7,175.997 260.18,178.517 257.66,175.997 260.18,173.477 	"/>
</g>
<g>
	<defs>
		<polygon id="SVGID_00000037654901025058359200000006046035166422573484_" points="46.345,176.696 260.905,176.696 260.905,33.416 
			46.345,33.416 46.345,176.696 		"/>
	</defs>
	<clipPath id="SVGID_00000064334700397095829690000007859807932127776650_">
		<use xlink:href="#SVGID_00000037654901025058359200000006046035166422573484_"  style="overflow:visible;"/>
	</clipPath>
	
		<polyline style="clip-path:url(#SVGID_00000064334700397095829690000007859807932127776650_);fill:none;stroke:#0E0E0E;stroke-width:1.56;stroke-linecap:round;stroke-linejoin:round;stroke-miterlimit:10;" points="
		46.405,170.756 59.725,117.716 73.165,80.276 126.565,57.116 179.965,95.396 260.125,157.316 	"/>
</g>
<g>
	<polygon class="st5" points="43.94,168.197 48.98,168.197 48.98,173.237 43.94,173.237 43.94,168.197 	"/>
	<polygon class="st6" points="43.94,168.197 48.98,168.197 48.98,173.237 43.94,173.237 43.94,168.197 	"/>
	<polygon class="st5" points="57.26,115.277 62.3,115.277 62.3,120.317 57.26,120.317 57.26,115.277 	"/>
	<polygon class="st6" points="57.26,115.277 62.3,115.277 62.3,120.317 57.26,120.317 57.26,115.277 	"/>
	<polygon class="st5" points="70.58,77.837 75.62,77.837 75.62,82.877 70.58,82.877 70.58,77.837 	"/>
	<polygon class="st6" points="70.58,77.837 75.62,77.837 75.62,82.877 70.58,82.877 70.58,77.837 	"/>
	<polygon class="st5" points="124.1,54.557 129.14,54.557 129.14,59.597 124.1,59.597 124.1,54.557 	"/>
	<polygon class="st6" points="124.1,54.557 129.14,54.557 129.14,59.597 124.1,59.597 124.1,54.557 	"/>
	<polygon class="st5" points="177.5,92.837 182.54,92.837 182.54,97.877 177.5,97.877 177.5,92.837 	"/>
	<polygon class="st6" points="177.5,92.837 182.54,92.837 182.54,97.877 177.5,97.877 177.5,92.837 	"/>
	<polygon class="st5" points="257.66,154.757 262.7,154.757 262.7,159.797 257.66,159.797 257.66,154.757 	"/>
	<polygon class="st6" points="257.66,154.757 262.7,154.757 262.7,159.797 257.66,159.797 257.66,154.757 	"/>
</g>
<g>
	<defs>
		<polygon id="SVGID_00000142860867253907021490000013771216915493839256_" points="46.345,176.696 260.905,176.696 260.905,33.416 
			46.345,33.416 46.345,176.696 		"/>
	</defs>
	<clipPath id="SVGID_00000018926759662576521970000017800624150910962334_">
		<use xlink:href="#SVGID_00000142860867253907021490000013771216915493839256_"  style="overflow:visible;"/>
	</clipPath>
	
		<polyline style="clip-path:url(#SVGID_00000018926759662576521970000017800624150910962334_);fill:none;stroke:#90AAD8;stroke-width:1.56;stroke-linecap:round;stroke-linejoin:round;stroke-miterlimit:10;" points="
		46.405,174.356 59.725,132.836 73.165,94.196 126.565,71.756 179.965,109.676 260.125,164.156 	"/>
</g>
<g>
	<polygon class="st8" points="46.46,171.917 48.98,176.957 43.94,176.957 46.46,171.917 	"/>
	<polygon class="st9" points="46.46,171.917 48.98,176.957 43.94,176.957 46.46,171.917 	"/>
	<polygon class="st8" points="59.78,130.397 62.3,135.437 57.26,135.437 59.78,130.397 	"/>
	<polygon class="st9" points="59.78,130.397 62.3,135.437 57.26,135.437 59.78,130.397 	"/>
	<polygon class="st8" points="73.1,91.637 75.62,96.677 70.58,96.677 73.1,91.637 	"/>
	<polygon class="st9" points="73.1,91.637 75.62,96.677 70.58,96.677 73.1,91.637 	"/>
	<polygon class="st8" points="126.62,69.197 129.14,74.237 124.1,74.237 126.62,69.197 	"/>
	<polygon class="st9" points="126.62,69.197 129.14,74.237 124.1,74.237 126.62,69.197 	"/>
	<polygon class="st8" points="180.02,107.117 182.54,112.157 177.5,112.157 180.02,107.117 	"/>
	<polygon class="st9" points="180.02,107.117 182.54,112.157 177.5,112.157 180.02,107.117 	"/>
	<polygon class="st8" points="260.18,161.717 262.7,166.757 257.66,166.757 260.18,161.717 	"/>
	<polygon class="st9" points="260.18,161.717 262.7,166.757 257.66,166.757 260.18,161.717 	"/>
</g>
<g>
	<defs>
		<polygon id="SVGID_00000114785880692880675670000009356227608078389385_" points="46.345,176.696 260.905,176.696 260.905,33.416 
			46.345,33.416 46.345,176.696 		"/>
	</defs>
	<clipPath id="SVGID_00000087392546284813102380000010680634666474430601_">
		<use xlink:href="#SVGID_00000114785880692880675670000009356227608078389385_"  style="overflow:visible;"/>
	</clipPath>
	
		<polyline style="clip-path:url(#SVGID_00000087392546284813102380000010680634666474430601_);fill:none;stroke:#7B5CA3;stroke-width:1.56;stroke-linecap:round;stroke-linejoin:round;stroke-miterlimit:10;" points="
		46.405,174.836 59.725,145.916 73.165,121.076 126.565,92.516 179.965,123.476 260.125,171.116 	"/>
</g>
<g>
	<polygon class="st11" points="43.94,172.277 48.98,172.277 48.98,177.317 43.94,177.317 43.94,172.277 	"/>
	<polygon class="st12" points="43.94,172.277 48.98,172.277 48.98,177.317 43.94,177.317 43.94,172.277 	"/>
	<polygon class="st11" points="57.26,143.357 62.3,143.357 62.3,148.397 57.26,148.397 57.26,143.357 	"/>
	<polygon class="st12" points="57.26,143.357 62.3,143.357 62.3,148.397 57.26,148.397 57.26,143.357 	"/>
	<polygon class="st11" points="70.58,118.517 75.62,118.517 75.62,123.557 70.58,123.557 70.58,118.517 	"/>
	<polygon class="st12" points="70.58,118.517 75.62,118.517 75.62,123.557 70.58,123.557 70.58,118.517 	"/>
	<polygon class="st11" points="124.1,90.077 129.14,90.077 129.14,95.117 124.1,95.117 124.1,90.077 	"/>
	<polygon class="st12" points="124.1,90.077 129.14,90.077 129.14,95.117 124.1,95.117 124.1,90.077 	"/>
	<polygon class="st11" points="177.5,120.917 182.54,120.917 182.54,125.957 177.5,125.957 177.5,120.917 	"/>
	<polygon class="st12" points="177.5,120.917 182.54,120.917 182.54,125.957 177.5,125.957 177.5,120.917 	"/>
	<polygon class="st11" points="257.66,168.677 262.7,168.677 262.7,173.717 257.66,173.717 257.66,168.677 	"/>
	<polygon class="st12" points="257.66,168.677 262.7,168.677 262.7,173.717 257.66,173.717 257.66,168.677 	"/>
</g>
<g>
	<path class="st13" d="M48.98,177.317l-5.04-5.04 M43.94,177.317l5.04-5.04"/>
	<path class="st12" d="M48.98,177.317l-5.04-5.04 M43.94,177.317l5.04-5.04"/>
	<path class="st13" d="M62.3,148.397l-5.04-5.04 M57.26,148.397l5.04-5.04"/>
	<path class="st12" d="M62.3,148.397l-5.04-5.04 M57.26,148.397l5.04-5.04"/>
	<path class="st13" d="M75.62,123.557l-5.04-5.04 M70.58,123.557l5.04-5.04"/>
	<path class="st12" d="M75.62,123.557l-5.04-5.04 M70.58,123.557l5.04-5.04"/>
	<path class="st13" d="M129.14,95.117l-5.04-5.04 M124.1,95.117l5.04-5.04"/>
	<path class="st12" d="M129.14,95.117l-5.04-5.04 M124.1,95.117l5.04-5.04"/>
	<path class="st13" d="M182.54,125.957l-5.04-5.04 M177.5,125.957l5.04-5.04"/>
	<path class="st12" d="M182.54,125.957l-5.04-5.04 M177.5,125.957l5.04-5.04"/>
	<path class="st13" d="M262.7,173.717l-5.04-5.04 M257.66,173.717l5.04-5.04"/>
	<path class="st12" d="M262.7,173.717l-5.04-5.04 M257.66,173.717l5.04-5.04"/>
</g>
<g>
	<g>
		<text transform="matrix(1 0 0 1 32.0764 178.8456)" class="st14 st15">0</text>
	</g>
</g>
<g>
	<g>
		<text transform="matrix(1 0 0 1 24.4826 158.4862)" class="st14 st15">0.5</text>
	</g>
</g>
<g>
	<g>
		<text transform="matrix(1 0 0 1 32.0764 138.1112)" class="st14 st15">1</text>
	</g>
</g>
<g>
	<g>
		<text transform="matrix(1 0 0 1 24.4826 117.744)" class="st14 st15">1.5</text>
	</g>
</g>
<g>
	<g>
		<text transform="matrix(1 0 0 1 32.0764 97.3847)" class="st14 st15">2</text>
	</g>
</g>
<g>
	<g>
		<text transform="matrix(1 0 0 1 24.4826 77.0097)" class="st14 st15">2.5</text>
	</g>
</g>
<g>
	<g>
		<text transform="matrix(1 0 0 1 32.0764 56.6347)" class="st14 st15">3</text>
	</g>
</g>
<g>
	<g>
		<text transform="matrix(1 0 0 1 24.4826 36.2753)" class="st14 st15">3.5</text>
	</g>
</g>
<g>
	<g>
		<text transform="matrix(1 0 0 1 43.8889 191.8456)" class="st14 st15">0</text>
	</g>
</g>
<g>
	<g>
		<text transform="matrix(1 0 0 1 70.6076 191.8456)" class="st14 st15">1</text>
	</g>
</g>
<g>
	<g>
		<text transform="matrix(1 0 0 1 97.3264 191.8456)" class="st14 st15">2</text>
	</g>
</g>
<g>
	<g>
		<text transform="matrix(1 0 0 1 124.0373 191.8456)" class="st14 st15">3</text>
	</g>
</g>
<g>
	<g>
		<text transform="matrix(1 0 0 1 150.7561 191.8456)" class="st14 st15">4</text>
	</g>
</g>
<g>
	<g>
		<text transform="matrix(1 0 0 1 177.4748 191.8456)" class="st14 st15">5</text>
	</g>
</g>
<g>
	<g>
		<text transform="matrix(1 0 0 1 204.1936 191.8456)" class="st14 st15">6</text>
	</g>
</g>
<g>
	<g>
		<text transform="matrix(1 0 0 1 230.9123 191.8456)" class="st14 st15">7</text>
	</g>
</g>
<g>
	<g>
		<text transform="matrix(1 0 0 1 257.6311 191.8456)" class="st14 st15">8</text>
	</g>
</g>
<g>
	<g>
		<text transform="matrix(1.748456e-07 -1 1 1.748456e-07 13.4265 176.6204)"><tspan x="0" y="0" class="st14 st15">A</tspan><tspan x="5.763" y="0" class="st14 st15">c</tspan><tspan x="9.965" y="0" class="st14 st15">e</tspan><tspan x="14.891" y="0" class="st14 st15">ta</tspan><tspan x="23.037" y="0" class="st14 st15">l</tspan><tspan x="25.323" y="0" class="st14 st15">d</tspan><tspan x="30.596" y="0" class="st14 st15">e</tspan><tspan x="35.521" y="0" class="st14 st15">h</tspan><tspan x="40.794" y="0" class="st14 st15">y</tspan><tspan x="45.353" y="0" class="st14 st15">d</tspan><tspan x="50.625" y="0" class="st14 st15">e</tspan><tspan x="55.551" y="0" class="st14 st15"> </tspan><tspan x="57.942" y="0" class="st14 st15">c</tspan><tspan x="62.144" y="0" class="st14 st15">o</tspan><tspan x="67.416" y="0" class="st14 st15">n</tspan><tspan x="72.688" y="0" class="st14 st15">c</tspan><tspan x="76.89" y="0" class="st14 st15">e</tspan><tspan x="81.816" y="0" class="st14 st15">n</tspan><tspan x="87.089" y="0" class="st14 st15">t</tspan><tspan x="90.445" y="0" class="st14 st15">r</tspan><tspan x="93.917" y="0" class="st14 st15">a</tspan><tspan x="98.708" y="0" class="st14 st15">ti</tspan><tspan x="104.257" y="0" class="st14 st15">o</tspan><tspan x="109.529" y="0" class="st14 st15">n</tspan><tspan x="114.802" y="0" class="st14 st15"> </tspan><tspan x="117.074" y="0" class="st14 st15">(</tspan><tspan x="120.074" y="0" class="st14 st15">m</tspan><tspan x="128" y="0" class="st14 st15">g/</tspan><tspan x="136.535" y="0" class="st14 st15">L</tspan><tspan x="140.732" y="0" class="st14 st15">)</tspan></text>
	</g>
</g>
<g>
	<g>
		<text transform="matrix(1 0 0 1 139.4514 209.2675)"><tspan x="0" y="0" class="st14 st15">T</tspan><tspan x="4.804" y="0" class="st14 st15">i</tspan><tspan x="7.089" y="0" class="st14 st15">me</tspan><tspan x="19.942" y="0" class="st14 st15"> </tspan><tspan x="22.452" y="0" class="st14 st15">(</tspan><tspan x="25.453" y="0" class="st14 st15">h</tspan><tspan x="30.725" y="0" class="st14 st15">)</tspan></text>
	</g>
</g>
<g>
	<line class="st16" x1="273.445" y1="53.756" x2="292.645" y2="53.756"/>
</g>
<g>
	<polygon class="st2" points="282.985,51.776 284.905,53.696 282.985,55.616 281.065,53.696 282.985,51.776 	"/>
	<polygon class="st3" points="282.985,51.776 284.905,53.696 282.985,55.616 281.065,53.696 282.985,51.776 	"/>
</g>
<g>
	<g>
		<text transform="matrix(1 0 0 1 294.6389 56.0253)"><tspan x="0" y="0" class="st14 st17">N</tspan><tspan x="5.166" y="0" class="st14 st17">o</tspan><tspan x="9.373" y="0" class="st14 st17">r</tspan><tspan x="12.136" y="0" class="st14 st17">m</tspan><tspan x="18.615" y="0" class="st14 st17">a</tspan><tspan x="22.458" y="0" class="st14 st17">l</tspan></text>
	</g>
</g>
<g>
	<line class="st18" x1="273.445" y1="80.996" x2="292.645" y2="80.996"/>
</g>
<g>
	<polygon class="st5" points="280.945,78.896 284.905,78.896 284.905,82.856 280.945,82.856 280.945,78.896 	"/>
	<polygon class="st6" points="280.945,78.896 284.905,78.896 284.905,82.856 280.945,82.856 280.945,78.896 	"/>
</g>
<g>
	<g>
		<text transform="matrix(1 0 0 1 294.6389 83.2518)"><tspan x="0" y="0" class="st14 st17">E</tspan><tspan x="3.958" y="0" class="st14 st17">t</tspan><tspan x="6.603" y="0" class="st14 st17">O</tspan><tspan x="11.886" y="0" class="st14 st17">H</tspan><tspan x="16.919" y="0" class="st14 st17"> </tspan><tspan x="18.721" y="0" class="st14 st17">o</tspan><tspan x="22.929" y="0" class="st14 st17">n</tspan><tspan x="27.129" y="0" class="st14 st17">l</tspan><tspan x="28.934" y="0" class="st14 st17">y</tspan></text>
	</g>
</g>
<g>
	<line class="st19" x1="273.445" y1="108.236" x2="292.645" y2="108.236"/>
</g>
<g>
	<polygon class="st8" points="282.985,106.256 284.905,110.096 281.065,110.096 282.985,106.256 	"/>
	<polygon class="st9" points="282.985,106.256 284.905,110.096 281.065,110.096 282.985,106.256 	"/>
</g>
<g>
	<g>
		<text transform="matrix(1 0 0 1 294.6389 123.3847)"><tspan x="0" y="0" class="st14 st17">300</tspan><tspan x="12.225" y="0" class="st14 st17"> </tspan><tspan x="13.906" y="0" class="st14 st17">m</tspan><tspan x="20.385" y="0" class="st14 st17">g</tspan><tspan x="24.218" y="0" class="st14 st17">/</tspan><tspan x="27.331" y="0" class="st14 st17">k</tspan><tspan x="30.938" y="0" class="st14 st17">g</tspan></text>
	</g>
</g>
<g>
	<line class="st20" x1="273.445" y1="135.476" x2="292.645" y2="135.476"/>
</g>
<g>
	<polygon class="st11" points="281.065,133.496 284.905,133.496 284.905,137.336 281.065,137.336 281.065,133.496 	"/>
	<polygon class="st12" points="281.065,133.496 284.905,133.496 284.905,137.336 281.065,137.336 281.065,133.496 	"/>
</g>
<g>
	<path class="st13" d="M284.905,137.336l-3.84-3.84 M281.065,137.336l3.84-3.84"/>
	<path class="st12" d="M284.905,137.336l-3.84-3.84 M281.065,137.336l3.84-3.84"/>
</g>
<g>
	<g>
		<text transform="matrix(1 0 0 1 294.6389 150.619)"><tspan x="0" y="0" class="st14 st17">208</tspan><tspan x="12.225" y="0" class="st14 st17"> </tspan><tspan x="13.906" y="0" class="st14 st17">m</tspan><tspan x="20.385" y="0" class="st14 st17">g</tspan><tspan x="24.218" y="0" class="st14 st17">/</tspan><tspan x="27.331" y="0" class="st14 st17">k</tspan><tspan x="30.938" y="0" class="st14 st17">g</tspan></text>
	</g>
</g>
<g>
	<path class="st0" d="M390.505,158.816h196.92 M390.505,140.816h196.92 M390.505,122.816h196.92 M390.505,104.816h196.92
		 M390.505,86.816h196.92 M390.505,68.816h196.92 M390.505,50.816h196.92 M390.505,32.696h196.92"/>
</g>
<g>
	<defs>
		<polygon id="SVGID_00000112634948657639757690000009687895382511441851_" points="390.385,177.536 588.145,177.536 
			588.145,32.696 390.385,32.696 390.385,177.536 		"/>
	</defs>
	<clipPath id="SVGID_00000042015533477421711330000010729432368117284481_">
		<use xlink:href="#SVGID_00000112634948657639757690000009687895382511441851_"  style="overflow:visible;"/>
	</clipPath>
	
		<polygon style="clip-path:url(#SVGID_00000042015533477421711330000010729432368117284481_);fill-rule:evenodd;clip-rule:evenodd;fill:#0E0E0E;" points="
		454.465,40.256 474.145,40.256 474.145,176.816 454.465,176.816 454.465,40.256 	"/>
	
		<polygon style="clip-path:url(#SVGID_00000042015533477421711330000010729432368117284481_);fill:none;stroke:#000000;stroke-width:0.72;stroke-linejoin:round;stroke-miterlimit:10;" points="
		454.465,40.256 474.145,40.256 474.145,176.816 454.465,176.816 454.465,40.256 	"/>
</g>
<g>
	<defs>
		<polygon id="SVGID_00000106835664609104827230000003320524043507574207_" points="390.385,177.536 588.145,177.536 
			588.145,32.696 390.385,32.696 390.385,177.536 		"/>
	</defs>
	<clipPath id="SVGID_00000034809183153763630570000015888859620601609606_">
		<use xlink:href="#SVGID_00000106835664609104827230000003320524043507574207_"  style="overflow:visible;"/>
	</clipPath>
	
		<polygon style="clip-path:url(#SVGID_00000034809183153763630570000015888859620601609606_);fill-rule:evenodd;clip-rule:evenodd;fill:#90AAD8;" points="
		503.785,62.576 523.465,62.576 523.465,176.816 503.785,176.816 503.785,62.576 	"/>
	
		<polygon style="clip-path:url(#SVGID_00000034809183153763630570000015888859620601609606_);fill:none;stroke:#000000;stroke-width:0.72;stroke-linejoin:round;stroke-miterlimit:10;" points="
		503.785,62.576 523.465,62.576 523.465,176.816 503.785,176.816 503.785,62.576 	"/>
</g>
<g>
	<defs>
		<polygon id="SVGID_00000041265533265892919320000010848771011828818342_" points="390.385,177.536 588.145,177.536 
			588.145,32.696 390.385,32.696 390.385,177.536 		"/>
	</defs>
	<clipPath id="SVGID_00000076565836024758753140000005893481272085828244_">
		<use xlink:href="#SVGID_00000041265533265892919320000010848771011828818342_"  style="overflow:visible;"/>
	</clipPath>
	
		<polygon style="clip-path:url(#SVGID_00000076565836024758753140000005893481272085828244_);fill-rule:evenodd;clip-rule:evenodd;fill:#7B5CA3;" points="
		552.985,90.656 572.665,90.656 572.665,176.816 552.985,176.816 552.985,90.656 	"/>
	
		<polygon style="clip-path:url(#SVGID_00000076565836024758753140000005893481272085828244_);fill:none;stroke:#000000;stroke-width:0.72;stroke-linejoin:round;stroke-miterlimit:10;" points="
		552.985,90.656 572.665,90.656 572.665,176.816 552.985,176.816 552.985,90.656 	"/>
</g>
<g>
	<line class="st0" x1="390.505" y1="176.816" x2="390.505" y2="32.696"/>
</g>
<g>
	<path class="st0" d="M387.265,176.816h3.24 M387.265,158.816h3.24 M387.265,140.816h3.24 M387.265,122.816h3.24 M387.265,104.816
		h3.24 M387.265,86.816h3.24 M387.265,68.816h3.24 M387.265,50.816h3.24 M387.265,32.696h3.24"/>
</g>
<g>
	<line class="st0" x1="390.505" y1="176.816" x2="587.425" y2="176.816"/>
</g>
<g>
	<path class="st0" d="M390.505,176.816v3.12 M439.705,176.816v3.12 M489.025,176.816v3.12 M538.225,176.816v3.12 M587.425,176.816
		v3.12"/>
</g>
<g>
	<g>
		<text transform="matrix(1 0 0 1 376.1233 179.6347)" class="st14 st15">0</text>
	</g>
</g>
<g>
	<g>
		<text transform="matrix(1 0 0 1 376.1233 161.6268)" class="st14 st15">2</text>
	</g>
</g>
<g>
	<g>
		<text transform="matrix(1 0 0 1 376.1233 143.619)" class="st14 st15">4</text>
	</g>
</g>
<g>
	<g>
		<text transform="matrix(1 0 0 1 376.1233 125.6112)" class="st14 st15">6</text>
	</g>
</g>
<g>
	<g>
		<text transform="matrix(1 0 0 1 376.1233 107.6034)" class="st14 st15">8</text>
	</g>
</g>
<g>
	<g>
		<text transform="matrix(1 0 0 1 371.0529 89.5956)" class="st14 st15">10</text>
	</g>
</g>
<g>
	<g>
		<text transform="matrix(1 0 0 1 371.0529 71.5878)" class="st14 st15">12</text>
	</g>
</g>
<g>
	<g>
		<text transform="matrix(1 0 0 1 371.0529 53.58)" class="st14 st15">14</text>
	</g>
</g>
<g>
	<g>
		<text transform="matrix(1 0 0 1 371.0529 35.5722)" class="st14 st15">16</text>
	</g>
</g>
<g>
	<g>
		<text transform="matrix(1 0 0 1 399.9514 192.6347)"><tspan x="0" y="0" class="st14 st15">N</tspan><tspan x="6.479" y="0" class="st14 st15">o</tspan><tspan x="11.751" y="0" class="st14 st15">r</tspan><tspan x="15.224" y="0" class="st14 st15">m</tspan><tspan x="23.15" y="0" class="st14 st15">a</tspan><tspan x="27.941" y="0" class="st14 st15">l</tspan></text>
	</g>
</g>
<g>
	<g>
		<text transform="matrix(1 0 0 1 442.8654 192.6347)"><tspan x="0" y="0" class="st14 st15"> </tspan><tspan x="2.271" y="0" class="st14 st15">E</tspan><tspan x="7.185" y="0" class="st14 st15">t</tspan><tspan x="10.432" y="0" class="st14 st15">O</tspan><tspan x="17.146" y="0" class="st14 st15">H</tspan><tspan x="23.381" y="0" class="st14 st15"> </tspan><tspan x="25.543" y="0" class="st14 st15">o</tspan><tspan x="30.815" y="0" class="st14 st15">n</tspan><tspan x="36.088" y="0" class="st14 st15">ly</tspan></text>
	</g>
</g>
<polygon class="st27" points="362.065,215.216 598.465,215.216 598.465,180.656 362.065,180.656 362.065,215.216 "/>
<g>
	<defs>
		<polygon id="SVGID_00000081635455139514307920000013551200768979500928_" points="362.065,215.216 598.465,215.216 
			598.465,180.656 362.065,180.656 362.065,215.216 		"/>
	</defs>
	<clipPath id="SVGID_00000009579245221777727530000001533626282524660926_">
		<use xlink:href="#SVGID_00000081635455139514307920000013551200768979500928_"  style="overflow:visible;"/>
	</clipPath>
	<g style="clip-path:url(#SVGID_00000009579245221777727530000001533626282524660926_);">
		<defs>
			<rect id="SVGID_00000121992804870363081180000015470480728604216234_" x="362.065" y="180.656" width="236.4" height="34.56"/>
		</defs>
		<clipPath id="SVGID_00000089552096844749656860000009438579469399765905_">
			<use xlink:href="#SVGID_00000121992804870363081180000015470480728604216234_"  style="overflow:visible;"/>
		</clipPath>
		<g style="clip-path:url(#SVGID_00000089552096844749656860000009438579469399765905_);">
			<text transform="matrix(1 0 0 1 491.9748 209.9159)"><tspan x="0" y="0" class="st14 st15">300</tspan><tspan x="15.145" y="0" class="st14 st15"> </tspan><tspan x="17.535" y="0" class="st14 st15">m</tspan><tspan x="25.462" y="0" class="st14 st15">g/</tspan><tspan x="33.997" y="0" class="st14 st15">k</tspan><tspan x="38.555" y="0" class="st14 st15">g</tspan></text>
		</g>
	</g>
</g>
<g>
	<defs>
		<polygon id="SVGID_00000096025755815866063470000003016172997312811933_" points="406.945,215.216 598.465,215.216 
			598.465,180.656 406.945,180.656 406.945,215.216 		"/>
	</defs>
	<clipPath id="SVGID_00000028290883666127476860000016972786638180196273_">
		<use xlink:href="#SVGID_00000096025755815866063470000003016172997312811933_"  style="overflow:visible;"/>
	</clipPath>
	<g style="clip-path:url(#SVGID_00000028290883666127476860000016972786638180196273_);">
		<defs>
			<rect id="SVGID_00000044149260176637621900000001050812285284105622_" x="406.945" y="180.656" width="191.52" height="34.56"/>
		</defs>
		<clipPath id="SVGID_00000105414279813841101460000017439757557493110170_">
			<use xlink:href="#SVGID_00000044149260176637621900000001050812285284105622_"  style="overflow:visible;"/>
		</clipPath>
		<g style="clip-path:url(#SVGID_00000105414279813841101460000017439757557493110170_);">
			<text transform="matrix(1 0 0 1 541.2249 209.9159)"><tspan x="0" y="0" class="st14 st15">208</tspan><tspan x="15.145" y="0" class="st14 st15"> </tspan><tspan x="17.535" y="0" class="st14 st15">m</tspan><tspan x="25.462" y="0" class="st14 st15">g/</tspan><tspan x="33.997" y="0" class="st14 st15">k</tspan><tspan x="38.555" y="0" class="st14 st15">g</tspan></text>
		</g>
	</g>
</g>
<g>
	<g>
		<text transform="matrix(1.748456e-07 -1 1 1.748456e-07 364.7507 152.0658)"><tspan x="0" y="0" class="st14 st15">B</tspan><tspan x="5.408" y="0" class="st14 st15">l</tspan><tspan x="7.693" y="0" class="st14 st15">oo</tspan><tspan x="18.238" y="0" class="st14 st15">d</tspan><tspan x="23.511" y="0" class="st14 st15"> </tspan><tspan x="25.782" y="0" class="st14 st15">A</tspan><tspan x="31.545" y="0" class="st14 st15">c</tspan><tspan x="35.747" y="0" class="st14 st15">e</tspan><tspan x="40.673" y="0" class="st14 st15">ta</tspan><tspan x="48.82" y="0" class="st14 st15">l</tspan><tspan x="51.105" y="0" class="st14 st15">d</tspan><tspan x="56.378" y="0" class="st14 st15">e</tspan><tspan x="61.304" y="0" class="st14 st15">h</tspan><tspan x="66.577" y="0" class="st14 st15">y</tspan><tspan x="71.135" y="0" class="st14 st15">d</tspan><tspan x="76.407" y="0" class="st14 st15">e</tspan><tspan x="81.333" y="0" class="st14 st15"> </tspan><tspan x="83.724" y="0" class="st14 st15">A</tspan><tspan x="89.487" y="0" class="st14 st15">U</tspan><tspan x="95.848" y="0" class="st14 st15">C</tspan></text>
	</g>
</g>
<g>
	<g>
		<g>
			<text transform="matrix(1 0 0 1 406.9672 19.7223)" class="st32 st33">혈중 아세트알데히드 누적농도</text>
		</g>
	</g>
</g>
<g>
	<g>
		<line class="st34" x1="398.185" y1="39.656" x2="579.784" y2="39.656"/>
	</g>
</g>
<text transform="matrix(1 0 0 1 295.0407 111.4096)" class="st32 st35">경쟁사제품</text>
<text transform="matrix(1 0 0 1 494.6072 192.6347)" class="st32 st36">경쟁사제품</text>
<text transform="matrix(1 0 0 1 295.0407 138.111)" class="st32 st35">헤미셀란 제품</text>
<text transform="matrix(1 0 0 1 541.5961 191.9351)" class="st32 st36">헤미셀란 제품</text>
<text transform="matrix(1 0 0 1 88.0525 19.7224)" class="st32 st33">혈중 아세트알데히드</text>
</svg>
