<?xml version="1.0" encoding="utf-8"?>
<!-- Generator: Adobe Illustrator 28.0.0, SVG Export Plug-In . SVG Version: 6.00 Build 0)  -->
<svg version="1.1" id="레이어_1" xmlns="http://www.w3.org/2000/svg" xmlns:xlink="http://www.w3.org/1999/xlink" x="0px"
	 y="0px" viewBox="0 0 564.5 199.7" style="enable-background:new 0 0 564.5 199.7;" xml:space="preserve">
<style type="text/css">
	.st0{fill:#FFFFFF;}
	.st1{fill:none;stroke:#898989;stroke-width:0.4097;stroke-linejoin:round;stroke-miterlimit:10;}
	
		.st2{clip-path:url(#SVGID_00000175311744726912232570000008739430269534073521_);fill:none;stroke:#7F7F7F;stroke-width:1.3314;stroke-linecap:round;stroke-linejoin:round;stroke-miterlimit:10;}
	.st3{fill:#7F7F7F;}
	.st4{fill:none;stroke:#7F7F7F;stroke-width:0.4097;stroke-linejoin:round;stroke-miterlimit:10;}
	
		.st5{clip-path:url(#SVGID_00000152983381017157440810000006774221840083570357_);fill:none;stroke:#0E0E0E;stroke-width:1.3314;stroke-linecap:round;stroke-linejoin:round;stroke-miterlimit:10;}
	.st6{fill-rule:evenodd;clip-rule:evenodd;fill:#0E0E0E;}
	.st7{fill:none;stroke:#0E0E0E;stroke-width:0.4097;stroke-linejoin:round;stroke-miterlimit:10;}
	
		.st8{clip-path:url(#SVGID_00000072997734032876104240000003664820559100454067_);fill:none;stroke:#90AAD8;stroke-width:1.3314;stroke-linecap:round;stroke-linejoin:round;stroke-miterlimit:10;}
	.st9{fill-rule:evenodd;clip-rule:evenodd;fill:#90AAD8;}
	.st10{fill:none;stroke:#90AAD8;stroke-width:0.4097;stroke-linejoin:round;stroke-miterlimit:10;}
	.st11{fill:#90AAD8;}
	
		.st12{clip-path:url(#SVGID_00000172398436876882122330000009553323271947025287_);fill:none;stroke:#CCC0DB;stroke-width:1.3314;stroke-linecap:round;stroke-linejoin:round;stroke-miterlimit:10;}
	.st13{fill:#CCC0DB;}
	.st14{fill:none;stroke:#CCC0DB;stroke-width:0.4097;stroke-linejoin:round;stroke-miterlimit:10;}
	
		.st15{clip-path:url(#SVGID_00000132083598297187523220000007098659633749526189_);fill:none;stroke:#9D86BB;stroke-width:1.3314;stroke-linecap:round;stroke-linejoin:round;stroke-miterlimit:10;}
	.st16{fill:#9D86BB;}
	.st17{fill:none;stroke:#9D86BB;stroke-width:0.4097;stroke-linejoin:round;stroke-miterlimit:10;}
	
		.st18{clip-path:url(#SVGID_00000078733499320525200840000002274805060036556427_);fill:none;stroke:#674E8A;stroke-width:1.3314;stroke-linecap:round;stroke-linejoin:round;stroke-miterlimit:10;}
	.st19{fill:#674E8A;}
	.st20{fill:none;stroke:#674E8A;stroke-width:0.4097;stroke-linejoin:round;stroke-miterlimit:10;}
	.st21{font-family:'Calibri';}
	.st22{font-size:8.5004px;}
	.st23{font-family:'Calibri-Bold';}
	.st24{font-size:11.9825px;}
	.st25{fill:none;stroke:#898989;stroke-width:0.4269;stroke-linejoin:round;stroke-miterlimit:10;}
	
		.st26{clip-path:url(#SVGID_00000017487987756680209680000004660074336084459427_);fill:none;stroke:#7F7F7F;stroke-width:1.3874;stroke-linecap:round;stroke-linejoin:round;stroke-miterlimit:10;}
	.st27{fill:none;stroke:#7F7F7F;stroke-width:0.4269;stroke-linejoin:round;stroke-miterlimit:10;}
	
		.st28{clip-path:url(#SVGID_00000119840174329520723530000016174628013448333475_);fill:none;stroke:#0E0E0E;stroke-width:1.3874;stroke-linecap:round;stroke-linejoin:round;stroke-miterlimit:10;}
	.st29{fill:none;stroke:#0E0E0E;stroke-width:0.4269;stroke-linejoin:round;stroke-miterlimit:10;}
	
		.st30{clip-path:url(#SVGID_00000116943659461171821800000014307782675626530214_);fill:none;stroke:#90AAD8;stroke-width:1.3874;stroke-linecap:round;stroke-linejoin:round;stroke-miterlimit:10;}
	.st31{fill:none;stroke:#90AAD8;stroke-width:0.4269;stroke-linejoin:round;stroke-miterlimit:10;}
	
		.st32{clip-path:url(#SVGID_00000111884639332327136440000010713956005516212630_);fill:none;stroke:#CCC0DB;stroke-width:1.3874;stroke-linecap:round;stroke-linejoin:round;stroke-miterlimit:10;}
	.st33{fill:none;stroke:#CCC0DB;stroke-width:0.4269;stroke-linejoin:round;stroke-miterlimit:10;}
	
		.st34{clip-path:url(#SVGID_00000047780481369018649840000015618190321237185172_);fill:none;stroke:#9D86BB;stroke-width:1.3874;stroke-linecap:round;stroke-linejoin:round;stroke-miterlimit:10;}
	.st35{fill:none;stroke:#9D86BB;stroke-width:0.4269;stroke-linejoin:round;stroke-miterlimit:10;}
	
		.st36{clip-path:url(#SVGID_00000031901464607816365550000004844779862797889429_);fill:none;stroke:#674E8A;stroke-width:1.3874;stroke-linecap:round;stroke-linejoin:round;stroke-miterlimit:10;}
	.st37{fill:none;stroke:#674E8A;stroke-width:0.4269;stroke-linejoin:round;stroke-miterlimit:10;}
	.st38{font-size:8.8583px;}
	.st39{font-size:12.487px;}
	.st40{fill:none;stroke:#7F7F7F;stroke-width:1.3314;stroke-linecap:round;stroke-linejoin:round;stroke-miterlimit:10;}
	.st41{font-size:6.8617px;}
	.st42{fill:none;stroke:#0E0E0E;stroke-width:1.3314;stroke-linecap:round;stroke-linejoin:round;stroke-miterlimit:10;}
	.st43{fill:none;stroke:#90AAD8;stroke-width:1.3314;stroke-linecap:round;stroke-linejoin:round;stroke-miterlimit:10;}
	.st44{fill:none;stroke:#CCC0DB;stroke-width:1.3314;stroke-linecap:round;stroke-linejoin:round;stroke-miterlimit:10;}
	.st45{font-family:'MalgunGothic';}
	.st46{fill:none;stroke:#9D86BB;stroke-width:1.3314;stroke-linecap:round;stroke-linejoin:round;stroke-miterlimit:10;}
	.st47{fill:none;stroke:#674E8A;stroke-width:1.3314;stroke-linecap:round;stroke-linejoin:round;stroke-miterlimit:10;}
	.st48{font-family:'AppleSDGothicNeoEB00';}
	.st49{font-size:7.742px;}
</style>
<rect class="st0" width="564.5" height="199.7"/>
<g>
	<path class="st1" d="M43.5,137.5h176.2 M43.5,117.1h176.2 M43.5,96.7h176.2 M43.5,76.2h176.2 M43.5,55.8h176.2 M43.5,35.3h176.2"/>
</g>
<g>
	<line class="st1" x1="43.5" y1="157.9" x2="43.5" y2="35.3"/>
</g>
<g>
	<path class="st1" d="M40.8,157.9h2.8 M40.8,137.5h2.8 M40.8,117.1h2.8 M40.8,96.7h2.8 M40.8,76.2h2.8 M40.8,55.8h2.8 M40.8,35.3
		h2.8"/>
</g>
<g>
	<line class="st1" x1="43.5" y1="157.9" x2="219.7" y2="157.9"/>
</g>
<g>
	<path class="st1" d="M43.5,157.9v2.8 M65.6,157.9v2.8 M87.6,157.9v2.8 M109.6,157.9v2.8 M131.6,157.9v2.8 M153.6,157.9v2.8
		 M175.7,157.9v2.8 M197.7,157.9v2.8 M219.7,157.9v2.8"/>
</g>
<g>
	<g>
		<defs>
			<rect id="SVGID_1_" x="43.4" y="35.3" width="176.8" height="123.2"/>
		</defs>
		<clipPath id="SVGID_00000062906628162207519100000009881575099125305483_">
			<use xlink:href="#SVGID_1_"  style="overflow:visible;"/>
		</clipPath>
		
			<polyline style="clip-path:url(#SVGID_00000062906628162207519100000009881575099125305483_);fill:none;stroke:#7F7F7F;stroke-width:1.3314;stroke-linecap:round;stroke-linejoin:round;stroke-miterlimit:10;" points="
			43.5,158 54.5,158 65.5,158 109.5,158 153.6,158 219.6,158 		"/>
	</g>
</g>
<g>
	<polygon class="st3" points="43.6,155.8 45.7,157.9 43.6,160.1 41.4,157.9 	"/>
	<polygon class="st4" points="43.6,155.8 45.7,157.9 43.6,160.1 41.4,157.9 	"/>
	<polygon class="st3" points="54.5,155.8 56.7,157.9 54.5,160.1 52.4,157.9 	"/>
	<polygon class="st4" points="54.5,155.8 56.7,157.9 54.5,160.1 52.4,157.9 	"/>
	<polygon class="st3" points="65.6,155.8 67.7,157.9 65.6,160.1 63.4,157.9 	"/>
	<polygon class="st4" points="65.6,155.8 67.7,157.9 65.6,160.1 63.4,157.9 	"/>
	<polygon class="st3" points="109.6,155.8 111.8,157.9 109.6,160.1 107.5,157.9 	"/>
	<polygon class="st4" points="109.6,155.8 111.8,157.9 109.6,160.1 107.5,157.9 	"/>
	<polygon class="st3" points="153.6,155.8 155.8,157.9 153.6,160.1 151.5,157.9 	"/>
	<polygon class="st4" points="153.6,155.8 155.8,157.9 153.6,160.1 151.5,157.9 	"/>
	<polygon class="st3" points="219.7,155.8 221.9,157.9 219.7,160.1 217.6,157.9 	"/>
	<polygon class="st4" points="219.7,155.8 221.9,157.9 219.7,160.1 217.6,157.9 	"/>
</g>
<g>
	<g>
		<defs>
			<rect id="SVGID_00000122704702167281612920000002891598634274707640_" x="43.4" y="35.3" width="176.8" height="123.2"/>
		</defs>
		<clipPath id="SVGID_00000123405679546850231040000014862275681932720574_">
			<use xlink:href="#SVGID_00000122704702167281612920000002891598634274707640_"  style="overflow:visible;"/>
		</clipPath>
		
			<polyline style="clip-path:url(#SVGID_00000123405679546850231040000014862275681932720574_);fill:none;stroke:#0E0E0E;stroke-width:1.3314;stroke-linecap:round;stroke-linejoin:round;stroke-miterlimit:10;" points="
			43.5,156.7 54.5,71.7 65.5,51.3 109.5,63.1 153.6,74.6 219.6,130.5 		"/>
	</g>
</g>
<g>
	<polygon class="st6" points="41.4,154.6 45.7,154.6 45.7,158.9 41.4,158.9 	"/>
	<polygon class="st7" points="41.4,154.6 45.7,154.6 45.7,158.9 41.4,158.9 	"/>
	<polygon class="st6" points="52.4,69.6 56.7,69.6 56.7,73.9 52.4,73.9 	"/>
	<polygon class="st7" points="52.4,69.6 56.7,69.6 56.7,73.9 52.4,73.9 	"/>
	<polygon class="st6" points="63.4,49.2 67.7,49.2 67.7,53.5 63.4,53.5 	"/>
	<polygon class="st7" points="63.4,49.2 67.7,49.2 67.7,53.5 63.4,53.5 	"/>
	<polygon class="st6" points="107.5,61.1 111.8,61.1 111.8,65.4 107.5,65.4 	"/>
	<polygon class="st7" points="107.5,61.1 111.8,61.1 111.8,65.4 107.5,65.4 	"/>
	<polygon class="st6" points="151.5,72.4 155.8,72.4 155.8,76.7 151.5,76.7 	"/>
	<polygon class="st7" points="151.5,72.4 155.8,72.4 155.8,76.7 151.5,76.7 	"/>
	<polygon class="st6" points="217.6,128.4 221.9,128.4 221.9,132.7 217.6,132.7 	"/>
	<polygon class="st7" points="217.6,128.4 221.9,128.4 221.9,132.7 217.6,132.7 	"/>
</g>
<g>
	<g>
		<defs>
			<rect id="SVGID_00000168830589165109270920000010549152368654935191_" x="43.4" y="35.3" width="176.8" height="123.2"/>
		</defs>
		<clipPath id="SVGID_00000096019954484092729670000017983476921648880797_">
			<use xlink:href="#SVGID_00000168830589165109270920000010549152368654935191_"  style="overflow:visible;"/>
		</clipPath>
		
			<polyline style="clip-path:url(#SVGID_00000096019954484092729670000017983476921648880797_);fill:none;stroke:#90AAD8;stroke-width:1.3314;stroke-linecap:round;stroke-linejoin:round;stroke-miterlimit:10;" points="
			43.5,155.5 54.5,80.3 65.5,66 109.5,82 153.6,94.6 219.6,137.9 		"/>
	</g>
</g>
<g>
	<polygon class="st9" points="40.6,152.5 46.5,152.5 46.5,158.4 40.6,158.4 	"/>
	<polygon class="st10" points="40.6,152.5 46.5,152.5 46.5,158.4 40.6,158.4 	"/>
	<polygon class="st9" points="51.5,77.3 57.5,77.3 57.5,83.3 51.5,83.3 	"/>
	<polygon class="st10" points="51.5,77.3 57.5,77.3 57.5,83.3 51.5,83.3 	"/>
	<polygon class="st9" points="62.6,63.1 68.5,63.1 68.5,69 62.6,69 	"/>
	<polygon class="st10" points="62.6,63.1 68.5,63.1 68.5,69 62.6,69 	"/>
	<polygon class="st9" points="106.6,79 112.6,79 112.6,84.9 106.6,84.9 	"/>
	<polygon class="st10" points="106.6,79 112.6,79 112.6,84.9 106.6,84.9 	"/>
	<polygon class="st9" points="150.7,91.7 156.6,91.7 156.6,97.6 150.7,97.6 	"/>
	<polygon class="st10" points="150.7,91.7 156.6,91.7 156.6,97.6 150.7,97.6 	"/>
	<polygon class="st9" points="216.7,135 222.7,135 222.7,140.9 216.7,140.9 	"/>
	<polygon class="st10" points="216.7,135 222.7,135 222.7,140.9 216.7,140.9 	"/>
</g>
<g>
	<path class="st11" d="M43.6,152.5v5.9 M40.6,155.5h5.9"/>
	<path class="st10" d="M43.6,152.5v5.9 M40.6,155.5h5.9"/>
	<path class="st11" d="M54.5,77.3v5.9 M51.5,80.3h5.9"/>
	<path class="st10" d="M54.5,77.3v5.9 M51.5,80.3h5.9"/>
	<path class="st11" d="M65.6,63.1V69 M62.6,66.1h5.9"/>
	<path class="st10" d="M65.6,63.1V69 M62.6,66.1h5.9"/>
	<path class="st11" d="M109.6,79v5.9 M106.6,81.9h5.9"/>
	<path class="st10" d="M109.6,79v5.9 M106.6,81.9h5.9"/>
	<path class="st11" d="M153.6,91.7v5.9 M150.7,94.6h5.9"/>
	<path class="st10" d="M153.6,91.7v5.9 M150.7,94.6h5.9"/>
	<path class="st11" d="M219.7,135v5.9 M216.7,138h5.9"/>
	<path class="st10" d="M219.7,135v5.9 M216.7,138h5.9"/>
</g>
<g>
	<g>
		<defs>
			<rect id="SVGID_00000154417270770743752620000008934842295991219587_" x="43.4" y="35.3" width="176.8" height="123.2"/>
		</defs>
		<clipPath id="SVGID_00000065066245384307294620000008916392932001361837_">
			<use xlink:href="#SVGID_00000154417270770743752620000008934842295991219587_"  style="overflow:visible;"/>
		</clipPath>
		
			<polyline style="clip-path:url(#SVGID_00000065066245384307294620000008916392932001361837_);fill:none;stroke:#CCC0DB;stroke-width:1.3314;stroke-linecap:round;stroke-linejoin:round;stroke-miterlimit:10;" points="
			43.5,153.1 54.5,75 65.5,63.5 109.5,75 153.6,83.2 219.6,133.8 		"/>
	</g>
</g>
<g>
	<path class="st13" d="M45.7,153c0,1.2-1,2.2-2.2,2.2s-2.2-1-2.2-2.2s1-2.2,2.2-2.2S45.7,151.8,45.7,153L45.7,153z"/>
	<path class="st14" d="M45.7,153c0,1.2-1,2.2-2.2,2.2s-2.2-1-2.2-2.2s1-2.2,2.2-2.2S45.7,151.8,45.7,153L45.7,153z"/>
	<path class="st13" d="M56.7,75c0,1.2-1,2.2-2.2,2.2s-2.2-1-2.2-2.2s1-2.2,2.2-2.2S56.7,73.8,56.7,75L56.7,75z"/>
	<path class="st14" d="M56.7,75c0,1.2-1,2.2-2.2,2.2s-2.2-1-2.2-2.2s1-2.2,2.2-2.2S56.7,73.8,56.7,75L56.7,75z"/>
	<path class="st13" d="M67.7,63.6c0,1.2-1,2.2-2.2,2.2s-2.2-1-2.2-2.2c0-1.2,1-2.2,2.2-2.2C66.8,61.5,67.7,62.4,67.7,63.6L67.7,63.6
		z"/>
	<path class="st14" d="M67.7,63.6c0,1.2-1,2.2-2.2,2.2s-2.2-1-2.2-2.2c0-1.2,1-2.2,2.2-2.2C66.8,61.5,67.7,62.4,67.7,63.6L67.7,63.6
		z"/>
	<path class="st13" d="M111.8,75c0,1.2-1,2.2-2.2,2.2s-2.2-1-2.2-2.2s1-2.2,2.2-2.2S111.8,73.8,111.8,75L111.8,75z"/>
	<path class="st14" d="M111.8,75c0,1.2-1,2.2-2.2,2.2s-2.2-1-2.2-2.2s1-2.2,2.2-2.2S111.8,73.8,111.8,75L111.8,75z"/>
	<path class="st13" d="M155.8,83.2c0,1.2-1,2.2-2.2,2.2s-2.2-1-2.2-2.2s1-2.2,2.2-2.2C154.8,81,155.8,82,155.8,83.2L155.8,83.2z"/>
	<path class="st14" d="M155.8,83.2c0,1.2-1,2.2-2.2,2.2s-2.2-1-2.2-2.2s1-2.2,2.2-2.2C154.8,81,155.8,82,155.8,83.2L155.8,83.2z"/>
	<path class="st13" d="M221.9,133.9c0,1.2-1,2.2-2.2,2.2s-2.2-1-2.2-2.2s1-2.2,2.2-2.2S221.9,132.7,221.9,133.9L221.9,133.9z"/>
	<path class="st14" d="M221.9,133.9c0,1.2-1,2.2-2.2,2.2s-2.2-1-2.2-2.2s1-2.2,2.2-2.2S221.9,132.7,221.9,133.9L221.9,133.9z"/>
</g>
<g>
	<g>
		<defs>
			<rect id="SVGID_00000170975811440937330220000003903708215977677198_" x="43.4" y="35.3" width="176.8" height="123.2"/>
		</defs>
		<clipPath id="SVGID_00000072977426180375954520000002575073208825553301_">
			<use xlink:href="#SVGID_00000170975811440937330220000003903708215977677198_"  style="overflow:visible;"/>
		</clipPath>
		
			<polyline style="clip-path:url(#SVGID_00000072977426180375954520000002575073208825553301_);fill:none;stroke:#9D86BB;stroke-width:1.3314;stroke-linecap:round;stroke-linejoin:round;stroke-miterlimit:10;" points="
			43.5,159.6 54.5,81.2 65.5,64 109.5,83.2 153.6,93.8 219.6,137.1 		"/>
	</g>
</g>
<g>
	<path class="st16" d="M56.7,81.1c0,1.2-1,2.2-2.2,2.2s-2.2-1-2.2-2.2s1-2.2,2.2-2.2S56.7,79.9,56.7,81.1L56.7,81.1z"/>
	<path class="st17" d="M56.7,81.1c0,1.2-1,2.2-2.2,2.2s-2.2-1-2.2-2.2s1-2.2,2.2-2.2S56.7,79.9,56.7,81.1L56.7,81.1z"/>
	<path class="st16" d="M67.7,64c0,1.2-1,2.2-2.2,2.2s-2.2-1-2.2-2.2c0-1.2,1-2.2,2.2-2.2C66.8,61.9,67.7,62.8,67.7,64L67.7,64z"/>
	<path class="st17" d="M67.7,64c0,1.2-1,2.2-2.2,2.2s-2.2-1-2.2-2.2c0-1.2,1-2.2,2.2-2.2C66.8,61.9,67.7,62.8,67.7,64L67.7,64z"/>
	<path class="st16" d="M111.8,83.2c0,1.2-1,2.2-2.2,2.2s-2.2-1-2.2-2.2s1-2.2,2.2-2.2S111.8,82,111.8,83.2L111.8,83.2z"/>
	<path class="st17" d="M111.8,83.2c0,1.2-1,2.2-2.2,2.2s-2.2-1-2.2-2.2s1-2.2,2.2-2.2S111.8,82,111.8,83.2L111.8,83.2z"/>
	<path class="st16" d="M155.8,93.8c0,1.2-1,2.2-2.2,2.2s-2.2-1-2.2-2.2s1-2.2,2.2-2.2C154.8,91.7,155.8,92.6,155.8,93.8L155.8,93.8z
		"/>
	<path class="st17" d="M155.8,93.8c0,1.2-1,2.2-2.2,2.2s-2.2-1-2.2-2.2s1-2.2,2.2-2.2C154.8,91.7,155.8,92.6,155.8,93.8L155.8,93.8z
		"/>
	<path class="st16" d="M221.9,137.1c0,1.2-1,2.2-2.2,2.2s-2.2-1-2.2-2.2s1-2.2,2.2-2.2S221.9,136,221.9,137.1L221.9,137.1z"/>
	<path class="st17" d="M221.9,137.1c0,1.2-1,2.2-2.2,2.2s-2.2-1-2.2-2.2s1-2.2,2.2-2.2S221.9,136,221.9,137.1L221.9,137.1z"/>
</g>
<g>
	<g>
		<defs>
			<rect id="SVGID_00000039852112668696155010000006867991512813283484_" x="43.4" y="35.3" width="176.8" height="123.2"/>
		</defs>
		<clipPath id="SVGID_00000135685236011463711400000012429876013791934876_">
			<use xlink:href="#SVGID_00000039852112668696155010000006867991512813283484_"  style="overflow:visible;"/>
		</clipPath>
		
			<polyline style="clip-path:url(#SVGID_00000135685236011463711400000012429876013791934876_);fill:none;stroke:#674E8A;stroke-width:1.3314;stroke-linecap:round;stroke-linejoin:round;stroke-miterlimit:10;" points="
			43.5,158 54.5,88.9 65.5,76.2 109.5,90.9 153.6,103.2 219.6,146.1 		"/>
	</g>
</g>
<g>
	<path class="st19" d="M45.7,157.9c0,1.2-1,2.2-2.2,2.2s-2.2-1-2.2-2.2s1-2.2,2.2-2.2S45.7,156.7,45.7,157.9L45.7,157.9z"/>
	<path class="st20" d="M45.7,157.9c0,1.2-1,2.2-2.2,2.2s-2.2-1-2.2-2.2s1-2.2,2.2-2.2S45.7,156.7,45.7,157.9L45.7,157.9z"/>
	<path class="st19" d="M56.7,88.9c0,1.2-1,2.2-2.2,2.2s-2.2-1-2.2-2.2s1-2.2,2.2-2.2S56.7,87.7,56.7,88.9L56.7,88.9z"/>
	<path class="st20" d="M56.7,88.9c0,1.2-1,2.2-2.2,2.2s-2.2-1-2.2-2.2s1-2.2,2.2-2.2S56.7,87.7,56.7,88.9L56.7,88.9z"/>
	<path class="st19" d="M67.7,76.2c0,1.2-1,2.2-2.2,2.2s-2.2-1-2.2-2.2s1-2.2,2.2-2.2C66.8,74.1,67.7,75,67.7,76.2L67.7,76.2z"/>
	<path class="st20" d="M67.7,76.2c0,1.2-1,2.2-2.2,2.2s-2.2-1-2.2-2.2s1-2.2,2.2-2.2C66.8,74.1,67.7,75,67.7,76.2L67.7,76.2z"/>
	<path class="st19" d="M111.8,91c0,1.2-1,2.2-2.2,2.2s-2.2-1-2.2-2.2s1-2.2,2.2-2.2S111.8,89.8,111.8,91L111.8,91z"/>
	<path class="st20" d="M111.8,91c0,1.2-1,2.2-2.2,2.2s-2.2-1-2.2-2.2s1-2.2,2.2-2.2S111.8,89.8,111.8,91L111.8,91z"/>
	<path class="st19" d="M155.8,103.2c0,1.2-1,2.2-2.2,2.2s-2.2-1-2.2-2.2s1-2.2,2.2-2.2C154.8,101.1,155.8,102.1,155.8,103.2
		L155.8,103.2z"/>
	<path class="st20" d="M155.8,103.2c0,1.2-1,2.2-2.2,2.2s-2.2-1-2.2-2.2s1-2.2,2.2-2.2C154.8,101.1,155.8,102.1,155.8,103.2
		L155.8,103.2z"/>
	<path class="st19" d="M221.9,146.2c0,1.2-1,2.2-2.2,2.2s-2.2-1-2.2-2.2s1-2.2,2.2-2.2S221.9,145,221.9,146.2L221.9,146.2z"/>
	<path class="st20" d="M221.9,146.2c0,1.2-1,2.2-2.2,2.2s-2.2-1-2.2-2.2s1-2.2,2.2-2.2S221.9,145,221.9,146.2L221.9,146.2z"/>
</g>
<g>
	<g>
		<text transform="matrix(1 0 0 1 31.2845 160.3572)" class="st21 st22">0</text>
	</g>
</g>
<g>
	<g>
		<text transform="matrix(1 0 0 1 24.7962 139.9275)" class="st21 st22">0.5</text>
	</g>
</g>
<g>
	<g>
		<text transform="matrix(1 0 0 1 31.2845 119.4988)" class="st21 st22">1</text>
	</g>
</g>
<g>
	<g>
		<text transform="matrix(1 0 0 1 24.7962 99.0623)" class="st21 st22">1.5</text>
	</g>
</g>
<g>
	<g>
		<text transform="matrix(1 0 0 1 31.2845 78.6326)" class="st21 st22">2</text>
	</g>
</g>
<g>
	<g>
		<text transform="matrix(1 0 0 1 24.7962 58.1971)" class="st21 st22">2.5</text>
	</g>
</g>
<g>
	<g>
		<text transform="matrix(1 0 0 1 31.2845 37.7674)" class="st21 st22">3</text>
	</g>
</g>
<g>
	<g>
		<text transform="matrix(1 0 0 1 41.3587 171.452)" class="st21 st22">0</text>
	</g>
</g>
<g>
	<g>
		<text transform="matrix(1 0 0 1 63.3753 171.452)" class="st21 st22">1</text>
	</g>
</g>
<g>
	<g>
		<text transform="matrix(1 0 0 1 85.3919 171.452)" class="st21 st22">2</text>
	</g>
</g>
<g>
	<g>
		<text transform="matrix(1 0 0 1 107.4085 171.452)" class="st21 st22">3</text>
	</g>
</g>
<g>
	<g>
		<text transform="matrix(1 0 0 1 129.4173 171.452)" class="st21 st22">4</text>
	</g>
</g>
<g>
	<g>
		<text transform="matrix(1 0 0 1 151.4339 171.452)" class="st21 st22">5</text>
	</g>
</g>
<g>
	<g>
		<text transform="matrix(1 0 0 1 173.4437 171.452)" class="st21 st22">6</text>
	</g>
</g>
<g>
	<g>
		<text transform="matrix(1 0 0 1 195.4603 171.452)" class="st21 st22">7</text>
	</g>
</g>
<g>
	<g>
		<text transform="matrix(1 0 0 1 217.4769 171.452)" class="st21 st22">8</text>
	</g>
</g>
<g>
	<g>
		<text transform="matrix(1.748456e-07 -1 1 1.748456e-07 15.3607 142.0564)" class="st21 st22">Al</text>
		<text transform="matrix(1.748456e-07 -1 1 1.748456e-07 15.3607 135.1872)" class="st21 st22">c</text>
		<text transform="matrix(1.748456e-07 -1 1 1.748456e-07 15.3607 131.6013)" class="st21 st22">o</text>
		<text transform="matrix(1.748456e-07 -1 1 1.748456e-07 15.3607 127.1013)" class="st21 st22">h</text>
		<text transform="matrix(1.748456e-07 -1 1 1.748456e-07 15.3607 122.6013)" class="st21 st22">o</text>
		<text transform="matrix(1.748456e-07 -1 1 1.748456e-07 15.3607 118.1023)" class="st21 st22">l</text>
		<text transform="matrix(1.748456e-07 -1 1 1.748456e-07 15.3607 116.1511)" class="st21 st22"> </text>
		<text transform="matrix(1.748456e-07 -1 1 1.748456e-07 15.3607 114.2116)" class="st21 st22">c</text>
		<text transform="matrix(1.748456e-07 -1 1 1.748456e-07 15.3607 110.6257)" class="st21 st22">o</text>
		<text transform="matrix(1.748456e-07 -1 1 1.748456e-07 15.3607 106.1257)" class="st21 st22">n</text>
		<text transform="matrix(1.748456e-07 -1 1 1.748456e-07 15.3607 101.6257)" class="st21 st22">c</text>
		<text transform="matrix(1.748456e-07 -1 1 1.748456e-07 15.3607 98.0407)" class="st21 st22">e</text>
		<text transform="matrix(1.748456e-07 -1 1 1.748456e-07 15.3607 93.8366)" class="st21 st22">n</text>
		<text transform="matrix(1.748456e-07 -1 1 1.748456e-07 15.3607 89.3366)" class="st21 st22">t</text>
		<text transform="matrix(1.748456e-07 -1 1 1.748456e-07 15.3607 86.4734)" class="st21 st22">r</text>
		<text transform="matrix(1.748456e-07 -1 1 1.748456e-07 15.3607 83.5085)" class="st21 st22">a</text>
		<text transform="matrix(1.748456e-07 -1 1 1.748456e-07 15.3607 79.4197)" class="st21 st22">ti</text>
		<text transform="matrix(1.748456e-07 -1 1 1.748456e-07 15.3607 74.6843)" class="st21 st22">o</text>
		<text transform="matrix(1.748456e-07 -1 1 1.748456e-07 15.3607 70.1853)" class="st21 st22">n</text>
		<text transform="matrix(1.748456e-07 -1 1 1.748456e-07 15.3607 65.6853)" class="st21 st22"> </text>
		<text transform="matrix(1.748456e-07 -1 1 1.748456e-07 15.3607 63.7458)" class="st21 st22">(</text>
		<text transform="matrix(1.748456e-07 -1 1 1.748456e-07 15.3607 61.1863)" class="st21 st22">g/</text>
		<text transform="matrix(1.748456e-07 -1 1 1.748456e-07 15.3607 53.9021)" class="st21 st22">L</text>
		<text transform="matrix(1.748456e-07 -1 1 1.748456e-07 15.3607 50.32)" class="st21 st22">)</text>
	</g>
</g>
<g>
	<g>
		<text transform="matrix(1 0 0 1 115.4154 185.408)" class="st21 st22">T</text>
		<text transform="matrix(1 0 0 1 119.5154 185.408)" class="st21 st22">i</text>
		<text transform="matrix(1 0 0 1 121.4654 185.408)" class="st21 st22">me</text>
		<text transform="matrix(1 0 0 1 132.4344 185.408)" class="st21 st22"> </text>
		<text transform="matrix(1 0 0 1 134.5774 185.408)" class="st21 st22">(</text>
		<text transform="matrix(1 0 0 1 137.1384 185.408)" class="st21 st22">h</text>
		<text transform="matrix(1 0 0 1 141.6384 185.408)" class="st21 st22">)</text>
	</g>
</g>
<g>
	<g>
		<text transform="matrix(1 0 0 1 109.262 26.8855)" class="st23 st24">B</text>
		<text transform="matrix(1 0 0 1 116.014 26.8855)" class="st23 st24">l</text>
		<text transform="matrix(1 0 0 1 118.982 26.8855)" class="st23 st24">oo</text>
		<text transform="matrix(1 0 0 1 131.865 26.8855)" class="st23 st24">d</text>
		<text transform="matrix(1 0 0 1 138.307 26.8855)" class="st23 st24"> </text>
		<text transform="matrix(1 0 0 1 140.776 26.8855)" class="st23 st24">A</text>
		<text transform="matrix(1 0 0 1 148.037 26.8855)" class="st23 st24">l</text>
		<text transform="matrix(1 0 0 1 151.004 26.8855)" class="st23 st24">c</text>
		<text transform="matrix(1 0 0 1 155.922 26.8855)" class="st23 st24">o</text>
		<text transform="matrix(1 0 0 1 162.364 26.8855)" class="st23 st24">h</text>
		<text transform="matrix(1 0 0 1 168.806 26.8855)" class="st23 st24">ol</text>
	</g>
</g>
<g>
	<g>
		<path class="st25" d="M283.7,138.3h175.8 M283.7,120.3h175.8 M283.7,102.3h175.8 M283.7,84.3h175.8 M283.7,66.3h175.8 M283.7,48.4
			h175.8 M283.7,30.3h175.8"/>
	</g>
	<g>
		<line class="st25" x1="283.7" y1="156.3" x2="283.7" y2="30.3"/>
	</g>
	<g>
		<path class="st25" d="M280.8,156.3h2.9 M280.8,138.3h2.9 M280.8,120.3h2.9 M280.8,102.3h2.9 M280.8,84.3h2.9 M280.8,66.3h2.9
			 M280.8,48.4h2.9 M280.8,30.3h2.9"/>
	</g>
	<g>
		<line class="st25" x1="283.7" y1="156.3" x2="459.5" y2="156.3"/>
	</g>
	<g>
		<path class="st25" d="M283.7,156.3v2.9 M305.7,156.3v2.9 M327.7,156.3v2.9 M349.5,156.3v2.9 M371.5,156.3v2.9 M393.5,156.3v2.9
			 M415.5,156.3v2.9 M437.5,156.3v2.9 M459.5,156.3v2.9"/>
	</g>
	<g>
		<g>
			<defs>
				<rect id="SVGID_00000176755664810288377610000000075040408597885594_" x="283.6" y="30.2" width="176.5" height="126.7"/>
			</defs>
			<clipPath id="SVGID_00000050634865288698539490000001892096933509759929_">
				<use xlink:href="#SVGID_00000176755664810288377610000000075040408597885594_"  style="overflow:visible;"/>
			</clipPath>
			
				<polyline style="clip-path:url(#SVGID_00000050634865288698539490000001892096933509759929_);fill:none;stroke:#7F7F7F;stroke-width:1.3874;stroke-linecap:round;stroke-linejoin:round;stroke-miterlimit:10;" points="
				283.6,156.3 294.6,156.3 305.6,156.3 349.6,156.3 393.6,156.3 459.5,156.3 			"/>
		</g>
	</g>
	<g>
		<polygon class="st3" points="283.7,154.1 285.9,156.3 283.7,158.5 281.5,156.3 		"/>
		<polygon class="st27" points="283.7,154.1 285.9,156.3 283.7,158.5 281.5,156.3 		"/>
		<polygon class="st3" points="294.7,154.1 296.9,156.3 294.7,158.5 292.4,156.3 		"/>
		<polygon class="st27" points="294.7,154.1 296.9,156.3 294.7,158.5 292.4,156.3 		"/>
		<polygon class="st3" points="305.7,154.1 307.9,156.3 305.7,158.5 303.4,156.3 		"/>
		<polygon class="st27" points="305.7,154.1 307.9,156.3 305.7,158.5 303.4,156.3 		"/>
		<polygon class="st3" points="349.5,154.1 351.8,156.3 349.5,158.5 347.3,156.3 		"/>
		<polygon class="st27" points="349.5,154.1 351.8,156.3 349.5,158.5 347.3,156.3 		"/>
		<polygon class="st3" points="393.5,154.1 395.8,156.3 393.5,158.5 391.3,156.3 		"/>
		<polygon class="st27" points="393.5,154.1 395.8,156.3 393.5,158.5 391.3,156.3 		"/>
		<polygon class="st3" points="459.5,154.1 461.7,156.3 459.5,158.5 457.2,156.3 		"/>
		<polygon class="st27" points="459.5,154.1 461.7,156.3 459.5,158.5 457.2,156.3 		"/>
	</g>
	<g>
		<g>
			<defs>
				<rect id="SVGID_00000073693031464201008950000008614854452039779247_" x="283.6" y="30.2" width="176.5" height="126.7"/>
			</defs>
			<clipPath id="SVGID_00000048480142590013393480000014737924898536944030_">
				<use xlink:href="#SVGID_00000073693031464201008950000008614854452039779247_"  style="overflow:visible;"/>
			</clipPath>
			
				<polyline style="clip-path:url(#SVGID_00000048480142590013393480000014737924898536944030_);fill:none;stroke:#0E0E0E;stroke-width:1.3874;stroke-linecap:round;stroke-linejoin:round;stroke-miterlimit:10;" points="
				283.6,150.9 294.6,105.2 305.6,85.8 349.6,46.2 393.6,75.6 459.5,139 			"/>
		</g>
	</g>
	<g>
		<polygon class="st6" points="281.5,148.7 285.9,148.7 285.9,153.2 281.5,153.2 		"/>
		<polygon class="st29" points="281.5,148.7 285.9,148.7 285.9,153.2 281.5,153.2 		"/>
		<polygon class="st6" points="292.4,102.9 296.9,102.9 296.9,107.4 292.4,107.4 		"/>
		<polygon class="st29" points="292.4,102.9 296.9,102.9 296.9,107.4 292.4,107.4 		"/>
		<polygon class="st6" points="303.4,83.5 307.9,83.5 307.9,88 303.4,88 		"/>
		<polygon class="st29" points="303.4,83.5 307.9,83.5 307.9,88 303.4,88 		"/>
		<polygon class="st6" points="347.3,43.9 351.8,43.9 351.8,48.4 347.3,48.4 		"/>
		<polygon class="st29" points="347.3,43.9 351.8,43.9 351.8,48.4 347.3,48.4 		"/>
		<polygon class="st6" points="391.3,73.5 395.8,73.5 395.8,78 391.3,78 		"/>
		<polygon class="st29" points="391.3,73.5 395.8,73.5 395.8,78 391.3,78 		"/>
		<polygon class="st6" points="457.2,136.8 461.7,136.8 461.7,141.2 457.2,141.2 		"/>
		<polygon class="st29" points="457.2,136.8 461.7,136.8 461.7,141.2 457.2,141.2 		"/>
	</g>
	<g>
		<g>
			<defs>
				<rect id="SVGID_00000155145409550894282120000000252340022288264836_" x="283.6" y="30.2" width="176.5" height="126.7"/>
			</defs>
			<clipPath id="SVGID_00000031172856791376810100000008976655549750555835_">
				<use xlink:href="#SVGID_00000155145409550894282120000000252340022288264836_"  style="overflow:visible;"/>
			</clipPath>
			
				<polyline style="clip-path:url(#SVGID_00000031172856791376810100000008976655549750555835_);fill:none;stroke:#90AAD8;stroke-width:1.3874;stroke-linecap:round;stroke-linejoin:round;stroke-miterlimit:10;" points="
				283.6,152.4 294.6,107.3 305.6,92.9 349.6,65.3 393.6,89.4 459.5,148.8 			"/>
		</g>
	</g>
	<g>
		<polygon class="st9" points="281,149.7 286.4,149.7 286.4,155 281,155 		"/>
		<polygon class="st31" points="281,149.7 286.4,149.7 286.4,155 281,155 		"/>
		<polygon class="st9" points="292,104.7 297.4,104.7 297.4,110.1 292,110.1 		"/>
		<polygon class="st31" points="292,104.7 297.4,104.7 297.4,110.1 292,110.1 		"/>
		<polygon class="st9" points="303,90.3 308.3,90.3 308.3,95.7 303,95.7 		"/>
		<polygon class="st31" points="303,90.3 308.3,90.3 308.3,95.7 303,95.7 		"/>
		<polygon class="st9" points="346.9,62.6 352.2,62.6 352.2,67.9 346.9,67.9 		"/>
		<polygon class="st31" points="346.9,62.6 352.2,62.6 352.2,67.9 346.9,67.9 		"/>
		<polygon class="st9" points="390.8,86.7 396.2,86.7 396.2,92 390.8,92 		"/>
		<polygon class="st31" points="390.8,86.7 396.2,86.7 396.2,92 390.8,92 		"/>
		<polygon class="st9" points="456.8,146.2 462.1,146.2 462.1,151.5 456.8,151.5 		"/>
		<polygon class="st31" points="456.8,146.2 462.1,146.2 462.1,151.5 456.8,151.5 		"/>
	</g>
	<g>
		<path class="st11" d="M286.4,155l-5.3-5.3 M283.7,149.7v5.3 M281,155l5.3-5.3"/>
		<path class="st31" d="M286.4,155l-5.3-5.3 M283.7,149.7v5.3 M281,155l5.3-5.3"/>
		<path class="st11" d="M297.4,110.1l-5.3-5.3 M294.7,104.7v5.3 M292,110.1l5.3-5.3"/>
		<path class="st31" d="M297.4,110.1l-5.3-5.3 M294.7,104.7v5.3 M292,110.1l5.3-5.3"/>
		<path class="st11" d="M308.3,95.7l-5.3-5.3 M305.7,90.3v5.3 M303,95.7l5.3-5.3"/>
		<path class="st31" d="M308.3,95.7l-5.3-5.3 M305.7,90.3v5.3 M303,95.7l5.3-5.3"/>
		<path class="st11" d="M352.2,67.9l-5.3-5.3 M349.5,62.6v5.3 M346.9,67.9l5.3-5.3"/>
		<path class="st31" d="M352.2,67.9l-5.3-5.3 M349.5,62.6v5.3 M346.9,67.9l5.3-5.3"/>
		<path class="st11" d="M396.2,92l-5.3-5.3 M393.5,86.7V92 M390.8,92l5.3-5.3"/>
		<path class="st31" d="M396.2,92l-5.3-5.3 M393.5,86.7V92 M390.8,92l5.3-5.3"/>
		<path class="st11" d="M462.1,151.5l-5.3-5.3 M459.5,146.2v5.3 M456.8,151.5l5.3-5.3"/>
		<path class="st31" d="M462.1,151.5l-5.3-5.3 M459.5,146.2v5.3 M456.8,151.5l5.3-5.3"/>
	</g>
	<g>
		<g>
			<defs>
				<rect id="SVGID_00000085249406116557761580000004941243764881604281_" x="283.6" y="30.2" width="176.5" height="126.7"/>
			</defs>
			<clipPath id="SVGID_00000067215142073370650000000016338232169149194677_">
				<use xlink:href="#SVGID_00000085249406116557761580000004941243764881604281_"  style="overflow:visible;"/>
			</clipPath>
			
				<polyline style="clip-path:url(#SVGID_00000067215142073370650000000016338232169149194677_);fill:none;stroke:#CCC0DB;stroke-width:1.3874;stroke-linecap:round;stroke-linejoin:round;stroke-miterlimit:10;" points="
				283.6,146.9 294.6,106.3 305.6,89 349.6,58 393.6,81.4 459.5,141.2 			"/>
		</g>
	</g>
	<g>
		<path class="st13" d="M285.9,147c0,1.2-1,2.2-2.2,2.2s-2.2-1-2.2-2.2c0-1.2,1-2.2,2.2-2.2S285.9,145.8,285.9,147L285.9,147z"/>
		<path class="st33" d="M285.9,147c0,1.2-1,2.2-2.2,2.2s-2.2-1-2.2-2.2c0-1.2,1-2.2,2.2-2.2S285.9,145.8,285.9,147L285.9,147z"/>
		<path class="st13" d="M296.9,106.3c0,1.2-1,2.2-2.2,2.2s-2.2-1-2.2-2.2s1-2.2,2.2-2.2C295.9,104.1,296.9,105.1,296.9,106.3
			L296.9,106.3z"/>
		<path class="st33" d="M296.9,106.3c0,1.2-1,2.2-2.2,2.2s-2.2-1-2.2-2.2s1-2.2,2.2-2.2C295.9,104.1,296.9,105.1,296.9,106.3
			L296.9,106.3z"/>
		<path class="st13" d="M307.9,89.1c0,1.2-1,2.2-2.2,2.2s-2.2-1-2.2-2.2s1-2.2,2.2-2.2C306.9,86.8,307.9,87.8,307.9,89.1L307.9,89.1
			z"/>
		<path class="st33" d="M307.9,89.1c0,1.2-1,2.2-2.2,2.2s-2.2-1-2.2-2.2s1-2.2,2.2-2.2C306.9,86.8,307.9,87.8,307.9,89.1L307.9,89.1
			z"/>
		<path class="st13" d="M351.8,58.1c0,1.2-1,2.2-2.2,2.2s-2.2-1-2.2-2.2c0-1.2,1-2.2,2.2-2.2C350.8,55.9,351.8,56.9,351.8,58.1
			L351.8,58.1z"/>
		<path class="st33" d="M351.8,58.1c0,1.2-1,2.2-2.2,2.2s-2.2-1-2.2-2.2c0-1.2,1-2.2,2.2-2.2C350.8,55.9,351.8,56.9,351.8,58.1
			L351.8,58.1z"/>
		<path class="st13" d="M395.8,81.5c0,1.2-1,2.2-2.2,2.2s-2.2-1-2.2-2.2s1-2.2,2.2-2.2S395.8,80.2,395.8,81.5L395.8,81.5z"/>
		<path class="st33" d="M395.8,81.5c0,1.2-1,2.2-2.2,2.2s-2.2-1-2.2-2.2s1-2.2,2.2-2.2S395.8,80.2,395.8,81.5L395.8,81.5z"/>
		<path class="st13" d="M461.7,141.2c0,1.2-1,2.2-2.2,2.2s-2.2-1-2.2-2.2c0-1.2,1-2.2,2.2-2.2S461.7,140,461.7,141.2L461.7,141.2z"
			/>
		<path class="st33" d="M461.7,141.2c0,1.2-1,2.2-2.2,2.2s-2.2-1-2.2-2.2c0-1.2,1-2.2,2.2-2.2S461.7,140,461.7,141.2L461.7,141.2z"
			/>
	</g>
	<g>
		<g>
			<defs>
				<rect id="SVGID_00000052069992403657966220000007393982182586156428_" x="283.6" y="30.2" width="176.5" height="126.7"/>
			</defs>
			<clipPath id="SVGID_00000059278981789154652580000009023463739479224232_">
				<use xlink:href="#SVGID_00000052069992403657966220000007393982182586156428_"  style="overflow:visible;"/>
			</clipPath>
			
				<polyline style="clip-path:url(#SVGID_00000059278981789154652580000009023463739479224232_);fill:none;stroke:#9D86BB;stroke-width:1.3874;stroke-linecap:round;stroke-linejoin:round;stroke-miterlimit:10;" points="
				283.6,149.8 294.6,110.2 305.6,91.9 349.6,67.7 393.6,87.9 459.5,146.6 			"/>
		</g>
	</g>
	<g>
		<path class="st16" d="M285.9,149.9c0,1.2-1,2.2-2.2,2.2s-2.2-1-2.2-2.2c0-1.2,1-2.2,2.2-2.2S285.9,148.7,285.9,149.9L285.9,149.9z
			"/>
		<path class="st35" d="M285.9,149.9c0,1.2-1,2.2-2.2,2.2s-2.2-1-2.2-2.2c0-1.2,1-2.2,2.2-2.2S285.9,148.7,285.9,149.9L285.9,149.9z
			"/>
		<path class="st16" d="M296.9,110.3c0,1.2-1,2.2-2.2,2.2s-2.2-1-2.2-2.2s1-2.2,2.2-2.2S296.9,109.1,296.9,110.3L296.9,110.3z"/>
		<path class="st35" d="M296.9,110.3c0,1.2-1,2.2-2.2,2.2s-2.2-1-2.2-2.2s1-2.2,2.2-2.2S296.9,109.1,296.9,110.3L296.9,110.3z"/>
		<path class="st16" d="M307.9,91.9c0,1.2-1,2.2-2.2,2.2s-2.2-1-2.2-2.2s1-2.2,2.2-2.2C306.9,89.7,307.9,90.7,307.9,91.9L307.9,91.9
			z"/>
		<path class="st35" d="M307.9,91.9c0,1.2-1,2.2-2.2,2.2s-2.2-1-2.2-2.2s1-2.2,2.2-2.2C306.9,89.7,307.9,90.7,307.9,91.9L307.9,91.9
			z"/>
		<path class="st16" d="M351.8,67.8c0,1.2-1,2.2-2.2,2.2s-2.2-1-2.2-2.2s1-2.2,2.2-2.2C350.8,65.6,351.8,66.6,351.8,67.8L351.8,67.8
			z"/>
		<path class="st35" d="M351.8,67.8c0,1.2-1,2.2-2.2,2.2s-2.2-1-2.2-2.2s1-2.2,2.2-2.2C350.8,65.6,351.8,66.6,351.8,67.8L351.8,67.8
			z"/>
		<path class="st16" d="M395.8,88c0,1.2-1,2.2-2.2,2.2s-2.2-1-2.2-2.2s1-2.2,2.2-2.2S395.8,86.8,395.8,88L395.8,88z"/>
		<path class="st35" d="M395.8,88c0,1.2-1,2.2-2.2,2.2s-2.2-1-2.2-2.2s1-2.2,2.2-2.2S395.8,86.8,395.8,88L395.8,88z"/>
		<path class="st16" d="M461.7,146.6c0,1.2-1,2.2-2.2,2.2s-2.2-1-2.2-2.2c0-1.2,1-2.2,2.2-2.2S461.7,145.3,461.7,146.6L461.7,146.6z
			"/>
		<path class="st35" d="M461.7,146.6c0,1.2-1,2.2-2.2,2.2s-2.2-1-2.2-2.2c0-1.2,1-2.2,2.2-2.2S461.7,145.3,461.7,146.6L461.7,146.6z
			"/>
	</g>
	<g>
		<g>
			<defs>
				<rect id="SVGID_00000175296218548024252860000017025023871436753051_" x="283.6" y="30.2" width="176.5" height="126.7"/>
			</defs>
			<clipPath id="SVGID_00000068666757489421671490000017039464309696617631_">
				<use xlink:href="#SVGID_00000175296218548024252860000017025023871436753051_"  style="overflow:visible;"/>
			</clipPath>
			
				<polyline style="clip-path:url(#SVGID_00000068666757489421671490000017039464309696617631_);fill:none;stroke:#674E8A;stroke-width:1.3874;stroke-linecap:round;stroke-linejoin:round;stroke-miterlimit:10;" points="
				283.6,152 294.6,119.2 305.6,98.4 349.6,76.4 393.6,91.5 459.5,144.1 			"/>
		</g>
	</g>
	<g>
		<path class="st19" d="M285.9,152c0,1.2-1,2.2-2.2,2.2s-2.2-1-2.2-2.2c0-1.2,1-2.2,2.2-2.2S285.9,150.8,285.9,152L285.9,152z"/>
		<path class="st37" d="M285.9,152c0,1.2-1,2.2-2.2,2.2s-2.2-1-2.2-2.2c0-1.2,1-2.2,2.2-2.2S285.9,150.8,285.9,152L285.9,152z"/>
		<path class="st19" d="M296.9,119.3c0,1.2-1,2.2-2.2,2.2s-2.2-1-2.2-2.2s1-2.2,2.2-2.2C295.9,117,296.9,118,296.9,119.3
			L296.9,119.3z"/>
		<path class="st37" d="M296.9,119.3c0,1.2-1,2.2-2.2,2.2s-2.2-1-2.2-2.2s1-2.2,2.2-2.2C295.9,117,296.9,118,296.9,119.3
			L296.9,119.3z"/>
		<path class="st19" d="M307.9,98.3c0,1.2-1,2.2-2.2,2.2s-2.2-1-2.2-2.2s1-2.2,2.2-2.2C306.9,96.1,307.9,97.1,307.9,98.3L307.9,98.3
			z"/>
		<path class="st37" d="M307.9,98.3c0,1.2-1,2.2-2.2,2.2s-2.2-1-2.2-2.2s1-2.2,2.2-2.2C306.9,96.1,307.9,97.1,307.9,98.3L307.9,98.3
			z"/>
		<path class="st19" d="M351.8,76.5c0,1.2-1,2.2-2.2,2.2s-2.2-1-2.2-2.2s1-2.2,2.2-2.2C350.8,74.2,351.8,75.2,351.8,76.5L351.8,76.5
			z"/>
		<path class="st37" d="M351.8,76.5c0,1.2-1,2.2-2.2,2.2s-2.2-1-2.2-2.2s1-2.2,2.2-2.2C350.8,74.2,351.8,75.2,351.8,76.5L351.8,76.5
			z"/>
		<path class="st19" d="M395.8,91.5c0,1.2-1,2.2-2.2,2.2s-2.2-1-2.2-2.2s1-2.2,2.2-2.2S395.8,90.3,395.8,91.5L395.8,91.5z"/>
		<path class="st37" d="M395.8,91.5c0,1.2-1,2.2-2.2,2.2s-2.2-1-2.2-2.2s1-2.2,2.2-2.2S395.8,90.3,395.8,91.5L395.8,91.5z"/>
		<path class="st19" d="M461.7,144.1c0,1.2-1,2.2-2.2,2.2s-2.2-1-2.2-2.2s1-2.2,2.2-2.2S461.7,142.9,461.7,144.1L461.7,144.1z"/>
		<path class="st37" d="M461.7,144.1c0,1.2-1,2.2-2.2,2.2s-2.2-1-2.2-2.2s1-2.2,2.2-2.2S461.7,142.9,461.7,144.1L461.7,144.1z"/>
	</g>
	<g>
		<g>
			<text transform="matrix(1 0 0 1 270.8997 158.8185)" class="st21 st38">0</text>
		</g>
	</g>
	<g>
		<g>
			<text transform="matrix(1 0 0 1 264.1458 140.8215)" class="st21 st38">0.5</text>
		</g>
	</g>
	<g>
		<g>
			<text transform="matrix(1 0 0 1 270.8997 122.8254)" class="st21 st38">1</text>
		</g>
	</g>
	<g>
		<g>
			<text transform="matrix(1 0 0 1 264.1458 104.8293)" class="st21 st38">1.5</text>
		</g>
	</g>
	<g>
		<g>
			<text transform="matrix(1 0 0 1 270.8997 86.8332)" class="st21 st38">2</text>
		</g>
	</g>
	<g>
		<g>
			<text transform="matrix(1 0 0 1 264.1458 68.8371)" class="st21 st38">2.5</text>
		</g>
	</g>
	<g>
		<g>
			<text transform="matrix(1 0 0 1 270.8997 50.841)" class="st21 st38">3</text>
		</g>
	</g>
	<g>
		<g>
			<text transform="matrix(1 0 0 1 264.1458 32.8439)" class="st21 st38">3.5</text>
		</g>
	</g>
	<g>
		<g>
			<text transform="matrix(1 0 0 1 281.4055 170.3801)" class="st21 st38">0</text>
		</g>
	</g>
	<g>
		<g>
			<text transform="matrix(1 0 0 1 303.3831 170.3801)" class="st21 st38">1</text>
		</g>
	</g>
	<g>
		<g>
			<text transform="matrix(1 0 0 1 325.3675 170.3801)" class="st21 st38">2</text>
		</g>
	</g>
	<g>
		<g>
			<text transform="matrix(1 0 0 1 347.3455 170.3801)" class="st21 st38">3</text>
		</g>
	</g>
	<g>
		<g>
			<text transform="matrix(1 0 0 1 369.323 170.3801)" class="st21 st38">4</text>
		</g>
	</g>
	<g>
		<g>
			<text transform="matrix(1 0 0 1 391.3006 170.3801)" class="st21 st38">5</text>
		</g>
	</g>
	<g>
		<g>
			<text transform="matrix(1 0 0 1 413.2781 170.3801)" class="st21 st38">6</text>
		</g>
	</g>
	<g>
		<g>
			<text transform="matrix(1 0 0 1 435.2561 170.3801)" class="st21 st38">7</text>
		</g>
	</g>
	<g>
		<g>
			<text transform="matrix(1 0 0 1 457.2337 170.3801)" class="st21 st38">8</text>
		</g>
	</g>
	<g>
		<g>
			<text transform="matrix(1.748456e-07 -1 1 1.748456e-07 254.3123 157.7214)" class="st21 st38">A</text>
			<text transform="matrix(1.748456e-07 -1 1 1.748456e-07 254.3123 152.5954)" class="st21 st38">c</text>
			<text transform="matrix(1.748456e-07 -1 1 1.748456e-07 254.3123 148.8591)" class="st21 st38">e</text>
			<text transform="matrix(1.748456e-07 -1 1 1.748456e-07 254.3123 144.4783)" class="st21 st38">ta</text>
			<text transform="matrix(1.748456e-07 -1 1 1.748456e-07 254.3123 137.2322)" class="st21 st38">l</text>
			<text transform="matrix(1.748456e-07 -1 1 1.748456e-07 254.3123 135.199)" class="st21 st38">d</text>
			<text transform="matrix(1.748456e-07 -1 1 1.748456e-07 254.3123 130.5095)" class="st21 st38">e</text>
			<text transform="matrix(1.748456e-07 -1 1 1.748456e-07 254.3123 126.1286)" class="st21 st38">h</text>
			<text transform="matrix(1.748456e-07 -1 1 1.748456e-07 254.3123 121.4392)" class="st21 st38">y</text>
			<text transform="matrix(1.748456e-07 -1 1 1.748456e-07 254.3123 117.3855)" class="st21 st38">d</text>
			<text transform="matrix(1.748456e-07 -1 1 1.748456e-07 254.3123 112.696)" class="st21 st38">e</text>
			<text transform="matrix(1.748456e-07 -1 1 1.748456e-07 254.3123 108.3152)" class="st21 st38"> </text>
			<text transform="matrix(1.748456e-07 -1 1 1.748456e-07 254.3123 106.1882)" class="st21 st38">c</text>
			<text transform="matrix(1.748456e-07 -1 1 1.748456e-07 254.3123 102.4509)" class="st21 st38">o</text>
			<text transform="matrix(1.748456e-07 -1 1 1.748456e-07 254.3123 97.7624)" class="st21 st38">n</text>
			<text transform="matrix(1.748456e-07 -1 1 1.748456e-07 254.3123 93.073)" class="st21 st38">c</text>
			<text transform="matrix(1.748456e-07 -1 1 1.748456e-07 254.3123 89.3357)" class="st21 st38">e</text>
			<text transform="matrix(1.748456e-07 -1 1 1.748456e-07 254.3123 84.9538)" class="st21 st38">n</text>
			<text transform="matrix(1.748456e-07 -1 1 1.748456e-07 254.3123 80.2654)" class="st21 st38">t</text>
			<text transform="matrix(1.748456e-07 -1 1 1.748456e-07 254.3123 77.281)" class="st21 st38">r</text>
			<text transform="matrix(1.748456e-07 -1 1 1.748456e-07 254.3123 74.1921)" class="st21 st38">a</text>
			<text transform="matrix(1.748456e-07 -1 1 1.748456e-07 254.3123 69.9314)" class="st21 st38">ti</text>
			<text transform="matrix(1.748456e-07 -1 1 1.748456e-07 254.3123 64.9949)" class="st21 st38">o</text>
			<text transform="matrix(1.748456e-07 -1 1 1.748456e-07 254.3123 60.3074)" class="st21 st38">n</text>
			<text transform="matrix(1.748456e-07 -1 1 1.748456e-07 254.3123 55.6169)" class="st21 st38"> </text>
			<text transform="matrix(1.748456e-07 -1 1 1.748456e-07 254.3123 53.5974)" class="st21 st38">(</text>
			<text transform="matrix(1.748456e-07 -1 1 1.748456e-07 254.3123 50.9294)" class="st21 st38">m</text>
			<text transform="matrix(1.748456e-07 -1 1 1.748456e-07 254.3123 43.8796)" class="st21 st38">g/</text>
			<text transform="matrix(1.748456e-07 -1 1 1.748456e-07 254.3123 36.2878)" class="st21 st38">L</text>
			<text transform="matrix(1.748456e-07 -1 1 1.748456e-07 254.3123 32.5554)" class="st21 st38">)</text>
		</g>
	</g>
	<g>
		<g>
			<text transform="matrix(1 0 0 1 358.5808 184.923)" class="st21 st38">T</text>
			<text transform="matrix(1 0 0 1 362.8528 184.923)" class="st21 st38">i</text>
			<text transform="matrix(1 0 0 1 364.8858 184.923)" class="st21 st38">me</text>
			<text transform="matrix(1 0 0 1 376.3168 184.923)" class="st21 st38"> </text>
			<text transform="matrix(1 0 0 1 378.5498 184.923)" class="st21 st38">(</text>
			<text transform="matrix(1 0 0 1 381.2178 184.923)" class="st21 st38">h</text>
			<text transform="matrix(1 0 0 1 385.9078 184.923)" class="st21 st38">)</text>
		</g>
	</g>
	<g>
		<g>
			<text transform="matrix(1 0 0 1 339.5979 21.3722)" class="st23 st39">B</text>
			<text transform="matrix(1 0 0 1 346.6349 21.3722)" class="st23 st39">l</text>
			<text transform="matrix(1 0 0 1 349.7269 21.3722)" class="st23 st39">oo</text>
			<text transform="matrix(1 0 0 1 363.1529 21.3722)" class="st23 st39">d</text>
			<text transform="matrix(1 0 0 1 369.8659 21.3722)" class="st23 st39"> </text>
			<text transform="matrix(1 0 0 1 372.4389 21.3722)" class="st23 st39">Ac</text>
			<text transform="matrix(1 0 0 1 385.2309 21.3722)" class="st23 st39">e</text>
			<text transform="matrix(1 0 0 1 391.4299 21.3722)" class="st23 st39">t</text>
			<text transform="matrix(1 0 0 1 395.7089 21.3722)" class="st23 st39">al</text>
			<text transform="matrix(1 0 0 1 404.9899 21.3722)" class="st23 st39">d</text>
			<text transform="matrix(1 0 0 1 411.7029 21.3722)" class="st23 st39">e</text>
			<text transform="matrix(1 0 0 1 417.9899 21.3722)" class="st23 st39">h</text>
			<text transform="matrix(1 0 0 1 424.5029 21.3722)" class="st23 st39">y</text>
			<text transform="matrix(1 0 0 1 430.2669 21.3722)" class="st23 st39">d</text>
			<text transform="matrix(1 0 0 1 436.9809 21.3722)" class="st23 st39">e</text>
		</g>
	</g>
</g>
<line class="st40" x1="487.4" y1="36.8" x2="503.8" y2="36.8"/>
<polygon class="st3" points="495.5,35.1 497.1,36.8 495.5,38.4 493.9,36.8 "/>
<polygon class="st4" points="495.5,35.1 497.1,36.8 495.5,38.4 493.9,36.8 "/>
<text transform="matrix(1 0 0 1 505.5135 38.7011)" class="st21 st41">N</text>
<text transform="matrix(1 0 0 1 509.9225 38.7011)" class="st21 st41">o</text>
<text transform="matrix(1 0 0 1 513.5135 38.7011)" class="st21 st41">r</text>
<text transform="matrix(1 0 0 1 515.8705 38.7011)" class="st21 st41">m</text>
<text transform="matrix(1 0 0 1 521.4005 38.7011)" class="st21 st41">a</text>
<text transform="matrix(1 0 0 1 524.6805 38.7011)" class="st21 st41">l</text>
<line class="st42" x1="487.4" y1="58.6" x2="503.8" y2="58.6"/>
<polygon class="st6" points="493.8,56.8 497.1,56.8 497.1,60.2 493.8,60.2 "/>
<polygon class="st7" points="493.8,56.8 497.1,56.8 497.1,60.2 493.8,60.2 "/>
<text transform="matrix(1 0 0 1 505.5135 60.5038)" class="st21 st41">E</text>
<text transform="matrix(1 0 0 1 508.8915 60.5038)" class="st21 st41">t</text>
<text transform="matrix(1 0 0 1 511.1485 60.5038)" class="st21 st41">O</text>
<text transform="matrix(1 0 0 1 515.6575 60.5038)" class="st21 st41">H</text>
<text transform="matrix(1 0 0 1 519.9525 60.5038)" class="st21 st41"> </text>
<text transform="matrix(1 0 0 1 521.4915 60.5038)" class="st21 st41">o</text>
<text transform="matrix(1 0 0 1 525.0815 60.5038)" class="st21 st41">n</text>
<text transform="matrix(1 0 0 1 528.6665 60.5038)" class="st21 st41">l</text>
<text transform="matrix(1 0 0 1 530.2065 60.5038)" class="st21 st41">y</text>
<line class="st43" x1="487.4" y1="80.3" x2="503.8" y2="80.3"/>
<polygon class="st9" points="493.9,78.7 497.1,78.7 497.1,81.9 493.9,81.9 "/>
<polygon class="st10" points="493.9,78.7 497.1,78.7 497.1,81.9 493.9,81.9 "/>
<path class="st11" d="M495.5,78.7v3.3 M493.9,80.3h3.3"/>
<path class="st10" d="M495.5,78.7v3.3 M493.9,80.3h3.3"/>
<line class="st44" x1="487.4" y1="102.2" x2="503.8" y2="102.2"/>
<path class="st13" d="M497.1,102.1c0,0.9-0.8,1.7-1.7,1.7s-1.7-0.8-1.7-1.7s0.8-1.7,1.7-1.7C496.4,100.4,497.1,101.1,497.1,102.1
	L497.1,102.1z"/>
<path class="st14" d="M497.1,102.1c0,0.9-0.8,1.7-1.7,1.7s-1.7-0.8-1.7-1.7s0.8-1.7,1.7-1.7C496.4,100.4,497.1,101.1,497.1,102.1
	L497.1,102.1z"/>
<text transform="matrix(1 0 0 1 505.5135 105.5966)" class="st45 st41">복합소재</text>
<text transform="matrix(1 0 0 1 505.5135 115.1249)" class="st21 st41">50</text>
<text transform="matrix(1 0 0 1 512.4685 115.1249)" class="st21 st41"> </text>
<text transform="matrix(1 0 0 1 514.0065 115.1249)" class="st21 st41">m</text>
<text transform="matrix(1 0 0 1 519.5355 115.1249)" class="st21 st41">g</text>
<text transform="matrix(1 0 0 1 522.8065 115.1249)" class="st21 st41">/</text>
<text transform="matrix(1 0 0 1 525.4635 115.1249)" class="st21 st41">k</text>
<text transform="matrix(1 0 0 1 528.5415 115.1249)" class="st21 st41">g</text>
<line class="st46" x1="487.4" y1="124" x2="503.8" y2="124"/>
<path class="st16" d="M497.1,123.9c0,0.9-0.8,1.7-1.7,1.7s-1.7-0.8-1.7-1.7s0.8-1.7,1.7-1.7C496.4,122.2,497.1,122.9,497.1,123.9
	L497.1,123.9z"/>
<path class="st17" d="M497.1,123.9c0,0.9-0.8,1.7-1.7,1.7s-1.7-0.8-1.7-1.7s0.8-1.7,1.7-1.7C496.4,122.2,497.1,122.9,497.1,123.9
	L497.1,123.9z"/>
<text transform="matrix(1 0 0 1 505.5135 127.3993)" class="st45 st41">복합소재</text>
<text transform="matrix(1 0 0 1 505.5135 136.9276)" class="st21 st41">100</text>
<text transform="matrix(1 0 0 1 515.9475 136.9276)" class="st21 st41"> </text>
<text transform="matrix(1 0 0 1 517.3815 136.9276)" class="st21 st41">m</text>
<text transform="matrix(1 0 0 1 522.9105 136.9276)" class="st21 st41">g</text>
<text transform="matrix(1 0 0 1 526.1815 136.9276)" class="st21 st41">/</text>
<text transform="matrix(1 0 0 1 528.8385 136.9276)" class="st21 st41">k</text>
<text transform="matrix(1 0 0 1 531.9165 136.9276)" class="st21 st41">g</text>
<line class="st47" x1="487.4" y1="145.8" x2="503.8" y2="145.8"/>
<path class="st19" d="M497.1,145.7c0,0.9-0.8,1.7-1.7,1.7s-1.7-0.8-1.7-1.7s0.8-1.7,1.7-1.7C496.4,144,497.1,144.8,497.1,145.7
	L497.1,145.7z"/>
<path class="st20" d="M497.1,145.7c0,0.9-0.8,1.7-1.7,1.7s-1.7-0.8-1.7-1.7s0.8-1.7,1.7-1.7C496.4,144,497.1,144.8,497.1,145.7
	L497.1,145.7z"/>
<text transform="matrix(1 0 0 1 505.5135 149.202)" class="st45 st41">복합소재</text>
<text transform="matrix(1 0 0 1 505.5135 158.7304)" class="st21 st41">200</text>
<text transform="matrix(1 0 0 1 515.9475 158.7304)" class="st21 st41"> </text>
<text transform="matrix(1 0 0 1 517.3815 158.7304)" class="st21 st41">m</text>
<text transform="matrix(1 0 0 1 522.9105 158.7304)" class="st21 st41">g</text>
<text transform="matrix(1 0 0 1 526.1815 158.7304)" class="st21 st41">/</text>
<text transform="matrix(1 0 0 1 528.8385 158.7304)" class="st21 st41">k</text>
<text transform="matrix(1 0 0 1 531.9165 158.7304)" class="st21 st41">g</text>
<text transform="matrix(1 0 0 1 506.0963 81.7131)" class="st48 st49">경쟁사제품</text>
</svg>
