<?xml version="1.0" encoding="utf-8"?>
<!-- Generator: Adobe Illustrator 28.0.0, SVG Export Plug-In . SVG Version: 6.00 Build 0)  -->
<svg version="1.1" id="레이어_1" xmlns="http://www.w3.org/2000/svg" xmlns:xlink="http://www.w3.org/1999/xlink" x="0px"
	 y="0px" viewBox="0 0 329.8 256.6" style="enable-background:new 0 0 329.8 256.6;" xml:space="preserve">
<style type="text/css">
	.st0{fill:#FFFFFF;}
	.st1{fill-rule:evenodd;clip-rule:evenodd;fill:#F2F2F3;}
	.st2{fill:none;stroke:#000000;stroke-width:0.72;stroke-linejoin:round;stroke-miterlimit:10;}
	.st3{fill-rule:evenodd;clip-rule:evenodd;}
	.st4{fill-rule:evenodd;clip-rule:evenodd;fill:#8165A2;}
	.st5{fill:none;stroke:#868686;stroke-width:0.72;stroke-linejoin:round;stroke-miterlimit:10;}
	.st6{font-family:'Calibri';}
	.st7{font-size:8px;}
	.st8{font-family:'AppleSDGothicNeoEB00';}
	.st9{font-size:8.04px;}
	.st10{font-size:12px;}
	.st11{font-size:10px;}
</style>
<rect y="0" class="st0" width="329.8" height="256.6"/>
<rect y="0" class="st0" width="329.8" height="256.6"/>
<g>
	<g>
		<polygon class="st1" points="52.4,212.5 89.6,212.5 89.6,215 52.4,215 		"/>
		<polygon class="st2" points="52.4,212.5 89.6,212.5 89.6,215 52.4,215 		"/>
	</g>
	<g>
		<polygon class="st3" points="145.3,71.8 182.5,71.8 182.5,215 145.3,215 		"/>
		<polygon class="st2" points="145.3,71.8 182.5,71.8 182.5,215 145.3,215 		"/>
	</g>
	<g>
		<polygon class="st4" points="238.3,156.5 275.4,156.5 275.4,215 238.3,215 		"/>
		<polygon class="st2" points="238.3,156.5 275.4,156.5 275.4,215 238.3,215 		"/>
	</g>
	<g>
		<path d="M71,212.5v-0.1 M68.8,212.3h4.6"/>
		<path class="st2" d="M71,212.5v-0.1 M68.8,212.3h4.6"/>
	</g>
	<g>
		<path d="M163.9,71.8v-8.9 M161.8,62.9h4.4"/>
		<path class="st2" d="M163.9,71.8v-8.9 M161.8,62.9h4.4"/>
	</g>
	<g>
		<path d="M256.9,156.5v-4.3 M254.6,152.2h4.4"/>
		<path class="st2" d="M256.9,156.5v-4.3 M254.6,152.2h4.4"/>
	</g>
	<g>
		<path class="st5" d="M22.1,215h2.5"/>
	</g>
	<g>
		<line class="st5" x1="24.6" y1="215" x2="303.4" y2="215"/>
	</g>
	<g>
		<path class="st5" d="M24.6,215v2.5 M117.5,215v2.5 M210.4,215v2.5 M303.4,215v2.5"/>
	</g>
	<g>
		<g>
			<text transform="matrix(1 0 0 1 67.1996 206.3785)" class="st6 st7">9</text>
			<text transform="matrix(1 0 0 1 71.2066 206.3785)" class="st6 st7">.</text>
			<text transform="matrix(1 0 0 1 73.2816 206.3785)" class="st6 st7">2</text>
		</g>
	</g>
	<g>
		<g>
			<text transform="matrix(1 0 0 1 157.4075 58.4473)" class="st6 st7">513</text>
			<text transform="matrix(1 0 0 1 169.4285 58.4473)" class="st6 st7">.</text>
			<text transform="matrix(1 0 0 1 171.5035 58.4473)" class="st6 st7">7</text>
		</g>
	</g>
	<g>
		<g>
			<text transform="matrix(1 0 0 1 250.3635 148.1402)" class="st6 st7">209</text>
			<text transform="matrix(1 0 0 1 262.3845 148.1402)" class="st6 st7">.</text>
			<text transform="matrix(1 0 0 1 264.4595 148.1402)" class="st6 st7">8</text>
		</g>
	</g>
	<g>
		<g>
			<text transform="matrix(1 0 0 1 59.1684 227.6441)" class="st8 st9">V</text>
			<text transform="matrix(1 0 0 1 64.3624 227.6441)" class="st8 st9">e</text>
			<text transform="matrix(1 0 0 1 68.5754 227.6441)" class="st8 st9">h</text>
			<text transform="matrix(1 0 0 1 73.0774 227.6441)" class="st8 st9">i</text>
			<text transform="matrix(1 0 0 1 75.0714 227.6441)" class="st8 st9">c</text>
			<text transform="matrix(1 0 0 1 78.8664 227.6441)" class="st8 st9">l</text>
			<text transform="matrix(1 0 0 1 80.8594 227.6441)" class="st8 st9">e</text>
		</g>
	</g>
	<g>
		<g>
			<text transform="matrix(1 0 0 1 151.2543 227.6441)" class="st8 st9">P</text>
			<text transform="matrix(1 0 0 1 155.9893 227.6441)" class="st8 st9">o</text>
			<text transform="matrix(1 0 0 1 160.5973 227.6441)" class="st8 st9">s</text>
			<text transform="matrix(1 0 0 1 164.1183 227.6441)" class="st8 st9">i</text>
			<text transform="matrix(1 0 0 1 166.1113 227.6441)" class="st8 st9">t</text>
			<text transform="matrix(1 0 0 1 169.0463 227.6441)" class="st8 st9">i</text>
			<text transform="matrix(1 0 0 1 171.1523 227.6441)" class="st8 st9">v</text>
			<text transform="matrix(1 0 0 1 175.4223 227.6441)" class="st8 st9">e</text>
		</g>
	</g>
	<g>
		<g>
			<text transform="matrix(1 0 0 1 152.2934 237.4098)" class="st8 st9">co</text>
			<text transform="matrix(1 0 0 1 160.4854 237.4098)" class="st8 st9">n</text>
			<text transform="matrix(1 0 0 1 164.9884 237.4098)" class="st8 st9">t</text>
			<text transform="matrix(1 0 0 1 168.0354 237.4098)" class="st8 st9">r</text>
			<text transform="matrix(1 0 0 1 170.9934 237.4098)" class="st8 st9">o</text>
			<text transform="matrix(1 0 0 1 175.4964 237.4098)" class="st8 st9">l</text>
		</g>
	</g>
	<g>
		<g>
			<text transform="matrix(1 0 0 1 244.7465 230.3941)" class="st8 st9">헤미셀란</text>
		</g>
	</g>
</g>
<g>
	<g>
		<text transform="matrix(1 0 0 1 35.1146 30.977)" class="st8 st10">LPS와 IL-4로 활성화된 B세포(U266.B1)에서 IgE 생성</text>
		<text transform="matrix(1 0 0 1 146.3226 42.977)" class="st8 st11">(ng/mL)</text>
	</g>
</g>
</svg>
