<?xml version="1.0" encoding="utf-8"?>
<!-- Generator: Adobe Illustrator 28.0.0, SVG Export Plug-In . SVG Version: 6.00 Build 0)  -->
<svg version="1.1" id="레이어_1" xmlns="http://www.w3.org/2000/svg" xmlns:xlink="http://www.w3.org/1999/xlink" x="0px"
	 y="0px" viewBox="0 0 329.806 256.645" style="enable-background:new 0 0 329.806 256.645;" xml:space="preserve">
<style type="text/css">
	.st0{fill:#FFFFFF;}
	.st1{fill-rule:evenodd;clip-rule:evenodd;fill:#F2F2F3;}
	.st2{fill:none;stroke:#000000;stroke-width:0.72;stroke-linejoin:round;stroke-miterlimit:10;}
	.st3{fill-rule:evenodd;clip-rule:evenodd;}
	.st4{fill-rule:evenodd;clip-rule:evenodd;fill:#8165A2;}
	.st5{fill:none;stroke:#868686;stroke-width:0.72;stroke-linejoin:round;stroke-miterlimit:10;}
	.st6{font-family:'Calibri';}
	.st7{font-size:8px;}
	.st8{font-family:'AppleSDGothicNeoEB00';}
	.st9{font-size:8.04px;}
	.st10{font-size:12px;}
	.st11{font-size:10px;}
</style>
<rect class="st0" width="329.806" height="256.645"/>
<g>
	<g>
		<polygon class="st1" points="52.447,212.465 89.647,212.465 89.647,214.985 52.447,214.985 52.447,212.465 		"/>
		<polygon class="st2" points="52.447,212.465 89.647,212.465 89.647,214.985 52.447,214.985 52.447,212.465 		"/>
	</g>
	<g>
		<polygon class="st3" points="145.327,71.824 182.527,71.824 182.527,214.984 145.327,214.984 145.327,71.824 		"/>
		<polygon class="st2" points="145.327,71.824 182.527,71.824 182.527,214.984 145.327,214.984 145.327,71.824 		"/>
	</g>
	<g>
		<polygon class="st4" points="238.327,156.544 275.407,156.544 275.407,214.984 238.327,214.984 238.327,156.544 		"/>
		<polygon class="st2" points="238.327,156.544 275.407,156.544 275.407,214.984 238.327,214.984 238.327,156.544 		"/>
	</g>
	<g>
		<path d="M71.047,212.465v-0.12 M68.767,212.344h4.56"/>
		<path class="st2" d="M71.047,212.465v-0.12 M68.767,212.344h4.56"/>
	</g>
	<g>
		<path d="M163.927,71.824v-8.88 M161.767,62.945h4.44"/>
		<path class="st2" d="M163.927,71.824v-8.88 M161.767,62.945h4.44"/>
	</g>
	<g>
		<path d="M256.927,156.545v-4.32 M254.647,152.225h4.44"/>
		<path class="st2" d="M256.927,156.545v-4.32 M254.647,152.225h4.44"/>
	</g>
	<g>
		<path class="st5" d="M22.087,214.985h2.52"/>
	</g>
	<g>
		<line class="st5" x1="24.607" y1="214.985" x2="303.367" y2="214.985"/>
	</g>
	<g>
		<path class="st5" d="M24.607,214.985v2.52 M117.487,214.985v2.52 M210.367,214.985v2.52 M303.367,214.985v2.52"/>
	</g>
	<g>
		<g>
			<text transform="matrix(1 0 0 1 67.1996 206.3785)"><tspan x="0" y="0" class="st6 st7">9</tspan><tspan x="4.007" y="0" class="st6 st7">.</tspan><tspan x="6.082" y="0" class="st6 st7">2</tspan></text>
		</g>
	</g>
	<g>
		<g>
			<text transform="matrix(1 0 0 1 157.4075 58.4473)"><tspan x="0" y="0" class="st6 st7">513</tspan><tspan x="12.021" y="0" class="st6 st7">.</tspan><tspan x="14.096" y="0" class="st6 st7">7</tspan></text>
		</g>
	</g>
	<g>
		<g>
			<text transform="matrix(1 0 0 1 250.3635 148.1402)"><tspan x="0" y="0" class="st6 st7">209</tspan><tspan x="12.021" y="0" class="st6 st7">.</tspan><tspan x="14.096" y="0" class="st6 st7">8</tspan></text>
		</g>
	</g>
	<g>
		<g>
			<text transform="matrix(1 0 0 1 59.1684 227.6441)"><tspan x="0" y="0" class="st8 st9">V</tspan><tspan x="5.194" y="0" class="st8 st9">e</tspan><tspan x="9.407" y="0" class="st8 st9">h</tspan><tspan x="13.909" y="0" class="st8 st9">i</tspan><tspan x="15.903" y="0" class="st8 st9">c</tspan><tspan x="19.698" y="0" class="st8 st9">l</tspan><tspan x="21.691" y="0" class="st8 st9">e</tspan></text>
		</g>
	</g>
	<g>
		<g>
			<text transform="matrix(1 0 0 1 151.2543 227.6441)"><tspan x="0" y="0" class="st8 st9">P</tspan><tspan x="4.735" y="0" class="st8 st9">o</tspan><tspan x="9.343" y="0" class="st8 st9">s</tspan><tspan x="12.864" y="0" class="st8 st9">i</tspan><tspan x="14.857" y="0" class="st8 st9">t</tspan><tspan x="17.792" y="0" class="st8 st9">i</tspan><tspan x="19.898" y="0" class="st8 st9">v</tspan><tspan x="24.168" y="0" class="st8 st9">e</tspan></text>
		</g>
	</g>
	<g>
		<g>
			<text transform="matrix(1 0 0 1 152.2934 237.4098)"><tspan x="0" y="0" class="st8 st9">co</tspan><tspan x="8.192" y="0" class="st8 st9">n</tspan><tspan x="12.695" y="0" class="st8 st9">t</tspan><tspan x="15.742" y="0" class="st8 st9">r</tspan><tspan x="18.7" y="0" class="st8 st9">o</tspan><tspan x="23.203" y="0" class="st8 st9">l</tspan></text>
		</g>
	</g>
	<g>
		<g>
			<text transform="matrix(1 0 0 1 244.7465 230.3941)" class="st8 st9">헤미셀란</text>
		</g>
	</g>
</g>
<g>
	<g>
		<text transform="matrix(1 0 0 1 35.1146 30.977)"><tspan x="0" y="0" class="st8 st10">LPS와 IL-4로 활성화된 B세포(U266.B1)에서 IgE 생성</tspan><tspan x="111.208" y="12" class="st8 st11">(ng/mL)</tspan></text>
	</g>
</g>
</svg>
