<?xml version="1.0" encoding="utf-8"?>
<!-- Generator: Adobe Illustrator 28.0.0, SVG Export Plug-In . SVG Version: 6.00 Build 0)  -->
<svg version="1.1" id="레이어_1" xmlns="http://www.w3.org/2000/svg" xmlns:xlink="http://www.w3.org/1999/xlink" x="0px"
	 y="0px" viewBox="0 0 564.532 199.742" style="enable-background:new 0 0 564.532 199.742;" xml:space="preserve">
<style type="text/css">
	.st0{fill:none;stroke:#898989;stroke-width:0.4097;stroke-linejoin:round;stroke-miterlimit:10;}
	
		.st1{clip-path:url(#SVGID_00000164513467625216331030000008065808003968197550_);fill:none;stroke:#7F7F7F;stroke-width:1.3314;stroke-linecap:round;stroke-linejoin:round;stroke-miterlimit:10;}
	.st2{fill:#7F7F7F;}
	.st3{fill:none;stroke:#7F7F7F;stroke-width:0.4097;stroke-linejoin:round;stroke-miterlimit:10;}
	
		.st4{clip-path:url(#SVGID_00000030486004600443138410000007283581755414169265_);fill:none;stroke:#0E0E0E;stroke-width:1.3314;stroke-linecap:round;stroke-linejoin:round;stroke-miterlimit:10;}
	.st5{fill-rule:evenodd;clip-rule:evenodd;fill:#0E0E0E;}
	.st6{fill:none;stroke:#0E0E0E;stroke-width:0.4097;stroke-linejoin:round;stroke-miterlimit:10;}
	
		.st7{clip-path:url(#SVGID_00000135665558323472186400000000687365778508757894_);fill:none;stroke:#90AAD8;stroke-width:1.3314;stroke-linecap:round;stroke-linejoin:round;stroke-miterlimit:10;}
	.st8{fill-rule:evenodd;clip-rule:evenodd;fill:#90AAD8;}
	.st9{fill:none;stroke:#90AAD8;stroke-width:0.4097;stroke-linejoin:round;stroke-miterlimit:10;}
	.st10{fill:#90AAD8;}
	
		.st11{clip-path:url(#SVGID_00000031185331047022466190000004510321622282288057_);fill:none;stroke:#CCC0DB;stroke-width:1.3314;stroke-linecap:round;stroke-linejoin:round;stroke-miterlimit:10;}
	.st12{fill:#CCC0DB;}
	.st13{fill:none;stroke:#CCC0DB;stroke-width:0.4097;stroke-linejoin:round;stroke-miterlimit:10;}
	
		.st14{clip-path:url(#SVGID_00000099626927067414275110000013195532959034336672_);fill:none;stroke:#9D86BB;stroke-width:1.3314;stroke-linecap:round;stroke-linejoin:round;stroke-miterlimit:10;}
	.st15{fill:#9D86BB;}
	.st16{fill:none;stroke:#9D86BB;stroke-width:0.4097;stroke-linejoin:round;stroke-miterlimit:10;}
	
		.st17{clip-path:url(#SVGID_00000062154967597121289120000014577645203259602875_);fill:none;stroke:#674E8A;stroke-width:1.3314;stroke-linecap:round;stroke-linejoin:round;stroke-miterlimit:10;}
	.st18{fill:#674E8A;}
	.st19{fill:none;stroke:#674E8A;stroke-width:0.4097;stroke-linejoin:round;stroke-miterlimit:10;}
	.st20{font-family:'Calibri';}
	.st21{font-size:8.5004px;}
	.st22{font-family:'Calibri-Bold';}
	.st23{font-size:11.9825px;}
	.st24{fill:none;stroke:#898989;stroke-width:0.4269;stroke-linejoin:round;stroke-miterlimit:10;}
	
		.st25{clip-path:url(#SVGID_00000067948358245911703000000013562647692041926837_);fill:none;stroke:#7F7F7F;stroke-width:1.3874;stroke-linecap:round;stroke-linejoin:round;stroke-miterlimit:10;}
	.st26{fill:none;stroke:#7F7F7F;stroke-width:0.4269;stroke-linejoin:round;stroke-miterlimit:10;}
	
		.st27{clip-path:url(#SVGID_00000124136965798847521540000009990504460315273376_);fill:none;stroke:#0E0E0E;stroke-width:1.3874;stroke-linecap:round;stroke-linejoin:round;stroke-miterlimit:10;}
	.st28{fill:none;stroke:#0E0E0E;stroke-width:0.4269;stroke-linejoin:round;stroke-miterlimit:10;}
	
		.st29{clip-path:url(#SVGID_00000016775327509424994930000000734957376490624413_);fill:none;stroke:#90AAD8;stroke-width:1.3874;stroke-linecap:round;stroke-linejoin:round;stroke-miterlimit:10;}
	.st30{fill:none;stroke:#90AAD8;stroke-width:0.4269;stroke-linejoin:round;stroke-miterlimit:10;}
	
		.st31{clip-path:url(#SVGID_00000157298335583439186790000005252537218646108811_);fill:none;stroke:#CCC0DB;stroke-width:1.3874;stroke-linecap:round;stroke-linejoin:round;stroke-miterlimit:10;}
	.st32{fill:none;stroke:#CCC0DB;stroke-width:0.4269;stroke-linejoin:round;stroke-miterlimit:10;}
	
		.st33{clip-path:url(#SVGID_00000023281696712957648710000015550529920915507358_);fill:none;stroke:#9D86BB;stroke-width:1.3874;stroke-linecap:round;stroke-linejoin:round;stroke-miterlimit:10;}
	.st34{fill:none;stroke:#9D86BB;stroke-width:0.4269;stroke-linejoin:round;stroke-miterlimit:10;}
	
		.st35{clip-path:url(#SVGID_00000088106575197830788790000014269315364424188048_);fill:none;stroke:#674E8A;stroke-width:1.3874;stroke-linecap:round;stroke-linejoin:round;stroke-miterlimit:10;}
	.st36{fill:none;stroke:#674E8A;stroke-width:0.4269;stroke-linejoin:round;stroke-miterlimit:10;}
	.st37{font-size:8.8583px;}
	.st38{font-size:12.487px;}
	.st39{fill:none;stroke:#7F7F7F;stroke-width:1.3314;stroke-linecap:round;stroke-linejoin:round;stroke-miterlimit:10;}
	.st40{font-size:6.8617px;}
	.st41{fill:none;stroke:#0E0E0E;stroke-width:1.3314;stroke-linecap:round;stroke-linejoin:round;stroke-miterlimit:10;}
	.st42{fill:none;stroke:#90AAD8;stroke-width:1.3314;stroke-linecap:round;stroke-linejoin:round;stroke-miterlimit:10;}
	.st43{fill:none;stroke:#CCC0DB;stroke-width:1.3314;stroke-linecap:round;stroke-linejoin:round;stroke-miterlimit:10;}
	.st44{font-family:'MalgunGothic';}
	.st45{fill:none;stroke:#9D86BB;stroke-width:1.3314;stroke-linecap:round;stroke-linejoin:round;stroke-miterlimit:10;}
	.st46{fill:none;stroke:#674E8A;stroke-width:1.3314;stroke-linecap:round;stroke-linejoin:round;stroke-miterlimit:10;}
	.st47{font-family:'AppleSDGothicNeoEB00';}
	.st48{font-size:7.742px;}
</style>
<g>
	<path class="st0" d="M43.539,137.537h176.152 M43.539,117.054h176.152 M43.539,96.673h176.152 M43.539,76.191h176.152
		 M43.539,55.81h176.152 M43.539,35.327h176.152"/>
</g>
<g>
	<line class="st0" x1="43.539" y1="157.917" x2="43.539" y2="35.327"/>
</g>
<g>
	<path class="st0" d="M40.773,157.917h2.765 M40.773,137.537h2.765 M40.773,117.054h2.765 M40.773,96.673h2.765 M40.773,76.191
		h2.765 M40.773,55.81h2.765 M40.773,35.327h2.765"/>
</g>
<g>
	<line class="st0" x1="43.539" y1="157.917" x2="219.691" y2="157.917"/>
</g>
<g>
	<path class="st0" d="M43.539,157.917v2.765 M65.558,157.917v2.765 M87.577,157.917v2.765 M109.596,157.917v2.765 M131.615,157.917
		v2.765 M153.634,157.917v2.765 M175.653,157.917v2.765 M197.672,157.917v2.765 M219.691,157.917v2.765"/>
</g>
<g>
	<defs>
		<polygon id="SVGID_1_" points="43.436,158.532 220.203,158.532 220.203,35.327 43.436,35.327 43.436,158.532 		"/>
	</defs>
	<clipPath id="SVGID_00000001664700075431098550000003597277240892316859_">
		<use xlink:href="#SVGID_1_"  style="overflow:visible;"/>
	</clipPath>
	
		<polyline style="clip-path:url(#SVGID_00000001664700075431098550000003597277240892316859_);fill:none;stroke:#7F7F7F;stroke-width:1.3314;stroke-linecap:round;stroke-linejoin:round;stroke-miterlimit:10;" points="
		43.487,157.968 54.548,157.968 65.506,157.968 109.544,157.968 153.583,157.968 219.64,157.968 	"/>
</g>
<g>
	<polygon class="st2" points="43.555,155.784 45.705,157.935 43.555,160.085 41.404,157.935 43.555,155.784 	"/>
	<polygon class="st3" points="43.555,155.784 45.705,157.935 43.555,160.085 41.404,157.935 43.555,155.784 	"/>
	<polygon class="st2" points="54.513,155.784 56.664,157.935 54.513,160.085 52.362,157.935 54.513,155.784 	"/>
	<polygon class="st3" points="54.513,155.784 56.664,157.935 54.513,160.085 52.362,157.935 54.513,155.784 	"/>
	<polygon class="st2" points="65.574,155.784 67.724,157.935 65.574,160.085 63.423,157.935 65.574,155.784 	"/>
	<polygon class="st3" points="65.574,155.784 67.724,157.935 65.574,160.085 63.423,157.935 65.574,155.784 	"/>
	<polygon class="st2" points="109.612,155.784 111.762,157.935 109.612,160.085 107.461,157.935 109.612,155.784 	"/>
	<polygon class="st3" points="109.612,155.784 111.762,157.935 109.612,160.085 107.461,157.935 109.612,155.784 	"/>
	<polygon class="st2" points="153.65,155.784 155.8,157.935 153.65,160.085 151.499,157.935 153.65,155.784 	"/>
	<polygon class="st3" points="153.65,155.784 155.8,157.935 153.65,160.085 151.499,157.935 153.65,155.784 	"/>
	<polygon class="st2" points="219.707,155.784 221.858,157.935 219.707,160.085 217.556,157.935 219.707,155.784 	"/>
	<polygon class="st3" points="219.707,155.784 221.858,157.935 219.707,160.085 217.556,157.935 219.707,155.784 	"/>
</g>
<g>
	<defs>
		<polygon id="SVGID_00000116931171287731408550000013455284554467246723_" points="43.436,158.532 220.203,158.532 220.203,35.327 
			43.436,35.327 43.436,158.532 		"/>
	</defs>
	<clipPath id="SVGID_00000021080777169217497510000008425468986228738725_">
		<use xlink:href="#SVGID_00000116931171287731408550000013455284554467246723_"  style="overflow:visible;"/>
	</clipPath>
	
		<polyline style="clip-path:url(#SVGID_00000021080777169217497510000008425468986228738725_);fill:none;stroke:#0E0E0E;stroke-width:1.3314;stroke-linecap:round;stroke-linejoin:round;stroke-miterlimit:10;" points="
		43.487,156.739 54.548,71.736 65.506,51.253 109.544,63.133 153.583,74.603 219.64,130.521 	"/>
</g>
<g>
	<polygon class="st5" points="41.404,154.555 45.705,154.555 45.705,158.857 41.404,158.857 41.404,154.555 	"/>
	<polygon class="st6" points="41.404,154.555 45.705,154.555 45.705,158.857 41.404,158.857 41.404,154.555 	"/>
	<polygon class="st5" points="52.362,69.551 56.664,69.551 56.664,73.853 52.362,73.853 52.362,69.551 	"/>
	<polygon class="st6" points="52.362,69.551 56.664,69.551 56.664,73.853 52.362,73.853 52.362,69.551 	"/>
	<polygon class="st5" points="63.423,49.171 67.724,49.171 67.724,53.472 63.423,53.472 63.423,49.171 	"/>
	<polygon class="st6" points="63.423,49.171 67.724,49.171 67.724,53.472 63.423,53.472 63.423,49.171 	"/>
	<polygon class="st5" points="107.461,61.051 111.762,61.051 111.762,65.352 107.461,65.352 107.461,61.051 	"/>
	<polygon class="st6" points="107.461,61.051 111.762,61.051 111.762,65.352 107.461,65.352 107.461,61.051 	"/>
	<polygon class="st5" points="151.499,72.419 155.8,72.419 155.8,76.72 151.499,76.72 151.499,72.419 	"/>
	<polygon class="st6" points="151.499,72.419 155.8,72.419 155.8,76.72 151.499,76.72 151.499,72.419 	"/>
	<polygon class="st5" points="217.556,128.44 221.858,128.44 221.858,132.741 217.556,132.741 217.556,128.44 	"/>
	<polygon class="st6" points="217.556,128.44 221.858,128.44 221.858,132.741 217.556,132.741 217.556,128.44 	"/>
</g>
<g>
	<defs>
		<polygon id="SVGID_00000183243604687282980720000008648093698047264401_" points="43.436,158.532 220.203,158.532 220.203,35.327 
			43.436,35.327 43.436,158.532 		"/>
	</defs>
	<clipPath id="SVGID_00000005980409923594230100000001442356300781349785_">
		<use xlink:href="#SVGID_00000183243604687282980720000008648093698047264401_"  style="overflow:visible;"/>
	</clipPath>
	
		<polyline style="clip-path:url(#SVGID_00000005980409923594230100000001442356300781349785_);fill:none;stroke:#90AAD8;stroke-width:1.3314;stroke-linecap:round;stroke-linejoin:round;stroke-miterlimit:10;" points="
		43.487,155.51 54.548,80.338 65.506,66 109.544,81.977 153.583,94.574 219.64,137.895 	"/>
</g>
<g>
	<polygon class="st8" points="40.585,152.507 46.525,152.507 46.525,158.447 40.585,158.447 40.585,152.507 	"/>
	<polygon class="st9" points="40.585,152.507 46.525,152.507 46.525,158.447 40.585,158.447 40.585,152.507 	"/>
	<polygon class="st8" points="51.543,77.335 57.483,77.335 57.483,83.275 51.543,83.275 51.543,77.335 	"/>
	<polygon class="st9" points="51.543,77.335 57.483,77.335 57.483,83.275 51.543,83.275 51.543,77.335 	"/>
	<polygon class="st8" points="62.604,63.099 68.544,63.099 68.544,69.039 62.604,69.039 62.604,63.099 	"/>
	<polygon class="st9" points="62.604,63.099 68.544,63.099 68.544,69.039 62.604,69.039 62.604,63.099 	"/>
	<polygon class="st8" points="106.642,78.973 112.582,78.973 112.582,84.913 106.642,84.913 106.642,78.973 	"/>
	<polygon class="st9" points="106.642,78.973 112.582,78.973 112.582,84.913 106.642,84.913 106.642,78.973 	"/>
	<polygon class="st8" points="150.68,91.673 156.62,91.673 156.62,97.613 150.68,97.613 150.68,91.673 	"/>
	<polygon class="st9" points="150.68,91.673 156.62,91.673 156.62,97.613 150.68,97.613 150.68,91.673 	"/>
	<polygon class="st8" points="216.737,134.994 222.677,134.994 222.677,140.934 216.737,140.934 216.737,134.994 	"/>
	<polygon class="st9" points="216.737,134.994 222.677,134.994 222.677,140.934 216.737,140.934 216.737,134.994 	"/>
</g>
<g>
	<path class="st10" d="M43.555,152.507v5.94 M40.585,155.477h5.94"/>
	<path class="st9" d="M43.555,152.507v5.94 M40.585,155.477h5.94"/>
	<path class="st10" d="M54.513,77.335v5.94 M51.543,80.305h5.94"/>
	<path class="st9" d="M54.513,77.335v5.94 M51.543,80.305h5.94"/>
	<path class="st10" d="M65.574,63.099v5.94 M62.604,66.069h5.94"/>
	<path class="st9" d="M65.574,63.099v5.94 M62.604,66.069h5.94"/>
	<path class="st10" d="M109.612,78.973v5.94 M106.642,81.943h5.94"/>
	<path class="st9" d="M109.612,78.973v5.94 M106.642,81.943h5.94"/>
	<path class="st10" d="M153.65,91.673v5.94 M150.68,94.643h5.94"/>
	<path class="st9" d="M153.65,91.673v5.94 M150.68,94.643h5.94"/>
	<path class="st10" d="M219.707,134.994v5.94 M216.737,137.964h5.94"/>
	<path class="st9" d="M219.707,134.994v5.94 M216.737,137.964h5.94"/>
</g>
<g>
	<defs>
		<polygon id="SVGID_00000127730531168284786010000005265985115123017632_" points="43.436,158.532 220.203,158.532 220.203,35.327 
			43.436,35.327 43.436,158.532 		"/>
	</defs>
	<clipPath id="SVGID_00000118371573775965541870000004131425250019089556_">
		<use xlink:href="#SVGID_00000127730531168284786010000005265985115123017632_"  style="overflow:visible;"/>
	</clipPath>
	
		<polyline style="clip-path:url(#SVGID_00000118371573775965541870000004131425250019089556_);fill:none;stroke:#CCC0DB;stroke-width:1.3314;stroke-linecap:round;stroke-linejoin:round;stroke-miterlimit:10;" points="
		43.487,153.052 54.548,75.013 65.506,63.542 109.544,75.013 153.583,83.206 219.64,133.799 	"/>
</g>
<g>
	<path class="st12" d="M45.705,153.019c0,1.188-0.963,2.151-2.151,2.151s-2.151-0.963-2.151-2.151c0-1.188,0.963-2.151,2.151-2.151
		S45.705,151.831,45.705,153.019L45.705,153.019z"/>
	<path class="st13" d="M45.705,153.019c0,1.188-0.963,2.151-2.151,2.151s-2.151-0.963-2.151-2.151c0-1.188,0.963-2.151,2.151-2.151
		S45.705,151.831,45.705,153.019L45.705,153.019z"/>
	<path class="st12" d="M56.664,74.979c0,1.188-0.963,2.151-2.151,2.151s-2.151-0.963-2.151-2.151s0.963-2.151,2.151-2.151
		S56.664,73.792,56.664,74.979L56.664,74.979z"/>
	<path class="st13" d="M56.664,74.979c0,1.188-0.963,2.151-2.151,2.151s-2.151-0.963-2.151-2.151s0.963-2.151,2.151-2.151
		S56.664,73.792,56.664,74.979L56.664,74.979z"/>
	<path class="st12" d="M67.724,63.611c0,1.188-0.963,2.151-2.151,2.151c-1.188,0-2.151-0.963-2.151-2.151
		c0-1.188,0.963-2.151,2.151-2.151C66.761,61.461,67.724,62.424,67.724,63.611L67.724,63.611z"/>
	<path class="st13" d="M67.724,63.611c0,1.188-0.963,2.151-2.151,2.151c-1.188,0-2.151-0.963-2.151-2.151
		c0-1.188,0.963-2.151,2.151-2.151C66.761,61.461,67.724,62.424,67.724,63.611L67.724,63.611z"/>
	<path class="st12" d="M111.762,74.979c0,1.188-0.963,2.151-2.151,2.151s-2.151-0.963-2.151-2.151s0.963-2.151,2.151-2.151
		S111.762,73.792,111.762,74.979L111.762,74.979z"/>
	<path class="st13" d="M111.762,74.979c0,1.188-0.963,2.151-2.151,2.151s-2.151-0.963-2.151-2.151s0.963-2.151,2.151-2.151
		S111.762,73.792,111.762,74.979L111.762,74.979z"/>
	<path class="st12" d="M155.8,83.172c0,1.188-0.963,2.151-2.151,2.151c-1.188,0-2.151-0.963-2.151-2.151s0.963-2.151,2.151-2.151
		C154.838,81.022,155.8,81.985,155.8,83.172L155.8,83.172z"/>
	<path class="st13" d="M155.8,83.172c0,1.188-0.963,2.151-2.151,2.151c-1.188,0-2.151-0.963-2.151-2.151s0.963-2.151,2.151-2.151
		C154.838,81.022,155.8,81.985,155.8,83.172L155.8,83.172z"/>
	<path class="st12" d="M221.858,133.868c0,1.188-0.963,2.151-2.151,2.151s-2.151-0.963-2.151-2.151c0-1.188,0.963-2.151,2.151-2.151
		S221.858,132.68,221.858,133.868L221.858,133.868z"/>
	<path class="st13" d="M221.858,133.868c0,1.188-0.963,2.151-2.151,2.151s-2.151-0.963-2.151-2.151c0-1.188,0.963-2.151,2.151-2.151
		S221.858,132.68,221.858,133.868L221.858,133.868z"/>
</g>
<g>
	<defs>
		<polygon id="SVGID_00000171001472264441023300000002942156410929825928_" points="43.436,158.532 220.203,158.532 220.203,35.327 
			43.436,35.327 43.436,158.532 		"/>
	</defs>
	<clipPath id="SVGID_00000172430648266475987300000017754736179591284404_">
		<use xlink:href="#SVGID_00000171001472264441023300000002942156410929825928_"  style="overflow:visible;"/>
	</clipPath>
	
		<polyline style="clip-path:url(#SVGID_00000172430648266475987300000017754736179591284404_);fill:none;stroke:#9D86BB;stroke-width:1.3314;stroke-linecap:round;stroke-linejoin:round;stroke-miterlimit:10;" points="
		43.487,159.607 54.548,81.158 65.506,63.952 109.544,83.206 153.583,93.755 219.64,137.076 	"/>
</g>
<g>
	<path class="st15" d="M56.664,81.124c0,1.188-0.963,2.151-2.151,2.151s-2.151-0.963-2.151-2.151c0-1.188,0.963-2.151,2.151-2.151
		S56.664,79.936,56.664,81.124L56.664,81.124z"/>
	<path class="st16" d="M56.664,81.124c0,1.188-0.963,2.151-2.151,2.151s-2.151-0.963-2.151-2.151c0-1.188,0.963-2.151,2.151-2.151
		S56.664,79.936,56.664,81.124L56.664,81.124z"/>
	<path class="st15" d="M67.724,64.021c0,1.188-0.963,2.151-2.151,2.151c-1.188,0-2.151-0.963-2.151-2.151
		c0-1.188,0.963-2.151,2.151-2.151C66.761,61.87,67.724,62.833,67.724,64.021L67.724,64.021z"/>
	<path class="st16" d="M67.724,64.021c0,1.188-0.963,2.151-2.151,2.151c-1.188,0-2.151-0.963-2.151-2.151
		c0-1.188,0.963-2.151,2.151-2.151C66.761,61.87,67.724,62.833,67.724,64.021L67.724,64.021z"/>
	<path class="st15" d="M111.762,83.172c0,1.188-0.963,2.151-2.151,2.151s-2.151-0.963-2.151-2.151s0.963-2.151,2.151-2.151
		S111.762,81.985,111.762,83.172L111.762,83.172z"/>
	<path class="st16" d="M111.762,83.172c0,1.188-0.963,2.151-2.151,2.151s-2.151-0.963-2.151-2.151s0.963-2.151,2.151-2.151
		S111.762,81.985,111.762,83.172L111.762,83.172z"/>
	<path class="st15" d="M155.8,93.824c0,1.188-0.963,2.151-2.151,2.151c-1.188,0-2.151-0.963-2.151-2.151
		c0-1.188,0.963-2.151,2.151-2.151C154.838,91.673,155.8,92.636,155.8,93.824L155.8,93.824z"/>
	<path class="st16" d="M155.8,93.824c0,1.188-0.963,2.151-2.151,2.151c-1.188,0-2.151-0.963-2.151-2.151
		c0-1.188,0.963-2.151,2.151-2.151C154.838,91.673,155.8,92.636,155.8,93.824L155.8,93.824z"/>
	<path class="st15" d="M221.858,137.145c0,1.188-0.963,2.151-2.151,2.151s-2.151-0.963-2.151-2.151c0-1.188,0.963-2.151,2.151-2.151
		S221.858,135.957,221.858,137.145L221.858,137.145z"/>
	<path class="st16" d="M221.858,137.145c0,1.188-0.963,2.151-2.151,2.151s-2.151-0.963-2.151-2.151c0-1.188,0.963-2.151,2.151-2.151
		S221.858,135.957,221.858,137.145L221.858,137.145z"/>
</g>
<g>
	<defs>
		<polygon id="SVGID_00000163034292372797258070000001288774857054439868_" points="43.436,158.532 220.203,158.532 220.203,35.327 
			43.436,35.327 43.436,158.532 		"/>
	</defs>
	<clipPath id="SVGID_00000012430006079932412100000017077297269093619377_">
		<use xlink:href="#SVGID_00000163034292372797258070000001288774857054439868_"  style="overflow:visible;"/>
	</clipPath>
	
		<polyline style="clip-path:url(#SVGID_00000012430006079932412100000017077297269093619377_);fill:none;stroke:#674E8A;stroke-width:1.3314;stroke-linecap:round;stroke-linejoin:round;stroke-miterlimit:10;" points="
		43.487,157.968 54.548,88.941 65.506,76.242 109.544,90.887 153.583,103.177 219.64,146.088 	"/>
</g>
<g>
	<path class="st18" d="M45.705,157.935c0,1.188-0.963,2.151-2.151,2.151s-2.151-0.963-2.151-2.151c0-1.188,0.963-2.151,2.151-2.151
		S45.705,156.747,45.705,157.935L45.705,157.935z"/>
	<path class="st19" d="M45.705,157.935c0,1.188-0.963,2.151-2.151,2.151s-2.151-0.963-2.151-2.151c0-1.188,0.963-2.151,2.151-2.151
		S45.705,156.747,45.705,157.935L45.705,157.935z"/>
	<path class="st18" d="M56.664,88.908c0,1.188-0.963,2.151-2.151,2.151s-2.151-0.963-2.151-2.151c0-1.188,0.963-2.151,2.151-2.151
		S56.664,87.72,56.664,88.908L56.664,88.908z"/>
	<path class="st19" d="M56.664,88.908c0,1.188-0.963,2.151-2.151,2.151s-2.151-0.963-2.151-2.151c0-1.188,0.963-2.151,2.151-2.151
		S56.664,87.72,56.664,88.908L56.664,88.908z"/>
	<path class="st18" d="M67.724,76.208c0,1.188-0.963,2.151-2.151,2.151c-1.188,0-2.151-0.963-2.151-2.151
		c0-1.188,0.963-2.151,2.151-2.151C66.761,74.058,67.724,75.021,67.724,76.208L67.724,76.208z"/>
	<path class="st19" d="M67.724,76.208c0,1.188-0.963,2.151-2.151,2.151c-1.188,0-2.151-0.963-2.151-2.151
		c0-1.188,0.963-2.151,2.151-2.151C66.761,74.058,67.724,75.021,67.724,76.208L67.724,76.208z"/>
	<path class="st18" d="M111.762,90.956c0,1.188-0.963,2.151-2.151,2.151s-2.151-0.963-2.151-2.151s0.963-2.151,2.151-2.151
		S111.762,89.768,111.762,90.956L111.762,90.956z"/>
	<path class="st19" d="M111.762,90.956c0,1.188-0.963,2.151-2.151,2.151s-2.151-0.963-2.151-2.151s0.963-2.151,2.151-2.151
		S111.762,89.768,111.762,90.956L111.762,90.956z"/>
	<path class="st18" d="M155.8,103.246c0,1.188-0.963,2.151-2.151,2.151c-1.188,0-2.151-0.963-2.151-2.151s0.963-2.151,2.151-2.151
		C154.838,101.095,155.8,102.058,155.8,103.246L155.8,103.246z"/>
	<path class="st19" d="M155.8,103.246c0,1.188-0.963,2.151-2.151,2.151c-1.188,0-2.151-0.963-2.151-2.151s0.963-2.151,2.151-2.151
		C154.838,101.095,155.8,102.058,155.8,103.246L155.8,103.246z"/>
	<path class="st18" d="M221.858,146.157c0,1.188-0.963,2.151-2.151,2.151s-2.151-0.963-2.151-2.151c0-1.188,0.963-2.151,2.151-2.151
		S221.858,144.969,221.858,146.157L221.858,146.157z"/>
	<path class="st19" d="M221.858,146.157c0,1.188-0.963,2.151-2.151,2.151s-2.151-0.963-2.151-2.151c0-1.188,0.963-2.151,2.151-2.151
		S221.858,144.969,221.858,146.157L221.858,146.157z"/>
</g>
<g>
	<g>
		<text transform="matrix(1 0 0 1 31.2845 160.3572)" class="st20 st21">0</text>
	</g>
</g>
<g>
	<g>
		<text transform="matrix(1 0 0 1 24.7962 139.9275)" class="st20 st21">0.5</text>
	</g>
</g>
<g>
	<g>
		<text transform="matrix(1 0 0 1 31.2845 119.4988)" class="st20 st21">1</text>
	</g>
</g>
<g>
	<g>
		<text transform="matrix(1 0 0 1 24.7962 99.0623)" class="st20 st21">1.5</text>
	</g>
</g>
<g>
	<g>
		<text transform="matrix(1 0 0 1 31.2845 78.6326)" class="st20 st21">2</text>
	</g>
</g>
<g>
	<g>
		<text transform="matrix(1 0 0 1 24.7962 58.1971)" class="st20 st21">2.5</text>
	</g>
</g>
<g>
	<g>
		<text transform="matrix(1 0 0 1 31.2845 37.7674)" class="st20 st21">3</text>
	</g>
</g>
<g>
	<g>
		<text transform="matrix(1 0 0 1 41.3587 171.452)" class="st20 st21">0</text>
	</g>
</g>
<g>
	<g>
		<text transform="matrix(1 0 0 1 63.3753 171.452)" class="st20 st21">1</text>
	</g>
</g>
<g>
	<g>
		<text transform="matrix(1 0 0 1 85.3919 171.452)" class="st20 st21">2</text>
	</g>
</g>
<g>
	<g>
		<text transform="matrix(1 0 0 1 107.4085 171.452)" class="st20 st21">3</text>
	</g>
</g>
<g>
	<g>
		<text transform="matrix(1 0 0 1 129.4173 171.452)" class="st20 st21">4</text>
	</g>
</g>
<g>
	<g>
		<text transform="matrix(1 0 0 1 151.4339 171.452)" class="st20 st21">5</text>
	</g>
</g>
<g>
	<g>
		<text transform="matrix(1 0 0 1 173.4437 171.452)" class="st20 st21">6</text>
	</g>
</g>
<g>
	<g>
		<text transform="matrix(1 0 0 1 195.4603 171.452)" class="st20 st21">7</text>
	</g>
</g>
<g>
	<g>
		<text transform="matrix(1 0 0 1 217.4769 171.452)" class="st20 st21">8</text>
	</g>
</g>
<g>
	<g>
		<text transform="matrix(1.748456e-07 -1 1 1.748456e-07 15.3607 142.0559)"><tspan x="0" y="0" class="st20 st21">Al</tspan><tspan x="6.869" y="0" class="st20 st21">c</tspan><tspan x="10.455" y="0" class="st20 st21">o</tspan><tspan x="14.955" y="0" class="st20 st21">h</tspan><tspan x="19.455" y="0" class="st20 st21">o</tspan><tspan x="23.954" y="0" class="st20 st21">l</tspan><tspan x="25.905" y="0" class="st20 st21"> </tspan><tspan x="27.844" y="0" class="st20 st21">c</tspan><tspan x="31.43" y="0" class="st20 st21">o</tspan><tspan x="35.93" y="0" class="st20 st21">n</tspan><tspan x="40.43" y="0" class="st20 st21">c</tspan><tspan x="44.015" y="0" class="st20 st21">e</tspan><tspan x="48.219" y="0" class="st20 st21">n</tspan><tspan x="52.719" y="0" class="st20 st21">t</tspan><tspan x="55.583" y="0" class="st20 st21">r</tspan><tspan x="58.547" y="0" class="st20 st21">a</tspan><tspan x="62.636" y="0" class="st20 st21">ti</tspan><tspan x="67.372" y="0" class="st20 st21">o</tspan><tspan x="71.871" y="0" class="st20 st21">n</tspan><tspan x="76.371" y="0" class="st20 st21"> </tspan><tspan x="78.31" y="0" class="st20 st21">(</tspan><tspan x="80.87" y="0" class="st20 st21">g/</tspan><tspan x="88.154" y="0" class="st20 st21">L</tspan><tspan x="91.736" y="0" class="st20 st21">)</tspan></text>
	</g>
</g>
<g>
	<g>
		<text transform="matrix(1 0 0 1 115.4154 185.408)"><tspan x="0" y="0" class="st20 st21">T</tspan><tspan x="4.1" y="0" class="st20 st21">i</tspan><tspan x="6.05" y="0" class="st20 st21">me</tspan><tspan x="17.019" y="0" class="st20 st21"> </tspan><tspan x="19.162" y="0" class="st20 st21">(</tspan><tspan x="21.723" y="0" class="st20 st21">h</tspan><tspan x="26.223" y="0" class="st20 st21">)</tspan></text>
	</g>
</g>
<g>
	<g>
		<text transform="matrix(1 0 0 1 109.262 26.8855)"><tspan x="0" y="0" class="st22 st23">B</tspan><tspan x="6.752" y="0" class="st22 st23">l</tspan><tspan x="9.72" y="0" class="st22 st23">oo</tspan><tspan x="22.603" y="0" class="st22 st23">d</tspan><tspan x="29.045" y="0" class="st22 st23"> </tspan><tspan x="31.514" y="0" class="st22 st23">A</tspan><tspan x="38.775" y="0" class="st22 st23">l</tspan><tspan x="41.742" y="0" class="st22 st23">c</tspan><tspan x="46.66" y="0" class="st22 st23">o</tspan><tspan x="53.102" y="0" class="st22 st23">h</tspan><tspan x="59.544" y="0" class="st22 st23">ol</tspan></text>
	</g>
</g>
<g>
	<g>
		<path class="st24" d="M283.699,138.345h175.779 M283.699,120.308h175.779 M283.699,102.271h175.779 M283.699,84.341h175.779
			 M283.699,66.304h175.779 M283.699,48.374h175.779 M283.699,30.337h175.779"/>
	</g>
	<g>
		<line class="st24" x1="283.699" y1="156.275" x2="283.699" y2="30.337"/>
	</g>
	<g>
		<path class="st24" d="M280.818,156.275h2.882 M280.818,138.345h2.882 M280.818,120.308h2.882 M280.818,102.271h2.882
			 M280.818,84.341h2.882 M280.818,66.304h2.882 M280.818,48.374h2.882 M280.818,30.337h2.882"/>
	</g>
	<g>
		<line class="st24" x1="283.699" y1="156.275" x2="459.478" y2="156.275"/>
	</g>
	<g>
		<path class="st24" d="M283.699,156.275v2.882 M305.685,156.275v2.882 M327.671,156.275v2.882 M349.55,156.275v2.882
			 M371.536,156.275v2.882 M393.521,156.275v2.882 M415.507,156.275v2.882 M437.493,156.275v2.882 M459.478,156.275v2.882"/>
	</g>
	<g>
		<defs>
			<polygon id="SVGID_00000023253800756930753040000006183369933443054749_" points="283.593,156.915 460.119,156.915 
				460.119,30.23 283.593,30.23 283.593,156.915 			"/>
		</defs>
		<clipPath id="SVGID_00000163756510801135503890000015537474875712928384_">
			<use xlink:href="#SVGID_00000023253800756930753040000006183369933443054749_"  style="overflow:visible;"/>
		</clipPath>
		
			<polyline style="clip-path:url(#SVGID_00000163756510801135503890000015537474875712928384_);fill:none;stroke:#7F7F7F;stroke-width:1.3874;stroke-linecap:round;stroke-linejoin:round;stroke-miterlimit:10;" points="
			283.646,156.328 294.639,156.328 305.632,156.328 349.603,156.328 393.575,156.328 459.532,156.328 		"/>
	</g>
	<g>
		<polygon class="st2" points="283.692,154.052 285.933,156.293 283.692,158.534 281.451,156.293 283.692,154.052 		"/>
		<polygon class="st26" points="283.692,154.052 285.933,156.293 283.692,158.534 281.451,156.293 283.692,154.052 		"/>
		<polygon class="st2" points="294.685,154.052 296.926,156.293 294.685,158.534 292.444,156.293 294.685,154.052 		"/>
		<polygon class="st26" points="294.685,154.052 296.926,156.293 294.685,158.534 292.444,156.293 294.685,154.052 		"/>
		<polygon class="st2" points="305.678,154.052 307.919,156.293 305.678,158.534 303.437,156.293 305.678,154.052 		"/>
		<polygon class="st26" points="305.678,154.052 307.919,156.293 305.678,158.534 303.437,156.293 305.678,154.052 		"/>
		<polygon class="st2" points="349.542,154.052 351.784,156.293 349.542,158.534 347.301,156.293 349.542,154.052 		"/>
		<polygon class="st26" points="349.542,154.052 351.784,156.293 349.542,158.534 347.301,156.293 349.542,154.052 		"/>
		<polygon class="st2" points="393.514,154.052 395.755,156.293 393.514,158.534 391.273,156.293 393.514,154.052 		"/>
		<polygon class="st26" points="393.514,154.052 395.755,156.293 393.514,158.534 391.273,156.293 393.514,154.052 		"/>
		<polygon class="st2" points="459.471,154.052 461.712,156.293 459.471,158.534 457.23,156.293 459.471,154.052 		"/>
		<polygon class="st26" points="459.471,154.052 461.712,156.293 459.471,158.534 457.23,156.293 459.471,154.052 		"/>
	</g>
	<g>
		<defs>
			<polygon id="SVGID_00000021828010194041268380000007857987609835699608_" points="283.593,156.915 460.119,156.915 
				460.119,30.23 283.593,30.23 283.593,156.915 			"/>
		</defs>
		<clipPath id="SVGID_00000028286577858953460210000011896066772444961726_">
			<use xlink:href="#SVGID_00000021828010194041268380000007857987609835699608_"  style="overflow:visible;"/>
		</clipPath>
		
			<polyline style="clip-path:url(#SVGID_00000028286577858953460210000011896066772444961726_);fill:none;stroke:#0E0E0E;stroke-width:1.3874;stroke-linecap:round;stroke-linejoin:round;stroke-miterlimit:10;" points="
			283.646,150.885 294.639,105.206 305.632,85.782 349.603,46.186 393.575,75.642 459.532,139.038 		"/>
	</g>
	<g>
		<polygon class="st5" points="281.451,148.715 285.933,148.715 285.933,153.198 281.451,153.198 281.451,148.715 		"/>
		<polygon class="st28" points="281.451,148.715 285.933,148.715 285.933,153.198 281.451,153.198 281.451,148.715 		"/>
		<polygon class="st5" points="292.444,102.93 296.926,102.93 296.926,107.412 292.444,107.412 292.444,102.93 		"/>
		<polygon class="st28" points="292.444,102.93 296.926,102.93 296.926,107.412 292.444,107.412 292.444,102.93 		"/>
		<polygon class="st5" points="303.437,83.505 307.919,83.505 307.919,87.988 303.437,87.988 303.437,83.505 		"/>
		<polygon class="st28" points="303.437,83.505 307.919,83.505 307.919,87.988 303.437,87.988 303.437,83.505 		"/>
		<polygon class="st5" points="347.301,43.91 351.784,43.91 351.784,48.392 347.301,48.392 347.301,43.91 		"/>
		<polygon class="st28" points="347.301,43.91 351.784,43.91 351.784,48.392 347.301,48.392 347.301,43.91 		"/>
		<polygon class="st5" points="391.273,73.473 395.755,73.473 395.755,77.956 391.273,77.956 391.273,73.473 		"/>
		<polygon class="st28" points="391.273,73.473 395.755,73.473 395.755,77.956 391.273,77.956 391.273,73.473 		"/>
		<polygon class="st5" points="457.23,136.762 461.712,136.762 461.712,141.245 457.23,141.245 457.23,136.762 		"/>
		<polygon class="st28" points="457.23,136.762 461.712,136.762 461.712,141.245 457.23,141.245 457.23,136.762 		"/>
	</g>
	<g>
		<defs>
			<polygon id="SVGID_00000060741614198267559310000004378106496159136393_" points="283.593,156.915 460.119,156.915 
				460.119,30.23 283.593,30.23 283.593,156.915 			"/>
		</defs>
		<clipPath id="SVGID_00000090272415101376368420000013570874746444655533_">
			<use xlink:href="#SVGID_00000060741614198267559310000004378106496159136393_"  style="overflow:visible;"/>
		</clipPath>
		
			<polyline style="clip-path:url(#SVGID_00000090272415101376368420000013570874746444655533_);fill:none;stroke:#90AAD8;stroke-width:1.3874;stroke-linecap:round;stroke-linejoin:round;stroke-miterlimit:10;" points="
			283.646,152.379 294.639,107.34 305.632,92.932 349.603,65.29 393.575,89.41 459.532,148.75 		"/>
	</g>
	<g>
		<polygon class="st8" points="281.024,149.676 286.36,149.676 286.36,155.012 281.024,155.012 281.024,149.676 		"/>
		<polygon class="st30" points="281.024,149.676 286.36,149.676 286.36,155.012 281.024,155.012 281.024,149.676 		"/>
		<polygon class="st8" points="292.017,104.744 297.353,104.744 297.353,110.08 292.017,110.08 292.017,104.744 		"/>
		<polygon class="st30" points="292.017,104.744 297.353,104.744 297.353,110.08 292.017,110.08 292.017,104.744 		"/>
		<polygon class="st8" points="303.01,90.336 308.346,90.336 308.346,95.672 303.01,95.672 303.01,90.336 		"/>
		<polygon class="st30" points="303.01,90.336 308.346,90.336 308.346,95.672 303.01,95.672 303.01,90.336 		"/>
		<polygon class="st8" points="346.874,62.587 352.211,62.587 352.211,67.923 346.874,67.923 346.874,62.587 		"/>
		<polygon class="st30" points="346.874,62.587 352.211,62.587 352.211,67.923 346.874,67.923 346.874,62.587 		"/>
		<polygon class="st8" points="390.846,86.707 396.182,86.707 396.182,92.043 390.846,92.043 390.846,86.707 		"/>
		<polygon class="st30" points="390.846,86.707 396.182,86.707 396.182,92.043 390.846,92.043 390.846,86.707 		"/>
		<polygon class="st8" points="456.803,146.154 462.139,146.154 462.139,151.49 456.803,151.49 456.803,146.154 		"/>
		<polygon class="st30" points="456.803,146.154 462.139,146.154 462.139,151.49 456.803,151.49 456.803,146.154 		"/>
	</g>
	<g>
		<path class="st10" d="M286.36,155.012l-5.336-5.336 M283.692,149.676v5.336 M281.024,155.012l5.336-5.336"/>
		<path class="st30" d="M286.36,155.012l-5.336-5.336 M283.692,149.676v5.336 M281.024,155.012l5.336-5.336"/>
		<path class="st10" d="M297.353,110.08l-5.336-5.336 M294.685,104.744v5.336 M292.017,110.08l5.336-5.336"/>
		<path class="st30" d="M297.353,110.08l-5.336-5.336 M294.685,104.744v5.336 M292.017,110.08l5.336-5.336"/>
		<path class="st10" d="M308.346,95.672l-5.336-5.336 M305.678,90.336v5.336 M303.01,95.672l5.336-5.336"/>
		<path class="st30" d="M308.346,95.672l-5.336-5.336 M305.678,90.336v5.336 M303.01,95.672l5.336-5.336"/>
		<path class="st10" d="M352.211,67.923l-5.336-5.336 M349.542,62.587v5.336 M346.874,67.923l5.336-5.336"/>
		<path class="st30" d="M352.211,67.923l-5.336-5.336 M349.542,62.587v5.336 M346.874,67.923l5.336-5.336"/>
		<path class="st10" d="M396.182,92.043l-5.336-5.336 M393.514,86.707v5.336 M390.846,92.043l5.336-5.336"/>
		<path class="st30" d="M396.182,92.043l-5.336-5.336 M393.514,86.707v5.336 M390.846,92.043l5.336-5.336"/>
		<path class="st10" d="M462.139,151.49l-5.336-5.336 M459.471,146.154v5.336 M456.803,151.49l5.336-5.336"/>
		<path class="st30" d="M462.139,151.49l-5.336-5.336 M459.471,146.154v5.336 M456.803,151.49l5.336-5.336"/>
	</g>
	<g>
		<defs>
			<polygon id="SVGID_00000112614795611621336450000002001488236172990348_" points="283.593,156.915 460.119,156.915 
				460.119,30.23 283.593,30.23 283.593,156.915 			"/>
		</defs>
		<clipPath id="SVGID_00000156548612375361282990000000150935252963312290_">
			<use xlink:href="#SVGID_00000112614795611621336450000002001488236172990348_"  style="overflow:visible;"/>
		</clipPath>
		
			<polyline style="clip-path:url(#SVGID_00000156548612375361282990000000150935252963312290_);fill:none;stroke:#CCC0DB;stroke-width:1.3874;stroke-linecap:round;stroke-linejoin:round;stroke-miterlimit:10;" points="
			283.646,146.936 294.639,106.273 305.632,88.983 349.603,58.033 393.575,81.406 459.532,141.173 		"/>
	</g>
	<g>
		<path class="st12" d="M285.933,147.008c0,1.238-1.003,2.241-2.241,2.241s-2.241-1.003-2.241-2.241
			c0-1.238,1.003-2.241,2.241-2.241S285.933,145.77,285.933,147.008L285.933,147.008z"/>
		<path class="st32" d="M285.933,147.008c0,1.238-1.003,2.241-2.241,2.241s-2.241-1.003-2.241-2.241
			c0-1.238,1.003-2.241,2.241-2.241S285.933,145.77,285.933,147.008L285.933,147.008z"/>
		<path class="st12" d="M296.926,106.345c0,1.238-1.003,2.241-2.241,2.241c-1.238,0-2.241-1.003-2.241-2.241
			s1.003-2.241,2.241-2.241C295.923,104.104,296.926,105.107,296.926,106.345L296.926,106.345z"/>
		<path class="st32" d="M296.926,106.345c0,1.238-1.003,2.241-2.241,2.241c-1.238,0-2.241-1.003-2.241-2.241
			s1.003-2.241,2.241-2.241C295.923,104.104,296.926,105.107,296.926,106.345L296.926,106.345z"/>
		<path class="st12" d="M307.919,89.055c0,1.238-1.003,2.241-2.241,2.241c-1.238,0-2.241-1.003-2.241-2.241s1.003-2.241,2.241-2.241
			C306.916,86.814,307.919,87.817,307.919,89.055L307.919,89.055z"/>
		<path class="st32" d="M307.919,89.055c0,1.238-1.003,2.241-2.241,2.241c-1.238,0-2.241-1.003-2.241-2.241s1.003-2.241,2.241-2.241
			C306.916,86.814,307.919,87.817,307.919,89.055L307.919,89.055z"/>
		<path class="st12" d="M351.784,58.104c0,1.238-1.003,2.241-2.241,2.241c-1.238,0-2.241-1.003-2.241-2.241
			c0-1.238,1.003-2.241,2.241-2.241C350.78,55.863,351.784,56.867,351.784,58.104L351.784,58.104z"/>
		<path class="st32" d="M351.784,58.104c0,1.238-1.003,2.241-2.241,2.241c-1.238,0-2.241-1.003-2.241-2.241
			c0-1.238,1.003-2.241,2.241-2.241C350.78,55.863,351.784,56.867,351.784,58.104L351.784,58.104z"/>
		<path class="st12" d="M395.755,81.478c0,1.238-1.003,2.241-2.241,2.241s-2.241-1.003-2.241-2.241s1.003-2.241,2.241-2.241
			S395.755,80.24,395.755,81.478L395.755,81.478z"/>
		<path class="st32" d="M395.755,81.478c0,1.238-1.003,2.241-2.241,2.241s-2.241-1.003-2.241-2.241s1.003-2.241,2.241-2.241
			S395.755,80.24,395.755,81.478L395.755,81.478z"/>
		<path class="st12" d="M461.712,141.245c0,1.238-1.003,2.241-2.241,2.241s-2.241-1.003-2.241-2.241
			c0-1.238,1.003-2.241,2.241-2.241S461.712,140.007,461.712,141.245L461.712,141.245z"/>
		<path class="st32" d="M461.712,141.245c0,1.238-1.003,2.241-2.241,2.241s-2.241-1.003-2.241-2.241
			c0-1.238,1.003-2.241,2.241-2.241S461.712,140.007,461.712,141.245L461.712,141.245z"/>
	</g>
	<g>
		<defs>
			<polygon id="SVGID_00000139980467317434121800000000201614625553668528_" points="283.593,156.915 460.119,156.915 
				460.119,30.23 283.593,30.23 283.593,156.915 			"/>
		</defs>
		<clipPath id="SVGID_00000158742962007009543840000007667166344005702322_">
			<use xlink:href="#SVGID_00000139980467317434121800000000201614625553668528_"  style="overflow:visible;"/>
		</clipPath>
		
			<polyline style="clip-path:url(#SVGID_00000158742962007009543840000007667166344005702322_);fill:none;stroke:#9D86BB;stroke-width:1.3874;stroke-linecap:round;stroke-linejoin:round;stroke-miterlimit:10;" points="
			283.646,149.818 294.639,110.222 305.632,91.865 349.603,67.745 393.575,87.916 459.532,146.616 		"/>
	</g>
	<g>
		<path class="st15" d="M285.933,149.889c0,1.238-1.003,2.241-2.241,2.241s-2.241-1.003-2.241-2.241
			c0-1.238,1.003-2.241,2.241-2.241S285.933,148.652,285.933,149.889L285.933,149.889z"/>
		<path class="st34" d="M285.933,149.889c0,1.238-1.003,2.241-2.241,2.241s-2.241-1.003-2.241-2.241
			c0-1.238,1.003-2.241,2.241-2.241S285.933,148.652,285.933,149.889L285.933,149.889z"/>
		<path class="st15" d="M296.926,110.294c0,1.238-1.003,2.241-2.241,2.241c-1.238,0-2.241-1.003-2.241-2.241
			s1.003-2.241,2.241-2.241C295.923,108.053,296.926,109.056,296.926,110.294L296.926,110.294z"/>
		<path class="st34" d="M296.926,110.294c0,1.238-1.003,2.241-2.241,2.241c-1.238,0-2.241-1.003-2.241-2.241
			s1.003-2.241,2.241-2.241C295.923,108.053,296.926,109.056,296.926,110.294L296.926,110.294z"/>
		<path class="st15" d="M307.919,91.937c0,1.238-1.003,2.241-2.241,2.241c-1.238,0-2.241-1.003-2.241-2.241s1.003-2.241,2.241-2.241
			C306.916,89.695,307.919,90.699,307.919,91.937L307.919,91.937z"/>
		<path class="st34" d="M307.919,91.937c0,1.238-1.003,2.241-2.241,2.241c-1.238,0-2.241-1.003-2.241-2.241s1.003-2.241,2.241-2.241
			C306.916,89.695,307.919,90.699,307.919,91.937L307.919,91.937z"/>
		<path class="st15" d="M351.784,67.817c0,1.238-1.003,2.241-2.241,2.241c-1.238,0-2.241-1.003-2.241-2.241s1.003-2.241,2.241-2.241
			C350.78,65.575,351.784,66.579,351.784,67.817L351.784,67.817z"/>
		<path class="st34" d="M351.784,67.817c0,1.238-1.003,2.241-2.241,2.241c-1.238,0-2.241-1.003-2.241-2.241s1.003-2.241,2.241-2.241
			C350.78,65.575,351.784,66.579,351.784,67.817L351.784,67.817z"/>
		<path class="st15" d="M395.755,87.988c0,1.238-1.003,2.241-2.241,2.241s-2.241-1.003-2.241-2.241s1.003-2.241,2.241-2.241
			S395.755,86.75,395.755,87.988L395.755,87.988z"/>
		<path class="st34" d="M395.755,87.988c0,1.238-1.003,2.241-2.241,2.241s-2.241-1.003-2.241-2.241s1.003-2.241,2.241-2.241
			S395.755,86.75,395.755,87.988L395.755,87.988z"/>
		<path class="st15" d="M461.712,146.581c0,1.238-1.003,2.241-2.241,2.241s-2.241-1.003-2.241-2.241
			c0-1.238,1.003-2.241,2.241-2.241S461.712,145.343,461.712,146.581L461.712,146.581z"/>
		<path class="st34" d="M461.712,146.581c0,1.238-1.003,2.241-2.241,2.241s-2.241-1.003-2.241-2.241
			c0-1.238,1.003-2.241,2.241-2.241S461.712,145.343,461.712,146.581L461.712,146.581z"/>
	</g>
	<g>
		<defs>
			<polygon id="SVGID_00000129883816433942681060000007473892149214150562_" points="283.593,156.915 460.119,156.915 
				460.119,30.23 283.593,30.23 283.593,156.915 			"/>
		</defs>
		<clipPath id="SVGID_00000081646327999420514690000007796255673653215633_">
			<use xlink:href="#SVGID_00000129883816433942681060000007473892149214150562_"  style="overflow:visible;"/>
		</clipPath>
		
			<polyline style="clip-path:url(#SVGID_00000081646327999420514690000007796255673653215633_);fill:none;stroke:#674E8A;stroke-width:1.3874;stroke-linecap:round;stroke-linejoin:round;stroke-miterlimit:10;" points="
			283.646,151.952 294.639,119.187 305.632,98.375 349.603,76.39 393.575,91.545 459.532,144.054 		"/>
	</g>
	<g>
		<path class="st18" d="M285.933,152.024c0,1.238-1.003,2.241-2.241,2.241s-2.241-1.003-2.241-2.241
			c0-1.238,1.003-2.241,2.241-2.241S285.933,150.786,285.933,152.024L285.933,152.024z"/>
		<path class="st36" d="M285.933,152.024c0,1.238-1.003,2.241-2.241,2.241s-2.241-1.003-2.241-2.241
			c0-1.238,1.003-2.241,2.241-2.241S285.933,150.786,285.933,152.024L285.933,152.024z"/>
		<path class="st18" d="M296.926,119.259c0,1.238-1.003,2.241-2.241,2.241c-1.238,0-2.241-1.003-2.241-2.241
			s1.003-2.241,2.241-2.241C295.923,117.018,296.926,118.021,296.926,119.259L296.926,119.259z"/>
		<path class="st36" d="M296.926,119.259c0,1.238-1.003,2.241-2.241,2.241c-1.238,0-2.241-1.003-2.241-2.241
			s1.003-2.241,2.241-2.241C295.923,117.018,296.926,118.021,296.926,119.259L296.926,119.259z"/>
		<path class="st18" d="M307.919,98.34c0,1.238-1.003,2.241-2.241,2.241c-1.238,0-2.241-1.003-2.241-2.241
			c0-1.238,1.003-2.241,2.241-2.241C306.916,96.099,307.919,97.103,307.919,98.34L307.919,98.34z"/>
		<path class="st36" d="M307.919,98.34c0,1.238-1.003,2.241-2.241,2.241c-1.238,0-2.241-1.003-2.241-2.241
			c0-1.238,1.003-2.241,2.241-2.241C306.916,96.099,307.919,97.103,307.919,98.34L307.919,98.34z"/>
		<path class="st18" d="M351.784,76.461c0,1.238-1.003,2.241-2.241,2.241c-1.238,0-2.241-1.003-2.241-2.241
			c0-1.238,1.003-2.241,2.241-2.241C350.78,74.22,351.784,75.224,351.784,76.461L351.784,76.461z"/>
		<path class="st36" d="M351.784,76.461c0,1.238-1.003,2.241-2.241,2.241c-1.238,0-2.241-1.003-2.241-2.241
			c0-1.238,1.003-2.241,2.241-2.241C350.78,74.22,351.784,75.224,351.784,76.461L351.784,76.461z"/>
		<path class="st18" d="M395.755,91.51c0,1.238-1.003,2.241-2.241,2.241s-2.241-1.003-2.241-2.241c0-1.238,1.003-2.241,2.241-2.241
			S395.755,90.272,395.755,91.51L395.755,91.51z"/>
		<path class="st36" d="M395.755,91.51c0,1.238-1.003,2.241-2.241,2.241s-2.241-1.003-2.241-2.241c0-1.238,1.003-2.241,2.241-2.241
			S395.755,90.272,395.755,91.51L395.755,91.51z"/>
		<path class="st18" d="M461.712,144.126c0,1.238-1.003,2.241-2.241,2.241s-2.241-1.003-2.241-2.241s1.003-2.241,2.241-2.241
			S461.712,142.888,461.712,144.126L461.712,144.126z"/>
		<path class="st36" d="M461.712,144.126c0,1.238-1.003,2.241-2.241,2.241s-2.241-1.003-2.241-2.241s1.003-2.241,2.241-2.241
			S461.712,142.888,461.712,144.126L461.712,144.126z"/>
	</g>
	<g>
		<g>
			<text transform="matrix(1 0 0 1 270.8997 158.8185)" class="st20 st37">0</text>
		</g>
	</g>
	<g>
		<g>
			<text transform="matrix(1 0 0 1 264.1458 140.8215)" class="st20 st37">0.5</text>
		</g>
	</g>
	<g>
		<g>
			<text transform="matrix(1 0 0 1 270.8997 122.8254)" class="st20 st37">1</text>
		</g>
	</g>
	<g>
		<g>
			<text transform="matrix(1 0 0 1 264.1458 104.8293)" class="st20 st37">1.5</text>
		</g>
	</g>
	<g>
		<g>
			<text transform="matrix(1 0 0 1 270.8997 86.8332)" class="st20 st37">2</text>
		</g>
	</g>
	<g>
		<g>
			<text transform="matrix(1 0 0 1 264.1458 68.8371)" class="st20 st37">2.5</text>
		</g>
	</g>
	<g>
		<g>
			<text transform="matrix(1 0 0 1 270.8997 50.841)" class="st20 st37">3</text>
		</g>
	</g>
	<g>
		<g>
			<text transform="matrix(1 0 0 1 264.1458 32.8439)" class="st20 st37">3.5</text>
		</g>
	</g>
	<g>
		<g>
			<text transform="matrix(1 0 0 1 281.4055 170.3801)" class="st20 st37">0</text>
		</g>
	</g>
	<g>
		<g>
			<text transform="matrix(1 0 0 1 303.3831 170.3801)" class="st20 st37">1</text>
		</g>
	</g>
	<g>
		<g>
			<text transform="matrix(1 0 0 1 325.3675 170.3801)" class="st20 st37">2</text>
		</g>
	</g>
	<g>
		<g>
			<text transform="matrix(1 0 0 1 347.3455 170.3801)" class="st20 st37">3</text>
		</g>
	</g>
	<g>
		<g>
			<text transform="matrix(1 0 0 1 369.323 170.3801)" class="st20 st37">4</text>
		</g>
	</g>
	<g>
		<g>
			<text transform="matrix(1 0 0 1 391.3006 170.3801)" class="st20 st37">5</text>
		</g>
	</g>
	<g>
		<g>
			<text transform="matrix(1 0 0 1 413.2781 170.3801)" class="st20 st37">6</text>
		</g>
	</g>
	<g>
		<g>
			<text transform="matrix(1 0 0 1 435.2561 170.3801)" class="st20 st37">7</text>
		</g>
	</g>
	<g>
		<g>
			<text transform="matrix(1 0 0 1 457.2337 170.3801)" class="st20 st37">8</text>
		</g>
	</g>
	<g>
		<g>
			<text transform="matrix(1.748456e-07 -1 1 1.748456e-07 254.3123 157.7213)"><tspan x="0" y="0" class="st20 st37">A</tspan><tspan x="5.126" y="0" class="st20 st37">c</tspan><tspan x="8.862" y="0" class="st20 st37">e</tspan><tspan x="13.243" y="0" class="st20 st37">ta</tspan><tspan x="20.489" y="0" class="st20 st37">l</tspan><tspan x="22.522" y="0" class="st20 st37">d</tspan><tspan x="27.212" y="0" class="st20 st37">e</tspan><tspan x="31.593" y="0" class="st20 st37">h</tspan><tspan x="36.282" y="0" class="st20 st37">y</tspan><tspan x="40.336" y="0" class="st20 st37">d</tspan><tspan x="45.025" y="0" class="st20 st37">e</tspan><tspan x="49.406" y="0" class="st20 st37"> </tspan><tspan x="51.533" y="0" class="st20 st37">c</tspan><tspan x="55.27" y="0" class="st20 st37">o</tspan><tspan x="59.959" y="0" class="st20 st37">n</tspan><tspan x="64.648" y="0" class="st20 st37">c</tspan><tspan x="68.386" y="0" class="st20 st37">e</tspan><tspan x="72.767" y="0" class="st20 st37">n</tspan><tspan x="77.456" y="0" class="st20 st37">t</tspan><tspan x="80.44" y="0" class="st20 st37">r</tspan><tspan x="83.529" y="0" class="st20 st37">a</tspan><tspan x="87.79" y="0" class="st20 st37">ti</tspan><tspan x="92.726" y="0" class="st20 st37">o</tspan><tspan x="97.414" y="0" class="st20 st37">n</tspan><tspan x="102.104" y="0" class="st20 st37"> </tspan><tspan x="104.124" y="0" class="st20 st37">(</tspan><tspan x="106.792" y="0" class="st20 st37">m</tspan><tspan x="113.842" y="0" class="st20 st37">g/</tspan><tspan x="121.433" y="0" class="st20 st37">L</tspan><tspan x="125.166" y="0" class="st20 st37">)</tspan></text>
		</g>
	</g>
	<g>
		<g>
			<text transform="matrix(1 0 0 1 358.5808 184.923)"><tspan x="0" y="0" class="st20 st37">T</tspan><tspan x="4.272" y="0" class="st20 st37">i</tspan><tspan x="6.305" y="0" class="st20 st37">me</tspan><tspan x="17.736" y="0" class="st20 st37"> </tspan><tspan x="19.969" y="0" class="st20 st37">(</tspan><tspan x="22.637" y="0" class="st20 st37">h</tspan><tspan x="27.327" y="0" class="st20 st37">)</tspan></text>
		</g>
	</g>
	<g>
		<g>
			<text transform="matrix(1 0 0 1 339.5979 21.3722)"><tspan x="0" y="0" class="st22 st38">B</tspan><tspan x="7.037" y="0" class="st22 st38">l</tspan><tspan x="10.129" y="0" class="st22 st38">oo</tspan><tspan x="23.555" y="0" class="st22 st38">d</tspan><tspan x="30.268" y="0" class="st22 st38"> </tspan><tspan x="32.841" y="0" class="st22 st38">Ac</tspan><tspan x="45.633" y="0" class="st22 st38">e</tspan><tspan x="51.832" y="0" class="st22 st38">t</tspan><tspan x="56.111" y="0" class="st22 st38">al</tspan><tspan x="65.392" y="0" class="st22 st38">d</tspan><tspan x="72.105" y="0" class="st22 st38">e</tspan><tspan x="78.392" y="0" class="st22 st38">h</tspan><tspan x="84.905" y="0" class="st22 st38">y</tspan><tspan x="90.669" y="0" class="st22 st38">d</tspan><tspan x="97.383" y="0" class="st22 st38">e</tspan></text>
		</g>
	</g>
</g>
<line class="st39" x1="487.367" y1="36.819" x2="503.753" y2="36.819"/>
<polygon class="st2" points="495.509,35.129 497.147,36.767 495.509,38.406 493.87,36.767 495.509,35.129 "/>
<polygon class="st3" points="495.509,35.129 497.147,36.767 495.509,38.406 493.87,36.767 495.509,35.129 "/>
<text transform="matrix(1 0 0 1 505.5135 38.7011)"><tspan x="0" y="0" class="st20 st40">N</tspan><tspan x="4.409" y="0" class="st20 st40">o</tspan><tspan x="8" y="0" class="st20 st40">r</tspan><tspan x="10.357" y="0" class="st20 st40">m</tspan><tspan x="15.887" y="0" class="st20 st40">a</tspan><tspan x="19.167" y="0" class="st20 st40">l</tspan></text>
<line class="st41" x1="487.367" y1="58.633" x2="503.753" y2="58.633"/>
<polygon class="st5" points="493.768,56.841 497.147,56.841 497.147,60.22 493.768,60.22 493.768,56.841 "/>
<polygon class="st6" points="493.768,56.841 497.147,56.841 497.147,60.22 493.768,60.22 493.768,56.841 "/>
<text transform="matrix(1 0 0 1 505.5135 60.5038)"><tspan x="0" y="0" class="st20 st40">E</tspan><tspan x="3.378" y="0" class="st20 st40">t</tspan><tspan x="5.635" y="0" class="st20 st40">O</tspan><tspan x="10.144" y="0" class="st20 st40">H</tspan><tspan x="14.439" y="0" class="st20 st40"> </tspan><tspan x="15.978" y="0" class="st20 st40">o</tspan><tspan x="19.568" y="0" class="st20 st40">n</tspan><tspan x="23.153" y="0" class="st20 st40">l</tspan><tspan x="24.693" y="0" class="st20 st40">y</tspan></text>
<line class="st42" x1="487.367" y1="80.345" x2="503.753" y2="80.345"/>
<polygon class="st8" points="493.87,78.655 497.147,78.655 497.147,81.932 493.87,81.932 493.87,78.655 "/>
<polygon class="st9" points="493.87,78.655 497.147,78.655 497.147,81.932 493.87,81.932 493.87,78.655 "/>
<path class="st10" d="M495.509,78.655v3.277 M493.87,80.293h3.277"/>
<path class="st9" d="M495.509,78.655v3.277 M493.87,80.293h3.277"/>
<line class="st43" x1="487.367" y1="102.159" x2="503.753" y2="102.159"/>
<path class="st12" d="M497.147,102.056c0,0.933-0.757,1.69-1.69,1.69c-0.933,0-1.69-0.757-1.69-1.69c0-0.933,0.757-1.69,1.69-1.69
	C496.391,100.367,497.147,101.123,497.147,102.056L497.147,102.056z"/>
<path class="st13" d="M497.147,102.056c0,0.933-0.757,1.69-1.69,1.69c-0.933,0-1.69-0.757-1.69-1.69c0-0.933,0.757-1.69,1.69-1.69
	C496.391,100.367,497.147,101.123,497.147,102.056L497.147,102.056z"/>
<text transform="matrix(1 0 0 1 505.5135 105.5966)" class="st44 st40">복합소재</text>
<text transform="matrix(1 0 0 1 505.5135 115.1249)"><tspan x="0" y="0" class="st20 st40">50</tspan><tspan x="6.955" y="0" class="st20 st40"> </tspan><tspan x="8.493" y="0" class="st20 st40">m</tspan><tspan x="14.022" y="0" class="st20 st40">g</tspan><tspan x="17.293" y="0" class="st20 st40">/</tspan><tspan x="19.95" y="0" class="st20 st40">k</tspan><tspan x="23.028" y="0" class="st20 st40">g</tspan></text>
<line class="st45" x1="487.367" y1="123.973" x2="503.753" y2="123.973"/>
<path class="st15" d="M497.147,123.871c0,0.933-0.757,1.69-1.69,1.69c-0.933,0-1.69-0.757-1.69-1.69c0-0.933,0.757-1.69,1.69-1.69
	C496.391,122.181,497.147,122.937,497.147,123.871L497.147,123.871z"/>
<path class="st16" d="M497.147,123.871c0,0.933-0.757,1.69-1.69,1.69c-0.933,0-1.69-0.757-1.69-1.69c0-0.933,0.757-1.69,1.69-1.69
	C496.391,122.181,497.147,122.937,497.147,123.871L497.147,123.871z"/>
<text transform="matrix(1 0 0 1 505.5135 127.3993)" class="st44 st40">복합소재</text>
<text transform="matrix(1 0 0 1 505.5135 136.9276)"><tspan x="0" y="0" class="st20 st40">100</tspan><tspan x="10.434" y="0" class="st20 st40"> </tspan><tspan x="11.868" y="0" class="st20 st40">m</tspan><tspan x="17.397" y="0" class="st20 st40">g</tspan><tspan x="20.668" y="0" class="st20 st40">/</tspan><tspan x="23.325" y="0" class="st20 st40">k</tspan><tspan x="26.403" y="0" class="st20 st40">g</tspan></text>
<line class="st46" x1="487.367" y1="145.787" x2="503.753" y2="145.787"/>
<path class="st18" d="M497.147,145.685c0,0.933-0.757,1.69-1.69,1.69c-0.933,0-1.69-0.757-1.69-1.69s0.757-1.69,1.69-1.69
	C496.391,143.995,497.147,144.752,497.147,145.685L497.147,145.685z"/>
<path class="st19" d="M497.147,145.685c0,0.933-0.757,1.69-1.69,1.69c-0.933,0-1.69-0.757-1.69-1.69s0.757-1.69,1.69-1.69
	C496.391,143.995,497.147,144.752,497.147,145.685L497.147,145.685z"/>
<text transform="matrix(1 0 0 1 505.5135 149.202)" class="st44 st40">복합소재</text>
<text transform="matrix(1 0 0 1 505.5135 158.7304)"><tspan x="0" y="0" class="st20 st40">200</tspan><tspan x="10.434" y="0" class="st20 st40"> </tspan><tspan x="11.868" y="0" class="st20 st40">m</tspan><tspan x="17.397" y="0" class="st20 st40">g</tspan><tspan x="20.668" y="0" class="st20 st40">/</tspan><tspan x="23.325" y="0" class="st20 st40">k</tspan><tspan x="26.403" y="0" class="st20 st40">g</tspan></text>
<text transform="matrix(1 0 0 1 506.0963 81.7131)" class="st47 st48">경쟁사제품</text>
</svg>
