<?xml version="1.0" encoding="utf-8"?>
<!-- Generator: Adobe Illustrator 28.0.0, SVG Export Plug-In . SVG Version: 6.00 Build 0)  -->
<svg version="1.1" id="레이어_1" xmlns="http://www.w3.org/2000/svg" xmlns:xlink="http://www.w3.org/1999/xlink" x="0px"
	 y="0px" viewBox="0 0 494.7 247" style="enable-background:new 0 0 494.7 247;" xml:space="preserve">
<style type="text/css">
	.st0{fill:#FFFFFF;}
	.st1{fill-rule:evenodd;clip-rule:evenodd;}
	.st2{fill:none;stroke:#000000;stroke-width:0.72;stroke-linejoin:round;stroke-miterlimit:10;}
	.st3{fill-rule:evenodd;clip-rule:evenodd;fill:#EC7D30;}
	.st4{fill-rule:evenodd;clip-rule:evenodd;fill:#6F3996;}
	.st5{fill-rule:evenodd;clip-rule:evenodd;fill:#5C9BD3;}
	.st6{fill:none;stroke:#595A5A;stroke-width:0.72;stroke-linejoin:round;stroke-miterlimit:10;}
	.st7{fill:none;stroke:#DAD9D9;stroke-width:0.72;stroke-linejoin:round;stroke-miterlimit:10;}
	.st8{font-family:'Calibri';}
	.st9{font-size:6.96px;}
	.st10{font-family:'MalgunGothic';}
	.st11{font-family:'AppleSDGothicNeoEB00';}
	.st12{font-size:11.04px;}
</style>
<rect x="1.1" class="st0" width="493.6" height="247"/>
<g>
	<g>
		<g>
			<polygon class="st1" points="274.6,191.8 292.9,191.8 292.9,225 274.6,225 			"/>
			<polygon class="st2" points="274.6,191.8 292.9,191.8 292.9,225 274.6,225 			"/>
		</g>
		<g>
			<polygon class="st3" points="332.9,180.9 351.2,180.9 351.2,225 332.9,225 			"/>
			<polygon class="st2" points="332.9,180.9 351.2,180.9 351.2,225 332.9,225 			"/>
		</g>
		<g>
			<polygon class="st4" points="391.2,97.9 409.6,97.9 409.6,225 391.2,225 			"/>
			<polygon class="st2" points="391.2,97.9 409.6,97.9 409.6,225 391.2,225 			"/>
		</g>
		<g>
			<polygon class="st5" points="449.6,80.8 467.9,80.8 467.9,225 449.6,225 			"/>
			<polygon class="st2" points="449.6,80.8 467.9,80.8 467.9,225 449.6,225 			"/>
		</g>
		<g>
			<path class="st6" d="M283.7,191.8v-4.1 M281.5,187.7h4.6"/>
		</g>
		<g>
			<path class="st6" d="M342,180.9v-5.3 M339.8,175.6h4.6"/>
		</g>
		<g>
			<path class="st6" d="M400.4,97.9V81 M398.2,81h4.4"/>
		</g>
		<g>
			<path class="st6" d="M458.8,80.8V63.3 M456.5,63.3h4.4"/>
		</g>
		<g>
			<line class="st7" x1="254.6" y1="225" x2="488" y2="225"/>
		</g>
		<g>
			<g>
				<text transform="matrix(1 0 0 1 275.7182 179.1153)" class="st8 st9">10</text>
				<text transform="matrix(1 0 0 1 282.6902 179.1153)" class="st8 st9">.</text>
				<text transform="matrix(1 0 0 1 284.4892 179.1153)" class="st8 st9">1</text>
				<text transform="matrix(1 0 0 1 287.9742 179.1153)" class="st8 st9">7</text>
			</g>
		</g>
		<g>
			<g>
				<text transform="matrix(1 0 0 1 332.994 169.2456)" class="st8 st9">13</text>
				<text transform="matrix(1 0 0 1 339.966 169.2456)" class="st8 st9">.</text>
				<text transform="matrix(1 0 0 1 341.765 169.2456)" class="st8 st9">5</text>
				<text transform="matrix(1 0 0 1 345.25 169.2456)" class="st8 st9">2</text>
			</g>
		</g>
		<g>
			<g>
				<text transform="matrix(1 0 0 1 392.4866 76.4361)" class="st8 st9">38</text>
				<text transform="matrix(1 0 0 1 399.4586 76.4361)" class="st8 st9">.</text>
				<text transform="matrix(1 0 0 1 401.2576 76.4361)" class="st8 st9">9</text>
				<text transform="matrix(1 0 0 1 404.7426 76.4361)" class="st8 st9">3</text>
			</g>
		</g>
		<g>
			<g>
				<text transform="matrix(1 0 0 1 450.8225 58.7866)" class="st8 st9">44</text>
				<text transform="matrix(1 0 0 1 457.7945 58.7866)" class="st8 st9">.</text>
				<text transform="matrix(1 0 0 1 459.5935 58.7866)" class="st8 st9">1</text>
				<text transform="matrix(1 0 0 1 463.0785 58.7866)" class="st8 st9">9</text>
			</g>
		</g>
	</g>
	<g>
		<polygon class="st1" points="20.4,152.9 38,152.9 38,225.2 20.4,225.2 		"/>
		<polygon class="st2" points="20.4,152.9 38,152.9 38,225.2 20.4,225.2 		"/>
	</g>
	<g>
		<polygon class="st3" points="76.6,145.2 94.2,145.2 94.2,225.2 76.6,225.2 		"/>
		<polygon class="st2" points="76.6,145.2 94.2,145.2 94.2,225.2 76.6,225.2 		"/>
	</g>
	<g>
		<polygon class="st4" points="132.7,83.9 150.4,83.9 150.4,225.2 132.7,225.2 		"/>
		<polygon class="st2" points="132.7,83.9 150.4,83.9 150.4,225.2 132.7,225.2 		"/>
	</g>
	<g>
		<polygon class="st5" points="188.9,78.2 206.5,78.2 206.5,225.2 188.9,225.2 		"/>
		<polygon class="st2" points="188.9,78.2 206.5,78.2 206.5,225.2 188.9,225.2 		"/>
	</g>
	<g>
		<path class="st6" d="M29.2,152.9v-9.2 M26.9,143.6h4.6"/>
	</g>
	<g>
		<path class="st6" d="M85.3,145.2v-9 M83,136.2h4.6"/>
	</g>
	<g>
		<path class="st6" d="M141.5,83.9V71 M139.2,71h4.6"/>
	</g>
	<g>
		<path class="st6" d="M197.6,78.2V59 M195.4,59h4.6"/>
	</g>
	<g>
		<line class="st7" x1="1.1" y1="225.2" x2="225.7" y2="225.2"/>
	</g>
	<g>
		<g>
			<text transform="matrix(1 0 0 1 20.6549 140.1971)" class="st10 st9">41</text>
			<text transform="matrix(1 0 0 1 28.3219 140.1971)" class="st10 st9">.</text>
			<text transform="matrix(1 0 0 1 29.8789 140.1971)" class="st10 st9">19</text>
		</g>
	</g>
	<g>
		<g>
			<text transform="matrix(1 0 0 1 76.8112 132.5135)" class="st10 st9">45</text>
			<text transform="matrix(1 0 0 1 84.4782 132.5135)" class="st10 st9">.</text>
			<text transform="matrix(1 0 0 1 86.0352 132.5135)" class="st10 st9">58</text>
		</g>
	</g>
	<g>
		<g>
			<text transform="matrix(1 0 0 1 132.9752 63.8707)" class="st10 st9">80</text>
			<text transform="matrix(1 0 0 1 140.6422 63.8707)" class="st10 st9">.</text>
			<text transform="matrix(1 0 0 1 142.1992 63.8707)" class="st10 st9">54</text>
		</g>
	</g>
	<g>
		<g>
			<text transform="matrix(1 0 0 1 189.1315 52.8285)" class="st10 st9">83</text>
			<text transform="matrix(1 0 0 1 196.7985 52.8285)" class="st10 st9">.</text>
			<text transform="matrix(1 0 0 1 198.3555 52.8285)" class="st10 st9">76</text>
		</g>
	</g>
	<g>
		<g>
			<text transform="matrix(1 0 0 1 61.2955 32.3399)" class="st11 st12">P</text>
			<text transform="matrix(1 0 0 1 67.9415 32.3399)" class="st11 st12">h</text>
			<text transform="matrix(1 0 0 1 74.1685 32.3399)" class="st11 st12">a</text>
			<text transform="matrix(1 0 0 1 79.7105 32.3399)" class="st11 st12">g</text>
			<text transform="matrix(1 0 0 1 85.6385 32.3399)" class="st11 st12">o</text>
			<text transform="matrix(1 0 0 1 91.8645 32.3399)" class="st11 st12">c</text>
			<text transform="matrix(1 0 0 1 96.9875 32.3399)" class="st11 st12">yt</text>
			<text transform="matrix(1 0 0 1 106.8345 32.3399)" class="st11 st12">o</text>
			<text transform="matrix(1 0 0 1 113.0615 32.3399)" class="st11 st12">s</text>
			<text transform="matrix(1 0 0 1 117.8745 32.3399)" class="st11 st12">i</text>
			<text transform="matrix(1 0 0 1 120.6455 32.3399)" class="st11 st12">s</text>
		</g>
	</g>
	<g>
		<g>
			<text transform="matrix(1 0 0 1 321.9734 32.3399)" class="st11 st12">NK cell cytotoxicity</text>
		</g>
	</g>
</g>
</svg>
