<?xml version="1.0" encoding="UTF-8"?>
<svg id="_레이어_1" data-name="레이어 1" xmlns="http://www.w3.org/2000/svg" viewBox="0 0 553.472 444.444">
  <defs>
    <style>
      .cls-1, .cls-2 {
        fill: #d1d3d4;
      }

      .cls-1, .cls-2, .cls-3, .cls-4, .cls-5, .cls-6, .cls-7, .cls-8, .cls-9, .cls-10, .cls-11, .cls-12, .cls-13, .cls-14, .cls-15, .cls-16, .cls-17, .cls-18, .cls-19, .cls-20, .cls-21, .cls-22, .cls-23, .cls-24 {
        stroke-miterlimit: 10;
      }

      .cls-1, .cls-2, .cls-3, .cls-5, .cls-13 {
        stroke: #414042;
      }

      .cls-1, .cls-5, .cls-18, .cls-19 {
        stroke-width: .721px;
      }

      .cls-2, .cls-3 {
        stroke-width: .721px;
      }

      .cls-25 {
        font-family: AppleSDGothicNeoL00, AppleSDGothicNeoL00;
      }

      .cls-25, .cls-26 {
        font-size: 12px;
      }

      .cls-25, .cls-26, .cls-27, .cls-28 {
        fill: #231f20;
      }

      .cls-29, .cls-30 {
        stroke-linecap: square;
        stroke-miterlimit: 1;
        stroke-width: .411px;
      }

      .cls-29, .cls-30, .cls-7, .cls-8, .cls-9, .cls-10, .cls-11, .cls-15, .cls-16, .cls-20, .cls-22, .cls-24 {
        stroke: #231f20;
      }

      .cls-29, .cls-31 {
        fill: #ed1c24;
      }

      .cls-32 {
        fill: #242021;
      }

      .cls-32, .cls-31 {
        font-family: ArialMT, Arial;
        font-size: 4px;
      }

      .cls-3, .cls-30, .cls-4, .cls-5, .cls-6, .cls-8, .cls-11, .cls-12, .cls-15, .cls-17, .cls-23 {
        fill: none;
      }

      .cls-4 {
        stroke: #f4b336;
      }

      .cls-4, .cls-12, .cls-23 {
        stroke-width: 5.047px;
      }

      .cls-33 {
        fill: #2471b4;
      }

      .cls-33, .cls-34, .cls-35, .cls-27, .cls-28, .cls-36, .cls-37 {
        stroke-width: 0px;
      }

      .cls-34 {
        fill: #7151a1;
      }

      .cls-38 {
        letter-spacing: -.062em;
      }

      .cls-6 {
        stroke: #f4c0a5;
      }

      .cls-26 {
        font-family: AppleSDGothicNeoEB00, AppleSDGothicNeoEB00;
      }

      .cls-35, .cls-9 {
        fill: #fff;
      }

      .cls-7 {
        fill: #f4cc72;
      }

      .cls-7, .cls-9, .cls-10, .cls-15, .cls-16, .cls-20, .cls-22, .cls-24 {
        stroke-width: .36px;
      }

      .cls-8 {
        stroke-width: .375px;
      }

      .cls-10 {
        fill: #f15a29;
      }

      .cls-11 {
        stroke-width: .427px;
      }

      .cls-12 {
        stroke: #f5ce71;
      }

      .cls-13 {
        fill: #e9c6df;
        stroke-width: .635px;
      }

      .cls-14 {
        fill: #8fb9da;
        stroke-width: .815px;
      }

      .cls-14, .cls-21 {
        stroke: #96979b;
      }

      .cls-28 {
        fill-rule: evenodd;
      }

      .cls-16 {
        fill: #f4cc71;
      }

      .cls-17 {
        stroke: #58595b;
        stroke-width: .715px;
      }

      .cls-18 {
        fill: #c1cd49;
      }

      .cls-18, .cls-19 {
        stroke: #808285;
      }

      .cls-36 {
        fill: #f4c0a5;
      }

      .cls-37 {
        fill: #6c52a2;
      }

      .cls-19, .cls-21 {
        fill: #b0d1a6;
      }

      .cls-20 {
        fill: #bcbec0;
      }

      .cls-21 {
        stroke-width: .794px;
      }

      .cls-22 {
        fill: #27aae1;
      }

      .cls-23 {
        stroke: #ecb537;
      }

      .cls-24 {
        fill: #5694c6;
      }
    </style>
  </defs>
  <rect class="cls-35" width="553.472" height="444.444"/>
  <rect class="cls-36" x="410.394" y="27.375" width="87.077" height="298.07"/>
  <g>
    <rect class="cls-36" x="252.8" y="126.825" width="26.886" height="137.127"/>
    <g>
      <g>
        <ellipse class="cls-2" cx="355.878" cy="295.019" rx="5.227" ry="5.303"/>
        <path class="cls-3" d="m357.987,290.089s-3.484-10.792.55-14.885c4.035-4.093,1.284-9.489,1.284-9.489"/>
        <path class="cls-3" d="m353.402,290.647s-4.951-8.745-.734-16.187c0,0,2.017-4.279,0-8.745"/>
      </g>
      <g>
        <ellipse class="cls-2" cx="344.714" cy="295.019" rx="5.227" ry="5.303"/>
        <path class="cls-3" d="m346.823,290.089s-3.484-10.792.55-14.885c4.035-4.093,1.284-9.489,1.284-9.489"/>
        <path class="cls-3" d="m342.238,290.647s-4.951-8.745-.734-16.187c0,0,2.017-4.279,0-8.745"/>
      </g>
      <g>
        <ellipse class="cls-2" cx="333.551" cy="295.019" rx="5.227" ry="5.303"/>
        <path class="cls-3" d="m335.659,290.089s-3.484-10.792.55-14.885c4.035-4.093,1.284-9.489,1.284-9.489"/>
        <path class="cls-3" d="m331.075,290.647s-4.951-8.745-.734-16.187c0,0,2.017-4.279,0-8.745"/>
      </g>
      <g>
        <ellipse class="cls-2" cx="322.387" cy="295.019" rx="5.227" ry="5.303"/>
        <path class="cls-3" d="m324.496,290.089s-3.484-10.792.55-14.885c4.035-4.093,1.284-9.489,1.284-9.489"/>
        <path class="cls-3" d="m319.911,290.647s-4.951-8.745-.734-16.187c0,0,2.017-4.279,0-8.745"/>
      </g>
      <g>
        <ellipse class="cls-2" cx="311.223" cy="295.019" rx="5.227" ry="5.303"/>
        <path class="cls-3" d="m313.332,290.089s-3.484-10.792.55-14.885c4.035-4.093,1.284-9.489,1.284-9.489"/>
        <path class="cls-3" d="m308.747,290.647s-4.951-8.745-.734-16.187c0,0,2.017-4.279,0-8.745"/>
      </g>
      <g>
        <ellipse class="cls-2" cx="300.06" cy="295.019" rx="5.227" ry="5.303"/>
        <path class="cls-3" d="m302.168,290.089s-3.484-10.792.55-14.885c4.035-4.093,1.284-9.489,1.284-9.489"/>
        <path class="cls-3" d="m297.584,290.647s-4.951-8.745-.734-16.187c0,0,2.017-4.279,0-8.745"/>
      </g>
      <g>
        <ellipse class="cls-2" cx="288.896" cy="295.019" rx="5.227" ry="5.303"/>
        <path class="cls-3" d="m291.005,290.089s-3.484-10.792.55-14.885c4.035-4.093,1.284-9.489,1.284-9.489"/>
        <path class="cls-3" d="m286.42,290.647s-4.951-8.745-.734-16.187c0,0,2.017-4.279,0-8.745"/>
      </g>
      <g>
        <ellipse class="cls-2" cx="277.732" cy="295.019" rx="5.227" ry="5.303"/>
        <path class="cls-3" d="m279.841,290.089s-3.484-10.792.55-14.885c4.034-4.093,1.284-9.489,1.284-9.489"/>
        <path class="cls-3" d="m275.256,290.647s-4.951-8.745-.734-16.187c0,0,2.017-4.279,0-8.745"/>
      </g>
      <g>
        <ellipse class="cls-2" cx="266.569" cy="295.019" rx="5.227" ry="5.303"/>
        <path class="cls-3" d="m268.677,290.089s-3.484-10.792.55-14.885c4.034-4.093,1.284-9.489,1.284-9.489"/>
        <path class="cls-3" d="m264.093,290.647s-4.951-8.745-.734-16.187c0,0,2.017-4.279,0-8.745"/>
      </g>
      <g>
        <ellipse class="cls-2" cx="255.405" cy="295.019" rx="5.227" ry="5.303"/>
        <path class="cls-3" d="m257.514,290.089s-3.484-10.792.55-14.885c4.035-4.093,1.284-9.489,1.284-9.489"/>
        <path class="cls-3" d="m252.929,290.647s-4.951-8.745-.734-16.187c0,0,2.017-4.279,0-8.745"/>
      </g>
      <g>
        <ellipse class="cls-2" cx="244.241" cy="295.019" rx="5.227" ry="5.303"/>
        <path class="cls-3" d="m246.35,290.089s-3.484-10.792.55-14.885c4.035-4.093,1.284-9.489,1.284-9.489"/>
        <path class="cls-3" d="m241.765,290.647s-4.951-8.745-.734-16.187c0,0,2.017-4.279,0-8.745"/>
      </g>
      <g>
        <ellipse class="cls-2" cx="233.078" cy="295.019" rx="5.227" ry="5.303"/>
        <path class="cls-3" d="m235.186,290.089s-3.484-10.792.55-14.885c4.035-4.093,1.284-9.489,1.284-9.489"/>
        <path class="cls-3" d="m230.602,290.647s-4.951-8.745-.734-16.187c0,0,2.017-4.279,0-8.745"/>
      </g>
      <g>
        <ellipse class="cls-2" cx="221.914" cy="295.019" rx="5.227" ry="5.303"/>
        <path class="cls-3" d="m224.023,290.089s-3.484-10.792.55-14.885c4.035-4.093,1.284-9.489,1.284-9.489"/>
        <path class="cls-3" d="m219.438,290.647s-4.951-8.745-.734-16.187c0,0,2.017-4.279,0-8.745"/>
      </g>
      <g>
        <ellipse class="cls-2" cx="210.75" cy="295.019" rx="5.227" ry="5.303"/>
        <path class="cls-3" d="m212.859,290.089s-3.484-10.792.55-14.885c4.035-4.093,1.284-9.489,1.284-9.489"/>
        <path class="cls-3" d="m208.274,290.647s-4.951-8.745-.734-16.187c0,0,2.017-4.279,0-8.745"/>
      </g>
      <g>
        <ellipse class="cls-2" cx="199.587" cy="295.019" rx="5.227" ry="5.303"/>
        <path class="cls-3" d="m201.695,290.089s-3.484-10.792.55-14.885c4.035-4.093,1.284-9.489,1.284-9.489"/>
        <path class="cls-3" d="m197.111,290.647s-4.951-8.745-.734-16.187c0,0,2.017-4.279,0-8.745"/>
      </g>
      <g>
        <ellipse class="cls-2" cx="188.423" cy="295.019" rx="5.227" ry="5.303"/>
        <path class="cls-3" d="m190.532,290.089s-3.484-10.792.55-14.885c4.035-4.093,1.284-9.489,1.284-9.489"/>
        <path class="cls-3" d="m185.947,290.647s-4.951-8.745-.734-16.187c0,0,2.017-4.279,0-8.745"/>
      </g>
      <g>
        <ellipse class="cls-2" cx="177.259" cy="295.019" rx="5.227" ry="5.303"/>
        <path class="cls-3" d="m179.368,290.089s-3.484-10.792.55-14.885c4.035-4.093,1.284-9.489,1.284-9.489"/>
        <path class="cls-3" d="m174.783,290.647s-4.951-8.745-.734-16.187c0,0,2.017-4.279,0-8.745"/>
      </g>
      <g>
        <ellipse class="cls-2" cx="166.095" cy="295.019" rx="5.227" ry="5.303"/>
        <path class="cls-3" d="m168.204,290.089s-3.484-10.792.55-14.885c4.035-4.093,1.284-9.489,1.284-9.489"/>
        <path class="cls-3" d="m163.62,290.647s-4.951-8.745-.734-16.187c0,0,2.017-4.279,0-8.745"/>
      </g>
      <g>
        <ellipse class="cls-2" cx="154.932" cy="295.019" rx="5.227" ry="5.303"/>
        <path class="cls-3" d="m157.041,290.089s-3.484-10.792.55-14.885c4.035-4.093,1.284-9.489,1.284-9.489"/>
        <path class="cls-3" d="m152.456,290.647s-4.951-8.745-.734-16.187c0,0,2.017-4.279,0-8.745"/>
      </g>
      <g>
        <ellipse class="cls-2" cx="143.768" cy="295.019" rx="5.227" ry="5.303"/>
        <path class="cls-3" d="m145.877,290.089s-3.484-10.792.55-14.885c4.035-4.093,1.284-9.489,1.284-9.489"/>
        <path class="cls-3" d="m141.292,290.647s-4.951-8.745-.734-16.187c0,0,2.017-4.279,0-8.745"/>
      </g>
      <g>
        <ellipse class="cls-2" cx="132.604" cy="295.019" rx="5.227" ry="5.303"/>
        <path class="cls-3" d="m134.713,290.089s-3.484-10.792.55-14.885c4.035-4.093,1.284-9.489,1.284-9.489"/>
        <path class="cls-3" d="m130.129,290.647s-4.951-8.745-.734-16.187c0,0,2.017-4.279,0-8.745"/>
      </g>
      <g>
        <ellipse class="cls-2" cx="121.441" cy="295.019" rx="5.227" ry="5.303"/>
        <path class="cls-3" d="m123.55,290.089s-3.484-10.792.55-14.885c4.035-4.093,1.284-9.489,1.284-9.489"/>
        <path class="cls-3" d="m118.965,290.647s-4.951-8.745-.734-16.187c0,0,2.017-4.279,0-8.745"/>
      </g>
      <g>
        <ellipse class="cls-2" cx="110.277" cy="295.019" rx="5.227" ry="5.303"/>
        <path class="cls-3" d="m112.386,290.089s-3.484-10.792.55-14.885c4.035-4.093,1.284-9.489,1.284-9.489"/>
        <path class="cls-3" d="m107.801,290.647s-4.951-8.745-.734-16.187c0,0,2.017-4.279,0-8.745"/>
      </g>
      <g>
        <ellipse class="cls-2" cx="99.113" cy="295.019" rx="5.227" ry="5.303"/>
        <path class="cls-3" d="m101.222,290.089s-3.484-10.792.55-14.885c4.035-4.093,1.284-9.489,1.284-9.489"/>
        <path class="cls-3" d="m96.638,290.647s-4.951-8.745-.734-16.187c0,0,2.017-4.279,0-8.745"/>
      </g>
    </g>
    <g>
      <g>
        <ellipse class="cls-2" cx="356.808" cy="413.913" rx="5.227" ry="5.303"/>
        <path class="cls-3" d="m358.917,408.982s-3.484-10.792.55-14.885c4.034-4.093,1.284-9.489,1.284-9.489"/>
        <path class="cls-3" d="m354.332,409.54s-4.951-8.745-.734-16.187c0,0,2.017-4.279,0-8.745"/>
      </g>
      <g>
        <ellipse class="cls-2" cx="345.645" cy="413.913" rx="5.227" ry="5.303"/>
        <path class="cls-3" d="m347.753,408.982s-3.484-10.792.55-14.885c4.034-4.093,1.284-9.489,1.284-9.489"/>
        <path class="cls-3" d="m343.169,409.54s-4.951-8.745-.734-16.187c0,0,2.017-4.279,0-8.745"/>
      </g>
      <g>
        <ellipse class="cls-2" cx="334.481" cy="413.913" rx="5.227" ry="5.303"/>
        <path class="cls-3" d="m336.59,408.982s-3.484-10.792.55-14.885c4.035-4.093,1.284-9.489,1.284-9.489"/>
        <path class="cls-3" d="m332.005,409.54s-4.951-8.745-.734-16.187c0,0,2.017-4.279,0-8.745"/>
      </g>
      <g>
        <ellipse class="cls-2" cx="323.317" cy="413.913" rx="5.227" ry="5.303"/>
        <path class="cls-3" d="m325.426,408.982s-3.484-10.792.55-14.885c4.035-4.093,1.284-9.489,1.284-9.489"/>
        <path class="cls-3" d="m320.841,409.54s-4.951-8.745-.734-16.187c0,0,2.017-4.279,0-8.745"/>
      </g>
      <g>
        <ellipse class="cls-2" cx="312.154" cy="413.913" rx="5.227" ry="5.303"/>
        <path class="cls-3" d="m314.262,408.982s-3.484-10.792.55-14.885c4.035-4.093,1.284-9.489,1.284-9.489"/>
        <path class="cls-3" d="m309.678,409.54s-4.951-8.745-.734-16.187c0,0,2.017-4.279,0-8.745"/>
      </g>
      <g>
        <ellipse class="cls-2" cx="300.99" cy="413.913" rx="5.227" ry="5.303"/>
        <path class="cls-3" d="m303.099,408.982s-3.484-10.792.55-14.885c4.035-4.093,1.284-9.489,1.284-9.489"/>
        <path class="cls-3" d="m298.514,409.54s-4.951-8.745-.734-16.187c0,0,2.017-4.279,0-8.745"/>
      </g>
      <g>
        <ellipse class="cls-2" cx="289.826" cy="413.913" rx="5.227" ry="5.303"/>
        <path class="cls-3" d="m291.935,408.982s-3.484-10.792.55-14.885c4.035-4.093,1.284-9.489,1.284-9.489"/>
        <path class="cls-3" d="m287.35,409.54s-4.951-8.745-.734-16.187c0,0,2.017-4.279,0-8.745"/>
      </g>
      <g>
        <ellipse class="cls-2" cx="278.662" cy="413.913" rx="5.227" ry="5.303"/>
        <path class="cls-3" d="m280.771,408.982s-3.484-10.792.55-14.885c4.035-4.093,1.284-9.489,1.284-9.489"/>
        <path class="cls-3" d="m276.187,409.54s-4.951-8.745-.734-16.187c0,0,2.017-4.279,0-8.745"/>
      </g>
      <g>
        <ellipse class="cls-2" cx="267.499" cy="413.913" rx="5.227" ry="5.303"/>
        <path class="cls-3" d="m269.608,408.982s-3.484-10.792.55-14.885c4.035-4.093,1.284-9.489,1.284-9.489"/>
        <path class="cls-3" d="m265.023,409.54s-4.951-8.745-.734-16.187c0,0,2.017-4.279,0-8.745"/>
      </g>
      <g>
        <ellipse class="cls-2" cx="256.335" cy="413.913" rx="5.227" ry="5.303"/>
        <path class="cls-3" d="m258.444,408.982s-3.484-10.792.55-14.885c4.034-4.093,1.284-9.489,1.284-9.489"/>
        <path class="cls-3" d="m253.859,409.54s-4.951-8.745-.734-16.187c0,0,2.017-4.279,0-8.745"/>
      </g>
      <g>
        <ellipse class="cls-2" cx="245.171" cy="413.913" rx="5.227" ry="5.303"/>
        <path class="cls-3" d="m247.28,408.982s-3.484-10.792.55-14.885c4.034-4.093,1.284-9.489,1.284-9.489"/>
        <path class="cls-3" d="m242.696,409.54s-4.951-8.745-.734-16.187c0,0,2.017-4.279,0-8.745"/>
      </g>
      <g>
        <ellipse class="cls-2" cx="234.008" cy="413.913" rx="5.227" ry="5.303"/>
        <path class="cls-3" d="m236.117,408.982s-3.484-10.792.55-14.885c4.035-4.093,1.284-9.489,1.284-9.489"/>
        <path class="cls-3" d="m231.532,409.54s-4.951-8.745-.734-16.187c0,0,2.017-4.279,0-8.745"/>
      </g>
      <g>
        <ellipse class="cls-2" cx="222.844" cy="413.913" rx="5.227" ry="5.303"/>
        <path class="cls-3" d="m224.953,408.982s-3.484-10.792.55-14.885c4.035-4.093,1.284-9.489,1.284-9.489"/>
        <path class="cls-3" d="m220.368,409.54s-4.951-8.745-.734-16.187c0,0,2.017-4.279,0-8.745"/>
      </g>
      <g>
        <ellipse class="cls-2" cx="211.68" cy="413.913" rx="5.227" ry="5.303"/>
        <path class="cls-3" d="m213.789,408.982s-3.484-10.792.55-14.885c4.035-4.093,1.284-9.489,1.284-9.489"/>
        <path class="cls-3" d="m209.205,409.54s-4.951-8.745-.734-16.187c0,0,2.017-4.279,0-8.745"/>
      </g>
      <g>
        <ellipse class="cls-2" cx="200.517" cy="413.913" rx="5.227" ry="5.303"/>
        <path class="cls-3" d="m202.626,408.982s-3.484-10.792.55-14.885c4.035-4.093,1.284-9.489,1.284-9.489"/>
        <path class="cls-3" d="m198.041,409.54s-4.951-8.745-.734-16.187c0,0,2.017-4.279,0-8.745"/>
      </g>
      <g>
        <ellipse class="cls-2" cx="189.353" cy="413.913" rx="5.227" ry="5.303"/>
        <path class="cls-3" d="m191.462,408.982s-3.484-10.792.55-14.885c4.035-4.093,1.284-9.489,1.284-9.489"/>
        <path class="cls-3" d="m186.877,409.54s-4.951-8.745-.734-16.187c0,0,2.017-4.279,0-8.745"/>
      </g>
      <g>
        <ellipse class="cls-2" cx="178.189" cy="413.913" rx="5.227" ry="5.303"/>
        <path class="cls-3" d="m180.298,408.982s-3.484-10.792.55-14.885c4.035-4.093,1.284-9.489,1.284-9.489"/>
        <path class="cls-3" d="m175.714,409.54s-4.951-8.745-.734-16.187c0,0,2.017-4.279,0-8.745"/>
      </g>
      <g>
        <ellipse class="cls-2" cx="167.026" cy="413.913" rx="5.227" ry="5.303"/>
        <path class="cls-3" d="m169.135,408.982s-3.484-10.792.55-14.885c4.035-4.093,1.284-9.489,1.284-9.489"/>
        <path class="cls-3" d="m164.55,409.54s-4.951-8.745-.734-16.187c0,0,2.017-4.279,0-8.745"/>
      </g>
      <g>
        <ellipse class="cls-2" cx="155.862" cy="413.913" rx="5.227" ry="5.303"/>
        <path class="cls-3" d="m157.971,408.982s-3.484-10.792.55-14.885c4.035-4.093,1.284-9.489,1.284-9.489"/>
        <path class="cls-3" d="m153.386,409.54s-4.951-8.745-.734-16.187c0,0,2.017-4.279,0-8.745"/>
      </g>
      <g>
        <ellipse class="cls-2" cx="144.698" cy="413.913" rx="5.227" ry="5.303"/>
        <path class="cls-3" d="m146.807,408.982s-3.484-10.792.55-14.885c4.035-4.093,1.284-9.489,1.284-9.489"/>
        <path class="cls-3" d="m142.223,409.54s-4.951-8.745-.734-16.187c0,0,2.017-4.279,0-8.745"/>
      </g>
      <g>
        <ellipse class="cls-2" cx="133.535" cy="413.913" rx="5.227" ry="5.303"/>
        <path class="cls-3" d="m135.644,408.982s-3.484-10.792.55-14.885c4.035-4.093,1.284-9.489,1.284-9.489"/>
        <path class="cls-3" d="m131.059,409.54s-4.951-8.745-.734-16.187c0,0,2.017-4.279,0-8.745"/>
      </g>
      <g>
        <ellipse class="cls-2" cx="122.371" cy="413.913" rx="5.227" ry="5.303"/>
        <path class="cls-3" d="m124.48,408.982s-3.484-10.792.55-14.885c4.035-4.093,1.284-9.489,1.284-9.489"/>
        <path class="cls-3" d="m119.895,409.54s-4.951-8.745-.734-16.187c0,0,2.017-4.279,0-8.745"/>
      </g>
      <g>
        <ellipse class="cls-2" cx="111.207" cy="413.913" rx="5.227" ry="5.303"/>
        <path class="cls-3" d="m113.316,408.982s-3.484-10.792.55-14.885c4.035-4.093,1.284-9.489,1.284-9.489"/>
        <path class="cls-3" d="m108.732,409.54s-4.951-8.745-.734-16.187c0,0,2.017-4.279,0-8.745"/>
      </g>
      <g>
        <ellipse class="cls-2" cx="100.044" cy="413.913" rx="5.227" ry="5.303"/>
        <path class="cls-3" d="m102.153,408.982s-3.484-10.792.55-14.885c4.035-4.093,1.284-9.489,1.284-9.489"/>
        <path class="cls-3" d="m97.568,409.54s-4.951-8.745-.734-16.187c0,0,2.017-4.279,0-8.745"/>
      </g>
    </g>
    <g>
      <g>
        <ellipse class="cls-2" cx="99.113" cy="354.568" rx="5.227" ry="5.303"/>
        <path class="cls-3" d="m97.005,359.498s3.484,10.792-.55,14.885c-4.035,4.093-1.284,9.489-1.284,9.489"/>
        <path class="cls-3" d="m101.589,358.94s4.951,8.745.734,16.187c0,0-2.017,4.279,0,8.745"/>
      </g>
      <g>
        <ellipse class="cls-2" cx="110.277" cy="354.568" rx="5.227" ry="5.303"/>
        <path class="cls-3" d="m108.168,359.498s3.484,10.792-.55,14.885c-4.035,4.093-1.284,9.489-1.284,9.489"/>
        <path class="cls-3" d="m112.753,358.94s4.951,8.745.734,16.187c0,0-2.017,4.279,0,8.745"/>
      </g>
      <g>
        <ellipse class="cls-2" cx="121.441" cy="354.568" rx="5.227" ry="5.303"/>
        <path class="cls-3" d="m119.332,359.498s3.484,10.792-.55,14.885c-4.035,4.093-1.284,9.489-1.284,9.489"/>
        <path class="cls-3" d="m123.917,358.94s4.951,8.745.734,16.187c0,0-2.017,4.279,0,8.745"/>
      </g>
      <g>
        <ellipse class="cls-2" cx="132.604" cy="354.568" rx="5.227" ry="5.303"/>
        <path class="cls-3" d="m130.496,359.498s3.484,10.792-.55,14.885c-4.035,4.093-1.284,9.489-1.284,9.489"/>
        <path class="cls-3" d="m135.08,358.94s4.951,8.745.734,16.187c0,0-2.017,4.279,0,8.745"/>
      </g>
      <g>
        <ellipse class="cls-2" cx="143.768" cy="354.568" rx="5.227" ry="5.303"/>
        <path class="cls-3" d="m141.659,359.498s3.484,10.792-.55,14.885c-4.035,4.093-1.284,9.489-1.284,9.489"/>
        <path class="cls-3" d="m146.244,358.94s4.951,8.745.734,16.187c0,0-2.017,4.279,0,8.745"/>
      </g>
      <g>
        <ellipse class="cls-2" cx="154.932" cy="354.568" rx="5.227" ry="5.303"/>
        <path class="cls-3" d="m152.823,359.498s3.484,10.792-.55,14.885c-4.035,4.093-1.284,9.489-1.284,9.489"/>
        <path class="cls-3" d="m157.408,358.94s4.951,8.745.734,16.187c0,0-2.017,4.279,0,8.745"/>
      </g>
      <g>
        <ellipse class="cls-2" cx="166.095" cy="354.568" rx="5.227" ry="5.303"/>
        <path class="cls-3" d="m163.987,359.498s3.484,10.792-.55,14.885c-4.035,4.093-1.284,9.489-1.284,9.489"/>
        <path class="cls-3" d="m168.571,358.94s4.951,8.745.734,16.187c0,0-2.017,4.279,0,8.745"/>
      </g>
      <g>
        <ellipse class="cls-2" cx="177.259" cy="354.568" rx="5.227" ry="5.303"/>
        <path class="cls-3" d="m175.15,359.498s3.484,10.792-.55,14.885c-4.035,4.093-1.284,9.489-1.284,9.489"/>
        <path class="cls-3" d="m179.735,358.94s4.951,8.745.734,16.187c0,0-2.017,4.279,0,8.745"/>
      </g>
      <g>
        <ellipse class="cls-2" cx="188.423" cy="354.568" rx="5.227" ry="5.303"/>
        <path class="cls-3" d="m186.314,359.498s3.484,10.792-.55,14.885c-4.035,4.093-1.284,9.489-1.284,9.489"/>
        <path class="cls-3" d="m190.899,358.94s4.951,8.745.734,16.187c0,0-2.017,4.279,0,8.745"/>
      </g>
      <g>
        <ellipse class="cls-2" cx="199.587" cy="354.568" rx="5.227" ry="5.303"/>
        <path class="cls-3" d="m197.478,359.498s3.484,10.792-.55,14.885c-4.035,4.093-1.284,9.489-1.284,9.489"/>
        <path class="cls-3" d="m202.062,358.94s4.951,8.745.734,16.187c0,0-2.017,4.279,0,8.745"/>
      </g>
      <g>
        <ellipse class="cls-2" cx="210.75" cy="354.568" rx="5.227" ry="5.303"/>
        <path class="cls-3" d="m208.641,359.498s3.484,10.792-.55,14.885c-4.035,4.093-1.284,9.489-1.284,9.489"/>
        <path class="cls-3" d="m213.226,358.94s4.951,8.745.734,16.187c0,0-2.017,4.279,0,8.745"/>
      </g>
      <g>
        <ellipse class="cls-2" cx="221.914" cy="354.568" rx="5.227" ry="5.303"/>
        <path class="cls-3" d="m219.805,359.498s3.484,10.792-.55,14.885c-4.035,4.093-1.284,9.489-1.284,9.489"/>
        <path class="cls-3" d="m224.39,358.94s4.951,8.745.734,16.187c0,0-2.017,4.279,0,8.745"/>
      </g>
      <g>
        <ellipse class="cls-2" cx="233.078" cy="354.568" rx="5.227" ry="5.303"/>
        <path class="cls-3" d="m230.969,359.498s3.484,10.792-.55,14.885c-4.035,4.093-1.284,9.489-1.284,9.489"/>
        <path class="cls-3" d="m235.553,358.94s4.951,8.745.734,16.187c0,0-2.017,4.279,0,8.745"/>
      </g>
      <g>
        <ellipse class="cls-2" cx="244.241" cy="354.568" rx="5.227" ry="5.303"/>
        <path class="cls-3" d="m242.132,359.498s3.484,10.792-.55,14.885c-4.035,4.093-1.284,9.489-1.284,9.489"/>
        <path class="cls-3" d="m246.717,358.94s4.951,8.745.734,16.187c0,0-2.017,4.279,0,8.745"/>
      </g>
      <g>
        <ellipse class="cls-2" cx="255.405" cy="354.568" rx="5.227" ry="5.303"/>
        <path class="cls-3" d="m253.296,359.498s3.484,10.792-.55,14.885c-4.035,4.093-1.284,9.489-1.284,9.489"/>
        <path class="cls-3" d="m257.881,358.94s4.951,8.745.734,16.187c0,0-2.017,4.279,0,8.745"/>
      </g>
      <g>
        <ellipse class="cls-2" cx="266.569" cy="354.568" rx="5.227" ry="5.303"/>
        <path class="cls-3" d="m264.46,359.498s3.484,10.792-.55,14.885c-4.035,4.093-1.284,9.489-1.284,9.489"/>
        <path class="cls-3" d="m269.044,358.94s4.951,8.745.734,16.187c0,0-2.017,4.279,0,8.745"/>
      </g>
      <g>
        <ellipse class="cls-2" cx="277.732" cy="354.568" rx="5.227" ry="5.303"/>
        <path class="cls-3" d="m275.623,359.498s3.484,10.792-.55,14.885c-4.034,4.093-1.284,9.489-1.284,9.489"/>
        <path class="cls-3" d="m280.208,358.94s4.951,8.745.734,16.187c0,0-2.017,4.279,0,8.745"/>
      </g>
      <g>
        <ellipse class="cls-2" cx="288.896" cy="354.568" rx="5.227" ry="5.303"/>
        <path class="cls-3" d="m286.787,359.498s3.484,10.792-.55,14.885c-4.034,4.093-1.284,9.489-1.284,9.489"/>
        <path class="cls-3" d="m291.372,358.94s4.951,8.745.734,16.187c0,0-2.017,4.279,0,8.745"/>
      </g>
      <g>
        <ellipse class="cls-2" cx="300.06" cy="354.568" rx="5.227" ry="5.303"/>
        <path class="cls-3" d="m297.951,359.498s3.484,10.792-.55,14.885c-4.035,4.093-1.284,9.489-1.284,9.489"/>
        <path class="cls-3" d="m302.535,358.94s4.951,8.745.734,16.187c0,0-2.017,4.279,0,8.745"/>
      </g>
      <g>
        <ellipse class="cls-2" cx="311.223" cy="354.568" rx="5.227" ry="5.303"/>
        <path class="cls-3" d="m309.114,359.498s3.484,10.792-.55,14.885c-4.035,4.093-1.284,9.489-1.284,9.489"/>
        <path class="cls-3" d="m313.699,358.94s4.951,8.745.734,16.187c0,0-2.017,4.279,0,8.745"/>
      </g>
      <g>
        <ellipse class="cls-2" cx="322.387" cy="354.568" rx="5.227" ry="5.303"/>
        <path class="cls-3" d="m320.278,359.498s3.484,10.792-.55,14.885c-4.035,4.093-1.284,9.489-1.284,9.489"/>
        <path class="cls-3" d="m324.863,358.94s4.951,8.745.734,16.187c0,0-2.017,4.279,0,8.745"/>
      </g>
      <g>
        <ellipse class="cls-2" cx="333.551" cy="354.568" rx="5.227" ry="5.303"/>
        <path class="cls-3" d="m331.442,359.498s3.484,10.792-.55,14.885c-4.035,4.093-1.284,9.489-1.284,9.489"/>
        <path class="cls-3" d="m336.026,358.94s4.951,8.745.734,16.187c0,0-2.017,4.279,0,8.745"/>
      </g>
      <g>
        <ellipse class="cls-2" cx="344.714" cy="354.568" rx="5.227" ry="5.303"/>
        <path class="cls-3" d="m342.605,359.498s3.484,10.792-.55,14.885c-4.035,4.093-1.284,9.489-1.284,9.489"/>
        <path class="cls-3" d="m347.19,358.94s4.951,8.745.734,16.187c0,0-2.017,4.279,0,8.745"/>
      </g>
      <g>
        <ellipse class="cls-2" cx="355.878" cy="354.568" rx="5.227" ry="5.303"/>
        <path class="cls-3" d="m353.769,359.498s3.484,10.792-.55,14.885c-4.035,4.093-1.284,9.489-1.284,9.489"/>
        <path class="cls-3" d="m358.354,358.94s4.951,8.745.734,16.187c0,0-2.017,4.279,0,8.745"/>
      </g>
    </g>
    <path class="cls-5" d="m154.932,239.578s3.535,10.792-.558,14.885c-4.093,4.093-1.302,9.489-1.302,9.489"/>
    <g>
      <circle class="cls-1" cx="157.072" cy="234.647" r="5.303"/>
      <path class="cls-5" d="m159.583,239.019s5.024,8.745.744,16.187c0,0-2.047,4.279,0,8.745"/>
      <circle class="cls-1" cx="168.305" cy="234.647" r="5.303"/>
      <path class="cls-5" d="m166.165,239.578s3.535,10.792-.558,14.885c-4.093,4.093-1.302,9.489-1.302,9.489"/>
    </g>
    <path class="cls-5" d="m170.817,239.019s5.024,8.745.744,16.187c0,0-2.047,4.279,0,8.745"/>
    <path class="cls-5" d="m235.682,239.578s3.535,10.792-.558,14.885c-4.093,4.093-1.302,9.489-1.302,9.489"/>
    <g>
      <circle class="cls-1" cx="237.822" cy="234.647" r="5.303"/>
      <path class="cls-5" d="m240.334,239.019s5.024,8.745.744,16.187c0,0-2.047,4.279,0,8.745"/>
      <circle class="cls-1" cx="249.056" cy="234.647" r="5.303"/>
      <path class="cls-5" d="m246.916,239.578s3.535,10.792-.558,14.885c-4.093,4.093-1.302,9.489-1.302,9.489"/>
    </g>
    <path class="cls-6" d="m251.567,239.019s5.024,8.745.744,16.187c0,0-2.047,4.279,0,8.745l158.082,61.493"/>
    <g>
      <circle class="cls-1" cx="100.881" cy="234.647" r="5.303"/>
      <path class="cls-5" d="m98.741,239.578s3.535,10.792-.558,14.885-1.302,9.489-1.302,9.489"/>
      <path class="cls-5" d="m103.393,239.019s5.024,8.745.744,16.187c0,0-2.047,4.279,0,8.745"/>
      <circle class="cls-1" cx="112.115" cy="234.647" r="5.303"/>
      <path class="cls-5" d="m109.975,239.578s3.535,10.792-.558,14.885c-4.093,4.093-1.302,9.489-1.302,9.489"/>
      <path class="cls-5" d="m114.626,239.019s5.024,8.745.744,16.187c0,0-2.047,4.279,0,8.745"/>
      <circle class="cls-1" cx="123.348" cy="234.647" r="5.303"/>
      <path class="cls-5" d="m121.208,239.578s3.535,10.792-.558,14.885c-4.093,4.093-1.302,9.489-1.302,9.489"/>
      <path class="cls-5" d="m125.86,239.019s5.024,8.745.744,16.187c0,0-2.047,4.279,0,8.745"/>
    </g>
    <g>
      <circle class="cls-1" cx="180.143" cy="234.647" r="5.303"/>
      <path class="cls-5" d="m178.003,239.578s3.535,10.792-.558,14.885c-4.093,4.093-1.302,9.489-1.302,9.489"/>
      <path class="cls-5" d="m182.655,239.019s5.024,8.745.744,16.187c0,0-2.047,4.279,0,8.745"/>
      <circle class="cls-1" cx="191.377" cy="234.647" r="5.303"/>
      <path class="cls-5" d="m189.237,239.578s3.535,10.792-.558,14.885c-4.093,4.093-1.302,9.489-1.302,9.489"/>
      <path class="cls-5" d="m193.888,239.019s5.024,8.745.744,16.187c0,0-2.047,4.279,0,8.745"/>
      <circle class="cls-1" cx="202.61" cy="234.647" r="5.303"/>
      <path class="cls-5" d="m200.47,239.578s3.535,10.792-.558,14.885c-4.093,4.093-1.302,9.489-1.302,9.489"/>
      <path class="cls-5" d="m205.122,239.019s5.024,8.745.744,16.187c0,0-2.047,4.279,0,8.745"/>
    </g>
    <g>
      <circle class="cls-1" cx="283.686" cy="234.647" r="5.303"/>
      <path class="cls-5" d="m281.546,239.578s3.535,10.792-.558,14.885c-4.093,4.093-1.302,9.489-1.302,9.489"/>
      <path class="cls-5" d="m286.198,239.019s5.024,8.745.744,16.187c0,0-2.047,4.279,0,8.745"/>
      <circle class="cls-1" cx="294.92" cy="234.647" r="5.303"/>
      <path class="cls-5" d="m292.78,239.578s3.535,10.792-.558,14.885-1.302,9.489-1.302,9.489"/>
      <path class="cls-5" d="m297.431,239.019s5.024,8.745.744,16.187c0,0-2.047,4.279,0,8.745"/>
      <circle class="cls-1" cx="306.153" cy="234.647" r="5.303"/>
      <path class="cls-5" d="m304.013,239.578s3.535,10.792-.558,14.885c-4.093,4.093-1.302,9.489-1.302,9.489"/>
      <path class="cls-5" d="m308.665,239.019s5.024,8.745.744,16.187c0,0-2.047,4.279,0,8.745"/>
    </g>
    <g>
      <circle class="cls-1" cx="340.249" cy="234.647" r="5.303"/>
      <path class="cls-5" d="m338.109,239.578s3.535,10.792-.558,14.885-1.302,9.489-1.302,9.489"/>
      <path class="cls-5" d="m342.761,239.019s5.024,8.745.744,16.187c0,0-2.047,4.279,0,8.745"/>
      <circle class="cls-1" cx="351.482" cy="234.647" r="5.303"/>
      <path class="cls-5" d="m349.342,239.578s3.535,10.792-.558,14.885c-4.093,4.093-1.302,9.489-1.302,9.489"/>
      <path class="cls-5" d="m353.994,239.019s5.024,8.745.744,16.187c0,0-2.047,4.279,0,8.745"/>
      <circle class="cls-1" cx="362.716" cy="234.647" r="5.303"/>
      <path class="cls-5" d="m360.576,239.578s3.535,10.792-.558,14.885c-4.093,4.093-1.302,9.489-1.302,9.489"/>
      <path class="cls-5" d="m365.227,239.019s5.024,8.745.744,16.187c0,0-2.047,4.279,0,8.745"/>
    </g>
    <g>
      <g>
        <path class="cls-33" d="m130.917,138.591c-1.509-.533-2.249-2.284-1.522-3.885.715-1.598,2.61-2.243,3.954-1.37,1.331.864,1.882,2.449,1.288,3.776-.598,1.315-2.227,2.007-3.72,1.478Z"/>
        <path class="cls-33" d="m129.307,144.157c-.778-.169-1.409-.644-1.793-1.302-.396-.658-.52-1.493-.264-2.312.454-1.669,2.198-2.516,3.667-1.952,1.505.576,2.254,2.135,1.872,3.56-.224.711-.699,1.282-1.308,1.652-.619.365-1.395.522-2.174.353Z"/>
        <path class="cls-33" d="m128.454,149.886c-.794-.065-1.481-.453-1.949-1.054-.466-.599-.731-1.412-.573-2.253.138-.843.582-1.553,1.184-1.991.635-.435,1.413-.602,2.191-.431.778.171,1.411.637,1.81,1.224.431.596.641,1.318.52,2.055-.142.734-.507,1.368-1.074,1.814-.566.444-1.315.702-2.108.637Z"/>
        <path class="cls-33" d="m128.357,155.678c-1.58.092-3.006-1.225-2.927-2.95.026-.853.341-1.615.909-2.127.572-.514,1.321-.782,2.115-.715.793.067,1.482.446,1.955.976.476.533.811,1.223.788,1.971-.076,1.479-1.24,2.752-2.84,2.844Z"/>
        <path class="cls-33" d="m128.969,161.44c-1.566.292-3.03-.852-3.263-2.556-.21-1.706,1.082-3.154,2.65-3.206,1.616-.057,2.898,1.102,3.083,2.573.205,1.469-.905,2.897-2.47,3.189Z"/>
        <path class="cls-33" d="m130.341,167.068c-1.5.468-3.234-.442-3.563-2.129-.37-1.674.583-3.236,2.192-3.5,1.535-.25,3.102.713,3.42,2.166.275,1.464-.508,2.984-2.049,3.463Z"/>
        <path class="cls-33" d="m132.326,172.511c-1.459.639-3.171-.118-3.818-1.692-.526-1.626.304-3.309,1.832-3.751,1.531-.443,3.134.353,3.587,1.776.577,1.385-.143,3.028-1.602,3.667Z"/>
        <path class="cls-33" d="m134.588,177.851c-1.484.579-3.176-.09-3.776-1.495-.151-.354-.221-.724-.22-1.093-.004-.386.061-.783.195-1.138.268-.716.806-1.302,1.539-1.614.733-.311,1.519-.298,2.188-.044.336.13.637.311.901.564.274.269.504.6.668.983.66,1.54-.011,3.258-1.495,3.837Z"/>
        <path class="cls-33" d="m136.476,183.33c-1.531.431-3.076-.393-3.616-1.812-.497-1.43.278-3.075,1.729-3.667,1.499-.611,3.165.182,3.721,1.777.596,1.579-.297,3.269-1.833,3.702Z"/>
        <path class="cls-33" d="m137.811,188.969c-1.573.247-3.093-.731-3.385-2.185-.363-1.449.516-2.991,2.05-3.454,1.515-.459,3.154.485,3.566,2.142.345,1.684-.658,3.251-2.231,3.498Z"/>
        <path class="cls-33" d="m138.356,194.737c-1.605-.001-2.919-1.171-3.038-2.618-.193-1.453.955-2.868,2.493-3.149,1.595-.291,3.028.877,3.248,2.599.146,1.741-1.123,3.172-2.703,3.169Z"/>
        <path class="cls-33" d="m137.882,200.506c-.782-.149-1.432-.593-1.856-1.143-.46-.563-.714-1.243-.632-1.954.06-1.42,1.398-2.622,2.962-2.672,1.62-.051,2.873,1.345,2.789,3.122-.096.88-.503,1.642-1.087,2.121-.622.481-1.394.675-2.176.526Z"/>
        <path class="cls-33" d="m136.099,206.001c-.705-.362-1.205-.959-1.504-1.598-.272-.626-.382-1.324-.149-1.967.183-.668.68-1.182,1.285-1.542.599-.358,1.367-.534,2.15-.389.783.145,1.429.606,1.83,1.279.396.667.475,1.545.226,2.417-.305.866-.882,1.541-1.616,1.86-.706.329-1.511.306-2.223-.06Z"/>
        <path class="cls-33" d="m133.307,211.05c-.749-.241-1.359-.795-1.606-1.561-.252-.761-.178-1.739.412-2.644.168-.238.31-.428.538-.647l.163-.152.09-.077c.035-.03.066-.055.05-.028-.003.021-.012.057,0,.07l.09-.04c.245-.082.557-.209.894-.253.666-.119,1.449-.077,2.162.284.707.358,1.207.985,1.356,1.779.057.4.066.821-.101,1.298l-.061.176c-.042.083-.107.19-.166.283-.043.063-.042.072-.038.077v.028s-.011.068-.011.068c-.014.071-.077.215-.144.301-.287.438-.801.794-1.45,1.002-.653.201-1.412.285-2.178.038Z"/>
        <path class="cls-33" d="m132.619,216.774c-1.574.119-2.986-1.299-2.788-3.223.125-.943.597-1.744,1.266-2.194.634-.46,1.466-.556,2.211-.307.765.255,1.323.755,1.739,1.323.381.562.607,1.189.515,1.833-.134,1.267-1.343,2.449-2.942,2.568Z"/>
        <path class="cls-33" d="m133.652,222.464c-.763.229-1.544.115-2.199-.294-.674-.397-1.159-1.117-1.319-2.002-.197-.87.07-1.752.52-2.364.446-.619,1.171-.994,1.966-1.03.796-.036,1.511.24,2.096.662.582.428.928,1,1.091,1.693.214,1.36-.606,2.852-2.155,3.335Z"/>
        <path class="cls-33" d="m135.768,227.856c-1.418.713-3.166.017-3.849-1.586-.299-.818-.265-1.672.043-2.357.308-.69.934-1.228,1.69-1.45.772-.227,1.521-.123,2.184.175.665.301,1.195.81,1.442,1.498.577,1.34-.082,3.003-1.51,3.72Z"/>
      </g>
      <g>
        <path class="cls-33" d="m144.623,187.955c1.298.911,1.597,2.729.564,3.987-1.036,1.258-2.89,1.302-4.024.191-1.142-1.118-1.29-2.809-.421-3.867.871-1.059,2.571-1.229,3.88-.31Z"/>
        <path class="cls-33" d="m147.482,183.346c1.423.734,1.95,2.493,1.094,3.876-.853,1.384-2.683,1.671-3.954.733-1.292-.953-1.66-2.612-.942-3.782.722-1.166,2.394-1.553,3.801-.827Z"/>
        <path class="cls-33" d="m149.69,178.392c1.5.516,2.276,2.191,1.616,3.686-.654,1.498-2.435,2.029-3.823,1.268-1.406-.769-1.99-2.358-1.447-3.611.552-1.246,2.144-1.864,3.655-1.343Z"/>
        <path class="cls-33" d="m151.118,173.162c1.566.282,2.612,1.829,2.162,3.41-.432,1.585-2.116,2.375-3.59,1.82-1.508-.564-2.322-2.05-1.969-3.358.375-1.303,1.829-2.155,3.397-1.873Z"/>
        <path class="cls-33" d="m151.737,167.776c.796.027,1.5.361,1.993.913.492.548.789,1.315.668,2.12-.171,1.64-1.722,2.679-3.28,2.353-1.56-.327-2.586-1.663-2.451-3.009.106-.678.444-1.27.991-1.702.546-.43,1.283-.702,2.079-.675Z"/>
        <path class="cls-33" d="m151.518,162.359c1.576-.215,3.028.935,3.101,2.58.08,1.645-1.287,2.917-2.882,2.837-1.586-.078-2.811-1.237-2.88-2.588-.059-1.351,1.081-2.614,2.661-2.829Z"/>
        <path class="cls-33" d="m150.451,157.042c1.529-.452,3.136.461,3.461,2.071.325,1.611-.815,3.077-2.394,3.246-1.589.171-2.991-.782-3.262-2.111-.266-1.33.668-2.756,2.194-3.206Z"/>
        <path class="cls-33" d="m148.606,151.943c1.441-.668,3.171-.007,3.727,1.533.563,1.538-.346,3.158-1.882,3.566-1.542.411-3.071-.323-3.541-1.6-.46-1.281.247-2.829,1.696-3.499Z"/>
      </g>
    </g>
    <g>
      <path class="cls-33" d="m236.28,140.154c-.425-.697-.5-1.494-.242-2.251.248-.768.857-1.446,1.704-1.85,1.718-.803,3.669-.016,4.08,1.563.409,1.565-.271,3.141-1.613,3.769-.676.325-1.431.334-2.131.137-.704-.212-1.378-.68-1.798-1.368Z"/>
      <path class="cls-33" d="m231.481,143.915c-.584-.578-.846-1.334-.763-2.128.085-.784.484-1.65,1.25-2.2.373-.287.78-.494,1.188-.617.419-.106.843-.121,1.238-.063.792.117,1.467.554,1.887,1.248.42.694.522,1.505.389,2.228-.067.363-.199.701-.384,1.005-.173.321-.404.603-.7.83-.612.431-1.285.661-2.031.607-.736-.051-1.503-.346-2.072-.908Z"/>
      <path class="cls-33" d="m227.842,148.798c-.711-.39-1.181-1.052-1.332-1.857-.184-.821.079-1.697.644-2.473.543-.797,1.403-1.207,2.196-1.294.799-.089,1.558.169,2.131.742.574.573.872,1.337.928,2.067.056.736-.165,1.414-.565,2.022-.897,1.107-2.539,1.553-4.002.793Z"/>
      <path class="cls-33" d="m225.673,154.485c-.791-.179-1.415-.682-1.768-1.406-.177-.361-.286-.774-.317-1.213-.015-.219-.014-.446.013-.674.048-.221.118-.445.209-.667.371-.887.997-1.568,1.73-1.876.775-.294,1.593-.246,2.301.148.709.394,1.189,1.037,1.417,1.704.264.691.334,1.436.046,2.102-.071.168-.16.324-.265.47-.084.154-.18.299-.293.431-.225.266-.509.487-.832.66-.646.343-1.451.499-2.242.32Z"/>
      <path class="cls-33" d="m225.074,160.549c-.811.011-1.54-.331-2.061-.937-.26-.302-.469-.668-.609-1.077-.143-.408-.223-.859-.138-1.328.129-.937.577-1.742,1.186-2.234.587-.5,1.444-.67,2.222-.489.802.186,1.384.657,1.86,1.261.453.603.687,1.311.578,2.045-.074.364-.152.718-.302,1.041-.153.322-.373.614-.643.865-.541.499-1.281.841-2.092.853Z"/>
      <path class="cls-33" d="m224.906,166.654c-.808-.07-1.512-.468-1.998-1.025-.246-.279-.424-.599-.558-.947-.149-.348-.231-.723-.231-1.114,0-.782.332-1.493.865-2.041.538-.604,1.28-.973,2.09-.977.812-.004,1.538.31,2.061.813.531.558.861,1.375.859,2.28,0,.452-.085.881-.235,1.264-.166.382-.419.717-.705.989-.579.545-1.339.829-2.147.758Z"/>
      <path class="cls-33" d="m223.967,172.685c-1.576-.378-2.538-1.913-2.329-3.455.297-1.531,1.627-2.695,3.267-2.576,1.596.114,2.873,1.697,2.536,3.487-.252,1.805-1.896,2.922-3.475,2.544Z"/>
      <path class="cls-33" d="m222.24,178.54c-1.513-.57-2.287-2.226-1.86-3.735.114-.379.308-.717.547-1.009.222-.297.501-.546.819-.74.636-.385,1.43-.551,2.221-.372.791.179,1.428.679,1.811,1.37.192.345.32.736.375,1.151.037.41-.012.839-.141,1.268-.497,1.74-2.25,2.64-3.773,2.067Z"/>
      <path class="cls-33" d="m219.822,184.148c-1.458-.748-2.006-2.475-1.408-3.935.662-1.435,2.274-2.218,3.825-1.672,1.51.53,2.314,2.369,1.567,4.004-.687,1.663-2.556,2.338-3.985,1.604Z"/>
      <path class="cls-33" d="m216.796,189.453c-1.345-.89-1.754-2.697-.959-4.066.383-.7,1.023-1.173,1.748-1.396.706-.231,1.512-.204,2.237.158.726.363,1.229,1.002,1.446,1.763.199.75.097,1.613-.331,2.392-.899,1.55-2.779,2.05-4.141,1.15Z"/>
      <path class="cls-33" d="m213.169,194.365c-1.194-1.094-1.396-2.857-.469-4.132.925-1.268,2.724-1.65,4.096-.78,1.368.867,1.703,2.798.639,4.258-1.059,1.456-3.067,1.754-4.266.654Z"/>
    </g>
    <g>
      <path class="cls-33" d="m208.981,150.73c-1.543.365-3.131-.739-3.393-2.499-.259-1.753.96-3.323,2.558-3.359,1.589-.036,2.931,1.047,3.15,2.533.22,1.478-.758,2.957-2.315,3.324Z"/>
      <path class="cls-33" d="m210.726,156.382c-1.446.616-3.242-.228-3.743-1.947-.525-1.71.434-3.381,1.997-3.706,1.555-.325,3.081.6,3.518,2.016.41,1.427-.286,3.006-1.772,3.636Z"/>
      <path class="cls-33" d="m213.491,161.605c-.653.448-1.458.582-2.218.373-.729-.22-1.421-.774-1.87-1.565-.815-1.637-.185-3.452,1.324-4.03,1.466-.561,3.147.06,3.785,1.353.365.629.409,1.359.213,2.069-.173.686-.573,1.347-1.233,1.8Z"/>
      <path class="cls-33" d="m217.431,165.997c-.508.613-1.227.939-2.023.929-.396-.004-.809-.091-1.211-.257-.379-.185-.725-.467-1.035-.814-.624-.693-.923-1.535-.813-2.333.083-.786.483-1.471,1.142-1.917s1.442-.59,2.143-.5c.683.114,1.358.386,1.83.909.236.263.39.579.499.906.127.305.191.643.195.995.005.703-.219,1.471-.727,2.083Z"/>
      <path class="cls-33" d="m222.472,169.06c-.297.739-.876,1.258-1.63,1.471-.741.202-1.689.154-2.496-.334-.786-.524-1.315-1.277-1.485-2.026-.169-.759.067-1.575.57-2.174.52-.621,1.196-.925,1.903-1.069.717-.148,1.414-.069,1.981.325.59.356,1.024.871,1.229,1.572.208.685.224,1.496-.073,2.235Z"/>
    </g>
    <g>
      <path class="cls-33" d="m194.089,181.121c-1.083,1.168-2.896,1.248-4.05.178-1.154-1.07-1.211-2.884-.128-4.052,1.083-1.168,2.896-1.248,4.05-.178,1.154,1.07,1.211,2.884.128,4.052Z"/>
      <path class="cls-33" d="m198.267,184.995c-1.083,1.168-2.896,1.248-4.05.178-1.154-1.07-1.211-2.884-.128-4.052,1.083-1.168,2.896-1.248,4.05-.178,1.154,1.07,1.211,2.884.128,4.052Z"/>
      <ellipse class="cls-33" cx="200.355" cy="186.932" rx="2.884" ry="2.849" transform="translate(-72.944 206.764) rotate(-47.165)"/>
      <ellipse class="cls-33" cx="204.533" cy="190.805" rx="2.884" ry="2.849" transform="translate(-74.447 211.068) rotate(-47.165)"/>
      <path class="cls-33" d="m210.523,196.781c-.613.215-1.223.245-1.689.368-.195.059-.364.121-.502.185-.069.032-.132.064-.186.097l-.077.048c-.047-.006-.105-.023-.156-.036-.421-.116-.822-.332-1.164-.65-1.154-1.07-1.211-2.884-.128-4.052,1.083-1.168,2.896-1.248,4.05-.178.342.317.588.7.735,1.112l.054.158.125.236c.077.155.142.305.193.448.102.287.15.55.143.783-.281.827-.785,1.265-1.398,1.48Z"/>
      <path class="cls-33" d="m211.964,202.293c-1.541.403-3.113-.505-3.511-2.027-.199-.761-.067-1.532.308-2.162.189-.308.431-.612.737-.806.311-.176.65-.379,1.025-.516.376-.137.755-.186,1.138-.083.379.084.726.184,1.045.375.635.367,1.128.974,1.327,1.735.398,1.522-.529,3.083-2.07,3.485Z"/>
      <path class="cls-33" d="m213.405,207.805c-1.541.403-3.113-.505-3.511-2.027s.529-3.083,2.07-3.485c1.541-.403,3.113.505,3.511,2.027s-.529,3.083-2.07,3.485Z"/>
      <path class="cls-33" d="m214.952,213.281c-.342.147-.696.225-1.046.237-.359-.008-.668.028-1.082-.287-.096-.08-.193-.172-.287-.275-.087-.076-.162-.116-.24-.181-.152-.121-.292-.259-.417-.411-.25-.304-.439-.666-.545-1.072-.398-1.522.529-3.083,2.07-3.485,1.541-.403,3.113.505,3.511,2.027.106.406.118.814.049,1.201-.034.194-.089.382-.162.563-.038.085-.075.19-.126.253l-.185.119c-.23.111-.392.488-.65.715-.249.247-.548.452-.89.599Z"/>
      <path class="cls-33" d="m217.211,218.511c-1.462.631-3.153-.028-3.777-1.472s.056-3.127,1.518-3.759c1.462-.631,3.153.028,3.777,1.472.624,1.444-.056,3.127-1.518,3.759Z"/>
      <path class="cls-33" d="m219.469,223.742c-1.462.631-3.153-.028-3.777-1.472-.624-1.444.056-3.127,1.518-3.759,1.462-.631,3.153.028,3.777,1.472.624,1.444-.056,3.127-1.518,3.759Z"/>
      <path class="cls-33" d="m221.728,228.972c-1.462.631-3.153-.028-3.777-1.472-.624-1.444.056-3.127,1.518-3.759,1.462-.631,3.153.028,3.777,1.472.624,1.444-.056,3.127-1.518,3.759Z"/>
    </g>
    <g>
      <path class="cls-33" d="m263.535,223.307c.795-.063,1.534.19,2.093.616.59.422.968,1.026,1.093,1.721.221,1.389-.716,2.748-2.221,3.254-1.518.512-3.192-.574-3.466-2.288-.151-.85.097-1.663.538-2.259.473-.599,1.17-.981,1.963-1.044Z"/>
      <path class="cls-33" d="m263.525,217.629c1.599.151,2.791,1.422,2.78,2.84-.005,1.42-1.186,2.685-2.769,2.838-1.587.153-3.002-1.118-2.999-2.84.014-1.72,1.417-2.989,2.988-2.839Z"/>
      <path class="cls-33" d="m264.438,212.024c1.507.394,2.566,1.856,2.279,3.245-.188,1.406-1.604,2.465-3.193,2.36-1.59-.104-2.735-1.577-2.501-3.281.337-1.688,1.839-2.735,3.415-2.324Z"/>
      <path class="cls-33" d="m266.236,206.637c1.457.644,2.233,2.242,1.722,3.566-.392,1.362-1.965,2.179-3.519,1.821-1.55-.356-2.44-1.993-1.953-3.643.609-1.609,2.294-2.388,3.751-1.744Z"/>
      <path class="cls-33" d="m268.884,201.616c.676.421,1.124,1.068,1.319,1.747.193.681.112,1.384-.18,2.045-.623,1.279-2.349,1.816-3.787,1.23-1.511-.618-2.086-2.352-1.329-3.893.351-.775,1.053-1.262,1.785-1.457.734-.197,1.516-.092,2.192.329Z"/>
      <path class="cls-33" d="m272.196,197.004c1.185,1.024,1.479,2.813.605,3.954-.22.29-.496.519-.809.689-.299.179-.614.312-.963.375-.691.128-1.468.014-2.145-.405-.677-.419-1.12-1.076-1.271-1.823-.073-.371-.087-.772-.002-1.155.098-.372.273-.739.527-1.075,1.031-1.354,2.833-1.618,4.059-.56Z"/>
      <path class="cls-33" d="m275.815,192.648c.538.274.947.698,1.169,1.253.106.276.164.579.161.905-.022.331-.031.65-.331,1.126-.114.13-.08.093-.087.105l-.005.015-.011.03-.023.06-.051.118c-.036.078-.076.154-.12.229-.088.148-.191.289-.311.419-.98,1.066-2.778,1.106-4.009.095-1.231-1.011-1.304-2.842-.157-4.085.137-.148.284-.28.439-.395.077-.057.157-.11.238-.159l.122-.07.062-.032.031-.016.016-.008s.041-.04-.066.082c.062.101.31.009.535-.011.232-.033.487-.053.753-.046.524.006,1.109.109,1.647.383Z"/>
      <path class="cls-33" d="m276.581,187.137c.783-.192,1.569-.024,2.168.578.616.583.944,1.605.802,2.677-.181,1.059-.776,1.891-1.504,2.264-.723.39-1.532.356-2.232-.008-.711-.369-1.211-.962-1.547-1.525-.32-.572-.514-1.111-.419-1.597.048-.485.392-.895.85-1.328.478-.422,1.121-.872,1.882-1.06Z"/>
      <path class="cls-33" d="m273.649,182.346c.611-.511,1.368-.737,2.083-.707.654-.042,1.538.494,2.11,1.324.267.447.469.9.532,1.37.055.479.017.93-.105,1.316-.295.807-.916,1.313-1.689,1.49-.777.178-1.557.066-2.149-.11-.326-.086-.607-.197-.822-.342-.227-.144-.454-.31-.578-.542-.329-.451-.356-1.013-.377-1.829.043-.75.385-1.457.995-1.968Z"/>
      <path class="cls-33" d="m270.286,177.769c1.347-.834,3.074-.537,3.931.628.85,1.173.652,2.906-.567,3.949-1.2,1.029-3.079.844-4.074-.524-1.002-1.364-.652-3.211.71-4.054Z"/>
      <path class="cls-33" d="m267.628,172.752c.728-.302,1.525-.298,2.203-.08.687.219,1.21.666,1.573,1.289.643,1.254.231,2.927-1.118,3.807-1.317.862-3.18.435-3.977-1.103-.424-.738-.436-1.611-.196-2.318.244-.715.773-1.288,1.516-1.596Z"/>
      <path class="cls-33" d="m266.081,167.297c.788-.114,1.557.083,2.15.438.301.178.54.4.751.656.225.255.393.547.485.877.16.661.093,1.35-.227,1.98-.322.628-.879,1.195-1.613,1.504s-1.515.281-2.2-.055c-.684-.331-1.283-.963-1.502-1.828-.12-.426-.156-.853-.116-1.253.054-.405.212-.793.414-1.119.412-.658,1.068-1.087,1.856-1.201Z"/>
      <path class="cls-33" d="m266.183,161.647c.781.153,1.432.588,1.86,1.094.445.515.777,1.122.721,1.762.017,1.256-1.144,2.523-2.684,2.795-.774.115-1.591-.092-2.133-.616-.543-.518-.976-1.327-.951-2.249.058-.925.399-1.746,1.005-2.245.626-.504,1.399-.693,2.181-.54Z"/>
      <path class="cls-33" d="m268.203,156.369c.679.415,1.157,1.06,1.41,1.706.126.324.193.651.191.966-.001.157-.02.312-.058.462-.014.159-.044.315-.096.466-.185.608-.753,1.031-1.327,1.352-.589.31-1.357.473-2.139.326-.782-.147-1.428-.609-1.819-1.308-.409-.697-.382-1.582-.088-2.466.078-.219.173-.425.284-.615.133-.177.28-.339.436-.484.312-.288.663-.504,1.027-.636.729-.266,1.501-.185,2.18.23Z"/>
      <path class="cls-33" d="m271.56,151.785c1.338.913,1.569,2.747.522,4.091-.429.59-.998.847-1.714.941-.705.078-1.496-.045-2.166-.448-.694-.418-1.125-1.064-1.224-1.819-.113-.74.134-1.646.635-2.32.879-1.136,2.652-1.326,3.947-.444Z"/>
      <path class="cls-33" d="m274.389,146.865c.728.322,1.247.909,1.477,1.639.245.737.158,1.584-.282,2.325-.414.763-1.121,1.233-1.862,1.393-.739.165-1.51.021-2.162-.437-.651-.458-1.069-1.131-1.235-1.82-.16-.69-.069-1.396.262-2.017.363-.61.949-1.013,1.607-1.22.673-.198,1.467-.185,2.195.137Z"/>
      <path class="cls-33" d="m275.977,141.428c.785.099,1.473.527,1.883,1.19.387.648.56,1.553.278,2.404-.238.875-.852,1.509-1.537,1.835-.68.335-1.481.333-2.211.007-.724-.323-1.247-.897-1.573-1.529-.316-.633-.377-1.311-.208-1.955.219-.64.618-1.142,1.24-1.496.594-.348,1.334-.557,2.129-.456Z"/>
      <path class="cls-33" d="m275.52,135.821c.72-.345,1.56-.22,2.232.271.667.483,1.146,1.341,1.214,2.308.03.481-.054.937-.19,1.343-.165.399-.397.745-.674,1.017-.558.545-1.345.773-2.126.668-1.582-.25-2.669-1.485-2.765-2.641-.072-1.173.885-2.263,2.309-2.967Z"/>
    </g>
    <g>
      <path class="cls-33" d="m323.479,225.197c.417.68.496,1.479.22,2.222-.272.742-.89,1.401-1.721,1.748-1.676.701-3.459-.143-3.87-1.683-.412-1.537.336-3.089,1.644-3.638,1.295-.532,2.856.02,3.727,1.351Z"/>
      <path class="cls-33" d="m326.628,220.671c.397-.063.786-.038,1.141.143.366.178.689.51.882.998.421.974.113,2.502-.702,3.403-.802.936-1.778,1.25-2.581,1.185-.813-.071-1.479-.524-1.89-1.203-.811-1.368-.419-3.099.053-3.692.26-.316.521-.196,1.08-.268.553-.061,1.232-.427,2.016-.566Z"/>
      <path class="cls-33" d="m323.137,216.085c1.154-1.1,2.982-1.046,4.082.058.769.762,1.186,1.937,1.027,2.89-.079.485-.275.873-.575,1.157-.291.277-.649.42-1.042.48-.803.098-1.535-.005-2.117.003-.588-.015-1.001-.066-1.373-.453-1.182-1.186-1.154-3.038-.002-4.135Z"/>
      <path class="cls-33" d="m319.147,211.803c1.179-1.071,3.006-.98,4.093.188,1.087,1.168,1.045,2.991-.103,4.095-1.149,1.103-3.002,1.034-4.118-.165-1.115-1.198-1.051-3.047.128-4.118Z"/>
      <path class="cls-33" d="m315.249,207.437c1.202-1.046,3.025-.918,4.089.272,1.063,1.191.985,3.019-.191,4.094-1.175,1.075-3.022.968-4.112-.252-1.09-1.22-.988-3.069.213-4.114Z"/>
      <path class="cls-33" d="m311.452,202.982c1.229-1.013,3.045-.843,4.078.368,1.033,1.212.916,3.036-.281,4.087-1.197,1.05-3.043.904-4.107-.344-1.065-1.248-.919-3.098.31-4.111Z"/>
      <path class="cls-33" d="m307.798,198.41c1.271-.962,3.068-.731,4.056.501.989,1.234.822,3.05-.402,4.07-1.223,1.02-3.068.824-4.101-.465-1.034-1.29-.823-3.146.447-4.106Z"/>
      <path class="cls-33" d="m304.413,193.637c1.354-.839,3.091-.506,3.99.745.899,1.257.658,3.055-.605,4.028-1.26.971-3.106.697-4.089-.675-.987-1.375-.651-3.259.703-4.098Z"/>
      <path class="cls-33" d="m302.251,188.306c.796.204,1.515.63,2.085.735.142.03.266.048.376.052.117.03.183-.061.297.049.221.173.4.399.549.697.572,1.173.202,2.935-1.145,3.798-1.329.854-3.188.447-4.045-1.283-.211-.426-.329-.911-.352-1.395-.005-.22-.043-.626,0-.898.026-.295.107-.563.201-.79.428-.934,1.27-1.163,2.036-.964Z"/>
      <path class="cls-33" d="m304.895,183.109c1.448.634,2.176,2.311,1.415,3.924-.144.339-.444.72-.719.989-.144.14-.294.263-.45.369-.095.067-.199.134-.298.191-.103.061-.148.022-.227.035-.263-.081-.637-.136-1.059-.17-.417-.033-.855-.039-1.305-.143-.841-.173-1.587-.873-1.297-2.052-.007-.089.021-.237-.002-.285-.02-.053-.039-.098-.053-.15-.018-.149-.024-.295-.016-.437.016-.302.086-.514.228-.845.621-1.309,2.316-2.07,3.785-1.427Z"/>
      <path class="cls-33" d="m307.253,177.753c1.443.697,2.058,2.367,1.438,3.821-.633,1.444-2.328,2.165-3.796,1.536-1.46-.625-2.155-2.327-1.49-3.843.649-1.52,2.422-2.203,3.848-1.513Z"/>
      <path class="cls-33" d="m309.988,172.581c1.338.824,1.844,2.565,1.114,3.889-.691,1.364-2.414,1.944-3.849,1.283-1.457-.672-2.029-2.446-1.257-3.965.828-1.508,2.617-2.052,3.992-1.207Z"/>
      <path class="cls-33" d="m313.378,167.819c1.195,1.052,1.395,2.762.568,3.976-.862,1.185-2.566,1.608-3.957.787-1.352-.795-1.791-2.677-.756-4.111,1.001-1.458,2.949-1.704,4.146-.652Z"/>
      <path class="cls-33" d="m317.615,163.805c.469.644.645,1.422.594,2.125-.027.352-.113.687-.261.985-.146.301-.32.621-.58.865-1.035.936-2.751,1.056-3.99.039-1.223-1.002-1.34-2.971.016-4.22.329-.309.673-.565,1.073-.7.403-.133.814-.187,1.204-.161.782.05,1.475.425,1.944,1.068Z"/>
      <path class="cls-33" d="m322.759,161.06c.255.754.199,1.561-.04,2.232-.237.688-.686,1.169-1.287,1.496-.587.359-1.284.397-1.987.206-.696-.187-1.351-.536-1.83-1.188-.464-.631-.652-1.454-.446-2.196.206-.734.764-1.448,1.564-1.92.817-.443,1.766-.435,2.488-.192.736.256,1.283.807,1.538,1.561Z"/>
    </g>
    <g>
      <g>
        <g>
          <path class="cls-17" d="m132.469,239.213c.208,2.486-3.833,2.824-3.624,5.311s4.249,2.147,4.457,4.632-3.832,2.825-3.624,5.312,4.249,2.151,4.457,4.639-3.832,2.827-3.624,5.316"/>
          <path class="cls-17" d="m133.391,239.081c.383,2.466-3.624,3.088-3.241,5.554s4.389,1.843,4.772,4.308-3.624,3.089-3.241,5.556,4.39,1.847,4.773,4.315-3.624,3.09-3.241,5.559"/>
        </g>
        <g>
          <path class="cls-17" d="m135.928,239.276c.406,2.462-3.595,3.122-3.188,5.585s4.407,1.801,4.813,4.262-3.594,3.123-3.188,5.586,4.407,1.805,4.814,4.27-3.594,3.125-3.188,5.59"/>
          <path class="cls-17" d="m136.837,239.073c.578,2.428-3.366,3.367-2.788,5.795s4.523,1.488,5.101,3.916-3.366,3.37-2.787,5.799,4.524,1.492,5.103,3.924-3.365,3.371-2.786,5.803"/>
        </g>
      </g>
      <g>
        <g>
          <path class="cls-17" d="m144.052,239.213c.208,2.486-3.833,2.824-3.624,5.311s4.249,2.147,4.457,4.632-3.832,2.825-3.624,5.312,4.249,2.151,4.457,4.639-3.832,2.827-3.624,5.316"/>
          <path class="cls-17" d="m144.973,239.081c.383,2.466-3.624,3.088-3.241,5.554s4.389,1.843,4.772,4.308-3.624,3.089-3.241,5.556,4.39,1.847,4.773,4.315-3.624,3.09-3.241,5.559"/>
        </g>
        <g>
          <path class="cls-17" d="m147.511,239.276c.406,2.462-3.595,3.122-3.188,5.585s4.407,1.801,4.813,4.262-3.594,3.123-3.188,5.586,4.407,1.805,4.814,4.27-3.594,3.125-3.188,5.59"/>
          <path class="cls-17" d="m148.419,239.073c.578,2.428-3.366,3.367-2.788,5.795s4.523,1.488,5.101,3.916-3.366,3.37-2.787,5.799,4.524,1.492,5.103,3.924-3.365,3.371-2.786,5.803"/>
        </g>
      </g>
      <g>
        <polygon class="cls-13" points="129.685 231.05 129.685 236.859 134.715 239.764 139.746 236.859 139.746 231.05 134.715 228.146 129.685 231.05"/>
        <polygon class="cls-13" points="141.035 231.05 141.035 236.859 146.065 239.764 151.096 236.859 151.096 231.05 146.065 228.146 141.035 231.05"/>
      </g>
    </g>
    <g>
      <g>
        <g>
          <path class="cls-17" d="m212.476,239.213c.208,2.486-3.833,2.824-3.624,5.311s4.249,2.147,4.457,4.632-3.832,2.825-3.624,5.312,4.249,2.151,4.457,4.639-3.832,2.827-3.624,5.316"/>
          <path class="cls-17" d="m213.397,239.081c.383,2.466-3.624,3.088-3.241,5.554s4.389,1.843,4.772,4.308-3.624,3.089-3.241,5.556,4.39,1.847,4.773,4.315-3.624,3.09-3.241,5.559"/>
        </g>
        <g>
          <path class="cls-17" d="m215.935,239.276c.406,2.462-3.595,3.122-3.188,5.585s4.407,1.801,4.813,4.262-3.594,3.123-3.188,5.586,4.407,1.805,4.814,4.27-3.594,3.125-3.188,5.59"/>
          <path class="cls-17" d="m216.843,239.073c.578,2.428-3.366,3.367-2.788,5.795s4.523,1.488,5.101,3.916-3.366,3.37-2.787,5.799,4.524,1.492,5.103,3.924-3.365,3.371-2.786,5.803"/>
        </g>
      </g>
      <g>
        <g>
          <path class="cls-17" d="m224.058,239.213c.208,2.486-3.833,2.824-3.624,5.311s4.249,2.147,4.457,4.632-3.832,2.825-3.624,5.312,4.249,2.151,4.457,4.639-3.832,2.827-3.624,5.316"/>
          <path class="cls-17" d="m224.98,239.081c.383,2.466-3.624,3.088-3.241,5.554s4.389,1.843,4.772,4.308-3.624,3.089-3.241,5.556,4.39,1.847,4.773,4.315-3.624,3.09-3.241,5.559"/>
        </g>
        <g>
          <path class="cls-17" d="m227.517,239.276c.406,2.462-3.595,3.122-3.188,5.585s4.407,1.801,4.813,4.262-3.594,3.123-3.188,5.586,4.407,1.805,4.814,4.27-3.594,3.125-3.188,5.59"/>
          <path class="cls-17" d="m228.425,239.073c.578,2.428-3.366,3.367-2.788,5.795s4.523,1.488,5.101,3.916-3.366,3.37-2.787,5.799,4.524,1.492,5.103,3.924-3.365,3.371-2.786,5.803"/>
        </g>
      </g>
      <g>
        <polygon class="cls-13" points="209.691 231.05 209.691 236.859 214.722 239.764 219.752 236.859 219.752 231.05 214.722 228.146 209.691 231.05"/>
        <polygon class="cls-13" points="221.041 231.05 221.041 236.859 226.071 239.764 231.102 236.859 231.102 231.05 226.071 228.146 221.041 231.05"/>
      </g>
    </g>
    <g>
      <g>
        <g>
          <path class="cls-17" d="m258.619,239.213c.208,2.486-3.833,2.824-3.624,5.311s4.249,2.147,4.457,4.632-3.832,2.825-3.624,5.312,4.249,2.151,4.457,4.639-3.832,2.827-3.624,5.316"/>
          <path class="cls-17" d="m259.54,239.081c.383,2.466-3.624,3.088-3.241,5.554s4.389,1.843,4.772,4.308-3.624,3.089-3.241,5.556,4.39,1.847,4.773,4.315-3.624,3.09-3.241,5.559"/>
        </g>
        <g>
          <path class="cls-17" d="m262.078,239.276c.406,2.462-3.595,3.122-3.188,5.585s4.407,1.801,4.813,4.262-3.594,3.123-3.188,5.586,4.407,1.805,4.814,4.27-3.594,3.125-3.188,5.59"/>
          <path class="cls-17" d="m262.986,239.073c.578,2.428-3.366,3.367-2.788,5.795s4.523,1.488,5.101,3.916-3.366,3.37-2.787,5.799,4.524,1.492,5.103,3.924-3.365,3.371-2.786,5.803"/>
        </g>
      </g>
      <g>
        <g>
          <path class="cls-17" d="m270.201,239.213c.208,2.486-3.833,2.824-3.624,5.311s4.249,2.147,4.457,4.632-3.832,2.825-3.624,5.312,4.249,2.151,4.457,4.639-3.832,2.827-3.624,5.316"/>
          <path class="cls-17" d="m271.123,239.081c.383,2.466-3.624,3.088-3.241,5.554s4.389,1.843,4.772,4.308-3.624,3.089-3.241,5.556,4.39,1.847,4.773,4.315-3.624,3.09-3.241,5.559"/>
        </g>
        <g>
          <path class="cls-17" d="m273.66,239.276c.406,2.462-3.595,3.122-3.188,5.585s4.407,1.801,4.813,4.262-3.594,3.123-3.188,5.586,4.407,1.805,4.814,4.27-3.594,3.125-3.188,5.59"/>
          <path class="cls-17" d="m274.568,239.073c.578,2.428-3.366,3.367-2.788,5.795s4.523,1.488,5.101,3.916-3.366,3.37-2.787,5.799,4.524,1.492,5.103,3.924-3.365,3.371-2.786,5.803"/>
        </g>
      </g>
      <g>
        <polygon class="cls-13" points="255.834 231.05 255.834 236.859 260.865 239.764 265.895 236.859 265.895 231.05 260.865 228.146 255.834 231.05"/>
        <polygon class="cls-13" points="267.184 231.05 267.184 236.859 272.215 239.764 277.245 236.859 277.245 231.05 272.215 228.146 267.184 231.05"/>
      </g>
    </g>
    <g>
      <g>
        <g>
          <path class="cls-17" d="m315.553,239.213c.208,2.486-3.833,2.824-3.624,5.311s4.249,2.147,4.457,4.632-3.832,2.825-3.624,5.312,4.249,2.151,4.457,4.639-3.832,2.827-3.624,5.316"/>
          <path class="cls-17" d="m316.475,239.081c.383,2.466-3.624,3.088-3.241,5.554s4.389,1.843,4.772,4.308-3.624,3.089-3.241,5.556,4.39,1.847,4.773,4.315-3.624,3.09-3.241,5.559"/>
        </g>
        <g>
          <path class="cls-17" d="m319.013,239.276c.406,2.462-3.595,3.122-3.188,5.585s4.407,1.801,4.813,4.262-3.594,3.123-3.188,5.586,4.407,1.805,4.814,4.27-3.594,3.125-3.188,5.59"/>
          <path class="cls-17" d="m319.921,239.073c.578,2.428-3.366,3.367-2.788,5.795s4.523,1.488,5.101,3.916-3.366,3.37-2.787,5.799,4.524,1.492,5.103,3.924-3.365,3.371-2.786,5.803"/>
        </g>
      </g>
      <g>
        <g>
          <path class="cls-17" d="m327.136,239.213c.208,2.486-3.833,2.824-3.624,5.311s4.249,2.147,4.457,4.632-3.832,2.825-3.624,5.312,4.249,2.151,4.457,4.639-3.832,2.827-3.624,5.316"/>
          <path class="cls-17" d="m328.057,239.081c.383,2.466-3.624,3.088-3.241,5.554s4.389,1.843,4.772,4.308-3.624,3.089-3.241,5.556,4.39,1.847,4.773,4.315-3.624,3.09-3.241,5.559"/>
        </g>
        <g>
          <path class="cls-17" d="m330.595,239.276c.406,2.462-3.595,3.122-3.188,5.585s4.407,1.801,4.813,4.262-3.594,3.123-3.188,5.586,4.407,1.805,4.814,4.27-3.594,3.125-3.188,5.59"/>
          <path class="cls-17" d="m331.503,239.073c.578,2.428-3.366,3.367-2.788,5.795s4.523,1.488,5.101,3.916-3.366,3.37-2.787,5.799,4.524,1.492,5.103,3.924-3.365,3.371-2.786,5.803"/>
        </g>
      </g>
      <g>
        <polygon class="cls-13" points="312.769 231.05 312.769 236.859 317.8 239.764 322.83 236.859 322.83 231.05 317.8 228.146 312.769 231.05"/>
        <polygon class="cls-13" points="324.119 231.05 324.119 236.859 329.149 239.764 334.18 236.859 334.18 231.05 329.149 228.146 324.119 231.05"/>
      </g>
    </g>
    <g>
      <ellipse class="cls-21" cx="295.268" cy="263.673" rx="39.557" ry="6.85" transform="translate(-34.205 483.113) rotate(-75.43)"/>
      <ellipse class="cls-21" cx="295.268" cy="263.673" rx="6.85" ry="39.557" transform="translate(-56.836 82.761) rotate(-14.57)"/>
      <ellipse class="cls-21" cx="295.268" cy="263.673" rx="6.838" ry="39.631"/>
    </g>
    <g>
      <rect class="cls-14" x="155.304" y="274.929" width="9.802" height="26.421" rx="4.901" ry="4.901"/>
      <rect class="cls-14" x="165.596" y="274.929" width="9.802" height="26.421" rx="4.901" ry="4.901"/>
    </g>
    <g>
      <path class="cls-12" d="m102.556,312.945s42.143,40.312,92.379,26.239c50.237-14.074,51.911-20.037,88.193-6.44,36.282,13.596,32.375,12.642,82.053-18.367"/>
      <path class="cls-12" d="m96.416,321.055s42.98-33.395,100.752-1.908c12.894,7.027,27.511,14.379,42.961,16.148,6.23.713,13.384.387,18.325-3.348,4.2-3.174,6.371-7.789,10.614-10.963,4.853-3.63,10.71-6.368,16.735-8.282,25.121-7.98,53.289-1.396,76.587,7.876"/>
      <path class="cls-4" d="m98.09,347.369c13.834-5.112,29.024-9.937,42.929-12.165,5.52-.918,11.125-1.246,16.652-.744,3.371.284,6.698.802,10.106,1.302,15.053,2.424,33.946,2.297,52.507.879,10.574-.89,20.921-1.992,30.245-4.375,6.972-1.872,13.03-4.884,20.183-7.232,21.735-7.781,42.323-5.223,61.883,5.42,6.739,3.684,12.922,8.206,19.507,12.122,5.337,3.215,10.495,5.584,15.869,7.894"/>
      <path class="cls-23" d="m97.532,317.238c14.441-3.628,30.14-6.81,44.833-2.466,8.175,2.423,17.854,6.441,27.543,6.603,12.429.721,24.029-3.239,34.906-7.125,5.4-1.784,11.214-2.49,17.052-2.518,11.694-.025,25.122,1.44,35.632,4.055,4.528,1.142,8.649,2.549,13.205,3.672,9.451,2.429,20.395,2.927,30.329,2.421,10.123-.469,19.602-1.467,29.554,1.606,13.546,4.021,27.425,12.657,38.224,19.753"/>
    </g>
    <path class="cls-19" d="m239.59,337.818c-2.514,1.318-2.061,2.54-5.21,5.21-3.998,3.39-5.985,2.485-8.373,5.396-2.199,2.681-2.48,5.847-2.605,7.256-.301,3.387.605,6.168,2.233,11.164,1.097,3.367,1.823,4.622,1.675,7.07-.145,2.378-.919,2.659-1.116,5.024-.311,3.728,1.456,4.951,1.675,8.001.277,3.855-2.311,5.188-4.093,9.489-1.822,4.399-3.131,12.696,1.488,17.862,4.415,4.938,12.427,4.979,17.676,2.791,1.22-.509,4.668-2,6.884-5.582,2.265-3.661,1.981-7.463,1.488-13.024-.37-4.175-.909-4.718-2.233-11.722-1.457-7.709-2.186-11.564-1.861-14.513.632-5.726,2.702-5.531,4.652-14.327,1.348-6.085,1.082-9.448.744-11.536-.537-3.321-1.119-6.92-4.093-8.745-2.893-1.775-6.648-1.011-8.931.186Z"/>
    <path class="cls-18" d="m135.395,375.867c0-2.114-1.946-3.84-4.409-3.986.321-.632.501-1.329.501-2.061,0-2.425-1.955-4.456-4.598-5.038-.911-1.324-2.633-2.219-4.612-2.219-2.496,0-4.583,1.423-5.147,3.338-1.914.541-3.318,2.296-3.318,4.383,0,.99.319,1.904.855,2.651-2.094.48-3.646,2.191-3.646,4.233s1.54,3.739,3.622,4.228c-.173.482-.273.999-.273,1.54,0,2.518,2.041,4.558,4.558,4.558.187,0,.37-.015.551-.037-.71,1.022-.968,2.251-.589,3.405.704,2.148,3.334,3.215,5.872,2.382,1.585-.52,2.76-1.657,3.248-2.961.012,0,.023.002.035.002,3.442,0,6.233-2.541,6.233-5.675,0-2.021-1.163-3.79-2.91-4.795,2.279-.293,4.026-1.947,4.026-3.95Z"/>
    <text class="cls-26" transform="translate(63.097 268.975)"><tspan x="0" y="0">외막</tspan></text>
    <text class="cls-26" transform="translate(93.246 196.917)"><tspan x="0" y="0">내독소</tspan></text>
    <text class="cls-26" transform="translate(172.88 202.871)"><tspan x="0" y="0">내독소</tspan></text>
    <text class="cls-26" transform="translate(234.28 186.498)"><tspan x="0" y="0">내독소</tspan></text>
    <text class="cls-26" transform="translate(308.332 182.404)"><tspan x="0" y="0">내독소</tspan></text>
    <text class="cls-26" transform="translate(19.381 328.469)"><tspan x="0" y="0">펩티도글리칸</tspan></text>
    <text class="cls-26" transform="translate(60.9 387.472)"><tspan x="0" y="0">내막</tspan></text>
  </g>
  <polygon class="cls-20" points="450.465 57.269 450.465 48.639 442.991 44.325 435.518 48.639 435.518 57.269 442.991 61.584 450.465 57.269"/>
  <polygon class="cls-20" points="450.465 78.94 450.465 70.311 442.991 65.996 435.518 70.311 435.518 78.94 442.991 83.255 450.465 78.94"/>
  <polygon class="cls-20" points="450.465 100.611 450.465 91.982 442.991 87.667 435.518 91.982 435.518 100.611 442.991 104.926 450.465 100.611"/>
  <polygon class="cls-37" points="450.465 126.608 450.465 117.979 442.991 113.664 435.518 117.979 435.518 126.608 442.991 130.923 450.465 126.608"/>
  <polygon class="cls-37" points="450.465 148.279 450.465 139.65 442.991 135.335 435.518 139.65 435.518 148.279 442.991 152.594 450.465 148.279"/>
  <polygon class="cls-34" points="450.465 169.951 450.465 161.321 442.991 157.006 435.518 161.321 435.518 169.951 442.991 174.265 450.465 169.951"/>
  <polygon class="cls-7" points="450.465 191.622 450.465 182.992 442.991 178.677 435.518 182.992 435.518 191.622 442.991 195.937 450.465 191.622"/>
  <polygon class="cls-16" points="450.465 213.293 450.465 204.663 442.991 200.348 435.518 204.663 435.518 213.293 442.991 217.608 450.465 213.293"/>
  <polygon class="cls-24" points="450.465 234.964 450.465 226.334 442.991 222.019 435.518 226.334 435.518 234.964 442.991 239.279 450.465 234.964"/>
  <line class="cls-9" x1="442.991" y1="61.584" x2="442.991" y2="65.996"/>
  <line class="cls-9" x1="442.991" y1="83.255" x2="442.991" y2="87.667"/>
  <line class="cls-9" x1="442.991" y1="104.926" x2="442.991" y2="113.664"/>
  <line class="cls-9" x1="442.991" y1="130.923" x2="442.991" y2="135.335"/>
  <line class="cls-9" x1="442.991" y1="152.594" x2="442.991" y2="157.006"/>
  <line class="cls-9" x1="442.991" y1="174.265" x2="442.991" y2="178.677"/>
  <line class="cls-9" x1="442.991" y1="195.937" x2="442.991" y2="200.348"/>
  <line class="cls-9" x1="442.991" y1="217.608" x2="442.991" y2="222.019"/>
  <polygon class="cls-20" points="471.341 100.377 471.341 91.748 463.868 87.433 456.394 91.748 456.394 100.377 463.868 104.692 471.341 100.377"/>
  <polygon class="cls-22" points="471.341 126.491 471.341 117.861 463.868 113.546 456.394 117.861 456.394 126.491 463.868 130.806 471.341 126.491"/>
  <polygon class="cls-10" points="471.341 170.066 471.341 161.436 463.868 157.121 456.394 161.436 456.394 170.066 463.868 174.38 471.341 170.066"/>
  <polygon class="cls-16" points="471.341 191.853 471.341 183.223 463.868 178.908 456.394 183.223 456.394 191.853 463.868 196.168 471.341 191.853"/>
  <polygon class="cls-24" points="471.341 234.921 471.341 226.291 463.868 221.977 456.394 226.291 456.394 234.921 463.868 239.236 471.341 234.921"/>
  <polygon class="cls-24" points="492.115 234.921 492.115 226.291 484.642 221.977 477.168 226.291 477.168 234.921 484.642 239.236 492.115 234.921"/>
  <line class="cls-9" x1="456.394" y1="91.748" x2="450.465" y2="91.982"/>
  <line class="cls-9" x1="456.394" y1="117.861" x2="450.465" y2="117.979"/>
  <line class="cls-9" x1="456.394" y1="161.436" x2="450.465" y2="161.321"/>
  <line class="cls-9" x1="456.394" y1="183.223" x2="450.465" y2="182.992"/>
  <line class="cls-9" x1="456.394" y1="226.291" x2="450.465" y2="226.334"/>
  <line class="cls-9" x1="477.168" y1="226.291" x2="471.341" y2="226.291"/>
  <line class="cls-9" x1="442.658" y1="247.559" x2="442.991" y2="239.279"/>
  <g>
    <line class="cls-30" x1="435.891" y1="257.061" x2="432.587" y2="258.202"/>
    <line class="cls-30" x1="451.766" y1="262.6" x2="459.241" y2="255.564"/>
    <line class="cls-30" x1="439.537" y1="262.925" x2="435.959" y2="263.57"/>
    <line class="cls-30" x1="446.036" y1="263.341" x2="445.629" y2="260.89"/>
    <polyline class="cls-30" points="441.157 252.577 439.537 253.582 442.115 258.766"/>
    <polyline class="cls-30" points="435.891 257.061 442.115 258.766 446.691 257.057"/>
    <line class="cls-30" x1="451.766" y1="262.6" x2="449.029" y2="257.94"/>
    <line class="cls-30" x1="445.702" y1="260.89" x2="451.692" y2="262.6"/>
    <polyline class="cls-28" points="445.975 261.982 445.629 260.89 446.139 259.993 451.362 262.241 451.766 262.6 451.818 262.781 445.975 261.982"/>
    <line class="cls-30" x1="445.557" y1="260.89" x2="439.609" y2="262.925"/>
    <polyline class="cls-28" points="446.139 259.992 445.629 260.89 445.588 261.636 439.735 263.589 439.537 262.924 440.086 262.012 446.139 259.992"/>
    <line class="cls-30" x1="439.467" y1="262.847" x2="435.965" y2="257.137"/>
    <polyline class="cls-28" points="440.086 262.011 439.537 262.925 438.458 262.942 435.809 257.271 435.891 257.06 436.347 257.365 440.086 262.011"/>
    <line class="cls-30" x1="464.285" y1="265.185" x2="460.978" y2="259.429"/>
    <polyline class="cls-28" points="464.927 264.365 464.355 265.263 463.378 265.478 460.839 259.618 460.904 259.352 461.326 259.633 464.927 264.365"/>
    <line class="cls-30" x1="470.357" y1="263.416" x2="464.428" y2="265.264"/>
    <polyline class="cls-28" points="470.972 262.526 470.43 263.416 470.393 264.153 464.537 265.933 464.355 265.263 464.927 264.364 470.972 262.526"/>
    <line class="cls-30" x1="476.663" y1="265.05" x2="470.502" y2="263.416"/>
    <polyline class="cls-28" points="476.356 264.712 476.736 265.051 476.573 265.202 470.788 264.504 470.43 263.416 470.972 262.526 476.356 264.712"/>
    <line class="cls-30" x1="476.736" y1="265.05" x2="474.031" y2="260.224"/>
    <line class="cls-30" x1="471.717" y1="259.293" x2="467.169" y2="260.89"/>
    <polyline class="cls-30" points="460.904 259.351 467.169 260.89 464.355 255.731"/>
    <line class="cls-30" x1="461.932" y1="254.937" x2="464.355" y2="255.731"/>
    <line class="cls-30" x1="470.43" y1="263.416" x2="470.792" y2="265.466"/>
    <line class="cls-30" x1="464.355" y1="265.262" x2="462.36" y2="266.077"/>
    <line class="cls-30" x1="476.736" y1="265.049" x2="476.736" y2="267.815"/>
    <line class="cls-30" x1="460.904" y1="259.35" x2="459.639" y2="260.348"/>
    <text class="cls-32" transform="translate(440.372 251.413) scale(1 1.063)"><tspan x="0" y="0">O</tspan></text>
    <text class="cls-31" transform="translate(429.418 259.937) scale(1 1.063)"><tspan x="0" y="0">O</tspan></text>
    <text class="cls-32" transform="translate(458.76 254.941) scale(1 1.063)"><tspan x="0" y="0">O</tspan></text>
    <text class="cls-32" transform="translate(445.406 266.433) scale(1 1.063)"><tspan x="0" y="0">N</tspan></text>
    <text class="cls-32" transform="translate(448.197 266.413) scale(1 1.063)"><tspan x="0" y="0">H</tspan></text>
    <text class="cls-32" transform="translate(432.807 264.792) scale(1 1.063)"><tspan x="0" y="0">O</tspan></text>
    <text class="cls-32" transform="translate(447.244 256.992) scale(1 1.063)"><tspan x="0" y="0">O</tspan></text>
    <text class="cls-32" transform="translate(472.278 259.257) scale(1 1.063)"><tspan x="0" y="0">O</tspan></text>
    <text class="cls-32" transform="translate(470.229 268.653) scale(1 1.063)"><tspan class="cls-38" x="0" y="0">N</tspan><tspan x="2.641" y="0">H</tspan></text>
    <text class="cls-32" transform="translate(459.244 267.884) scale(1 1.063)"><tspan x="0" y="0">O</tspan></text>
    <text class="cls-31" transform="translate(475.065 271.388) scale(1 1.063)"><tspan x="0" y="0">O</tspan></text>
    <text class="cls-32" transform="translate(454.281 263.218) scale(1 1.063)"><tspan x="0" y="0">H</tspan></text>
    <text class="cls-32" transform="translate(456.74 263.279) scale(1 1.063)"><tspan x="0" y="0">O</tspan></text>
    <polyline class="cls-30" points="469.462 271.336 471.092 274.792 469.462 278.273 471.092 281.897 469.462 285.235"/>
    <polyline class="cls-30" points="469.462 285.234 471.092 288.669 469.462 292.009 471.092 295.444"/>
    <polyline class="cls-30" points="471.092 295.443 469.462 298.996 471.092 302.239 469.462 305.677"/>
    <line class="cls-30" x1="469.462" y1="305.676" x2="471.092" y2="309.437"/>
    <line class="cls-30" x1="471.092" y1="309.437" x2="469.462" y2="312.868"/>
    <line class="cls-30" x1="469.462" y1="312.869" x2="471.092" y2="316.189"/>
    <text class="cls-32" transform="translate(464.081 272.555) scale(1 1.063)"><tspan x="0" y="0">O</tspan></text>
    <line class="cls-30" x1="469.668" y1="271.769" x2="467.248" y2="271.769"/>
    <line class="cls-30" x1="469.629" y1="270.903" x2="467.247" y2="270.903"/>
    <text class="cls-32" transform="translate(461.64 279.431) scale(1 1.063)"><tspan x="0" y="0">H</tspan></text>
    <text class="cls-32" transform="translate(464.099 279.493) scale(1 1.063)"><tspan x="0" y="0">O</tspan></text>
    <line class="cls-30" x1="467.294" y1="278.273" x2="469.388" y2="278.273"/>
    <polyline class="cls-28" points="467.225 279.317 467.225 277.228 469.377 278.067 469.462 278.273 469.375 278.482 467.225 279.317"/>
    <line class="cls-30" x1="470.425" y1="268.884" x2="469.462" y2="271.336"/>
    <polyline class="cls-30" points="444.192 268.836 446.062 272.435 444.192 275.893"/>
    <line class="cls-30" x1="444.192" y1="275.892" x2="446.062" y2="279.302"/>
    <polyline class="cls-30" points="446.062 279.303 444.192 282.573 446.062 286.077"/>
    <line class="cls-30" x1="446.062" y1="286.077" x2="444.192" y2="289.534"/>
    <polyline class="cls-30" points="444.192 289.534 446.062 293.06 444.192 296.565"/>
    <line class="cls-30" x1="444.192" y1="296.565" x2="446.062" y2="299.882"/>
    <line class="cls-30" x1="446.062" y1="299.882" x2="444.192" y2="303.508"/>
    <polyline class="cls-30" points="444.192 303.507 446.062 306.728 444.192 310.208"/>
    <line class="cls-30" x1="444.192" y1="310.208" x2="446.062" y2="313.692"/>
    <text class="cls-32" transform="translate(438.793 270.054) scale(1 1.063)"><tspan x="0" y="0">O</tspan></text>
    <line class="cls-30" x1="444.415" y1="269.268" x2="441.958" y2="269.268"/>
    <line class="cls-30" x1="444.433" y1="268.403" x2="441.958" y2="268.403"/>
    <text class="cls-32" transform="translate(438.793 276.382) scale(1 1.063)"><tspan x="0" y="0">O</tspan></text>
    <line class="cls-30" x1="441.982" y1="275.892" x2="444.118" y2="275.892"/>
    <polyline class="cls-28" points="441.909 276.938 441.909 274.847 444.114 275.689 444.192 275.892 444.115 276.095 441.909 276.938"/>
    <line class="cls-30" x1="445.408" y1="266.668" x2="444.192" y2="268.836"/>
    <polyline class="cls-30" points="458.653 269.088 460.24 272.686 458.653 276.144"/>
    <line class="cls-30" x1="458.653" y1="276.143" x2="460.24" y2="279.554"/>
    <line class="cls-30" x1="460.24" y1="279.554" x2="458.653" y2="282.824"/>
    <polyline class="cls-30" points="458.653 282.823 460.24 286.491 458.653 289.972"/>
    <polyline class="cls-30" points="458.653 289.973 460.24 293.313 458.653 296.816 460.24 300.135 458.653 303.758 460.24 306.98"/>
    <polyline class="cls-30" points="460.24 306.981 458.653 310.458 460.24 313.938"/>
    <text class="cls-32" transform="translate(453.294 270.308) scale(1 1.063)"><tspan x="0" y="0">O</tspan></text>
    <line class="cls-30" x1="458.845" y1="269.521" x2="456.462" y2="269.521"/>
    <line class="cls-30" x1="459.052" y1="268.655" x2="456.462" y2="268.655"/>
    <text class="cls-32" transform="translate(450.852 277.304) scale(1 1.063)"><tspan x="0" y="0">H</tspan></text>
    <text class="cls-32" transform="translate(453.309 277.365) scale(1 1.063)"><tspan x="0" y="0">O</tspan></text>
    <line class="cls-30" x1="456.509" y1="276.144" x2="458.581" y2="276.144"/>
    <polyline class="cls-28" points="456.435 277.189 456.435 275.099 458.569 275.937 458.653 276.143 458.569 276.351 456.435 277.189"/>
    <line class="cls-30" x1="459.763" y1="267.886" x2="458.653" y2="269.088"/>
    <line class="cls-29" x1="480.683" y1="267.098" x2="480.683" y2="265.729"/>
    <line class="cls-29" x1="481.496" y1="267.098" x2="481.496" y2="265.729"/>
    <line class="cls-29" x1="482.391" y1="270.171" x2="484.01" y2="270.171"/>
    <line class="cls-29" x1="481.091" y1="271.066" x2="481.091" y2="272.745"/>
    <text class="cls-31" transform="translate(480.241 270.591) scale(1 1.063)"><tspan x="0" y="0">P</tspan></text>
    <text class="cls-31" transform="translate(480.147 264.56) scale(1 1.063)"><tspan x="0" y="0">O</tspan></text>
    <text class="cls-31" transform="translate(484.567 271.389) scale(1 1.063)"><tspan x="0" y="0">O</tspan></text>
    <text class="cls-31" transform="translate(487.166 271.332) scale(1 1.063)"><tspan x="0" y="0">H</tspan></text>
    <text class="cls-31" transform="translate(480.147 276.32) scale(1 1.063)"><tspan x="0" y="0">O</tspan></text>
    <text class="cls-31" transform="translate(482.745 276.257) scale(1 1.063)"><tspan x="0" y="0">H</tspan></text>
    <line class="cls-29" x1="478.234" y1="270.171" x2="479.731" y2="270.171"/>
    <line class="cls-29" x1="425.445" y1="256.423" x2="425.445" y2="254.447"/>
    <line class="cls-29" x1="426.258" y1="256.423" x2="426.258" y2="254.446"/>
    <line class="cls-29" x1="424.492" y1="258.766" x2="422.803" y2="258.766"/>
    <line class="cls-29" x1="425.85" y1="260.392" x2="425.85" y2="261.792"/>
    <text class="cls-31" transform="translate(425.007 259.914) scale(1 1.063)"><tspan x="0" y="0">P</tspan></text>
    <text class="cls-31" transform="translate(424.549 253.582) scale(1 1.063)"><tspan x="0" y="0">O</tspan></text>
    <text class="cls-31" transform="translate(417.222 259.927) scale(1 1.063)"><tspan x="0" y="0">H</tspan></text>
    <text class="cls-31" transform="translate(419.676 259.988) scale(1 1.063)"><tspan x="0" y="0">O</tspan></text>
    <text class="cls-31" transform="translate(424.182 265.478) scale(1 1.063)"><tspan x="0" y="0">O</tspan></text>
    <text class="cls-31" transform="translate(421.719 265.478) scale(1 1.063)"><tspan x="0" y="0">H</tspan></text>
    <line class="cls-29" x1="429.111" y1="258.718" x2="427.403" y2="258.766"/>
    <polyline class="cls-30" points="432.032 266.542 434.047 269.947 432.032 273.194"/>
    <line class="cls-30" x1="432.032" y1="273.195" x2="434.047" y2="276.677"/>
    <line class="cls-30" x1="434.047" y1="276.677" x2="432.032" y2="280.017"/>
    <line class="cls-30" x1="432.032" y1="280.016" x2="434.047" y2="283.521"/>
    <polyline class="cls-30" points="434.047 283.521 432.032 287.004 434.047 290.555 432.032 293.941"/>
    <polyline class="cls-30" points="432.032 293.94 434.047 297.351 432.032 300.809 434.047 304.218"/>
    <line class="cls-30" x1="434.047" y1="304.219" x2="432.032" y2="307.678"/>
    <line class="cls-30" x1="432.032" y1="307.677" x2="434.047" y2="311.087"/>
    <text class="cls-32" transform="translate(426.649 267.759) scale(1 1.063)"><tspan x="0" y="0">O</tspan></text>
    <line class="cls-30" x1="432.286" y1="266.974" x2="429.818" y2="266.974"/>
    <line class="cls-30" x1="432.388" y1="266.107" x2="429.818" y2="266.107"/>
    <text class="cls-32" transform="translate(426.649 274.419) scale(1 1.063)"><tspan x="0" y="0">O</tspan></text>
    <line class="cls-30" x1="429.89" y1="273.195" x2="431.961" y2="273.195"/>
    <polyline class="cls-28" points="429.818 274.24 429.818 272.15 431.962 272.993 432.032 273.195 431.959 273.398 429.818 274.24"/>
    <line class="cls-30" x1="433.422" y1="264.85" x2="432.032" y2="266.542"/>
    <polyline class="cls-30" points="426.114 276.584 427.958 279.948 426.114 283.453 427.958 286.91"/>
    <polyline class="cls-30" points="427.958 286.91 426.114 290.436 427.958 293.845 426.114 297.261"/>
    <line class="cls-30" x1="426.114" y1="297.262" x2="427.958" y2="300.832"/>
    <polyline class="cls-30" points="427.958 300.833 426.114 304.103 427.958 307.581"/>
    <line class="cls-30" x1="427.958" y1="307.581" x2="426.114" y2="311.065"/>
    <line class="cls-30" x1="426.114" y1="311.065" x2="427.958" y2="314.497"/>
    <polyline class="cls-30" points="427.958 314.497 426.114 317.934 427.958 321.412"/>
    <text class="cls-32" transform="translate(420.679 277.9) scale(1 1.063)"><tspan x="0" y="0">O</tspan></text>
    <line class="cls-30" x1="426.35" y1="277.017" x2="423.94" y2="277.017"/>
    <line class="cls-30" x1="426.395" y1="276.152" x2="423.94" y2="276.152"/>
    <line class="cls-30" x1="427.403" y1="274.606" x2="426.114" y2="276.585"/>
    <line class="cls-30" x1="438.379" y1="279.094" x2="440.225" y2="282.456"/>
    <polyline class="cls-30" points="440.225 282.457 438.379 285.961 440.225 289.414 438.379 292.944 440.225 296.356"/>
    <polyline class="cls-30" points="440.225 296.356 438.379 299.766 440.225 303.338"/>
    <polyline class="cls-30" points="440.225 303.338 438.379 306.611 440.225 310.091 438.379 313.571"/>
    <line class="cls-30" x1="438.379" y1="313.571" x2="440.225" y2="317.007"/>
    <text class="cls-32" transform="translate(433.042 280.31) scale(1 1.063)"><tspan x="0" y="0">O</tspan></text>
    <line class="cls-30" x1="438.619" y1="279.525" x2="436.206" y2="279.525"/>
    <line class="cls-30" x1="438.662" y1="278.66" x2="436.206" y2="278.66"/>
    <line class="cls-30" x1="439.579" y1="277.246" x2="438.379" y2="279.094"/>
  </g>
  <g>
    <polyline class="cls-35" points="503.575 181.817 510.27 181.817 510.27 235.961 503.134 235.961"/>
    <g>
      <polyline class="cls-15" points="505.75 181.817 510.27 181.817 510.27 235.961 505.31 235.961"/>
      <path class="cls-27" d="m503.575,181.817c1.024.38,2.294,1.028,3.081,1.714l-.62-1.714.62-1.714c-.787.686-2.058,1.335-3.081,1.714Z"/>
      <path class="cls-27" d="m503.134,235.961c1.024-.38,2.294-1.028,3.081-1.714l-.62,1.714.62,1.714c-.787-.686-2.058-1.335-3.081-1.714Z"/>
    </g>
  </g>
  <g>
    <polyline class="cls-35" points="503.575 245.613 510.27 245.613 510.27 321.41 503.134 321.41"/>
    <g>
      <polyline class="cls-11" points="506.149 245.613 510.27 245.613 510.27 321.41 505.709 321.41"/>
      <path class="cls-27" d="m503.575,245.613c1.211.449,2.714,1.216,3.646,2.029l-.734-2.029.734-2.028c-.932.812-2.434,1.579-3.646,2.028Z"/>
      <path class="cls-27" d="m503.134,321.41c1.211-.449,2.714-1.216,3.646-2.029l-.734,2.029.734,2.028c-.932-.812-2.434-1.579-3.646-2.028Z"/>
    </g>
  </g>
  <g>
    <polyline class="cls-35" points="503.575 116.82 510.27 116.82 510.27 170.964 503.134 170.964"/>
    <g>
      <polyline class="cls-15" points="505.75 116.82 510.27 116.82 510.27 170.964 505.31 170.964"/>
      <path class="cls-27" d="m503.575,116.82c1.024.38,2.294,1.028,3.081,1.714l-.62-1.714.62-1.714c-.787.686-2.058,1.335-3.081,1.714Z"/>
      <path class="cls-27" d="m503.134,170.964c1.024-.38,2.294-1.028,3.081-1.714l-.62,1.714.62,1.714c-.787-.686-2.058-1.335-3.081-1.714Z"/>
    </g>
  </g>
  <g>
    <polyline class="cls-35" points="503.575 47.497 510.27 47.497 510.27 101.641 503.134 101.641"/>
    <g>
      <polyline class="cls-15" points="505.75 47.497 510.27 47.497 510.27 101.641 505.31 101.641"/>
      <path class="cls-27" d="m503.575,47.497c1.024.38,2.294,1.028,3.081,1.714l-.62-1.714.62-1.714c-.787.686-2.058,1.335-3.081,1.714Z"/>
      <path class="cls-27" d="m503.134,101.641c1.024-.38,2.294-1.028,3.081-1.714l-.62,1.714.62,1.714c-.787-.686-2.058-1.335-3.081-1.714Z"/>
    </g>
  </g>
  <text class="cls-25" transform="translate(523.056 190.725) rotate(90)"><tspan x="0" y="0">내부 코어</tspan></text>
  <text class="cls-25" transform="translate(523.056 254.172) rotate(90)"><tspan x="0" y="0">리피드 A(Lipid A )</tspan></text>
  <text class="cls-25" transform="translate(522.632 130.173) rotate(90)"><tspan x="0" y="0">외부 코어</tspan></text>
  <text class="cls-25" transform="translate(522.632 61.679) rotate(90)"><tspan x="0" y="0">O 항원</tspan></text>
  <polyline class="cls-15" points="471.957 45.76 469.347 41.295 437.984 41.295 434.58 45.76"/>
  <polyline class="cls-8" points="471.957 102.451 469.347 107.277 437.984 107.277 434.58 102.451"/>
  <text class="cls-25" transform="translate(433.11 107.3) rotate(90)"><tspan x="0" y="0">n</tspan></text>
  <line class="cls-6" x1="252.8" y1="126.825" x2="410.394" y2="27.375"/>
</svg>