<?xml version="1.0" encoding="UTF-8"?>
<svg id="_레이어_1" data-name="레이어 1" xmlns="http://www.w3.org/2000/svg" viewBox="0 0 131.379 67.576">
  <defs>
    <style>
      .cls-1 {
        fill: #060606;
        stroke-width: 0px;
      }
    </style>
  </defs>
  <path class="cls-1" d="m65.262,36.828c.663.34,3.022,1.579,3.704,1.356.564-.184.88-1.166,1.099-1.668l.254-.561c.474.214,1.188.655,1.715.46.512-.19.829-.779,1.023-1.254.173-.425.317-.938.106-1.377-.061-.127-.18-.227-.306-.31.677.103,1.316-.034,1.956-.377.034-.018.068-.037.101-.057.749-.557,1.304-1.267,1.436-2.213.077-.558,0-1.075-.179-1.606-.807-2.392-.882-2.67.162-5.055.385-.88.849-1.745,1.619-2.35,1.019-.802,2.157-.483,3.156-1.079.308-.184.483-.435.671-.735.545-.869,2.655-5.238,2.765-6.015.023-.162.039-.378-.065-.512-.132-.17-.393-.305-.579-.406-.743-.407-7.087-3.55-7.531-3.598-.157-.017-.326.004-.482.018-.337.145-.611.262-.819.584-.583.904-1.007,1.982-1.485,2.947l-3.02,6.12-2.922,5.945c-.576,1.16-1.242,2.324-1.71,3.532-.15.387-.2.912-.015,1.295.13.269.36.488.604.664-.144-.021-.288-.019-.438-.011-.592.375-.985,1.182-1.142,1.848-.062.266-.098.548.041.797.053.095.135.184.204.266-.319.686-.714,1.395-.945,2.114.22.666.394.916,1.023,1.24Zm1.001-7.981c.344-.997.934-1.972,1.4-2.921.988-2.047,1.994-4.084,3.017-6.113l3.374-6.88c.444-.888.854-1.836,1.357-2.689.12-.203.336-.293.54-.389.224-.015.42-.001.632.078.558.209,1.103.517,1.64.78l3.371,1.664c.798.393,1.857.737,2.54,1.291.034.075.046.122.037.206-.087.757-2.329,5.377-2.838,6.117-.144.209-.29.342-.511.47-.992.574-1.967.146-3.08,1.041-1.111.893-2.214,2.992-2.48,4.408-.029.149-.05.299-.064.45-.014.151-.021.303-.02.454,0,.152.008.303.024.454.015.151.038.301.067.45.198,1.039.835,1.911.695,3.016-.103.808-.539,1.408-1.166,1.904-.702.402-1.381.62-2.187.395-.77-.215-1.493-.68-2.218-1.018-1.125-.526-2.377-.983-3.433-1.631-.256-.157-.532-.365-.675-.637-.141-.268-.12-.619-.024-.899Zm-.089,2.093c.018-.002.036-.005.054-.006.179-.015.35.021.517.082.826.303,5.534,2.479,6.069,2.954.056.115.092.217.084.347-.034.587-.508,1.376-.95,1.744-.034.004-.068.008-.103.009-.563.021-5.984-2.565-6.566-3.083-.037-.067-.055-.114-.051-.193.024-.526.57-1.498.946-1.854Zm-.643,2.767c1.487.575,2.989,1.378,4.411,2.103-.283.619-.497,1.433-.955,1.941l-.055.014c-.189.051-.331.078-.523.027-.739-.197-3.35-1.355-3.712-1.961-.096-.569.576-1.605.834-2.123Z"/>
  <path class="cls-1" d="m131.281,65.797c-.16-.08-4.042-.034-4.586-.037-4.144-.022-8.287-.023-12.432-.002-6.244.038-14.241.434-20.154-1.667-.812-.289-1.777-.646-2.46-1.18-.641-.502-.968-1.126-1.761-1.464-.772-.329-1.599-.532-2.396-.788-1.577-.505-3.193-1.289-4.396-2.448-1.146-1.105-1.691-2.395-1.728-3.969,5.071-3.166,9.64-8.257,11.344-14.067,1.937-6.603-.244-12.601-5.179-17.188-.933-.868-3.099-2.384-3.626-3.403-.989-1.912,1.056-3.955,1.61-5.678.113-.351.136-.731-.052-1.063-.239-.422-.794-.686-1.293-.86.058-.054.111-.114.159-.187.395-.591.681-1.334.993-1.978.519-1.075,1.064-2.138,1.557-3.226.213.014.44.036.65-.016.508-.125.857-.602,1.097-1.035.291-.526.655-1.248.45-1.864-.103-.31-.347-.515-.609-.69-.597-.4-1.333-.665-1.98-.98l-3.926-1.923c-.333-.116-.7-.125-1.018.042-.607.317-.985,1.12-1.182,1.741-.202.639-.136.982.175,1.571-.769,1.24-1.618,3.17-2.236,4.535-.164.363-.481,1.016-.309,1.412.13.298.392.542.654.727.775.547,3.266,1.699,4.207,2.073.415.165.639.16,1.025,0,.023.035.055.07.102.108.378.299,1.171.372,1.263.93.237,1.442-2.704,3.469-1.731,6.36.38,1.128,3.468,3.328,4.465,4.345,6.998,7.14,6.27,16.139.278,23.66-2.005,2.516-4.433,4.603-7.121,6.355.25-.591.516-1.213.265-1.854-.116-.296-.318-.513-.571-.698-.511-.373-1.154-.612-1.728-.874-1.181-.539-2.399-1.041-3.546-1.651,3.767-1.126,7.224-3.266,9.138-6.803,1.294-2.391,2.086-5.416,1.282-8.099-.359-1.198-1.092-2.279-2.21-2.882-1.861-1.004-3.906-.46-5.519-2.191-.446-.479-.797-1.062-.987-1.69-.34-1.126-.083-2.696.47-3.721.474-.877,1.245-1.544,2.206-1.829,1.086-.321,2.259-.151,3.245.39.871.478,1.588,1.242,1.856,2.214.014.05.027.1.038.151.011.051.022.102.031.153.009.051.017.103.023.154.006.052.011.103.015.155.004.052.006.104.008.156.001.052.001.104,0,.156-.001.052-.004.104-.008.156-.004.052-.009.104-.016.155-.006.052-.014.103-.023.154-.009.051-.019.102-.031.153-.012.051-.024.101-.038.151-.014.05-.029.1-.046.149-.017.049-.034.098-.053.147-.019.048-.039.096-.06.144-.021.047-.044.094-.067.141-.024.046-.048.092-.074.137-.403.693-1.062,1.161-1.786,1.474.682-.64,1.194-1.303,1.235-2.281.033-.797-.307-1.513-.848-2.083-.574-.605-1.361-.986-2.201-.995-.781-.008-1.621.268-2.185.822-.521.513-.769,1.24-.763,1.963,0,.049.002.098.005.148.003.049.007.098.012.147.005.049.012.098.019.146.008.049.016.097.027.145.01.048.021.096.034.144.012.048.026.095.041.142.015.047.031.093.048.14.017.046.035.092.055.137.019.045.04.09.062.134.022.044.044.088.068.131.024.043.049.085.075.127.026.042.053.083.081.123.028.04.057.08.087.119.03.039.061.077.093.115.032.037.065.074.099.11.034.036.068.071.104.105.81.776,1.817.977,2.903.939.992-.034,1.881-.355,2.57-1.09.668-.713.988-1.7.945-2.669-.045-.989-.476-1.874-1.209-2.537-.058-.052-.117-.102-.177-.15-.06-.049-.122-.096-.184-.142-.063-.046-.126-.09-.191-.133-.065-.043-.13-.084-.197-.123-.067-.039-.134-.077-.203-.113-.069-.036-.138-.071-.208-.103-.07-.033-.141-.064-.213-.093-.072-.029-.144-.057-.217-.083-.073-.026-.147-.05-.221-.072-.074-.022-.149-.043-.224-.061s-.151-.036-.227-.051c-.076-.015-.152-.028-.229-.039-.077-.011-.153-.021-.231-.028-.077-.008-.154-.013-.232-.017-.077-.004-.155-.006-.232-.006-.077,0-.155.002-.232.005-1.068.057-2.161.483-2.877,1.295-.932,1.057-1.388,2.506-1.282,3.909.092,1.212.63,2.39,1.569,3.176,2.032,1.702,5.003.841,6.638,3.167.556.791.831,1.739.921,2.694.282,3-.914,6.174-2.827,8.455-1.578,1.882-3.654,3.234-5.925,4.133-.67.266-1.37.452-2.036.717-4.948-2.152-9.881-4.336-14.8-6.553l-4.055-1.789c-.668-.299-1.35-.672-2.037-.914-.226-.08-.448-.125-.676-.026-.633.273-1.204,1.493-1.429,2.126-.118.334-.181.753-.013,1.08.096.187.274.313.453.415.458.26.984.415,1.466.627.934.411,1.857.875,2.787,1.3l9.87,4.487c1.324.598,2.791,1.115,4.039,1.854-.627,1.371-1.23,2.754-1.806,4.148-.312.763-1.436,3.963-1.833,4.451-.034.042-.018.028-.078.05-.057.021-.114.04-.172.057-1.036.301-4.414.135-5.694.154-2.695.039-5.444.138-8.096.639-1.878.355-3.791.93-5.519,1.753-1.473.701-2.893,1.538-4.433,2.088-1.762.629-3.677.92-5.543.985-3.565.124-7.13-.424-10.641-.976-6.843-1.075-14.35-2.472-21.245-1.231-1.953.352-3.924.906-5.612,1.983v.386c.917-.423,1.749-.922,2.716-1.245,2.791-.935,5.757-1.19,8.685-1.184,4,.008,7.959.474,11.904,1.1,4.656.738,9.425,1.709,14.16,1.533,2.511-.094,4.986-.543,7.266-1.634,1.173-.561,2.297-1.213,3.499-1.714,2.163-.902,4.372-1.458,6.694-1.757,1.825-.235,3.693-.292,5.532-.326,1.424-.026,5.565.159,6.651-.247.269-.1.399-.406.519-.647.386-.772.624-1.626.947-2.426.784-1.97,1.617-3.92,2.497-5.849.382-.099.788-.146,1.178-.212,1.032.407,2.04.95,3.038,1.437-.087-.003-.173-.003-.26-.003-.874.007-1.654.207-2.275.857-.031.032-.06.064-.089.097-.029.033-.057.067-.084.102-.027.035-.054.07-.079.106-.025.036-.05.073-.074.11-.024.037-.046.075-.068.113-.022.038-.043.077-.062.117-.02.039-.039.079-.056.12-.018.04-.035.081-.05.122-.016.041-.03.083-.044.125-.014.042-.026.084-.038.127-.012.043-.022.085-.031.129-.009.043-.018.086-.025.13-.007.043-.013.087-.018.131-.005.044-.009.088-.012.132-.003.044-.004.088-.005.132,0,.044,0,.088.002.132.001.044.004.089.007.133.004.044.008.088.014.132.006.044.013.088.021.131.008.044.017.087.027.13.01.043.021.086.033.129.012.043.025.085.04.127.014.042.03.084.046.125.016.041.034.082.052.122.018.04.038.08.058.12.02.039.042.078.064.117.022.038.045.076.069.114.024.037.049.074.075.11.026.036.052.071.08.106.028.035.056.069.085.102.029.033.059.066.09.098.031.032.062.063.095.093.525.484,1.238.696,1.943.654.702-.042,1.36-.335,1.824-.87.465-.536.723-1.312.665-2.019-.073-.899-.559-1.472-1.225-2.026l1.314.584c.017.037.035.073.053.109.355.704,1.274.935,1.974,1.163,0,.059,0,.119.002.179.002.059.004.119.007.178.003.059.007.119.012.178.005.059.01.119.017.178.006.059.014.118.022.177.008.059.017.118.026.177.01.059.02.117.031.176.011.059.023.117.036.175.013.058.026.116.04.174.014.058.029.115.045.173.016.057.032.115.05.171.017.057.035.114.054.17.019.056.038.113.059.169.02.056.041.112.063.167.022.055.044.11.068.165.023.055.047.109.072.163.025.054.05.108.076.161.026.053.053.106.081.159.028.053.056.105.085.157.029.052.059.103.089.155.03.051.062.102.093.152.032.05.064.1.097.15.033.049.067.098.101.147.034.049.07.097.105.144.036.048.072.095.109.141.037.047.075.093.113.138.038.046.077.091.117.135.039.045.079.089.12.132.041.043.082.086.124.129.042.042.084.084.127.125.043.041.086.082.13.122.044.04.088.08.133.118.424.369,1.073.796,1.339,1.285l-.066.091c-1.081.337-4.384.098-5.689.076-2.572-.054-5.145-.094-7.718-.118.04-.802.382-3.415,0-3.979-.154-.061-.201-.047-.361-.026-.579.352-.796,2.565-.978,3.246-.075.279-.234.507-.513.605-.678.237-2.24.165-3.04.195-4.477.164-10.992-.168-14.921,2.079-.82.469-1.598.991-1.851,1.964-.119.457-.087.989.167,1.396.226.362.603.604,1.017.693.942.203,2.089.079,3.061.078l5.607-.004,22.435.037,6.089.024c.802.002,2.567.159,3.26-.078.117-.039.228-.093.332-.16.372-.242.577-.617.667-1.043.168-.799.155-2.229-.308-2.917-.238-.354-.523-.54-.939-.637-1.241-.288-3.851-.17-5.222-.193l-10.061-.187c-.858-.015-2.911.039-3.617-.1-.297-.059-.509-.168-.683-.421.06-.305,1.037-.183,1.291-.172,2.245.098,4.508.088,6.755.132,1.453.028,3.02.169,4.466.039.341-.031.851-.106,1.121-.335.128-.108.128-.196.143-.348-.18-.571-1.174-1.175-1.609-1.603-1.339-1.317-2.036-2.768-2.053-4.653.448-.167.773-.341,1.126-.669.01,1.281.341,2.395,1.1,3.437,1.287,1.766,3.494,2.858,5.521,3.521.723.237,1.504.374,2.191.702.754.36,1.119,1.085,1.788,1.534,1.764,1.184,4.827,1.862,6.9,2.198.884.143,1.772.257,2.664.343.892.086,1.786.144,2.681.174,5.234.184,10.497.065,15.733.061l7.713.011c1.247,0,2.511.038,3.757-.011.164-.006.213-.004.347-.101l.009-.157c-.033-.031-.058-.074-.098-.094ZM81.224.981c.207-.359.48-.486.86-.593.697.107,4.898,2.236,5.797,2.729.324.178.767.437.859.821.102.429-.422,1.347-.642,1.721-.211.361-.469.492-.859.596-.102-.021-.193-.06-.288-.104-.82-.376-6.225-2.929-6.35-3.353-.14-.475.384-1.404.623-1.818Zm2.612,10.752c-.061.033-.121.068-.184.097-.317.147-.638.019-.943-.1-.555-.215-1.06-.546-1.594-.808-.738-.363-1.575-.643-2.258-1.1-.197-.132-.377-.286-.464-.514-.066-.174-.066-.332-.015-.511.163-.572.521-1.159.782-1.697.569-1.159,1.128-2.323,1.678-3.492.749.282,1.457.698,2.174,1.053,1.182.584,2.365,1.134,3.514,1.785-.544,1.102-2.025,4.628-2.69,5.287Zm-2.25,16.474c-.71.008-1.361-.151-1.94-.579-.559-.413-.955-1.026-1.053-1.718-.09-.629.058-1.291.443-1.801.482-.637,1.168-.88,1.931-.988.068.002.135.006.203.012.067.006.134.015.201.025.067.011.133.024.199.039.066.015.131.033.196.052.065.02.129.041.192.065.063.024.126.05.187.078.062.028.122.058.182.091.06.032.118.066.175.103.614.391,1.089,1.013,1.235,1.732.126.624.014,1.288-.343,1.818-.431.639-1.076.921-1.808,1.07Zm-11.629,34.233c1.004.397,3.308.243,4.439.261l8.522.166c1.304.004,2.608.026,3.911.065.635.018,1.292.003,1.922.085.348.046.799.143,1.07.381.304.268.392.764.411,1.15.03.605.09,1.822-.351,2.276-.201.206-.436.271-.712.297-.768.072-1.566.029-2.338.026l-4.149-.015-13.269-.039c-2.229-.002-19.791.114-20.385-.118-.307-.12-.545-.372-.677-.671-.163-.368-.156-.76.003-1.125.225-.515.726-.918,1.176-1.229,3.543-2.443,10.937-2.164,15.179-2.306.867-.029,2.468.053,3.21-.248,1.096-.444.975-2.88,1.411-3.873.23.37-.212,3.117-.131,3.846.056.496.275.88.756,1.071Zm6.167-8.92c.027.023.054.046.08.07.026.024.051.048.076.074.025.025.049.051.073.077.023.026.046.053.069.081.022.028.044.056.064.084.021.029.041.058.06.087.019.03.038.06.056.09s.035.062.051.093c.016.031.032.063.046.095.015.032.029.065.042.097.013.033.025.066.037.1.013.037.025.073.036.111.011.037.021.074.031.112.009.038.018.075.025.114.007.038.014.076.019.115.005.038.01.077.013.115.004.039.006.077.008.116.002.039.002.077.002.116,0,.039-.002.078-.004.116-.002.039-.005.077-.01.116-.004.039-.009.077-.015.115-.006.038-.013.076-.021.114-.008.038-.017.076-.027.113-.01.037-.021.075-.032.112-.012.037-.024.074-.038.11-.014.036-.028.072-.043.108-.015.036-.031.071-.048.106-.333.669-.871.984-1.556,1.211-.522.057-.98.026-1.459-.208-.033-.017-.067-.034-.099-.052-.033-.018-.065-.037-.096-.057-.032-.02-.063-.04-.093-.062-.031-.021-.061-.043-.09-.066-.03-.023-.058-.046-.087-.071-.028-.024-.056-.049-.083-.075-.027-.026-.054-.052-.079-.079-.026-.027-.051-.055-.075-.083-.024-.028-.048-.057-.071-.086-.023-.029-.045-.059-.067-.09-.021-.03-.042-.062-.062-.093-.02-.032-.039-.064-.058-.096-.018-.032-.036-.065-.053-.099-.017-.033-.033-.067-.048-.101-.015-.034-.029-.069-.043-.103-.013-.035-.026-.07-.037-.106-.012-.035-.023-.07-.033-.105s-.02-.071-.028-.106c-.008-.036-.016-.072-.023-.108-.007-.036-.012-.072-.017-.109-.005-.036-.009-.073-.012-.109s-.005-.073-.006-.11c-.001-.037-.001-.073,0-.11s.002-.073.005-.11c.002-.037.006-.073.01-.11.004-.036.009-.073.015-.109.006-.036.013-.072.021-.108.008-.036.017-.071.026-.107.01-.035.02-.071.032-.105.011-.035.024-.069.037-.104.013-.034.027-.068.042-.102.015-.034.03-.067.047-.1.345-.678.91-.988,1.607-1.218.506-.038.974-.019,1.44.202.032.015.064.031.095.048.031.017.062.034.092.052.03.018.06.037.089.057.029.02.058.04.086.061.028.021.056.043.083.066Zm4.532.416c-.315.369-.717.475-1.182.518-.39-.093-.798-.263-1.16-.436-.305-.146-.416-.226-.54-.551-.132-.344-5.017-2.526-5.547-2.748-.402.068-.802.185-1.198.283-1.427-.717-2.907-1.331-4.358-1.996l-9.638-4.39c-1.084-.495-3.832-1.587-4.627-2.194-.048-.115-.074-.216-.064-.342.049-.619.76-1.947,1.216-2.357.221-.007.394.031.598.109.777.296,1.539.683,2.301,1.018l4.978,2.205c4.524,2.039,9.061,4.047,13.613,6.024.017.164.034.329.059.492.023.149.046.276.157.386.271.267.727.414,1.071.571.743.339,1.489.673,2.237,1.001.587.251,1.361.467,1.87.849.252.189.48.442.515.769.031.295-.112.573-.299.791Zm-.038-1.914c-.426-.268-.967-.449-1.43-.649-.851-.368-1.7-.741-2.546-1.12-.331-.149-.82-.321-1.078-.572-.128-.125-.101-.227-.092-.387,1.081.469,2.15.97,3.222,1.46.651.298,1.404.572,1.992.976.262.18.31.416.372.707-.132-.151-.268-.307-.44-.415Z"/>
</svg>