<?xml version="1.0" encoding="utf-8"?>
<!-- Generator: Adobe Illustrator 28.0.0, SVG Export Plug-In . SVG Version: 6.00 Build 0)  -->
<svg version="1.1" id="레이어_1" xmlns="http://www.w3.org/2000/svg" xmlns:xlink="http://www.w3.org/1999/xlink" x="0px"
	 y="0px" viewBox="0 0 356.1 306.9" style="enable-background:new 0 0 356.1 306.9;" xml:space="preserve">
<style type="text/css">
	.st0{fill:#FFFFFF;}
	.st1{fill-rule:evenodd;clip-rule:evenodd;fill:#F2F2F3;}
	.st2{fill:none;stroke:#000000;stroke-width:0.5545;stroke-linejoin:round;stroke-miterlimit:10;}
	.st3{fill-rule:evenodd;clip-rule:evenodd;}
	.st4{fill-rule:evenodd;clip-rule:evenodd;fill:#8165A2;}
	.st5{fill:none;stroke:#868686;stroke-width:0.5545;stroke-linejoin:round;stroke-miterlimit:10;}
	.st6{font-family:'Calibri';}
	.st7{font-size:7px;}
	.st8{font-family:'AppleSDGothicNeoEB00';}
	.st9{font-size:12px;}
	.st10{font-size:8px;}
	.st11{font-size:4.664px;}
	.st12{font-family:'AppleSDGothicNeoR00';}
	.st13{fill:none;stroke:#000000;stroke-miterlimit:10;}
	.st14{fill:#8165A2;}
</style>
<rect class="st0" width="356.1" height="306.9"/>
<g>
	<polygon class="st1" points="248.2,143.9 261.8,143.9 261.8,144.2 248.2,144.2 	"/>
	<polygon class="st2" points="248.2,143.9 261.8,143.9 261.8,144.2 248.2,144.2 	"/>
</g>
<g>
	<polygon class="st3" points="282.1,55.8 295.7,55.8 295.7,144.2 282.1,144.2 	"/>
	<polygon class="st2" points="282.1,55.8 295.7,55.8 295.7,144.2 282.1,144.2 	"/>
</g>
<g>
	<polygon class="st4" points="316.1,102.1 329.6,102.1 329.6,144.2 316.1,144.2 	"/>
	<polygon class="st2" points="316.1,102.1 329.6,102.1 329.6,144.2 316.1,144.2 	"/>
</g>
<g>
	<line class="st2" x1="253.6" y1="143.9" x2="256.3" y2="143.9"/>
</g>
<g>
	<path d="M288.9,55.8v-7.7 M287.6,48.1h2.6"/>
	<path class="st2" d="M288.9,55.8v-7.7 M287.6,48.1h2.6"/>
</g>
<g>
	<path d="M322.8,102.1v-3.7 M321.5,98.4h2.7"/>
	<path class="st2" d="M322.8,102.1v-3.7 M321.5,98.4h2.7"/>
</g>
<g>
	<path class="st5" d="M236.9,144.2h1.1"/>
</g>
<g>
	<line class="st5" x1="238.1" y1="144.2" x2="339.8" y2="144.2"/>
</g>
<g>
	<path class="st5" d="M238.1,144.2v2.6 M271.9,144.2v2.6 M305.9,144.2v2.6 M339.8,144.2v2.6"/>
</g>
<g>
	<g>
		<text transform="matrix(1 0 0 1 252.7172 137.7641)" class="st6 st7">0</text>
		<text transform="matrix(1 0 0 1 256.2232 137.7641)" class="st6 st7">.</text>
		<text transform="matrix(1 0 0 1 258.0392 137.7641)" class="st6 st7">3</text>
	</g>
</g>
<g>
	<g>
		<text transform="matrix(1 0 0 1 285.7719 49.7016)" class="st6 st7">60</text>
		<text transform="matrix(1 0 0 1 292.7839 49.7016)" class="st6 st7">.</text>
		<text transform="matrix(1 0 0 1 294.5999 49.7016)" class="st6 st7">2</text>
	</g>
</g>
<g>
	<g>
		<text transform="matrix(1 0 0 1 319.6801 96.0141)" class="st6 st7">28</text>
		<text transform="matrix(1 0 0 1 326.6921 96.0141)" class="st6 st7">.</text>
		<text transform="matrix(1 0 0 1 328.5081 96.0141)" class="st6 st7">7</text>
	</g>
</g>
<g>
	<polygon class="st1" points="21.2,123.7 34.8,123.7 34.8,144.2 21.2,144.2 	"/>
	<polygon class="st2" points="21.2,123.7 34.8,123.7 34.8,144.2 21.2,144.2 	"/>
</g>
<g>
	<polygon class="st3" points="55.1,61.9 68.7,61.9 68.7,144.2 55.1,144.2 	"/>
	<polygon class="st2" points="55.1,61.9 68.7,61.9 68.7,144.2 55.1,144.2 	"/>
</g>
<g>
	<polygon class="st4" points="89,92.8 102.6,92.8 102.6,144.2 89,144.2 	"/>
	<polygon class="st2" points="89,92.8 102.6,92.8 102.6,144.2 89,144.2 	"/>
</g>
<g>
	<path d="M28,123.7v-5.2 M26.7,118.5h2.6"/>
	<path class="st2" d="M28,123.7v-5.2 M26.7,118.5h2.6"/>
</g>
<g>
	<path d="M61.9,61.9V51.7 M60.5,51.7h2.7"/>
	<path class="st2" d="M61.9,61.9V51.7 M60.5,51.7h2.7"/>
</g>
<g>
	<path d="M95.8,92.8v-5.2 M94.5,87.7h2.6"/>
	<path class="st2" d="M95.8,92.8v-5.2 M94.5,87.7h2.6"/>
</g>
<g>
	<path class="st5" d="M9.5,144.2H11"/>
</g>
<g>
	<line class="st5" x1="11" y1="144.2" x2="112.8" y2="144.2"/>
</g>
<g>
	<path class="st5" d="M11,144.2v2.6 M45,144.2v2.6 M78.8,144.2v2.6 M112.8,144.2v2.6"/>
</g>
<g>
	<g>
		<text transform="matrix(1 0 0 1 24.9316 116.9829)" class="st6 st7">0</text>
		<text transform="matrix(1 0 0 1 28.4796 116.9829)" class="st6 st7">.</text>
		<text transform="matrix(1 0 0 1 30.2536 116.9829)" class="st6 st7">4</text>
	</g>
</g>
<g>
	<g>
		<text transform="matrix(1 0 0 1 55.6399 48.0903)" class="st6 st7">1</text>
		<text transform="matrix(1 0 0 1 59.1879 48.0903)" class="st6 st7">.</text>
		<text transform="matrix(1 0 0 1 60.9619 48.0903)" class="st6 st7">6</text>
	</g>
</g>
<g>
	<g>
		<text transform="matrix(1 0 0 1 94.5956 86.1079)" class="st6 st7">1</text>
	</g>
</g>
<g>
	<g>
		<text transform="matrix(1 0 0 1 40.1342 26.2875)" class="st8 st9">전체 세포</text>
		<text transform="matrix(1 0 0 1 52.0713 35.8876)" class="st8 st10">(x10</text>
		<text transform="matrix(1 0 0 1 67.3193 33.2238)" class="st8 st11">6</text>
		<text transform="matrix(1 0 0 1 70.0566 35.8876)" class="st8 st10">)</text>
	</g>
</g>
<g>
	<g>
		<text transform="matrix(1 0 0 1 160.5048 26.2875)" class="st8 st9">림프구</text>
		<text transform="matrix(1 0 0 1 165.6391 35.8876)" class="st8 st10">(x10</text>
		<text transform="matrix(1 0 0 1 180.8867 33.2238)" class="st8 st11">4</text>
		<text transform="matrix(1 0 0 1 183.6948 35.8876)" class="st8 st10">)</text>
	</g>
</g>
<g>
	<g>
		<text transform="matrix(1 0 0 1 277.2747 26.2875)" class="st8 st9">호산구</text>
		<text transform="matrix(1 0 0 1 282.4089 35.8876)" class="st8 st10">(x10</text>
		<text transform="matrix(1 0 0 1 297.6562 33.2238)" class="st8 st11">4</text>
		<text transform="matrix(1 0 0 1 300.4646 35.8876)" class="st8 st10">)</text>
	</g>
</g>
<g>
	<g>
		<text transform="matrix(1 0 0 1 45.9672 178.9585)" class="st8 st9">호중구</text>
		<text transform="matrix(1 0 0 1 51.1015 188.5586)" class="st8 st10">(x10</text>
		<text transform="matrix(1 0 0 1 66.3491 185.8947)" class="st8 st11">4</text>
		<text transform="matrix(1 0 0 1 69.1572 188.5586)" class="st8 st10">)</text>
	</g>
</g>
<g>
	<polygon class="st1" points="134.1,136.8 147.6,136.8 147.6,144.2 134.1,144.2 	"/>
	<polygon class="st2" points="134.1,136.8 147.6,136.8 147.6,144.2 134.1,144.2 	"/>
</g>
<g>
	<polygon class="st3" points="168,63.3 181.6,63.3 181.6,144.2 168,144.2 	"/>
	<polygon class="st2" points="168,63.3 181.6,63.3 181.6,144.2 168,144.2 	"/>
</g>
<g>
	<polygon class="st4" points="201.9,107.2 215.4,107.2 215.4,144.2 201.9,144.2 	"/>
	<polygon class="st2" points="201.9,107.2 215.4,107.2 215.4,144.2 201.9,144.2 	"/>
</g>
<g>
	<path d="M140.8,136.8v-0.7 M139.5,136.1h2.7"/>
	<path class="st2" d="M140.8,136.8v-0.7 M139.5,136.1h2.7"/>
</g>
<g>
	<path d="M174.8,63.3v-4.1 M173.4,59.2h2.6"/>
	<path class="st2" d="M174.8,63.3v-4.1 M173.4,59.2h2.6"/>
</g>
<g>
	<path d="M208.7,107.2v-2 M207.3,105.2h2.7"/>
	<path class="st2" d="M208.7,107.2v-2 M207.3,105.2h2.7"/>
</g>
<g>
	<path class="st5" d="M122.8,144.2h1.1"/>
</g>
<g>
	<line class="st5" x1="123.9" y1="144.2" x2="225.6" y2="144.2"/>
</g>
<g>
	<path class="st5" d="M123.9,144.2v2.6 M157.8,144.2v2.6 M191.7,144.2v2.6 M225.6,144.2v2.6"/>
</g>
<g>
	<g>
		<text transform="matrix(1 0 0 1 138.5815 130.6547)" class="st6 st7">1</text>
		<text transform="matrix(1 0 0 1 142.0875 130.6547)" class="st6 st7">.</text>
		<text transform="matrix(1 0 0 1 143.9035 130.6547)" class="st6 st7">1</text>
	</g>
</g>
<g>
	<g>
		<text transform="matrix(1 0 0 1 171.6371 57.2485)" class="st6 st7">11</text>
		<text transform="matrix(1 0 0 1 178.6491 57.2485)" class="st6 st7">.</text>
		<text transform="matrix(1 0 0 1 180.4651 57.2485)" class="st6 st7">8</text>
	</g>
</g>
<g>
	<g>
		<text transform="matrix(1 0 0 1 206.3969 101.1547)" class="st6 st7">5</text>
		<text transform="matrix(1 0 0 1 209.9029 101.1547)" class="st6 st7">.</text>
		<text transform="matrix(1 0 0 1 211.7189 101.1547)" class="st6 st7">4</text>
	</g>
</g>
<g>
	<polygon class="st1" points="20.8,289.9 34.3,289.9 34.3,294.1 20.8,294.1 	"/>
	<polygon class="st2" points="20.8,289.9 34.3,289.9 34.3,294.1 20.8,294.1 	"/>
</g>
<g>
	<polygon class="st3" points="54.7,209.7 68.3,209.7 68.3,294.1 54.7,294.1 	"/>
	<polygon class="st2" points="54.7,209.7 68.3,209.7 68.3,294.1 54.7,294.1 	"/>
</g>
<g>
	<polygon class="st4" points="88.7,242.6 102.2,242.6 102.2,294.1 88.7,294.1 	"/>
	<polygon class="st2" points="88.7,242.6 102.2,242.6 102.2,294.1 88.7,294.1 	"/>
</g>
<g>
	<line class="st2" x1="26.2" y1="289.9" x2="28.9" y2="289.9"/>
</g>
<g>
	<path d="M61.5,209.7v-5.2 M60.2,204.6h2.6"/>
	<path class="st2" d="M61.5,209.7v-5.2 M60.2,204.6h2.6"/>
</g>
<g>
	<path d="M95.4,242.6v-3.1 M94.1,239.5h2.7"/>
	<path class="st2" d="M95.4,242.6v-3.1 M94.1,239.5h2.7"/>
</g>
<g>
	<path class="st5" d="M9.5,294.1h1.1"/>
</g>
<g>
	<line class="st5" x1="10.6" y1="294.1" x2="112.4" y2="294.1"/>
</g>
<g>
	<path class="st5" d="M10.6,294.1v2.5 M44.5,294.1v2.5 M78.5,294.1v2.5 M112.4,294.1v2.5"/>
</g>
<g>
	<g>
		<text transform="matrix(1 0 0 1 24.2411 285.8665)" class="st12 st7">0</text>
		<text transform="matrix(1 0 0 1 28.6091 285.8665)" class="st12 st7">.</text>
		<text transform="matrix(1 0 0 1 30.2401 285.8665)" class="st12 st7">4</text>
	</g>
</g>
<g>
	<g>
		<text transform="matrix(1 0 0 1 57.0654 200.989)" class="st12 st7">8</text>
		<text transform="matrix(1 0 0 1 61.0484 200.989)" class="st12 st7">.</text>
		<text transform="matrix(1 0 0 1 62.6794 200.989)" class="st12 st7">2</text>
	</g>
</g>
<g>
	<g>
		<text transform="matrix(1 0 0 1 94.4936 236.5381)" class="st12 st7">5</text>
	</g>
</g>
<g>
	<g>
		<text transform="matrix(1 0 0 1 174.2931 177.9984)" class="st8 st9">대식세포</text>
		<text transform="matrix(1 0 0 1 184.6173 187.5985)" class="st8 st10">(x10</text>
		<text transform="matrix(1 0 0 1 199.8652 184.9343)" class="st8 st11">4</text>
		<text transform="matrix(1 0 0 1 202.673 187.5985)" class="st8 st10">)</text>
	</g>
	<g>
		<polygon class="st1" points="136.3,276.7 149.8,276.7 149.8,293.1 136.3,293.1 		"/>
		<polygon class="st2" points="136.3,276.7 149.8,276.7 149.8,293.1 136.3,293.1 		"/>
	</g>
	<g>
		<polygon class="st3" points="170.1,202.3 183.7,202.3 183.7,293.1 170.1,293.1 		"/>
		<polygon class="st2" points="170.1,202.3 183.7,202.3 183.7,293.1 170.1,293.1 		"/>
	</g>
	<g>
		<polygon class="st4" points="204.1,206.2 217.6,206.2 217.6,293.1 204.1,293.1 		"/>
		<polygon class="st2" points="204.1,206.2 217.6,206.2 217.6,293.1 204.1,293.1 		"/>
	</g>
	<g>
		<path d="M143,276.7v-1.6 M141.7,275.1h2.7"/>
		<path class="st2" d="M143,276.7v-1.6 M141.7,275.1h2.7"/>
	</g>
	<g>
		<path d="M176.9,202.3v-7.2 M175.6,195.1h2.6"/>
		<path class="st2" d="M176.9,202.3v-7.2 M175.6,195.1h2.6"/>
	</g>
	<g>
		<path d="M210.8,206.2v-8.2 M209.5,198.1h2.7"/>
		<path class="st2" d="M210.8,206.2v-8.2 M209.5,198.1h2.7"/>
	</g>
	<g>
		<path class="st5" d="M124.9,293.1h1.1"/>
	</g>
	<g>
		<line class="st5" x1="126.1" y1="293.1" x2="227.8" y2="293.1"/>
	</g>
	<g>
		<path class="st5" d="M126.1,293.1v2.5 M160,293.1v2.5 M193.9,293.1v2.5 M227.8,293.1v2.5"/>
	</g>
	<g>
		<g>
			<text transform="matrix(1 0 0 1 137.405 270.5702)" class="st12 st7">11</text>
			<text transform="matrix(1 0 0 1 142.319 270.5702)" class="st12 st7">.</text>
			<text transform="matrix(1 0 0 1 143.95 270.5702)" class="st12 st7">2</text>
		</g>
	</g>
	<g>
		<g>
			<text transform="matrix(1 0 0 1 171.3532 193.3973)" class="st12 st7">61</text>
			<text transform="matrix(1 0 0 1 177.6462 193.3973)" class="st12 st7">.</text>
			<text transform="matrix(1 0 0 1 179.2772 193.3973)" class="st12 st7">8</text>
		</g>
	</g>
	<g>
		<g>
			<text transform="matrix(1 0 0 1 206.3552 195.0864)" class="st12 st7">59</text>
			<text transform="matrix(1 0 0 1 213.6422 195.0864)" class="st12 st7">.</text>
			<text transform="matrix(1 0 0 1 215.2732 195.0864)" class="st12 st7">1</text>
		</g>
	</g>
</g>
<rect x="254.4" y="218.3" class="st13" width="9.7" height="9.7"/>
<rect x="254.4" y="234.6" width="9.7" height="9.7"/>
<rect x="254.4" y="251" class="st14" width="9.7" height="9.7"/>
<text transform="matrix(1 0 0 1 267.9666 227.0036)" class="st8 st10">정상 마우스</text>
<text transform="matrix(1 0 0 1 267.9666 243.0036)" class="st8 st10">OVA 천식유도</text>
<text transform="matrix(1 0 0 1 267.9666 259.0036)" class="st8 st10">OVA천식유도 + 헤미셀란</text>
</svg>
