<?xml version="1.0" encoding="utf-8"?>
<!-- Generator: Adobe Illustrator 28.0.0, SVG Export Plug-In . SVG Version: 6.00 Build 0)  -->
<svg version="1.1" id="_레이어_1" xmlns="http://www.w3.org/2000/svg" xmlns:xlink="http://www.w3.org/1999/xlink" x="0px"
	 y="0px" viewBox="0 0 482.5 410.3" style="enable-background:new 0 0 482.5 410.3;" xml:space="preserve">
<style type="text/css">
	.st0{fill:#FFFFFF;}
	.st1{fill:#C1E3EF;}
	.st2{fill:none;stroke:#231916;stroke-miterlimit:10;}
	.st3{fill:#FFFFFF;stroke:#231916;stroke-miterlimit:10;}
	.st4{fill:#231916;}
	.st5{fill:#E60013;}
	.st6{fill:#00A1E9;}
	.st7{font-family:'AppleSDGothicNeoM00';}
	.st8{font-size:17px;}
	.st9{font-size:12px;}
	.st10{fill:#E83929;}
	.st11{font-family:'AppleSDGothicNeoEB00';}
	.st12{font-size:18px;}
</style>
<rect class="st0" width="482.5" height="410.3"/>
<path class="st1" d="M0.5,40.5v348.3c9.5,0.1,42.1,0.2,59.7,0.1c45.6-0.4,56.5-1.6,86.1-1.4c6.5,0,27.6,1,69.4,2.8
	c27.3,1.2,54.7,1.8,81.9,3.5c22.4,1.4,45.1-1.5,67.4,1.4c3.3,0.4,20.1,2.7,21.5-1.4c0.8-2.3-4.2-4.3-6.2-9.7
	c-3.1-8.2,1-23.4,13.2-27.1c12.6-3.8,24.7,7.4,26.4,16.7c1.8,9.6-9,16.2-6.2,20.8c2.6,4.3,13.1,1.4,26.4,0c9.5-1,16.6-3.6,33.7-1.3
	v-364l-5.2-1.4c-47.1,2.3-72,1.4-86.1,0c-1.4-0.1-10.6-1-22.9-1.4c-4.9-0.1-4.8,0-34,1.4c-12.6,0.6-17.5,0.8-20.8,4.9
	c-3.8,4.6-2.9,11.3-2.8,11.8c0.9,6,4.7,7.1,6.9,12.5c2.8,6.7,1.8,16.7-4.2,22.9c-7.3,7.7-21.8,9.1-30.6,0.7
	c-7.2-6.9-8.4-18.3-4.2-25c5.7-9.1,19.7-7.1,20.1-11.8c0.4-4-9.2-8.6-17.4-10.4c-7.6-1.7-11.1-0.3-19.4,0
	c-22.2,0.8-29.8-7.7-47.2-2.8c-7.5,2.1-8.7,4.4-9,5.6c-2,6.8,13.7,13,12.5,20.8c-1.2,7.7-19,15.8-27.8,9c-4.5-3.5-6-10.4-5.6-15.3
	c0.6-6.9,4.7-9.2,3.5-11.8c-1.9-4.1-13.8-2.1-34,0.7c-28.4,3.9-39.3,4.6-43.8-1.4c-2.6-3.5-2.6-8.9-4.9-9c-2.1-0.1-4.1,4.5-4.9,6.2
	c-3,6.9-1,10.6-3.5,12.5c-2.9,2.2-9.6,0.4-11.8-3.5c-2.6-4.6,2.4-10.3,0-12.5c-2-1.8-7.2,0.5-9,1.4c-3.7,1.7-6,4-6.2,4.2
	c-3.4,3.3-18.2,4.8-61.1,0L0.5,40.5L0.5,40.5z"/>
<g>
	<path class="st2" d="M473.8,28.4l-5.2-1.4c-47.1,2.3-72,1.4-86.1,0c-1.4-0.1-10.6-1-22.9-1.4c-4.9-0.1-4.8,0-34,1.4
		c-12.6,0.6-17.5,0.8-20.8,4.9c-3.8,4.6-2.9,11.3-2.8,11.8c0.9,6,4.7,7.1,6.9,12.5c2.8,6.7,1.8,16.7-4.2,22.9
		c-7.3,7.7-21.8,9.1-30.6,0.7c-7.2-6.9-8.4-18.3-4.2-25c5.7-9.1,19.7-7.1,20.1-11.8c0.4-4-9.2-8.6-17.4-10.4
		c-7.6-1.7-11.1-0.3-19.4,0c-22.2,0.8-29.8-7.7-47.2-2.8c-7.5,2.1-8.7,4.4-9,5.6c-2,6.8,13.7,13,12.5,20.8c-1.2,7.7-19,15.8-27.8,9
		c-4.5-3.5-6-10.4-5.6-15.3c0.6-6.9,4.7-9.2,3.5-11.8c-1.9-4.1-13.8-2.1-34,0.7c-28.4,3.9-39.3,4.6-43.8-1.4c-2.6-3.5-2.6-8.9-4.9-9
		c-2.1-0.1-4.1,4.5-4.9,6.2c-3,6.9-1,10.6-3.5,12.5c-2.9,2.2-9.6,0.4-11.8-3.5c-2.6-4.6,2.4-10.3,0-12.5c-2-1.8-7.2,0.5-9,1.4
		c-3.7,1.7-6,4-6.2,4.2c-3.4,3.3-18.2,4.8-61.1,0v2.9"/>
	<path class="st2" d="M0.5,388c9.5,0.1,42.1,0.2,59.7,0.1c45.6-0.4,56.5-1.6,86.1-1.4c6.5,0,27.6,1,69.4,2.8
		c27.3,1.2,54.7,1.8,81.9,3.5c22.4,1.4,45.1-1.5,67.4,1.4c3.3,0.4,20.1,2.7,21.5-1.4c0.8-2.3-4.2-4.3-6.2-9.7
		c-3.1-8.2,1-23.4,13.2-27.1c12.6-3.8,24.7,7.4,26.4,16.7c1.8,9.6-9,16.2-6.2,20.8c2.6,4.3,13.1,1.4,26.4,0c9.5-1,16.6-3.6,33.7-1.3
		"/>
	<path class="st3" d="M378.8,61.6c-2.1-0.6-14.4-4-22.9,4.2c-7.1,6.9-7.2,17.6-4.2,25c3.8,9.3,13.3,15.7,23.6,15.3
		c10.6-0.4,21.3-7.9,22.9-18.8C400.2,74.6,388.6,64.5,378.8,61.6L378.8,61.6z"/>
	<path class="st3" d="M409.6,124.6c-6.7,0.7-14.7,4.5-17.9,12c-4.5,10.3,1.9,24.2,13.2,28.7c11.6,4.7,26.4-1.3,29.9-12.6
		c2.9-9.3-2.8-19.1-9.6-23.9C423.8,127.8,417.8,123.8,409.6,124.6z"/>
	<circle class="st3" cx="447.2" cy="132" r="7.5"/>
	<path class="st3" d="M441.2,202.4c-4.1,0-7.5,3.4-7.5,7.5c0,0.1,0,0.2,0,0.3c-1.8-2.8-4.1-5.2-6.6-6.9c-1.4-1-7.3-5-15.5-4.2
		c-6.7,0.7-14.7,4.5-17.9,12c-4.5,10.3,1.9,24.2,13.2,28.7c11.6,4.7,26.4-1.3,29.9-12.6c1.2-3.9,0.9-7.8-0.3-11.5
		c1.3,1.1,3,1.8,4.8,1.8c4.1,0,7.5-3.4,7.5-7.5S445.3,202.4,441.2,202.4L441.2,202.4z"/>
	<path class="st3" d="M411.5,276.9c-2.7,0.7-10.9,2.7-15.7,10.5c-4.3,7-4.3,16-0.7,23c5,9.6,17,15.4,28.2,11.8
		c9.9-3.1,16.2-12.6,16.4-22.3c0.3-10.4-6.4-20-15.1-23C419.1,275,414.1,276.3,411.5,276.9L411.5,276.9z"/>
	<g>
		<path class="st2" d="M29.8,76.6c84.4-4.4,153.3,2.1,201.8,9.3c90.3,13.4,105.7,28.5,111.5,35.1c9.6,10.8,24,32.8,25.8,197.2
			c0.2,22.7,0.2,42.2,0.1,57"/>
		<polygon class="st4" points="365.2,372.4 368.9,373.9 372.6,372.4 368.9,381.1 		"/>
	</g>
	<circle class="st5" cx="85.5" cy="39.4" r="3.4"/>
	<circle class="st5" cx="58.2" cy="28.6" r="3.4"/>
	<circle class="st5" cx="78.8" cy="21.9" r="3.4"/>
	<circle class="st5" cx="97.4" cy="3.4" r="3.4"/>
	<circle class="st5" cx="302.6" cy="55.3" r="3.4"/>
	<circle class="st5" cx="354.9" cy="77.1" r="3.4"/>
	<circle class="st5" cx="374.2" cy="65.6" r="3.4"/>
	<circle class="st5" cx="402" cy="132" r="3.4"/>
	<circle class="st5" cx="394.2" cy="81.6" r="3.4"/>
	<circle class="st5" cx="380.9" cy="99.4" r="3.4"/>
	<circle class="st5" cx="416.2" cy="161.2" r="3.4"/>
	<circle class="st5" cx="360.5" cy="96" r="3.4"/>
	<circle class="st5" cx="370.2" cy="83.8" r="3.4"/>
	<circle class="st5" cx="415" cy="145.7" r="3.4"/>
	<circle class="st5" cx="416.2" cy="224.2" r="3.4"/>
	<circle class="st5" cx="422.2" cy="133.6" r="3.4"/>
	<circle class="st5" cx="430.4" cy="145.7" r="3.4"/>
	<circle class="st5" cx="399.5" cy="151.7" r="3.4"/>
	<circle class="st5" cx="402" cy="225.6" r="3.4"/>
	<circle class="st5" cx="181.5" cy="48" r="3.4"/>
	<circle class="st5" cx="188.2" cy="62.8" r="3.4"/>
	<circle class="st5" cx="292" cy="81.7" r="3.4"/>
	<circle class="st5" cx="199.4" cy="48" r="3.4"/>
	<circle class="st5" cx="305.9" cy="69.6" r="3.4"/>
	<circle class="st5" cx="278.4" cy="52.4" r="3.4"/>
	<circle class="st5" cx="200.5" cy="59.5" r="3.4"/>
	<circle class="st5" cx="271.7" cy="67.4" r="3.4"/>
	<circle class="st5" cx="402.9" cy="206.5" r="3.4"/>
	<circle class="st5" cx="417.1" cy="235.7" r="3.4"/>
	<circle class="st5" cx="423.1" cy="208" r="3.4"/>
	<circle class="st5" cx="407.8" cy="309.9" r="1.1"/>
	<circle class="st5" cx="406.4" cy="394.2" r="1.1"/>
	<circle class="st5" cx="412.1" cy="399.9" r="1.1"/>
	<circle class="st5" cx="408.9" cy="406.1" r="1.1"/>
	<circle class="st5" cx="398.1" cy="404" r="1.1"/>
	<circle class="st5" cx="400.4" cy="409.3" r="1.1"/>
	<circle class="st5" cx="403.6" cy="304.4" r="1.1"/>
	<circle class="st5" cx="398.1" cy="303.4" r="1.1"/>
	<circle class="st5" cx="410" cy="304.9" r="1.1"/>
	<circle class="st5" cx="428.3" cy="302.5" r="1.1"/>
	<circle class="st5" cx="416.4" cy="303.4" r="1.1"/>
	<circle class="st5" cx="398.1" cy="365.6" r="1.1"/>
	<circle class="st5" cx="403.5" cy="370.1" r="1.1"/>
	<circle class="st5" cx="393.3" cy="381.1" r="1.1"/>
	<circle class="st5" cx="400.4" cy="388.8" r="1.1"/>
	<circle class="st5" cx="401.4" cy="399.9" r="1.1"/>
	<circle class="st5" cx="385.7" cy="404" r="1.1"/>
	<circle class="st5" cx="406.2" cy="383.9" r="1.1"/>
	<circle class="st5" cx="424.8" cy="309.1" r="1.1"/>
	<circle class="st5" cx="418.2" cy="316.9" r="1.1"/>
	<circle class="st5" cx="394.4" cy="393.2" r="1.1"/>
	<circle class="st5" cx="425.6" cy="297.7" r="1.1"/>
	<circle class="st5" cx="421.5" cy="293.5" r="1.1"/>
	<circle class="st5" cx="423.8" cy="287.5" r="1.1"/>
	<circle class="st5" cx="411" cy="296.8" r="1.1"/>
	<circle class="st5" cx="413.1" cy="288.8" r="1.1"/>
	<circle class="st5" cx="405.3" cy="289.6" r="1.1"/>
	<circle class="st5" cx="431.3" cy="220.2" r="3.4"/>
	<g>
		<path class="st6" d="M443.5,130.9c-0.4,0-0.8-0.3-0.8-0.8s0.3-0.8,0.8-0.8s0.8,0.3,0.8,0.8S443.9,130.9,443.5,130.9z M443.5,129.7
			c-0.3,0-0.5,0.2-0.5,0.5s0.2,0.5,0.5,0.5s0.5-0.2,0.5-0.5S443.7,129.7,443.5,129.7z"/>
		<path class="st6" d="M443.5,127.9c-0.4,0-0.8-0.3-0.8-0.8s0.3-0.8,0.8-0.8s0.8,0.3,0.8,0.8S443.9,127.9,443.5,127.9z M443.5,126.6
			c-0.3,0-0.5,0.2-0.5,0.5s0.2,0.5,0.5,0.5s0.5-0.2,0.5-0.5S443.7,126.6,443.5,126.6z"/>
		<path class="st6" d="M444.1,127.4l1.1,1.1l0.2,0.2l1.8,1.8c0,0,0,0,0,0l-0.4,0c-0.3,0-0.5-0.1-0.7-0.3l-1.1-1.2l-0.2-0.2l-1-1.1
			L444.1,127.4L444.1,127.4z"/>
		<polygon class="st6" points="445.2,128.5 445.4,128.7 445,129.1 444.8,128.8 		"/>
		<path class="st6" d="M444.1,129.9l3.1-3.1c0,0,0,0,0,0l-0.4,0c-0.3,0-0.5,0.1-0.7,0.3l-2.3,2.5L444.1,129.9L444.1,129.9z"/>
		<circle class="st6" cx="445" cy="128.7" r="0.1"/>
	</g>
	<g>
		<path class="st6" d="M448,132.8c-0.4,0-0.8-0.3-0.8-0.8s0.3-0.8,0.8-0.8s0.8,0.3,0.8,0.8S448.4,132.8,448,132.8z M448,131.6
			c-0.3,0-0.5,0.2-0.5,0.5s0.2,0.5,0.5,0.5s0.5-0.2,0.5-0.5S448.2,131.6,448,131.6z"/>
		<path class="st6" d="M448,129.8c-0.4,0-0.8-0.3-0.8-0.8s0.3-0.8,0.8-0.8s0.8,0.3,0.8,0.8S448.4,129.8,448,129.8z M448,128.5
			c-0.3,0-0.5,0.2-0.5,0.5s0.2,0.5,0.5,0.5s0.5-0.2,0.5-0.5S448.2,128.5,448,128.5z"/>
		<path class="st6" d="M448.6,129.3l1.1,1.1l0.2,0.2l1.8,1.8c0,0,0,0,0,0l-0.4,0c-0.3,0-0.5-0.1-0.7-0.3l-1.1-1.2l-0.2-0.2l-1-1.1
			L448.6,129.3L448.6,129.3z"/>
		<polygon class="st6" points="449.7,130.4 449.9,130.6 449.5,131 449.3,130.7 		"/>
		<path class="st6" d="M448.6,131.8l3.1-3.1c0,0,0,0,0,0l-0.4,0c-0.3,0-0.5,0.1-0.7,0.3l-2.3,2.5L448.6,131.8L448.6,131.8z"/>
		<circle class="st6" cx="449.5" cy="130.5" r="0.1"/>
	</g>
	<g>
		<path class="st6" d="M443.6,137.6c-0.4,0-0.8-0.3-0.8-0.8s0.3-0.8,0.8-0.8s0.8,0.3,0.8,0.8S444,137.6,443.6,137.6z M443.6,136.4
			c-0.3,0-0.5,0.2-0.5,0.5s0.2,0.5,0.5,0.5s0.5-0.2,0.5-0.5S443.9,136.4,443.6,136.4z"/>
		<path class="st6" d="M443.6,134.6c-0.4,0-0.8-0.3-0.8-0.8s0.3-0.8,0.8-0.8s0.8,0.3,0.8,0.8S444,134.6,443.6,134.6z M443.6,133.3
			c-0.3,0-0.5,0.2-0.5,0.5s0.2,0.5,0.5,0.5s0.5-0.2,0.5-0.5S443.9,133.3,443.6,133.3z"/>
		<path class="st6" d="M444.3,134.1l1.1,1.1l0.2,0.2l1.8,1.8c0,0,0,0,0,0l-0.4,0c-0.3,0-0.5-0.1-0.7-0.3l-1.1-1.2l-0.2-0.2l-1-1.1
			L444.3,134.1L444.3,134.1z"/>
		<polygon class="st6" points="445.4,135.2 445.6,135.4 445.2,135.8 445,135.5 		"/>
		<path class="st6" d="M444.3,136.7l3.1-3.1c0,0,0,0,0,0l-0.4,0c-0.3,0-0.5,0.1-0.7,0.3l-2.3,2.5L444.3,136.7L444.3,136.7z"/>
		<circle class="st6" cx="445.2" cy="135.4" r="0.1"/>
	</g>
	<g>
		<path class="st6" d="M448.5,138.1c-0.4,0-0.8-0.3-0.8-0.8s0.3-0.8,0.8-0.8s0.8,0.3,0.8,0.8S448.9,138.1,448.5,138.1z M448.5,136.8
			c-0.3,0-0.5,0.2-0.5,0.5s0.2,0.5,0.5,0.5s0.5-0.2,0.5-0.5S448.8,136.8,448.5,136.8z"/>
		<path class="st6" d="M448.5,135c-0.4,0-0.8-0.3-0.8-0.8s0.3-0.8,0.8-0.8s0.8,0.3,0.8,0.8S448.9,135,448.5,135z M448.5,133.8
			c-0.3,0-0.5,0.2-0.5,0.5s0.2,0.5,0.5,0.5s0.5-0.2,0.5-0.5S448.8,133.8,448.5,133.8z"/>
		<path class="st6" d="M449.2,134.5l1.1,1.1l0.2,0.2l1.8,1.8c0,0,0,0,0,0l-0.4,0c-0.3,0-0.5-0.1-0.7-0.3l-1.1-1.2l-0.2-0.2l-1-1.1
			L449.2,134.5L449.2,134.5z"/>
		<polygon class="st6" points="450.2,135.6 450.5,135.8 450.1,136.2 449.9,136 		"/>
		<path class="st6" d="M449.2,137.1l3.1-3.1c0,0,0,0,0,0l-0.4,0c-0.3,0-0.5,0.1-0.7,0.3l-2.3,2.5L449.2,137.1L449.2,137.1z"/>
		<circle class="st6" cx="450.1" cy="135.8" r="0.1"/>
	</g>
	<g>
		<path class="st6" d="M439.2,208.4c-0.4,0-0.8-0.3-0.8-0.8s0.3-0.8,0.8-0.8s0.8,0.3,0.8,0.8S439.6,208.4,439.2,208.4z M439.2,207.1
			c-0.3,0-0.5,0.2-0.5,0.5s0.2,0.5,0.5,0.5s0.5-0.2,0.5-0.5S439.5,207.1,439.2,207.1z"/>
		<path class="st6" d="M439.2,205.3c-0.4,0-0.8-0.3-0.8-0.8s0.3-0.8,0.8-0.8s0.8,0.3,0.8,0.8S439.6,205.3,439.2,205.3z M439.2,204.1
			c-0.3,0-0.5,0.2-0.5,0.5s0.2,0.5,0.5,0.5s0.5-0.2,0.5-0.5S439.5,204.1,439.2,204.1z"/>
		<path class="st6" d="M439.9,204.9l1.1,1.1l0.2,0.2l1.8,1.8c0,0,0,0,0,0l-0.4,0c-0.3,0-0.5-0.1-0.7-0.3l-1.1-1.2l-0.2-0.2l-1-1.1
			L439.9,204.9L439.9,204.9z"/>
		<polygon class="st6" points="441,205.9 441.2,206.2 440.8,206.5 440.6,206.3 		"/>
		<path class="st6" d="M439.9,207.4l3.1-3.1c0,0,0,0,0,0l-0.4,0c-0.3,0-0.5,0.1-0.7,0.3l-2.3,2.5L439.9,207.4L439.9,207.4z"/>
		<circle class="st6" cx="440.8" cy="206.1" r="0.1"/>
	</g>
	<g>
		<path class="st6" d="M438.5,213.7c-0.4,0-0.8-0.3-0.8-0.8s0.3-0.8,0.8-0.8s0.8,0.3,0.8,0.8S438.9,213.7,438.5,213.7z M438.5,212.4
			c-0.3,0-0.5,0.2-0.5,0.5s0.2,0.5,0.5,0.5s0.5-0.2,0.5-0.5S438.8,212.4,438.5,212.4z"/>
		<path class="st6" d="M438.5,210.6c-0.4,0-0.8-0.3-0.8-0.8s0.3-0.8,0.8-0.8s0.8,0.3,0.8,0.8S438.9,210.6,438.5,210.6z M438.5,209.4
			c-0.3,0-0.5,0.2-0.5,0.5s0.2,0.5,0.5,0.5s0.5-0.2,0.5-0.5S438.8,209.4,438.5,209.4z"/>
		<path class="st6" d="M439.2,210.2l1.1,1.1l0.2,0.2l1.8,1.8c0,0,0,0,0,0l-0.4,0c-0.3,0-0.5-0.1-0.7-0.3l-1.1-1.2l-0.2-0.2l-1-1.1
			L439.2,210.2L439.2,210.2z"/>
		<polygon class="st6" points="440.2,211.2 440.4,211.4 440.1,211.8 439.8,211.6 		"/>
		<path class="st6" d="M439.1,212.7l3.1-3.1c0,0,0,0,0,0l-0.4,0c-0.3,0-0.5,0.1-0.7,0.3l-2.3,2.5L439.1,212.7L439.1,212.7z"/>
		<circle class="st6" cx="440" cy="211.4" r="0.1"/>
	</g>
	<g>
		<path class="st6" d="M415.6,213.8c-0.4,0-0.8-0.3-0.8-0.8s0.3-0.8,0.8-0.8s0.8,0.3,0.8,0.8S416,213.8,415.6,213.8z M415.6,212.5
			c-0.3,0-0.5,0.2-0.5,0.5s0.2,0.5,0.5,0.5s0.5-0.2,0.5-0.5S415.9,212.5,415.6,212.5z"/>
		<path class="st6" d="M415.6,210.7c-0.4,0-0.8-0.3-0.8-0.8s0.3-0.8,0.8-0.8s0.8,0.3,0.8,0.8S416,210.7,415.6,210.7z M415.6,209.5
			c-0.3,0-0.5,0.2-0.5,0.5s0.2,0.5,0.5,0.5s0.5-0.2,0.5-0.5S415.9,209.5,415.6,209.5z"/>
		<path class="st6" d="M416.3,210.3l1.1,1.1l0.2,0.2l1.8,1.8c0,0,0,0,0,0l-0.4,0c-0.3,0-0.5-0.1-0.7-0.3l-1.1-1.2l-0.2-0.2l-1-1.1
			L416.3,210.3L416.3,210.3z"/>
		<polygon class="st6" points="417.3,211.3 417.6,211.6 417.2,211.9 417,211.7 		"/>
		<path class="st6" d="M416.3,212.8l3.1-3.1c0,0,0,0,0,0l-0.4,0c-0.3,0-0.5,0.1-0.7,0.3l-2.3,2.5L416.3,212.8L416.3,212.8z"/>
		<circle class="st6" cx="417.2" cy="211.5" r="0.1"/>
	</g>
	<g>
		<path class="st6" d="M420.7,224.1c-0.4,0-0.8-0.3-0.8-0.8s0.3-0.8,0.8-0.8s0.8,0.3,0.8,0.8S421.1,224.1,420.7,224.1z M420.7,222.9
			c-0.3,0-0.5,0.2-0.5,0.5s0.2,0.5,0.5,0.5s0.5-0.2,0.5-0.5S421,222.9,420.7,222.9z"/>
		<path class="st6" d="M420.7,221.1c-0.4,0-0.8-0.3-0.8-0.8s0.3-0.8,0.8-0.8s0.8,0.3,0.8,0.8S421.1,221.1,420.7,221.1z M420.7,219.8
			c-0.3,0-0.5,0.2-0.5,0.5s0.2,0.5,0.5,0.5s0.5-0.2,0.5-0.5S421,219.8,420.7,219.8z"/>
		<path class="st6" d="M421.4,220.6l1.1,1.1l0.2,0.2l1.8,1.8c0,0,0,0,0,0l-0.4,0c-0.3,0-0.5-0.1-0.7-0.3l-1.1-1.2l-0.2-0.2l-1-1.1
			L421.4,220.6L421.4,220.6z"/>
		<polygon class="st6" points="422.4,221.7 422.6,221.9 422.3,222.3 422.1,222 		"/>
		<path class="st6" d="M421.3,223.2l3.1-3.1c0,0,0,0,0,0l-0.4,0c-0.3,0-0.5,0.1-0.7,0.3l-2.3,2.5L421.3,223.2L421.3,223.2z"/>
		<circle class="st6" cx="422.2" cy="221.9" r="0.1"/>
	</g>
	<g>
		<path class="st6" d="M429.8,298.3c-0.4,0-0.8-0.3-0.8-0.8s0.3-0.8,0.8-0.8s0.8,0.3,0.8,0.8S430.3,298.3,429.8,298.3z M429.8,297.1
			c-0.3,0-0.5,0.2-0.5,0.5s0.2,0.5,0.5,0.5s0.5-0.2,0.5-0.5S430.1,297.1,429.8,297.1z"/>
		<path class="st6" d="M429.8,295.3c-0.4,0-0.8-0.3-0.8-0.8s0.3-0.8,0.8-0.8s0.8,0.3,0.8,0.8S430.3,295.3,429.8,295.3z M429.8,294
			c-0.3,0-0.5,0.2-0.5,0.5s0.2,0.5,0.5,0.5s0.5-0.2,0.5-0.5S430.1,294,429.8,294z"/>
		<path class="st6" d="M430.5,294.8l1.1,1.1l0.2,0.2l1.8,1.8c0,0,0,0,0,0l-0.4,0c-0.3,0-0.5-0.1-0.7-0.3l-1.1-1.2l-0.2-0.2l-1-1.1
			L430.5,294.8L430.5,294.8z"/>
		<polygon class="st6" points="431.6,295.9 431.8,296.1 431.4,296.5 431.2,296.2 		"/>
		<path class="st6" d="M430.5,297.3l3.1-3.1c0,0,0,0,0,0l-0.4,0c-0.3,0-0.5,0.1-0.7,0.3l-2.3,2.5L430.5,297.3L430.5,297.3z"/>
		<circle class="st6" cx="431.4" cy="296.1" r="0.1"/>
	</g>
	<g>
		<path class="st6" d="M416.8,313.3c-0.4,0-0.8-0.3-0.8-0.8s0.3-0.8,0.8-0.8s0.8,0.3,0.8,0.8S417.2,313.3,416.8,313.3z M416.8,312
			c-0.3,0-0.5,0.2-0.5,0.5s0.2,0.5,0.5,0.5s0.5-0.2,0.5-0.5S417.1,312,416.8,312z"/>
		<path class="st6" d="M416.8,310.2c-0.4,0-0.8-0.3-0.8-0.8s0.3-0.8,0.8-0.8s0.8,0.3,0.8,0.8S417.2,310.2,416.8,310.2z M416.8,309
			c-0.3,0-0.5,0.2-0.5,0.5s0.2,0.5,0.5,0.5s0.5-0.2,0.5-0.5S417.1,309,416.8,309z"/>
		<path class="st6" d="M417.5,309.8l1.1,1.1l0.2,0.2l1.8,1.8c0,0,0,0,0,0l-0.4,0c-0.3,0-0.5-0.1-0.7-0.3l-1.1-1.2l-0.2-0.2l-1-1.1
			L417.5,309.8L417.5,309.8z"/>
		<polygon class="st6" points="418.6,310.8 418.8,311 418.4,311.4 418.2,311.2 		"/>
		<path class="st6" d="M417.5,312.3l3.1-3.1c0,0,0,0,0,0l-0.4,0c-0.3,0-0.5,0.1-0.7,0.3l-2.3,2.5L417.5,312.3L417.5,312.3z"/>
		<circle class="st6" cx="418.4" cy="311" r="0.1"/>
	</g>
	<g>
		<path class="st6" d="M403.2,300.2c-0.4,0-0.8-0.3-0.8-0.8s0.3-0.8,0.8-0.8s0.8,0.3,0.8,0.8S403.6,300.2,403.2,300.2z M403.2,298.9
			c-0.3,0-0.5,0.2-0.5,0.5s0.2,0.5,0.5,0.5s0.5-0.2,0.5-0.5S403.5,298.9,403.2,298.9z"/>
		<path class="st6" d="M403.2,297.1c-0.4,0-0.8-0.3-0.8-0.8s0.3-0.8,0.8-0.8s0.8,0.3,0.8,0.8S403.6,297.1,403.2,297.1z M403.2,295.9
			c-0.3,0-0.5,0.2-0.5,0.5s0.2,0.5,0.5,0.5s0.5-0.2,0.5-0.5S403.5,295.9,403.2,295.9z"/>
		<path class="st6" d="M403.9,296.6l1.1,1.1l0.2,0.2l1.8,1.8c0,0,0,0,0,0l-0.4,0c-0.3,0-0.5-0.1-0.7-0.3l-1.1-1.2l-0.2-0.2l-1-1.1
			L403.9,296.6L403.9,296.6z"/>
		<polygon class="st6" points="404.9,297.7 405.2,297.9 404.8,298.3 404.6,298.1 		"/>
		<path class="st6" d="M403.9,299.2l3.1-3.1c0,0,0,0,0,0l-0.4,0c-0.3,0-0.5,0.1-0.7,0.3l-2.3,2.5L403.9,299.2L403.9,299.2z"/>
		<circle class="st6" cx="404.8" cy="297.9" r="0.1"/>
	</g>
	<g>
		<path class="st6" d="M419.2,290c-0.4,0-0.8-0.3-0.8-0.8s0.3-0.8,0.8-0.8s0.8,0.3,0.8,0.8S419.6,290,419.2,290z M419.2,288.8
			c-0.3,0-0.5,0.2-0.5,0.5s0.2,0.5,0.5,0.5s0.5-0.2,0.5-0.5S419.5,288.8,419.2,288.8z"/>
		<path class="st6" d="M419.2,286.9c-0.4,0-0.8-0.3-0.8-0.8s0.3-0.8,0.8-0.8s0.8,0.3,0.8,0.8S419.6,286.9,419.2,286.9z M419.2,285.7
			c-0.3,0-0.5,0.2-0.5,0.5s0.2,0.5,0.5,0.5s0.5-0.2,0.5-0.5S419.5,285.7,419.2,285.7z"/>
		<path class="st6" d="M419.9,286.5l1.1,1.1l0.2,0.2l1.8,1.8c0,0,0,0,0,0l-0.4,0c-0.3,0-0.5-0.1-0.7-0.3l-1.1-1.2l-0.2-0.2l-1-1.1
			L419.9,286.5L419.9,286.5z"/>
		<polygon class="st6" points="420.9,287.5 421.2,287.8 420.8,288.1 420.6,287.9 		"/>
		<path class="st6" d="M419.8,289l3.1-3.1c0,0,0,0,0,0l-0.4,0c-0.3,0-0.5,0.1-0.7,0.3l-2.3,2.5L419.8,289L419.8,289z"/>
		<circle class="st6" cx="420.7" cy="287.7" r="0.1"/>
	</g>
</g>
<text transform="matrix(1 0 0 1 15.754 364.67)" class="st4 st7 st8">세포질</text>
<text transform="matrix(1 0 0 1 141.067 25.29)" class="st4 st7 st9">endocytosis</text>
<text transform="matrix(1 0 0 1 386.087 347.153)" class="st4 st7 st9">exocytosis</text>
<text transform="matrix(1 0 0 1 377.51 55.255)" class="st4 st7 st9">탐식소체</text>
<text transform="matrix(1 0 0 1 425.352 253.793)" class="st4 st7 st9">탐식-리소좀</text>
<text transform="matrix(1 0 0 1 424.404 114.988)" class="st4 st7 st9">리소좀</text>
<text transform="matrix(1 0 0 1 64.108 96.009)" class="st10 st11 st12">인식</text>
<text transform="matrix(1 0 0 1 244.804 115.827)" class="st10 st11 st12">포획</text>
<text transform="matrix(1 0 0 1 321.186 203.146)" class="st10 st11 st12">분해</text>
<text transform="matrix(1 0 0 1 299.232 351.003)" class="st10 st11 st12">면역조율</text>
</svg>
