<?xml version="1.0" encoding="UTF-8"?>
<svg id="_레이어_1" data-name="레이어 1" xmlns="http://www.w3.org/2000/svg" viewBox="0 0 482.507 410.342">
  <defs>
    <style>
      .cls-1 {
        fill: #00a1e9;
      }

      .cls-1, .cls-2, .cls-3, .cls-4 {
        stroke-width: 0px;
      }

      .cls-5 {
        font-size: 12px;
      }

      .cls-5, .cls-2, .cls-6 {
        fill: #231916;
      }

      .cls-5, .cls-6 {
        font-family: AppleSDGothicNeoM00, AppleSDGothicNeoM00;
      }

      .cls-7 {
        fill: none;
      }

      .cls-7, .cls-8 {
        stroke: #231916;
        stroke-miterlimit: 10;
      }

      .cls-3 {
        fill: #c1e3ef;
      }

      .cls-4 {
        fill: #e60013;
      }

      .cls-9 {
        fill: #e83929;
        font-family: AppleSDGothicNeoEB00, AppleSDGothicNeoEB00;
        font-size: 18px;
      }

      .cls-8 {
        fill: #fff;
      }

      .cls-6 {
        font-size: 17px;
      }
    </style>
  </defs>
  <path class="cls-3" d="m.5,40.463v348.348c9.544.075,42.077.234,59.722.097,45.649-.353,56.508-1.602,86.111-1.389,6.523.047,27.586.958,69.444,2.778,27.314,1.188,54.655,1.821,81.944,3.472,22.417,1.357,45.093-1.531,67.361,1.389,3.26.428,20.147,2.704,21.528-1.389.783-2.32-4.225-4.298-6.25-9.722-3.061-8.199,1.023-23.385,13.194-27.083,12.595-3.827,24.678,7.437,26.389,16.667,1.774,9.573-9.038,16.197-6.25,20.833,2.557,4.251,13.07,1.422,26.389,0,9.476-1.012,16.565-3.582,33.669-1.278V29.232l-5.197-1.435c-47.117,2.257-71.983,1.38-86.111,0-1.358-.133-10.558-1.033-22.917-1.389-4.876-.14-4.786-.017-34.028,1.389-12.575.605-17.539.82-20.833,4.861-3.786,4.645-2.861,11.266-2.778,11.806.916,5.962,4.71,7.099,6.944,12.5,2.785,6.729,1.76,16.721-4.167,22.917-7.323,7.656-21.773,9.141-30.556.694-7.151-6.878-8.395-18.274-4.167-25,5.696-9.062,19.709-7.084,20.139-11.806.36-3.957-9.186-8.603-17.361-10.417-7.559-1.677-11.147-.311-19.444,0-22.201.832-29.755-7.697-47.222-2.778-7.47,2.104-8.677,4.393-9.028,5.556-2.049,6.793,13.716,13.035,12.5,20.833-1.208,7.742-18.967,15.81-27.778,9.028-4.54-3.495-5.956-10.357-5.556-15.278.564-6.924,4.66-9.235,3.472-11.806-1.872-4.051-13.776-2.057-34.028.694-28.439,3.864-39.331,4.601-43.75-1.389-2.611-3.539-2.575-8.902-4.861-9.028-2.149-.118-4.123,4.517-4.861,6.25-2.951,6.93-.962,10.599-3.472,12.5-2.893,2.191-9.639.428-11.806-3.472-2.576-4.637,2.431-10.302,0-12.5-2.015-1.822-7.155.531-9.028,1.389-3.736,1.71-6.045,3.97-6.25,4.167-3.415,3.274-18.228,4.752-61.111,0v2.944Z"/>
  <g>
    <path class="cls-7" d="m473.753,28.435l-5.197-1.435c-47.117,2.257-71.983,1.38-86.111,0-1.358-.133-10.558-1.033-22.917-1.389-4.876-.14-4.786-.017-34.028,1.389-12.575.605-17.539.82-20.833,4.861-3.786,4.645-2.861,11.266-2.778,11.806.916,5.962,4.71,7.099,6.944,12.5,2.785,6.729,1.76,16.721-4.167,22.917-7.323,7.656-21.773,9.141-30.556.694-7.151-6.878-8.395-18.274-4.167-25,5.696-9.062,19.709-7.084,20.139-11.806.36-3.957-9.186-8.603-17.361-10.417-7.559-1.677-11.147-.311-19.444,0-22.201.832-29.755-7.697-47.222-2.778-7.47,2.104-8.677,4.393-9.028,5.556-2.049,6.793,13.716,13.035,12.5,20.833-1.208,7.742-18.967,15.81-27.778,9.028-4.54-3.495-5.956-10.357-5.556-15.278.564-6.924,4.66-9.235,3.472-11.806-1.872-4.051-13.776-2.057-34.028.694-28.439,3.864-39.331,4.601-43.75-1.389-2.611-3.539-2.575-8.902-4.861-9.028-2.149-.118-4.123,4.517-4.861,6.25-2.951,6.93-.962,10.599-3.472,12.5-2.893,2.191-9.639.428-11.806-3.472-2.576-4.637,2.431-10.302,0-12.5-2.015-1.822-7.155.531-9.028,1.389-3.736,1.71-6.045,3.97-6.25,4.167-3.415,3.274-18.228,4.752-61.111,0v2.944"/>
    <path class="cls-7" d="m.5,388.014c9.544.075,42.077.234,59.722.097,45.649-.353,56.508-1.602,86.111-1.389,6.523.047,27.586.958,69.444,2.778,27.314,1.188,54.655,1.821,81.944,3.472,22.417,1.357,45.093-1.531,67.361,1.389,3.26.428,20.147,2.704,21.528-1.389.783-2.32-4.225-4.298-6.25-9.722-3.061-8.199,1.023-23.385,13.194-27.083,12.595-3.827,24.678,7.437,26.389,16.667,1.774,9.573-9.038,16.197-6.25,20.833,2.557,4.251,13.07,1.422,26.389,0,9.476-1.012,16.565-3.582,33.669-1.278"/>
    <path class="cls-8" d="m378.811,61.613c-2.052-.614-14.392-4.019-22.917,4.167-7.148,6.865-7.168,17.611-4.167,25,3.78,9.307,13.316,15.661,23.611,15.278,10.599-.394,21.26-7.9,22.917-18.75,1.945-12.736-9.636-22.76-19.444-25.694Z"/>
    <path class="cls-8" d="m409.58,124.623c-6.68.663-14.725,4.509-17.933,11.955-4.453,10.338,1.908,24.162,13.151,28.692,11.559,4.657,26.352-1.286,29.888-12.553,2.914-9.284-2.794-19.07-9.564-23.91-1.36-.972-7.317-5-15.542-4.184Z"/>
    <circle class="cls-8" cx="447.197" cy="132.011" r="7.497"/>
    <path class="cls-8" d="m441.203,202.42c-4.14,0-7.497,3.356-7.497,7.497,0,.093.01.182.014.274-1.814-2.791-4.119-5.198-6.571-6.95-1.36-.972-7.317-5-15.542-4.184-6.68.663-14.725,4.509-17.933,11.955-4.453,10.338,1.908,24.162,13.151,28.692,11.559,4.657,26.352-1.286,29.888-12.553,1.216-3.875.916-7.834-.322-11.488,1.302,1.092,2.979,1.751,4.812,1.751,4.14,0,7.497-3.356,7.497-7.497s-3.356-7.497-7.497-7.497Z"/>
    <path class="cls-8" d="m411.493,276.908c-2.675.662-10.905,2.699-15.74,10.493-4.318,6.96-4.34,15.952-.656,22.953,5.036,9.569,16.97,15.372,28.2,11.805,9.906-3.147,16.158-12.598,16.395-22.298.253-10.368-6.391-19.989-15.084-22.953-5.516-1.881-10.547-.636-13.116,0Z"/>
    <g>
      <path class="cls-7" d="m29.79,76.622c84.426-4.403,153.27,2.092,201.806,9.29,90.31,13.394,105.655,28.533,111.484,35.097,9.555,10.76,23.998,32.78,25.806,197.161.25,22.732.193,42.188.06,57.002"/>
      <polygon class="cls-2" points="365.184 372.36 368.887 373.933 372.59 372.36 368.887 381.138 365.184 372.36"/>
    </g>
    <circle class="cls-4" cx="85.532" cy="39.39" r="3.355"/>
    <circle class="cls-4" cx="58.177" cy="28.645" r="3.355"/>
    <circle class="cls-4" cx="78.823" cy="21.935" r="3.355"/>
    <circle class="cls-4" cx="97.403" cy="3.355" r="3.355"/>
    <circle class="cls-4" cx="302.587" cy="55.255" r="3.355"/>
    <circle class="cls-4" cx="354.909" cy="77.13" r="3.355"/>
    <circle class="cls-4" cx="374.155" cy="65.645" r="3.355"/>
    <circle class="cls-4" cx="401.962" cy="132.011" r="3.355"/>
    <circle class="cls-4" cx="394.195" cy="81.645" r="3.355"/>
    <circle class="cls-4" cx="380.865" cy="99.364" r="3.355"/>
    <circle class="cls-4" cx="416.195" cy="161.202" r="3.355"/>
    <circle class="cls-4" cx="360.478" cy="96.009" r="3.355"/>
    <circle class="cls-4" cx="370.244" cy="83.84" r="3.355"/>
    <circle class="cls-4" cx="414.974" cy="145.69" r="3.355"/>
    <circle class="cls-4" cx="416.195" cy="224.154" r="3.355"/>
    <circle class="cls-4" cx="422.186" cy="133.55" r="3.355"/>
    <circle class="cls-4" cx="430.437" cy="145.69" r="3.355"/>
    <circle class="cls-4" cx="399.51" cy="151.667" r="3.355"/>
    <circle class="cls-4" cx="401.962" cy="225.602" r="3.355"/>
    <circle class="cls-4" cx="181.532" cy="48" r="3.355"/>
    <circle class="cls-4" cx="188.242" cy="62.84" r="3.355"/>
    <circle class="cls-4" cx="292.006" cy="81.719" r="3.355"/>
    <circle class="cls-4" cx="199.426" cy="48" r="3.355"/>
    <circle class="cls-4" cx="305.942" cy="69.55" r="3.355"/>
    <circle class="cls-4" cx="278.363" cy="52.387" r="3.355"/>
    <circle class="cls-4" cx="200.458" cy="59.485" r="3.355"/>
    <circle class="cls-4" cx="271.653" cy="67.355" r="3.355"/>
    <circle class="cls-4" cx="402.865" cy="206.501" r="3.355"/>
    <circle class="cls-4" cx="417.098" cy="235.692" r="3.355"/>
    <circle class="cls-4" cx="423.089" cy="208.04" r="3.355"/>
    <circle class="cls-4" cx="407.824" cy="309.941" r="1.052"/>
    <circle class="cls-4" cx="406.368" cy="394.216" r="1.052"/>
    <circle class="cls-4" cx="412.089" cy="399.865" r="1.052"/>
    <circle class="cls-4" cx="408.876" cy="406.107" r="1.052"/>
    <circle class="cls-4" cx="398.15" cy="404.003" r="1.052"/>
    <circle class="cls-4" cx="400.393" cy="409.29" r="1.052"/>
    <circle class="cls-4" cx="403.645" cy="304.407" r="1.052"/>
    <circle class="cls-4" cx="398.15" cy="303.355" r="1.052"/>
    <circle class="cls-4" cx="409.986" cy="304.889" r="1.052"/>
    <circle class="cls-4" cx="428.292" cy="302.52" r="1.052"/>
    <circle class="cls-4" cx="416.357" cy="303.355" r="1.052"/>
    <circle class="cls-4" cx="398.15" cy="365.63" r="1.052"/>
    <circle class="cls-4" cx="403.54" cy="370.061" r="1.052"/>
    <circle class="cls-4" cx="393.344" cy="381.138" r="1.052"/>
    <circle class="cls-4" cx="400.393" cy="388.79" r="1.052"/>
    <circle class="cls-4" cx="401.445" cy="399.865" r="1.052"/>
    <circle class="cls-4" cx="385.742" cy="404.003" r="1.052"/>
    <circle class="cls-4" cx="406.22" cy="383.935" r="1.052"/>
    <circle class="cls-4" cx="424.824" cy="309.143" r="1.052"/>
    <circle class="cls-4" cx="418.202" cy="316.907" r="1.052"/>
    <circle class="cls-4" cx="394.396" cy="393.165" r="1.052"/>
    <circle class="cls-4" cx="425.593" cy="297.733" r="1.052"/>
    <circle class="cls-4" cx="421.524" cy="293.516" r="1.052"/>
    <circle class="cls-4" cx="423.772" cy="287.545" r="1.052"/>
    <circle class="cls-4" cx="411.038" cy="296.831" r="1.052"/>
    <circle class="cls-4" cx="413.113" cy="288.773" r="1.052"/>
    <circle class="cls-4" cx="405.317" cy="289.602" r="1.052"/>
    <circle class="cls-4" cx="431.34" cy="220.18" r="3.355"/>
    <g>
      <path class="cls-1" d="m443.457,130.935c-.415,0-.753-.338-.753-.753s.338-.753.753-.753.753.338.753.753-.338.753-.753.753Zm0-1.25c-.274,0-.497.223-.497.497s.223.497.497.497.497-.223.497-.497-.223-.497-.497-.497Z"/>
      <path class="cls-1" d="m443.457,127.882c-.415,0-.753-.338-.753-.753s.338-.753.753-.753.753.338.753.753-.338.753-.753.753Zm0-1.25c-.274,0-.497.223-.497.497s.223.497.497.497.497-.223.497-.497-.223-.497-.497-.497Z"/>
      <path class="cls-1" d="m444.135,127.418l1.061,1.061.216.216,1.78,1.78c.013.013-.004.042-.025.043l-.353.017c-.277.013-.518-.077-.68-.255l-1.098-1.209-.213-.234-1.003-1.104.314-.314Z"/>
      <polygon class="cls-1" points="445.197 128.48 445.412 128.695 445.037 129.071 444.824 128.837 445.197 128.48"/>
      <path class="cls-1" d="m444.107,129.947l3.057-3.057c.013-.013-.004-.042-.025-.043l-.353-.017c-.277-.013-.518.077-.68.255l-2.313,2.548.314.314Z"/>
      <circle class="cls-1" cx="445.004" cy="128.663" r=".114"/>
    </g>
    <g>
      <path class="cls-1" d="m447.95,132.816c-.415,0-.753-.338-.753-.753s.338-.753.753-.753.753.338.753.753-.338.753-.753.753Zm0-1.25c-.274,0-.497.223-.497.497s.223.497.497.497.497-.223.497-.497-.223-.497-.497-.497Z"/>
      <path class="cls-1" d="m447.95,129.763c-.415,0-.753-.338-.753-.753s.338-.753.753-.753.753.338.753.753-.338.753-.753.753Zm0-1.25c-.274,0-.497.223-.497.497s.223.497.497.497.497-.223.497-.497-.223-.497-.497-.497Z"/>
      <path class="cls-1" d="m448.629,129.299l1.061,1.061.216.216,1.78,1.78c.013.013-.004.042-.025.043l-.353.017c-.277.013-.518-.077-.68-.255l-1.098-1.209-.213-.234-1.003-1.104.314-.314Z"/>
      <polygon class="cls-1" points="449.69 130.36 449.906 130.576 449.53 130.951 449.318 130.717 449.69 130.36"/>
      <path class="cls-1" d="m448.6,131.827l3.057-3.057c.013-.013-.004-.042-.025-.043l-.353-.017c-.277-.013-.518.077-.68.255l-2.313,2.548.314.314Z"/>
      <circle class="cls-1" cx="449.498" cy="130.544" r=".114"/>
    </g>
    <g>
      <path class="cls-1" d="m443.624,137.645c-.415,0-.753-.338-.753-.753s.338-.753.753-.753.753.338.753.753-.338.753-.753.753Zm0-1.25c-.274,0-.497.223-.497.497s.223.497.497.497.497-.223.497-.497-.223-.497-.497-.497Z"/>
      <path class="cls-1" d="m443.624,134.592c-.415,0-.753-.338-.753-.753s.338-.753.753-.753.753.338.753.753-.338.753-.753.753Zm0-1.25c-.274,0-.497.223-.497.497s.223.497.497.497.497-.223.497-.497-.223-.497-.497-.497Z"/>
      <path class="cls-1" d="m444.303,134.128l1.061,1.061.216.216,1.78,1.78c.013.013-.004.042-.025.043l-.353.017c-.277.013-.518-.077-.68-.255l-1.098-1.209-.213-.234-1.003-1.104.314-.314Z"/>
      <polygon class="cls-1" points="445.365 135.19 445.58 135.405 445.205 135.781 444.992 135.546 445.365 135.19"/>
      <path class="cls-1" d="m444.275,136.656l3.057-3.057c.013-.013-.004-.042-.025-.043l-.353-.017c-.277-.013-.518.077-.68.255l-2.313,2.548.314.314Z"/>
      <circle class="cls-1" cx="445.172" cy="135.373" r=".114"/>
    </g>
    <g>
      <path class="cls-1" d="m448.509,138.06c-.415,0-.753-.338-.753-.753s.338-.753.753-.753.753.338.753.753-.338.753-.753.753Zm0-1.25c-.274,0-.497.223-.497.497s.223.497.497.497.497-.223.497-.497-.223-.497-.497-.497Z"/>
      <path class="cls-1" d="m448.509,135.007c-.415,0-.753-.338-.753-.753s.338-.753.753-.753.753.338.753.753-.338.753-.753.753Zm0-1.25c-.274,0-.497.223-.497.497s.223.497.497.497.497-.223.497-.497-.223-.497-.497-.497Z"/>
      <path class="cls-1" d="m449.188,134.543l1.061,1.061.216.216,1.78,1.78c.013.013-.004.042-.025.043l-.353.017c-.277.013-.518-.077-.68-.255l-1.098-1.209-.213-.234-1.003-1.104.314-.314Z"/>
      <polygon class="cls-1" points="450.249 135.604 450.465 135.82 450.089 136.195 449.877 135.961 450.249 135.604"/>
      <path class="cls-1" d="m449.159,137.071l3.057-3.057c.013-.013-.004-.042-.025-.043l-.353-.017c-.277-.013-.518.077-.68.255l-2.313,2.548.314.314Z"/>
      <circle class="cls-1" cx="450.056" cy="135.788" r=".114"/>
    </g>
    <g>
      <path class="cls-1" d="m439.219,208.396c-.415,0-.753-.338-.753-.753s.338-.753.753-.753.753.338.753.753-.338.753-.753.753Zm0-1.25c-.274,0-.497.223-.497.497s.223.497.497.497.497-.223.497-.497-.223-.497-.497-.497Z"/>
      <path class="cls-1" d="m439.219,205.343c-.415,0-.753-.338-.753-.753s.338-.753.753-.753.753.338.753.753-.338.753-.753.753Zm0-1.25c-.274,0-.497.223-.497.497s.223.497.497.497.497-.223.497-.497-.223-.497-.497-.497Z"/>
      <path class="cls-1" d="m439.898,204.879l1.061,1.061.216.216,1.78,1.78c.013.013-.004.042-.025.043l-.353.017c-.277.013-.518-.077-.68-.255l-1.098-1.209-.213-.234-1.003-1.104.314-.314Z"/>
      <polygon class="cls-1" points="440.959 205.941 441.175 206.156 440.799 206.532 440.587 206.298 440.959 205.941"/>
      <path class="cls-1" d="m439.869,207.408l3.057-3.057c.013-.013-.004-.042-.025-.043l-.353-.017c-.277-.013-.518.077-.68.255l-2.313,2.548.314.314Z"/>
      <circle class="cls-1" cx="440.767" cy="206.124" r=".114"/>
    </g>
    <g>
      <path class="cls-1" d="m438.477,213.674c-.415,0-.753-.338-.753-.753s.338-.753.753-.753.753.338.753.753-.338.753-.753.753Zm0-1.25c-.274,0-.497.223-.497.497s.223.497.497.497.497-.223.497-.497-.223-.497-.497-.497Z"/>
      <path class="cls-1" d="m438.477,210.621c-.415,0-.753-.338-.753-.753s.338-.753.753-.753.753.338.753.753-.338.753-.753.753Zm0-1.25c-.274,0-.497.223-.497.497s.223.497.497.497.497-.223.497-.497-.223-.497-.497-.497Z"/>
      <path class="cls-1" d="m439.156,210.157l1.061,1.061.216.216,1.78,1.78c.013.013-.004.042-.025.043l-.353.017c-.277.013-.518-.077-.68-.255l-1.098-1.209-.213-.234-1.003-1.104.314-.314Z"/>
      <polygon class="cls-1" points="440.218 211.218 440.433 211.434 440.058 211.809 439.845 211.575 440.218 211.218"/>
      <path class="cls-1" d="m439.128,212.685l3.057-3.057c.013-.013-.004-.042-.025-.043l-.353-.017c-.277-.013-.518.077-.68.255l-2.313,2.548.314.314Z"/>
      <circle class="cls-1" cx="440.025" cy="211.402" r=".114"/>
    </g>
    <g>
      <path class="cls-1" d="m415.604,213.793c-.415,0-.753-.338-.753-.753s.338-.753.753-.753.753.338.753.753-.338.753-.753.753Zm0-1.25c-.274,0-.497.223-.497.497s.223.497.497.497.497-.223.497-.497-.223-.497-.497-.497Z"/>
      <path class="cls-1" d="m415.604,210.74c-.415,0-.753-.338-.753-.753s.338-.753.753-.753.753.338.753.753-.338.753-.753.753Zm0-1.25c-.274,0-.497.223-.497.497s.223.497.497.497.497-.223.497-.497-.223-.497-.497-.497Z"/>
      <path class="cls-1" d="m416.283,210.276l1.061,1.061.216.216,1.78,1.78c.013.013-.004.042-.025.043l-.353.017c-.277.013-.518-.077-.68-.255l-1.098-1.209-.213-.234-1.003-1.104.314-.314Z"/>
      <polygon class="cls-1" points="417.345 211.337 417.56 211.553 417.185 211.928 416.972 211.694 417.345 211.337"/>
      <path class="cls-1" d="m416.255,212.804l3.057-3.057c.013-.013-.004-.042-.025-.043l-.353-.017c-.277-.013-.518.077-.68.255l-2.313,2.548.314.314Z"/>
      <circle class="cls-1" cx="417.152" cy="211.521" r=".114"/>
    </g>
    <g>
      <path class="cls-1" d="m420.692,224.145c-.415,0-.753-.338-.753-.753s.338-.753.753-.753.753.338.753.753-.338.753-.753.753Zm0-1.25c-.274,0-.497.223-.497.497s.223.497.497.497.497-.223.497-.497-.223-.497-.497-.497Z"/>
      <path class="cls-1" d="m420.692,221.092c-.415,0-.753-.338-.753-.753s.338-.753.753-.753.753.338.753.753-.338.753-.753.753Zm0-1.25c-.274,0-.497.223-.497.497s.223.497.497.497.497-.223.497-.497-.223-.497-.497-.497Z"/>
      <path class="cls-1" d="m421.371,220.628l1.061,1.061.216.216,1.78,1.78c.013.013-.004.042-.025.043l-.353.017c-.277.013-.518-.077-.68-.255l-1.098-1.209-.213-.234-1.003-1.104.314-.314Z"/>
      <polygon class="cls-1" points="422.432 221.69 422.648 221.905 422.272 222.281 422.06 222.046 422.432 221.69"/>
      <path class="cls-1" d="m421.342,223.156l3.057-3.057c.013-.013-.004-.042-.025-.043l-.353-.017c-.277-.013-.518.077-.68.255l-2.313,2.548.314.314Z"/>
      <circle class="cls-1" cx="422.24" cy="221.873" r=".114"/>
    </g>
    <g>
      <path class="cls-1" d="m429.846,298.334c-.415,0-.753-.338-.753-.753s.338-.753.753-.753.753.338.753.753-.338.753-.753.753Zm0-1.25c-.274,0-.497.223-.497.497s.223.497.497.497.497-.223.497-.497-.223-.497-.497-.497Z"/>
      <path class="cls-1" d="m429.846,295.281c-.415,0-.753-.338-.753-.753s.338-.753.753-.753.753.338.753.753-.338.753-.753.753Zm0-1.25c-.274,0-.497.223-.497.497s.223.497.497.497.497-.223.497-.497-.223-.497-.497-.497Z"/>
      <path class="cls-1" d="m430.525,294.817l1.061,1.061.216.216,1.78,1.78c.013.013-.004.042-.025.043l-.353.017c-.277.013-.518-.077-.68-.255l-1.098-1.209-.213-.234-1.003-1.104.314-.314Z"/>
      <polygon class="cls-1" points="431.587 295.879 431.802 296.094 431.427 296.47 431.214 296.235 431.587 295.879"/>
      <path class="cls-1" d="m430.497,297.345l3.057-3.057c.013-.013-.004-.042-.025-.043l-.353-.017c-.277-.013-.518.077-.68.255l-2.313,2.548.314.314Z"/>
      <circle class="cls-1" cx="431.394" cy="296.062" r=".114"/>
    </g>
    <g>
      <path class="cls-1" d="m416.834,313.272c-.415,0-.753-.338-.753-.753s.338-.753.753-.753.753.338.753.753-.338.753-.753.753Zm0-1.25c-.274,0-.497.223-.497.497s.223.497.497.497.497-.223.497-.497-.223-.497-.497-.497Z"/>
      <path class="cls-1" d="m416.834,310.219c-.415,0-.753-.338-.753-.753s.338-.753.753-.753.753.338.753.753-.338.753-.753.753Zm0-1.25c-.274,0-.497.223-.497.497s.223.497.497.497.497-.223.497-.497-.223-.497-.497-.497Z"/>
      <path class="cls-1" d="m417.513,309.755l1.061,1.061.216.216,1.78,1.78c.013.013-.004.042-.025.043l-.353.017c-.277.013-.518-.077-.68-.255l-1.098-1.209-.213-.234-1.003-1.104.314-.314Z"/>
      <polygon class="cls-1" points="418.575 310.817 418.79 311.032 418.415 311.408 418.202 311.173 418.575 310.817"/>
      <path class="cls-1" d="m417.485,312.283l3.057-3.057c.013-.013-.004-.042-.025-.043l-.353-.017c-.277-.013-.518.077-.68.255l-2.313,2.548.314.314Z"/>
      <circle class="cls-1" cx="418.382" cy="311" r=".114"/>
    </g>
    <g>
      <path class="cls-1" d="m403.203,300.162c-.415,0-.753-.338-.753-.753s.338-.753.753-.753.753.338.753.753-.338.753-.753.753Zm0-1.25c-.274,0-.497.223-.497.497s.223.497.497.497.497-.223.497-.497-.223-.497-.497-.497Z"/>
      <path class="cls-1" d="m403.203,297.109c-.415,0-.753-.338-.753-.753s.338-.753.753-.753.753.338.753.753-.338.753-.753.753Zm0-1.25c-.274,0-.497.223-.497.497s.223.497.497.497.497-.223.497-.497-.223-.497-.497-.497Z"/>
      <path class="cls-1" d="m403.882,296.645l1.061,1.061.216.216,1.78,1.78c.013.013-.004.042-.025.043l-.353.017c-.277.013-.518-.077-.68-.255l-1.098-1.209-.213-.234-1.003-1.104.314-.314Z"/>
      <polygon class="cls-1" points="404.943 297.707 405.159 297.922 404.783 298.298 404.571 298.063 404.943 297.707"/>
      <path class="cls-1" d="m403.853,299.173l3.057-3.057c.013-.013-.004-.042-.025-.043l-.353-.017c-.277-.013-.518.077-.68.255l-2.313,2.548.314.314Z"/>
      <circle class="cls-1" cx="404.751" cy="297.89" r=".114"/>
    </g>
    <g>
      <path class="cls-1" d="m419.198,290c-.415,0-.753-.338-.753-.753s.338-.753.753-.753.753.338.753.753-.338.753-.753.753Zm0-1.25c-.274,0-.497.223-.497.497s.223.497.497.497.497-.223.497-.497-.223-.497-.497-.497Z"/>
      <path class="cls-1" d="m419.198,286.947c-.415,0-.753-.338-.753-.753s.338-.753.753-.753.753.338.753.753-.338.753-.753.753Zm0-1.25c-.274,0-.497.223-.497.497s.223.497.497.497.497-.223.497-.497-.223-.497-.497-.497Z"/>
      <path class="cls-1" d="m419.877,286.483l1.061,1.061.216.216,1.78,1.78c.013.013-.004.042-.025.043l-.353.017c-.277.013-.518-.077-.68-.255l-1.098-1.209-.213-.234-1.003-1.104.314-.314Z"/>
      <polygon class="cls-1" points="420.938 287.545 421.154 287.761 420.778 288.136 420.566 287.902 420.938 287.545"/>
      <path class="cls-1" d="m419.848,289.012l3.057-3.057c.013-.013-.004-.042-.025-.043l-.353-.017c-.277-.013-.518.077-.68.255l-2.313,2.548.314.314Z"/>
      <circle class="cls-1" cx="420.746" cy="287.728" r=".114"/>
    </g>
  </g>
  <text class="cls-6" transform="translate(15.754 364.67)"><tspan x="0" y="0">세포질</tspan></text>
  <text class="cls-5" transform="translate(141.067 25.29)"><tspan x="0" y="0">endocytosis</tspan></text>
  <text class="cls-5" transform="translate(386.087 347.153)"><tspan x="0" y="0">exocytosis</tspan></text>
  <text class="cls-5" transform="translate(377.51 55.255)"><tspan x="0" y="0">탐식소체</tspan></text>
  <text class="cls-5" transform="translate(425.352 253.793)"><tspan x="0" y="0">탐식-리소좀</tspan></text>
  <text class="cls-5" transform="translate(424.404 114.988)"><tspan x="0" y="0">리소좀</tspan></text>
  <text class="cls-9" transform="translate(64.108 96.009)"><tspan x="0" y="0">인식</tspan></text>
  <text class="cls-9" transform="translate(244.804 115.827)"><tspan x="0" y="0">포획</tspan></text>
  <text class="cls-9" transform="translate(321.186 203.146)"><tspan x="0" y="0">분해</tspan></text>
  <text class="cls-9" transform="translate(299.232 351.003)"><tspan x="0" y="0">면역조율</tspan></text>
</svg>