<?xml version="1.0" encoding="utf-8"?>
<!-- Generator: Adobe Illustrator 28.0.0, SVG Export Plug-In . SVG Version: 6.00 Build 0)  -->
<svg version="1.1" id="_레이어_1" xmlns="http://www.w3.org/2000/svg" xmlns:xlink="http://www.w3.org/1999/xlink" x="0px"
	 y="0px" viewBox="0 0 438.8 310.9" style="enable-background:new 0 0 438.8 310.9;" xml:space="preserve">
<style type="text/css">
	.st0{fill:#FFFFFF;}
	.st1{fill:none;}
	.st2{fill:#CB5644;}
	.st3{fill:#272F3B;}
	.st4{fill:#EC9778;}
	.st5{fill:#4E3020;}
	.st6{fill:#E3E3E3;}
	.st7{fill:#E0856E;}
	.st8{fill:#EFA47C;}
	.st9{fill:url(#SVGID_1_);}
	.st10{fill:#492B1C;}
	.st11{fill:#E67A6C;}
	.st12{fill:#C96D5F;}
	.st13{opacity:0.47;fill:#EA8B74;enable-background:new    ;}
	.st14{fill:none;stroke:#010100;stroke-width:8.500000e-02;stroke-miterlimit:10;}
	.st15{fill:#363E4D;}
	.st16{fill:#CC5553;}
	.st17{fill:#5D3C2B;}
	.st18{opacity:0.28;fill:#FFFFFF;enable-background:new    ;}
	.st19{fill:#414445;}
	.st20{fill:none;stroke:#F4BB1C;stroke-width:4.56;stroke-miterlimit:8;}
	.st21{fill:none;stroke:#E7211B;stroke-width:4.56;stroke-miterlimit:8;}
	.st22{fill:none;stroke:#23A5DE;stroke-width:4.56;stroke-miterlimit:8;}
	.st23{fill:none;stroke:#010100;stroke-width:0.96;stroke-miterlimit:8;}
	.st24{fill:#010100;}
	.st25{font-family:'NotoSansCJKkr-Regular-KSCpc-EUC-H';}
	.st26{font-size:12px;}
	.st27{font-size:11.04px;}
	.st28{font-family:'NotoSansCJKjp-Bold-90ms-RKSJ-H';}
	.st29{font-size:15.96px;}
	.st30{fill:none;stroke:#010100;stroke-width:0.48;stroke-miterlimit:8;}
	.st31{fill-rule:evenodd;clip-rule:evenodd;fill:#010100;}
	.st32{fill:none;stroke:#7F7F7F;stroke-width:0.48;stroke-miterlimit:8;}
	.st33{fill-rule:evenodd;clip-rule:evenodd;fill:#7F7F7F;}
	.st34{fill-rule:evenodd;clip-rule:evenodd;fill:#F4BB1C;}
	.st35{fill-rule:evenodd;clip-rule:evenodd;fill:#B51E23;}
	.st36{fill:#90BEC6;}
	.st37{fill:#7DB0B6;}
	.st38{fill:#C4E0E1;}
	.st39{fill:#B1D3D4;}
	.st40{fill:#52BBA4;}
	.st41{fill:#39A48C;}
	.st42{fill:#B1D5D9;}
	.st43{fill:#EC6549;}
	.st44{fill:#4D6D80;}
	.st45{fill:#D94C3D;}
	.st46{fill:#3C5467;}
	.st47{fill:#E8BE23;}
	.st48{fill:#DCA917;}
	.st49{fill:#9FA6A9;}
	.st50{fill:#788184;}
	.st51{fill:#488476;}
	.st52{fill:#F1B37B;}
	.st53{fill:#F6BE86;}
	.st54{fill:#8A633E;}
	.st55{fill:#D5CBBF;}
	.st56{fill:#C15131;}
	.st57{fill:#7D5634;}
	.st58{fill:#528E82;}
	.st59{fill:#785034;}
	.st60{fill:#674127;}
	.st61{fill:#443328;}
</style>
<rect x="0.5" y="0.5" class="st0" width="437.9" height="310.4"/>
<g>
	<line class="st1" x1="372.9" y1="211.2" x2="374.2" y2="208.6"/>
	<polygon class="st2" points="372.9,211.2 375.8,209.9 374.2,208.6 	"/>
	<polygon class="st2" points="357.6,215.7 354.5,212.9 354,214.9 	"/>
	<g>
		<polygon class="st3" points="391.3,290 377.5,281 359.9,291.8 358.7,299.2 393.1,299.2 		"/>
		<path class="st4" d="M361.6,224.5c0.8-0.2,1.6-0.5,2.4-0.9c0.7-0.4,1.4-1.1,1.7-1.8c0.1-0.2,0.2-0.5,0.1-0.8
			c0-0.4-0.3-0.7-0.6-0.9c-0.3-0.2-0.7-0.3-1.1-0.3c-1.1-0.1-2.3,0.1-3.4,0.6C360.9,221.8,361.2,223,361.6,224.5L361.6,224.5z"/>
		<path class="st4" d="M357.5,222.1c0.5-1.2,1-2.4,1.8-3.5c0.2-0.3,0.4-0.6,0.6-0.8c0.7-0.6,1.6-0.9,2.5-1c0.9-0.1,1.9,0,2.8-0.2
			C362.7,218.7,360.1,220.3,357.5,222.1L357.5,222.1z"/>
		<path class="st4" d="M391.4,222.6c-0.5-1.2-1-2.4-1.8-3.5c-0.2-0.3-0.4-0.6-0.6-0.8c-0.7-0.6-1.6-0.9-2.5-1
			c-0.9-0.1-1.9,0-2.8-0.2C386.2,219.1,388.8,220.8,391.4,222.6L391.4,222.6z"/>
		<path class="st4" d="M361.7,220.4c0.3-0.7,1-1.2,1.7-1.4c0.7-0.2,1.5-0.3,2.3-0.4c0.2,0,0.5-0.1,0.7-0.2c0.2-0.1,0.4-0.3,0.3-0.5
			c0-0.3-0.4-0.5-0.7-0.7c-0.7-0.3-1.6-0.4-2.4-0.3C362.7,217.7,362,219.1,361.7,220.4L361.7,220.4z"/>
		<path class="st4" d="M387.3,225c-0.8-0.2-1.6-0.5-2.4-0.9c-0.7-0.4-1.4-1.1-1.7-1.8c-0.1-0.2-0.2-0.5-0.1-0.8
			c0-0.4,0.3-0.7,0.6-0.9c0.3-0.2,0.7-0.3,1.1-0.3c1.1-0.1,2.3,0.1,3.4,0.6C388,222.2,387.7,223.5,387.3,225L387.3,225z"/>
		<path class="st5" d="M363.5,218c-0.5-0.6-0.7-1.9-0.3-2.7c-0.2,0.1-0.3,0.2-0.4,0.3c-0.4,0.5-0.8,0.9-1,1.5
			c-0.3,0.6-0.3,1.2-0.1,1.8c-0.7-0.8-1.2-1.7-1.5-2.7c-0.3,0.5-0.2,1.2,0,1.8c0.2,0.6,0.6,1.1,1,1.5c-0.9-0.3-1.7-0.6-2.6-0.9
			c0.4,0.1,0.8,0.4,1.1,0.7c0.2,0.2,0.5,0.4,0.6,0.7c0.1,0.2,0.1,0.5,0.1,0.7c0,0.7,0.1,1.4,0.4,2.1c0.2,0.4,0.4,0.7,0.7,0.9
			c0.3,0.2,0.6,0.2,0.9,0.2c1.2,0,2.3-0.7,3.1-1.4c0.2-0.2,1.6-1.2,1.7-1.5C365.3,220.7,364.1,218.7,363.5,218L363.5,218z"/>
		<polygon class="st6" points="379.8,248.4 369,248.4 367.7,249.5 370.1,258.3 379.7,258.3 380.8,249.2 		"/>
		<path class="st7" d="M375.8,239.8l-1.5-0.2l-1.5,0.2l-3.3,0.5c0,0.1-0.2,3.8-0.3,6.9c0.2,0.1,0.3,0.3,0.5,0.4
			c0.8,0.6,1.7,1.1,2.7,1.5c0,0,0,0,0,0c1.4,0.5,2.9,0.5,4.3,0c0,0,0,0,0,0c0.9-0.3,1.8-0.8,2.6-1.4c-0.1-3.2-0.3-7.2-0.3-7.3
			L375.8,239.8L375.8,239.8z"/>
		<path class="st5" d="M382.6,239.3c2.8-2.3,4.1-6,4.5-9.7c0.2,0.3,0.8,0.2,1.3,0.2c0-1.7-1.8-4.2-2.6-5.7c0.3,0.2,0.8,0.3,1.2,0.2
			c-0.7-2.3-3.1-3.7-5.4-4.6c0.4,0,0.8-0.1,1.2-0.3c-2.2-2.1-5.6-2.2-8.6-2.2c0.6-0.6,1.3-1.2,1.9-1.7c-2.8-0.7-6,0.1-8.1,2.1
			c0-0.9,0.2-1.9,0.4-2.8c-1,0.9-2,1.8-2.8,3c-0.8,1.1-1.3,2.7-1.1,4.1c-2.2,0.4-4.1,2.2-4.6,4.4c0.7-0.1,1.3-0.2,2-0.2
			c-1.1,1.6-1.7,3.5-1.7,5.4c0.5-0.2,1-0.5,1.4-0.9c-0.1,1.9,0.5,3.8,1.6,5.2s2.8,2.5,4.6,2.9c0-0.1,0.1-0.5,0.1-0.5
			c0,0.1,0.1,0.1,0.2,0.1C372.5,238.3,378.4,239.6,382.6,239.3L382.6,239.3z"/>
		<path class="st8" d="M382.6,239.3c-0.3,1.6-0.8,3.1-1.8,4.4c-0.5,0.6-1,1.1-1.6,1.6c-0.8,0.6-1.7,1.1-2.7,1.5c0,0,0,0,0,0
			c-1.4,0.5-2.9,0.5-4.3,0c0,0,0,0,0,0c-1-0.4-1.9-0.9-2.7-1.5c-0.6-0.4-1.2-1-1.6-1.6c-1-1.3-1.5-2.8-1.8-4.4
			c-1-4.6-0.9-9.4-0.8-14.1l6.4-0.8l2.7-0.3l2.7,0.3l6.4,0.8C383.6,229.9,383.6,234.6,382.6,239.3L382.6,239.3z"/>
		
			<linearGradient id="SVGID_1_" gradientUnits="userSpaceOnUse" x1="374.1058" y1="78.5627" x2="374.4458" y2="86.1737" gradientTransform="matrix(1 0 0 -1 0 311.8898)">
			<stop  offset="0" style="stop-color:#EFA47C"/>
			<stop  offset="1" style="stop-color:#D25555"/>
		</linearGradient>
		<path class="st9" d="M382.6,239.3c-0.3,1.6-0.8,3.1-1.8,4.4c-0.5,0.6-1,1.1-1.6,1.6c-0.8,0.6-1.7,1.1-2.7,1.5c0,0,0,0,0,0
			c-1.4,0.5-2.9,0.5-4.3,0c0,0,0,0,0,0c-1-0.4-1.9-0.9-2.7-1.5c-0.6-0.4-1.2-1-1.6-1.6c-1-1.3-1.5-2.8-1.8-4.4
			c-1-4.6-0.9-9.4-0.8-14.1l6.4-0.8l2.7-0.3l2.7,0.3l6.4,0.8C383.6,229.9,383.6,234.6,382.6,239.3L382.6,239.3z"/>
		<path class="st8" d="M376.8,249.1c-1.4,0.5-2.9,0.5-4.3,0c0,0,0,0,0,0c-1-0.4-1.9-0.9-2.7-1.5c-0.2-0.1-0.3-0.2-0.5-0.4
			c-0.1,2.3-0.2,4.3-0.2,4.3l3.8,3.5l1,0.1l0.4,0l0.4,0l1-0.1l3.8-3.5c0,0-0.1-1.8-0.2-3.9C378.6,248.2,377.7,248.7,376.8,249.1
			C376.8,249,376.8,249.1,376.8,249.1L376.8,249.1z"/>
		<path class="st10" d="M369.9,236.5c-0.1,0-0.2-0.1-0.3-0.2c-0.1-0.2-0.1-0.4,0.1-0.5l1.1-0.7c-0.5,0-1-0.1-1.6,0
			c-0.2,0-0.4-0.1-0.4-0.3c0-0.2,0.1-0.4,0.3-0.4c0.9,0,1.8,0,2.7,0.1c0.1,0,0.3,0.1,0.3,0.3c0,0.1,0,0.3-0.2,0.4l-1.9,1.2
			C370,236.5,369.9,236.5,369.9,236.5L369.9,236.5z"/>
		<path class="st10" d="M378.8,236.5c-0.1,0-0.1,0-0.2-0.1l-1.9-1.2c-0.1-0.1-0.2-0.2-0.2-0.4c0-0.1,0.1-0.2,0.3-0.3
			c0.9-0.1,1.8-0.2,2.7-0.1c0.2,0,0.3,0.2,0.3,0.4c0,0.2-0.2,0.3-0.4,0.3c-0.5,0-1,0-1.6,0l1.1,0.7c0.2,0.1,0.2,0.3,0.1,0.5
			C379.1,236.4,379,236.5,378.8,236.5L378.8,236.5z"/>
		<path class="st0" d="M377.7,243.1c-0.5,0.3-1.2,0.2-1.6-0.3c-0.3-0.3-0.5-0.6-0.8-0.9c0,0,0,0,0,0c-0.4-0.3-0.9-0.3-1.2,0
			c0,0,0,0,0,0c-0.3,0.3-0.5,0.6-0.8,0.9c-0.5,0.4-1.1,0.6-1.7,0.3c-0.5-0.3-0.9-1.1-0.8-1.9c0.1-0.4,0.3-0.8,0.5-1.1
			c0.5-0.5,1.1-0.7,1.7-0.7c0.2,0,0.4,0,0.6,0.1c0.7,0.1,1.5,0.1,2.2,0c0.2,0,0.4-0.1,0.6-0.1c0.6,0,1.2,0.2,1.7,0.7
			c0.3,0.3,0.5,0.7,0.5,1.1C378.7,241.9,378.3,242.8,377.7,243.1L377.7,243.1z"/>
		<path class="st11" d="M373.2,237.2L373.2,237.2c0,0.8,0.6,1.4,1.4,1.4s1.4-0.6,1.4-1.4v0H373.2z"/>
		<path class="st5" d="M383.8,218.1c0.7-0.4,1.4-0.9,2.2-1.1c0.5-0.1,1-0.1,1.5-0.1c-1.3,0.6-2.4,1.5-3.2,2.6c1.2-1.1,3.1-1,4.6-1.9
			c-0.6,0.9-1.4,1.6-2.3,2c1.4,0.2,2.8,0,4-0.7c-0.9,0.9-2,1.5-3.2,1.9c-1.2,0.4-2.4,0.6-3.7,0.8c-0.4,0.1-0.7,0.1-1.1,0.1
			c-0.7-0.1-1.3-0.5-1.6-1.2c-0.2-0.5-0.2-1.4,0.5-1.7c0.3-0.1,0.7-0.1,1.1-0.2C383,218.6,383.4,218.4,383.8,218.1L383.8,218.1z"/>
		<g>
			<path class="st8" d="M381.3,241.8c1.3,0.1,2.6-0.3,3.6-1c1-0.8,1.7-2,1.7-3.2c0-0.7-0.2-1.5-0.7-1.9c-0.4-0.3-1-0.4-1.5-0.3
				c0,0,0,0,0,0c-1,0.1-1.8,0.9-2.1,1.9L381.3,241.8L381.3,241.8z"/>
			<g>
				<path class="st12" d="M384.1,237.4c0.1,0,0.1,0.1,0.2,0.1c0.2,0.2,0.4,0.5,0.4,0.8c0,0.3-0.1,0.6-0.3,0.9c0,0-0.1,0-0.1,0
					c0,0-0.1,0-0.1,0c0,0-0.1-0.1,0-0.2c0.2-0.2,0.3-0.4,0.3-0.7c0-0.3-0.1-0.5-0.3-0.7c-0.1-0.1-0.2-0.1-0.3-0.2
					c-0.4,0.3-0.8,0.7-1,1.2c0,0-0.1,0.1-0.1,0.1c0,0,0,0,0,0c-0.1,0-0.1-0.1-0.1-0.2c0.2-0.6,0.7-1.1,1.2-1.4
					c0.5-0.3,1.2-0.4,1.8-0.2c0.1,0,0.1,0.1,0.1,0.1c0,0.1-0.1,0.1-0.1,0.1C385.1,237.1,384.6,237.2,384.1,237.4L384.1,237.4z"/>
				<path class="st12" d="M382.1,239.8c0-0.1,0.1-0.1,0.2,0c0.6,0.4,1.4,0.1,2-0.2c0.3-0.2,0.8-0.6,1-1.1c0-0.1,0.1-0.1,0.2-0.1
					c0.1,0,0.1,0.1,0.1,0.2c-0.2,0.6-0.7,1-1.1,1.3c-0.4,0.2-0.9,0.4-1.4,0.4c-0.3,0-0.6-0.1-0.8-0.2
					C382.1,240,382,239.9,382.1,239.8L382.1,239.8z"/>
			</g>
		</g>
		<path class="st10" d="M370.7,231.1c0.2-0.2,0.5-0.4,0.8-0.3c0.3,0,0.5,0.3,0.5,0.6s-0.1,0.6-0.2,0.8c-0.3,0.5-0.9,0.8-1.4,1
			c-0.4,0.2-0.9,0.3-1.3,0.4c-0.3,0-0.5,0.1-0.8,0c-0.3-0.1-0.5-0.2-0.6-0.5c-0.3-0.7,0.7-0.8,1.1-0.9
			C369.5,232,370.1,231.6,370.7,231.1z"/>
		<path class="st10" d="M377.9,231.1c-0.2-0.2-0.5-0.4-0.8-0.3c-0.3,0-0.5,0.3-0.5,0.6s0.1,0.6,0.2,0.8c0.3,0.5,0.9,0.8,1.4,1
			c0.4,0.2,0.9,0.3,1.3,0.4c0.3,0,0.5,0.1,0.8,0c0.3-0.1,0.5-0.2,0.6-0.5c0.3-0.7-0.7-0.8-1.1-0.9
			C379.1,232,378.5,231.6,377.9,231.1L377.9,231.1z"/>
		<path class="st5" d="M364.1,236.9c1.6-3.2,3.1-7.1,2.3-10.6c1.3,1.3,3,2.1,4.9,2.2c-0.2-0.8-0.6-1.5-1.1-2.1c2,1.1,4.4,1.5,6.6,1
			c-0.3-0.6-0.7-1.1-1.3-1.5c0.6,0.7,1.6,0.8,2.5,0.9c1.5,0.1,3,0.1,4.6,0c0.2,2.8,0.6,5.7,1.7,8.4c-0.1-3.4-0.3-6.7-0.6-10.1
			c-0.1-0.7-0.1-1.4-0.6-1.8c-0.4-0.4-0.9-0.5-1.4-0.5c-2.2-0.3-4.4,0-6.5,0.2c-3,0.4-5.9,0.9-8.9,1.4c-0.5,0.1-1.1,0.2-1.5,0.6
			c-0.8,0.6-0.9,1.8-0.9,2.8C363.9,230.8,363,234.1,364.1,236.9L364.1,236.9z"/>
		<path class="st8" d="M358.3,231.2c0.9-1.4,2.6-2,3.8-3.2c0.7-0.7,1.3-1.5,1.7-2.5c0.1-0.4,0.2-0.8,0.5-1.1c0.4-0.5,1-0.8,1.6-1.1
			c0.6-0.3,1.1-0.9,1.1-1.5c0-0.2-0.1-0.4-0.3-0.5c-0.3-0.2-0.7,0-1,0.2c-0.7,0.5-1.5,0.9-2.3,1.2c-0.4,0.2-0.8,0.3-1.2,0.3
			c0.1-0.4,0.5-0.6,0.8-0.8c1.1-0.7,2.3-1.4,3.6-1.9c0.3-0.1,0.6-0.3,0.8-0.5c0.2-0.2,0.3-0.6,0.1-0.9c-0.2-0.2-0.6-0.2-0.9-0.2
			c-1.7,0.2-3.3,1-4.9,1.9c0.9-1,2-1.7,3.2-2.1c0.6-0.2,1.4-0.4,1.7-1c0.1-0.1,0.1-0.3,0.1-0.4c-0.1-0.4-0.5-0.5-0.9-0.5
			c-1.4,0-2.7,0.9-4,1.6c-1,0.6-2.2,1-3,1.8c-0.6,0.6-1,1.4-1.4,2.1c-0.9,1.7-1.7,3.4-2.6,5.2C355.8,228.7,356.9,230.2,358.3,231.2
			L358.3,231.2z"/>
		<g>
			<path class="st8" d="M367.2,241.8c-1.3,0.1-2.6-0.3-3.6-1c-1-0.8-1.7-2-1.7-3.2c0-0.7,0.2-1.5,0.7-1.9c0.4-0.3,1-0.4,1.5-0.3
				c0,0,0,0,0,0c1,0.1,1.8,0.9,2.1,1.9L367.2,241.8L367.2,241.8z"/>
			<g>
				<path class="st12" d="M364.4,237.4c-0.1,0-0.1,0.1-0.2,0.1c-0.2,0.2-0.4,0.5-0.4,0.8c0,0.3,0.1,0.6,0.3,0.9c0,0,0.1,0,0.1,0
					c0,0,0.1,0,0.1,0c0,0,0.1-0.1,0-0.2c-0.2-0.2-0.3-0.4-0.3-0.7c0-0.3,0.1-0.5,0.3-0.7c0.1-0.1,0.2-0.1,0.3-0.2
					c0.4,0.3,0.8,0.7,1,1.2c0,0,0.1,0.1,0.1,0.1c0,0,0,0,0,0c0.1,0,0.1-0.1,0.1-0.2c-0.2-0.6-0.7-1.1-1.2-1.4
					c-0.5-0.3-1.2-0.4-1.8-0.2c-0.1,0-0.1,0.1-0.1,0.1c0,0.1,0.1,0.1,0.1,0.1C363.4,237.1,363.9,237.2,364.4,237.4L364.4,237.4z"/>
				<path class="st12" d="M366.4,239.8c0-0.1-0.1-0.1-0.2,0c-0.6,0.4-1.4,0.1-2-0.2c-0.3-0.2-0.8-0.6-1-1.1c0-0.1-0.1-0.1-0.2-0.1
					c-0.1,0-0.1,0.1-0.1,0.2c0.2,0.6,0.7,1,1.1,1.3c0.4,0.2,0.9,0.4,1.4,0.4c0.3,0,0.6-0.1,0.8-0.2
					C366.4,240,366.5,239.9,366.4,239.8L366.4,239.8z"/>
			</g>
		</g>
		<path class="st13" d="M381.6,238.6c0,0.9-0.7,1.6-1.6,1.6s-1.6-0.7-1.6-1.6s0.7-1.6,1.6-1.6S381.6,237.7,381.6,238.6z"/>
		<path class="st13" d="M370.8,238.6c0,0.9-0.7,1.6-1.6,1.6s-1.6-0.7-1.6-1.6s0.7-1.6,1.6-1.6S370.8,237.7,370.8,238.6z"/>
		<polygon class="st0" points="376.8,282.9 379.7,258.3 370.1,258.3 		"/>
		<path class="st14" d="M350.1,247.2c-0.1,0-4-0.3-4.2,0.6C345.8,248.6,350.1,247.2,350.1,247.2z"/>
		<path class="st0" d="M358.9,232.6c0-0.4,0.1-0.7,0.3-1l0.6-0.9l-5.2-4.2c0,0-0.5,0.7-1.4,1.8C354.5,229.3,357,231.3,358.9,232.6
			C358.9,232.7,358.9,232.7,358.9,232.6z"/>
		<path class="st15" d="M358.9,232.7c-1.9-1.4-4.4-3.4-5.6-4.4c0,0,0,0,0,0L358.9,232.7C358.9,232.7,358.9,232.7,358.9,232.7
			L358.9,232.7z"/>
		<path class="st15" d="M395.6,228.4l-5.6,4.3c0,0,0,0,0,0c0,0.1,0,0.3-0.1,0.4c-0.1,0.5,0,1,0.2,1.4l8.2,12.7l-13.5,3.4
			c-1.1,0.3-2.3,0-3.3-0.7l-0.8-0.6l-1.1,9l-3,24.6l-6.7-24.6l-2.4-8.8l-0.4,0.3c-0.9,0.7-2.1,1-3.3,0.7l-13.5-3.4l8.2-12.7
			c0.3-0.4,0.3-0.9,0.2-1.4c0-0.1,0-0.2,0-0.3l-5.7-4.4c-3.9,4.9-14.4,18.9-14.1,23.1c0.4,5.2,20.2,12.2,20.2,12.2
			s-0.8,28.8-1.2,32.8l35.2,0c-0.7-3.6-3.8-32.8-3.8-32.8s19.8-7,20.2-12.2C410.1,247.2,399.5,233.3,395.6,228.4L395.6,228.4z"/>
		<polygon class="st16" points="378.3,270.1 375.7,258.3 377.4,256.5 375,254.8 374.8,254.8 372.4,256.5 374.1,258.3 373.3,270 
			376.8,282.9 		"/>
		<path class="st0" d="M369.3,247.8l5.5,7l-4.7,3.5l-2.3-8.6c-0.1-0.3,0-0.7,0.3-0.9L369.3,247.8L369.3,247.8z"/>
		<path class="st0" d="M379.4,247.8l-4.6,7c0,0,4.9,3.6,4.9,3.5c0-0.1,1-7.1,1.2-8.8c0-0.2-0.1-0.5-0.2-0.6L379.4,247.8L379.4,247.8
			z"/>
		<path class="st4" d="M387.1,220.8c-0.3-0.7-1-1.2-1.7-1.4c-0.7-0.2-1.5-0.3-2.3-0.4c-0.2,0-0.5-0.1-0.7-0.2
			c-0.2-0.1-0.4-0.3-0.3-0.5c0-0.3,0.3-0.5,0.7-0.7c0.7-0.3,1.6-0.4,2.4-0.3C386.2,218.2,386.8,219.5,387.1,220.8L387.1,220.8z"/>
		<path class="st8" d="M390.6,231.7c-0.9-1.4-2.6-2-3.8-3.2c-0.7-0.7-1.3-1.5-1.7-2.5c-0.1-0.4-0.2-0.8-0.5-1.1
			c-0.4-0.5-1-0.8-1.6-1.1c-0.6-0.3-1.1-0.9-1.1-1.5c0-0.2,0.1-0.4,0.3-0.5c0.3-0.2,0.7,0,1,0.2c0.7,0.5,1.5,0.9,2.3,1.2
			c0.4,0.2,0.8,0.3,1.2,0.3c-0.1-0.4-0.5-0.6-0.8-0.8c-1.1-0.7-2.3-1.4-3.6-1.9c-0.3-0.1-0.6-0.3-0.8-0.5c-0.2-0.2-0.3-0.6-0.1-0.9
			c0.2-0.2,0.6-0.2,0.9-0.2c1.7,0.2,3.3,1,4.9,1.9c-0.9-1-2-1.7-3.2-2.1c-0.6-0.2-1.4-0.4-1.7-1c-0.1-0.1-0.1-0.3-0.1-0.4
			c0.1-0.4,0.5-0.5,0.9-0.5c1.4,0,2.7,0.9,4,1.6c1,0.6,2.2,1,3,1.8c0.6,0.6,1,1.4,1.4,2.1c0.9,1.7,1.7,3.4,2.6,5.2
			C393.1,229.1,392,230.6,390.6,231.7L390.6,231.7z"/>
		<path class="st0" d="M394.2,226.6l-5.2,4.2l0.6,0.9c0.2,0.3,0.3,0.6,0.3,1l5.6-4.3C394.8,227.3,394.2,226.6,394.2,226.6z"/>
		<path class="st5" d="M363.4,225.1c-0.9,0.5-1.5,1.4-1.7,2.4c0.2-0.2,0.4-0.5,0.6-0.7c-0.1,0.9,0.1,1.9,0.7,2.6
			c0.4-0.4,0.8-0.8,1.1-1.2c0.6-0.9,0.8-2,0.9-3.1c0-0.1,0.1-0.4,0-0.6c-0.1-0.1-0.3,0-0.4,0.1C364.1,224.8,363.8,224.9,363.4,225.1
			z"/>
		<path class="st5" d="M364,219.8c0.4-0.1,0.7,0.1,1,0.4c-0.7,0.1-1.4,0.2-1.9,0.6c0.3-0.1,0.7-0.1,1.1,0c-0.6,0.3-1.1,0.7-1.5,1.2
			c0.2,0,0.4,0,0.6,0c0.1,0,0.2,0.1,0.3,0.1c0.1,0,0.2-0.1,0.3-0.1c0.5-0.3,1.1-0.6,1.6-0.9c0.5-0.3,1.2-0.5,1.7-0.8
			c-0.1-0.2-0.5-0.3-0.7-0.3c-0.3-0.1-0.5-0.2-0.8-0.2C365.1,219.7,364.5,219.7,364,219.8L364,219.8z"/>
		<path class="st5" d="M385.2,227.7c0.2-0.2,0.2-0.5,0.2-0.8c0-0.3-0.1-0.6-0.1-0.9c0.3,0.2,0.5,0.3,0.8,0.5c0-0.1,0-0.2,0-0.2
			c-0.3-0.7-0.6-1.3-1.2-1.8c0.3,0,0.6,0.1,0.9,0.1c-0.2-0.4-0.6-0.7-1.1-0.9c-0.4-0.2-0.9-0.2-1.4-0.3c0.3,0,0.6,0,1,0
			c-0.2-0.3-0.6-0.5-1-0.6c-0.4-0.1-0.8,0-1.2,0c-0.2,0-0.4,0-0.5-0.2c0.1,0.5,0.3,1,0.5,1.5c0.3,0.7,0.9,1.4,1.4,1.9
			S384.6,227.1,385.2,227.7L385.2,227.7z"/>
		<path class="st5" d="M385.8,222.8c0.1,0,0.1-0.2,0-0.3c-0.2-0.3-0.4-0.6-0.7-0.8c0.3,0,0.7,0,1,0c-0.5-0.5-1.3-0.7-2-0.6
			c0.2-0.1,0.5-0.3,0.7-0.4c-0.3-0.3-0.7-0.3-1.2-0.3c-0.5,0.1-1.1,0.2-1.6,0.3c0.5,0.3,0.9,0.5,1.4,0.8
			C384.2,222,385,222.4,385.8,222.8L385.8,222.8z"/>
		<path class="st17" d="M374.4,217.9c0.4,0,0.9,0.2,1,0.6c0.1,0.2,0,0.5-0.1,0.7c-0.1,0.2-0.3,0.3-0.5,0.5c-0.4,0.3-0.9,0.5-1.3,0.6
			c-0.2,0.1-0.4,0.1-0.5,0.3c-0.1,0.2-0.1,0.4,0,0.5c0.1,0.4,0.4,0.9,0.1,1.2c-0.2,0.2-0.5,0.3-0.8,0.3c-0.3-0.1-0.5-0.2-0.8-0.3
			c-0.3-0.1-0.6-0.2-0.9-0.1c-0.6,0.2-0.6,1-1,1.5c-0.4,0.4-1,0.4-1.5,0.3c-0.1,0-0.2,0-0.2,0c-0.1,0.1,0,0.3,0.2,0.4
			c0.6,0.3,1.4,0.4,2.1,0.4c0.9,0,1.7,0,2.6-0.2c0.2-0.1,0.3-0.1,0.4-0.3c0.1-0.1,0.2-0.3,0.1-0.5c-0.1-0.1-0.2-0.3-0.1-0.4
			c0,0,0.1-0.1,0.1-0.1c0.7-0.2,1.4-0.2,2.1-0.4c0.2-0.1,0.5-0.1,0.7-0.3c0.2-0.2,0.3-0.5,0.2-0.7c-0.1-0.1-0.2-0.2-0.3-0.4
			c-0.1-0.1-0.1-0.3,0-0.4c0.1-0.1,0.1-0.1,0.2-0.1c0.6-0.1,1.3-0.2,1.9-0.5c0.2-0.1,0.4-0.3,0.4-0.5c0-0.1-0.1-0.3-0.2-0.4
			c-0.7-0.9-1.7-1.5-2.8-1.8c-0.9-0.2-1.8-0.1-2.6,0c-0.1,0-0.3,0.1-0.2,0.2c0.1,0.1,0.5,0,0.6,0C373.6,217.8,374,217.8,374.4,217.9
			L374.4,217.9z"/>
		<polygon class="st15" points="358.7,299.2 358.4,301.2 393.5,301.2 393.1,299.2 		"/>
		<polygon class="st3" points="373.7,297.8 377.1,297.7 377.1,287.2 		"/>
		<path class="st18" d="M366.5,235.5c0,0.1,0,0.2,0,0.2c0.1,0.1,0.2,0.1,0.3,0.1c0.1,0,0.2-0.1,0.2-0.2c0.2-0.3,0.1-0.6,0-0.9
			c-0.1-0.2-0.1-0.5-0.2-0.7C366.6,234.5,366.5,235.1,366.5,235.5L366.5,235.5z"/>
		<path class="st18" d="M381.8,234.1c0,0.1,0,0.3,0.1,0.4c0.1,0.1,0.2,0.2,0.3,0.2c0.2,0,0.3-0.2,0.4-0.3c0.1-0.2,0.1-0.5,0-0.8
			c-0.1-0.3-0.2-0.5-0.3-0.7c-0.1-0.2-0.1-0.4-0.2-0.5C381.8,232.7,381.8,233.6,381.8,234.1L381.8,234.1z"/>
		<path class="st18" d="M372.4,233.5c0,0.1,0,0.2,0.1,0.3c0.1,0.1,0.2,0.1,0.3,0c0.1,0,0.2-0.1,0.2-0.2c0.1-0.1,0.1-0.1,0.1-0.2
			c0-0.1,0.1-0.2,0.1-0.3c0-0.4,0-0.8-0.1-1.1C372.6,232.1,372.4,233.1,372.4,233.5L372.4,233.5z"/>
		<path class="st19" d="M361.3,215.7c-0.3,0-0.5-0.1-0.9-0.2c-0.5-0.2-0.9-0.6-1-1c-0.6-0.1-1-0.2-1.3-0.5c-0.3-0.3-0.5-0.7-0.4-1
			c-0.4-0.2-0.7-0.5-0.9-0.9c0,0,0,0,0,0c-0.7-0.6-1-1.5-0.9-2.5c-0.1-0.2-0.1-0.3-0.1-0.5c-0.1-0.8,0.4-1.6,1.2-2.3c0,0,0,0,0.1,0
			c0-0.2,0.1-0.5,0.2-0.7c0.1-0.8,0.8-1.7,1.9-2.1c0.3-0.2,0.6-0.4,0.9-0.5c0.2-0.3,0.4-0.5,0.6-0.7c0,0,0,0,0-0.1
			c0-0.5,0.4-0.9,0.7-1.1c0.8-0.6,1.9-0.8,2.9-0.6c0.5-0.2,1.1-0.2,1.7-0.1c0.3,0,0.7,0.1,1,0.4c0.2,0.2,0.3,0.4,0.4,0.6
			c0.6,0.2,1.1,0.5,1.4,1c0,0,0,0,0,0c0.9,0.4,1.7,1.2,2,2.2c0.2,0.7,0.1,1.3-0.2,1.7c-0.1,0.1-0.2,0.2-0.4,0.3
			c0.7,0.2,1.3,0.6,1.6,1.2c0.3,0.5,0.3,1.2,0,1.8c-0.3,0.5-0.7,0.9-1.2,1c-0.3,0.1-0.5,0-0.8,0c-0.3,0.7-0.7,1.1-1.2,1.2
			c-0.1,0.1-0.1,0.1-0.2,0.2c-0.3,0.2-0.6,0.2-1,0.1c-0.1,0-0.2-0.1-0.3-0.1c-0.3,0.6-0.9,1-1.5,1.1c0,0-0.1,0-0.1,0
			c0,0.1,0,0.1,0,0.2l-0.3,0c0-0.1,0-0.2,0-0.2c-0.3-0.1-0.5-0.2-0.8-0.4c0,0,0,0.1,0,0.1c0.1,0.1,0.2,0.1,0.3,0.2
			c0.3,0.2,0.4,0.5,0.3,0.7c-0.1,0.3-0.4,0.4-0.8,0.4c-0.2,0-0.4,0-0.7-0.1c0.1,0.1,0.2,0.2,0.3,0.3l0.1,0.1l-0.1,0.1
			c-0.3,0.4-0.9,0.5-1.8,0.2c0,0,0,0-0.1,0c-0.1,0.2-0.2,0.4-0.3,0.5C361.8,215.6,361.6,215.6,361.3,215.7L361.3,215.7z
			 M359.7,214.5c0.1,0.3,0.5,0.6,0.8,0.7c0.5,0.2,1,0.2,1.2,0.1c0.1-0.1,0.2-0.2,0.2-0.4c-0.1,0-0.2-0.1-0.2-0.1
			c-0.4,0-0.8-0.2-1.1-0.4C360.4,214.5,360.1,214.5,359.7,214.5L359.7,214.5z M362.4,214.7c0.7,0.2,1.1,0.2,1.4-0.1
			c-0.1-0.1-0.2-0.2-0.3-0.3c-0.3,0.1-0.6,0.2-0.8,0.3C362.6,214.7,362.5,214.7,362.4,214.7L362.4,214.7z M361.9,214.5
			c0.1,0,0.1,0,0.2,0c0-0.2-0.1-0.3-0.1-0.5c-0.1-0.2-0.2-0.3-0.3-0.4c0,0,0,0,0,0c-0.1,0.3-0.1,0.6,0.1,0.8
			C361.8,214.4,361.8,214.5,361.9,214.5L361.9,214.5z M361.9,213.6c0.1,0.1,0.1,0.2,0.2,0.3c0.1,0.2,0.1,0.4,0.2,0.6
			c0.1,0,0.2,0,0.3-0.1c0.2-0.1,0.4-0.1,0.7-0.2C362.9,213.9,362.4,213.7,361.9,213.6z M360.8,214.2c0.2,0.1,0.4,0.2,0.6,0.3
			c-0.1-0.2-0.2-0.5-0.1-0.7c-0.1,0-0.2,0.1-0.3,0.1C361,213.9,360.9,214.1,360.8,214.2C360.8,214.2,360.8,214.2,360.8,214.2z
			 M359.7,214.2c0.3,0,0.5,0,0.7-0.1c0-0.1-0.1-0.1-0.1-0.2c0,0,0,0,0,0c-0.1,0-0.3,0-0.4,0c-0.1,0.1-0.1,0.1-0.1,0.2
			C359.7,214.2,359.7,214.2,359.7,214.2L359.7,214.2z M358,213.1c0,0.3,0.1,0.6,0.3,0.7c0.2,0.2,0.6,0.4,1.1,0.4
			c0-0.1,0-0.1,0.1-0.2c0,0,0-0.1,0.1-0.1c-0.4,0-0.7-0.1-0.9-0.3c-0.1-0.1-0.2-0.2-0.3-0.4c0,0,0,0-0.1,0L358,213.1
			C358.1,213.1,358.1,213.1,358,213.1L358,213.1z M364,214c0.2,0,0.3,0,0.5,0.1c0.1,0,0.5,0,0.5-0.2c0-0.2-0.2-0.4-0.2-0.4
			c-0.1-0.1-0.1-0.1-0.2-0.2c-0.1,0.1-0.1,0.2-0.2,0.3C364.3,213.8,364.2,213.9,364,214L364,214z M360.6,213.9
			C360.6,213.9,360.6,213.9,360.6,213.9c0.1,0,0.1,0,0.1,0C360.7,213.9,360.6,213.9,360.6,213.9L360.6,213.9z M362.5,213.1
			c0.1,0.3,0.3,0.5,0.6,0.7c0.2,0.1,0.3,0.2,0.5,0.2c0.2-0.1,0.4-0.3,0.5-0.5c0.1-0.1,0.1-0.2,0.2-0.3c-0.2-0.1-0.4-0.2-0.6-0.2
			c-0.1,0-0.3,0-0.4-0.1c-0.1,0-0.2,0-0.4,0c-0.1,0-0.1,0-0.2,0C362.7,212.9,362.6,213,362.5,213.1L362.5,213.1z M358.6,213.2
			c0.1,0.1,0.1,0.1,0.2,0.2c0.2,0.2,0.5,0.2,0.9,0.3c0,0,0.1,0,0.1,0c0.1-0.1,0.2-0.1,0.4-0.2c0,0,0,0,0,0c0-0.1,0-0.1,0-0.2
			c-0.1-0.1-0.3-0.1-0.4-0.2c-0.4,0.1-0.7,0.2-1.1,0.2C358.7,213.2,358.6,213.2,358.6,213.2L358.6,213.2z M360.8,213.6
			c-0.1,0-0.2,0-0.3,0.1C360.6,213.6,360.7,213.6,360.8,213.6L360.8,213.6z M362.1,213.3c0.1,0,0.2,0.1,0.3,0.1
			c0-0.1-0.1-0.1-0.1-0.2C362.2,213.3,362.2,213.3,362.1,213.3L362.1,213.3z M360.4,213.3C360.4,213.3,360.4,213.4,360.4,213.3
			c0,0,0.1,0,0.1,0C360.5,213.3,360.5,213.3,360.4,213.3z M365.8,213.2c0,0,0.1,0,0.1,0c0.5,0,1.1-0.4,1.3-0.9
			c-0.2-0.1-0.3-0.3-0.4-0.4c-0.3,0.3-0.7,0.5-1,0.7C365.8,212.7,365.8,213,365.8,213.2L365.8,213.2z M365,212.8
			c0.2,0.1,0.3,0.3,0.5,0.3c0-0.2,0-0.3,0-0.5C365.3,212.7,365.2,212.8,365,212.8z M361,213.1c0,0,0.1,0,0.1,0
			C361,213.1,361,213,361,213.1C361,213,361,213.1,361,213.1L361,213.1z M360.4,213c0.1,0,0.2,0,0.3,0.1c-0.1-0.1-0.1-0.2-0.2-0.3
			C360.4,212.9,360.4,213,360.4,213L360.4,213z M360.7,212.6c0.3,0.1,0.5,0.3,0.8,0.5c0.1,0,0.1,0,0.2,0c0.1-0.1,0.3-0.2,0.5-0.3
			c0,0,0,0,0,0c0-0.3,0.1-0.6,0.2-0.9c0-0.2-0.1-0.3,0-0.5c0,0,0,0,0,0c-0.1-0.1-0.2-0.1-0.2-0.2c-0.1,0-0.2,0-0.3,0
			c0,0.2,0,0.3-0.1,0.4c-0.2,0.4-0.5,0.7-0.8,0.9C360.8,212.5,360.8,212.5,360.7,212.6L360.7,212.6z M360.1,212.9
			C360.1,212.9,360.1,212.9,360.1,212.9C360.2,212.9,360.2,212.9,360.1,212.9C360.1,212.9,360.1,212.9,360.1,212.9L360.1,212.9z
			 M358.7,212.9C358.7,212.9,358.7,212.9,358.7,212.9c0.2,0,0.3,0,0.5,0c-0.1,0-0.2,0-0.3,0C358.9,212.9,358.8,212.9,358.7,212.9
			C358.7,212.9,358.7,212.9,358.7,212.9L358.7,212.9z M358.1,212.8C358.1,212.8,358.1,212.8,358.1,212.8
			C358.1,212.8,358.1,212.8,358.1,212.8C358.1,212.8,358.1,212.8,358.1,212.8L358.1,212.8z M357.6,212.5c0.1,0.1,0.2,0.1,0.2,0.2
			c0,0,0,0,0,0C357.8,212.6,357.7,212.6,357.6,212.5L357.6,212.5z M363.8,212.7c0.2,0,0.5,0,0.7,0c-0.2-0.3-0.3-0.7-0.2-1l0-0.1
			c-0.2,0.1-0.4,0.1-0.6,0.1c-0.2,0.3-0.4,0.6-0.6,0.8c0.1,0.1,0.2,0.1,0.3,0.1C363.6,212.6,363.7,212.6,363.8,212.7L363.8,212.7z
			 M359.2,212.6c0.1,0,0.2,0,0.2,0c0,0,0,0,0-0.1C359.4,212.6,359.3,212.6,359.2,212.6z M362.5,212.2c-0.1,0.2-0.1,0.3-0.1,0.5
			c0.1,0,0.1,0,0.2,0c0,0,0.1-0.1,0.1-0.1C362.7,212.4,362.6,212.3,362.5,212.2L362.5,212.2z M359.7,212.5
			C359.7,212.6,359.7,212.6,359.7,212.5c0.1,0,0.2,0,0.2,0c0,0,0,0,0,0C359.9,212.5,359.8,212.5,359.7,212.5z M358.4,212.5
			c0.1,0,0.2,0.1,0.3,0.1c0.1-0.1,0.3-0.1,0.4-0.2C358.9,212.4,358.6,212.4,358.4,212.5L358.4,212.5z M364.5,211.5l0.1,0.1
			c0.2,0.3,0.3,0.6,0.3,1c0,0,0,0,0,0c0.2-0.1,0.4-0.1,0.7-0.2c0-0.5,0-1-0.1-1.5C365.1,211.1,364.8,211.3,364.5,211.5z
			 M357.2,211.9c0.3,0.2,0.6,0.4,0.9,0.5c0,0,0,0,0,0c0-0.3,0-0.6,0.1-0.9c-0.1,0-0.3-0.1-0.4-0.1c-0.1,0-0.2-0.1-0.2-0.1
			c-0.1-0.1-0.3-0.1-0.4-0.2C357.1,211.3,357.1,211.6,357.2,211.9C357.1,211.8,357.2,211.9,357.2,211.9L357.2,211.9z M360,212.3
			c0,0,0.1,0,0.1,0c0.1,0,0.1,0,0.2,0.1c0.1-0.3,0.2-0.6,0.4-0.9c-0.3,0.1-0.6,0.2-1,0.2c-0.1,0.2-0.1,0.3-0.1,0.5
			C359.7,212.2,359.9,212.3,360,212.3L360,212.3z M367.6,212.1c0.1,0,0.1,0.1,0.2,0.1c0.2,0.1,0.4,0.1,0.6,0c-0.3,0-0.5-0.2-0.8-0.3
			C367.6,212,367.6,212.1,367.6,212.1L367.6,212.1z M362.7,211.9c0.1,0.2,0.2,0.3,0.3,0.4l0,0c0.2-0.2,0.3-0.4,0.4-0.6c0,0,0,0,0,0
			c-0.2,0-0.4,0-0.6-0.1c0,0,0,0.1-0.1,0.1C362.7,211.7,362.7,211.8,362.7,211.9L362.7,211.9z M361.2,211.3c-0.3,0.3-0.5,0.6-0.6,1
			C360.9,212.1,361.2,211.7,361.2,211.3z M358.4,211.6c-0.1,0.2-0.1,0.5-0.1,0.7c0.3-0.2,0.7-0.1,1-0.1c0-0.1,0-0.3,0.1-0.4
			C359.1,211.7,358.8,211.6,358.4,211.6L358.4,211.6z M365.7,210.6c0,0.5,0.1,1.1,0.1,1.6c0.3-0.2,0.6-0.4,0.9-0.6
			c-0.1-0.1-0.1-0.3-0.1-0.4c-0.1-0.1-0.2-0.3-0.3-0.4c0,0-0.1-0.1-0.1-0.2c-0.1,0-0.2,0-0.3,0C365.8,210.6,365.7,210.6,365.7,210.6
			L365.7,210.6z M367.7,211.7c0.4,0.2,0.7,0.4,1.1,0.4c0,0,0,0,0,0c0.1-0.2-0.1-0.6-0.2-0.7c-0.2-0.3-0.5-0.5-0.8-0.7
			c0,0.1-0.1,0.2-0.1,0.3C367.7,211.2,367.7,211.4,367.7,211.7L367.7,211.7z M367,211.6c0.1,0.1,0.2,0.3,0.3,0.4c0-0.1,0-0.1,0-0.2
			C367.3,211.7,367.2,211.7,367,211.6C367.1,211.6,367.1,211.6,367,211.6C367.1,211.6,367,211.6,367,211.6z M368.4,210.8
			c0.1,0.1,0.2,0.2,0.3,0.3c0.3,0.3,0.4,0.6,0.3,0.8c0.4-0.2,0.7-0.6,0.8-1c-0.1,0-0.2-0.1-0.3-0.1
			C369.3,210.9,368.9,210.9,368.4,210.8L368.4,210.8z M356.3,210.2c0.1,0.5,0.2,1,0.5,1.4c0-0.2,0-0.5,0.1-0.7
			C356.7,210.6,356.5,210.4,356.3,210.2L356.3,210.2z M361.5,211.1C361.5,211.1,361.5,211.1,361.5,211.1c0,0.2,0,0.3,0,0.5
			c0,0,0-0.1,0.1-0.1C361.5,211.3,361.6,211.2,361.5,211.1C361.6,211,361.5,211,361.5,211.1C361.5,211.1,361.5,211.1,361.5,211.1
			L361.5,211.1z M367.3,211.4C367.3,211.4,367.3,211.4,367.3,211.4c0.1,0,0.1,0.1,0.2,0.1c0-0.1,0-0.2,0-0.3
			C367.3,211.3,367.3,211.3,367.3,211.4L367.3,211.4z M362.6,211.5C362.6,211.5,362.6,211.5,362.6,211.5
			C362.6,211.5,362.6,211.5,362.6,211.5C362.6,211.5,362.6,211.5,362.6,211.5L362.6,211.5z M359.1,211.4c0.1,0,0.3,0,0.4,0
			c0-0.1,0-0.1,0.1-0.2C359.4,211.3,359.3,211.4,359.1,211.4L359.1,211.4z M360,211.1c0,0,0,0.1-0.1,0.1c0,0.1-0.1,0.1-0.1,0.2
			c0.4,0,0.7-0.1,1.1-0.3c0.1-0.1,0.2-0.1,0.3-0.2c0,0,0,0,0,0c-0.2-0.1-0.4-0.1-0.5-0.2C360.4,210.9,360.2,211,360,211.1L360,211.1
			z M363,211.3c0.1,0,0.3,0.1,0.4,0.1c0,0,0.1,0,0.1,0c0-0.1,0-0.1,0-0.2c-0.1,0-0.3,0-0.4,0C363.1,211.2,363.1,211.3,363,211.3z
			 M364,211.2c0,0,0,0.1,0,0.1c0.2,0,0.4-0.1,0.6-0.2C364.3,211.2,364.2,211.2,364,211.2L364,211.2z M362.6,211.2
			c0,0,0.1,0.1,0.1,0.1c0,0,0.1-0.1,0.1-0.1c0,0-0.1,0-0.1,0C362.7,211.1,362.7,211.1,362.6,211.2
			C362.6,211.1,362.6,211.1,362.6,211.2L362.6,211.2z M366.8,211c0.1,0.1,0.2,0.1,0.2,0.2c0.1-0.1,0.2-0.2,0.3-0.3
			c-0.1-0.2-0.2-0.4-0.3-0.6c-0.1,0-0.1,0-0.2-0.1C366.8,210.5,366.8,210.7,366.8,211L366.8,211z M359.4,210.3
			c-0.1,0.1-0.3,0.2-0.4,0.3c-0.2,0.2-0.3,0.4-0.4,0.6c0.4,0,0.8-0.1,1.2-0.3c0,0,0,0,0,0c0.1-0.1,0.2-0.2,0.3-0.3
			C359.8,210.5,359.6,210.4,359.4,210.3L359.4,210.3z M357.9,211.1c0.1,0,0.2,0.1,0.3,0.1c0,0,0.1,0,0.1,0c0.1-0.3,0.3-0.5,0.5-0.7
			c0.1-0.1,0.2-0.2,0.3-0.3c-0.2-0.1-0.3-0.2-0.5-0.4c-0.3,0.1-0.7,0.2-0.9,0.4c-0.2,0.1-0.3,0.3-0.5,0.5c0.1,0.1,0.2,0.2,0.4,0.3
			C357.7,211,357.8,211,357.9,211.1C357.9,211.1,357.9,211.1,357.9,211.1L357.9,211.1z M363.4,211c0,0,0.1,0,0.1,0c0,0,0,0,0-0.1
			C363.5,210.9,363.5,210.9,363.4,211C363.4,211,363.4,211,363.4,211L363.4,211z M364.1,210.7c0,0.1,0,0.2,0,0.2
			c0.5-0.1,0.9-0.3,1.3-0.5v0c-0.2-0.1-0.3-0.1-0.5-0.2C364.7,210.4,364.4,210.6,364.1,210.7L364.1,210.7z M362.2,210.8
			C362.2,210.8,362.2,210.8,362.2,210.8c0,0,0-0.1-0.1-0.1c0,0,0,0,0,0C362.1,210.8,362.2,210.8,362.2,210.8z M370.3,210.8
			c0.2,0.1,0.4,0.1,0.7,0c0.4-0.1,0.8-0.4,1-0.9c0.2-0.5,0.2-1.1,0-1.6c-0.3-0.6-1.1-1-1.8-1.1c0,0,0,0,0,0c0,0,0,0,0,0.1
			c0.2,0.5,0.3,1,0.3,1.5c0.1,0.1,0.1,0.2,0.2,0.3c0.2,0.3,0.4,0.6,0.3,1C370.9,210.4,370.7,210.6,370.3,210.8
			C370.3,210.7,370.3,210.8,370.3,210.8L370.3,210.8z M363.2,210.7c-0.1,0-0.2,0-0.3,0.1c0,0-0.1,0-0.1,0.1
			C363,210.8,363.2,210.8,363.2,210.7c0.1,0.1,0.1,0,0.1,0C363.3,210.7,363.3,210.7,363.2,210.7L363.2,210.7z M361.4,210.7
			C361.4,210.7,361.4,210.7,361.4,210.7C361.4,210.7,361.4,210.7,361.4,210.7C361.4,210.7,361.4,210.7,361.4,210.7
			C361.4,210.7,361.4,210.7,361.4,210.7L361.4,210.7z M362.4,210.6c0,0,0.1,0.1,0.1,0.1c0,0,0.1-0.1,0.1-0.1
			C362.6,210.6,362.5,210.6,362.4,210.6L362.4,210.6z M366.4,210.3c0,0.1,0.1,0.2,0.1,0.3c0,0,0,0.1,0.1,0.1c0-0.2,0-0.3,0-0.5
			c-0.1,0-0.1,0-0.2,0C366.4,210.2,366.4,210.3,366.4,210.3L366.4,210.3z M367.9,210.3c0.5,0.2,1,0.3,1.4,0.3
			c-0.1-0.1-0.2-0.2-0.4-0.3c-0.1-0.1-0.2-0.2-0.3-0.4c-0.2,0.1-0.5,0.2-0.8,0.2C367.9,210.2,367.9,210.3,367.9,210.3L367.9,210.3z
			 M367.4,210.5c0,0,0,0.1,0.1,0.1C367.5,210.6,367.5,210.5,367.4,210.5C367.5,210.5,367.4,210.5,367.4,210.5z M368.9,209.8
			c0.1,0.1,0.1,0.2,0.2,0.3c0.2,0.2,0.4,0.4,0.6,0.5c0,0,0,0,0,0c0.1,0,0.2,0,0.3-0.1c0.1-0.5,0.2-1.1,0.1-1.6
			c-0.1-0.1-0.2-0.2-0.3-0.3c-0.1,0.3-0.2,0.5-0.4,0.7C369.3,209.5,369.1,209.6,368.9,209.8L368.9,209.8z M357.7,208.3
			c-0.1,0.1-0.2,0.2-0.3,0.3c-0.4,0.5-0.5,1.1-0.4,1.6c0,0.1,0.1,0.1,0.1,0.2c0.1-0.2,0.3-0.4,0.5-0.5c0.2-0.2,0.5-0.3,0.9-0.4
			c-0.1-0.1-0.2-0.2-0.3-0.3c-0.2-0.2-0.3-0.5-0.4-0.8C357.8,208.4,357.7,208.4,357.7,208.3L357.7,208.3z M370.5,209.3
			c0,0.4,0,0.7-0.1,1.1c0.1-0.1,0.3-0.2,0.3-0.4C370.8,209.8,370.6,209.5,370.5,209.3L370.5,209.3z M363.1,210.3
			c0.2,0,0.5,0,0.7,0.1c0.2-0.1,0.5-0.3,0.7-0.3c-0.2-0.1-0.3-0.2-0.5-0.3c-0.1,0-0.2,0-0.3,0.1c-0.3,0.2-0.5,0.4-0.8,0.5
			C363,210.3,363,210.3,363.1,210.3L363.1,210.3z M361.3,210.2c0.1,0,0.1,0.1,0.2,0.1c0,0,0,0,0.1,0c0,0,0-0.1,0-0.1c0,0,0,0,0,0
			C361.4,210.2,361.4,210.2,361.3,210.2C361.3,210.2,361.3,210.2,361.3,210.2L361.3,210.2z M356.3,209.6c0.1,0.3,0.3,0.5,0.5,0.8
			c-0.2-0.6,0-1.2,0.4-1.8c0.1-0.1,0.2-0.3,0.3-0.4c-0.1-0.2-0.2-0.4-0.3-0.6c-0.1,0.1-0.3,0.3-0.4,0.4
			C356.5,208.4,356.3,209,356.3,209.6L356.3,209.6z M361.9,210.2c0,0.1,0.1,0.1,0.1,0.2c0.3-0.1,0.6-0.2,0.9-0.4
			C362.6,210,362.3,210.1,361.9,210.2L361.9,210.2z M360,210c0,0,0.1,0.1,0.1,0.1c0.1,0.1,0.2,0.1,0.3,0.2c0.1,0,0.2-0.1,0.2-0.1
			c0,0-0.1,0-0.1-0.1C360.4,210.1,360.2,210.1,360,210L360,210z M367.3,210c0.1,0,0.1,0.1,0.2,0.1c0,0,0.1,0,0.1,0.1
			c0,0,0-0.1,0-0.1C367.5,210.1,367.4,210.1,367.3,210L367.3,210z M359.6,210.1c0.1,0,0.1,0.1,0.2,0.1
			C359.8,210.2,359.8,210.1,359.6,210.1C359.7,210.1,359.7,210.1,359.6,210.1L359.6,210.1z M365.7,210.2
			C365.7,210.2,365.7,210.2,365.7,210.2c0.1,0,0.1-0.1,0.1-0.1c0,0-0.1,0-0.1,0C365.7,210.1,365.7,210.2,365.7,210.2L365.7,210.2z
			 M365.4,210.1C365.4,210.1,365.4,210.1,365.4,210.1L365.4,210.1C365.4,210.1,365.4,210.1,365.4,210.1z M359,209.7
			c0.1,0.1,0.2,0.2,0.3,0.2c0.1,0,0.1-0.1,0.2-0.1c0,0,0-0.1-0.1-0.1C359.3,209.7,359.2,209.7,359,209.7L359,209.7z M360.7,209.9
			c0.2,0,0.3,0,0.5,0c-0.1-0.1-0.3-0.1-0.4-0.1C360.7,209.8,360.7,209.8,360.7,209.9C360.6,209.9,360.6,209.9,360.7,209.9
			L360.7,209.9z M366.5,209.9c0,0,0.1,0,0.1,0c0,0,0,0,0,0C366.6,209.9,366.6,209.9,366.5,209.9
			C366.6,209.9,366.5,209.9,366.5,209.9z M364.4,209.6c0.2,0.1,0.3,0.2,0.5,0.3c0.2-0.2,0.3-0.3,0.4-0.5c0,0,0-0.1,0-0.1
			c0,0,0-0.1,0-0.1c-0.2,0.2-0.5,0.3-0.8,0.4C364.5,209.6,364.4,209.6,364.4,209.6L364.4,209.6z M365.4,209.7c0,0-0.1,0.1-0.1,0.1
			c0,0,0.1,0,0.1,0C365.4,209.8,365.4,209.8,365.4,209.7L365.4,209.7z M365.8,209.8c0.1,0,0.1,0,0.2,0c0,0,0.1-0.1,0.1-0.1
			c0-0.2-0.1-0.5-0.3-0.7c0-0.1-0.1-0.1-0.1-0.2c0,0,0,0,0,0c0,0.2-0.1,0.3-0.1,0.5c0,0.2,0,0.3,0,0.5
			C365.7,209.8,365.8,209.8,365.8,209.8L365.8,209.8z M361.7,209.8c0.2,0,0.3,0,0.5,0C362,209.8,361.9,209.8,361.7,209.8
			C361.7,209.8,361.7,209.8,361.7,209.8L361.7,209.8z M367,209.7c0,0,0.1,0,0.1,0C367.1,209.7,367.1,209.7,367,209.7z M359.7,209.5
			c0.2,0,0.3,0.1,0.5,0.1c0.2,0,0.4-0.1,0.6-0.1c0.1,0,0.1,0,0.2,0c0,0,0-0.1-0.1-0.1c-0.2-0.1-0.3-0.1-0.5-0.2c-0.3,0-0.7,0-0.9,0
			C359.5,209.3,359.6,209.4,359.7,209.5L359.7,209.5L359.7,209.5z M367.5,208.7c0.2,0.3,0.4,0.6,0.4,1c0.2,0,0.4-0.1,0.5-0.2
			c-0.2-0.4-0.2-0.9-0.1-1.3c0,0,0,0,0,0c-0.1,0-0.2,0-0.3,0c-0.1,0.1-0.2,0.2-0.4,0.3C367.6,208.5,367.6,208.6,367.5,208.7
			L367.5,208.7z M367.1,209.4c0.1,0,0.2,0.1,0.2,0.1c0,0,0.1,0,0.1,0c0.1,0,0.2,0.1,0.2,0.1c0-0.3-0.1-0.5-0.3-0.7
			C367.3,209.1,367.2,209.2,367.1,209.4L367.1,209.4z M361.9,209.5c0.3,0.1,0.7,0.1,1,0.1c0.2-0.1,0.4-0.2,0.6-0.3
			c-0.1-0.2-0.3-0.3-0.4-0.5c-0.1,0-0.2,0-0.3,0c0,0-0.1,0.1-0.1,0.1c-0.2,0.1-0.5,0.2-0.7,0.2C362,209.2,362,209.4,361.9,209.5
			L361.9,209.5z M358.2,208.8c0,0.1,0.1,0.2,0.2,0.3c0.1,0.2,0.2,0.3,0.4,0.4c0.1,0,0.3,0,0.4,0c-0.1-0.1-0.2-0.3-0.3-0.4
			c-0.2-0.1-0.3-0.1-0.5-0.2C358.3,208.8,358.3,208.8,358.2,208.8L358.2,208.8z M369.5,208.3c-0.1,0.4-0.3,0.7-0.5,1
			c-0.1,0.1-0.1,0.1-0.2,0.2c0.2-0.1,0.3-0.2,0.4-0.4c0.2-0.2,0.3-0.5,0.4-0.7c0,0,0,0-0.1,0C369.6,208.3,369.6,208.3,369.5,208.3
			L369.5,208.3z M366.7,209.3c0,0,0,0.1,0.1,0.1c0,0,0,0,0.1,0c0.1-0.3,0.2-0.5,0.4-0.7c0,0-0.1,0-0.1-0.1c-0.1,0-0.2,0-0.3,0
			c0,0.1,0,0.1,0,0.2C366.8,209,366.7,209.2,366.7,209.3L366.7,209.3z M361.7,209.1c0,0.1,0,0.1,0,0.2
			C361.7,209.2,361.8,209.2,361.7,209.1C361.8,209.1,361.7,209.1,361.7,209.1z M361.2,209.3C361.2,209.3,361.2,209.3,361.2,209.3
			C361.2,209.3,361.2,209.2,361.2,209.3C361.2,209.2,361.2,209.2,361.2,209.3C361.2,209.2,361.2,209.3,361.2,209.3z M365.3,208.7
			c-0.2,0.2-0.5,0.4-0.8,0.6c0,0,0,0,0,0c0.3-0.1,0.6-0.3,0.8-0.4C365.3,208.8,365.3,208.8,365.3,208.7L365.3,208.7z M368.7,208.2
			c-0.1,0.3-0.1,0.7,0,1c0.1-0.1,0.1-0.1,0.2-0.2c0.2-0.2,0.3-0.5,0.4-0.9C369.1,208.1,368.8,208.2,368.7,208.2L368.7,208.2z
			 M363.5,208.8c0.1,0.1,0.2,0.3,0.3,0.4c0.1-0.1,0.3-0.1,0.4-0.2c0.1-0.1,0.1-0.2,0.2-0.3C364.1,208.7,363.8,208.8,363.5,208.8
			L363.5,208.8z M360.5,209C360.5,209,360.5,209,360.5,209C360.5,209,360.5,209,360.5,209C360.5,209,360.5,209,360.5,209L360.5,209z
			 M359.4,208.9c0.2,0,0.4,0.1,0.6,0.1c0,0-0.1,0-0.1-0.1c-0.1-0.1-0.2-0.2-0.3-0.3c0,0-0.1,0-0.1,0c0,0-0.1,0-0.1,0
			C359.3,208.7,359.4,208.8,359.4,208.9L359.4,208.9z M366.4,208.8c0,0.1,0,0.1,0.1,0.2C366.5,208.9,366.5,208.9,366.4,208.8
			c0.1,0,0.1,0,0.1-0.1L366.4,208.8C366.4,208.7,366.4,208.7,366.4,208.8L366.4,208.8z M365.9,208.6c0.1,0.1,0.1,0.2,0.2,0.2
			c0,0,0,0,0,0c0-0.1,0-0.1,0-0.2c0,0,0,0,0-0.1C366.1,208.7,366,208.7,365.9,208.6L365.9,208.6z M359,208.8
			C359,208.8,359.1,208.9,359,208.8c0.1-0.1,0-0.2,0-0.3c-0.1,0-0.2-0.1-0.2-0.1C358.8,208.6,358.9,208.7,359,208.8L359,208.8z
			 M360.5,208.7c0.2,0,0.4,0.1,0.6,0.1c0,0,0.1-0.1,0.2-0.1c0,0,0-0.1,0-0.1c0,0,0,0,0,0C361,208.6,360.7,208.7,360.5,208.7
			L360.5,208.7z M358,208.3c0.1,0.1,0.3,0.2,0.5,0.3c0,0,0.1,0,0.1,0.1c-0.1-0.1-0.1-0.3-0.2-0.5c-0.1-0.1-0.2-0.2-0.3-0.3
			c0,0-0.1,0.1-0.1,0.1C358,208.1,358,208.2,358,208.3L358,208.3z M357.2,207.2c-0.5,0.4-0.9,0.9-1,1.4c0.1-0.3,0.3-0.6,0.4-0.8
			C356.8,207.5,357,207.3,357.2,207.2C357.2,207.2,357.2,207.2,357.2,207.2L357.2,207.2z M363.2,208.4c0,0.1,0.1,0.1,0.1,0.2
			c0.5,0,0.9-0.1,1.3-0.2c0,0,0.1-0.1,0.1-0.1c-0.2-0.1-0.4-0.2-0.5-0.4c-0.1,0-0.2,0-0.3,0c-0.2,0.1-0.4,0.1-0.6,0.2
			C363.3,208.1,363.3,208.2,363.2,208.4L363.2,208.4z M362.7,208.5c0,0,0.1,0,0.1,0c0.1-0.1,0.1-0.1,0.1-0.2c0,0,0-0.1,0-0.1
			C362.8,208.4,362.7,208.4,362.7,208.5z M362.1,208.5c0.1,0,0.1,0,0.2,0c0.2-0.1,0.3-0.3,0.4-0.4h0c-0.1,0.1-0.2,0.1-0.3,0.2
			C362.2,208.3,362.2,208.4,362.1,208.5L362.1,208.5z M359.7,208.4c0.3,0,0.7,0,1,0c-0.3-0.1-0.6-0.3-0.9-0.5
			c-0.1-0.1-0.3-0.2-0.4-0.4c0,0-0.1,0-0.1,0c0,0.1-0.1,0.3-0.1,0.4c0,0.1,0.1,0.2,0.2,0.3C359.5,208.2,359.6,208.3,359.7,208.4
			C359.7,208.4,359.7,208.4,359.7,208.4L359.7,208.4z M361.8,208.4L361.8,208.4z M370,208.3c0,0,0.1,0.1,0.1,0.1
			c0-0.1,0-0.2-0.1-0.4C370.1,208.1,370.1,208.2,370,208.3L370,208.3z M366.1,208.4C366.1,208.4,366.1,208.4,366.1,208.4
			L366.1,208.4C366.1,208.4,366.1,208.4,366.1,208.4z M366.4,208c0,0.1,0,0.3,0,0.4c0,0,0,0,0,0.1c0,0,0.1-0.1,0.1-0.1
			C366.5,208.2,366.5,208.1,366.4,208L366.4,208z M366.8,208.3c0.1,0,0.1,0,0.2,0c0,0,0.1,0,0.1,0c0.2,0,0.3-0.1,0.5-0.2
			c0-0.1,0.1-0.1,0.1-0.2c-0.4-0.1-0.7-0.3-1.1-0.5c0,0,0,0-0.1,0.1C366.7,207.8,366.7,208,366.8,208.3L366.8,208.3z M365.8,208.3
			C365.8,208.3,365.8,208.3,365.8,208.3c0.1-0.1,0.2-0.2,0.2-0.3c-0.1,0-0.1,0.1-0.2,0.1C365.8,208.2,365.8,208.3,365.8,208.3
			L365.8,208.3z M360,207.7c0.3,0.3,0.8,0.5,1.2,0.6c0,0,0.1,0,0.1,0c0-0.1,0.1-0.2,0.1-0.3c-0.2,0-0.4-0.1-0.6-0.1
			C360.6,207.8,360.3,207.8,360,207.7L360,207.7z M361.7,208c0,0.1-0.1,0.1-0.1,0.2c0.1,0,0.3-0.1,0.4-0.2
			C362,208,361.9,208,361.7,208L361.7,208z M358.7,208c0,0,0.1,0.1,0.2,0.1c-0.1-0.1-0.1-0.1-0.2-0.2C358.6,208,358.6,208,358.7,208
			L358.7,208z M369.6,208c0.1,0,0.1,0.1,0.2,0.1c0-0.1,0.1-0.3,0.1-0.4c-0.1,0.1-0.2,0.1-0.2,0.2C369.6,207.9,369.6,208,369.6,208
			L369.6,208z M358.7,207.6c0.1,0.1,0.2,0.2,0.3,0.3c-0.1-0.1-0.1-0.3-0.1-0.4C358.8,207.6,358.8,207.6,358.7,207.6L358.7,207.6z
			 M365.1,207.9C365.2,207.9,365.2,207.9,365.1,207.9c0,0,0-0.1,0-0.1C365.2,207.8,365.2,207.9,365.1,207.9L365.1,207.9z
			 M368.3,207.9C368.3,207.9,368.4,207.9,368.3,207.9c0.3,0,0.7,0,1.1-0.1c0-0.1,0-0.1,0-0.2c0-0.1,0-0.2,0-0.2c0,0-0.1,0-0.1,0
			C368.9,207.4,368.6,207.6,368.3,207.9C368.3,207.8,368.3,207.9,368.3,207.9z M357.5,207.3c0,0.2,0.1,0.4,0.2,0.6
			c0-0.2,0-0.3,0-0.5C357.6,207.3,357.6,207.3,357.5,207.3C357.5,207.2,357.5,207.2,357.5,207.3z M365.9,207.4
			c0,0.2-0.1,0.3-0.1,0.5c0.1-0.1,0.2-0.1,0.2-0.2c0-0.1,0-0.2,0-0.3c0,0-0.1-0.1-0.1-0.1C366,207.3,366,207.3,365.9,207.4
			L365.9,207.4z M366.8,207.3c0.3,0.2,0.7,0.4,1.1,0.5c0.1-0.1,0.1-0.1,0.2-0.2c0,0,0-0.1,0-0.1c0.1-0.4,0-0.7-0.2-1.1
			c-0.2,0.1-0.4,0.1-0.7,0.1c-0.1,0.2-0.1,0.3-0.2,0.5C366.9,207.2,366.9,207.2,366.8,207.3L366.8,207.3z M358.3,207.8
			C358.3,207.8,358.3,207.8,358.3,207.8C358.3,207.8,358.3,207.8,358.3,207.8C358.3,207.8,358.3,207.8,358.3,207.8L358.3,207.8z
			 M361.9,207.7c0.2,0,0.4,0,0.6,0c0,0,0,0,0,0c-0.2,0-0.3-0.1-0.5-0.2l0,0C362,207.6,361.9,207.7,361.9,207.7L361.9,207.7z
			 M364.8,207.7c0,0,0.1,0,0.1,0.1c0,0,0-0.1,0-0.1C364.9,207.6,364.9,207.6,364.8,207.7L364.8,207.7z M363.2,207.6
			c0.2,0,0.4,0,0.6,0c0,0,0.1,0,0.1,0c-0.1-0.1-0.1-0.2-0.2-0.2c0,0,0,0-0.1,0c-0.1,0-0.2,0-0.3,0.1
			C363.3,207.4,363.3,207.5,363.2,207.6C363.2,207.6,363.2,207.6,363.2,207.6L363.2,207.6z M357.9,207.3c0.1,0.1,0.1,0.2,0.2,0.3
			c0.1,0,0.1-0.1,0.2-0.1c0,0,0-0.1,0-0.1c-0.1-0.2-0.1-0.4-0.2-0.6c-0.1,0-0.1,0.1-0.2,0.1C358,207,357.9,207.2,357.9,207.3
			L357.9,207.3z M362.9,207.6C362.9,207.6,362.9,207.6,362.9,207.6C362.9,207.6,362.9,207.6,362.9,207.6
			C362.9,207.6,362.9,207.6,362.9,207.6L362.9,207.6z M369.6,207.3c0,0.1,0,0.2,0,0.3c0,0,0.1-0.1,0.1-0.1c0,0,0.1-0.1,0.1-0.1
			c0,0,0,0,0,0C369.8,207.3,369.7,207.3,369.6,207.3L369.6,207.3z M360.4,207.3c0.2,0.1,0.4,0.2,0.5,0.2c0,0,0,0,0,0
			c0.1,0,0.3,0,0.4,0C361,207.4,360.7,207.3,360.4,207.3L360.4,207.3z M362.2,207.4c0.1,0,0.2,0.1,0.3,0.1c0,0,0-0.1,0-0.1
			C362.5,207.4,362.4,207.4,362.2,207.4L362.2,207.4z M364.5,207.5L364.5,207.5c0.2-0.1,0.3-0.1,0.5-0.2c0-0.1,0-0.2,0-0.2
			c0-0.1,0-0.1,0-0.2c-0.1,0-0.2,0.1-0.3,0.1c0,0.1,0,0.2-0.1,0.2C364.7,207.3,364.6,207.4,364.5,207.5z M359.6,207.3
			c0.1,0,0.1,0.1,0.2,0.1c0.1,0,0.2,0,0.3,0.1c-0.1,0-0.2-0.1-0.2-0.2C359.8,207.3,359.7,207.3,359.6,207.3z M365.6,207.3
			c0,0,0,0.1,0,0.1C365.6,207.4,365.7,207.3,365.6,207.3c0.1,0,0.1,0,0.1-0.1C365.7,207.2,365.6,207.3,365.6,207.3z M368.4,206.7
			c0.1,0.2,0.1,0.4,0.1,0.7c0.2-0.1,0.5-0.2,0.7-0.3c0,0,0,0,0,0c-0.2-0.1-0.4-0.1-0.6-0.2C368.5,206.8,368.5,206.8,368.4,206.7
			L368.4,206.7z M358.6,207.4C358.6,207.4,358.6,207.4,358.6,207.4c0.1,0,0.2-0.1,0.2-0.1c0-0.1,0-0.2,0-0.3c0-0.1-0.1-0.2-0.1-0.3
			C358.6,206.9,358.6,207.1,358.6,207.4L358.6,207.4z M361.6,207.3C361.6,207.3,361.6,207.3,361.6,207.3
			C361.6,207.3,361.6,207.3,361.6,207.3C361.6,207.3,361.6,207.3,361.6,207.3L361.6,207.3z M364.1,207.2c0.1,0,0.1,0.1,0.2,0.1
			c0.1-0.1,0.1-0.1,0.2-0.2C364.4,207.1,364.2,207.2,364.1,207.2L364.1,207.2z M362.3,207.1C362.4,207.1,362.4,207.1,362.3,207.1
			C362.4,207.1,362.4,207.1,362.3,207.1C362.4,207.1,362.3,207.1,362.3,207.1L362.3,207.1z M362.8,207.1
			C362.8,207.1,362.8,207.1,362.8,207.1c0.2,0.1,0.3,0,0.4,0c0,0,0-0.1,0-0.1c-0.2-0.1-0.3-0.2-0.5-0.2
			C362.7,206.9,362.7,207,362.8,207.1L362.8,207.1z M361.8,207.1c0.1,0,0.2,0,0.3,0c0-0.1,0.1-0.1,0.1-0.2c-0.2-0.1-0.5-0.3-0.7-0.4
			C361.5,206.8,361.6,206.9,361.8,207.1C361.7,207.1,361.8,207.1,361.8,207.1L361.8,207.1z M360.2,207c0.3,0,0.5,0,0.8,0.1
			c-0.2-0.1-0.4-0.3-0.6-0.4c-0.1-0.1-0.2-0.2-0.2-0.3c-0.1,0.1-0.2,0.2-0.3,0.3c0,0-0.1,0.1-0.1,0.1c0.1,0.1,0.2,0.2,0.3,0.3
			C360,207,360.1,207,360.2,207L360.2,207z M359.5,207C359.5,207,359.5,207.1,359.5,207C359.5,207.1,359.6,207.1,359.5,207
			C359.6,207,359.6,207,359.5,207L359.5,207z M366.3,206.9c0.1,0.1,0.1,0.1,0.2,0.1c0.1-0.1,0.1-0.3,0.2-0.4c-0.1,0-0.2,0-0.3,0
			c-0.1,0.1-0.1,0.1-0.2,0.2C366.2,206.8,366.3,206.9,366.3,206.9L366.3,206.9z M365.4,206.7c0,0.1,0.1,0.2,0.1,0.3
			c0,0,0.1-0.1,0.1-0.1c0,0,0,0,0,0C365.6,206.8,365.5,206.8,365.4,206.7C365.4,206.7,365.4,206.7,365.4,206.7L365.4,206.7
			L365.4,206.7z M360.4,206.3c0,0.1,0.1,0.1,0.1,0.2c0.2,0.2,0.5,0.4,0.8,0.5c-0.1-0.2-0.2-0.3-0.2-0.5
			C360.9,206.4,360.6,206.3,360.4,206.3L360.4,206.3z M363.9,206c-0.1,0.3-0.1,0.6,0,0.8c0,0.1,0,0.1,0.1,0.2
			c0.2-0.1,0.4-0.1,0.6-0.2c0-0.2,0-0.4-0.1-0.6C364.3,206.1,364.1,206,363.9,206L363.9,206z M363.5,206.9c0,0,0.1,0,0.1,0.1
			c0,0,0,0,0-0.1c-0.1-0.3-0.1-0.5,0-0.8c-0.1,0-0.1,0.1-0.2,0.1C363.5,206.4,363.5,206.6,363.5,206.9L363.5,206.9z M369.6,206.9
			C369.6,206.9,369.6,206.9,369.6,206.9C369.6,206.9,369.6,206.9,369.6,206.9C369.6,206.9,369.6,206.9,369.6,206.9z M369.5,205.6
			C369.5,205.6,369.5,205.6,369.5,205.6c0.4,0.2,0.6,0.6,0.7,1c0,0.1,0,0.2,0,0.3c0.2,0,0.4-0.1,0.6-0.3c0.3-0.3,0.4-0.9,0.2-1.5
			c-0.2-0.8-0.8-1.5-1.5-1.9c0.3,0.7,0.3,1.5-0.1,2.1C369.4,205.5,369.4,205.5,369.5,205.6L369.5,205.6z M359.2,206.4
			c0,0.1,0.1,0.3,0.2,0.4c0,0,0-0.1,0.1-0.1C359.3,206.6,359.3,206.5,359.2,206.4C359.2,206.4,359.2,206.4,359.2,206.4L359.2,206.4z
			 M368.3,206.3c0.1,0.2,0.3,0.3,0.4,0.3c0.2,0.1,0.4,0.2,0.6,0.2c0-0.2-0.1-0.4-0.1-0.5c-0.1-0.1-0.3-0.3-0.4-0.4
			C368.7,206.1,368.5,206.2,368.3,206.3L368.3,206.3z M361.9,206.5c0.1,0.1,0.3,0.2,0.4,0.2c0,0,0.1-0.1,0.1-0.1
			C362.3,206.6,362.1,206.6,361.9,206.5L361.9,206.5z M362.9,206.6c0.1,0,0.2,0.1,0.3,0.1c0-0.1,0-0.2-0.1-0.4
			C363.1,206.4,363,206.5,362.9,206.6L362.9,206.6z M364.8,206.3c0,0.1,0,0.2,0,0.4c0.1,0,0.1,0,0.2-0.1
			C365,206.5,364.9,206.4,364.8,206.3C364.8,206.3,364.8,206.3,364.8,206.3L364.8,206.3z M359.5,206.4c0,0.1,0,0.1,0.1,0.2
			c0,0,0,0,0,0c0.1-0.1,0.1-0.1,0.2-0.2C359.7,206.3,359.6,206.3,359.5,206.4L359.5,206.4z M357.7,206.2c0,0.1,0,0.2,0,0.3
			c0.1,0,0.1-0.1,0.2-0.1c0.1-0.2,0.2-0.5,0.4-0.7c0,0,0-0.1,0-0.1C358,205.8,357.8,206,357.7,206.2L357.7,206.2z M361.4,206.1
			c0.3,0.1,0.7,0.2,1.1,0.3c0-0.2,0-0.4,0.1-0.6c-0.3,0-0.7,0-1,0.1c0,0,0,0.1,0,0.1C361.4,206,361.4,206,361.4,206.1L361.4,206.1z
			 M362.8,205.8c0,0.2-0.1,0.4-0.1,0.6c0.1-0.1,0.2-0.2,0.3-0.3C363,206,362.9,205.9,362.8,205.8
			C362.8,205.8,362.8,205.8,362.8,205.8L362.8,205.8z M365.3,206.3C365.4,206.3,365.4,206.4,365.3,206.3c0.1,0,0.1,0,0.2,0
			C365.4,206.3,365.4,206.3,365.3,206.3C365.3,206.3,365.3,206.3,365.3,206.3L365.3,206.3z M369.5,206.2c0,0.1,0.1,0.1,0.1,0.2
			c-0.1-0.1-0.1-0.3-0.2-0.4C369.4,206,369.5,206.1,369.5,206.2z M366.6,206.3c0.1,0,0.2,0,0.3,0c0.1-0.1,0.2-0.2,0.3-0.4
			c0-0.1,0-0.1,0-0.2c0,0,0,0,0,0c-0.1,0-0.3,0-0.4,0.1C366.7,206,366.7,206.2,366.6,206.3z M367.4,206.1c0,0.1,0,0.1-0.1,0.2
			c0.1,0,0.3,0,0.4-0.1c-0.1-0.1-0.1-0.1-0.2-0.2c0,0,0,0,0,0C367.5,206.1,367.4,206.1,367.4,206.1L367.4,206.1z M366.1,206.2
			c0.1,0,0.1,0,0.2,0.1c0.1-0.1,0.2-0.3,0.2-0.4c-0.1,0-0.1,0-0.2,0C366.2,206,366.2,206.1,366.1,206.2L366.1,206.2z M358.4,205.9
			c0,0.1,0,0.2-0.1,0.3c0.1,0,0.1,0,0.2-0.1c0,0,0,0,0-0.1c0-0.2,0.1-0.4,0.1-0.6c0,0-0.1,0.1-0.1,0.1
			C358.5,205.7,358.5,205.8,358.4,205.9L358.4,205.9z M368.1,205.9c0,0.1,0,0.1,0,0.2c0.1-0.1,0.3-0.1,0.4-0.2
			C368.4,205.8,368.2,205.8,368.1,205.9L368.1,205.9z M360.8,206C360.8,206,360.8,206,360.8,206c0.1,0,0.3,0,0.4,0
			c0-0.1,0-0.1,0-0.2c-0.1,0-0.1,0-0.2,0.1C360.9,206,360.8,206,360.8,206L360.8,206z M365.8,205.9c0,0,0.1,0.1,0.1,0.1
			c0.1-0.1,0.1-0.2,0.2-0.2c-0.1,0-0.1-0.1-0.2-0.1c-0.1-0.1-0.1-0.2-0.2-0.3c0,0-0.1,0-0.1,0C365.7,205.6,365.7,205.7,365.8,205.9
			L365.8,205.9z M359.6,205.4c-0.1,0.2-0.2,0.4-0.2,0.6c0.1,0,0.3,0,0.4,0c-0.1-0.2-0.1-0.4-0.2-0.7
			C359.7,205.4,359.7,205.4,359.6,205.4L359.6,205.4z M360,205.1c0,0.3,0.1,0.6,0.2,0.9c0.2-0.1,0.4-0.2,0.7-0.3
			c0.1,0,0.3-0.1,0.4-0.1c0.1-0.2,0.3-0.3,0.6-0.4c-0.5-0.2-1-0.3-1.5-0.3C360.3,204.9,360.1,205,360,205.1L360,205.1z M365.2,205.9
			c0,0,0.1,0,0.1,0.1c0-0.1-0.1-0.1-0.1-0.2c-0.1-0.1-0.1-0.1-0.2-0.2c0,0,0,0.1,0,0.1C365.1,205.8,365.2,205.8,365.2,205.9
			L365.2,205.9z M363.2,205.8c0,0.1,0.1,0.1,0.1,0.2c0.1,0,0.1-0.1,0.2-0.1C363.3,205.8,363.3,205.8,363.2,205.8L363.2,205.8z
			 M367.8,205.9C367.8,205.9,367.8,205.9,367.8,205.9C367.8,205.9,367.8,205.9,367.8,205.9C367.8,205.8,367.8,205.9,367.8,205.9
			L367.8,205.9z M364.2,205.8c0,0,0.1,0,0.1,0C364.3,205.8,364.2,205.8,364.2,205.8C364.2,205.7,364.2,205.8,364.2,205.8
			L364.2,205.8z M369,205.8C369,205.8,369,205.8,369,205.8C369,205.8,369,205.8,369,205.8C369,205.8,369,205.8,369,205.8L369,205.8z
			 M362.9,205.5c0.3,0,0.5,0.1,0.8,0.1c0-0.1,0.1-0.2,0.2-0.3c0,0,0,0,0,0c-0.3,0-0.5-0.1-0.8-0.2c0,0-0.1,0-0.2,0
			C362.9,205.2,362.9,205.3,362.9,205.5C362.9,205.5,362.9,205.5,362.9,205.5L362.9,205.5z M364.7,205.6
			C364.7,205.6,364.7,205.6,364.7,205.6C364.7,205.6,364.7,205.6,364.7,205.6C364.7,205.6,364.7,205.6,364.7,205.6L364.7,205.6z
			 M366.4,205.6c0,0,0.1,0,0.1,0c0,0,0,0,0-0.1C366.5,205.5,366.5,205.5,366.4,205.6C366.4,205.5,366.4,205.6,366.4,205.6z
			 M366,205.4C366,205.5,366,205.5,366,205.4c0.1,0.1,0.1,0.1,0.1,0.1c0,0,0-0.1,0-0.1C366.1,205.5,366,205.4,366,205.4L366,205.4z
			 M364.1,205.5C364.1,205.5,364.1,205.5,364.1,205.5C364.1,205.5,364.1,205.5,364.1,205.5C364.1,205.5,364.1,205.5,364.1,205.5
			L364.1,205.5z M366.8,205.3c0.1,0.1,0.3,0.1,0.4,0.2c0,0,0,0,0,0c0-0.3,0-0.7,0-1c-0.2,0-0.4,0-0.7,0.1c0,0-0.1,0-0.1,0.1
			c0.2,0.2,0.3,0.4,0.3,0.6C366.8,205.3,366.8,205.3,366.8,205.3L366.8,205.3z M362.2,205.3c-0.2,0.1-0.3,0.1-0.4,0.2
			c0.2,0,0.4,0,0.7,0c0,0-0.1-0.1-0.1-0.1C362.3,205.4,362.3,205.3,362.2,205.3L362.2,205.3z M358.7,204.7c-0.3,0.2-0.5,0.5-0.7,0.8
			c0.1-0.1,0.1-0.1,0.2-0.2c0.1-0.1,0.2-0.1,0.2-0.2C358.5,205,358.6,204.9,358.7,204.7z M367.5,204.5c0,0.3,0,0.6,0,0.9
			c0.3-0.1,0.7-0.3,0.9-0.5c-0.1-0.1-0.1-0.1-0.2-0.1c-0.1-0.1-0.3-0.1-0.4-0.2C367.7,204.6,367.6,204.5,367.5,204.5L367.5,204.5z
			 M368.6,205.2c-0.1,0.1-0.2,0.2-0.3,0.2c0.2,0,0.3,0,0.5,0C368.8,205.3,368.7,205.3,368.6,205.2
			C368.7,205.2,368.6,205.2,368.6,205.2L368.6,205.2z M364.4,205.3C364.4,205.3,364.4,205.3,364.4,205.3c0.1,0.1,0.1,0,0.1,0
			C364.5,205.3,364.5,205.3,364.4,205.3C364.4,205.3,364.4,205.3,364.4,205.3L364.4,205.3z M366.4,205.2c0,0,0.1,0,0.1,0
			c0-0.2-0.1-0.4-0.3-0.5c0,0,0,0,0,0C366.3,204.9,366.4,205.1,366.4,205.2L366.4,205.2z M362.5,205.2
			C362.6,205.2,362.6,205.2,362.5,205.2C362.6,205.2,362.6,205.2,362.5,205.2C362.6,205.2,362.6,205.2,362.5,205.2L362.5,205.2z
			 M365.9,205.2c0.1,0,0.1,0,0.2,0c0-0.1,0-0.2-0.1-0.2C366,205,366,205.1,365.9,205.2z M368.8,204.9c0.1,0.1,0.2,0.2,0.3,0.3
			c0.3-0.6,0.3-1.5-0.1-2.1c0,0-0.1,0-0.1-0.1c0.3,0.4,0.4,0.9,0.3,1.3C369.1,204.5,369,204.7,368.8,204.9L368.8,204.9z
			 M365.4,205.2C365.4,205.2,365.4,205.2,365.4,205.2c0.1,0,0.2,0,0.3,0c0,0,0,0,0,0c0,0,0-0.1,0-0.1
			C365.6,205.1,365.5,205.1,365.4,205.2C365.4,205.1,365.4,205.2,365.4,205.2L365.4,205.2z M361.2,204.6c0.4,0.1,0.7,0.2,1,0.4
			c0.1,0,0.2-0.1,0.4-0.1c-0.2-0.1-0.3-0.2-0.5-0.3C361.8,204.6,361.5,204.6,361.2,204.6L361.2,204.6z M364.7,204.8
			c0.1,0.1,0.1,0.1,0.1,0.2c0,0,0.1,0,0.1,0c0,0-0.1-0.1-0.1-0.1C364.8,204.8,364.7,204.8,364.7,204.8L364.7,204.8L364.7,204.8z
			 M359.5,204.3c-0.1,0.1-0.2,0.2-0.4,0.3c-0.1,0.1-0.2,0.2-0.2,0.3c0.1-0.1,0.3-0.1,0.5-0.2c0.1-0.1,0.3-0.2,0.4-0.3c0,0,0,0,0.1,0
			c0,0,0,0,0.1,0c0-0.1,0-0.1,0.1-0.2c-0.1,0-0.2,0-0.3,0.1C359.6,204.2,359.5,204.2,359.5,204.3L359.5,204.3z M365.5,204.4
			c0,0.1,0,0.1,0,0.2c0,0.1,0,0.2,0,0.3c0.2-0.1,0.3-0.1,0.5-0.2C365.7,204.5,365.6,204.4,365.5,204.4
			C365.5,204.4,365.5,204.4,365.5,204.4L365.5,204.4z M364.9,204.6C364.9,204.6,365,204.7,364.9,204.6c0.1,0.1,0.2,0.2,0.2,0.2
			c0-0.1,0-0.2,0-0.3c0,0,0,0,0,0c0,0-0.1,0-0.1,0.1C365,204.6,364.9,204.6,364.9,204.6L364.9,204.6z M368.4,204.6
			c0.1,0.1,0.2,0.1,0.3,0.2c0.1-0.2,0.2-0.3,0.2-0.5c0.1-0.4-0.1-0.9-0.4-1.4c-0.2,0-0.4-0.1-0.6-0.1c0,0-0.1,0-0.1,0
			c-0.1,0.3-0.2,0.6-0.4,0.9c0,0.1,0.1,0.3,0.1,0.4c0.1,0,0.3,0.1,0.4,0.2c0,0,0.1,0,0.1,0C368.1,204.4,368.2,204.5,368.4,204.6
			L368.4,204.6z M364,204.6c0.1,0.1,0.2,0.1,0.3,0.2v0c-0.2-0.2-0.4-0.4-0.7-0.5c0,0,0,0,0,0c0,0.1,0.1,0.2,0.1,0.3
			C363.8,204.5,363.9,204.5,364,204.6L364,204.6z M360.1,204.5C360.1,204.5,360.1,204.5,360.1,204.5
			C360.1,204.5,360.1,204.5,360.1,204.5C360.1,204.5,360.1,204.5,360.1,204.5L360.1,204.5z M363.7,204c0.3,0.1,0.7,0.3,0.9,0.5
			c0.1-0.1,0.2-0.1,0.2-0.1c0.1-0.1,0.2-0.1,0.3-0.1c0,0-0.1-0.1-0.1-0.1c0,0,0,0-0.1,0c-0.4-0.1-0.9-0.2-1.3-0.3
			C363.7,203.8,363.7,203.9,363.7,204C363.7,203.9,363.7,203.9,363.7,204L363.7,204z M366.1,204.3c0.1,0,0.1,0.1,0.1,0.1
			c0.1,0,0.1-0.1,0.2-0.1c0,0,0,0,0,0c0,0,0,0,0,0C366.3,204.3,366.2,204.3,366.1,204.3z M363.3,204.3
			C363.3,204.3,363.4,204.3,363.3,204.3C363.4,204.3,363.4,204.3,363.3,204.3C363.4,204.3,363.4,204.3,363.3,204.3L363.3,204.3z
			 M361.4,204.1c-0.1,0.1-0.3,0.1-0.4,0.2C361.1,204.2,361.2,204.2,361.4,204.1c0.1,0.1,0.1,0.1,0.2,0.1c0,0,0,0-0.1-0.1
			C361.5,204.1,361.4,204.1,361.4,204.1L361.4,204.1z M362.7,204.2c0.1,0,0.3,0,0.4,0.1c0-0.1,0.1-0.1,0.1-0.2
			c-0.3-0.1-0.7-0.1-1-0.1C362.4,204,362.5,204.1,362.7,204.2L362.7,204.2z M367.1,204.1C367.1,204.1,367.1,204.1,367.1,204.1
			C367.1,204.1,367.1,204.1,367.1,204.1C367.1,204,367.1,204.1,367.1,204.1L367.1,204.1z M360.2,204.1
			C360.2,204.1,360.2,204.1,360.2,204.1C360.2,204.1,360.3,204.1,360.2,204.1C360.3,204.1,360.3,204.1,360.2,204.1z M365.6,204
			C365.7,204,365.7,204,365.6,204c0.4,0,0.8,0,1.1,0c0.1-0.1,0.1-0.1,0.2-0.2c0,0,0.1-0.1,0.1-0.1c-0.1-0.2-0.2-0.5-0.3-0.7
			C366.3,203.2,365.9,203.6,365.6,204L365.6,204z M365.3,203.8c0,0,0.1,0,0.1,0.1c0.3-0.4,0.7-0.8,1.2-1.1c-0.1-0.2-0.3-0.4-0.5-0.6
			c-0.3,0.1-0.7,0.3-1,0.5c-0.4,0.2-0.7,0.5-1,0.7C364.6,203.5,364.9,203.6,365.3,203.8L365.3,203.8z M360.4,203.7
			C360.4,203.7,360.4,203.8,360.4,203.7c0.2,0.1,0.4,0.1,0.6,0.1c0.1,0,0.1,0,0.2-0.1c0-0.1-0.1-0.1-0.1-0.2
			C360.9,203.6,360.6,203.6,360.4,203.7z M361.3,203.4c0,0.1,0.1,0.1,0.1,0.2c0.2,0,0.5-0.1,0.7-0.1c0.3-0.1,0.6-0.1,0.9-0.1
			c0,0,0-0.1,0-0.1c-0.4,0-0.8,0-1.2,0C361.7,203.4,361.5,203.4,361.3,203.4L361.3,203.4z M363.4,203.5c0.1,0,0.2,0,0.3,0
			c0,0,0,0,0,0C363.6,203.5,363.5,203.4,363.4,203.5C363.4,203.4,363.4,203.5,363.4,203.5L363.4,203.5z M367,203
			c0.1,0.1,0.1,0.3,0.2,0.5c0.1-0.2,0.2-0.4,0.2-0.6C367.3,202.9,367.2,202.9,367,203L367,203z M360.9,203.1
			c-0.1,0.1-0.1,0.1-0.2,0.2c0.1,0,0.2,0,0.2-0.1C361,203.2,360.9,203.2,360.9,203.1L360.9,203.1z M363.3,203.2
			c0.2,0,0.4,0.1,0.5,0.1c0.3-0.3,0.7-0.6,1.1-0.8c0.3-0.2,0.6-0.4,0.9-0.5c0,0,0,0,0,0c-0.1-0.1-0.3-0.2-0.4-0.3
			c-0.6,0-1.2,0-1.7,0.2C363.5,202.1,363.3,202.6,363.3,203.2L363.3,203.2z M361.2,202.9c0,0.1,0,0.2,0.1,0.3c0.2,0,0.4-0.1,0.7-0.1
			c0.4,0,0.8,0,1.2,0c0-0.5,0.1-0.9,0.3-1.3c-0.1,0-0.3,0.1-0.4,0.1C362.2,202.2,361.6,202.6,361.2,202.9z M366.5,202.1
			c0.2,0.2,0.3,0.4,0.4,0.6c0.2-0.1,0.4-0.1,0.6-0.1c0-0.1,0-0.2,0-0.3c0,0,0-0.1,0-0.1c0,0-0.1,0-0.1,0c-0.2,0-0.5,0-0.7,0
			C366.6,202.1,366.5,202.1,366.5,202.1z M368.6,202.6C368.6,202.6,368.6,202.7,368.6,202.6c0,0-0.1-0.1-0.1-0.2
			C368.5,202.5,368.5,202.6,368.6,202.6L368.6,202.6z M367.8,202.6c0.1,0,0.2,0,0.3,0c-0.1-0.1-0.2-0.2-0.4-0.3
			C367.8,202.4,367.8,202.5,367.8,202.6C367.8,202.6,367.8,202.6,367.8,202.6L367.8,202.6z M363.8,201.1c-0.7,0-1.4,0.2-2,0.7
			c-0.2,0.2-0.5,0.4-0.6,0.8c0.4-0.3,1-0.6,1.6-0.8c0.2-0.1,0.5-0.2,0.8-0.2c0.1-0.1,0.3-0.3,0.4-0.4
			C364,201.1,363.9,201.1,363.8,201.1L363.8,201.1z M366,201.6C366,201.7,366.1,201.7,366,201.6c0.1,0.1,0.2,0.2,0.2,0.2
			c0.1,0,0.3-0.1,0.4-0.1c0,0,0,0,0,0C366.5,201.7,366.2,201.7,366,201.6z M365.5,201.3c0.6,0,1.3,0.2,1.8,0.4
			c-0.1-0.1-0.2-0.2-0.3-0.3c-0.3-0.2-0.6-0.3-0.9-0.3c-0.4-0.1-0.8-0.1-1.2,0C365.2,201.2,365.4,201.2,365.5,201.3L365.5,201.3z
			 M364.5,201.2c-0.1,0.1-0.3,0.1-0.4,0.2c0.2,0,0.5-0.1,0.7-0.1C364.8,201.3,364.7,201.3,364.5,201.2z"/>
		<path class="st2" d="M361.1,210.4l2.9-5.2c-0.3-0.2-0.7-0.3-1-0.4L361.1,210.4L361.1,210.4z"/>
		<path class="st2" d="M360.9,202.9l1.5-5.4l-3.7,7.3l4.7-0.8l-0.1,0.4c0.3,0,0.6,0.1,1,0.4l1.5-2.7L360.9,202.9z"/>
	</g>
</g>
<g>
	<path class="st20" d="M20.2,205.7c2-26.6,4-53.3,9-77.9c5-24.6,15.5-60.1,21.2-69.8c5.7-9.7,7,1.4,12.9,11.6
		c5.9,10.2,15.5,29.8,27,44.3c11.6,14.5,29.1,30.5,42.4,42.5c13.3,12,29.5,23.5,37.5,29.5c8,6,9.4,6.4,10.7,6.7"/>
	<path class="st21" d="M17.5,206.6c0,3.4,0,6.7,0.7-4c0.7-10.7,1.5-39.2,3.5-60.4c1.9-21.3,5.5-52,8.1-67.2
		c2.6-15.1,3.5-25,7.4-23.7c3.8,1.3,7.7,17.9,15.7,31.3s18.7,34.8,32.1,49.3s33.8,27.4,48.3,37.6c14.4,10.2,26.4,17,38.3,23.7"/>
	<path class="st22" d="M46.1,209.9c50.6-2.9,98.1-5.3,141.6-34.2c15.2-9.7,29-21.2,40.6-35.1c8.5-10,15.7-21.3,23.7-31.7
		c12.3-16.4,28.9-29,47.1-38.2c25.2-13.5,52.7-19.9,81-19"/>
	<polygon class="st23" points="0.5,0.5 438.4,0.5 438.4,212.3 0.5,212.3 0.5,0.5 	"/>
	<text transform="matrix(1 0 0 1 24.682 30.864)" class="st24 st25 st26">혈중 알코올 농도</text>
	<text transform="matrix(1 0 0 1 77.013 59.671)" class="st24 st25 st27">혈중</text>
	<text transform="matrix(1 0 0 1 77.013 72.919)" class="st24 st25 st27">아세트알데히드 농도</text>
	<text transform="matrix(1 0 0 1 246.401 43.423)" class="st24 st28 st29">숙취</text>
	<line class="st30" x1="28" y1="36.7" x2="30.3" y2="43.4"/>
	<polygon class="st31" points="32.8,41.5 31.9,48.2 27.1,43.5 32.8,41.5 	"/>
	<line class="st32" x1="278.8" y1="48.1" x2="314.1" y2="59.7"/>
	<polygon class="st33" points="314.1,56.5 318.9,61.2 312.2,62.2 314.1,56.5 	"/>
	<line class="st30" x1="72.1" y1="54.1" x2="61.8" y2="52.1"/>
	<polygon class="st31" points="62.2,55.2 56.9,51.1 63.3,49.3 62.2,55.2 	"/>
	<path class="st34" d="M383.4,90.6c-0.4,0.4-0.8,0.7-1.4,1.1c-1,0.4-1.8,0.5-2.7,0.5c-0.7,0-1.2-0.1-1.9-0.3
		c-0.4,1.5-1.2,2.7-2.5,3.4c-1,0.4-1.9,0.7-2.9,0.7c-1.5,0-2.7-0.5-2.9-0.5l0,0c-1.1,1-2.6,1.4-4.4,1.4c-0.5,0-1.1,0-1.6-0.1
		c-1.8-0.3-3.3-1.4-4.3-2.5v11c0.3,0.8,0.8,1.9,1.9,2.7c1.1,0.7,2.5,0.8,4.1,0.5c-0.1-1,0.1-2.2,1.1-3.6l0.8,0.5
		c-2.3,3.7,0.7,5.8,0.8,5.9l-0.5,0.8c-0.1,0-1.5-1-2.1-2.6c-0.5,0-1.1,0.1-1.6,0.1c-1.2,0-2.3-0.4-3.2-1c-0.5-0.4-1.1-0.8-1.4-1.4v1
		c0,11.1,12.1,9,14.7,4l0,0c0.5-0.8,1-2.1,1-3.4c-0.1-1.6-1-3.2-2.6-4.5c-0.7,0.8-1.8,1.6-3.6,2.2l-0.3-1.1c4.8-1.2,4-5.6,4-5.9
		l1-0.1c0,0,0.4,2.1-0.5,4c1.9,1.6,3,3.6,3,5.5c0.1,1.2-0.3,2.5-0.7,3.4c2.1-0.3,4.7-2.1,5.6-4.9l0,0c0,0,1-2.9-0.3-5.2
		c-0.8-1.5-2.5-2.6-4.8-3.2l0.3-1.1c2.6,0.7,4.4,1.9,5.5,3.7c0.4,0.8,0.5,1.8,0.7,2.5c1.1-1.1,2.5-3,1.4-4.9
		C386.3,96.8,385.5,92.2,383.4,90.6L383.4,90.6L383.4,90.6z"/>
	<path class="st34" d="M370,76.1c-0.8,2.2-2.6,3.5-3.6,4c0.7,1.5,0.8,3,0.8,3.9c1.1-0.1,2.3,0.3,3.7,1.1l-0.6,1
		c-3.7-2.6-5.9,0.4-5.9,0.6l-1-0.7c0.1,0,1-1.2,2.8-1.8c0-0.8-0.3-3.6-1.9-5c-1.4-1.1-3.2-1.4-5.5-1v14.6c0.8,1,2.5,2.6,4.4,2.9
		c2.2,0.4,4,0,5.2-1c1.8-1.5,2.1-3.9,2.1-4l1,0.1c0,0.1-0.1,2.2-1.5,3.9c0.8,0.3,2.9,0.6,4.4-0.3c1.1-0.6,1.8-1.5,2.1-2.9
		c-0.4-0.3-0.7-0.6-1.1-1c-1.4-1.7-1.2-3.9-1.2-4l1,0.1c0,0-0.1,1.9,1.1,3.2c0.3,0.3,0.6,0.6,0.8,0.7l0.3,0.1c0.1,0,2.5,1,4.3,0
		c1.1-0.6,1.7-1.2,1.9-2.3c0.1-0.3,0.1-0.6,0.3-1c0-1.7-0.6-3.5-2.2-3.9c1-3.5-1.4-7-4.3-7.7c0.7,2.1,0.6,3.7-0.3,5.1
		c-1.5,2.5-4.8,2.8-5,2.8v-1c0,0,2.9-0.3,4-2.3c0.8-1.2,0.8-2.8,0.1-4.7c0,0-0.1,0-0.3,0.1c0-2.3-2.9-5.4-6.2-4.7
		C370.4,72.8,370.4,74.6,370,76.1L370,76.1L370,76.1z"/>
	<path class="st34" d="M365,78.4c0.3,0.3,0.5,0.6,0.8,1c0.8-0.6,2.5-1.7,3-3.6c0.5-1.5,0.3-3.3-0.7-5.3c-0.7-1.2-2.5-2.9-4.8-2.9
		c-3,0-4.5,2.5-4.5,5.8v3.7C361.4,76.7,363.5,77.1,365,78.4L365,78.4L365,78.4z"/>
	<path class="st34" d="M336.7,88.8c1.4,0.3,2.6,1.3,3.3,2.6c0.3,0.4,0.4,1,0.5,1.5c1.5-0.1,2.7-0.7,3.3-1.5c0.5-0.8,0.5-1.8,0-2.8
		l-0.3-0.7h0.7c1.2-0.3,2.9-1.3,3.1-2.4c0.5-1.7,0.3-3.2-1-5c-0.3,0.1-0.5,0.3-1,0.3c-1.5,0.6-3.3,0.3-5.1-0.8c-0.5,1-1.8,2.8-4,3.3
		c-0.5,0.1-1.2,0.3-1.8,0.3c-0.3,0-0.7,0-1-0.1c-2.2,0.8-2.3,4.2-1.6,5.9C333.2,89,334.9,88.5,336.7,88.8L336.7,88.8L336.7,88.8z"/>
	<path class="st34" d="M336.1,82.4c2.3-0.7,3.6-3.3,3.6-3.3l0.3-0.6l0.4,0.4c1.8,1.1,3.3,1.4,4.8,1c2.1-0.6,3.3-2.8,3.7-3.4
		c-0.4-0.6-0.7-1.4-1-2.2l1-0.3c0.4,1.7,1.1,2.8,2.2,3.3c1.4,0.7,3.2-0.1,3.2-0.1l0.4,1c0,0-1,0.4-2.2,0.4c-0.5,0-1.2,0-1.8-0.3
		c-0.4-0.3-0.8-0.6-1.1-0.8c-0.4,0.7-1.1,1.8-2.2,2.6c0.8,1.4,1.8,3.4,1.1,5.8c-0.4,1.2-1.6,2.2-2.9,2.8c2.2,1.4,4,1.8,5.3,1.4
		c1.9-0.7,2.5-2.8,2.5-2.8l1.1,0.3c-0.1,0.1-0.8,2.6-3.2,3.4c-0.5,0.1-1.1,0.3-1.5,0.3c-1.4,0-3-0.6-4.7-1.7c0.1,0.8,0,1.7-0.5,2.3
		c-0.4,0.8-1.4,1.4-2.3,1.7c1.9,0.1,4.1,1.1,5.2,3.9c0.5-1.4,1.8-2.6,3.3-3.3c1.8-0.8,3.8-0.7,5.6,0.3V73.3c0-3.3-1.5-5.8-4.5-5.8
		s-4.8,2.6-5.2,3.9c-3.7-1.7-7.3,1.8-7.3,4.4c-3.2-0.4-6.2,3-5.8,6.7C334.5,82.7,335.3,82.7,336.1,82.4L336.1,82.4L336.1,82.4z"/>
	<path class="st34" d="M351.2,95c-1.6,0.7-2.9,2.2-3.2,3.9v0.7l-0.7-0.3c-1.4-0.6-3-0.3-4,0.3c-1.6,0.8-2.7,2.9-1.6,5.5
		c1.8-0.4,3.7,0.3,5.1,2.2v-0.1c1.8-1.2,4-1.2,6.2,0.4l-0.5,0.8c-1.8-1.2-3.7-1.4-4.9-0.4c-1.4,1.1-1.8,2.8-1.2,4.3l-1.1,0.4
		c-0.5-1.7-0.1-3.4,0.8-4.7c-1.1-1.5-2.6-2.2-4.1-1.8c-1.5,0.4-2.7,1.8-2.7,3.4l-1.1-0.1c0.1-1.7,1.2-3.2,2.7-4
		c-1.2-3,0-5.8,2.1-6.9c1-0.4,2.3-0.7,3.7-0.6c-1.2-3.7-4.5-3.7-6.6-3.3l-0.8,0.1l0.3-0.8c0.3-0.7,0.1-1.5-0.4-2.3
		c-0.5-1-1.5-1.8-2.6-1.9c-1.8-0.4-3.6,0.3-4.7,0.7c-1.9,1.8-2.7,6.2,0.4,8.7c-1.5,2.6,1.6,5.4,2.3,5.8c0,5.1,4.7,7.8,7.3,7.4
		c2.6,5.1,14.7,7.2,14.7-4V95.6C354.8,94.5,352.8,94.4,351.2,95L351.2,95L351.2,95z"/>
	<path class="st34" d="M383.4,90.6c-0.4,0.4-0.8,0.7-1.4,1.1c-1,0.4-1.8,0.5-2.7,0.5c-0.7,0-1.2-0.1-1.9-0.3
		c-0.4,1.5-1.2,2.7-2.5,3.4c-1,0.4-1.9,0.7-2.9,0.7c-1.5,0-2.7-0.5-2.9-0.5l0,0c-1.1,1-2.6,1.4-4.4,1.4c-0.5,0-1.1,0-1.6-0.1
		c-1.8-0.3-3.3-1.4-4.3-2.5v11c0.3,0.8,0.8,1.9,1.9,2.7c1.1,0.7,2.5,0.8,4.1,0.5c-0.1-1,0.1-2.2,1.1-3.6l0.8,0.5
		c-2.3,3.7,0.7,5.8,0.8,5.9l-0.5,0.8c-0.1,0-1.5-1-2.1-2.6c-0.5,0-1.1,0.1-1.6,0.1c-1.2,0-2.3-0.4-3.2-1c-0.5-0.4-1.1-0.8-1.4-1.4v1
		c0,11.1,12.1,9,14.7,4l0,0c0.5-0.8,1-2.1,1-3.4c-0.1-1.6-1-3.2-2.6-4.5c-0.7,0.8-1.8,1.6-3.6,2.2l-0.3-1.1c4.8-1.2,4-5.6,4-5.9
		l1-0.1c0,0,0.4,2.1-0.5,4c1.9,1.6,3,3.6,3,5.5c0.1,1.2-0.3,2.5-0.7,3.4c2.1-0.3,4.7-2.1,5.6-4.9l0,0c0,0,1-2.9-0.3-5.2
		c-0.8-1.5-2.5-2.6-4.8-3.2l0.3-1.1c2.6,0.7,4.4,1.9,5.5,3.7c0.4,0.8,0.5,1.8,0.7,2.5c1.1-1.1,2.5-3,1.4-4.9
		C386.3,96.8,385.5,92.2,383.4,90.6L383.4,90.6L383.4,90.6z"/>
	<path class="st34" d="M370,76.1c-0.8,2.2-2.6,3.5-3.6,4c0.7,1.5,0.8,3,0.8,3.9c1.1-0.1,2.3,0.3,3.7,1.1l-0.6,1
		c-3.7-2.6-5.9,0.4-5.9,0.6l-1-0.7c0.1,0,1-1.2,2.8-1.8c0-0.8-0.3-3.6-1.9-5c-1.4-1.1-3.2-1.4-5.5-1v14.6c0.8,1,2.5,2.6,4.4,2.9
		c2.2,0.4,4,0,5.2-1c1.8-1.5,2.1-3.9,2.1-4l1,0.1c0,0.1-0.1,2.2-1.5,3.9c0.8,0.3,2.9,0.6,4.4-0.3c1.1-0.6,1.8-1.5,2.1-2.9
		c-0.4-0.3-0.7-0.6-1.1-1c-1.4-1.7-1.2-3.9-1.2-4l1,0.1c0,0-0.1,1.9,1.1,3.2c0.3,0.3,0.6,0.6,0.8,0.7l0.3,0.1c0.1,0,2.5,1,4.3,0
		c1.1-0.6,1.7-1.2,1.9-2.3c0.1-0.3,0.1-0.6,0.3-1c0-1.7-0.6-3.5-2.2-3.9c1-3.5-1.4-7-4.3-7.7c0.7,2.1,0.6,3.7-0.3,5.1
		c-1.5,2.5-4.8,2.8-5,2.8v-1c0,0,2.9-0.3,4-2.3c0.8-1.2,0.8-2.8,0.1-4.7c0,0-0.1,0-0.3,0.1c0-2.3-2.9-5.4-6.2-4.7
		C370.4,72.8,370.4,74.6,370,76.1L370,76.1L370,76.1z"/>
	<path class="st34" d="M365,78.4c0.3,0.3,0.5,0.6,0.8,1c0.8-0.6,2.5-1.7,3-3.6c0.5-1.5,0.3-3.3-0.7-5.3c-0.7-1.2-2.5-2.9-4.8-2.9
		c-3,0-4.5,2.5-4.5,5.8v3.7C361.4,76.7,363.5,77.1,365,78.4L365,78.4L365,78.4z"/>
	<path class="st34" d="M336.7,88.8c1.4,0.3,2.6,1.3,3.3,2.6c0.3,0.4,0.4,1,0.5,1.5c1.5-0.1,2.7-0.7,3.3-1.5c0.5-0.8,0.5-1.8,0-2.8
		l-0.3-0.7h0.7c1.2-0.3,2.9-1.3,3.1-2.4c0.5-1.7,0.3-3.2-1-5c-0.3,0.1-0.5,0.3-1,0.3c-1.5,0.6-3.3,0.3-5.1-0.8c-0.5,1-1.8,2.8-4,3.3
		c-0.5,0.1-1.2,0.3-1.8,0.3c-0.3,0-0.7,0-1-0.1c-2.2,0.8-2.3,4.2-1.6,5.9C333.2,89,334.9,88.5,336.7,88.8L336.7,88.8L336.7,88.8z"/>
	<path class="st34" d="M336.1,82.4c2.3-0.7,3.6-3.3,3.6-3.3l0.3-0.6l0.4,0.4c1.8,1.1,3.3,1.4,4.8,1c2.1-0.6,3.3-2.8,3.7-3.4
		c-0.4-0.6-0.7-1.4-1-2.2l1-0.3c0.4,1.7,1.1,2.8,2.2,3.3c1.4,0.7,3.2-0.1,3.2-0.1l0.4,1c0,0-1,0.4-2.2,0.4c-0.5,0-1.2,0-1.8-0.3
		c-0.4-0.3-0.8-0.6-1.1-0.8c-0.4,0.7-1.1,1.8-2.2,2.6c0.8,1.4,1.8,3.4,1.1,5.8c-0.4,1.2-1.6,2.2-2.9,2.8c2.2,1.4,4,1.8,5.3,1.4
		c1.9-0.7,2.5-2.8,2.5-2.8l1.1,0.3c-0.1,0.1-0.8,2.6-3.2,3.4c-0.5,0.1-1.1,0.3-1.5,0.3c-1.4,0-3-0.6-4.7-1.7c0.1,0.8,0,1.7-0.5,2.3
		c-0.4,0.8-1.4,1.4-2.3,1.7c1.9,0.1,4.1,1.1,5.2,3.9c0.5-1.4,1.8-2.6,3.3-3.3c1.8-0.8,3.8-0.7,5.6,0.3V73.3c0-3.3-1.5-5.8-4.5-5.8
		s-4.8,2.6-5.2,3.9c-3.7-1.7-7.3,1.8-7.3,4.4c-3.2-0.4-6.2,3-5.8,6.7C334.5,82.7,335.3,82.7,336.1,82.4L336.1,82.4L336.1,82.4z"/>
	<path class="st34" d="M351.2,95c-1.6,0.7-2.9,2.2-3.2,3.9v0.7l-0.7-0.3c-1.4-0.6-3-0.3-4,0.3c-1.6,0.8-2.7,2.9-1.6,5.5
		c1.8-0.4,3.7,0.3,5.1,2.2v-0.1c1.8-1.2,4-1.2,6.2,0.4l-0.5,0.8c-1.8-1.2-3.7-1.4-4.9-0.4c-1.4,1.1-1.8,2.8-1.2,4.3l-1.1,0.4
		c-0.5-1.7-0.1-3.4,0.8-4.7c-1.1-1.5-2.6-2.2-4.1-1.8c-1.5,0.4-2.7,1.8-2.7,3.4l-1.1-0.1c0.1-1.7,1.2-3.2,2.7-4
		c-1.2-3,0-5.8,2.1-6.9c1-0.4,2.3-0.7,3.7-0.6c-1.2-3.7-4.5-3.7-6.6-3.3l-0.8,0.1l0.3-0.8c0.3-0.7,0.1-1.5-0.4-2.3
		c-0.5-1-1.5-1.8-2.6-1.9c-1.8-0.4-3.6,0.3-4.7,0.7c-1.9,1.8-2.7,6.2,0.4,8.7c-1.5,2.6,1.6,5.4,2.3,5.8c0,5.1,4.7,7.8,7.3,7.4
		c2.6,5.1,14.7,7.2,14.7-4V95.6C354.8,94.5,352.8,94.4,351.2,95L351.2,95L351.2,95z"/>
	<path class="st35" d="M71.3,99.7c-0.3,2.6-1.8,4.7-4,6.1c-6.1,3.7-16.7,10.1-18.5,11.3c-0.6,0.4-1.4,0.6-2,0.6
		c-2.3,0-3.9-2.3-4-5.9c-0.1-3.2-0.6-5.5-1.4-8c-0.5-2-1-4-1.4-6.8c-0.4-2.5-1.2-11.1,4-16.7c3-3.2,7.5-4.8,13.3-4.8h0.8
		c3.8,0.1,6.7,1.3,9,3.7C72.2,84.5,71.9,94.3,71.3,99.7L71.3,99.7L71.3,99.7z M89.2,83c-2.7-3.5-15-3.6-15.1-3.6
		c-0.9,0-1.1,0.1-1.4,0.2c-0.2,0.2-0.4,0.4-0.6,0.7c-0.2,0.2-0.2,0.6,0,0.9c2.5,5.5,2.3,12.6,2,16.3C74,98,74,98.4,73.8,98.9
		c-0.1,0.2,0,0.6,0.2,0.8c0.2,0.2,0.5,0.4,0.7,0.4c0.1,0.1,0.2,0.1,0.3,0.1c2.6,0,7.1-4.3,8.4-5.7c2.7-2.7,5.8-6.5,6.3-9.1
		C90,84.6,89.8,83.8,89.2,83L89.2,83L89.2,83z M89.2,83L89.2,83"/>
</g>
<g>
	<g>
		<path class="st36" d="M61.8,241.4c0,0,0-0.1,0-0.1c0,0-0.1-0.1-0.1-0.1h-6.9c0,0-0.1,0-0.1,0.1c0,0,0,0.1,0,0.1l3.3,3.3v3.7
			c-0.3,0-0.9,0.1-1.4,0.3l-0.1,0c-0.7,0.1-0.6,0.3,0.2,0.3h3.3c0.7,0,0.8-0.1,0.2-0.3l-0.1,0c-0.5-0.1-1.1-0.2-1.4-0.3v-3.7
			L61.8,241.4L61.8,241.4z"/>
		<path class="st37" d="M61.7,241.2h-3.5v7.7h1.7c0.7,0,0.8-0.1,0.2-0.3l-0.1,0c-0.5-0.1-1.1-0.2-1.4-0.3v-3.7l3.3-3.3
			c0,0,0-0.1,0-0.1C61.8,241.2,61.8,241.2,61.7,241.2L61.7,241.2z"/>
		<polygon class="st38" points="61.4,241.4 58.3,244.6 55.2,241.4 		"/>
		<polygon class="st39" points="58.3,244.6 58.3,244.6 61.4,241.4 58.3,241.4 		"/>
	</g>
	<g>
		<path class="st36" d="M53.8,241.4c0,0,0-0.1,0-0.1c0,0-0.1-0.1-0.1-0.1h-6.9c-0.1,0-0.1,0-0.1,0.1c0,0,0,0.1,0,0.1l3.3,3.3v3.7
			c-0.3,0-0.9,0.1-1.4,0.3l-0.1,0c-0.7,0.1-0.6,0.3,0.2,0.3h3.3c0.7,0,0.8-0.1,0.2-0.3l-0.1,0c-0.5-0.1-1.1-0.2-1.4-0.3v-3.7
			L53.8,241.4L53.8,241.4z"/>
		<path class="st37" d="M53.7,241.2h-3.5v7.7h1.7c0.7,0,0.8-0.1,0.2-0.3l-0.1,0c-0.5-0.1-1.1-0.2-1.4-0.3v-3.7l3.3-3.3
			c0,0,0-0.1,0-0.1C53.8,241.2,53.8,241.2,53.7,241.2L53.7,241.2z"/>
		<polygon class="st38" points="53.4,241.4 50.3,244.6 47.1,241.4 		"/>
		<polygon class="st39" points="50.3,244.6 50.3,244.6 53.4,241.4 50.3,241.4 		"/>
	</g>
	<g>
		<path class="st36" d="M57.8,233.7c0,0,0-0.1,0-0.1c0,0-0.1-0.1-0.1-0.1h-6.9c-0.1,0-0.1,0-0.1,0.1c0,0,0,0.1,0,0.1l3.3,3.3v3.7
			c-0.4,0-0.9,0.1-1.4,0.3l-0.1,0c-0.7,0.1-0.6,0.3,0.2,0.3h3.3c0.7,0,0.8-0.1,0.2-0.3l-0.1,0c-0.5-0.1-1.1-0.2-1.4-0.3V237
			L57.8,233.7L57.8,233.7z"/>
		<path class="st37" d="M57.7,233.5h-3.5v7.7h1.7c0.7,0,0.8-0.1,0.2-0.3l-0.1,0c-0.5-0.1-1.1-0.2-1.4-0.3V237l3.3-3.3
			c0,0,0-0.1,0-0.1C57.8,233.5,57.8,233.5,57.7,233.5L57.7,233.5z"/>
		<polygon class="st38" points="57.5,233.7 54.3,236.9 51.2,233.7 		"/>
		<polygon class="st39" points="54.3,236.9 54.3,236.9 57.5,233.7 54.3,233.7 		"/>
	</g>
	<g>
		<path class="st36" d="M45.8,241.4c0,0,0-0.1,0-0.1c0,0-0.1-0.1-0.1-0.1h-6.9c0,0-0.1,0-0.1,0.1c0,0,0,0.1,0,0.1l3.3,3.3v3.7
			c-0.4,0-0.9,0.1-1.4,0.3l-0.1,0c-0.7,0.1-0.6,0.3,0.2,0.3h3.3c0.7,0,0.8-0.1,0.2-0.3l-0.1,0c-0.5-0.1-1.1-0.2-1.4-0.3v-3.7
			L45.8,241.4L45.8,241.4z"/>
		<path class="st37" d="M45.7,241.2h-3.5v7.7h1.7c0.7,0,0.8-0.1,0.2-0.3l-0.1,0c-0.5-0.1-1.1-0.2-1.4-0.3v-3.7l3.3-3.3
			c0,0,0-0.1,0-0.1C45.8,241.2,45.8,241.2,45.7,241.2L45.7,241.2z"/>
		<polygon class="st38" points="45.4,241.4 42.3,244.6 39.1,241.4 		"/>
		<polygon class="st39" points="42.2,244.6 42.3,244.6 45.4,241.4 42.2,241.4 		"/>
	</g>
	<g>
		<path class="st36" d="M49.8,233.7c0,0,0-0.1,0-0.1c0,0-0.1-0.1-0.1-0.1h-6.9c0,0-0.1,0-0.1,0.1c0,0,0,0.1,0,0.1l3.3,3.3v3.7
			c-0.4,0-0.9,0.1-1.4,0.3l-0.1,0c-0.7,0.1-0.6,0.3,0.2,0.3h3.3c0.7,0,0.8-0.1,0.2-0.3l-0.1,0c-0.5-0.1-1.1-0.2-1.4-0.3V237
			L49.8,233.7L49.8,233.7z"/>
		<path class="st37" d="M49.7,233.5h-3.5v7.7h1.7c0.7,0,0.8-0.1,0.2-0.3l-0.1,0c-0.5-0.1-1.1-0.2-1.4-0.3V237l3.3-3.3
			c0,0,0-0.1,0-0.1C49.8,233.5,49.8,233.5,49.7,233.5L49.7,233.5z"/>
		<polygon class="st38" points="49.4,233.7 46.3,236.9 43.2,233.7 		"/>
		<polygon class="st39" points="46.3,236.9 46.3,236.9 49.4,233.7 46.3,233.7 		"/>
	</g>
	<g>
		<path class="st36" d="M37.8,241.4c0,0,0-0.1,0-0.1c0,0-0.1-0.1-0.1-0.1h-6.9c-0.1,0-0.1,0-0.1,0.1c0,0,0,0.1,0,0.1l3.3,3.3v3.7
			c-0.3,0-0.9,0.1-1.4,0.3l-0.1,0c-0.6,0.1-0.6,0.3,0.2,0.3h3.3c0.7,0,0.8-0.1,0.2-0.3l-0.1,0c-0.5-0.1-1.1-0.2-1.4-0.3v-3.7
			L37.8,241.4L37.8,241.4z"/>
		<path class="st37" d="M37.7,241.2h-3.5v7.7h1.7c0.7,0,0.8-0.1,0.2-0.3l-0.1,0c-0.5-0.1-1.1-0.2-1.4-0.3v-3.7l3.3-3.3
			c0,0,0-0.1,0-0.1C37.8,241.2,37.7,241.2,37.7,241.2L37.7,241.2z"/>
		<polygon class="st38" points="37.4,241.4 34.3,244.6 31.1,241.4 		"/>
		<polygon class="st39" points="34.2,244.6 34.3,244.6 37.4,241.4 34.2,241.4 		"/>
	</g>
	<g>
		<path class="st36" d="M41.8,233.7c0,0,0-0.1,0-0.1c0,0-0.1-0.1-0.1-0.1h-6.9c-0.1,0-0.1,0-0.1,0.1c0,0,0,0.1,0,0.1L38,237v3.7
			c-0.3,0-0.9,0.1-1.4,0.3l-0.1,0c-0.7,0.1-0.6,0.3,0.2,0.3h3.3c0.7,0,0.8-0.1,0.2-0.3l-0.1,0c-0.5-0.1-1.1-0.2-1.4-0.3V237
			L41.8,233.7L41.8,233.7z"/>
		<path class="st37" d="M41.7,233.5h-3.5v7.7h1.7c0.7,0,0.8-0.1,0.2-0.3l-0.1,0c-0.5-0.1-1.1-0.2-1.4-0.3V237l3.3-3.3
			c0,0,0-0.1,0-0.1C41.8,233.5,41.8,233.5,41.7,233.5L41.7,233.5z"/>
		<polygon class="st38" points="41.4,233.7 38.3,236.9 35.1,233.7 		"/>
		<polygon class="st39" points="38.3,236.9 38.3,236.9 41.4,233.7 38.3,233.7 		"/>
	</g>
	<g>
		<path class="st36" d="M29.8,241.4c0,0,0-0.1,0-0.1c0,0-0.1-0.1-0.1-0.1h-6.9c0,0-0.1,0-0.1,0.1c0,0,0,0.1,0,0.1l3.3,3.3v3.7
			c-0.4,0-0.9,0.1-1.4,0.3l-0.1,0c-0.6,0.1-0.6,0.3,0.2,0.3h3.3c0.7,0,0.8-0.1,0.2-0.3l-0.1,0c-0.5-0.1-1.1-0.2-1.4-0.3v-3.7
			L29.8,241.4L29.8,241.4z"/>
		<path class="st37" d="M29.7,241.2h-3.5v7.7h1.7c0.7,0,0.8-0.1,0.2-0.3l-0.1,0c-0.5-0.1-1.1-0.2-1.4-0.3v-3.7l3.3-3.3
			c0,0,0-0.1,0-0.1C29.8,241.2,29.7,241.2,29.7,241.2L29.7,241.2z"/>
		<polygon class="st38" points="29.4,241.4 26.2,244.6 23.1,241.4 		"/>
		<polygon class="st39" points="26.2,244.6 26.2,244.6 29.4,241.4 26.2,241.4 		"/>
	</g>
	<g>
		<path class="st36" d="M33.8,233.7c0,0,0-0.1,0-0.1c0,0-0.1-0.1-0.1-0.1h-6.9c0,0-0.1,0-0.1,0.1c0,0,0,0.1,0,0.1L30,237v3.7
			c-0.4,0-0.9,0.1-1.4,0.3l-0.1,0c-0.6,0.1-0.6,0.3,0.2,0.3h3.3c0.7,0,0.8-0.1,0.2-0.3l-0.1,0c-0.5-0.1-1.1-0.2-1.4-0.3V237
			L33.8,233.7L33.8,233.7z"/>
		<path class="st37" d="M33.7,233.5h-3.5v7.7h1.7c0.7,0,0.8-0.1,0.2-0.3l-0.1,0c-0.5-0.1-1.1-0.2-1.4-0.3V237l3.3-3.3
			c0,0,0-0.1,0-0.1C33.8,233.5,33.8,233.5,33.7,233.5L33.7,233.5z"/>
		<polygon class="st38" points="33.4,233.7 30.3,236.9 27.1,233.7 		"/>
		<polygon class="st39" points="30.2,236.9 30.3,236.9 33.4,233.7 30.2,233.7 		"/>
	</g>
	<g>
		<path class="st36" d="M21.8,241.4c0,0,0-0.1,0-0.1c0,0-0.1-0.1-0.1-0.1h-6.9c-0.1,0-0.1,0-0.1,0.1c0,0,0,0.1,0,0.1l3.3,3.3v3.7
			c-0.4,0-0.9,0.1-1.4,0.3l-0.1,0c-0.6,0.1-0.6,0.3,0.2,0.3h3.3c0.7,0,0.8-0.1,0.2-0.3l-0.1,0c-0.5-0.1-1.1-0.2-1.4-0.3v-3.7
			L21.8,241.4L21.8,241.4z"/>
		<path class="st37" d="M21.7,241.2h-3.5v7.7h1.7c0.7,0,0.8-0.1,0.2-0.3l-0.1,0c-0.5-0.1-1.1-0.2-1.4-0.3v-3.7l3.3-3.3
			c0,0,0-0.1,0-0.1C21.8,241.2,21.7,241.2,21.7,241.2L21.7,241.2z"/>
		<polygon class="st38" points="21.4,241.4 18.2,244.6 15.1,241.4 		"/>
		<polygon class="st39" points="18.2,244.6 18.2,244.6 21.4,241.4 18.2,241.4 		"/>
	</g>
	<g>
		<path class="st36" d="M25.8,233.7c0,0,0-0.1,0-0.1c0,0-0.1-0.1-0.1-0.1h-6.9c0,0-0.1,0-0.1,0.1c0,0,0,0.1,0,0.1L22,237v3.7
			c-0.4,0-0.9,0.1-1.4,0.3l-0.1,0c-0.6,0.1-0.6,0.3,0.2,0.3h3.3c0.7,0,0.8-0.1,0.2-0.3l-0.1,0c-0.5-0.1-1.1-0.2-1.4-0.3V237
			L25.8,233.7L25.8,233.7z"/>
		<path class="st37" d="M25.7,233.5h-3.5v7.7h1.7c0.7,0,0.8-0.1,0.2-0.3l-0.1,0c-0.5-0.1-1.1-0.2-1.4-0.3V237l3.3-3.3
			c0,0,0-0.1,0-0.1C25.8,233.5,25.7,233.5,25.7,233.5L25.7,233.5z"/>
		<polygon class="st38" points="25.4,233.7 22.3,236.9 19.1,233.7 		"/>
		<polygon class="st39" points="22.2,236.9 22.3,236.9 25.4,233.7 22.2,233.7 		"/>
	</g>
</g>
<g>
	<polygon class="st40" points="75.6,234.4 73.7,234.4 73.9,234 75.4,234 	"/>
	<path class="st38" d="M76.5,240L76,239c-0.2-0.3-0.3-1-0.3-1.4l-0.2-2.2c0-0.2-0.1-0.3-0.2-0.4c0.1,0,0.2-0.1,0.2-0.2
		c0-0.1-0.1-0.2-0.3-0.2h-0.9c-0.2,0-0.3,0.1-0.3,0.2c0,0.1,0.1,0.2,0.2,0.2c-0.1,0.1-0.2,0.2-0.2,0.4l-0.2,2.2c0,0.4-0.2,1-0.3,1.4
		l-0.5,0.9c-0.2,0.3-0.3,1-0.3,1.4v6.7c0,0.4,0.3,0.8,0.7,0.8h2.9c0.4,0,0.7-0.4,0.7-0.8v-6.7C76.8,240.9,76.7,240.3,76.5,240
		L76.5,240z"/>
	<path class="st39" d="M76,239c-0.2-0.3-0.3-1-0.3-1.4l-0.2-2.2c0-0.2-0.1-0.3-0.2-0.4c0.1,0,0.2-0.1,0.2-0.2c0-0.1-0.1-0.2-0.3-0.2
		h-0.5v14.3h1.4c0.4,0,0.7-0.4,0.7-0.8v-6.7c0-0.4-0.1-1-0.3-1.4L76,239L76,239z"/>
	<polygon class="st41" points="74.7,234.4 75.6,234.4 75.4,234 74.7,234 	"/>
	<path class="st36" d="M76.3,246.3H76c-0.3,0.9-0.8,1.5-1.3,1.5s-1.1-0.5-1.3-1.5H73v-3.1h0.3c0.3-0.7,0.8-1.4,1.3-1.4
		s1.1,0.7,1.3,1.4h0.4L76.3,246.3L76.3,246.3z"/>
	<path class="st37" d="M74.7,241.8v6c0.6,0,1.1-0.5,1.3-1.5h0.3v-3.1H76C75.7,242.5,75.2,241.8,74.7,241.8L74.7,241.8z"/>
</g>
<g>
	<path class="st36" d="M69,237.9c-0.2-0.4-0.4-3.8-0.4-3.8c0-0.4-0.4-0.7-0.8-0.7s-0.8,0.3-0.8,0.7c0,0-0.2,3.4-0.4,3.8
		c0,0-1.7,0.8-1.7,1.2v8.8c0,0.4,0.3,0.9,0.8,0.9h4.3c0.4,0,0.8-0.5,0.8-0.9v-8.8C70.7,238.7,69,237.9,69,237.9z"/>
	<rect x="67" y="232.3" class="st40" width="1.6" height="1.3"/>
	<path class="st37" d="M69,237.9c-0.2-0.4-0.4-3.8-0.4-3.8c0-0.4-0.3-0.7-0.8-0.7v15.5h2.1c0.4,0,0.8-0.5,0.8-0.9v-8.8
		C70.7,238.7,69,237.9,69,237.9L69,237.9z"/>
	<rect x="67.8" y="232.3" class="st41" width="0.8" height="1.3"/>
	<path class="st38" d="M67.8,239c0.7,0,1.3,0.6,1.3,1.3s-0.6,1.3-1.3,1.3s-1.3-0.6-1.3-1.3S67.1,239,67.8,239z"/>
	<path class="st39" d="M67.8,239v2.6c0.7,0,1.3-0.6,1.3-1.3S68.5,239,67.8,239L67.8,239z"/>
	<path class="st40" d="M67.8,239.3c0.6,0,1,0.5,1,1s-0.5,1-1,1s-1-0.5-1-1S67.2,239.3,67.8,239.3z"/>
	<path class="st41" d="M68.8,240.3c0-0.6-0.5-1-1-1v2.1C68.4,241.4,68.8,240.9,68.8,240.3L68.8,240.3z"/>
	<rect x="65.7" y="243.1" class="st38" width="4.2" height="3.4"/>
	<rect x="67.8" y="243.1" class="st39" width="2.1" height="3.4"/>
	<rect x="65.9" y="243.4" class="st40" width="3.7" height="2.9"/>
	<rect x="67.8" y="243.4" class="st41" width="1.8" height="2.9"/>
</g>
<g>
	<path class="st38" d="M84.8,238.9l-0.8-2.9l0-0.1c-0.1-0.3-0.3-2.2-0.3-3.8c0-0.6-0.4-1.1-1-1.1s-1,0.5-1,1.1
		c-0.1,1.7-0.2,3.6-0.3,3.9l-0.8,2.9c-0.6,1.6-0.4,8.4-0.4,8.7c0,0.6,0.4,1.3,1,1.3h3.1c0.6,0,1-0.7,1-1.3
		C85.2,247.3,85.4,240.7,84.8,238.9L84.8,238.9z"/>
	<path class="st39" d="M84,236.1L84,236.1c-0.1-0.3-0.3-2.2-0.4-3.9c0-0.6-0.4-1.1-1-1.1v17.8h1.6c0.6,0,1-0.7,1-1.3
		c0-0.3,0.3-6.9-0.4-8.7L84,236.1L84,236.1z"/>
	<path class="st36" d="M80.5,246c0-0.1,0-0.2,0-0.3h4.2c0,0.1,0,0.2,0,0.3C84.7,246,80.5,246,80.5,246z"/>
	<path class="st36" d="M84.6,241.7c0,0.1,0,0.2,0,0.3h-4.1c0-0.1,0-0.2,0-0.3H84.6L84.6,241.7z"/>
	<path class="st36" d="M81.9,230.4h1.4c0.3,0,0.6,0.3,0.6,0.6v0.6c0,0.3-0.3,0.6-0.6,0.6h-1.4c-0.3,0-0.6-0.3-0.6-0.6v-0.6
		C81.3,230.6,81.5,230.4,81.9,230.4z"/>
	<polygon class="st36" points="80.4,238.8 84.7,238.8 84.3,237.3 80.8,237.3 	"/>
	<g>
		<path class="st37" d="M84.6,241.7h-2v0.3h2.1C84.6,241.8,84.6,241.8,84.6,241.7z"/>
		<path class="st37" d="M84.7,246c0-0.1,0-0.2,0-0.3h-2.1v0.3C82.6,246,84.7,246,84.7,246z"/>
		<path class="st37" d="M83.9,231.5v-0.6c0-0.3-0.3-0.6-0.6-0.6h-0.7v1.7h0.7C83.6,232.1,83.9,231.8,83.9,231.5L83.9,231.5z"/>
		<path class="st37" d="M83.3,237.3c-0.1-0.4-0.4-0.7-0.7-0.7v2.8c0.3,0,0.5-0.2,0.6-0.6h1.5l-0.4-1.5L83.3,237.3L83.3,237.3z"/>
	</g>
	<path class="st40" d="M80.5,245.1c0-0.8,0-1.7,0-2.6h4.2c0,0.9,0,1.8,0,2.6H80.5z"/>
	<path class="st36" d="M83.4,237.9c0,0.8-0.4,1.4-0.8,1.4s-0.8-0.6-0.8-1.4s0.4-1.4,0.8-1.4S83.4,237.2,83.4,237.9z"/>
	<path class="st40" d="M83.2,237.9c0,0.5-0.3,1-0.6,1s-0.6-0.4-0.6-1s0.3-1,0.6-1S83.2,237.4,83.2,237.9z"/>
	<g>
		<path class="st41" d="M83.2,237.9c0-0.5-0.3-1-0.6-1v2C82.9,238.9,83.2,238.5,83.2,237.9z"/>
		<path class="st41" d="M82.6,242.5v2.6h2.1c0-0.8,0-1.7,0-2.6H82.6L82.6,242.5z"/>
	</g>
</g>
<g>
	<path class="st38" d="M92.9,241.6c0-0.3-0.1-0.8-0.3-1.1l-0.4-0.8c-0.2-0.3-0.5-2-0.5-2c0-0.1-0.1-0.3-0.1-0.3
		c0.1,0,0.1-0.1,0.1-0.2c0-0.1-0.1-0.2-0.2-0.2h-0.8c-0.1,0-0.2,0.1-0.2,0.2c0,0.1,0.1,0.2,0.1,0.2c-0.1,0.1-0.1,0.2-0.1,0.3
		c0,0-0.3,1.7-0.5,2l-0.4,0.8c-0.2,0.3-0.3,0.8-0.3,1.1l-0.2,6.6c0,0.3,0.2,0.7,0.6,0.7h2.8c0.3,0,0.6-0.4,0.6-0.7L92.9,241.6
		L92.9,241.6z"/>
	<path class="st39" d="M92.6,240.5l-0.4-0.8c-0.2-0.3-0.5-2-0.5-2c0-0.1-0.1-0.3-0.1-0.3c0.1,0,0.1-0.1,0.1-0.2
		c0-0.1-0.1-0.2-0.2-0.2h-0.4v11.8h1.4c0.3,0,0.6-0.4,0.6-0.7l-0.2-6.6C92.9,241.3,92.8,240.8,92.6,240.5L92.6,240.5z"/>
	<polygon class="st38" points="91.9,236.9 90.3,236.9 90.5,236.6 91.8,236.6 	"/>
	<rect x="89.8" y="244.2" class="st40" width="2.7" height="1.5"/>
	<polygon class="st39" points="91.1,236.6 91.1,236.9 91.9,236.9 91.8,236.6 	"/>
	<rect x="91.1" y="244.2" class="st41" width="1.4" height="1.5"/>
	<rect x="89.8" y="245.9" class="st36" width="2.7" height="0.4"/>
	<rect x="91.1" y="245.9" class="st37" width="1.4" height="0.4"/>
</g>
<rect x="12.4" y="248.9" class="st42" width="83.5" height="1.7"/>
<rect x="12.4" y="261.1" class="st42" width="83.5" height="1.7"/>
<polygon class="st36" points="86.1,304.4 25.2,304.4 31.7,310.9 92.6,310.9 "/>
<g>
	<g>
		<path class="st43" d="M78.7,253L78.7,253l0-3.6h-3.2v3.6c-1.1,0-2.8,2.5-2.8,3.6v14.5h8.9v-14.5C81.5,255.5,79.8,253,78.7,253
			L78.7,253z"/>
		<rect x="75.4" y="245.8" class="st44" width="3.2" height="4.3"/>
		<path class="st45" d="M78.7,253L78.7,253l0-3.6H77v21.8h4.4v-14.5C81.5,255.5,79.8,253,78.7,253L78.7,253z"/>
		<rect x="77" y="245.8" class="st46" width="1.6" height="4.3"/>
		<rect x="73.8" y="258.7" class="st47" width="6.5" height="4"/>
		<rect x="77" y="258.7" class="st48" width="3.2" height="4"/>
		<g>
			<path class="st49" d="M83.8,270.7l-0.1-0.1c-0.3-0.2-0.7-0.3-0.9-0.4v-2.8c1-0.5,1.8-2.9,2-6.1H80c0.3,3.2,1.1,5.6,2,6.1v2.8
				c-0.3,0.1-0.6,0.2-0.9,0.4l-0.1,0.1c-0.5,0.3-0.5,0.5,0.1,0.5h2.6C84.2,271.2,84.3,271,83.8,270.7z"/>
			<path class="st50" d="M84.8,261.4h-2.4v9.8h1.3c0.6,0,0.6-0.2,0.1-0.5l-0.1-0.1c-0.3-0.2-0.7-0.3-0.9-0.4v-2.8
				C83.7,267,84.5,264.6,84.8,261.4L84.8,261.4z"/>
		</g>
	</g>
	<g>
		<rect x="57.8" y="272.7" class="st44" width="23.7" height="3.8"/>
		<rect x="68.6" y="272.7" class="st44" width="2.3" height="30.2"/>
		<rect x="51.7" y="271.1" class="st44" width="36" height="3.8"/>
		<path class="st44" d="M86.9,303.3c0,0.7-0.6,1.1-1.4,1.1H53.9c-0.8,0-1.4-0.5-1.4-1.1s0.6-1.1,1.4-1.1h31.6
			C86.3,302.1,86.9,302.6,86.9,303.3z"/>
		<path class="st46" d="M85.5,302.1H69.7v2.3h15.8c0.8,0,1.4-0.5,1.4-1.1S86.3,302.1,85.5,302.1L85.5,302.1z"/>
		<rect x="69.7" y="272.7" class="st46" width="1.1" height="30.2"/>
		<rect x="69.7" y="272.7" class="st46" width="11.9" height="3.8"/>
		<rect x="69.7" y="271.1" class="st46" width="18" height="3.8"/>
	</g>
	<g>
		<polygon class="st51" points="38.4,267.7 58.5,271.8 60.1,266.9 47.7,259.3 		"/>
		<g>
			<polygon class="st52" points="51.2,263.2 50.6,260.5 47.6,260.7 44.7,261.6 45.2,264.3 			"/>
			
				<rect x="44.4" y="258.3" transform="matrix(0.9822 -0.1877 0.1877 0.9822 -47.8879 13.5101)" class="st53" width="6.1" height="2.8"/>
		</g>
		<path class="st51" d="M30.4,284c-2.8,0-5.1-2.3-5.1-5.1c0-13.3,10.4-19.6,15.9-21c2.7-0.7,5.5,0.9,6.2,3.6
			c0.7,2.7-0.9,5.5-3.6,6.2c-0.9,0.3-8.4,2.6-8.4,11.1C35.5,281.7,33.3,284,30.4,284L30.4,284L30.4,284z"/>
		<path class="st1" d="M55.6,272.8c0,0,0.1-0.1,0.1-0.1C55.6,272.7,55.6,272.7,55.6,272.8L55.6,272.8L55.6,272.8z"/>
		<g>
			<g>
				<path class="st54" d="M58.5,300.4c0,0-0.4-0.5,0.7-1.2c1.1-0.7,1.9-1.1,2.3-1.4c0.3-0.4,1.2,0.7,1.2,0.8c0,0.1-1.4,1.6-1.5,1.7
					C61,300.3,58.5,300.4,58.5,300.4L58.5,300.4z"/>
				<path class="st55" d="M59.8,302.4c0,0-0.2,0.8,0.7,1.5c0.3,0.3,1.2-0.6,3.9-1.3c2.7-0.7,5.9-2.1,7.4-6c0.2-0.4-0.6-1.8-1.7-1
					C69,296.3,59.8,302.4,59.8,302.4L59.8,302.4z"/>
				<path class="st52" d="M63.1,298c0.2,0.2,0.1,0.6-0.1,0.8l-2.4,2c-0.3,0.2-0.7,0.2-0.9,0l-2.8-3.3c-0.2-0.2-0.1-0.6,0.1-0.8
					l2.4-2c0.3-0.2,0.7-0.2,0.9,0L63.1,298L63.1,298z"/>
				<path class="st56" d="M58.5,300.4c0,0,0.9,1.9,1.2,2.3c1.5-0.6,1-0.5,2.7-0.9c1.6-0.4,7.7-2.8,8.3-6.3c0-0.5-1.8-1.5-5.3,0.2
					c-0.7,0.2-2.3,0.1-3-0.1c-0.7,0.3-1,1.5-1.2,3.2S58.2,300,58.5,300.4L58.5,300.4z"/>
				<path class="st55" d="M64.8,297.2c0,0-0.4-0.1-0.6-0.6c-0.1,0.2-0.2,0.3-0.3,0.5c0,0,0,0.1-0.1,0.1c0,0-0.1,0-0.1,0
					c-0.2-0.2-0.3-0.3-0.4-0.5c0,0,0,0-0.1,0.1c-0.2,0.2-0.4,0.4-0.6,0.6c0,0-0.1,0-0.1,0c0,0-0.1-0.1-0.1-0.1
					c-0.1-1,0.7-1.7,0.8-1.7c0,0,0.1,0,0.1,0c0,0,0.1,0.1,0.1,0.1c0,0.2,0,0.4,0,0.5c0.3-0.3,0.5-0.5,0.7-0.6c0,0,0.1,0,0.1,0
					c0,0,0.1,0.1,0.1,0.1c0,0.1,0,0.3,0,0.4c0.3-0.3,0.5-0.5,0.6-0.5c0.1,0,0.1,0,0.2,0c0,0.1,0,0.1,0,0.2c0,0-0.3,0.2-0.6,0.6
					c0.2,0.4,0.5,0.5,0.6,0.5c0.1,0,0.1,0.1,0.1,0.2c0,0,0,0,0,0C64.9,297.2,64.8,297.2,64.8,297.2L64.8,297.2z M64,296
					c-0.1,0.1-0.3,0.3-0.5,0.5c0.1,0.1,0.1,0.3,0.3,0.4c0.1-0.2,0.2-0.4,0.3-0.5C64,296.3,64,296.2,64,296L64,296z M63.1,296
					c-0.2,0.2-0.4,0.6-0.5,1c0.1-0.1,0.3-0.3,0.4-0.4c0.1-0.1,0.1-0.1,0.1-0.1C63.1,296.3,63.1,296.2,63.1,296L63.1,296z"/>
			</g>
			<path class="st54" d="M57.6,299l4.4-3.7l-12.6-12.5l-6.3,6.3c0,0,0.3,0.1,2.4,0.8C48.3,290.9,57.6,299,57.6,299L57.6,299z"/>
			<path class="st57" d="M55.1,297.2l5.5-4.6c0.1-0.1,0.3-0.1,0.4,0l1.5,1.8c0.1,0.1,0.1,0.3,0,0.4l-5.5,4.6c-0.1,0.1-0.3,0.1-0.4,0
				l-1.5-1.8C54.9,297.5,54.9,297.3,55.1,297.2z"/>
		</g>
		<path class="st54" d="M36.2,287.5l-9.4-2.6c-1.9-0.5-3.1-2.4-2.4-4.9l1.1-4.1l16.3,4.5l-1.1,4.1C40.1,287,38.1,288,36.2,287.5
			L36.2,287.5z"/>
		<path class="st54" d="M47.9,282.1l-8.4-2.3c-1.9-0.5-3.8,0.5-4.5,3l-1.1,4.1l15.3,4.2l1.1-4.1C51,284.4,49.8,282.6,47.9,282.1
			L47.9,282.1z"/>
		<g>
			<g>
				<rect x="29.2" y="289.2" class="st44" width="3.8" height="3.8"/>
				<rect x="30" y="289.2" class="st44" width="2.3" height="13.7"/>
				<rect x="23.1" y="287.7" class="st44" width="16" height="3.8"/>
				<path class="st44" d="M38.4,303.3c0,0.7-0.6,1.1-1.4,1.1H25.3c-0.8,0-1.4-0.5-1.4-1.1s0.6-1.1,1.4-1.1H37
					C37.7,302.1,38.4,302.6,38.4,303.3z"/>
				<path class="st46" d="M37,302.1h-5.8v2.3H37c0.8,0,1.4-0.5,1.4-1.1S37.7,302.1,37,302.1L37,302.1z"/>
				<rect x="31.1" y="289.2" class="st46" width="1.1" height="13.7"/>
				<rect x="31.1" y="289.2" class="st46" width="1.9" height="3.8"/>
				<rect x="31.1" y="287.7" class="st46" width="8" height="3.8"/>
			</g>
			<path class="st36" d="M23.5,284h15.2c1.1,0,2,0.9,2,2v1.1c0,1.1-0.9,2-2,2H23.5c-1.1,0-2-0.9-2-2v-1.1
				C21.5,284.9,22.4,284,23.5,284L23.5,284z"/>
		</g>
		<path class="st53" d="M42.1,293.3c-0.3-0.1-0.4-0.4-0.2-0.7l0.4-1c0.1-0.3,0.5-1.6,0.5-2.4c0-0.4-0.1-0.9-0.3-1.3l-0.3,1.4
			c-0.1,0.3-0.4,0.5-0.7,0.4c-0.3-0.1-0.5-0.4-0.4-0.7l0.4-2.4c0-0.1,0-0.2-0.1-0.3c-0.3-1.2,0.2-2.8,0.6-3.2
			c0.4-0.4-0.8-3.3-0.8-3.3l1.3-0.1c0,0,2.9,2.3,2.6,4.7c-0.2,1.4-0.3,2.4-0.3,3l0,0.7c0,0,0,0.1,0,0.1c0,0,0,0.1,0,0.1l-1.8,4.5
			C42.7,293.2,42.4,293.4,42.1,293.3z"/>
		<path class="st58" d="M39.5,282.9l-0.1-18.8c0-1.8,1.1-3.3,2.6-3.3c1.5,0,2.7,1.4,2.8,3.2h0l0.1,18.8L39.5,282.9L39.5,282.9z"/>
		<g>
			<path class="st52" d="M56.4,268.9c-0.5,0.1-1.2,0.1-1.3-0.4l0,0c-0.1-0.5,0.2-1.1,0.7-1.2l3.2-0.8c0.5-0.1,1.1,0.2,1.2,0.7l0,0
				c0.1,0.5-0.2,1.1-0.7,1.2C58.7,268.5,57.8,268.5,56.4,268.9L56.4,268.9z"/>
			<path class="st53" d="M50.9,250.6c-0.5,0.2-1.1,0.6-0.9,1.1l0,0c0.2,0.5,0.8,0.8,1.3,0.6l3.1-1.1c0.5-0.2,0.8-0.8,0.6-1.3l0,0
				c-0.2-0.5-0.8-0.8-1.3-0.6C52.9,249.6,52.3,250.1,50.9,250.6L50.9,250.6z"/>
			<g>
				<path class="st53" d="M54.2,268.4c-2.5,0.7-4.9-0.2-5.7-2.7l-2.5-8.1c-0.7-2.5,0.8-4.6,3.2-5.4l10.2-3.6
					c2.5-0.7,4.9,0.2,5.7,2.7l2.7,9c0.7,2.5-0.8,4.6-3.2,5.4L54.2,268.4L54.2,268.4z"/>
				<path class="st52" d="M67.9,260.3l-1.4-4.5l-19.3,5.8l1.2,4.1c0.7,2.5,3.2,3.4,5.7,2.7l10.5-2.7
					C67.2,264.9,68.7,262.7,67.9,260.3L67.9,260.3z"/>
			</g>
			<path class="st59" d="M48.9,256.8c-2.3-1.5,0.7-4.4,3.3-5.2l7.3-2.5c-0.6,0,1-1.3-0.2-0.9l-10.2,4c-7.1,2.2-6.7,10.8-6.7,10.8
				l5-1.3l4-1.4C50.7,257.9,49.9,257.4,48.9,256.8L48.9,256.8z"/>
			<path class="st60" d="M51.3,264.7c-1.1,2.5,3,3.2,5.6,2.5l7.5-2c-0.5,0.3,2.1,0.3,0.9,0.7L54,268.4c-7.1,2.2-11.6-5.3-11.6-5.3
				l9-2.7C52.2,262.8,51.8,263.6,51.3,264.7L51.3,264.7z"/>
			<path class="st52" d="M49.4,261.1c-0.4-1.3-1.5-2.4-1.6-2.3c-0.2,0.1-0.2,0.4-0.1,0.5l0,0c0,0,1.3,1.8,1.2,3.9
				c0,0.2,0.1,0.4,0.4,0.4C49.5,263.7,49.8,262.4,49.4,261.1L49.4,261.1z"/>
			<path class="st60" d="M59,260.9c1.3,1.8,1.2,4,1.2,4c0,0.4,0.9,0.6,0.9,0.2c0-0.1,0.3-2.9-1.3-5.2
				C59.7,259.7,58.8,260.6,59,260.9L59,260.9z"/>
			<path class="st59" d="M57.5,255.7c0.1-0.5,0.2-1,0-1.8c-0.4-1.4-1.2-2.3-1.2-2.3c-0.2-0.3,0.5-1,0.7-0.7c0,0.1,1.1,1,1.6,2.6
				c0.2,0.7,0.3,1.7,0.2,2.4C58.6,256.4,57.4,256.1,57.5,255.7L57.5,255.7z"/>
			<g>
				<path class="st53" d="M51.2,258.6c-0.5,0.1-0.7,1-0.4,1.9l9.9-3C59.8,257.2,51.2,258.6,51.2,258.6z"/>
				<path class="st52" d="M57.6,259.4c2-1,3-1.6,3.1-1.9l-9.9,3c0,0,0,0,0,0c0.3,0.9,0.9,1.5,1.4,1.4
					C52.2,261.9,54.9,260.8,57.6,259.4z"/>
			</g>
			<path class="st53" d="M51.2,259.6c-0.2,0.1-0.5-0.1-0.6-0.4c-0.1-0.3,0-0.6,0.3-0.7c0.2-0.1,0.5,0.1,0.6,0.4
				C51.6,259.2,51.4,259.5,51.2,259.6L51.2,259.6z"/>
			<path class="st52" d="M52,262.3c-0.2,0.1-0.5-0.1-0.6-0.4c-0.1-0.3,0-0.6,0.3-0.7c0.2-0.1,0.5,0.1,0.6,0.4
				C52.4,261.9,52.2,262.2,52,262.3L52,262.3z"/>
			<path class="st59" d="M70.4,254.6c-0.2-1.1-0.7-2.3-1.4-3.5c-1.9-3.5-4.2-2.4-4.2-2.4c0.2-0.7-0.4-1.7-2.8-1.4
				c-2.6,0.3-3.9,1.8-3.9,1.8s-0.1,0.3,1.4,0c3.6-1.1,2.3,1.5,2.3,1.5s0.1,0,0.2,0.1c0,0,1.9,0.8,1.8,5.9l3.6-0.8L70.4,254.6
				L70.4,254.6z"/>
			<path class="st60" d="M70.4,254.6l-6.7,2c-0.1,6.8-0.3,9.9,2.2,9.1C68.6,264.9,72.4,262.4,70.4,254.6L70.4,254.6z"/>
			<path class="st61" d="M58.5,263.9c0-0.1-0.1-0.2-0.2-0.2c0,0-0.4-0.1-0.5-0.5c-0.1-0.3,0.2-0.6,0.2-0.6c0.1-0.1,0.1-0.3,0-0.4
				c-0.1-0.1-0.3-0.1-0.4,0c0,0-0.5,0.5-0.3,1.2c0.2,0.7,0.9,0.8,0.9,0.8c0.2,0,0.3-0.1,0.3-0.2C58.5,264,58.5,264,58.5,263.9
				L58.5,263.9z"/>
			<path class="st61" d="M55.8,254.9c0-0.1-0.1-0.2-0.2-0.2c0,0-0.4-0.1-0.5-0.5c-0.1-0.3,0.2-0.6,0.2-0.6c0.1-0.1,0.1-0.3,0-0.4
				c-0.1-0.1-0.3-0.1-0.4,0c0,0-0.5,0.5-0.3,1.2c0.2,0.7,0.9,0.8,0.9,0.8c0.2,0,0.3-0.1,0.3-0.2C55.8,255,55.8,255,55.8,254.9
				L55.8,254.9z"/>
		</g>
		<path class="st53" d="M47.9,280.9c0.3,0,0.5-0.2,0.5-0.6l0-1.1c0-0.3,0.1-1.7,0.4-2.4c0.1-0.4,0.4-0.8,0.7-1.1l-0.2,1.4
			c0,0.3,0.2,0.6,0.5,0.7c0.3,0,0.6-0.2,0.7-0.5l0.5-2.4c0.1-0.1,0.1-0.2,0.2-0.3c0.7-1,0.8-2.7,0.6-3.2c-0.2-0.5,2-2.8,2-2.8
			l-1.1-0.6c0,0-3.5,1.1-4.1,3.5c-0.3,1.4-0.6,2.4-0.8,2.9l-0.3,0.7c0,0,0,0.1,0,0.1c0,0,0,0.1,0,0.1l0,4.8
			C47.3,280.7,47.6,280.9,47.9,280.9L47.9,280.9z"/>
		<path class="st51" d="M51.6,266.7l7-0.1c1.8,0,3.3,1.1,3.3,2.6c0,1.5-1.4,2.7-3.2,2.8v0l-7,0.1C51.7,272.1,51.6,266.7,51.6,266.7z
			"/>
	</g>
</g>
</svg>
