<?xml version="1.0" encoding="UTF-8"?>
<svg id="_레이어_1" data-name="레이어 1" xmlns="http://www.w3.org/2000/svg" xmlns:xlink="http://www.w3.org/1999/xlink" viewBox="0 0 438.84 310.922">
  <defs>
    <style>
      .cls-1 {
        fill: #e67a6c;
      }

      .cls-1, .cls-2, .cls-3, .cls-4, .cls-5, .cls-6, .cls-7, .cls-8, .cls-9, .cls-10, .cls-11, .cls-12, .cls-13, .cls-14, .cls-15, .cls-16, .cls-17, .cls-18, .cls-19, .cls-20, .cls-21, .cls-22, .cls-23, .cls-24, .cls-25, .cls-26, .cls-27, .cls-28, .cls-29, .cls-30, .cls-31, .cls-32, .cls-33, .cls-34, .cls-35, .cls-36, .cls-37, .cls-38, .cls-39, .cls-40, .cls-41, .cls-42, .cls-43, .cls-44, .cls-45, .cls-46, .cls-47, .cls-48, .cls-49 {
        stroke-width: 0px;
      }

      .cls-2 {
        fill: #52bba4;
      }

      .cls-3 {
        fill: #5d3c2b;
      }

      .cls-4 {
        fill: #9fa6a9;
      }

      .cls-5 {
        fill: #7db0b6;
      }

      .cls-6 {
        fill: url(#linear-gradient);
      }

      .cls-50 {
        font-size: 11.04px;
      }

      .cls-50, .cls-26, .cls-51, .cls-52 {
        fill: #010100;
      }

      .cls-50, .cls-52 {
        font-family: NotoSansCJKkr-Regular-KSCpc-EUC-H, 'Noto Sans CJK KR';
      }

      .cls-7 {
        fill: #c96d5f;
      }

      .cls-53 {
        stroke-width: .96px;
      }

      .cls-53, .cls-54, .cls-20, .cls-55, .cls-56, .cls-57, .cls-58, .cls-59 {
        fill: none;
      }

      .cls-53, .cls-54, .cls-55, .cls-56, .cls-57, .cls-58 {
        stroke-miterlimit: 8;
      }

      .cls-53, .cls-57, .cls-59 {
        stroke: #010100;
      }

      .cls-8 {
        fill: #e8be23;
      }

      .cls-9 {
        fill: #d5cbbf;
      }

      .cls-10 {
        fill: #272f3b;
      }

      .cls-11 {
        fill: #785034;
      }

      .cls-12 {
        fill: #492b1c;
      }

      .cls-13 {
        fill: #b51e23;
      }

      .cls-13, .cls-18, .cls-26, .cls-37 {
        fill-rule: evenodd;
      }

      .cls-14 {
        fill: #ec6549;
      }

      .cls-15 {
        fill: #414445;
      }

      .cls-16 {
        fill: #443328;
      }

      .cls-17 {
        fill: #e3e3e3;
      }

      .cls-18 {
        fill: #f4bb1c;
      }

      .cls-19 {
        fill: #90bec6;
      }

      .cls-54 {
        stroke: #f4bb1c;
      }

      .cls-54, .cls-56, .cls-58 {
        stroke-width: 4.56px;
      }

      .cls-21 {
        fill: #ec9778;
      }

      .cls-55 {
        stroke: #7f7f7f;
      }

      .cls-55, .cls-57 {
        stroke-width: .48px;
      }

      .cls-22 {
        fill: #c4e0e1;
      }

      .cls-23 {
        fill: #7d5634;
      }

      .cls-24 {
        fill: #3c5467;
      }

      .cls-25 {
        fill: #c15131;
      }

      .cls-56 {
        stroke: #23a5de;
      }

      .cls-27 {
        fill: #b1d5d9;
      }

      .cls-28 {
        fill: #788184;
      }

      .cls-29 {
        fill: #39a48c;
      }

      .cls-30 {
        opacity: .28;
      }

      .cls-30, .cls-32 {
        fill: #fff;
      }

      .cls-31 {
        fill: #674127;
      }

      .cls-33 {
        fill: #cb5644;
      }

      .cls-34 {
        fill: #488476;
      }

      .cls-35 {
        fill: #4e3020;
      }

      .cls-36 {
        fill: #363e4d;
      }

      .cls-51 {
        font-family: NotoSansCJKkr-Black-KSCpc-EUC-H, 'Noto Sans CJK KR';
        font-size: 15.96px;
        font-weight: 800;
      }

      .cls-37 {
        fill: #7f7f7f;
      }

      .cls-38 {
        fill: #e0856e;
      }

      .cls-39 {
        fill: #f1b37b;
      }

      .cls-40 {
        fill: #528e82;
      }

      .cls-41 {
        fill: #dca917;
      }

      .cls-52 {
        font-size: 12px;
      }

      .cls-58 {
        stroke: #e7211b;
      }

      .cls-59 {
        stroke-miterlimit: 10;
        stroke-width: .085px;
      }

      .cls-42 {
        fill: #4d6d80;
      }

      .cls-43 {
        fill: #f6be86;
      }

      .cls-44 {
        fill: #d94c3d;
      }

      .cls-45 {
        fill: #efa47c;
      }

      .cls-46 {
        fill: #8a633e;
      }

      .cls-47 {
        fill: #ea8b74;
        opacity: .47;
      }

      .cls-48 {
        fill: #b1d3d4;
      }

      .cls-49 {
        fill: #cc5553;
      }
    </style>
    <linearGradient id="linear-gradient" x1="374.103" y1="233.327" x2="374.443" y2="225.716" gradientUnits="userSpaceOnUse">
      <stop offset="0" stop-color="#efa47c"/>
      <stop offset="1" stop-color="#d25555"/>
    </linearGradient>
  </defs>
  <g>
    <line class="cls-32" x1="372.86" y1="211.237" x2="374.197" y2="208.572"/>
    <polygon class="cls-33" points="372.86 211.237 375.817 209.905 374.197 208.572 372.86 211.237"/>
    <polygon class="cls-33" points="357.619 215.651 354.487 212.902 354.009 214.858 357.619 215.651"/>
    <g>
      <polygon class="cls-10" points="391.313 290.028 377.52 281.018 359.865 291.786 358.739 299.199 393.12 299.199 391.313 290.028"/>
      <path class="cls-21" d="m361.573,224.507c.813-.24,1.629-.507,2.357-.941.729-.435,1.373-1.054,1.697-1.838.1-.244.171-.509.14-.77-.047-.391-.315-.73-.65-.937-.334-.208-.727-.297-1.118-.346-1.143-.141-2.325.059-3.359.567.26,1.524.568,2.763.934,4.265Z"/>
      <path class="cls-21" d="m357.468,222.127c.454-1.216,1.042-2.382,1.751-3.469.186-.286.382-.567.625-.805.666-.65,1.622-.908,2.548-.996.927-.086,1.864-.028,2.784-.161-2.518,1.972-5.078,3.611-7.708,5.432Z"/>
      <path class="cls-21" d="m391.415,222.574c-.454-1.215-1.043-2.38-1.752-3.469-.185-.285-.381-.567-.624-.805-.666-.649-1.623-.908-2.549-.995-.926-.087-1.863-.029-2.784-.162,2.518,1.973,5.078,3.611,7.709,5.431Z"/>
      <path class="cls-21" d="m361.743,220.357c.277-.718.974-1.205,1.705-1.448.73-.243,1.512-.284,2.276-.375.224-.027.454-.06.651-.17.196-.11.356-.317.348-.542-.013-.329-.35-.541-.655-.663-.746-.297-1.563-.414-2.363-.339-.974.916-1.662,2.234-1.962,3.537Z"/>
      <path class="cls-21" d="m387.309,224.954c-.813-.24-1.629-.506-2.356-.941-.729-.434-1.374-1.053-1.698-1.838-.101-.244-.17-.508-.139-.77.046-.39.315-.73.649-.936.334-.207.728-.298,1.118-.346,1.143-.141,2.326.059,3.359.566-.259,1.525-.568,2.764-.934,4.265Z"/>
      <path class="cls-35" d="m363.536,217.957c-.485-.595-.729-1.867-.349-2.69-.173.06-.303.203-.423.341-.397.457-.796.926-1.047,1.477-.252.551-.342,1.204-.107,1.762-.71-.766-1.227-1.71-1.49-2.721-.271.549-.243,1.212-.03,1.787.212.575.593,1.072,1.008,1.522-.856-.349-1.733-.645-2.627-.888.43.083.786.372,1.119.656.234.2.476.416.575.707.079.231.057.482.052.727-.016.707.119,1.418.392,2.071.154.366.365.73.705.935.261.157.574.204.878.205,1.18.002,2.267-.658,3.143-1.449.206-.185,1.569-1.247,1.706-1.488-1.752-.226-2.93-2.253-3.504-2.955Z"/>
      <polygon class="cls-17" points="379.809 248.446 369.041 248.412 367.699 249.46 370.089 258.276 379.729 258.276 380.816 249.232 379.809 248.446"/>
      <path class="cls-38" d="m375.815,239.811l-1.463-.239-1.463.239-3.286.535c-.008.107-.158,3.76-.285,6.863.157.129.318.255.482.376.828.606,1.739,1.097,2.699,1.459.007.003.014.006.021.008,1.369.52,2.894.52,4.265,0,.007-.002.014-.005.02-.008.923-.348,1.796-.817,2.599-1.393-.131-3.186-.296-7.192-.304-7.306l-3.286-.535Z"/>
      <path class="cls-35" d="m382.624,239.255c2.843-2.334,4.13-6.046,4.547-9.701.205.267.834.249,1.284.211-.027-1.695-1.769-4.176-2.597-5.657.344.249.8.336,1.211.231-.733-2.333-3.103-3.735-5.4-4.568.426-.012.849-.133,1.215-.349-2.223-2.077-5.576-2.221-8.619-2.218.628-.579,1.257-1.158,1.886-1.737-2.818-.687-5.955.115-8.098,2.071.027-.947.153-1.891.374-2.812-1.009.908-2.03,1.829-2.786,2.956-.758,1.128-1.302,2.719-1.099,4.062-2.207.425-4.087,2.227-4.604,4.414.662-.079,1.323-.157,1.985-.236-1.114,1.556-1.729,3.463-1.729,5.377.51-.214.978-.526,1.373-.914-.098,1.861.494,3.752,1.635,5.227s2.822,2.521,4.648,2.895c-.023-.083.097-.54.133-.462.037.079.141.093.228.096,4.249.153,10.175,1.428,14.414,1.115Z"/>
      <path class="cls-45" d="m382.624,239.255c-.345,1.556-.835,3.127-1.821,4.383-.467.594-1.036,1.105-1.646,1.55-.828.607-1.736,1.098-2.695,1.46-.007.002-.015.006-.021.008-1.369.519-2.896.519-4.265,0-.007-.002-.014-.005-.021-.008-.959-.362-1.87-.853-2.698-1.46-.611-.445-1.177-.956-1.646-1.55-.983-1.256-1.477-2.827-1.822-4.383-1.022-4.617-.925-9.401-.824-14.129l6.422-.8,2.724-.342,2.719.338,6.423.804c.1,4.728.196,9.512-.825,14.129Z"/>
      <path class="cls-6" d="m382.624,239.255c-.345,1.556-.835,3.127-1.821,4.383-.467.594-1.036,1.105-1.646,1.55-.828.607-1.736,1.098-2.695,1.46-.007.002-.015.006-.021.008-1.369.519-2.896.519-4.265,0-.007-.002-.014-.005-.021-.008-.959-.362-1.87-.853-2.698-1.46-.611-.445-1.177-.956-1.646-1.55-.983-1.256-1.477-2.827-1.822-4.383-1.022-4.617-.925-9.401-.824-14.129l6.422-.8,2.724-.342,2.719.338,6.423.804c.1,4.728.196,9.512-.825,14.129Z"/>
      <path class="cls-45" d="m376.786,249.053c-1.37.52-2.895.52-4.265,0-.008-.002-.015-.005-.021-.008-.96-.362-1.871-.853-2.699-1.459-.164-.121-.325-.247-.482-.376-.095,2.315-.177,4.325-.177,4.325l3.771,3.475,1.039.073.4.028.404-.028,1.035-.073,3.771-3.475s-.071-1.76-.158-3.882c-.803.575-1.676,1.044-2.599,1.393-.007.003-.014.006-.02.008Z"/>
      <path class="cls-12" d="m369.85,236.481c-.115,0-.227-.057-.293-.161-.1-.162-.053-.375.109-.476l1.067-.67c-.521-.04-1.046-.051-1.567-.032-.194.006-.35-.142-.356-.333-.007-.19.142-.35.332-.356.888-.031,1.783.018,2.662.147.143.021.258.128.287.271.03.141-.031.286-.153.362l-1.904,1.196c-.058.036-.121.052-.184.052Z"/>
      <path class="cls-12" d="m378.844,236.481c-.063,0-.127-.017-.184-.052l-1.904-1.196c-.123-.077-.185-.222-.155-.362.03-.143.144-.25.288-.271.879-.129,1.775-.178,2.662-.147.19.007.339.166.332.356-.006.191-.156.342-.356.333-.521-.018-1.046-.008-1.566.032l1.067.67c.161.102.21.314.108.476-.065.104-.178.161-.292.161Z"/>
      <path class="cls-32" d="m377.749,243.065c-.529.308-1.167.162-1.65-.269-.297-.261-.541-.617-.832-.878-.003,0-.005-.003-.006-.005-.367-.321-.852-.321-1.218,0-.002.002-.004.004-.006.005-.294.261-.538.617-.832.878-.484.431-1.122.577-1.652.269-.529-.309-.905-1.119-.794-1.89.064-.447.276-.838.542-1.123.474-.506,1.104-.692,1.706-.664.184.007.369.033.553.071.725.149,1.457.149,2.182,0,.185-.038.369-.064.556-.071.602-.028,1.231.158,1.706.664.263.285.475.675.542,1.123.11.77-.266,1.581-.796,1.89Z"/>
      <path class="cls-1" d="m373.229,237.194v.012c0,.786.637,1.423,1.422,1.423s1.423-.637,1.423-1.423v-.012h-2.845Z"/>
      <path class="cls-35" d="m383.755,218.132c.718-.436,1.422-.936,2.237-1.138.478-.119.979-.129,1.472-.099-1.251.614-2.364,1.507-3.234,2.597,1.242-1.102,3.148-1.035,4.567-1.897-.567.854-1.35,1.564-2.255,2.046,1.352.232,2.782-.015,3.979-.688-.861.924-2.008,1.54-3.204,1.942-1.196.402-2.448.602-3.694.802-.357.057-.721.114-1.08.071-.675-.082-1.291-.542-1.559-1.166-.233-.543-.168-1.429.467-1.655.337-.119.724-.095,1.069-.211.436-.146.843-.367,1.234-.605Z"/>
      <g>
        <path class="cls-45" d="m381.337,241.804c1.26.07,2.556-.278,3.555-1.048,1.001-.77,1.68-1.97,1.734-3.232.03-.695-.162-1.455-.721-1.869-.427-.316-.993-.377-1.524-.332-.007,0-.014,0-.021.002-1.017.095-1.846.853-2.055,1.852l-.969,4.626Z"/>
        <g>
          <path class="cls-7" d="m384.093,237.36c.06.036.118.08.174.133.227.218.362.524.371.839.009.313-.108.627-.322.858-.023.026-.057.039-.09.038-.027-.001-.055-.011-.077-.032-.049-.044-.051-.119-.007-.167.173-.186.267-.437.259-.69-.007-.253-.115-.499-.298-.674-.066-.063-.169-.14-.286-.159-.438.268-.791.686-.977,1.164-.019.047-.064.076-.113.076-.013,0-.027-.003-.04-.008-.061-.024-.091-.093-.067-.153.223-.571.66-1.064,1.2-1.353.541-.288,1.194-.378,1.793-.245.063.015.103.077.09.141-.015.064-.077.103-.142.09-.485-.108-1.01-.055-1.467.144Z"/>
          <path class="cls-7" d="m382.08,239.848c.033-.056.105-.076.162-.044.639.366,1.441.146,1.979-.182.345-.209.797-.576,1.001-1.131.022-.061.09-.093.152-.07.061.022.092.091.069.151-.227.619-.724,1.022-1.1,1.251-.384.234-.893.417-1.4.405-.281-.005-.561-.071-.82-.219-.057-.033-.076-.105-.044-.162Z"/>
        </g>
      </g>
      <path class="cls-12" d="m370.663,231.135c.241-.182.515-.381.814-.339.287.04.507.311.549.598s-.065.58-.23.818c-.336.486-.888.778-1.441.986-.436.164-.888.288-1.347.37-.255.044-.518.077-.77.02-.253-.056-.495-.217-.588-.458-.281-.737.698-.77,1.118-.912.692-.236,1.314-.645,1.895-1.083Z"/>
      <path class="cls-12" d="m377.878,231.135c-.241-.182-.516-.381-.814-.339-.288.04-.508.311-.55.598s.066.58.23.818c.336.486.888.778,1.441.986.436.164.888.288,1.347.37.255.044.519.077.771.02.252-.056.494-.217.587-.458.28-.737-.698-.77-1.117-.912-.693-.236-1.315-.645-1.895-1.083Z"/>
      <path class="cls-35" d="m364.066,236.924c1.602-3.167,3.066-7.129,2.251-10.585,1.283,1.305,3.032,2.135,4.86,2.198-.229-.774-.615-1.5-1.129-2.124,2.002,1.091,4.384,1.467,6.624,1.047-.279-.596-.722-1.115-1.265-1.486.577.71,1.598.833,2.512.874,1.52.068,3.043.06,4.562-.024.152,2.836.61,5.726,1.685,8.354-.116-3.4-.277-6.734-.558-10.126-.055-.659-.143-1.382-.627-1.832-.381-.353-.925-.454-1.44-.516-2.166-.255-4.358-.031-6.521.246-2.968.378-5.924.852-8.861,1.422-.53.103-1.083.218-1.507.552-.798.628-.889,1.787-.856,2.8.099,3.071-.841,6.334.27,9.199Z"/>
      <path class="cls-45" d="m358.309,231.217c.922-1.389,2.605-2.042,3.832-3.171.737-.678,1.309-1.534,1.651-2.475.139-.381.244-.782.477-1.113.381-.54,1.03-.803,1.601-1.138.569-.334,1.132-.867,1.103-1.526-.01-.209-.092-.428-.267-.542-.319-.207-.732.02-1.05.229-.719.473-1.482.879-2.275,1.209-.396.165-.812.314-1.242.303.147-.375.506-.618.848-.831,1.145-.712,2.333-1.358,3.555-1.932.281-.132.575-.269.77-.51.197-.242.26-.623.054-.857-.202-.228-.556-.223-.857-.184-1.737.232-3.343,1.029-4.882,1.866.894-.952,2.018-1.688,3.248-2.129.637-.228,1.37-.432,1.689-1.027.066-.126.111-.27.09-.411-.057-.369-.505-.524-.878-.533-1.444-.037-2.685.939-3.953,1.631-1.032.564-2.181.976-3.012,1.807-.599.598-.987,1.369-1.366,2.125-.86,1.719-1.721,3.438-2.581,5.156.951,1.5,2.003,3.014,3.445,4.052Z"/>
      <g>
        <path class="cls-45" d="m367.162,241.804c-1.26.07-2.555-.278-3.555-1.048-1.001-.77-1.68-1.97-1.734-3.232-.03-.695.162-1.455.721-1.869.427-.316.993-.377,1.522-.332.008,0,.016,0,.022.002,1.016.095,1.846.853,2.055,1.852l.969,4.626Z"/>
        <g>
          <path class="cls-7" d="m364.406,237.36c-.06.036-.118.08-.174.133-.226.218-.361.524-.371.839-.009.313.108.627.322.858.023.026.057.039.089.038.028-.001.057-.011.078-.032.048-.044.052-.119.007-.167-.172-.186-.267-.437-.26-.69.008-.253.116-.499.299-.674.067-.063.169-.14.286-.159.438.268.791.686.978,1.164.018.047.064.076.113.076.013,0,.026-.003.04-.008.061-.024.091-.093.067-.153-.222-.571-.66-1.064-1.2-1.353-.541-.288-1.194-.378-1.793-.245-.063.015-.103.077-.09.141.015.064.078.103.142.09.484-.108,1.01-.055,1.467.144Z"/>
          <path class="cls-7" d="m366.419,239.848c-.032-.056-.104-.076-.162-.044-.639.366-1.441.146-1.979-.182-.344-.209-.797-.576-1.001-1.131-.022-.061-.09-.093-.151-.07-.061.022-.094.091-.07.151.227.619.723,1.022,1.1,1.251.384.234.893.417,1.4.405.28-.005.561-.071.82-.219.057-.033.076-.105.044-.162Z"/>
        </g>
      </g>
      <path class="cls-47" d="m381.61,238.551c0,.898-.728,1.627-1.626,1.627s-1.627-.728-1.627-1.627.729-1.626,1.627-1.626,1.626.728,1.626,1.626Z"/>
      <path class="cls-47" d="m370.767,238.551c0,.898-.728,1.627-1.626,1.627s-1.627-.728-1.627-1.627.728-1.626,1.627-1.626,1.626.728,1.626,1.626Z"/>
      <polygon class="cls-32" points="376.769 282.903 379.729 258.276 370.089 258.276 376.769 282.903"/>
      <path class="cls-59" d="m350.129,247.182c-.114,0-3.973-.321-4.156.551-.184.873,4.156-.551,4.156-.551Z"/>
      <path class="cls-32" d="m358.858,232.647c0-.352.103-.697.303-.991l.607-.905-5.162-4.171s-.529.654-1.389,1.753c1.248.961,3.793,2.951,5.646,4.4-.002-.029-.005-.058-.005-.086Z"/>
      <path class="cls-36" d="m358.863,232.734c-1.853-1.45-4.398-3.44-5.646-4.4-.004.004-.007.008-.01.013l5.656,4.401s-.001-.009-.001-.013Z"/>
      <path class="cls-36" d="m395.627,228.36l-5.632,4.305s0,.009,0,.013c0,.145-.017.29-.055.432-.114.462-.035.952.224,1.352l8.189,12.704-13.52,3.355c-1.136.283-2.341.024-3.262-.697l-.757-.591-1.087,9.044-2.96,24.626-6.68-24.626-2.391-8.816-.421.329c-.921.721-2.122.98-3.258.697l-13.524-3.355,8.189-12.7c.259-.403.342-.894.225-1.357-.026-.108-.04-.218-.046-.328l-5.656-4.401c-3.87,4.945-14.423,18.857-14.104,23.131.391,5.228,20.224,12.248,20.224,12.248,0,0-.832,28.754-1.163,32.841l35.181.017c-.655-3.575-3.82-32.824-3.82-32.824,0,0,19.833-7.02,20.224-12.248.321-4.278-10.263-18.224-14.12-23.151Z"/>
      <polygon class="cls-49" points="378.308 270.095 375.736 258.276 377.406 256.539 375.013 254.758 374.817 254.758 372.424 256.539 374.094 258.276 373.259 269.962 376.769 282.903 378.308 270.095"/>
      <path class="cls-32" d="m369.289,247.774l5.528,6.984-4.727,3.518-2.304-8.615c-.085-.318.022-.657.276-.868l1.226-1.019Z"/>
      <path class="cls-32" d="m379.369,247.774l-4.552,6.984s4.884,3.621,4.912,3.516c.025-.092.995-7.073,1.23-8.767.032-.229-.058-.457-.235-.606l-1.355-1.126Z"/>
      <path class="cls-21" d="m387.14,220.805c-.277-.719-.974-1.205-1.705-1.448-.731-.244-1.512-.283-2.276-.375-.225-.026-.454-.059-.651-.169-.197-.111-.356-.317-.348-.542.013-.329.349-.54.655-.663.746-.296,1.562-.414,2.362-.339.975.916,1.662,2.235,1.963,3.538Z"/>
      <path class="cls-45" d="m390.574,231.665c-.923-1.389-2.606-2.042-3.833-3.171-.737-.678-1.309-1.534-1.651-2.474-.138-.381-.244-.783-.478-1.114-.38-.539-1.03-.803-1.6-1.138-.569-.335-1.132-.866-1.103-1.526.01-.209.092-.429.268-.542.318-.207.731.02,1.05.229.718.474,1.48.878,2.274,1.209.396.165.812.313,1.242.303-.146-.375-.505-.618-.848-.831-1.145-.713-2.333-1.358-3.554-1.931-.281-.132-.576-.268-.771-.51-.196-.242-.259-.623-.053-.856.202-.229.555-.224.857-.184,1.736.231,3.342,1.029,4.882,1.866-.895-.953-2.018-1.69-3.248-2.129-.637-.228-1.371-.432-1.689-1.028-.067-.126-.112-.269-.09-.411.057-.368.505-.524.877-.533,1.445-.037,2.684.939,3.953,1.631,1.033.563,2.181.976,3.013,1.808.598.598.987,1.368,1.366,2.124.859,1.719,1.72,3.437,2.58,5.156-.95,1.501-2.003,3.015-3.444,4.052Z"/>
      <path class="cls-32" d="m394.245,226.615l-5.162,4.172.61.9c.194.293.3.633.303.978l5.632-4.305c-.856-1.094-1.383-1.745-1.383-1.745Z"/>
      <path class="cls-35" d="m363.405,225.129c-.89.479-1.544,1.373-1.731,2.366.203-.235.405-.471.607-.706-.147.927.108,1.91.686,2.649.38-.379.762-.762,1.055-1.212.592-.912.767-2.024.927-3.101.021-.139.109-.447-.004-.566-.132-.138-.304.021-.444.086-.361.169-.744.294-1.096.484Z"/>
      <path class="cls-35" d="m363.998,219.835c.366-.054.718.146,1.024.353-.662.08-1.36.177-1.885.59.347-.08.712-.079,1.059.004-.557.31-1.053.726-1.458,1.217.208-.028.421-.013.622.044.092.027.184.062.28.054.092-.008.175-.057.255-.103.534-.312,1.078-.61,1.629-.891.549-.28,1.166-.492,1.691-.809-.127-.167-.52-.264-.722-.331-.267-.088-.542-.152-.82-.192-.557-.08-1.128-.06-1.676.064Z"/>
      <path class="cls-35" d="m385.224,227.656c.201-.209.249-.523.231-.814-.017-.289-.086-.576-.075-.866.268.169.535.339.803.509.022-.08-.014-.164-.049-.24-.306-.658-.638-1.348-1.239-1.753.298.045.597.086.896.121-.222-.425-.631-.73-1.076-.907-.444-.178-.927-.239-1.405-.272.321-.037.645-.045.968-.019-.241-.324-.645-.491-1.043-.551-.399-.06-.806-.027-1.209-.031-.168-.002-.359-.02-.46-.155.141.518.263.969.488,1.458.337.733.852,1.373,1.423,1.942.571.569,1.137,1.052,1.747,1.579Z"/>
      <path class="cls-35" d="m385.807,222.754c.1-.034.07-.184.015-.274-.18-.296-.425-.554-.711-.75.336-.021.671-.033,1.007-.034-.513-.489-1.269-.707-1.964-.565.234-.132.468-.264.702-.397-.29-.286-.747-.31-1.152-.268-.545.055-1.077.198-1.607.339.475.291.87.529,1.356.799.776.434,1.532.811,2.354,1.15Z"/>
      <path class="cls-3" d="m374.375,217.854c.405.048.875.179,1.015.563.079.215.024.465-.1.659-.123.195-.307.343-.497.473-.41.279-.867.489-1.347.619-.193.051-.409.103-.522.27-.104.153-.084.359-.033.538.114.404.354.86.12,1.208-.163.243-.5.307-.787.252-.286-.057-.543-.208-.811-.32-.269-.111-.579-.184-.851-.075-.566.228-.602,1.04-1.046,1.46-.377.357-.961.356-1.477.3-.074-.009-.159-.015-.214.037-.115.108.038.29.181.359.637.31,1.363.366,2.071.395.861.036,1.743.037,2.56-.238.164-.056.33-.125.449-.251.12-.125.183-.318.112-.476-.066-.147-.234-.31-.128-.431.033-.037.082-.052.13-.064.694-.188,1.425-.203,2.122-.378.246-.062.496-.149.681-.325.183-.175.283-.46.179-.692-.061-.138-.184-.238-.268-.363-.085-.125-.126-.308-.021-.418.057-.06.141-.081.221-.1.645-.144,1.32-.215,1.905-.52.202-.105.41-.271.412-.498,0-.148-.088-.28-.179-.398-.691-.893-1.7-1.534-2.803-1.782-.863-.194-1.764-.15-2.641-.029-.095.013-.285.075-.162.189.065.061.477-.019.576-.021.385-.006.77.014,1.152.058Z"/>
      <polygon class="cls-36" points="358.739 299.199 358.429 301.235 393.521 301.235 393.12 299.199 358.739 299.199"/>
      <polygon class="cls-10" points="373.679 297.752 377.053 297.674 377.053 287.223 373.679 297.752"/>
      <path class="cls-30" d="m366.5,235.508c-.005.085-.005.177.042.248.055.083.164.117.261.098.097-.018.181-.084.237-.164.177-.251.108-.592.032-.889-.054-.211-.082-.487-.191-.67-.261.375-.355.928-.381,1.377Z"/>
      <path class="cls-30" d="m381.806,234.089c.012.125.034.252.097.36.063.109.174.196.3.203.191.01.344-.166.412-.346.093-.246.087-.523.027-.779-.06-.258-.168-.501-.275-.741-.076-.17-.14-.369-.246-.52-.292.443-.361,1.303-.314,1.822Z"/>
      <path class="cls-30" d="m372.353,233.466c-.017.114-.024.246.057.329.066.069.178.08.268.047.091-.032.164-.1.226-.173.059-.07.111-.146.147-.229.044-.102.065-.213.077-.324.041-.355.041-.817-.12-1.143-.384.129-.599,1.136-.654,1.492Z"/>
      <path class="cls-15" d="m361.319,215.651c-.251,0-.541-.07-.868-.209-.466-.199-.896-.553-.995-.96-.564-.064-.969-.221-1.266-.492-.279-.253-.459-.665-.403-1.049-.368-.191-.687-.488-.852-.884-.002,0-.003-.002-.005-.003-.657-.594-.973-1.52-.924-2.451-.055-.161-.091-.33-.102-.507-.053-.803.414-1.647,1.247-2.255.018-.012.034-.025.052-.037.033-.226.114-.452.237-.668.135-.803.762-1.673,1.887-2.103.273-.213.586-.393.93-.537.176-.255.388-.489.639-.704,0-.022.002-.043.004-.065.048-.515.426-.909.735-1.148.804-.623,1.878-.832,2.867-.635.497-.179,1.095-.229,1.732-.131.317.049.723.138,1.041.4.201.166.346.382.427.636.58.155,1.105.493,1.448.961.005.008.011.015.016.022.941.405,1.718,1.214,2.015,2.195.208.688.116,1.336-.244,1.732-.114.125-.245.219-.387.287.705.157,1.326.58,1.645,1.185.281.535.28,1.236-.002,1.829-.254.536-.695.903-1.21,1.008-.261.053-.536.041-.808-.027-.275.663-.722,1.105-1.243,1.218-.06.064-.136.121-.226.17-.293.16-.647.185-.999.071-.087-.027-.171-.064-.251-.106-.304.595-.893,1.024-1.537,1.05-.044.002-.088.001-.133,0,0,.068.002.136.002.205l-.268.002c0-.082-.002-.165-.003-.248-.281-.069-.549-.222-.768-.441-.007.027-.015.055-.024.082.101.063.197.133.288.208.279.226.395.477.328.708-.08.269-.379.412-.82.39-.2-.01-.446-.03-.707-.084.099.098.19.203.274.315l.063.084-.066.082c-.33.404-.927.481-1.771.229-.019-.006-.037-.011-.056-.017-.054.197-.16.373-.33.501-.167.126-.371.189-.609.189Zm-1.573-1.146c.124.3.503.56.811.691.542.231.95.249,1.211.052.123-.092.198-.225.236-.375-.083-.034-.163-.072-.239-.117-.435-.026-.848-.157-1.145-.423-.222.127-.512.184-.873.172Zm2.656.219c.661.196,1.132.172,1.402-.069-.086-.104-.181-.204-.28-.294-.295.15-.594.247-.848.309-.09.022-.182.04-.274.054Zm-.551-.232c.058.003.115.002.174,0-.018-.162-.064-.323-.134-.464-.076-.159-.171-.304-.278-.435,0,0,0,0-.002,0-.092.268-.076.578.114.789.037.041.08.078.126.111Zm.09-.911c.071.102.135.212.192.329.083.172.14.365.159.559.108-.014.215-.034.319-.06.208-.051.446-.126.686-.237-.397-.296-.867-.499-1.356-.591Zm-1.106.584c.166.137.373.227.601.277-.139-.217-.173-.48-.131-.73-.084.029-.171.056-.257.08-.037.137-.106.263-.207.367-.002.002-.004.004-.006.006Zm-1.125.069c.303.016.542-.02.723-.107-.036-.051-.07-.107-.1-.164-.007-.012-.013-.025-.019-.037-.145.013-.292.019-.437.016-.062.057-.107.119-.135.186-.015.036-.025.071-.031.106Zm-1.663-1.179c-.01.272.128.559.323.737.247.224.59.358,1.072.418.009-.061.025-.123.052-.186.015-.035.031-.068.052-.1-.389-.04-.677-.142-.904-.316-.136-.104-.25-.239-.342-.398-.018.017-.036.032-.053.048l-.181-.196c-.007-.002-.014-.004-.019-.007Zm5.984.979c.155.024.322.04.504.05.113.005.488.008.55-.199.049-.167-.151-.352-.239-.423-.071-.057-.144-.111-.22-.161-.054.112-.119.22-.195.321-.118.158-.254.295-.399.412Zm-3.434-.145c.017.028.034.055.053.081.031-.033.058-.068.078-.104-.044.008-.087.016-.131.023Zm1.918-.819c.119.266.342.508.633.675.156.09.331.161.53.215.199-.133.386-.297.538-.5.07-.094.13-.194.179-.299-.192-.103-.395-.184-.605-.243-.132-.016-.257-.041-.376-.077-.118-.017-.238-.026-.358-.027-.069-.001-.15.001-.24.009-.096.086-.196.168-.3.247Zm-3.915.114c.056.077.124.15.205.212.203.157.48.243.87.27.036.003.072.004.108.006.105-.078.235-.146.391-.206.002,0,.003-.001.005-.001-.01-.074-.016-.15-.018-.229-.143-.057-.271-.13-.38-.217-.363.127-.715.184-1.056.173-.041-.002-.084-.004-.126-.008Zm2.21.385c-.088.016-.176.035-.262.058.088-.014.176-.031.262-.051v-.007Zm1.294-.226c.103.023.205.051.305.083-.044-.064-.082-.131-.116-.2-.061.041-.125.081-.188.117Zm-1.67-.022c0,.021.003.039.005.058.04-.011.08-.022.121-.032-.043-.007-.085-.016-.126-.026Zm5.348-.144c.042.003.084.004.126.002.545-.022,1.058-.407,1.317-.927-.162-.12-.302-.268-.41-.435-.314.278-.669.515-1.047.698.006.221.01.441.014.661Zm-.803-.365c.156.145.341.252.534.313-.003-.164-.007-.327-.011-.49-.171.069-.346.129-.523.177Zm-3.987.305c.034,0,.068,0,.103-.001-.048-.034-.097-.066-.146-.098.016.032.031.066.044.099Zm-.56-.073c.094.025.182.042.254.051-.06-.109-.14-.209-.23-.291-.012.08-.019.159-.023.24Zm.262-.471c.275.131.544.296.782.5.059-.011.117-.024.176-.039.138-.136.306-.246.498-.326,0-.013,0-.027,0-.04-.011-.273.062-.553.22-.85-.043-.164-.059-.339-.041-.509,0-.004,0-.009,0-.014-.082-.057-.162-.121-.236-.189-.089-.004-.177-.012-.265-.022-.002.158-.034.314-.092.449-.177.413-.544.703-.845.909-.065.045-.132.088-.197.13Zm-.611.328c.028.017.058.033.088.046.002-.03.005-.06.008-.09-.032.015-.063.03-.096.044Zm-1.409.02c.021.001.042.002.062.004.141.004.282-.004.427-.025-.085-.003-.171-.011-.259-.02-.044-.004-.091-.01-.139-.017-.031.019-.062.038-.092.059Zm-.564-.127c.008.004.016.006.023.009-.004-.012-.007-.024-.01-.036-.005.009-.009.018-.014.026Zm-.489-.276c.077.061.159.116.246.163.008-.015.015-.03.023-.044-.09-.035-.18-.074-.269-.119Zm6.222.137c.235.024.464.011.655-.016-.185-.31-.252-.658-.181-.987l.032-.149c-.179.069-.362.119-.554.145-.154.294-.359.569-.607.811.09.05.183.089.277.119.128.018.254.044.377.078Zm-4.601-.021c.078.003.154.002.228-.001-.009-.019-.017-.037-.024-.055-.069.015-.137.034-.204.056Zm3.267-.473c-.061.158-.091.311-.091.458.069-.018.142-.033.216-.044.042-.03.085-.062.127-.095-.1-.09-.184-.199-.252-.319Zm-2.782.385c.012.02.022.04.035.058.065-.009.129-.022.19-.037-.012-.004-.024-.007-.036-.012-.063-.008-.127-.011-.189-.009Zm-1.352-.035c.117.031.231.054.339.071.132-.075.273-.143.424-.195-.26-.022-.545-.004-.763.124Zm6.083-1.052l.101.145c.192.274.276.621.257.975.01-.003.02-.005.028-.008.224-.056.442-.133.654-.225-.016-.5-.037-1-.065-1.501-.31.247-.632.464-.975.614Zm-7.295.441c.281.241.594.405.898.515,0-.001.002-.002.003-.003-.027-.314.011-.631.109-.938-.13-.043-.259-.092-.388-.148-.083-.032-.164-.071-.241-.113-.127-.066-.255-.14-.381-.223-.091.275-.105.566-.026.834.008.026.016.051.025.077Zm2.81.393c.044.006.087.014.131.024.06.013.118.032.175.056.09-.307.229-.598.412-.86-.311.107-.643.168-.985.184-.053.164-.084.336-.073.503.11.027.225.058.341.093Zm7.592-.143c.073.039.149.073.227.097.212.069.422.075.61.022-.272-.047-.533-.167-.78-.317-.016.067-.035.133-.058.198Zm-4.903-.297c.062.175.165.332.299.448h0c.167-.189.316-.396.443-.618.003-.004.005-.009.008-.014-.19-.007-.377-.043-.556-.105-.022.031-.046.062-.067.094-.048.066-.09.131-.128.195Zm-1.455-.541c-.276.277-.488.617-.621.984.35-.241.584-.612.621-.984Zm-2.775.241c-.073.224-.109.455-.106.684.322-.151.719-.141,1.038-.09-.002-.15.022-.301.062-.446-.327-.009-.661-.059-.994-.148Zm7.258-.917c.031.528.056,1.059.073,1.587.336-.175.649-.393.928-.648-.057-.135-.1-.278-.127-.429-.128-.128-.245-.271-.335-.434-.027-.049-.053-.102-.073-.157-.108-.011-.215-.026-.321-.046-.048.043-.097.085-.144.126Zm1.978,1.031c.358.231.732.397,1.12.35.005-.008.011-.018.015-.028.119-.25-.133-.567-.247-.691-.238-.261-.514-.483-.814-.665-.043.093-.092.187-.148.279.068.248.096.502.075.755Zm-.648-.035c.08.135.188.259.314.362.019-.065.036-.131.048-.198-.096-.066-.189-.135-.28-.203-.009-.006-.017-.012-.025-.019-.02.019-.038.039-.057.058Zm1.393-.843c.12.102.233.211.341.328.259.283.377.565.343.812.42-.191.679-.628.824-.967-.087-.034-.172-.073-.256-.118-.36.031-.798.032-1.252-.056Zm-12.124-.635c.057.51.235.994.532,1.385-.011-.237.031-.48.118-.71-.247-.19-.473-.417-.65-.675Zm5.184.925c.003.029.006.059.006.09.005.123-.009.247-.038.367.019-.035.037-.07.053-.106.049-.116.074-.251.07-.384-.013-.002-.024-.004-.037-.007-.018.013-.036.026-.054.04Zm5.784.295s.004.003.006.005c.048.036.096.07.144.105,0-.089-.009-.178-.023-.267-.039.053-.082.104-.126.156Zm-4.665.078c0,.007,0,.014,0,.02.003-.004.007-.009.01-.015-.003-.002-.007-.003-.011-.005Zm-3.484-.042c.139.016.275.024.41.025.022-.055.046-.107.07-.158-.163.058-.323.103-.48.133Zm.874-.294c-.024.041-.048.081-.067.117-.034.06-.067.124-.099.191.371-.03.725-.119,1.051-.268.114-.053.222-.12.315-.197,0-.002,0-.004-.002-.006-.186-.055-.366-.125-.536-.209-.211.141-.432.265-.662.372Zm3.059.226c.125.034.253.056.383.059.034.001.068.001.103.001.015-.052.027-.103.036-.153-.133-.005-.264-.02-.393-.044-.044.044-.087.091-.129.137Zm.937-.106c-.013.039-.027.078-.043.116.206-.047.404-.125.598-.225-.184.053-.369.089-.555.108Zm-1.349-.065c.047.026.094.051.143.073.033-.039.066-.077.101-.114-.038-.013-.077-.026-.114-.04-.035.004-.07.007-.105.009-.009.024-.017.047-.023.072Zm4.185-.156c.073.07.152.135.23.197.084-.097.171-.21.254-.335-.07-.205-.172-.404-.301-.588-.053-.018-.106-.034-.159-.05-.044.243-.061.509-.024.775Zm-7.431-.736c-.137.097-.266.21-.386.337-.169.18-.309.375-.416.583.365-.002.761-.095,1.181-.277.012-.005.024-.011.036-.016.073-.115.163-.236.27-.348-.238-.07-.469-.165-.686-.28Zm-1.488.804c.099.037.203.065.309.085.029.005.058.01.087.014.124-.268.296-.521.511-.749.103-.11.214-.21.329-.3-.163-.104-.316-.221-.459-.35-.347.064-.662.197-.919.391-.187.143-.341.32-.452.516.102.108.224.204.359.282.065.033.13.064.195.093.013.006.026.012.039.018Zm5.529-.112c.049.005.099.009.147.011-.003-.019-.006-.038-.01-.057-.042.013-.084.025-.125.037-.005.003-.009.007-.013.009Zm.68-.248c-.011.078-.026.157-.044.233.465-.067.931-.253,1.348-.547v-.002c-.168-.051-.332-.111-.492-.182-.262.218-.55.38-.812.498Zm-1.906.115c.023,0,.047.001.07.002-.054-.036-.106-.073-.156-.112-.004.002-.008.002-.012.004.031.037.063.072.098.106Zm8.074-.045c.224.053.449.06.661.017.432-.088.804-.401,1.021-.859.247-.519.249-1.128.007-1.59-.335-.639-1.054-1.047-1.828-1.104,0,.004-.002.008-.004.011.002.018.003.037.004.055.186.47.303.968.348,1.472.076.104.145.208.21.31.181.284.354.622.268.971-.071.288-.306.511-.664.642-.008.026-.016.051-.023.076Zm-7.042-.141c-.084,0-.176.025-.262.074-.041.022-.079.049-.113.078.154-.02.308-.05.46-.088.016-.013.032-.025.048-.038-.041-.017-.086-.025-.133-.025Zm-1.842.076s.007.001.01.002c.007-.008.012-.016.018-.024-.012.001-.023.002-.035.002.003.007.006.013.008.02Zm1.052-.101c.043.028.088.055.134.081.04-.048.085-.091.134-.13-.09.012-.18.028-.268.049Zm3.923-.306c.022.094.057.183.101.263.019.035.04.069.063.102,0-.165.018-.336.05-.512-.06-.012-.118-.023-.178-.033-.008.061-.02.122-.036.18Zm1.491.023c.487.202.995.257,1.435.251-.127-.101-.247-.215-.355-.343-.098-.115-.185-.235-.26-.359-.241.103-.497.165-.754.185-.016.088-.037.176-.065.265Zm-.438.115c.02.038.039.078.057.117.012-.024.023-.048.034-.073-.029-.015-.06-.03-.091-.044Zm1.499-.686c.064.106.139.208.222.304.173.201.373.367.586.492.008,0,.016-.002.023-.002.083-.009.203-.027.331-.061.138-.524.185-1.072.143-1.612-.085-.113-.179-.221-.282-.319-.105.265-.25.509-.434.718-.171.194-.371.355-.59.48Zm-11.228-1.462c-.104.107-.202.222-.29.346-.392.546-.524,1.149-.354,1.615.023.064.053.126.088.187.121-.188.277-.358.462-.498.245-.186.537-.322.856-.403-.096-.106-.185-.218-.266-.336-.164-.241-.289-.504-.376-.779-.042-.043-.082-.086-.12-.131Zm12.816.996c-.003.363-.043.724-.121,1.078.15-.083.275-.204.318-.375.057-.23-.062-.48-.197-.704Zm-7.437.979c.247,0,.494.031.733.094.236-.139.486-.253.745-.342-.176-.099-.344-.211-.504-.335-.106.026-.214.048-.322.067-.255.204-.529.378-.815.521.054-.003.108-.005.163-.005Zm-1.758-.073c.059.023.113.054.165.09.018.013.035.026.052.041-.004-.048-.017-.096-.037-.142,0-.001,0-.002-.002-.003-.057.002-.112.003-.167.003-.004.004-.008.008-.011.011Zm-5.028-.651c.105.285.282.542.497.765-.183-.55-.037-1.212.402-1.825.104-.145.22-.28.345-.406-.128-.192-.222-.399-.277-.611-.136.133-.259.275-.371.427-.357.488-.554,1.069-.596,1.651Zm5.642.602c.046.056.094.109.145.16.316-.085.624-.213.916-.377-.347.102-.702.174-1.061.217Zm-1.887-.166c.034.034.069.066.105.098.083.072.171.139.263.201.076-.043.154-.077.234-.101-.025-.019-.051-.038-.078-.055-.184-.034-.359-.082-.524-.142Zm7.273.044c.063.047.13.089.198.129.034.02.069.04.103.058.015-.047.027-.096.037-.146-.114-.005-.227-.019-.339-.042Zm-7.658.072c.07.033.142.064.215.092-.045-.043-.089-.088-.131-.135-.028.014-.056.027-.084.043Zm6.014.085s.007.001.011.002c.041-.035.08-.071.118-.107-.046,0-.091.001-.136.003.002.034.004.068.007.102Zm-.277-.08s.002,0,.003.001h0s-.002-.001-.003-.001Zm-6.345-.377c.104.081.215.156.329.223.062-.038.126-.075.191-.108-.024-.032-.048-.065-.069-.1-.153-.017-.304-.021-.451-.015Zm1.612.142c.165.028.339.044.52.049-.148-.06-.309-.077-.399-.082-.059-.003-.118-.003-.177-.001.019.011.037.022.056.035Zm5.871.007c.037.007.075.014.111.022.002-.009.005-.018.007-.026-.018-.016-.036-.033-.055-.048-.021.017-.043.035-.063.052Zm-2.156-.278c.159.11.327.21.502.295.159-.153.302-.332.409-.54.016-.031.031-.063.045-.096-.002-.033-.005-.066-.008-.1-.231.151-.496.282-.789.386-.053.019-.106.037-.159.054Zm.994.135c-.028.039-.058.079-.088.116.031-.004.063-.008.095-.012-.002-.034-.005-.069-.007-.103Zm.449.079c.075,0,.149.001.224.006.034-.04.065-.081.097-.123-.034-.227-.119-.461-.255-.68-.042-.068-.087-.134-.136-.197-.005.003-.009.008-.013.012-.028.165-.072.323-.132.471.015.172.027.344.04.515.059-.003.117-.003.175-.003Zm-4.125-.021c.161.036.329.029.493,0-.145-.018-.29-.042-.434-.072-.019.024-.039.049-.059.072Zm5.363-.122c.033.013.066.025.1.036-.034-.014-.066-.028-.1-.036Zm-7.399-.175c.168.025.339.069.505.13.209-.048.421-.066.634-.055.071.003.141.011.206.022-.02-.035-.037-.072-.053-.11-.17-.065-.337-.14-.499-.223-.34.01-.653-.006-.941-.048.044.098.094.192.148.283h0Zm7.872-.857c.25.263.392.623.422.966.181-.021.356-.084.515-.173-.156-.43-.181-.88-.059-1.285-.013-.001-.025-.002-.039-.003-.088-.007-.175-.018-.261-.031-.113.111-.245.206-.391.283-.064.078-.127.159-.186.243Zm-.43.766c.088.021.167.058.239.091.033.015.066.031.101.044.079.032.161.053.243.064-.028-.276-.141-.535-.308-.73-.103.167-.194.345-.275.53Zm-5.18.077c.336.063.679.091,1.02.084.221-.085.436-.182.646-.289-.148-.153-.283-.319-.405-.494-.102.001-.203.001-.308-.001-.044.035-.091.067-.138.095-.22.128-.466.189-.706.215.006.144-.048.281-.108.39Zm-3.678-.707c.05.098.106.193.169.284.104.154.225.296.357.427.135-.018.27-.027.413-.027-.13-.122-.246-.259-.349-.407-.162-.055-.315-.122-.459-.2-.045-.025-.089-.051-.132-.078Zm11.311-.491c-.095.392-.257.724-.482.991-.062.074-.13.142-.202.203.162-.103.312-.227.44-.374.182-.208.322-.453.417-.72-.018-.012-.034-.023-.053-.034-.039-.024-.079-.048-.12-.066Zm-2.894,1.026c.023.04.049.081.075.12.024-.009.049-.017.073-.023.103-.253.226-.493.365-.716-.036-.026-.073-.048-.113-.068-.085.017-.17.03-.256.038-.003.051-.008.102-.014.153-.022.165-.066.332-.131.496Zm-4.907-.201c-.019.067-.034.135-.046.204.038-.076.056-.144.055-.204-.003,0-.005,0-.009,0Zm-.581.171c.026.009.053.019.079.028-.007-.041-.012-.083-.016-.125-.022.004-.044.008-.066.012-.003.029-.001.057.003.085Zm4.11-.596c-.201.201-.45.39-.765.579-.004.003-.009.006-.014.008.302-.112.568-.255.793-.419-.005-.056-.01-.112-.015-.168Zm3.378-.447c-.093.32-.076.682.037,1.034.063-.053.12-.11.171-.169.204-.241.349-.547.434-.913-.227-.055-.455-.041-.642.048Zm-5.156.533c.102.132.211.257.328.374.128-.073.253-.149.377-.23.07-.085.139-.171.203-.261-.289.06-.592.099-.908.118Zm-3.027.2c.012.007.024.013.036.02.015,0,.029-.001.044-.002-.026-.006-.053-.012-.08-.018Zm-1.078-.048c.185.034.38.056.589.066-.026-.018-.054-.036-.08-.054-.13-.09-.244-.178-.347-.268-.043-.007-.085-.016-.128-.024-.038-.008-.075-.018-.113-.027.02.104.048.207.079.308Zm7.033-.18c.016.071.037.141.061.21.014-.058.024-.115.032-.173.004-.035.008-.068.01-.102h-.068c-.014.02-.025.041-.035.065Zm-.487-.109c.06.077.116.158.169.242.004.006.007.011.011.018.003-.057.013-.114.029-.169-.005-.021-.008-.043-.012-.063-.065-.007-.132-.017-.197-.026Zm-6.941.193c.032.01.064.019.097.028-.028-.109-.051-.219-.067-.332-.083-.031-.163-.066-.241-.104.059.143.13.279.212.408Zm1.499-.125c.205.049.401.081.573.102.05-.045.107-.083.172-.111.006-.039.012-.077.019-.117-.004,0-.009-.002-.013-.003-.26.064-.51.107-.752.128Zm-2.453-.418c.142.135.298.247.455.333.036.019.072.039.109.057-.071-.148-.13-.302-.176-.461-.119-.082-.229-.173-.331-.27-.04.029-.079.059-.118.09.017.084.037.168.061.252Zm-.849-1.143c-.513.409-.853.913-.973,1.422.106-.291.253-.569.439-.824.156-.212.335-.408.534-.586,0-.004,0-.008,0-.013Zm6.02,1.202c.032.058.065.113.101.168.466-.016.903-.079,1.305-.183.025-.042.051-.086.077-.133-.184-.108-.354-.235-.504-.382-.084.016-.168.028-.253.038-.208.082-.43.129-.638.156-.008.116-.04.23-.088.335Zm-.56.161c.039.003.078.004.116.005.052-.05.099-.107.139-.168-.016-.029-.03-.059-.045-.089-.058.087-.129.171-.21.252Zm-.569-.05c.061.008.125.015.189.022.167-.12.307-.262.407-.43h-.042c-.106.058-.213.109-.314.154-.088.077-.168.163-.24.254Zm-2.393-.038c.32.046.664.042,1.026-.012-.337-.131-.631-.297-.891-.501-.143-.112-.278-.245-.401-.394-.027-.013-.054-.025-.08-.04-.037.134-.062.274-.075.418.048.093.102.182.166.265.065.085.14.167.226.249.01.005.019.009.029.014Zm2.095-.005h0Zm8.246-.126c.046.039.09.079.132.121-.02-.122-.046-.242-.075-.362-.016.082-.034.162-.057.241Zm-3.942.099c.007.001.014.002.019.002v-.034c-.006.011-.013.021-.019.032Zm.328-.443c-.025.135-.039.26-.041.379,0,.02,0,.039,0,.058.04-.029.085-.054.135-.073-.019-.124-.051-.246-.095-.365Zm.36.329c.067.004.138.018.211.039.033.01.065.021.098.034.159-.037.311-.088.45-.157.049-.057.099-.112.149-.166-.377-.108-.737-.28-1.062-.502-.023.024-.047.047-.069.07.11.215.188.443.224.681Zm-1.012.059c.013.003.024.005.036.008.062-.092.116-.187.159-.285-.065.041-.133.08-.201.118.004.053.006.106.006.159Zm-5.767-.629c.341.266.75.462,1.248.597.03-.008.061-.016.091-.025.037-.113.083-.227.137-.34-.198-.039-.394-.088-.585-.147-.3.009-.601-.019-.891-.084Zm1.75.279c-.032.064-.062.127-.089.192.134-.044.269-.096.405-.152-.105-.01-.212-.023-.316-.04Zm-3.092.055c.05.032.101.061.152.091-.06-.06-.119-.124-.175-.192.007.035.015.068.022.101Zm10.943-.021c.068.03.134.064.199.104.032-.138.055-.28.065-.425-.073.075-.155.141-.247.198-.005.042-.011.083-.018.123Zm-10.888-.426c.082.126.176.239.278.34-.058-.128-.103-.263-.135-.4-.049.018-.097.038-.144.059Zm6.431.294c.019.015.036.029.055.044-.005-.049-.01-.097-.016-.146-.012.035-.025.068-.039.102Zm3.148-.013c.03.003.06.006.09.009.205.017.627.022.984-.151.005-.061.009-.123.012-.186.004-.08.005-.159.005-.237-.047.011-.094.023-.141.037-.322.096-.631.255-.914.466-.012.021-.024.042-.036.062Zm-10.818-.604c.032.202.106.393.207.566-.017-.152-.022-.305-.018-.456-.033-.061-.063-.124-.09-.188-.033.025-.065.052-.099.078Zm8.466.094c-.024.16-.063.314-.117.465.087-.055.17-.113.25-.173.015-.103.018-.206.012-.307-.033-.043-.067-.085-.102-.127-.012.048-.026.095-.042.142Zm.861-.042c.338.226.715.393,1.109.486.066-.06.135-.116.206-.171.018-.042.036-.087.05-.133.106-.364-.02-.746-.242-1.061-.217.072-.447.121-.687.145-.068.163-.149.318-.242.465-.06.093-.124.183-.193.269Zm-8.468.47s.005.004.008.007c0-.004,0-.007-.002-.011-.002.002-.004.003-.006.004Zm3.557-.058c.187.025.374.041.563.047.008-.005.016-.009.024-.014-.172-.048-.329-.11-.472-.184l-.021.005c-.032.047-.063.095-.094.145Zm2.931-.084c.033.024.066.047.1.072.017-.042.031-.085.046-.127-.048.019-.097.038-.145.055Zm-1.59-.034c.214.011.43.005.643-.019.029-.013.059-.026.087-.04-.057-.077-.109-.158-.156-.244-.023-.014-.047-.026-.069-.04-.113.023-.226.042-.341.059-.047.096-.105.184-.172.262.003.007.006.013.009.021Zm-5.299-.307c.062.102.132.198.21.288.056-.036.113-.069.172-.102,0-.025-.002-.051-.002-.077-.083-.187-.141-.386-.173-.593-.053.028-.105.058-.157.088-.025.13-.042.261-.05.395Zm4.942.239s.003.01.005.016c.002-.002.003-.003.005-.004-.003-.004-.007-.008-.01-.011Zm6.775-.286c.002.09,0,.182-.003.275.033-.033.064-.067.095-.105.035-.045.065-.095.091-.147-.006-.013-.011-.025-.017-.038-.055.003-.11.007-.166.015Zm-9.286.026c.189.101.378.172.529.221.011.004.021.008.033.011.126-.005.251-.018.374-.038-.301-.111-.617-.175-.936-.193Zm1.881.112c.106.047.222.086.345.118-.011-.037-.019-.075-.029-.114-.101.002-.207,0-.315-.004Zm2.298.057h0c.176-.051.349-.116.515-.193.017-.077.029-.155.039-.234-.007-.058-.016-.116-.022-.173-.092.038-.183.075-.275.111-.02.08-.047.156-.083.23-.048.097-.106.184-.174.259Zm-4.893-.137c.065.026.135.05.21.071.085.026.17.046.256.064-.082-.048-.163-.102-.241-.161-.075.007-.149.015-.225.026Zm5.94-.037c.015.046.028.093.041.139.02-.044.036-.088.053-.134.003-.023.006-.046.009-.07-.034.023-.068.044-.103.065Zm2.789-.564c.081.213.117.445.084.682.225-.134.46-.239.704-.312.007-.002.014-.004.019-.006-.21-.059-.413-.143-.593-.236-.059-.031-.134-.073-.215-.127Zm-9.8.638s0,.002.002.003c.076-.034.152-.066.23-.096-.012-.102-.017-.205-.016-.308-.05-.088-.09-.184-.12-.284-.062.225-.095.455-.097.685Zm3.042-.033s.008.004.012.005c0,0-.003-.002-.005-.004-.002,0-.004,0-.007,0Zm2.494-.139c.066.04.133.082.199.124.064-.067.118-.143.161-.229-.119.038-.239.073-.36.105Zm-1.775-.05c.03.001.061.001.091.002-.017-.014-.036-.028-.055-.042-.013.013-.024.026-.036.04Zm.427-.07c.023.019.045.039.067.059.124-.009.248-.021.371-.037.009-.028.016-.055.022-.084-.166-.081-.331-.155-.495-.222.008.095.019.189.034.283Zm-1.012.011c.084.016.168.027.252.037.047-.057.095-.114.146-.171-.225-.143-.463-.265-.711-.363.058.179.164.352.308.495,0,0,.003.002.004.002Zm-1.586-.06c.264,0,.527.028.784.084-.227-.109-.439-.255-.623-.447-.082-.085-.154-.176-.219-.271-.116.085-.221.177-.313.277-.031.032-.06.066-.088.1.072.097.158.184.251.262.069-.004.139-.005.208-.005Zm-.618-.026c-.017.027-.032.056-.047.084.035-.006.07-.012.106-.017-.02-.022-.041-.044-.06-.067Zm6.722-.104c.051.051.103.1.156.148.063-.144.139-.291.226-.436-.085-.006-.17-.015-.253-.026-.054.068-.109.133-.168.195.015.04.026.08.038.12Zm-.892-.151c.043.093.083.189.119.287.048-.031.095-.062.14-.095.011-.007.022-.015.032-.022-.081-.073-.167-.144-.255-.209-.012.007-.024.013-.036.019v.021Zm-4.994-.429c.042.056.088.109.137.161.227.237.507.395.804.498-.093-.155-.156-.323-.186-.492-.246-.077-.499-.132-.755-.166Zm3.501-.348c-.067.277-.072.562-.004.831.015.056.031.11.051.164.213-.052.423-.113.63-.186.02-.211-.028-.42-.103-.608-.188-.077-.38-.144-.573-.201Zm-.369.891c.04.022.081.042.122.064-.006-.019-.012-.038-.017-.058-.065-.257-.073-.525-.029-.79-.067.042-.135.086-.201.133.089.211.135.432.125.651Zm6.109.049c.007,0,.014.001.02.002-.008-.015-.017-.032-.025-.047.002.015.004.03.005.045Zm-.15-1.306c.013.007.025.014.038.023.336.209.581.58.655.992.017.093.024.185.022.273.213-.047.403-.145.551-.306.297-.326.366-.877.186-1.474-.237-.786-.809-1.452-1.523-1.859.301.69.27,1.513-.1,2.141.06.068.116.138.171.209Zm-10.312.839c.035.145.088.288.153.425.021-.037.043-.072.066-.108-.058-.104-.103-.217-.134-.338-.029.006-.058.013-.086.021Zm9.121-.137c.147.156.343.267.431.312.199.104.416.187.636.241-.023-.188-.06-.369-.11-.541-.124-.134-.271-.26-.427-.35-.158.131-.336.245-.529.339Zm-6.357.21c.141.071.278.151.41.238.026-.028.054-.054.081-.081-.165-.059-.329-.112-.491-.157Zm.987.062c.109.046.22.096.33.149-.008-.119-.036-.236-.079-.353-.085.066-.168.133-.251.204Zm1.874-.26c.029.122.045.242.045.358.059-.024.118-.048.177-.074-.043-.082-.09-.162-.138-.24-.028-.014-.056-.029-.084-.044Zm-5.276.049c.015.054.032.107.054.157.011-.013.022-.026.034-.038.051-.054.103-.106.159-.155-.083.009-.165.022-.247.036Zm-1.815-.126c-.012.09-.016.184-.012.277.051-.026.102-.052.154-.076.086-.241.204-.47.352-.676.013-.049.025-.098.04-.146-.224.189-.404.4-.534.622Zm3.701-.121c.347.062.697.155,1.051.278.002-.217.021-.434.058-.648-.345-.009-.682.018-1.007.079-.015.026-.028.052-.04.079-.03.067-.051.138-.061.211Zm1.378-.355c-.037.208-.057.419-.06.631.109-.095.219-.185.331-.27-.073-.127-.163-.249-.265-.361-.002,0-.005,0-.007,0Zm2.561.56c.031.021.063.041.095.064.023-.014.047-.028.07-.043-.061-.023-.118-.049-.177-.075.004.018.008.036.012.055Zm4.143-.146c.048.055.094.112.137.171-.06-.129-.129-.255-.207-.377.025.067.048.136.07.206Zm-2.91.152c.086.009.173.013.261.015.095-.127.202-.249.323-.362.014-.057.025-.114.036-.172-.002-.001-.003-.001-.005-.003-.143.026-.284.045-.423.057-.04.162-.107.318-.192.465Zm.824-.204c-.016.062-.033.124-.053.185.136-.02.268-.049.395-.086-.06-.063-.124-.122-.19-.174-.01-.008-.019-.016-.03-.024-.042.032-.082.065-.122.1Zm-1.344.114c.074.019.149.036.226.05.086-.13.155-.268.201-.412-.056,0-.112-.002-.169-.008-.063.137-.153.261-.258.371Zm-7.612-.359c-.026.115-.044.231-.054.346.064-.02.129-.039.193-.056.011-.022.021-.045.033-.067.012-.185.054-.371.128-.55-.047.042-.093.086-.135.132-.059.061-.115.127-.166.195Zm9.656.004c-.003.067.011.131.035.191.142-.066.274-.143.395-.231-.144-.033-.291-.027-.431.04Zm-7.329.153c.007,0,.014.002.022.003.115.008.23.02.347.036.009-.059.022-.117.04-.174-.061.018-.121.036-.182.055-.078.026-.153.053-.227.081Zm5.023-.125c.026.044.052.09.074.137.07-.075.131-.157.179-.245-.064-.027-.126-.064-.18-.113-.081-.072-.136-.159-.166-.256-.041,0-.084,0-.126.002.086.153.159.312.219.476Zm-6.143-.459c-.094.18-.155.372-.167.569.144-.01.288-.013.433-.009-.086-.217-.136-.447-.153-.679-.039.039-.076.078-.112.119Zm.37-.346c-.003.312.053.623.187.904.21-.122.446-.225.707-.309.14-.045.282-.084.427-.115.133-.179.319-.328.561-.444-.457-.207-.961-.309-1.462-.307-.149.081-.29.171-.42.271Zm5.193.807c.042.023.086.046.129.066-.028-.068-.053-.136-.076-.204-.06-.061-.123-.119-.186-.174.013.037.024.075.037.113.035.065.067.133.097.199Zm-2.044-.106c.037.052.071.105.103.158.056-.037.112-.074.168-.109-.09-.018-.181-.035-.271-.049Zm4.588.066c.024.02.049.041.072.062-.002-.033-.001-.067.003-.102-.025.013-.05.025-.075.039Zm-3.591-.102c.037.012.073.025.111.038-.015-.023-.029-.046-.045-.067-.021.009-.045.02-.066.03Zm4.853.003c.008.005.017.01.024.016-.005-.01-.01-.019-.015-.028-.003.004-.007.008-.01.012Zm-6.11-.275c.268.026.537.073.806.14.044-.115.097-.227.158-.334-.007-.006-.013-.013-.019-.019-.257-.03-.512-.088-.757-.17-.05.006-.101.012-.151.019-.037.101-.068.204-.097.308.021.018.04.037.06.057Zm1.785.077c.019.015.038.029.058.043-.012-.017-.023-.033-.036-.05-.007.002-.015.004-.021.006Zm1.703.029c.046.003.092.003.139.002.002-.021.004-.043.004-.064-.042-.011-.085-.022-.128-.032-.003.032-.008.064-.015.094Zm-.392-.158c.012.015.024.029.04.042.026.024.057.044.09.06.005-.028.009-.057.012-.086-.048-.007-.095-.012-.142-.017Zm-1.944.065s-.005.01-.007.015c.005-.003.009-.005.014-.007-.003-.003-.005-.005-.007-.008Zm2.736-.169c.149.05.294.11.433.181.002,0,.003,0,.005-.002.034-.333.027-.684-.022-1.045-.224-.017-.444.005-.652.071-.029.023-.06.044-.09.065.158.191.263.4.31.624.008.035.014.07.018.105Zm-4.586-.041c-.159.057-.295.126-.409.206.22-.026.444-.037.67-.033-.034-.026-.068-.05-.102-.074-.052-.035-.104-.068-.158-.099Zm-3.537-.586c-.291.221-.542.489-.719.79.071-.066.146-.13.227-.191.076-.059.153-.113.233-.164.074-.151.16-.297.259-.435Zm8.813-.197c.04.32.047.632.022.933.346-.104.662-.262.904-.475-.061-.051-.124-.098-.19-.141-.125-.076-.256-.145-.391-.209-.113-.046-.229-.083-.347-.108Zm1.127.647c-.099.089-.207.168-.322.238.17-.029.339-.036.504-.02-.037-.049-.075-.099-.115-.146-.021-.025-.044-.049-.066-.072Zm-4.23.144c.022.021.045.042.066.062.024-.009.05-.017.075-.024-.014-.015-.027-.028-.042-.042-.033.002-.066.003-.1.004Zm2.021-.072c.035.007.07.014.104.022-.046-.19-.142-.356-.266-.499-.003.001-.006.003-.008.005.089.156.146.314.169.472Zm-3.851-.035c.023.016.046.033.069.05.007-.022.014-.046.021-.069-.031.006-.061.012-.091.019Zm3.395-.029c.059.004.116.01.174.017-.019-.079-.05-.157-.087-.231-.042.07-.073.143-.087.214Zm2.88-.24c.1.081.195.165.285.253.345-.646.302-1.5-.119-2.136-.05-.021-.1-.039-.15-.057.257.422.359.876.278,1.29-.049.249-.151.464-.294.649Zm-3.426.235s.003.004.004.006c.091-.006.182-.01.271-.01.002-.014.005-.028.008-.042.007-.032.015-.064.025-.096-.102.042-.206.079-.311.112,0,.011.002.021.003.031Zm-4.194-.528c.358.072.707.194,1.029.369.115-.036.24-.066.373-.092-.164-.081-.322-.173-.474-.276-.293-.028-.603-.028-.929,0Zm3.457.136c.052.073.1.149.144.225.03-.005.061-.01.091-.016-.032-.032-.065-.063-.099-.094-.044-.04-.09-.079-.137-.117h0Zm-5.204-.502c-.127.101-.244.209-.351.325-.09.097-.171.199-.244.305.15-.067.305-.125.463-.173.126-.118.267-.232.426-.341.022-.016.045-.032.068-.046.017-.011.034-.022.052-.033.017-.059.037-.119.059-.176-.085.019-.168.04-.251.065-.074.022-.148.047-.222.076Zm6.014.097c-.019.06-.034.12-.048.182-.02.099-.031.201-.036.306.155-.052.307-.115.454-.187-.105-.127-.221-.234-.318-.314-.017.005-.035.009-.052.014Zm-.58.246c.029.025.059.05.087.076.049.045.097.091.143.139.005-.113.018-.224.04-.332.002-.007.003-.014.005-.022-.045.019-.089.039-.133.061-.048.024-.096.05-.142.077Zm3.461-.015c.087.053.173.109.255.166.123-.155.209-.335.248-.536.084-.43-.071-.917-.42-1.35-.203-.04-.41-.061-.62-.06-.027,0-.056.001-.083.002-.068.324-.207.649-.402.935.039.138.072.279.1.424.144.045.285.099.426.16.036.017.071.032.107.049.134.057.265.128.39.209Zm-4.387-.017c.11.05.22.103.327.161,0,0,0-.001,0-.001-.187-.213-.418-.394-.675-.536-.008-.002-.014-.005-.021-.007.04.09.083.177.131.263.082.038.161.078.237.121Zm-3.866-.098c-.002.006-.004.012-.006.019.024-.019.046-.037.068-.055-.021.011-.042.023-.062.035Zm3.628-.524c.341.12.656.28.938.48.08-.052.162-.1.247-.142.11-.055.225-.102.343-.142-.038-.026-.078-.052-.117-.077-.018-.006-.034-.012-.051-.018-.436-.147-.881-.241-1.321-.284-.041.046-.082.093-.121.141.028.014.056.027.082.042Zm2.369.309c.053.039.103.079.149.12.055-.032.112-.059.17-.079.004-.002.009-.003.014-.005.015-.011.029-.022.043-.034-.127-.008-.253-.009-.376-.002Zm-2.747.048s.005.002.008.002c0-.002-.003-.006-.003-.009-.002.002-.003.003-.005.006Zm-1.965-.243c-.136.052-.269.11-.396.175.128-.032.258-.058.391-.076.058-.009.116-.016.174-.021-.019-.021-.039-.04-.058-.061-.036-.005-.073-.011-.11-.016Zm1.313.1c.131.017.257.039.38.068.033-.054.067-.106.103-.157-.316-.071-.651-.104-.993-.104.174.056.344.119.51.193Zm4.37-.088c.023.005.048.011.071.017-.006-.026-.012-.052-.017-.077-.018.02-.036.04-.054.06Zm-6.827-.01c-.003.006-.006.014-.009.02.016-.009.033-.017.05-.026-.014.002-.027.003-.041.006Zm5.398-.079c.029.015.058.029.087.044.326-.054.673-.058,1.022-.011.071-.07.141-.144.206-.219.028-.033.055-.067.081-.102-.071-.232-.159-.453-.262-.662-.466.199-.883.524-1.135.95Zm-.384-.16c.048.018.095.035.142.053.255-.442.682-.845,1.243-1.091-.138-.235-.295-.45-.471-.641-.318.102-.652.263-1.022.489-.352.215-.67.451-.952.703.381.122.737.286,1.061.487Zm-4.819-.125c-.017.024-.032.049-.047.076.199-.019.401-.025.603-.017.066-.021.134-.041.201-.059-.045-.068-.085-.136-.12-.203-.222.054-.435.122-.637.203Zm.911-.263c.04.07.083.136.128.198.23-.044.461-.067.689-.069.307-.058.624-.09.945-.095-.005-.032-.01-.064-.014-.097-.377-.043-.768-.049-1.163-.016-.201.016-.396.043-.586.079Zm2.034.036c.09.002.181.007.272.014.005-.005.01-.01.015-.016-.098-.022-.197-.041-.297-.058.003.019.006.04.01.06Zm3.645-.532c.073.15.139.307.196.468.101-.181.177-.374.227-.568-.142.022-.283.056-.423.1Zm-6.097.172c-.067.065-.133.131-.193.199.076-.022.153-.044.231-.064-.015-.045-.027-.09-.038-.135Zm2.416.025c.186.028.368.066.546.112.32-.303.693-.584,1.116-.843.339-.208.65-.363.949-.471-.016-.013-.031-.027-.046-.041-.139-.12-.287-.225-.444-.318-.575-.019-1.157.047-1.704.169-.298.36-.439.857-.417,1.392Zm-2.177-.233c.008.097.03.191.063.283.219-.044.445-.077.678-.097.396-.033.788-.028,1.167.012-.012-.46.088-.897.293-1.258-.146.042-.29.087-.43.135-.726.253-1.313.558-1.771.925Zm5.29-.836c.161.189.308.398.435.622.19-.062.393-.107.607-.13.014-.118.017-.234.007-.346-.004-.041-.009-.081-.016-.121-.03-.017-.061-.033-.092-.049-.24-.04-.487-.046-.731-.013-.069.01-.14.022-.21.037Zm2.124.559c.024.006.049.012.073.018-.07-.063-.145-.124-.223-.179.052.052.102.107.149.161Zm-.737-.086c.098,0,.195.005.292.014-.114-.104-.233-.197-.358-.284.004.089.002.18-.006.271.023-.001.048-.001.072-.001Zm-4.066-1.414c-.707,0-1.414.216-1.977.653-.223.172-.485.432-.591.757.446-.317.992-.586,1.642-.811.243-.085.5-.16.766-.222.128-.14.279-.263.449-.365-.096-.008-.192-.012-.288-.012Zm2.221.493c.029.023.059.047.086.072.057.049.11.099.163.151.13-.035.258-.061.384-.078.016-.002.031-.004.046-.006-.221-.063-.448-.109-.679-.139Zm-.455-.308c.633.028,1.258.156,1.825.42-.065-.125-.153-.233-.262-.323-.269-.22-.628-.299-.911-.341-.422-.065-.823-.061-1.183.005.183.065.36.145.53.24Zm-1.017-.103c-.133.052-.256.115-.369.188.245-.04.494-.067.745-.082-.123-.042-.249-.078-.376-.106Z"/>
      <path class="cls-33" d="m361.078,210.427l2.852-5.154c-.339-.213-.709-.31-.984-.353l-1.868,5.507Z"/>
      <path class="cls-33" d="m360.934,202.948l1.466-5.439-3.734,7.334,4.686-.795-.121.361c.275.043.645.139.983.353l1.477-2.67-4.757.856Z"/>
    </g>
  </g>
  <g>
    <path class="cls-54" d="m20.16,205.68c1.988-26.633,3.976-53.265,9.008-77.882,5.031-24.619,15.5-60.128,21.182-69.828,5.68-9.697,6.979,1.418,12.902,11.639,5.924,10.22,15.459,29.84,27.023,44.313,11.565,14.472,29.053,30.511,42.361,42.522,13.309,12.011,29.458,23.499,37.492,29.541,8.033,6.043,9.373,6.379,10.712,6.714"/>
    <path class="cls-58" d="m17.52,206.604c0,3.358,0,6.715.692-4.031.693-10.746,1.541-39.179,3.466-60.447,1.925-21.269,5.505-52.015,8.085-67.165,2.58-15.148,3.542-25,7.393-23.73,3.85,1.269,7.738,17.91,15.708,31.343,7.97,13.433,18.712,34.776,32.11,49.254,13.398,14.478,33.842,27.388,48.279,37.613,14.438,10.223,26.393,16.977,38.347,23.731"/>
    <path class="cls-56" d="m46.08,209.88c50.565-2.859,98.136-5.339,141.555-34.223,15.166-9.724,29.02-21.168,40.614-35.135,8.495-10.045,15.691-21.319,23.715-31.677,12.273-16.374,28.866-29.026,47.067-38.229,25.171-13.531,52.654-19.917,81.011-19.047"/>
    <polygon class="cls-53" points=".48 .48 438.36 .48 438.36 212.28 .48 212.28 .48 .48 .48 .48"/>
    <text class="cls-52" transform="translate(24.682 30.864)"><tspan x="0" y="0">혈중 알코올 농도</tspan></text>
    <text class="cls-50" transform="translate(77.013 59.671)"><tspan x="0" y="0">혈중</tspan><tspan x="0" y="13.248">아세트알데히드 농도</tspan></text>
    <text class="cls-51" transform="translate(246.401 43.423)"><tspan x="0" y="0">숙취</tspan></text>
    <line class="cls-57" x1="27.96" y1="36.72" x2="30.259" y2="43.423"/>
    <polygon class="cls-26" points="32.773 41.506 31.88 48.154 27.097 43.451 32.773 41.506 32.773 41.506"/>
    <line class="cls-55" x1="278.76" y1="48.121" x2="314.132" y2="59.671"/>
    <polygon class="cls-37" points="314.114 56.509 318.885 61.224 312.25 62.212 314.114 56.509 314.114 56.509"/>
    <line class="cls-57" x1="72.062" y1="54.125" x2="61.785" y2="52.091"/>
    <polygon class="cls-26" points="62.183 55.228 56.88 51.121 63.349 49.343 62.183 55.228 62.183 55.228"/>
    <path class="cls-18" d="m383.395,90.6c-.412.411-.825.685-1.374,1.097-.962.411-1.786.548-2.748.548-.687,0-1.237-.137-1.924-.275-.412,1.508-1.236,2.742-2.474,3.427-.961.411-1.923.686-2.885.686-1.512,0-2.748-.548-2.886-.548h0c-1.099.959-2.61,1.37-4.396,1.37-.55,0-1.1,0-1.649-.138-1.786-.273-3.297-1.37-4.259-2.467v10.965c.274.822.824,1.92,1.924,2.741,1.099.685,2.473.823,4.121.549-.137-.96.138-2.193,1.1-3.564l.824.548c-2.336,3.701.687,5.757.824,5.894l-.549.822c-.138,0-1.512-.959-2.061-2.603-.55,0-1.099.137-1.648.137-1.236,0-2.336-.412-3.16-.96-.55-.411-1.1-.823-1.374-1.371v.96c0,11.102,12.091,9.046,14.701,3.975h0c.55-.822.962-2.057.962-3.427-.137-1.645-.962-3.152-2.61-4.523-.686.822-1.786,1.644-3.572,2.193l-.274-1.097c4.809-1.233,3.984-5.619,3.984-5.894l.962-.137s.412,2.056-.55,3.975c1.924,1.645,3.022,3.564,3.022,5.482.138,1.233-.274,2.467-.686,3.427,2.06-.274,4.671-2.057,5.633-4.935h0s.962-2.879-.274-5.208c-.824-1.508-2.474-2.604-4.81-3.153l.275-1.096c2.61.686,4.396,1.919,5.496,3.701.412.822.55,1.781.686,2.467,1.1-1.097,2.474-3.016,1.374-4.935,3.16-2.468,2.336-6.99.275-8.635h0Z"/>
    <path class="cls-18" d="m369.97,76.101c-.827,2.209-2.62,3.451-3.586,4.004.689,1.518.828,3.037.828,3.865,1.103-.139,2.344.276,3.723,1.104l-.552.967c-3.723-2.624-5.93.414-5.93.552l-.965-.689c.138,0,.965-1.244,2.758-1.795,0-.829-.275-3.59-1.931-4.971-1.379-1.104-3.172-1.381-5.516-.967v14.635c.827.967,2.482,2.623,4.413,2.899,2.206.416,3.999,0,5.24-.966,1.792-1.52,2.068-3.866,2.068-4.004l.965.138c0,.138-.138,2.209-1.517,3.866.827.275,2.895.552,4.413-.276,1.103-.553,1.792-1.518,2.068-2.899-.414-.276-.689-.553-1.103-.967-1.379-1.656-1.241-3.865-1.241-4.004l.966.139s-.139,1.933,1.102,3.175c.276.276.552.553.828.69l.275.139c.138,0,2.482.966,4.274,0,1.104-.553,1.655-1.243,1.931-2.348.139-.275.139-.553.276-.966,0-1.657-.552-3.452-2.207-3.866.966-3.451-1.379-7.041-4.274-7.732.689,2.071.552,3.728-.275,5.108-1.517,2.484-4.827,2.761-4.965,2.761v-.966s2.895-.276,3.999-2.348c.827-1.242.827-2.762.138-4.693,0,0-.138,0-.275.137,0-2.347-2.896-5.385-6.206-4.694.689,1.656.689,3.451.276,4.971h0Z"/>
    <path class="cls-18" d="m364.971,78.351c.274.277.549.554.823.969.823-.553,2.469-1.661,3.017-3.597.549-1.523.274-3.321-.686-5.258-.685-1.245-2.469-2.905-4.8-2.905-3.017,0-4.525,2.49-4.525,5.81v3.736c2.606-.416,4.663,0,6.171,1.244h0Z"/>
    <path class="cls-18" d="m336.658,88.82c1.368.278,2.601,1.253,3.284,2.647.274.418.411.976.548,1.532,1.506-.139,2.737-.696,3.284-1.532.548-.837.548-1.811,0-2.787l-.273-.696h.685c1.231-.279,2.874-1.255,3.147-2.369.548-1.673.273-3.205-.958-5.018-.273.14-.547.279-.958.279-1.505.557-3.284.278-5.063-.836-.548.975-1.779,2.787-3.969,3.344-.548.14-1.232.279-1.779.279-.274,0-.685,0-.958-.14-2.19.836-2.327,4.181-1.643,5.853,1.231-.418,2.874-.836,4.653-.556h0Z"/>
    <path class="cls-18" d="m336.118,82.431c2.33-.689,3.563-3.305,3.563-3.305l.274-.551.411.414c1.781,1.102,3.288,1.377,4.796.964,2.056-.551,3.289-2.754,3.7-3.442-.411-.551-.686-1.377-.959-2.203l.959-.275c.411,1.652,1.097,2.754,2.192,3.305,1.371.688,3.152-.138,3.152-.138l.411.964s-.959.413-2.192.413c-.549,0-1.233,0-1.782-.275-.411-.275-.822-.551-1.096-.826-.411.688-1.097,1.79-2.193,2.616.822,1.377,1.782,3.442,1.097,5.783-.411,1.239-1.645,2.203-2.878,2.754,2.192,1.377,3.975,1.79,5.345,1.377,1.919-.688,2.467-2.754,2.467-2.754l1.097.275c-.138.138-.822,2.616-3.152,3.442-.548.138-1.097.275-1.508.275-1.37,0-3.015-.551-4.659-1.652.137.826,0,1.652-.548,2.341-.411.826-1.371,1.377-2.33,1.652,1.919.138,4.111,1.102,5.208,3.855.548-1.377,1.781-2.616,3.289-3.305,1.781-.826,3.837-.689,5.618.275v-21.067c0-3.305-1.507-5.783-4.522-5.783s-4.796,2.616-5.207,3.855c-3.7-1.652-7.264,1.79-7.264,4.406-3.151-.413-6.167,3.029-5.756,6.747.822.138,1.644.138,2.467-.138h0Z"/>
    <path class="cls-18" d="m351.179,95.039c-1.649.688-2.886,2.201-3.16,3.852v.688l-.687-.275c-1.374-.55-3.022-.275-3.984.275-1.648.825-2.748,2.889-1.648,5.502,1.786-.413,3.709.274,5.083,2.201v-.138c1.786-1.238,3.985-1.238,6.183.412l-.55.825c-1.786-1.237-3.71-1.375-4.946-.412-1.374,1.1-1.786,2.75-1.236,4.264l-1.1.412c-.55-1.65-.138-3.438.824-4.676-1.099-1.513-2.61-2.2-4.122-1.788-1.511.412-2.748,1.788-2.748,3.439l-1.099-.138c.137-1.65,1.236-3.163,2.748-3.989-1.237-3.025,0-5.776,2.061-6.876.962-.412,2.336-.688,3.71-.55-1.236-3.714-4.534-3.714-6.596-3.301l-.824.138.275-.827c.274-.687.137-1.511-.412-2.337-.55-.963-1.512-1.787-2.611-1.926-1.786-.412-3.572.275-4.671.688-1.924,1.789-2.748,6.189.412,8.665-1.512,2.612,1.648,5.363,2.336,5.775,0,5.089,4.671,7.84,7.282,7.428,2.61,5.089,14.701,7.151,14.701-3.989v-12.79c-1.648-1.101-3.572-1.238-5.221-.551h0Z"/>
    <path class="cls-18" d="m383.395,90.6c-.412.411-.825.685-1.374,1.097-.962.411-1.786.548-2.748.548-.687,0-1.237-.137-1.924-.275-.412,1.508-1.236,2.742-2.474,3.427-.961.411-1.923.686-2.885.686-1.512,0-2.748-.548-2.886-.548h0c-1.099.959-2.61,1.37-4.396,1.37-.55,0-1.1,0-1.649-.138-1.786-.273-3.297-1.37-4.259-2.467v10.965c.274.822.824,1.92,1.924,2.741,1.099.685,2.473.823,4.121.549-.137-.96.138-2.193,1.1-3.564l.824.548c-2.336,3.701.687,5.757.824,5.894l-.549.822c-.138,0-1.512-.959-2.061-2.603-.55,0-1.099.137-1.648.137-1.236,0-2.336-.412-3.16-.96-.55-.411-1.1-.823-1.374-1.371v.96c0,11.102,12.091,9.046,14.701,3.975h0c.55-.822.962-2.057.962-3.427-.137-1.645-.962-3.152-2.61-4.523-.686.822-1.786,1.644-3.572,2.193l-.274-1.097c4.809-1.233,3.984-5.619,3.984-5.894l.962-.137s.412,2.056-.55,3.975c1.924,1.645,3.022,3.564,3.022,5.482.138,1.233-.274,2.467-.686,3.427,2.06-.274,4.671-2.057,5.633-4.935h0s.962-2.879-.274-5.208c-.824-1.508-2.474-2.604-4.81-3.153l.275-1.096c2.61.686,4.396,1.919,5.496,3.701.412.822.55,1.781.686,2.467,1.1-1.097,2.474-3.016,1.374-4.935,3.16-2.468,2.336-6.99.275-8.635h0Z"/>
    <path class="cls-18" d="m369.97,76.101c-.827,2.209-2.62,3.451-3.586,4.004.689,1.518.828,3.037.828,3.865,1.103-.139,2.344.276,3.723,1.104l-.552.967c-3.723-2.624-5.93.414-5.93.552l-.965-.689c.138,0,.965-1.244,2.758-1.795,0-.829-.275-3.59-1.931-4.971-1.379-1.104-3.172-1.381-5.516-.967v14.635c.827.967,2.482,2.623,4.413,2.899,2.206.416,3.999,0,5.24-.966,1.792-1.52,2.068-3.866,2.068-4.004l.965.138c0,.138-.138,2.209-1.517,3.866.827.275,2.895.552,4.413-.276,1.103-.553,1.792-1.518,2.068-2.899-.414-.276-.689-.553-1.103-.967-1.379-1.656-1.241-3.865-1.241-4.004l.966.139s-.139,1.933,1.102,3.175c.276.276.552.553.828.69l.275.139c.138,0,2.482.966,4.274,0,1.104-.553,1.655-1.243,1.931-2.348.139-.275.139-.553.276-.966,0-1.657-.552-3.452-2.207-3.866.966-3.451-1.379-7.041-4.274-7.732.689,2.071.552,3.728-.275,5.108-1.517,2.484-4.827,2.761-4.965,2.761v-.966s2.895-.276,3.999-2.348c.827-1.242.827-2.762.138-4.693,0,0-.138,0-.275.137,0-2.347-2.896-5.385-6.206-4.694.689,1.656.689,3.451.276,4.971h0Z"/>
    <path class="cls-18" d="m364.971,78.351c.274.277.549.554.823.969.823-.553,2.469-1.661,3.017-3.597.549-1.523.274-3.321-.686-5.258-.685-1.245-2.469-2.905-4.8-2.905-3.017,0-4.525,2.49-4.525,5.81v3.736c2.606-.416,4.663,0,6.171,1.244h0Z"/>
    <path class="cls-18" d="m336.658,88.82c1.368.278,2.601,1.253,3.284,2.647.274.418.411.976.548,1.532,1.506-.139,2.737-.696,3.284-1.532.548-.837.548-1.811,0-2.787l-.273-.696h.685c1.231-.279,2.874-1.255,3.147-2.369.548-1.673.273-3.205-.958-5.018-.273.14-.547.279-.958.279-1.505.557-3.284.278-5.063-.836-.548.975-1.779,2.787-3.969,3.344-.548.14-1.232.279-1.779.279-.274,0-.685,0-.958-.14-2.19.836-2.327,4.181-1.643,5.853,1.231-.418,2.874-.836,4.653-.556h0Z"/>
    <path class="cls-18" d="m336.118,82.431c2.33-.689,3.563-3.305,3.563-3.305l.274-.551.411.414c1.781,1.102,3.288,1.377,4.796.964,2.056-.551,3.289-2.754,3.7-3.442-.411-.551-.686-1.377-.959-2.203l.959-.275c.411,1.652,1.097,2.754,2.192,3.305,1.371.688,3.152-.138,3.152-.138l.411.964s-.959.413-2.192.413c-.549,0-1.233,0-1.782-.275-.411-.275-.822-.551-1.096-.826-.411.688-1.097,1.79-2.193,2.616.822,1.377,1.782,3.442,1.097,5.783-.411,1.239-1.645,2.203-2.878,2.754,2.192,1.377,3.975,1.79,5.345,1.377,1.919-.688,2.467-2.754,2.467-2.754l1.097.275c-.138.138-.822,2.616-3.152,3.442-.548.138-1.097.275-1.508.275-1.37,0-3.015-.551-4.659-1.652.137.826,0,1.652-.548,2.341-.411.826-1.371,1.377-2.33,1.652,1.919.138,4.111,1.102,5.208,3.855.548-1.377,1.781-2.616,3.289-3.305,1.781-.826,3.837-.689,5.618.275v-21.067c0-3.305-1.507-5.783-4.522-5.783s-4.796,2.616-5.207,3.855c-3.7-1.652-7.264,1.79-7.264,4.406-3.151-.413-6.167,3.029-5.756,6.747.822.138,1.644.138,2.467-.138h0Z"/>
    <path class="cls-18" d="m351.179,95.039c-1.649.688-2.886,2.201-3.16,3.852v.688l-.687-.275c-1.374-.55-3.022-.275-3.984.275-1.648.825-2.748,2.889-1.648,5.502,1.786-.413,3.709.274,5.083,2.201v-.138c1.786-1.238,3.985-1.238,6.183.412l-.55.825c-1.786-1.237-3.71-1.375-4.946-.412-1.374,1.1-1.786,2.75-1.236,4.264l-1.1.412c-.55-1.65-.138-3.438.824-4.676-1.099-1.513-2.61-2.2-4.122-1.788-1.511.412-2.748,1.788-2.748,3.439l-1.099-.138c.137-1.65,1.236-3.163,2.748-3.989-1.237-3.025,0-5.776,2.061-6.876.962-.412,2.336-.688,3.71-.55-1.236-3.714-4.534-3.714-6.596-3.301l-.824.138.275-.827c.274-.687.137-1.511-.412-2.337-.55-.963-1.512-1.787-2.611-1.926-1.786-.412-3.572.275-4.671.688-1.924,1.789-2.748,6.189.412,8.665-1.512,2.612,1.648,5.363,2.336,5.775,0,5.089,4.671,7.84,7.282,7.428,2.61,5.089,14.701,7.151,14.701-3.989v-12.79c-1.648-1.101-3.572-1.238-5.221-.551h0Z"/>
    <path class="cls-13" d="m71.332,99.698c-.321,2.574-1.764,4.747-4.007,6.114-6.09,3.701-16.666,10.058-18.509,11.265-.641.403-1.362.644-2.004.644-2.323,0-3.926-2.333-4.006-5.874-.08-3.218-.641-5.471-1.361-8.046-.481-2.011-.963-4.022-1.363-6.758-.4-2.494-1.201-11.103,4.007-16.735,2.964-3.218,7.452-4.827,13.301-4.827h.802c3.846.08,6.73,1.287,8.974,3.701,5.048,5.31,4.728,15.126,4.167,20.517h0Zm17.867-16.655c-2.725-3.459-14.983-3.62-15.144-3.62-.882,0-1.122.081-1.442.241-.24.161-.4.402-.56.725-.16.242-.16.562,0,.885,2.483,5.471,2.323,12.551,2.003,16.333-.08.401-.08.804-.24,1.287-.08.241,0,.564.16.805.16.242.481.402.722.402.08.08.24.08.32.08,2.644,0,7.131-4.345,8.412-5.712,2.725-2.655,5.77-6.518,6.33-9.092.24-.804,0-1.609-.561-2.334h0Zm0,0h0"/>
  </g>
  <g>
    <g>
      <path class="cls-19" d="m61.824,241.405c.035-.035.047-.087.027-.133-.019-.045-.065-.075-.113-.075h-6.879c-.049,0-.094.03-.111.075-.02.046-.01.099.025.133l3.281,3.281v3.654c-.35.038-.914.138-1.42.252l-.129.03c-.65.149-.578.27.162.27h3.264c.738,0,.811-.122.16-.27l-.131-.03c-.504-.115-1.066-.214-1.418-.252v-3.654l3.281-3.281Z"/>
      <path class="cls-5" d="m61.738,241.197h-3.463v7.696h1.656c.738,0,.811-.122.16-.27l-.131-.03c-.504-.115-1.066-.214-1.418-.252v-3.654l3.281-3.281c.035-.035.047-.087.027-.133-.019-.045-.065-.075-.113-.075Z"/>
      <polygon class="cls-22" points="61.443 241.442 58.298 244.585 55.156 241.442 61.443 241.442"/>
      <polygon class="cls-48" points="58.275 244.561 58.298 244.585 61.443 241.442 58.275 241.442 58.275 244.561"/>
    </g>
    <g>
      <path class="cls-19" d="m53.812,241.405c.035-.035.045-.087.025-.133-.02-.045-.062-.075-.113-.075h-6.877c-.051,0-.094.03-.113.075-.018.046-.008.099.027.133l3.279,3.281v3.654c-.35.038-.912.138-1.418.252l-.129.03c-.65.149-.578.27.16.27h3.264c.738,0,.811-.122.16-.27l-.129-.03c-.506-.115-1.068-.214-1.418-.252v-3.654l3.281-3.281Z"/>
      <path class="cls-5" d="m53.724,241.197h-3.463v7.696h1.656c.738,0,.811-.122.16-.27l-.129-.03c-.506-.115-1.068-.214-1.418-.252v-3.654l3.281-3.281c.035-.035.045-.087.025-.133-.02-.045-.062-.075-.113-.075Z"/>
      <polygon class="cls-22" points="53.431 241.442 50.287 244.585 47.142 241.442 53.431 241.442"/>
      <polygon class="cls-48" points="50.261 244.561 50.287 244.585 53.431 241.442 50.261 241.442 50.261 244.561"/>
    </g>
    <g>
      <path class="cls-19" d="m57.833,233.706c.035-.035.045-.088.027-.133-.02-.045-.065-.075-.113-.075h-6.877c-.051,0-.096.03-.113.075-.02.045-.01.098.025.133l3.281,3.281v3.653c-.352.039-.914.138-1.418.253l-.129.029c-.652.15-.58.27.16.27h3.262c.74,0,.812-.121.162-.27l-.131-.029c-.504-.115-1.066-.214-1.418-.253v-3.653l3.281-3.281Z"/>
      <path class="cls-5" d="m57.748,233.497h-3.465v7.696h1.656c.74,0,.812-.121.162-.27l-.131-.029c-.504-.115-1.066-.214-1.418-.253v-3.653l3.281-3.281c.035-.035.045-.088.027-.133-.02-.045-.065-.075-.113-.075Z"/>
      <polygon class="cls-22" points="57.453 233.741 54.308 236.885 51.164 233.741 57.453 233.741"/>
      <polygon class="cls-48" points="54.283 236.861 54.308 236.885 57.453 233.741 54.283 233.741 54.283 236.861"/>
    </g>
    <g>
      <path class="cls-19" d="m45.798,241.405c.035-.035.045-.087.025-.133-.018-.045-.062-.075-.111-.075h-6.879c-.049,0-.094.03-.111.075-.02.046-.01.099.025.133l3.281,3.281v3.654c-.352.038-.914.138-1.418.252l-.131.03c-.65.149-.576.27.162.27h3.262c.74,0,.812-.122.162-.27l-.131-.03c-.504-.115-1.066-.214-1.418-.252v-3.654l3.281-3.281Z"/>
      <path class="cls-5" d="m45.712,241.197h-3.465v7.696h1.656c.74,0,.812-.122.162-.27l-.131-.03c-.504-.115-1.066-.214-1.418-.252v-3.654l3.281-3.281c.035-.035.045-.087.025-.133-.018-.045-.062-.075-.111-.075Z"/>
      <polygon class="cls-22" points="45.417 241.442 42.273 244.585 39.128 241.442 45.417 241.442"/>
      <polygon class="cls-48" points="42.248 244.561 42.273 244.585 45.417 241.442 42.248 241.442 42.248 244.561"/>
    </g>
    <g>
      <path class="cls-19" d="m49.82,233.706c.035-.035.047-.088.027-.133-.018-.045-.062-.075-.113-.075h-6.877c-.049,0-.094.03-.113.075-.02.045-.008.098.025.133l3.283,3.281v3.653c-.352.039-.914.138-1.42.253l-.129.029c-.65.15-.578.27.16.27h3.264c.738,0,.812-.121.16-.27l-.129-.029c-.506-.115-1.068-.214-1.42-.253v-3.653l3.281-3.281Z"/>
      <path class="cls-5" d="m49.734,233.497h-3.463v7.696h1.656c.738,0,.812-.121.16-.27l-.129-.029c-.506-.115-1.068-.214-1.42-.253v-3.653l3.281-3.281c.035-.035.047-.088.027-.133-.018-.045-.062-.075-.113-.075Z"/>
      <polygon class="cls-22" points="49.439 233.741 46.296 236.885 43.152 233.741 49.439 233.741"/>
      <polygon class="cls-48" points="46.271 236.861 46.296 236.885 49.439 233.741 46.271 233.741 46.271 236.861"/>
    </g>
    <g>
      <path class="cls-19" d="m37.785,241.405c.035-.035.045-.087.027-.133-.02-.045-.062-.075-.113-.075h-6.877c-.051,0-.094.03-.113.075-.02.046-.01.099.025.133l3.281,3.281v3.654c-.35.038-.912.138-1.418.252l-.129.03c-.65.149-.578.27.16.27h3.264c.738,0,.811-.122.16-.27l-.129-.03c-.506-.115-1.068-.214-1.418-.252v-3.654l3.279-3.281Z"/>
      <path class="cls-5" d="m37.699,241.197h-3.463v7.696h1.656c.738,0,.811-.122.16-.27l-.129-.03c-.506-.115-1.068-.214-1.418-.252v-3.654l3.279-3.281c.035-.035.045-.087.027-.133-.02-.045-.062-.075-.113-.075Z"/>
      <polygon class="cls-22" points="37.404 241.442 34.259 244.585 31.117 241.442 37.404 241.442"/>
      <polygon class="cls-48" points="34.236 244.561 34.259 244.585 37.404 241.442 34.236 241.442 34.236 244.561"/>
    </g>
    <g>
      <path class="cls-19" d="m41.808,233.706c.035-.035.045-.088.027-.133-.02-.045-.065-.075-.113-.075h-6.877c-.051,0-.096.03-.115.075-.018.045-.008.098.027.133l3.281,3.281v3.653c-.35.039-.914.138-1.418.253l-.129.029c-.652.15-.58.27.158.27h3.264c.74,0,.812-.121.162-.27l-.131-.029c-.504-.115-1.066-.214-1.418-.253v-3.653l3.281-3.281Z"/>
      <path class="cls-5" d="m41.722,233.497h-3.465v7.696h1.656c.74,0,.812-.121.162-.27l-.131-.029c-.504-.115-1.066-.214-1.418-.253v-3.653l3.281-3.281c.035-.035.045-.088.027-.133-.02-.045-.065-.075-.113-.075Z"/>
      <polygon class="cls-22" points="41.427 233.741 38.283 236.885 35.138 233.741 41.427 233.741"/>
      <polygon class="cls-48" points="38.257 236.861 38.283 236.885 41.427 233.741 38.257 233.741 38.257 236.861"/>
    </g>
    <g>
      <path class="cls-19" d="m29.773,241.405c.035-.035.045-.087.025-.133-.018-.045-.062-.075-.111-.075h-6.879c-.049,0-.094.03-.111.075-.022.046-.01.099.025.133l3.281,3.281v3.654c-.352.038-.914.138-1.418.252l-.131.03c-.65.149-.578.27.16.27h3.264c.74,0,.812-.122.162-.27l-.131-.03c-.504-.115-1.068-.214-1.418-.252v-3.654l3.281-3.281Z"/>
      <path class="cls-5" d="m29.687,241.197h-3.465v7.696h1.656c.74,0,.812-.122.162-.27l-.131-.03c-.504-.115-1.068-.214-1.418-.252v-3.654l3.281-3.281c.035-.035.045-.087.025-.133-.018-.045-.062-.075-.111-.075Z"/>
      <polygon class="cls-22" points="29.39 241.442 26.248 244.585 23.103 241.442 29.39 241.442"/>
      <polygon class="cls-48" points="26.222 244.561 26.248 244.585 29.39 241.442 26.222 241.442 26.222 244.561"/>
    </g>
    <g>
      <path class="cls-19" d="m33.794,233.706c.035-.035.047-.088.027-.133-.018-.045-.062-.075-.113-.075h-6.877c-.049,0-.094.03-.113.075-.02.045-.008.098.025.133l3.281,3.281v3.653c-.35.039-.912.138-1.418.253l-.129.029c-.65.15-.578.27.16.27h3.264c.738,0,.81-.121.16-.27l-.129-.029c-.506-.115-1.068-.214-1.42-.253v-3.653l3.281-3.281Z"/>
      <path class="cls-5" d="m33.708,233.497h-3.463v7.696h1.656c.738,0,.81-.121.16-.27l-.129-.029c-.506-.115-1.068-.214-1.42-.253v-3.653l3.281-3.281c.035-.035.047-.088.027-.133-.018-.045-.062-.075-.113-.075Z"/>
      <polygon class="cls-22" points="33.414 233.741 30.271 236.885 27.126 233.741 33.414 233.741"/>
      <polygon class="cls-48" points="30.246 236.861 30.271 236.885 33.414 233.741 30.246 233.741 30.246 236.861"/>
    </g>
    <g>
      <path class="cls-19" d="m21.759,241.405c.035-.035.045-.087.027-.133-.019-.045-.062-.075-.113-.075h-6.877c-.051,0-.094.03-.113.075-.02.046-.01.099.025.133l3.281,3.281v3.654c-.35.038-.912.138-1.418.252l-.129.03c-.65.149-.58.27.16.27h3.264c.738,0,.811-.122.16-.27l-.129-.03c-.506-.115-1.068-.214-1.418-.252v-3.654l3.279-3.281Z"/>
      <path class="cls-5" d="m21.673,241.197h-3.463v7.696h1.656c.738,0,.811-.122.16-.27l-.129-.03c-.506-.115-1.068-.214-1.418-.252v-3.654l3.279-3.281c.035-.035.045-.087.027-.133-.019-.045-.062-.075-.113-.075Z"/>
      <polygon class="cls-22" points="21.378 241.442 18.234 244.585 15.089 241.442 21.378 241.442"/>
      <polygon class="cls-48" points="18.21 244.561 18.234 244.585 21.378 241.442 18.21 241.442 18.21 244.561"/>
    </g>
    <g>
      <path class="cls-19" d="m25.783,233.706c.035-.035.045-.088.027-.133-.02-.045-.064-.075-.113-.075h-6.879c-.049,0-.094.03-.113.075-.018.045-.008.098.027.133l3.281,3.281v3.653c-.35.039-.914.138-1.42.253l-.129.029c-.65.15-.578.27.16.27h3.264c.74,0,.81-.121.162-.27l-.131-.029c-.504-.115-1.066-.214-1.418-.253v-3.653l3.281-3.281Z"/>
      <path class="cls-5" d="m25.697,233.497h-3.465v7.696h1.656c.74,0,.81-.121.162-.27l-.131-.029c-.504-.115-1.066-.214-1.418-.253v-3.653l3.281-3.281c.035-.035.045-.088.027-.133-.02-.045-.064-.075-.113-.075Z"/>
      <polygon class="cls-22" points="25.402 233.741 22.257 236.885 19.113 233.741 25.402 233.741"/>
      <polygon class="cls-48" points="22.232 236.861 22.257 236.885 25.402 233.741 22.232 233.741 22.232 236.861"/>
    </g>
  </g>
  <g>
    <polygon class="cls-2" points="75.63 234.445 73.707 234.445 73.898 233.971 75.439 233.971 75.63 234.445"/>
    <path class="cls-22" d="m76.472,239.958l-.504-.946c-.191-.348-.342-.959-.342-1.357l-.238-2.197c0-.172-.062-.314-.164-.42.098-.037.166-.123.166-.222,0-.132-.121-.241-.27-.241h-.902c-.15,0-.271.109-.271.241,0,.099.068.185.164.222-.102.106-.164.248-.164.421l-.24,2.197c0,.398-.156,1.008-.346,1.357l-.496.946c-.19.349-.328.959-.328,1.356v6.739c0,.397.291.84.688.84h2.889c.397,0,.688-.443.688-.84v-6.739c0-.397-.139-1.007-.328-1.356Z"/>
    <path class="cls-48" d="m75.968,239.011c-.191-.348-.342-.959-.342-1.357l-.238-2.197c0-.172-.062-.314-.164-.42.098-.037.166-.123.166-.222,0-.132-.121-.241-.27-.241h-.451v14.319h1.443c.397,0,.688-.443.688-.84v-6.739c0-.397-.139-1.007-.328-1.356l-.504-.946Z"/>
    <polygon class="cls-29" points="74.669 234.445 75.63 234.445 75.439 233.971 74.669 233.971 74.669 234.445"/>
    <path class="cls-19" d="m76.326,246.288h-.334c-.272.947-.772,1.484-1.346,1.484s-1.072-.537-1.346-1.484h-.289v-3.079h.309c.275-.711.766-1.424,1.326-1.424s1.051.713,1.326,1.424h.354v3.079Z"/>
    <path class="cls-5" d="m74.669,241.786v5.983c.562-.014,1.055-.547,1.322-1.481h.334v-3.079h-.354c-.271-.701-.754-1.404-1.303-1.423Z"/>
  </g>
  <g>
    <path class="cls-19" d="m68.957,237.897c-.211-.387-.381-3.767-.381-3.767,0-.441-.359-.712-.799-.712s-.801.271-.801.712c0,0-.178,3.38-.387,3.767,0,0-1.705.8-1.705,1.24v8.823c0,.441.324.933.764.933h4.258c.439,0,.762-.492.762-.933v-8.823c0-.44-1.711-1.24-1.711-1.24Z"/>
    <rect class="cls-2" x="66.988" y="232.333" width="1.578" height="1.315"/>
    <path class="cls-5" d="m68.957,237.897c-.211-.387-.381-3.767-.381-3.767,0-.431-.344-.698-.772-.71v15.474h2.102c.439,0,.762-.492.762-.933v-8.823c0-.44-1.711-1.24-1.711-1.24Z"/>
    <rect class="cls-29" x="67.804" y="232.333" width=".762" height="1.315"/>
    <path class="cls-22" d="m67.804,239.047c.705,0,1.275.571,1.275,1.276s-.57,1.275-1.275,1.275-1.275-.571-1.275-1.275.57-1.276,1.275-1.276Z"/>
    <path class="cls-48" d="m67.804,239.047v2.552c.705,0,1.275-.571,1.275-1.275s-.57-1.276-1.275-1.276Z"/>
    <path class="cls-2" d="m67.804,239.289c.572,0,1.035.462,1.035,1.035s-.463,1.035-1.035,1.035-1.035-.463-1.035-1.035.465-1.035,1.035-1.035Z"/>
    <path class="cls-29" d="m68.839,240.324c0-.572-.463-1.035-1.035-1.035v2.069c.572,0,1.035-.463,1.035-1.035Z"/>
    <rect class="cls-22" x="65.673" y="243.11" width="4.207" height="3.418"/>
    <rect class="cls-48" x="67.804" y="243.11" width="2.076" height="3.418"/>
    <rect class="cls-2" x="65.937" y="243.373" width="3.68" height="2.891"/>
    <rect class="cls-29" x="67.804" y="243.373" width="1.812" height="2.891"/>
  </g>
  <g>
    <path class="cls-22" d="m84.775,238.927l-.803-2.861-.018-.05c-.113-.257-.262-2.161-.34-3.838,0-.622-.438-1.074-1.037-1.074s-1.037.452-1.037,1.059c-.082,1.693-.232,3.596-.346,3.852l-.809,2.897c-.619,1.606-.381,8.387-.369,8.664,0,.624.41,1.318,1,1.318h3.125c.588,0,1-.694,1-1.305.01-.282.252-6.92-.367-8.661Z"/>
    <path class="cls-48" d="m83.972,236.066l-.018-.05c-.113-.257-.262-2.161-.34-3.838,0-.622-.436-1.073-1.035-1.073v17.788h1.562c.588,0,1-.694,1-1.305.01-.282.252-6.92-.367-8.661l-.803-2.861Z"/>
    <path class="cls-19" d="m80.49,245.998c-.004-.095-.004-.191-.006-.29h4.19c-.002.1-.004.197-.004.29h-4.18Z"/>
    <path class="cls-19" d="m84.623,241.655c.006.095.01.191.014.289h-4.115c.004-.098.008-.194.014-.289h4.088Z"/>
    <path class="cls-19" d="m81.857,230.362h1.447c.319,0,.578.259.578.578v.58c0,.32-.259.579-.579.579h-1.447c-.32,0-.579-.259-.579-.579v-.578c0-.32.26-.58.58-.58Z"/>
    <polygon class="cls-19" points="80.431 238.755 84.728 238.755 84.31 237.266 80.845 237.266 80.431 238.755"/>
    <g>
      <path class="cls-5" d="m84.623,241.655h-2.043v.289h2.057c-.004-.098-.008-.194-.014-.289Z"/>
      <path class="cls-5" d="m84.669,245.998c0-.093.002-.19.004-.29h-2.094v.29h2.09Z"/>
      <path class="cls-5" d="m83.882,231.52v-.579c0-.318-.262-.579-.58-.579h-.723v1.737h.723c.318,0,.58-.261.58-.58Z"/>
      <path class="cls-5" d="m83.277,237.266c-.135-.425-.395-.717-.697-.717v2.757c.262,0,.49-.218.637-.551h1.512l-.418-1.489h-1.033Z"/>
    </g>
    <path class="cls-2" d="m80.478,245.128c-.006-.837-.002-1.745.024-2.606h4.156c.025.882.027,1.798.023,2.606h-4.203Z"/>
    <path class="cls-19" d="m83.38,237.928c0,.761-.359,1.378-.801,1.378s-.801-.617-.801-1.378.359-1.379.801-1.379.801.617.801,1.379Z"/>
    <path class="cls-2" d="m83.156,237.928c0,.548-.258.992-.576.992s-.576-.444-.576-.992.258-.993.576-.993.576.444.576.993Z"/>
    <g>
      <path class="cls-29" d="m83.156,237.928c0-.549-.258-.993-.576-.993v1.985c.318,0,.576-.444.576-.992Z"/>
      <path class="cls-29" d="m82.58,242.523v2.606h2.102c.004-.808.002-1.723-.023-2.606h-2.078Z"/>
    </g>
  </g>
  <g>
    <path class="cls-22" d="m92.892,241.646c0-.328-.115-.833-.271-1.121l-.418-.782c-.156-.288-.479-1.96-.479-1.96,0-.141-.051-.257-.133-.345.078-.027.135-.099.135-.186,0-.109-.09-.199-.199-.199h-.797c-.109,0-.199.09-.199.199,0,.086.057.159.135.185-.082.089-.135.205-.135.346,0,0-.326,1.671-.484,1.96l-.408.782c-.158.288-.272.793-.272,1.121l-.195,6.552c0,.329.24.695.566.695h2.781c.328,0,.568-.367.568-.695l-.195-6.552Z"/>
    <path class="cls-48" d="m92.621,240.524l-.418-.782c-.156-.288-.479-1.96-.479-1.96,0-.141-.051-.257-.133-.345.078-.027.135-.099.135-.186,0-.109-.09-.199-.199-.199h-.398v11.84h1.391c.328,0,.568-.367.568-.695l-.195-6.552c0-.328-.115-.833-.271-1.121Z"/>
    <polygon class="cls-22" points="91.925 236.946 90.333 236.946 90.492 236.553 91.767 236.553 91.925 236.946"/>
    <rect class="cls-2" x="89.757" y="244.192" width="2.742" height="1.469"/>
    <polygon class="cls-48" points="91.128 236.553 91.128 236.946 91.925 236.946 91.767 236.553 91.128 236.553"/>
    <rect class="cls-29" x="91.128" y="244.192" width="1.371" height="1.469"/>
    <rect class="cls-19" x="89.757" y="245.93" width="2.742" height=".368"/>
    <rect class="cls-5" x="91.128" y="245.93" width="1.371" height=".368"/>
  </g>
  <rect class="cls-27" x="12.449" y="248.893" width="83.482" height="1.682"/>
  <rect class="cls-27" x="12.449" y="261.12" width="83.482" height="1.683"/>
  <polygon class="cls-19" points="86.113 304.425 25.208 304.425 31.705 310.922 92.609 310.922 86.113 304.425"/>
  <g>
    <g>
      <path class="cls-14" d="m78.656,253.019h-.025v-3.634h-3.23v3.634c-1.111,0-2.826,2.523-2.826,3.634v14.535h8.883v-14.535c0-1.11-1.691-3.634-2.801-3.634Z"/>
      <rect class="cls-42" x="75.4" y="245.751" width="3.23" height="4.336"/>
      <path class="cls-44" d="m78.656,253.019h-.025v-3.634h-1.617v21.803h4.443v-14.535c0-1.11-1.691-3.634-2.801-3.634Z"/>
      <rect class="cls-24" x="77.013" y="245.751" width="1.617" height="4.336"/>
      <rect class="cls-8" x="73.785" y="258.671" width="6.461" height="4.037"/>
      <rect class="cls-41" x="77.013" y="258.671" width="3.232" height="4.037"/>
      <g>
        <path class="cls-4" d="m83.787,270.719l-.101-.055c-.318-.171-.666-.323-.934-.414v-2.751c.98-.501,1.775-2.91,2.045-6.069h-4.846c.268,3.159,1.064,5.568,2.043,6.069v2.751c-.268.091-.615.243-.932.414l-.101.055c-.516.276-.457.503.125.503h2.574c.584,0,.641-.227.127-.503Z"/>
        <path class="cls-28" d="m84.796,261.431h-2.424v9.791h1.287c.584,0,.641-.227.127-.503l-.101-.055c-.318-.171-.666-.323-.934-.414v-2.751c.98-.501,1.775-2.91,2.045-6.069Z"/>
      </g>
    </g>
    <g>
      <rect class="cls-42" x="57.832" y="272.654" width="23.73" height="3.819"/>
      <rect class="cls-42" x="68.55" y="272.654" width="2.293" height="30.218"/>
      <rect class="cls-42" x="51.72" y="271.126" width="35.953" height="3.818"/>
      <path class="cls-42" d="m86.91,303.253c0,.657-.645,1.145-1.432,1.145h-31.562c-.787,0-1.432-.488-1.432-1.145s.645-1.146,1.432-1.146h31.562c.787,0,1.432.491,1.432,1.146Z"/>
      <path class="cls-24" d="m85.478,302.107h-15.781v2.292h15.781c.787,0,1.432-.488,1.432-1.145s-.645-1.146-1.432-1.146Z"/>
      <rect class="cls-24" x="69.697" y="272.654" width="1.146" height="30.218"/>
      <rect class="cls-24" x="69.697" y="272.654" width="11.865" height="3.819"/>
      <rect class="cls-24" x="69.697" y="271.126" width="17.977" height="3.818"/>
    </g>
    <g>
      <polygon class="cls-34" points="38.388 267.705 58.476 271.834 60.103 266.863 47.73 259.341 38.388 267.705"/>
      <g>
        <polygon class="cls-39" points="51.169 263.208 50.644 260.461 47.634 260.727 44.689 261.6 45.212 264.347 51.169 263.208"/>
        <rect class="cls-43" x="44.371" y="258.254" width="6.064" height="2.802" transform="translate(-47.887 13.51) rotate(-10.817)"/>
      </g>
      <path class="cls-34" d="m30.441,284.032c-2.809,0-5.088-2.312-5.092-5.123-.019-13.31,10.422-19.551,15.945-20.981,2.725-.708,5.502.922,6.207,3.644.703,2.71-.914,5.471-3.615,6.192-.889.251-8.365,2.641-8.351,11.132.004,2.813-2.274,5.135-5.086,5.135h-.008Z"/>
      <path class="cls-20" d="m55.574,272.755c.039-.033.078-.064.117-.092-.049.03-.098.061-.145.092h.027Z"/>
      <g>
        <g>
          <path class="cls-46" d="m58.548,300.414s-.412-.516.729-1.209c1.141-.693,1.93-1.069,2.252-1.449.32-.38,1.223.695,1.191.788-.033.094-1.402,1.619-1.537,1.667-.137.047-2.635.202-2.635.202Z"/>
          <path class="cls-9" d="m59.777,302.429s-.209.75.709,1.502c.35.259,1.195-.623,3.863-1.338,2.666-.716,5.867-2.115,7.445-6.046.166-.405-.611-1.806-1.723-1.026-1.113.779-10.295,6.909-10.295,6.909Z"/>
          <path class="cls-39" d="m63.103,298.045c.199.237.137.613-.137.843l-2.4,2.017c-.273.23-.656.225-.854-.012l-2.762-3.289c-.199-.236-.139-.614.135-.843l2.402-2.015c.273-.23.656-.225.854.011l2.762,3.29Z"/>
          <path class="cls-25" d="m58.548,300.414s.887,1.926,1.205,2.277c1.496-.637,1.004-.483,2.65-.915,1.646-.433,7.668-2.811,8.281-6.263.041-.476-1.803-1.516-5.279.21-.74.248-2.326.068-3.041-.127-.674.302-1,1.546-1.219,3.231-.219,1.685-2.906,1.139-2.598,1.586Z"/>
          <path class="cls-9" d="m64.777,297.22c-.006-.002-.395-.148-.629-.551-.113.154-.217.33-.301.522-.016.037-.047.062-.086.069-.037.008-.076-.003-.105-.03-.166-.159-.295-.328-.387-.513-.024.025-.047.05-.072.075-.174.179-.371.384-.604.614-.031.034-.08.043-.123.028-.043-.015-.074-.053-.078-.098-.119-1.021.727-1.672.758-1.701.039-.027.088-.031.131-.009.041.023.064.068.06.115-.018.193-.01.371.025.537.266-.266.475-.455.676-.571.039-.022.088-.021.125.003.037.025.057.068.053.113-.017.139-.014.263.006.372.287-.31.545-.482.564-.494.055-.036.127-.021.164.034.035.056.021.127-.035.164-.004.004-.305.205-.613.565.178.386.531.523.553.531.061.023.094.091.07.153-.008.02-.019.038-.035.049-.031.027-.076.037-.117.021Zm-.805-1.176c-.149.12-.318.282-.524.491.061.144.146.277.256.402.098-.193.213-.366.332-.518-.037-.111-.059-.235-.064-.376Zm-.877-.028c-.185.204-.441.563-.473,1.026.148-.15.283-.289.404-.414.051-.052.1-.103.146-.15-.045-.145-.07-.299-.078-.462Z"/>
        </g>
        <path class="cls-46" d="m57.566,299.046l4.441-3.73-12.637-12.472-6.283,6.268s.285.127,2.357.844c2.822.978,12.121,9.089,12.121,9.089Z"/>
        <path class="cls-23" d="m55.185,294.568h7.166c.175,0,.317.142.317.317v2.375c0,.174-.142.316-.316.316h-7.166c-.175,0-.317-.142-.317-.317v-2.375c0-.174.142-.316.316-.316Z" transform="translate(-176.645 107.148) rotate(-40.025)"/>
      </g>
      <path class="cls-46" d="m36.21,287.451l-9.402-2.611c-1.904-.529-3.053-2.377-2.357-4.88l1.141-4.103,16.295,4.526-1.141,4.104c-.693,2.503-2.631,3.494-4.535,2.965Z"/>
      <path class="cls-46" d="m47.921,282.058l-8.367-2.323c-1.902-.529-3.84.461-4.535,2.964l-1.141,4.104,15.26,4.239,1.141-4.104c.695-2.503-.453-4.351-2.357-4.879Z"/>
      <g>
        <g>
          <rect class="cls-42" x="29.222" y="289.181" width="3.818" height="3.82"/>
          <rect class="cls-42" x="29.986" y="289.181" width="2.291" height="13.691"/>
          <rect class="cls-42" x="23.111" y="287.654" width="16.041" height="3.818"/>
          <path class="cls-42" d="m38.388,303.253c0,.657-.645,1.145-1.432,1.145h-11.649c-.787,0-1.434-.488-1.434-1.145s.647-1.146,1.434-1.146h11.649c.787,0,1.432.491,1.432,1.146Z"/>
          <path class="cls-24" d="m36.957,302.107h-5.824v2.292h5.824c.787,0,1.432-.488,1.432-1.145s-.645-1.146-1.432-1.146Z"/>
          <rect class="cls-24" x="31.132" y="289.181" width="1.145" height="13.691"/>
          <rect class="cls-24" x="31.132" y="289.181" width="1.908" height="3.82"/>
          <rect class="cls-24" x="31.132" y="287.654" width="8.02" height="3.818"/>
        </g>
        <path class="cls-19" d="m23.507,284.023h15.249c1.128,0,2.044.916,2.044,2.044v1.067c0,1.129-.917,2.045-2.045,2.045h-15.248c-1.129,0-2.045-.916-2.045-2.045v-1.068c0-1.128.916-2.044,2.044-2.044Z"/>
      </g>
      <path class="cls-43" d="m42.099,293.271c-.303-.121-.367-.409-.248-.71l.367-.987c.105-.312.492-1.642.541-2.367.027-.385-.119-.875-.264-1.252l-.326,1.417c-.074.315-.389.513-.705.44-.316-.072-.514-.389-.441-.705l.396-2.392c-.02-.105-.047-.215-.084-.335-.311-1.194.24-2.776.598-3.162.357-.388-.834-3.325-.834-3.325l1.274-.15s2.875,2.331,2.568,4.74c-.18,1.43-.256,2.423-.287,2.996l.023.744c.002.05-.004.101-.014.15-.008.028-.016.057-.027.083l-1.773,4.484c-.119.301-.461.45-.764.331Z"/>
      <path class="cls-40" d="m39.529,282.882l-.129-18.787c-.041-1.789,1.139-3.269,2.635-3.308,1.498-.038,2.744,1.381,2.785,3.169h.016l.129,18.787-5.436.138Z"/>
      <g>
        <path class="cls-39" d="m56.392,268.854c-.525.136-1.217.136-1.346-.392h0c-.127-.527.199-1.059.725-1.188l3.174-.769c.527-.128,1.061.197,1.188.724h0c.129.528-.185,1.111-.725,1.188-.754.106-1.588.067-3.016.436Z"/>
        <path class="cls-43" d="m50.871,250.568c-.514.178-1.09.561-.902,1.071h0c.185.51.75.774,1.26.588l3.068-1.115c.512-.186.773-.751.588-1.261h0c-.186-.511-.77-.823-1.26-.589-.688.329-1.359.823-2.754,1.306Z"/>
        <g>
          <path class="cls-43" d="m54.207,268.351c-2.461.743-4.924-.204-5.666-2.665l-2.457-8.133c-.744-2.461.783-4.613,3.246-5.356l10.227-3.574c2.461-.743,4.924.204,5.666,2.665l2.726,9.024c.742,2.461-.785,4.613-3.246,5.356l-10.496,2.683Z"/>
          <path class="cls-39" d="m67.937,260.276l-1.361-4.512-19.273,5.82,1.227,4.067c.742,2.461,3.205,3.408,5.668,2.664l10.494-2.682c2.463-.743,3.99-2.895,3.246-5.357Z"/>
        </g>
        <path class="cls-11" d="m48.925,256.779c-2.269-1.48.731-4.369,3.322-5.151l7.289-2.505c-.562-.033,1.014-1.274-.225-.9l-10.166,3.995c-7.131,2.153-6.713,10.836-6.713,10.836l5.027-1.274,3.996-1.449c-.742-2.442-1.566-2.921-2.531-3.551Z"/>
        <path class="cls-31" d="m51.312,264.687c-1.068,2.488,3.027,3.235,5.619,2.453l7.494-1.963c-.451.339,2.147.296.908.67l-11.312,2.518c-7.131,2.153-11.588-5.311-11.588-5.311l9.024-2.724c.734,2.444.312,3.3-.145,4.358Z"/>
        <path class="cls-39" d="m49.423,261.062c-.387-1.284-1.453-2.395-1.623-2.264-.17.13-.201.374-.07.543h0c.014.018,1.344,1.78,1.191,3.943-.016.213.145.398.359.414.213.015.553-1.281.143-2.637Z"/>
        <path class="cls-31" d="m59.027,260.935c1.266,1.802,1.219,4.003,1.219,4.024-.006.373.943.568.949.196.004-.111.258-2.85-1.297-5.153-.209-.311-1.092.616-.871.933Z"/>
        <path class="cls-11" d="m57.451,255.715c.053-.495.244-1.013.027-1.753-.396-1.353-1.23-2.26-1.24-2.273-.211-.308.473-.995.684-.689.045.063,1.115,1.049,1.621,2.621.223.687.273,1.7.15,2.389-.066.368-1.281.089-1.242-.295Z"/>
        <g>
          <path class="cls-43" d="m51.244,258.638c-.49.147-.66,1.024-.402,1.922l9.904-3.033c-.938-.376-9.502,1.111-9.502,1.111Z"/>
          <path class="cls-39" d="m57.626,259.437c2.016-.998,2.957-1.573,3.119-1.91l-9.914,2.993c.002.014.006.026.01.04.275.911.902,1.528,1.398,1.378,0,0,2.627-1.134,5.387-2.501Z"/>
        </g>
        <path class="cls-43" d="m51.181,259.557c-.244.073-.514-.108-.603-.403-.088-.297.035-.596.279-.67.244-.073.514.107.604.403.09.296-.035.596-.279.67Z"/>
        <path class="cls-39" d="m51.998,262.26c-.244.074-.514-.106-.602-.403-.09-.296.033-.596.279-.669.242-.074.512.107.602.404.09.296-.035.596-.279.669Z"/>
        <path class="cls-11" d="m70.384,254.614c-.242-1.097-.666-2.276-1.356-3.536-1.916-3.497-4.203-2.353-4.203-2.353.223-.67-.373-1.679-2.824-1.366-2.555.326-3.94,1.754-3.94,1.754,0,0-.06.329,1.365.042,3.56-1.075,2.252,1.508,2.252,1.508,0,0,.057.017.15.058,0,0,1.867.821,1.832,5.924l3.566-.833,3.156-1.197Z"/>
        <path class="cls-31" d="m70.384,254.614l-6.723,2.03c-.066,6.797-.344,9.859,2.17,9.101,2.748-.83,6.529-3.339,4.553-11.131Z"/>
        <path class="cls-16" d="m58.527,263.937c-.029-.093-.104-.169-.205-.192-.014-.004-.393-.105-.498-.456-.101-.331.15-.559.162-.568.115-.103.127-.28.025-.397-.1-.117-.275-.131-.393-.031-.023.019-.545.472-.336,1.159.201.666.881.835.908.841.152.037.305-.057.34-.209.012-.05.01-.1-.004-.147Z"/>
        <path class="cls-16" d="m55.804,254.918c-.029-.093-.103-.169-.205-.193-.016-.004-.394-.104-.5-.456-.1-.33.152-.559.164-.568.115-.102.127-.279.025-.396-.102-.116-.277-.131-.394-.031-.022.019-.543.472-.334,1.159.199.666.879.835.908.842.152.036.303-.058.34-.21.012-.05.01-.1-.004-.146Z"/>
      </g>
      <path class="cls-43" d="m47.902,280.916c.324-.002.49-.247.488-.571l.016-1.053c.016-.33.137-1.709.354-2.402.113-.369.43-.772.699-1.07l-.209,1.438c-.045.321.176.619.498.666.32.046.619-.177.666-.498l.498-2.373c.059-.091.121-.184.199-.281.723-1,.783-2.674.592-3.164-.195-.49,1.982-2.797,1.982-2.797l-1.133-.601s-3.525,1.129-4.113,3.486c-.35,1.398-.641,2.351-.818,2.896l-.291.686c-.02.046-.033.095-.041.145-.004.029-.008.059-.006.088l.027,4.821c.002.325.268.586.592.585Z"/>
      <path class="cls-34" d="m51.556,266.701l6.996-.129c1.789-.041,3.268,1.139,3.309,2.636.037,1.497-1.383,2.743-3.17,2.784v.015l-6.996.13-.139-5.436Z"/>
    </g>
  </g>
</svg>