<?xml version="1.0" encoding="utf-8"?>
<!-- Generator: Adobe Illustrator 28.0.0, SVG Export Plug-In . SVG Version: 6.00 Build 0)  -->
<svg version="1.1" id="레이어_1" xmlns="http://www.w3.org/2000/svg" xmlns:xlink="http://www.w3.org/1999/xlink" x="0px"
	 y="0px" viewBox="0 0 405.3 233.4" style="enable-background:new 0 0 405.3 233.4;" xml:space="preserve">
<style type="text/css">
	.st0{fill:#FFFFFF;}
	.st1{fill:#EC7D30;}
	.st2{fill:#6F3996;}
	.st3{fill:#5C9BD3;}
	.st4{font-family:'AppleSDGothicNeoM00';}
	.st5{font-size:7.8773px;}
	.st6{font-size:14.3487px;}
	.st7{fill-rule:evenodd;clip-rule:evenodd;fill:#0E0E0E;}
	.st8{fill:none;stroke:#000000;stroke-width:0.72;stroke-linejoin:round;stroke-miterlimit:10;}
	.st9{fill-rule:evenodd;clip-rule:evenodd;fill:#EC7D30;}
	.st10{fill-rule:evenodd;clip-rule:evenodd;fill:#6F3996;}
	.st11{fill-rule:evenodd;clip-rule:evenodd;fill:#5C9BD3;}
	.st12{fill:none;stroke:#000000;stroke-width:0.24;stroke-linejoin:round;stroke-miterlimit:10;}
	.st13{fill:none;stroke:#DAD9D9;stroke-width:0.72;stroke-linejoin:round;stroke-miterlimit:10;}
	.st14{font-family:'Calibri';}
	.st15{font-size:6.96px;}
	.st16{font-size:12px;}
</style>
<rect class="st0" width="405.3" height="233.4"/>
<rect x="270.4" y="91" width="10.7" height="10.7"/>
<rect x="270.4" y="107.6" class="st1" width="10.7" height="10.7"/>
<rect x="270.4" y="124.1" class="st2" width="10.7" height="10.7"/>
<rect x="270.4" y="140.6" class="st3" width="10.7" height="10.7"/>
<text transform="matrix(1 0 0 1 284.5685 99.0611)" class="st4 st5">CT26 only</text>
<text transform="matrix(1 0 0 1 284.5685 115.876)" class="st4 st5">CT26, PD-1 200ug/mouse</text>
<text transform="matrix(1 0 0 1 284.5685 132.4293)" class="st4 st5">CT26, 헤미셀란(40mg/kg)</text>
<text transform="matrix(1 0 0 1 284.5685 149.6441)" class="st4 st5">CT26, PD-1 + 헤미셀란</text>
<text transform="matrix(1 0 0 1 104.4313 35.558)" class="st4 st6">종양무게 </text>
<g>
	<polygon class="st7" points="31.1,89.5 49.4,89.5 49.4,203.8 31.1,203.8 	"/>
	<polygon class="st8" points="31.1,89.5 49.4,89.5 49.4,203.8 31.1,203.8 	"/>
</g>
<g>
	<polygon class="st9" points="89.4,138.5 107.7,138.5 107.7,203.8 89.4,203.8 	"/>
	<polygon class="st8" points="89.4,138.5 107.7,138.5 107.7,203.8 89.4,203.8 	"/>
</g>
<g>
	<polygon class="st10" points="147.8,135.7 166.1,135.7 166.1,203.8 147.8,203.8 	"/>
	<polygon class="st8" points="147.8,135.7 166.1,135.7 166.1,203.8 147.8,203.8 	"/>
</g>
<g>
	<polygon class="st11" points="206.2,162.1 224.4,162.1 224.4,203.8 206.2,203.8 	"/>
	<polygon class="st8" points="206.2,162.1 224.4,162.1 224.4,203.8 206.2,203.8 	"/>
</g>
<g>
	<path class="st12" d="M40.2,89.5v-7.9 M38,81.6h4.6"/>
</g>
<g>
	<path class="st12" d="M98.6,138.5v-5.8 M96.4,132.7h4.4"/>
</g>
<g>
	<path class="st12" d="M157,135.7v-5 M154.7,130.7h4.4"/>
</g>
<g>
	<path class="st12" d="M215.3,162.1v-2.4 M213,159.7h4.6"/>
</g>
<g>
	<line class="st13" x1="11.1" y1="203.8" x2="244.5" y2="203.8"/>
</g>
<g>
	<g>
		<text transform="matrix(1 0 0 1 34.4068 78.7381)" class="st14 st15">3</text>
		<text transform="matrix(1 0 0 1 37.8928 78.7381)" class="st14 st15">.</text>
		<text transform="matrix(1 0 0 1 39.6918 78.7381)" class="st14 st15">7</text>
		<text transform="matrix(1 0 0 1 43.1778 78.7381)" class="st14 st15">8</text>
	</g>
</g>
<g>
	<g>
		<text transform="matrix(1 0 0 1 92.8003 129.5198)" class="st14 st15">2</text>
		<text transform="matrix(1 0 0 1 96.2863 129.5198)" class="st14 st15">.</text>
		<text transform="matrix(1 0 0 1 98.0853 129.5198)" class="st14 st15">1</text>
		<text transform="matrix(1 0 0 1 101.5713 129.5198)" class="st14 st15">6</text>
	</g>
</g>
<g>
	<g>
		<text transform="matrix(1 0 0 1 151.1597 126.0961)" class="st14 st15">2</text>
		<text transform="matrix(1 0 0 1 154.6457 126.0961)" class="st14 st15">.</text>
		<text transform="matrix(1 0 0 1 156.4447 126.0961)" class="st14 st15">2</text>
		<text transform="matrix(1 0 0 1 159.9307 126.0961)" class="st14 st15">5</text>
	</g>
</g>
<g>
	<g>
		<text transform="matrix(1 0 0 1 209.1292 155.7699)" class="st14 st15">1</text>
		<text transform="matrix(1 0 0 1 212.6152 155.7699)" class="st14 st15">.</text>
		<text transform="matrix(1 0 0 1 214.4142 155.7699)" class="st14 st15">3</text>
		<text transform="matrix(1 0 0 1 217.9002 155.7699)" class="st14 st15">8</text>
	</g>
</g>
<text transform="matrix(1 0 0 1 95.4446 217.4784)" class="st4 st16">A</text>
<text transform="matrix(1 0 0 1 151.6039 217.4787)" class="st4 st16">B</text>
<text transform="matrix(1 0 0 1 204.755 217.4789)" class="st4 st16">A+B</text>
</svg>
