<?xml version="1.0" encoding="utf-8"?>
<!-- Generator: Adobe Illustrator 28.0.0, SVG Export Plug-In . SVG Version: 6.00 Build 0)  -->
<svg version="1.1" id="레이어_1" xmlns="http://www.w3.org/2000/svg" xmlns:xlink="http://www.w3.org/1999/xlink" x="0px"
	 y="0px" viewBox="0 0 535 202.1" style="enable-background:new 0 0 535 202.1;" xml:space="preserve">
<style type="text/css">
	.st0{fill:#FFFFFF;}
	.st1{fill-rule:evenodd;clip-rule:evenodd;}
	.st2{fill:none;stroke:#000000;stroke-width:0.72;stroke-linejoin:round;stroke-miterlimit:10;}
	.st3{fill-rule:evenodd;clip-rule:evenodd;fill:#EC7D30;}
	.st4{fill-rule:evenodd;clip-rule:evenodd;fill:#6F3996;}
	.st5{fill-rule:evenodd;clip-rule:evenodd;fill:#5C9BD3;}
	.st6{fill:none;stroke:#595A5A;stroke-width:0.72;stroke-linejoin:round;stroke-miterlimit:10;}
	.st7{fill:none;stroke:#DAD9D9;stroke-width:0.72;stroke-linejoin:round;stroke-miterlimit:10;}
	.st8{font-family:'Calibri';}
	.st9{font-size:6.96px;}
	.st10{font-family:'Calibri-Bold';}
	.st11{font-size:11.04px;}
	.st12{font-size:7.32px;}
</style>
<rect class="st0" width="535" height="202.1"/>
<g>
	<polygon class="st1" points="33.4,64.5 51.2,64.5 51.2,175.7 33.4,175.7 	"/>
	<polygon class="st2" points="33.4,64.5 51.2,64.5 51.2,175.7 33.4,175.7 	"/>
</g>
<g>
	<polygon class="st3" points="90.4,109.8 108.2,109.8 108.2,175.7 90.4,175.7 	"/>
	<polygon class="st2" points="90.4,109.8 108.2,109.8 108.2,175.7 90.4,175.7 	"/>
</g>
<g>
	<polygon class="st4" points="147.5,113.3 165.4,113.3 165.4,175.7 147.5,175.7 	"/>
	<polygon class="st2" points="147.5,113.3 165.4,113.3 165.4,175.7 147.5,175.7 	"/>
</g>
<g>
	<polygon class="st5" points="204.5,127.8 222.4,127.8 222.4,175.7 204.5,175.7 	"/>
	<polygon class="st2" points="204.5,127.8 222.4,127.8 222.4,175.7 204.5,175.7 	"/>
</g>
<g>
	<path class="st6" d="M42.4,64.5V51.8 M40.1,51.8h4.4"/>
</g>
<g>
	<path class="st6" d="M99.4,109.8v-7.9 M97.1,101.9h4.6"/>
</g>
<g>
	<path class="st6" d="M156.4,113.3v-7.6 M154.1,105.7h4.6"/>
</g>
<g>
	<path class="st6" d="M213.4,127.8v-4.2 M211.2,123.6h4.4"/>
</g>
<g>
	<line class="st7" x1="13.8" y1="175.7" x2="241.9" y2="175.7"/>
</g>
<g>
	<g>
		<text transform="matrix(1 0 0 1 34.4546 46.6315)" class="st8 st9">816</text>
		<text transform="matrix(1 0 0 1 44.9126 46.6315)" class="st8 st9">.</text>
		<text transform="matrix(1 0 0 1 46.7106 46.6315)" class="st8 st9">3</text>
	</g>
</g>
<g>
	<g>
		<text transform="matrix(1 0 0 1 91.4781 95.2026)" class="st8 st9">483</text>
		<text transform="matrix(1 0 0 1 101.9361 95.2026)" class="st8 st9">.</text>
		<text transform="matrix(1 0 0 1 103.7341 95.2026)" class="st8 st9">9</text>
	</g>
</g>
<g>
	<g>
		<text transform="matrix(1 0 0 1 148.5015 99.6366)" class="st8 st9">458</text>
		<text transform="matrix(1 0 0 1 158.9585 99.6366)" class="st8 st9">.</text>
		<text transform="matrix(1 0 0 1 160.7575 99.6366)" class="st8 st9">2</text>
	</g>
</g>
<g>
	<g>
		<text transform="matrix(1 0 0 1 205.5249 116.4639)" class="st8 st9">351</text>
		<text transform="matrix(1 0 0 1 215.9819 116.4639)" class="st8 st9">.</text>
		<text transform="matrix(1 0 0 1 217.7809 116.4639)" class="st8 st9">7</text>
	</g>
</g>
<g>
	<g>
		<text transform="matrix(1 0 0 1 99.9312 24.0897)" class="st10 st11">P</text>
		<text transform="matrix(1 0 0 1 105.8072 24.0897)" class="st10 st11">G</text>
		<text transform="matrix(1 0 0 1 112.8862 24.0897)" class="st10 st11">E</text>
	</g>
</g>
<g>
	<g>
		<text transform="matrix(1 0 0 1 118.2906 26.7382)" class="st10 st12">2</text>
	</g>
</g>
<g>
	<polygon class="st1" points="311.1,69 329,69 329,175.5 311.1,175.5 	"/>
	<polygon class="st2" points="311.1,69 329,69 329,175.5 311.1,175.5 	"/>
</g>
<g>
	<polygon class="st3" points="368.3,99 386.1,99 386.1,175.5 368.3,175.5 	"/>
	<polygon class="st2" points="368.3,99 386.1,99 386.1,175.5 368.3,175.5 	"/>
</g>
<g>
	<polygon class="st4" points="425.3,105.8 443.1,105.8 443.1,175.5 425.3,175.5 	"/>
	<polygon class="st2" points="425.3,105.8 443.1,105.8 443.1,175.5 425.3,175.5 	"/>
</g>
<g>
	<polygon class="st5" points="482.3,127.1 500.1,127.1 500.1,175.5 482.3,175.5 	"/>
	<polygon class="st2" points="482.3,127.1 500.1,127.1 500.1,175.5 482.3,175.5 	"/>
</g>
<g>
	<path class="st6" d="M320.1,69V57.4 M317.9,57.4h4.6"/>
</g>
<g>
	<path class="st6" d="M377.1,99v-7.3 M374.9,91.7h4.6"/>
</g>
<g>
	<path class="st6" d="M434.1,105.8v-8.3 M431.9,97.5h4.6"/>
</g>
<g>
	<path class="st6" d="M491.1,127.1v-4 M489,123.2h4.4"/>
</g>
<g>
	<line class="st7" x1="291.6" y1="175.5" x2="519.7" y2="175.5"/>
</g>
<g>
	<g>
		<text transform="matrix(1 0 0 1 310.4635 49.3872)" class="st8 st9">1954</text>
		<text transform="matrix(1 0 0 1 324.4065 49.3872)" class="st8 st9">.</text>
		<text transform="matrix(1 0 0 1 326.2055 49.3872)" class="st8 st9">7</text>
	</g>
</g>
<g>
	<g>
		<text transform="matrix(1 0 0 1 367.4947 82.9855)" class="st8 st9">1404</text>
		<text transform="matrix(1 0 0 1 381.4377 82.9855)" class="st8 st9">.</text>
		<text transform="matrix(1 0 0 1 383.2367 82.9855)" class="st8 st9">5</text>
	</g>
</g>
<g>
	<g>
		<text transform="matrix(1 0 0 1 424.5103 92.4268)" class="st8 st9">1280</text>
		<text transform="matrix(1 0 0 1 438.4533 92.4268)" class="st8 st9">.</text>
		<text transform="matrix(1 0 0 1 440.2523 92.4268)" class="st8 st9">5</text>
	</g>
</g>
<g>
	<g>
		<text transform="matrix(1 0 0 1 483.3307 116.2892)" class="st8 st9">889</text>
		<text transform="matrix(1 0 0 1 493.7877 116.2892)" class="st8 st9">.</text>
		<text transform="matrix(1 0 0 1 495.5867 116.2892)" class="st8 st9">4</text>
	</g>
</g>
<g>
	<g>
		<text transform="matrix(1 0 0 1 378.7057 23.9152)" class="st10 st11">L</text>
		<text transform="matrix(1 0 0 1 383.3857 23.9152)" class="st10 st11">T</text>
		<text transform="matrix(1 0 0 1 388.8947 23.9152)" class="st10 st11">B</text>
	</g>
</g>
<g>
	<g>
		<text transform="matrix(1 0 0 1 395.151 26.5636)" class="st10 st12">4</text>
	</g>
</g>
</svg>
