<?xml version="1.0" encoding="utf-8"?>
<!-- Generator: Adobe Illustrator 28.0.0, SVG Export Plug-In . SVG Version: 6.00 Build 0)  -->
<svg version="1.1" id="레이어_1" xmlns="http://www.w3.org/2000/svg" xmlns:xlink="http://www.w3.org/1999/xlink" x="0px"
	 y="0px" viewBox="0 0 518.1 463.2" style="enable-background:new 0 0 518.1 463.2;" xml:space="preserve">
<style type="text/css">
	.st0{fill:#FFFFFF;}
	.st1{fill:none;stroke:#000000;stroke-miterlimit:10;}
	.st2{font-family:'AppleSDGothicNeoEB00';}
	.st3{font-size:16px;}
	.st4{fill:#F15A29;}
	.st5{fill:#00AEEF;}
	.st6{fill:none;stroke:#000000;stroke-miterlimit:10;stroke-dasharray:3.0047,3.0047;}
	.st7{font-size:13px;}
	.st8{fill:#6D6E71;}
	.st9{font-size:11px;}
</style>
<rect class="st0" width="518.1" height="463.2"/>
<g>
	<g>
		<rect x="89.1" y="37.6" class="st1" width="187.5" height="187.5"/>
		<rect x="276.6" y="37.6" class="st1" width="187.5" height="187.5"/>
		<rect x="89.1" y="225.1" class="st1" width="187.5" height="187.5"/>
		<rect x="276.6" y="225.1" class="st1" width="187.5" height="187.5"/>
	</g>
	<text transform="matrix(1 0 0 1 161.4268 436.0806)" class="st2 st3">고위험</text>
	<text transform="matrix(1 0 0 1 41.8356 318.2067)" class="st2 st3">저활성</text>
	<text transform="matrix(1 0 0 1 362.3835 437.3438)" class="st2 st3">안전</text>
	<text transform="matrix(1 0 0 1 44.9738 124.8051)" class="st2 st3">고활성</text>
	<circle class="st4" cx="123.8" cy="87.8" r="12.5"/>
	<circle class="st4" cx="296" cy="149.9" r="12.5"/>
	<circle class="st5" cx="440.5" cy="365.2" r="12.5"/>
	<circle class="st5" cx="440.5" cy="297.1" r="12.5"/>
	<circle class="st5" cx="440.5" cy="87.8" r="12.5"/>
	<g>
		<g>
			<path class="st1" d="M141.9,97.9c0,0,55.1,47.1,123.4,50.3"/>
			<g>
				<polygon points="263.6,153.1 272.4,148.4 263.9,143.1 				"/>
			</g>
		</g>
	</g>
	<g>
		<g>
			<line class="st1" x1="440.5" y1="347.6" x2="440.5" y2="325.1"/>
			<g>
				<polygon points="445.5,326.5 440.5,317.9 435.5,326.5 				"/>
			</g>
		</g>
	</g>
	<g>
		<g>
			<line class="st1" x1="440.5" y1="271.2" x2="440.5" y2="114.5"/>
			<g>
				<polygon points="445.5,115.9 440.5,107.3 435.5,115.9 				"/>
			</g>
		</g>
	</g>
	<g>
		<g>
			<path class="st1" d="M319,145.9c0,0,0.5,0,1.5-0.1"/>
			<path class="st6" d="M323.4,145.5c14.4-1.7,61-9.5,97.1-40.6"/>
			<path class="st1" d="M421.6,103.9c0.4-0.3,0.7-0.7,1.1-1"/>
			<g>
				<polygon points="425.1,107.5 428,97.9 418.3,100.2 				"/>
			</g>
		</g>
	</g>
	<text transform="matrix(1 0 0 1 376.6735 115.1669)" class="st2 st7">실패</text>
	<text transform="matrix(1 0 0 1 114.8655 54.2955)" class="st2 st7">LPS</text>
	<text transform="matrix(1 0 0 1 114.8655 69.8955)" class="st2 st7">(최초의 면역항암제 성분)`</text>
	<text transform="matrix(1 0 0 1 363.7352 355.7019)" class="st8 st2 st9">버섯 균사체</text>
	<text transform="matrix(1 0 0 1 354.2202 368.9019)" class="st8 st2 st9">천연물 다당체</text>
	<text transform="matrix(1 0 0 1 344.7052 382.1019)" class="st8 st2 st9">효모 베타글루칸</text>
	<text transform="matrix(1 0 0 1 376.343 292.9622)" class="st8 st2 st9">후코이단,</text>
	<text transform="matrix(1 0 0 1 281.58 306.1622)" class="st8 st2 st9">렌티난(1985), 크레스틴(1977),</text>
	<text transform="matrix(1 0 0 1 347.711 319.3622)" class="st8 st2 st9">시조필란(1986)</text>
	<text transform="matrix(1 0 0 1 280.3918 107.2809)" class="st2 st9">MPLA</text>
	<text transform="matrix(1 0 0 1 280.3918 120.4809)" class="st2 st9">GLA 등</text>
	<text transform="matrix(1 0 0 1 280.3918 133.6809)" class="st2 st9">(백신 어쥬번트)`</text>
	<text transform="matrix(1 0 0 1 414.9494 53.9054)" class="st2 st9">헤미셀란</text>
	<text transform="matrix(1 0 0 1 422.3634 67.1054)" class="st2 st9">(2015)</text>
	<text transform="matrix(1 0 0 1 108.4988 114.562)" class="st2 st9">1891년</text>
	<text transform="matrix(1 0 0 1 414.95 393.1212)" class="st2 st9">1950년대</text>
	<text transform="matrix(1 0 0 1 283.5358 175.1077)" class="st2 st9">1970년대 개발</text>
	<text transform="matrix(1 0 0 1 283.5358 188.3077)" class="st2 st9">2007 허가</text>
</g>
</svg>
