<?xml version="1.0" encoding="utf-8"?>
<!-- Generator: Adobe Illustrator 28.0.0, SVG Export Plug-In . SVG Version: 6.00 Build 0)  -->
<svg version="1.1" id="레이어_1" xmlns="http://www.w3.org/2000/svg" xmlns:xlink="http://www.w3.org/1999/xlink" x="0px"
	 y="0px" viewBox="0 0 428.9 404.9" style="enable-background:new 0 0 428.9 404.9;" xml:space="preserve">
<style type="text/css">
	.st0{fill:#FFFFFF;}
	.st1{fill-rule:evenodd;clip-rule:evenodd;}
	.st2{fill:none;stroke:#000000;stroke-width:0.72;stroke-linejoin:round;stroke-miterlimit:10;}
	.st3{fill-rule:evenodd;clip-rule:evenodd;fill:#EC7D30;}
	.st4{fill-rule:evenodd;clip-rule:evenodd;fill:#6F3996;}
	.st5{fill-rule:evenodd;clip-rule:evenodd;fill:#5C9BD3;}
	.st6{fill:none;stroke:#595A5A;stroke-width:0.72;stroke-linejoin:round;stroke-miterlimit:10;}
	.st7{fill:none;stroke:#DAD9D9;stroke-width:0.72;stroke-linejoin:round;stroke-miterlimit:10;}
	.st8{font-family:'Calibri';}
	.st9{font-size:6.96px;}
	.st10{font-family:'Calibri-Bold';}
	.st11{font-size:11.04px;}
	.st12{clip-path:url(#SVGID_00000088135394541380497680000010543270409982528653_);fill-rule:evenodd;clip-rule:evenodd;}
	
		.st13{clip-path:url(#SVGID_00000144301462092576104460000012933148122850043533_);fill:none;stroke:#000000;stroke-width:0.72;stroke-linejoin:round;stroke-miterlimit:10;}
	
		.st14{clip-path:url(#SVGID_00000021104644384809417550000004809741177399981486_);fill-rule:evenodd;clip-rule:evenodd;fill:#EC7D30;}
	
		.st15{clip-path:url(#SVGID_00000040546373033140827580000018396081273414905233_);fill:none;stroke:#000000;stroke-width:0.72;stroke-linejoin:round;stroke-miterlimit:10;}
	
		.st16{clip-path:url(#SVGID_00000093895137362083709370000011307751789293018512_);fill-rule:evenodd;clip-rule:evenodd;fill:#6F3996;}
	
		.st17{clip-path:url(#SVGID_00000152245612103236417400000008732201197451360407_);fill:none;stroke:#000000;stroke-width:0.72;stroke-linejoin:round;stroke-miterlimit:10;}
	
		.st18{clip-path:url(#SVGID_00000083062925883513796520000005183923789393985935_);fill-rule:evenodd;clip-rule:evenodd;fill:#5C9BD3;}
	
		.st19{clip-path:url(#SVGID_00000096753841635608468280000015111562031555916209_);fill:none;stroke:#000000;stroke-width:0.72;stroke-linejoin:round;stroke-miterlimit:10;}
	
		.st20{clip-path:url(#SVGID_00000070096325950577805500000000658238696369346955_);fill:none;stroke:#595A5A;stroke-width:0.72;stroke-linejoin:round;stroke-miterlimit:10;}
	
		.st21{clip-path:url(#SVGID_00000094602267249443813960000011829466267394255749_);fill:none;stroke:#595A5A;stroke-width:0.72;stroke-linejoin:round;stroke-miterlimit:10;}
	
		.st22{clip-path:url(#SVGID_00000005263082079553046720000008478858437121119626_);fill:none;stroke:#595A5A;stroke-width:0.72;stroke-linejoin:round;stroke-miterlimit:10;}
	
		.st23{clip-path:url(#SVGID_00000104666924143292215350000003568915935599415953_);fill:none;stroke:#595A5A;stroke-width:0.72;stroke-linejoin:round;stroke-miterlimit:10;}
	.st24{clip-path:url(#SVGID_00000130626483515095620840000009260940031196138118_);fill-rule:evenodd;clip-rule:evenodd;}
	
		.st25{clip-path:url(#SVGID_00000056393244137716400660000010991335648072499901_);fill:none;stroke:#000000;stroke-width:0.72;stroke-linejoin:round;stroke-miterlimit:10;}
	
		.st26{clip-path:url(#SVGID_00000131348124419097315610000016373280995785545127_);fill-rule:evenodd;clip-rule:evenodd;fill:#EC7D30;}
	
		.st27{clip-path:url(#SVGID_00000178892292189845977970000015954479430879565718_);fill:none;stroke:#000000;stroke-width:0.72;stroke-linejoin:round;stroke-miterlimit:10;}
	
		.st28{clip-path:url(#SVGID_00000003815188024404280010000007617194779103858348_);fill-rule:evenodd;clip-rule:evenodd;fill:#6F3996;}
	
		.st29{clip-path:url(#SVGID_00000008124670505548097720000006058489855272846242_);fill:none;stroke:#000000;stroke-width:0.72;stroke-linejoin:round;stroke-miterlimit:10;}
	
		.st30{clip-path:url(#SVGID_00000093886067276580238120000006931485482736062608_);fill-rule:evenodd;clip-rule:evenodd;fill:#5C9BD3;}
	
		.st31{clip-path:url(#SVGID_00000173839188070635422040000012081567983491386558_);fill:none;stroke:#000000;stroke-width:0.72;stroke-linejoin:round;stroke-miterlimit:10;}
	
		.st32{clip-path:url(#SVGID_00000157270576320586321890000010475530562470488228_);fill:none;stroke:#595A5A;stroke-width:0.72;stroke-linejoin:round;stroke-miterlimit:10;}
	
		.st33{clip-path:url(#SVGID_00000110444360026752836430000000266046803874121354_);fill:none;stroke:#595A5A;stroke-width:0.72;stroke-linejoin:round;stroke-miterlimit:10;}
	
		.st34{clip-path:url(#SVGID_00000156583539706277492360000009936766503366434469_);fill:none;stroke:#595A5A;stroke-width:0.72;stroke-linejoin:round;stroke-miterlimit:10;}
	
		.st35{clip-path:url(#SVGID_00000047050709577291835080000002422357561718860983_);fill:none;stroke:#595A5A;stroke-width:0.72;stroke-linejoin:round;stroke-miterlimit:10;}
	.st36{font-family:'MalgunGothic';}
	.st37{font-family:'MalgunGothicBold';}
</style>
<rect class="st0" width="428.9" height="404.9"/>
<g>
	<g>
		<polygon class="st1" points="13.1,125.4 28,125.4 28,174.3 13.1,174.3 		"/>
		<polygon class="st2" points="13.1,125.4 28,125.4 28,174.3 13.1,174.3 		"/>
	</g>
	<g>
		<polygon class="st3" points="60.5,112.2 75.4,112.2 75.4,174.3 60.5,174.3 		"/>
		<polygon class="st2" points="60.5,112.2 75.4,112.2 75.4,174.3 60.5,174.3 		"/>
	</g>
	<g>
		<polygon class="st4" points="108,61.4 122.9,61.4 122.9,174.3 108,174.3 		"/>
		<polygon class="st2" points="108,61.4 122.9,61.4 122.9,174.3 108,174.3 		"/>
	</g>
	<g>
		<polygon class="st5" points="155.4,66.1 170.3,66.1 170.3,174.3 155.4,174.3 		"/>
		<polygon class="st2" points="155.4,66.1 170.3,66.1 170.3,174.3 155.4,174.3 		"/>
	</g>
	<g>
		<path class="st6" d="M20.6,125.4v-4.2 M18.3,121.2h4.6"/>
	</g>
	<g>
		<path class="st6" d="M68,112.2v-4.9 M65.8,107.2h4.4"/>
	</g>
	<g>
		<path class="st6" d="M115.5,61.4V48.3 M113.2,48.3h4.4"/>
	</g>
	<g>
		<path class="st6" d="M162.9,66.1V57 M160.6,57h4.6"/>
	</g>
	<g>
		<line class="st7" x1="-3.2" y1="174.3" x2="186.6" y2="174.3"/>
	</g>
	<g>
		<g>
			<text transform="matrix(1 0 0 1 10.8834 119.1024)" class="st8 st9">1528</text>
			<text transform="matrix(1 0 0 1 24.8264 119.1024)" class="st8 st9">.</text>
			<text transform="matrix(1 0 0 1 26.6254 119.1024)" class="st8 st9">4</text>
		</g>
	</g>
	<g>
		<g>
			<text transform="matrix(1 0 0 1 58.3365 105.7821)" class="st8 st9">1944</text>
			<text transform="matrix(1 0 0 1 72.2795 105.7821)" class="st8 st9">.</text>
			<text transform="matrix(1 0 0 1 74.0785 105.7821)" class="st8 st9">5</text>
		</g>
	</g>
	<g>
		<g>
			<text transform="matrix(1 0 0 1 105.7818 45.7602)" class="st8 st9">3529</text>
			<text transform="matrix(1 0 0 1 119.7248 45.7602)" class="st8 st9">.</text>
			<text transform="matrix(1 0 0 1 121.5238 45.7602)" class="st8 st9">8</text>
		</g>
	</g>
	<g>
		<g>
			<text transform="matrix(1 0 0 1 153.235 53.0622)" class="st8 st9">3382</text>
			<text transform="matrix(1 0 0 1 167.178 53.0622)" class="st8 st9">.</text>
			<text transform="matrix(1 0 0 1 168.977 53.0622)" class="st8 st9">5</text>
		</g>
	</g>
	<g>
		<g>
			<text transform="matrix(1 0 0 1 77.8053 14.8367)" class="st10 st11">TN</text>
			<text transform="matrix(1 0 0 1 90.6313 14.8367)" class="st10 st11">F</text>
		</g>
	</g>
	<g>
		<g>
			<text transform="matrix(1 0 0 1 95.6803 14.8367)" class="st10 st11">-</text>
		</g>
	</g>
	<g>
		<g>
			<text transform="matrix(1 0 0 1 99.0396 14.8367)" class="st10 st11">α</text>
		</g>
	</g>
	<g>
		<g>
			<defs>
				<rect id="SVGID_1_" x="230.8" y="30.3" width="190.6" height="144.7"/>
			</defs>
			<clipPath id="SVGID_00000182510038123262352970000008750612333200357298_">
				<use xlink:href="#SVGID_1_"  style="overflow:visible;"/>
			</clipPath>
			
				<polygon style="clip-path:url(#SVGID_00000182510038123262352970000008750612333200357298_);fill-rule:evenodd;clip-rule:evenodd;" points="
				247.2,128.4 262.1,128.4 262.1,174.3 247.2,174.3 			"/>
		</g>
		<g>
			<defs>
				<rect id="SVGID_00000108270757799796229760000011829379313580078004_" x="230.8" y="30.3" width="190.6" height="144.7"/>
			</defs>
			<clipPath id="SVGID_00000044894701538203865620000006405227762929661063_">
				<use xlink:href="#SVGID_00000108270757799796229760000011829379313580078004_"  style="overflow:visible;"/>
			</clipPath>
			
				<polygon style="clip-path:url(#SVGID_00000044894701538203865620000006405227762929661063_);fill:none;stroke:#000000;stroke-width:0.72;stroke-linejoin:round;stroke-miterlimit:10;" points="
				247.2,128.4 262.1,128.4 262.1,174.3 247.2,174.3 			"/>
		</g>
	</g>
	<g>
		<g>
			<defs>
				<rect id="SVGID_00000018950530357780622930000014495147014246991547_" x="230.8" y="30.3" width="190.6" height="144.7"/>
			</defs>
			<clipPath id="SVGID_00000142151899772129800700000000301879598624895881_">
				<use xlink:href="#SVGID_00000018950530357780622930000014495147014246991547_"  style="overflow:visible;"/>
			</clipPath>
			
				<polygon style="clip-path:url(#SVGID_00000142151899772129800700000000301879598624895881_);fill-rule:evenodd;clip-rule:evenodd;fill:#EC7D30;" points="
				294.6,113.8 309.5,113.8 309.5,174.3 294.6,174.3 			"/>
		</g>
		<g>
			<defs>
				<rect id="SVGID_00000043441713149063856550000016123245268318888637_" x="230.8" y="30.3" width="190.6" height="144.7"/>
			</defs>
			<clipPath id="SVGID_00000180330615485003472700000006672210591615149203_">
				<use xlink:href="#SVGID_00000043441713149063856550000016123245268318888637_"  style="overflow:visible;"/>
			</clipPath>
			
				<polygon style="clip-path:url(#SVGID_00000180330615485003472700000006672210591615149203_);fill:none;stroke:#000000;stroke-width:0.72;stroke-linejoin:round;stroke-miterlimit:10;" points="
				294.6,113.8 309.5,113.8 309.5,174.3 294.6,174.3 			"/>
		</g>
	</g>
	<g>
		<g>
			<defs>
				<rect id="SVGID_00000182518491787904365950000015278318723461504430_" x="230.8" y="30.3" width="190.6" height="144.7"/>
			</defs>
			<clipPath id="SVGID_00000000912704572207259560000013546558826068485818_">
				<use xlink:href="#SVGID_00000182518491787904365950000015278318723461504430_"  style="overflow:visible;"/>
			</clipPath>
			
				<polygon style="clip-path:url(#SVGID_00000000912704572207259560000013546558826068485818_);fill-rule:evenodd;clip-rule:evenodd;fill:#6F3996;" points="
				342.2,51 356.9,51 356.9,174.3 342.2,174.3 			"/>
		</g>
		<g>
			<defs>
				<rect id="SVGID_00000092422624732835012970000016846475690971788982_" x="230.8" y="30.3" width="190.6" height="144.7"/>
			</defs>
			<clipPath id="SVGID_00000058560316638690873740000005796046519263038123_">
				<use xlink:href="#SVGID_00000092422624732835012970000016846475690971788982_"  style="overflow:visible;"/>
			</clipPath>
			
				<polygon style="clip-path:url(#SVGID_00000058560316638690873740000005796046519263038123_);fill:none;stroke:#000000;stroke-width:0.72;stroke-linejoin:round;stroke-miterlimit:10;" points="
				342.2,51 356.9,51 356.9,174.3 342.2,174.3 			"/>
		</g>
	</g>
	<g>
		<g>
			<defs>
				<rect id="SVGID_00000051358966145074682700000008949029123939699858_" x="230.8" y="30.3" width="190.6" height="144.7"/>
			</defs>
			<clipPath id="SVGID_00000035522831137851545560000006898105607912557240_">
				<use xlink:href="#SVGID_00000051358966145074682700000008949029123939699858_"  style="overflow:visible;"/>
			</clipPath>
			
				<polygon style="clip-path:url(#SVGID_00000035522831137851545560000006898105607912557240_);fill-rule:evenodd;clip-rule:evenodd;fill:#5C9BD3;" points="
				389.6,59.8 404.4,59.8 404.4,174.3 389.6,174.3 			"/>
		</g>
		<g>
			<defs>
				<rect id="SVGID_00000172400390738873258220000001168789513959787692_" x="230.8" y="30.3" width="190.6" height="144.7"/>
			</defs>
			<clipPath id="SVGID_00000134967722866971975720000015041723001518969244_">
				<use xlink:href="#SVGID_00000172400390738873258220000001168789513959787692_"  style="overflow:visible;"/>
			</clipPath>
			
				<polygon style="clip-path:url(#SVGID_00000134967722866971975720000015041723001518969244_);fill:none;stroke:#000000;stroke-width:0.72;stroke-linejoin:round;stroke-miterlimit:10;" points="
				389.6,59.8 404.4,59.8 404.4,174.3 389.6,174.3 			"/>
		</g>
	</g>
	<g>
		<g>
			<defs>
				<rect id="SVGID_00000150070910882775069300000009075458959124262540_" x="230.8" y="30.3" width="190.6" height="144"/>
			</defs>
			<clipPath id="SVGID_00000161604462484431466300000011646272704602498947_">
				<use xlink:href="#SVGID_00000150070910882775069300000009075458959124262540_"  style="overflow:visible;"/>
			</clipPath>
			
				<path style="clip-path:url(#SVGID_00000161604462484431466300000011646272704602498947_);fill:none;stroke:#595A5A;stroke-width:0.72;stroke-linejoin:round;stroke-miterlimit:10;" d="
				M254.7,128.4v-5.2 M252.4,123.2h4.4"/>
		</g>
	</g>
	<g>
		<g>
			<defs>
				<rect id="SVGID_00000135681939729355584780000002904605597548914101_" x="230.8" y="30.3" width="190.6" height="144"/>
			</defs>
			<clipPath id="SVGID_00000096739540304941724560000006022685930418911420_">
				<use xlink:href="#SVGID_00000135681939729355584780000002904605597548914101_"  style="overflow:visible;"/>
			</clipPath>
			
				<path style="clip-path:url(#SVGID_00000096739540304941724560000006022685930418911420_);fill:none;stroke:#595A5A;stroke-width:0.72;stroke-linejoin:round;stroke-miterlimit:10;" d="
				M302.1,113.8v-7.9 M299.8,105.9h4.6"/>
		</g>
	</g>
	<g>
		<g>
			<defs>
				<rect id="SVGID_00000030449462019687909400000013494520401616770441_" x="230.8" y="30.3" width="190.6" height="144"/>
			</defs>
			<clipPath id="SVGID_00000067925512891720362620000016058086231578154934_">
				<use xlink:href="#SVGID_00000030449462019687909400000013494520401616770441_"  style="overflow:visible;"/>
			</clipPath>
			
				<path style="clip-path:url(#SVGID_00000067925512891720362620000016058086231578154934_);fill:none;stroke:#595A5A;stroke-width:0.72;stroke-linejoin:round;stroke-miterlimit:10;" d="
				M349.5,51v-9.1 M347.3,41.8h4.4"/>
		</g>
	</g>
	<g>
		<g>
			<defs>
				<rect id="SVGID_00000082349875929738992810000002288015947823369627_" x="230.8" y="30.3" width="190.6" height="144"/>
			</defs>
			<clipPath id="SVGID_00000114791395840194191860000010478355063013121448_">
				<use xlink:href="#SVGID_00000082349875929738992810000002288015947823369627_"  style="overflow:visible;"/>
			</clipPath>
			
				<path style="clip-path:url(#SVGID_00000114791395840194191860000010478355063013121448_);fill:none;stroke:#595A5A;stroke-width:0.72;stroke-linejoin:round;stroke-miterlimit:10;" d="
				M397,59.8V45 M394.7,45h4.6"/>
		</g>
	</g>
	<g>
		<line class="st7" x1="230.9" y1="174.3" x2="420.8" y2="174.3"/>
	</g>
	<g>
		<g>
			<text transform="matrix(1 0 0 1 248.4551 122.0711)" class="st8 st9">95</text>
			<text transform="matrix(1 0 0 1 255.4271 122.0711)" class="st8 st9">.</text>
			<text transform="matrix(1 0 0 1 257.2261 122.0711)" class="st8 st9">7</text>
		</g>
	</g>
	<g>
		<g>
			<text transform="matrix(1 0 0 1 294.2285 103.1176)" class="st8 st9">125</text>
			<text transform="matrix(1 0 0 1 304.6855 103.1176)" class="st8 st9">.</text>
			<text transform="matrix(1 0 0 1 306.4845 103.1176)" class="st8 st9">9</text>
		</g>
	</g>
	<g>
		<g>
			<text transform="matrix(1 0 0 1 341.6738 40.1254)" class="st8 st9">257</text>
			<text transform="matrix(1 0 0 1 352.1308 40.1254)" class="st8 st9">.</text>
			<text transform="matrix(1 0 0 1 353.9298 40.1254)" class="st8 st9">1</text>
		</g>
	</g>
	<g>
		<g>
			<text transform="matrix(1 0 0 1 389.1191 42.0579)" class="st8 st9">238</text>
			<text transform="matrix(1 0 0 1 399.5761 42.0579)" class="st8 st9">.</text>
			<text transform="matrix(1 0 0 1 401.3751 42.0579)" class="st8 st9">6</text>
		</g>
	</g>
	<g>
		<g>
			<text transform="matrix(1 0 0 1 314.4082 14.8367)" class="st10 st11">I</text>
			<text transform="matrix(1 0 0 1 317.4062 14.8367)" class="st10 st11">L</text>
		</g>
	</g>
	<g>
		<g>
			<text transform="matrix(1 0 0 1 322.0879 14.8367)" class="st10 st11">-</text>
		</g>
	</g>
	<g>
		<g>
			<text transform="matrix(1 0 0 1 325.4551 14.8367)" class="st10 st11">1</text>
		</g>
	</g>
	<g>
		<g>
			<text transform="matrix(1 0 0 1 331.0957 14.8367)" class="st10 st11">β</text>
		</g>
	</g>
	<g>
		<g>
			<polygon class="st1" points="13.1,355.6 28,355.6 28,392.1 13.1,392.1 			"/>
			<polygon class="st2" points="13.1,355.6 28,355.6 28,392.1 13.1,392.1 			"/>
		</g>
		<g>
			<polygon class="st3" points="60.5,345.2 75.4,345.2 75.4,392.1 60.5,392.1 			"/>
			<polygon class="st2" points="60.5,345.2 75.4,345.2 75.4,392.1 60.5,392.1 			"/>
		</g>
		<g>
			<polygon class="st4" points="108,281 122.9,281 122.9,392.1 108,392.1 			"/>
			<polygon class="st2" points="108,281 122.9,281 122.9,392.1 108,392.1 			"/>
		</g>
		<g>
			<polygon class="st5" points="155.4,276.4 170.3,276.4 170.3,392.1 155.4,392.1 			"/>
			<polygon class="st2" points="155.4,276.4 170.3,276.4 170.3,392.1 155.4,392.1 			"/>
		</g>
		<g>
			<path class="st6" d="M20.6,355.6v-3.1 M18.3,352.5h4.6"/>
		</g>
		<g>
			<path class="st6" d="M68,345.2v-5.6 M65.8,339.6h4.4"/>
		</g>
		<g>
			<path class="st6" d="M115.5,281v-12.2 M113.2,268.8h4.4"/>
		</g>
		<g>
			<path class="st6" d="M162.9,276.4v-10.1 M160.6,266.4h4.6"/>
		</g>
		<g>
			<line class="st7" x1="-3.2" y1="392.1" x2="186.6" y2="392.1"/>
		</g>
		<g>
			<g>
				<text transform="matrix(1 0 0 1 12.6881 349.2742)" class="st8 st9">126</text>
				<text transform="matrix(1 0 0 1 23.1461 349.2742)" class="st8 st9">.</text>
				<text transform="matrix(1 0 0 1 24.9441 349.2742)" class="st8 st9">8</text>
			</g>
		</g>
		<g>
			<g>
				<text transform="matrix(1 0 0 1 60.1412 336.5923)" class="st8 st9">162</text>
				<text transform="matrix(1 0 0 1 70.5992 336.5923)" class="st8 st9">.</text>
				<text transform="matrix(1 0 0 1 72.3972 336.5923)" class="st8 st9">8</text>
			</g>
		</g>
		<g>
			<g>
				<text transform="matrix(1 0 0 1 107.5787 266.9209)" class="st8 st9">385</text>
				<text transform="matrix(1 0 0 1 118.0367 266.9209)" class="st8 st9">.</text>
				<text transform="matrix(1 0 0 1 119.8347 266.9209)" class="st8 st9">9</text>
			</g>
		</g>
		<g>
			<g>
				<text transform="matrix(1 0 0 1 155.0318 263.9166)" class="st8 st9">401</text>
				<text transform="matrix(1 0 0 1 165.4898 263.9166)" class="st8 st9">.</text>
				<text transform="matrix(1 0 0 1 167.2878 263.9166)" class="st8 st9">7</text>
			</g>
		</g>
		<g>
			<g>
				<text transform="matrix(1 0 0 1 83.3209 232.6258)" class="st10 st11">I</text>
				<text transform="matrix(1 0 0 1 86.3199 232.6258)" class="st10 st11">L</text>
			</g>
		</g>
		<g>
			<g>
				<text transform="matrix(1 0 0 1 91.0006 232.6258)" class="st10 st11">-</text>
			</g>
		</g>
		<g>
			<g>
				<text transform="matrix(1 0 0 1 94.36 232.6258)" class="st10 st11">6</text>
			</g>
		</g>
	</g>
</g>
<g>
	<g>
		<g>
			<defs>
				<rect id="SVGID_00000127034310059846706770000002363194000262315438_" x="227" y="257.2" width="190.6" height="134.8"/>
			</defs>
			<clipPath id="SVGID_00000144297106169322619260000006393522877532939942_">
				<use xlink:href="#SVGID_00000127034310059846706770000002363194000262315438_"  style="overflow:visible;"/>
			</clipPath>
			
				<polygon style="clip-path:url(#SVGID_00000144297106169322619260000006393522877532939942_);fill-rule:evenodd;clip-rule:evenodd;" points="
				243.5,363.6 258.3,363.6 258.3,391.4 243.5,391.4 			"/>
		</g>
		<g>
			<defs>
				<rect id="SVGID_00000137131222592334906410000011431355528100749747_" x="227" y="257.2" width="190.6" height="134.8"/>
			</defs>
			<clipPath id="SVGID_00000173879097576100737210000017698358500307036327_">
				<use xlink:href="#SVGID_00000137131222592334906410000011431355528100749747_"  style="overflow:visible;"/>
			</clipPath>
			
				<polygon style="clip-path:url(#SVGID_00000173879097576100737210000017698358500307036327_);fill:none;stroke:#000000;stroke-width:0.72;stroke-linejoin:round;stroke-miterlimit:10;" points="
				243.5,363.6 258.3,363.6 258.3,391.4 243.5,391.4 			"/>
		</g>
	</g>
	<g>
		<g>
			<defs>
				<rect id="SVGID_00000152247491590178209880000016537192598207329187_" x="227" y="257.2" width="190.6" height="134.8"/>
			</defs>
			<clipPath id="SVGID_00000000924799892086818100000011833585972749705395_">
				<use xlink:href="#SVGID_00000152247491590178209880000016537192598207329187_"  style="overflow:visible;"/>
			</clipPath>
			
				<polygon style="clip-path:url(#SVGID_00000000924799892086818100000011833585972749705395_);fill-rule:evenodd;clip-rule:evenodd;fill:#EC7D30;" points="
				290.9,352 305.7,352 305.7,391.4 290.9,391.4 			"/>
		</g>
		<g>
			<defs>
				<rect id="SVGID_00000080187083396807172900000018399452327197118888_" x="227" y="257.2" width="190.6" height="134.8"/>
			</defs>
			<clipPath id="SVGID_00000046340063157956207280000007285259859120084641_">
				<use xlink:href="#SVGID_00000080187083396807172900000018399452327197118888_"  style="overflow:visible;"/>
			</clipPath>
			
				<polygon style="clip-path:url(#SVGID_00000046340063157956207280000007285259859120084641_);fill:none;stroke:#000000;stroke-width:0.72;stroke-linejoin:round;stroke-miterlimit:10;" points="
				290.9,352 305.7,352 305.7,391.4 290.9,391.4 			"/>
		</g>
	</g>
	<g>
		<g>
			<defs>
				<rect id="SVGID_00000176017369195851378360000015382963039038560664_" x="227" y="257.2" width="190.6" height="134.8"/>
			</defs>
			<clipPath id="SVGID_00000154389067401926350450000003186767400419101607_">
				<use xlink:href="#SVGID_00000176017369195851378360000015382963039038560664_"  style="overflow:visible;"/>
			</clipPath>
			
				<polygon style="clip-path:url(#SVGID_00000154389067401926350450000003186767400419101607_);fill-rule:evenodd;clip-rule:evenodd;fill:#6F3996;" points="
				338.4,284.7 353.1,284.7 353.1,391.4 338.4,391.4 			"/>
		</g>
		<g>
			<defs>
				<rect id="SVGID_00000042722202336100990680000001898560783186205825_" x="227" y="257.2" width="190.6" height="134.8"/>
			</defs>
			<clipPath id="SVGID_00000080903470794108444590000003943233367579302031_">
				<use xlink:href="#SVGID_00000042722202336100990680000001898560783186205825_"  style="overflow:visible;"/>
			</clipPath>
			
				<polygon style="clip-path:url(#SVGID_00000080903470794108444590000003943233367579302031_);fill:none;stroke:#000000;stroke-width:0.72;stroke-linejoin:round;stroke-miterlimit:10;" points="
				338.4,284.7 353.1,284.7 353.1,391.4 338.4,391.4 			"/>
		</g>
	</g>
	<g>
		<g>
			<defs>
				<rect id="SVGID_00000013177825644233963700000005212516749844864401_" x="227" y="257.2" width="190.6" height="134.8"/>
			</defs>
			<clipPath id="SVGID_00000080206843150027488320000007176416535388581541_">
				<use xlink:href="#SVGID_00000013177825644233963700000005212516749844864401_"  style="overflow:visible;"/>
			</clipPath>
			
				<polygon style="clip-path:url(#SVGID_00000080206843150027488320000007176416535388581541_);fill-rule:evenodd;clip-rule:evenodd;fill:#5C9BD3;" points="
				385.8,273.1 400.7,273.1 400.7,391.4 385.8,391.4 			"/>
		</g>
		<g>
			<defs>
				<rect id="SVGID_00000009551745061600843680000009669269221793468582_" x="227" y="257.2" width="190.6" height="134.8"/>
			</defs>
			<clipPath id="SVGID_00000010995475931327155970000017681722280843706496_">
				<use xlink:href="#SVGID_00000009551745061600843680000009669269221793468582_"  style="overflow:visible;"/>
			</clipPath>
			
				<polygon style="clip-path:url(#SVGID_00000010995475931327155970000017681722280843706496_);fill:none;stroke:#000000;stroke-width:0.72;stroke-linejoin:round;stroke-miterlimit:10;" points="
				385.8,273.1 400.7,273.1 400.7,391.4 385.8,391.4 			"/>
		</g>
	</g>
	<g>
		<g>
			<defs>
				<rect id="SVGID_00000124145271283797719590000010317283558290847894_" x="227" y="257.2" width="190.6" height="134"/>
			</defs>
			<clipPath id="SVGID_00000153680994817494446520000012293239340810958772_">
				<use xlink:href="#SVGID_00000124145271283797719590000010317283558290847894_"  style="overflow:visible;"/>
			</clipPath>
			
				<path style="clip-path:url(#SVGID_00000153680994817494446520000012293239340810958772_);fill:none;stroke:#595A5A;stroke-width:0.72;stroke-linejoin:round;stroke-miterlimit:10;" d="
				M250.9,363.6v-1.8 M248.6,361.8h4.4"/>
		</g>
	</g>
	<g>
		<g>
			<defs>
				<rect id="SVGID_00000052807550413546874830000007912442286486424244_" x="227" y="257.2" width="190.6" height="134"/>
			</defs>
			<clipPath id="SVGID_00000134219176136969236620000002425824135396013502_">
				<use xlink:href="#SVGID_00000052807550413546874830000007912442286486424244_"  style="overflow:visible;"/>
			</clipPath>
			
				<path style="clip-path:url(#SVGID_00000134219176136969236620000002425824135396013502_);fill:none;stroke:#595A5A;stroke-width:0.72;stroke-linejoin:round;stroke-miterlimit:10;" d="
				M298.3,352v-5 M296,347h4.6"/>
		</g>
	</g>
	<g>
		<g>
			<defs>
				<rect id="SVGID_00000033343828843025627870000008861349071073148333_" x="227" y="257.2" width="190.6" height="134"/>
			</defs>
			<clipPath id="SVGID_00000178192202916589556320000008627717491190368649_">
				<use xlink:href="#SVGID_00000033343828843025627870000008861349071073148333_"  style="overflow:visible;"/>
			</clipPath>
			
				<path style="clip-path:url(#SVGID_00000178192202916589556320000008627717491190368649_);fill:none;stroke:#595A5A;stroke-width:0.72;stroke-linejoin:round;stroke-miterlimit:10;" d="
				M345.7,284.7v-9.4 M343.5,275.4h4.4"/>
		</g>
	</g>
	<g>
		<g>
			<defs>
				<rect id="SVGID_00000139984088274166673500000013117939318639353013_" x="227" y="257.2" width="190.6" height="134"/>
			</defs>
			<clipPath id="SVGID_00000076575454465125689570000000916665105647566734_">
				<use xlink:href="#SVGID_00000139984088274166673500000013117939318639353013_"  style="overflow:visible;"/>
			</clipPath>
			
				<path style="clip-path:url(#SVGID_00000076575454465125689570000000916665105647566734_);fill:none;stroke:#595A5A;stroke-width:0.72;stroke-linejoin:round;stroke-miterlimit:10;" d="
				M393.2,273.1v-9 M390.9,264.1h4.6"/>
		</g>
	</g>
	<g>
		<line class="st7" x1="227.1" y1="391.4" x2="417" y2="391.4"/>
	</g>
	<g>
		<g>
			<text transform="matrix(1 0 0 1 244.3199 355.9637)" class="st36 st9">8</text>
			<text transform="matrix(1 0 0 1 248.1529 355.9637)" class="st36 st9">.</text>
			<text transform="matrix(1 0 0 1 249.7109 355.9637)" class="st36 st9">29</text>
		</g>
	</g>
	<g>
		<g>
			<text transform="matrix(1 0 0 1 289.8434 344.4325)" class="st36 st9">11</text>
			<text transform="matrix(1 0 0 1 297.5104 344.4325)" class="st36 st9">.</text>
			<text transform="matrix(1 0 0 1 299.0674 344.4325)" class="st36 st9">73</text>
		</g>
	</g>
	<g>
		<g>
			<text transform="matrix(1 0 0 1 337.2887 272.0322)" class="st36 st9">31</text>
			<text transform="matrix(1 0 0 1 344.9557 272.0322)" class="st36 st9">.</text>
			<text transform="matrix(1 0 0 1 346.5137 272.0322)" class="st36 st9">81</text>
		</g>
	</g>
	<g>
		<g>
			<text transform="matrix(1 0 0 1 384.7418 259.2776)" class="st36 st9">35</text>
			<text transform="matrix(1 0 0 1 392.4088 259.2776)" class="st36 st9">.</text>
			<text transform="matrix(1 0 0 1 393.9668 259.2776)" class="st36 st9">29</text>
		</g>
	</g>
	<g>
		<g>
			<text transform="matrix(1 0 0 1 305.2262 239.9403)" class="st37 st11">N</text>
			<text transform="matrix(1 0 0 1 313.9902 239.9403)" class="st37 st11">i</text>
			<text transform="matrix(1 0 0 1 316.9972 239.9403)" class="st37 st11">t</text>
			<text transform="matrix(1 0 0 1 321.2072 239.9403)" class="st37 st11">ri</text>
			<text transform="matrix(1 0 0 1 328.5382 239.9403)" class="st37 st11">t</text>
			<text transform="matrix(1 0 0 1 332.7472 239.9403)" class="st37 st11">e</text>
		</g>
	</g>
</g>
</svg>
