<?xml version="1.0" encoding="utf-8"?>
<!-- Generator: Adobe Illustrator 28.0.0, SVG Export Plug-In . SVG Version: 6.00 Build 0)  -->
<svg version="1.1" id="레이어_1" xmlns="http://www.w3.org/2000/svg" xmlns:xlink="http://www.w3.org/1999/xlink" x="0px"
	 y="0px" viewBox="0 0 595.3 468" style="enable-background:new 0 0 595.3 468;" xml:space="preserve">
<style type="text/css">
	.st0{fill:#FFFFFF;}
	.st1{fill:none;stroke:#868686;stroke-width:0.72;stroke-linejoin:round;stroke-miterlimit:10;}
	.st2{fill-rule:evenodd;clip-rule:evenodd;}
	.st3{fill:none;stroke:#000000;stroke-width:0.72;stroke-linejoin:round;stroke-miterlimit:10;}
	.st4{fill-rule:evenodd;clip-rule:evenodd;fill:#8165A2;}
	.st5{font-family:'Calibri';}
	.st6{font-size:6.96px;}
	.st7{font-family:'Calibri-Bold';}
	.st8{font-size:9px;}
	.st9{font-size:6px;}
	.st10{font-family:'AppleSDGothicNeoEB00';}
	.st11{font-size:9.96px;}
	.st12{font-size:8.04px;}
	.st13{font-size:5.28px;}
	.st14{font-size:6.72px;}
	.st15{font-size:12px;}
	.st16{fill:#8165A2;}
	.st17{font-family:'AppleSDGothicNeoM00';}
	.st18{font-size:10.0481px;}
</style>
<rect class="st0" width="595.3" height="468"/>
<g>
	<path class="st1" d="M83.5,94.4"/>
</g>
<g>
	<polygon class="st2" points="100.2,160.5 122.5,160.5 122.5,197.5 100.2,197.5 	"/>
	<polygon class="st3" points="100.2,160.5 122.5,160.5 122.5,197.5 100.2,197.5 	"/>
</g>
<g>
	<polygon class="st4" points="156,123.1 178.3,123.1 178.3,197.5 156,197.5 	"/>
	<polygon class="st3" points="156,123.1 178.3,123.1 178.3,197.5 156,197.5 	"/>
</g>
<g>
	<path d="M111.4,160.5v-1.2 M109.1,159.3h4.6"/>
	<path class="st3" d="M111.4,160.5v-1.2 M109.1,159.3h4.6"/>
</g>
<g>
	<path d="M167.2,123.1v-5.4 M164.9,117.7h4.6"/>
	<path class="st3" d="M167.2,123.1v-5.4 M164.9,117.7h4.6"/>
</g>
<g>
	<line class="st1" x1="83.5" y1="197.9" x2="83.5" y2="94.4"/>
</g>
<g>
	<path class="st1" d="M81.3,197.9h2.2l119-0.4 M81.3,177.2h2.2 M81.3,156.5h2.2 M81.3,135.8h2.2 M81.3,115.2h2.2 M81.3,94.4h2.2"/>
</g>
<g>
	<path class="st1" d="M266.6,197.9h2.2l119-0.4 M266.6,177.2h2.2 M266.6,156.5h2.2 M266.6,135.8h2.2 M266.6,115.2h2.2 M266.6,94.4
		h2.2"/>
</g>
<g>
	<path class="st1" d="M448.9,197.9l119-0.4 M450.3,389l119-0.4 M268.8,389l119-0.4 M84.6,389l119-0.4"/>
</g>
<g>
	<g>
		<text transform="matrix(1 0 0 1 73.4771 199.9535)" class="st5 st6">0</text>
	</g>
</g>
<g>
	<g>
		<text transform="matrix(1 0 0 1 66.3755 179.266)" class="st5 st6">2</text>
		<text transform="matrix(1 0 0 1 69.9725 179.266)" class="st5 st6">0</text>
		<text transform="matrix(1 0 0 1 73.4585 179.266)" class="st5 st6">0</text>
	</g>
</g>
<g>
	<g>
		<text transform="matrix(1 0 0 1 66.3755 158.5706)" class="st5 st6">4</text>
		<text transform="matrix(1 0 0 1 69.9725 158.5706)" class="st5 st6">0</text>
		<text transform="matrix(1 0 0 1 73.4585 158.5706)" class="st5 st6">0</text>
	</g>
</g>
<g>
	<g>
		<text transform="matrix(1 0 0 1 66.3755 137.8753)" class="st5 st6">6</text>
		<text transform="matrix(1 0 0 1 69.9725 137.8753)" class="st5 st6">0</text>
		<text transform="matrix(1 0 0 1 73.4585 137.8753)" class="st5 st6">0</text>
	</g>
</g>
<g>
	<g>
		<text transform="matrix(1 0 0 1 66.3755 117.1878)" class="st5 st6">8</text>
		<text transform="matrix(1 0 0 1 69.9725 117.1878)" class="st5 st6">0</text>
		<text transform="matrix(1 0 0 1 73.4585 117.1878)" class="st5 st6">0</text>
	</g>
</g>
<g>
	<g>
		<text transform="matrix(1 0 0 1 62.8286 96.4925)" class="st5 st6">1</text>
		<text transform="matrix(1 0 0 1 66.4256 96.4925)" class="st5 st6">0</text>
		<text transform="matrix(1 0 0 1 69.9116 96.4925)" class="st5 st6">0</text>
		<text transform="matrix(1 0 0 1 73.5086 96.4925)" class="st5 st6">0</text>
	</g>
</g>
<g>
	<g>
		<text transform="matrix(1.748456e-07 -1 1 1.748456e-07 46.835 183.1579)" class="st7 st8">S</text>
		<text transform="matrix(1.748456e-07 -1 1 1.748456e-07 46.835 178.949)" class="st7 st8">a</text>
		<text transform="matrix(1.748456e-07 -1 1 1.748456e-07 46.835 174.5056)" class="st7 st8">l</text>
		<text transform="matrix(1.748456e-07 -1 1 1.748456e-07 46.835 172.3406)" class="st7 st8">m</text>
		<text transform="matrix(1.748456e-07 -1 1 1.748456e-07 46.835 165.0193)" class="st7 st8">o</text>
		<text transform="matrix(1.748456e-07 -1 1 1.748456e-07 46.835 160.2165)" class="st7 st8">n</text>
		<text transform="matrix(1.748456e-07 -1 1 1.748456e-07 46.835 155.4138)" class="st7 st8">e</text>
		<text transform="matrix(1.748456e-07 -1 1 1.748456e-07 46.835 150.8572)" class="st7 st8">ll</text>
		<text transform="matrix(1.748456e-07 -1 1 1.748456e-07 46.835 146.5261)" class="st7 st8">a</text>
		<text transform="matrix(1.748456e-07 -1 1 1.748456e-07 46.835 142.0827)" class="st7 st8"> </text>
		<text transform="matrix(1.748456e-07 -1 1 1.748456e-07 46.835 139.8054)" class="st7 st8">i</text>
		<text transform="matrix(1.748456e-07 -1 1 1.748456e-07 46.835 137.6404)" class="st7 st8">n</text>
		<text transform="matrix(1.748456e-07 -1 1 1.748456e-07 46.835 132.8367)" class="st7 st8"> </text>
		<text transform="matrix(1.748456e-07 -1 1 1.748456e-07 46.835 130.6863)" class="st7 st8"> </text>
		<text transform="matrix(1.748456e-07 -1 1 1.748456e-07 46.835 128.6511)" class="st7 st8">fe</text>
		<text transform="matrix(1.748456e-07 -1 1 1.748456e-07 46.835 121.2195)" class="st7 st8">c</text>
		<text transform="matrix(1.748456e-07 -1 1 1.748456e-07 46.835 117.4968)" class="st7 st8">e</text>
		<text transform="matrix(1.748456e-07 -1 1 1.748456e-07 46.835 112.9402)" class="st7 st8">s</text>
		<text transform="matrix(1.748456e-07 -1 1 1.748456e-07 46.835 109.3396)" class="st7 st8"> </text>
	</g>
</g>
<g>
	<g>
		<text transform="matrix(1.748456e-07 -1 1 1.748456e-07 57.8741 169.5954)" class="st7 st8">(</text>
		<text transform="matrix(1.748456e-07 -1 1 1.748456e-07 57.8741 166.8279)" class="st7 st8">x</text>
		<text transform="matrix(1.748456e-07 -1 1 1.748456e-07 57.8741 162.7468)" class="st7 st8">10</text>
	</g>
</g>
<g>
	<g>
		<text transform="matrix(1.748456e-07 -1 1 1.748456e-07 55.1163 153.6267)" class="st7 st9">4</text>
	</g>
</g>
<g>
	<g>
		<text transform="matrix(1.748456e-07 -1 1 1.748456e-07 57.8741 148.4704)" class="st7 st8">C</text>
		<text transform="matrix(1.748456e-07 -1 1 1.748456e-07 57.8741 143.6706)" class="st7 st8">F</text>
		<text transform="matrix(1.748456e-07 -1 1 1.748456e-07 57.8741 139.5847)" class="st7 st8">U</text>
		<text transform="matrix(1.748456e-07 -1 1 1.748456e-07 57.8741 133.7097)" class="st7 st8">/</text>
		<text transform="matrix(1.748456e-07 -1 1 1.748456e-07 57.8741 129.8699)" class="st7 st8">g</text>
		<text transform="matrix(1.748456e-07 -1 1 1.748456e-07 57.8741 125.5574)" class="st7 st8">)</text>
	</g>
</g>
<g>
	<g>
		<text transform="matrix(1 0 0 1 96.1481 83.8363)" class="st10 st11">1</text>
		<text transform="matrix(1 0 0 1 99.8831 83.8363)" class="st10 st11">d</text>
		<text transform="matrix(1 0 0 1 105.6401 83.8363)" class="st10 st11">a</text>
		<text transform="matrix(1 0 0 1 110.6401 83.8363)" class="st10 st11">y</text>
		<text transform="matrix(1 0 0 1 115.8591 83.8363)" class="st10 st11">_</text>
	</g>
</g>
<g>
	<g>
		<text transform="matrix(1 0 0 1 121.1091 83.8363)" class="st10 st11">분변</text>
	</g>
</g>
<g>
	<g>
		<text transform="matrix(1 0 0 1 143.5466 83.8363)" class="st10 st11">(</text>
		<text transform="matrix(1 0 0 1 147.0626 83.8363)" class="st10 st11">x</text>
		<text transform="matrix(1 0 0 1 152.3016 83.8363)" class="st10 st11">10</text>
	</g>
</g>
<g>
	<g>
		<text transform="matrix(1 0 0 1 161.3044 83.8363)" class="st10 st11">⁴</text>
	</g>
</g>
<g>
	<g>
		<text transform="matrix(1 0 0 1 164.9059 83.8363)" class="st10 st11">C</text>
		<text transform="matrix(1 0 0 1 170.6429 83.8363)" class="st10 st11">F</text>
		<text transform="matrix(1 0 0 1 176.0009 83.8363)" class="st10 st11">U</text>
		<text transform="matrix(1 0 0 1 182.7039 83.8363)" class="st10 st11">/</text>
		<text transform="matrix(1 0 0 1 186.4089 83.8363)" class="st10 st11">g</text>
		<text transform="matrix(1 0 0 1 191.6779 83.8363)" class="st10 st11">)</text>
	</g>
</g>
<g>
	<path class="st1" d="M269.1,94.4"/>
</g>
<g>
	<polygon class="st2" points="285.6,154.9 307.6,154.9 307.6,197.9 285.6,197.9 	"/>
	<polygon class="st3" points="285.6,154.9 307.6,154.9 307.6,197.9 285.6,197.9 	"/>
</g>
<g>
	<polygon class="st4" points="340.6,112.1 362.7,112.1 362.7,197.9 340.6,197.9 	"/>
	<polygon class="st3" points="340.6,112.1 362.7,112.1 362.7,197.9 340.6,197.9 	"/>
</g>
<g>
	<line class="st3" x1="294.3" y1="197.9" x2="298.8" y2="197.9"/>
</g>
<g>
	<path d="M296.7,154.9v-1.2 M294.4,153.7h4.4"/>
	<path class="st3" d="M296.7,154.9v-1.2 M294.4,153.7h4.4"/>
</g>
<g>
	<path d="M351.6,112.1v-5.4 M349.3,106.7h4.6"/>
	<path class="st3" d="M351.6,112.1v-5.4 M349.3,106.7h4.6"/>
</g>
<g>
	<line class="st1" x1="269.1" y1="197.9" x2="269.1" y2="94.4"/>
</g>
<g>
	<path class="st1" d="M266.8,197.9h2.3 M266.8,177.2h2.3 M266.8,156.5h2.3 M266.8,135.8h2.3 M266.8,115.2h2.3 M266.8,94.4h2.3"/>
</g>
<g>
	<g>
		<text transform="matrix(1 0 0 1 259.0246 199.9535)" class="st5 st6">0</text>
	</g>
</g>
<g>
	<g>
		<text transform="matrix(1 0 0 1 251.9231 179.266)" class="st5 st6">2</text>
		<text transform="matrix(1 0 0 1 255.5201 179.266)" class="st5 st6">0</text>
		<text transform="matrix(1 0 0 1 259.0061 179.266)" class="st5 st6">0</text>
	</g>
</g>
<g>
	<g>
		<text transform="matrix(1 0 0 1 251.9231 158.5706)" class="st5 st6">4</text>
		<text transform="matrix(1 0 0 1 255.5201 158.5706)" class="st5 st6">0</text>
		<text transform="matrix(1 0 0 1 259.0061 158.5706)" class="st5 st6">0</text>
	</g>
</g>
<g>
	<g>
		<text transform="matrix(1 0 0 1 251.9231 137.8753)" class="st5 st6">6</text>
		<text transform="matrix(1 0 0 1 255.5201 137.8753)" class="st5 st6">0</text>
		<text transform="matrix(1 0 0 1 259.0061 137.8753)" class="st5 st6">0</text>
	</g>
</g>
<g>
	<g>
		<text transform="matrix(1 0 0 1 251.9231 117.1878)" class="st5 st6">8</text>
		<text transform="matrix(1 0 0 1 255.5201 117.1878)" class="st5 st6">0</text>
		<text transform="matrix(1 0 0 1 259.0061 117.1878)" class="st5 st6">0</text>
	</g>
</g>
<g>
	<g>
		<text transform="matrix(1 0 0 1 248.3684 96.4925)" class="st5 st6">1</text>
		<text transform="matrix(1 0 0 1 251.9654 96.4925)" class="st5 st6">0</text>
		<text transform="matrix(1 0 0 1 255.4514 96.4925)" class="st5 st6">0</text>
		<text transform="matrix(1 0 0 1 259.0484 96.4925)" class="st5 st6">0</text>
	</g>
</g>
<g>
	<g>
		<text transform="matrix(1.748456e-07 -1 1 1.748456e-07 231.9217 183.1579)" class="st7 st8">S</text>
		<text transform="matrix(1.748456e-07 -1 1 1.748456e-07 231.9217 178.949)" class="st7 st8">a</text>
		<text transform="matrix(1.748456e-07 -1 1 1.748456e-07 231.9217 174.5056)" class="st7 st8">l</text>
		<text transform="matrix(1.748456e-07 -1 1 1.748456e-07 231.9217 172.3406)" class="st7 st8">m</text>
		<text transform="matrix(1.748456e-07 -1 1 1.748456e-07 231.9217 165.0193)" class="st7 st8">o</text>
		<text transform="matrix(1.748456e-07 -1 1 1.748456e-07 231.9217 160.2165)" class="st7 st8">n</text>
		<text transform="matrix(1.748456e-07 -1 1 1.748456e-07 231.9217 155.4138)" class="st7 st8">e</text>
		<text transform="matrix(1.748456e-07 -1 1 1.748456e-07 231.9217 150.8572)" class="st7 st8">ll</text>
		<text transform="matrix(1.748456e-07 -1 1 1.748456e-07 231.9217 146.5261)" class="st7 st8">a</text>
		<text transform="matrix(1.748456e-07 -1 1 1.748456e-07 231.9217 142.0827)" class="st7 st8"> </text>
		<text transform="matrix(1.748456e-07 -1 1 1.748456e-07 231.9217 139.8054)" class="st7 st8">i</text>
		<text transform="matrix(1.748456e-07 -1 1 1.748456e-07 231.9217 137.6404)" class="st7 st8">n</text>
		<text transform="matrix(1.748456e-07 -1 1 1.748456e-07 231.9217 132.8367)" class="st7 st8"> </text>
		<text transform="matrix(1.748456e-07 -1 1 1.748456e-07 231.9217 130.6863)" class="st7 st8"> </text>
		<text transform="matrix(1.748456e-07 -1 1 1.748456e-07 231.9217 128.6511)" class="st7 st8">fe</text>
		<text transform="matrix(1.748456e-07 -1 1 1.748456e-07 231.9217 121.2195)" class="st7 st8">c</text>
		<text transform="matrix(1.748456e-07 -1 1 1.748456e-07 231.9217 117.4968)" class="st7 st8">e</text>
		<text transform="matrix(1.748456e-07 -1 1 1.748456e-07 231.9217 112.9402)" class="st7 st8">s</text>
		<text transform="matrix(1.748456e-07 -1 1 1.748456e-07 231.9217 109.3396)" class="st7 st8"> </text>
	</g>
</g>
<g>
	<g>
		<text transform="matrix(1.748456e-07 -1 1 1.748456e-07 242.9607 169.5954)" class="st7 st8">(</text>
		<text transform="matrix(1.748456e-07 -1 1 1.748456e-07 242.9607 166.8279)" class="st7 st8">x</text>
		<text transform="matrix(1.748456e-07 -1 1 1.748456e-07 242.9607 162.7468)" class="st7 st8">10</text>
	</g>
</g>
<g>
	<g>
		<text transform="matrix(1.748456e-07 -1 1 1.748456e-07 240.2107 153.6267)" class="st7 st9">4</text>
	</g>
</g>
<g>
	<g>
		<text transform="matrix(1.748456e-07 -1 1 1.748456e-07 242.9607 148.4704)" class="st7 st8">C</text>
		<text transform="matrix(1.748456e-07 -1 1 1.748456e-07 242.9607 143.6706)" class="st7 st8">F</text>
		<text transform="matrix(1.748456e-07 -1 1 1.748456e-07 242.9607 139.5847)" class="st7 st8">U</text>
		<text transform="matrix(1.748456e-07 -1 1 1.748456e-07 242.9607 133.7097)" class="st7 st8">/</text>
		<text transform="matrix(1.748456e-07 -1 1 1.748456e-07 242.9607 129.8699)" class="st7 st8">g</text>
		<text transform="matrix(1.748456e-07 -1 1 1.748456e-07 242.9607 125.5574)" class="st7 st8">)</text>
	</g>
</g>
<g>
	<g>
		<text transform="matrix(1 0 0 1 273.7573 83.8363)" class="st10 st11">2</text>
		<text transform="matrix(1 0 0 1 279.0953 83.8363)" class="st10 st11">d</text>
		<text transform="matrix(1 0 0 1 284.8523 83.8363)" class="st10 st11">a</text>
		<text transform="matrix(1 0 0 1 289.8523 83.8363)" class="st10 st11">y</text>
		<text transform="matrix(1 0 0 1 295.0713 83.8363)" class="st10 st11">_</text>
	</g>
</g>
<g>
	<g>
		<text transform="matrix(1 0 0 1 298.7182 83.8363)" class="st10 st11">분변</text>
	</g>
</g>
<g>
	<g>
		<text transform="matrix(1 0 0 1 321.1557 83.8363)" class="st10 st11">(</text>
		<text transform="matrix(1 0 0 1 324.6717 83.8363)" class="st10 st11">x</text>
		<text transform="matrix(1 0 0 1 329.9107 83.8363)" class="st10 st11">10</text>
	</g>
</g>
<g>
	<g>
		<text transform="matrix(1 0 0 1 338.9214 83.8363)" class="st10 st11">⁴</text>
	</g>
</g>
<g>
	<g>
		<text transform="matrix(1 0 0 1 342.5151 83.8363)" class="st10 st11">C</text>
		<text transform="matrix(1 0 0 1 348.2521 83.8363)" class="st10 st11">F</text>
		<text transform="matrix(1 0 0 1 353.6101 83.8363)" class="st10 st11">U</text>
		<text transform="matrix(1 0 0 1 360.3131 83.8363)" class="st10 st11">/</text>
		<text transform="matrix(1 0 0 1 364.0181 83.8363)" class="st10 st11">g</text>
		<text transform="matrix(1 0 0 1 369.2861 83.8363)" class="st10 st11">)</text>
	</g>
</g>
<g>
	<path class="st1" d="M452.3,94.4"/>
</g>
<g>
	<polygon class="st2" points="467.4,110.4 489.5,110.4 489.5,197.9 467.4,197.9 	"/>
	<polygon class="st3" points="467.4,110.4 489.5,110.4 489.5,197.9 467.4,197.9 	"/>
</g>
<g>
	<polygon class="st4" points="522.6,160.8 544.5,160.8 544.5,197.9 522.6,197.9 	"/>
	<polygon class="st3" points="522.6,160.8 544.5,160.8 544.5,197.9 522.6,197.9 	"/>
</g>
<g>
	<line class="st3" x1="477.6" y1="197.9" x2="482.1" y2="197.9"/>
</g>
<g>
	<path d="M478.4,110.4v-5.6 M476.3,104.7h4.4"/>
	<path class="st3" d="M478.4,110.4v-5.6 M476.3,104.7h4.4"/>
</g>
<g>
	<path d="M533.6,160.8v-2.6 M531.3,158.1h4.4"/>
	<path class="st3" d="M533.6,160.8v-2.6 M531.3,158.1h4.4"/>
</g>
<g>
	<line class="st1" x1="452.3" y1="197.9" x2="452.3" y2="94.4"/>
</g>
<g>
	<path class="st1" d="M450.1,197.9h2.2 M450.1,180.7h2.2 M450.1,163.4h2.2 M450.1,146.1h2.2 M450.1,128.9h2.2 M450.1,111.7h2.2
		 M450.1,94.4h2.2"/>
</g>
<g>
	<g>
		<text transform="matrix(1 0 0 1 442.2373 199.9535)" class="st5 st6">0</text>
	</g>
</g>
<g>
	<g>
		<text transform="matrix(1 0 0 1 435.1357 182.7113)" class="st5 st6">1</text>
		<text transform="matrix(1 0 0 1 438.7337 182.7113)" class="st5 st6">0</text>
		<text transform="matrix(1 0 0 1 442.2187 182.7113)" class="st5 st6">0</text>
	</g>
</g>
<g>
	<g>
		<text transform="matrix(1 0 0 1 435.1357 165.4691)" class="st5 st6">2</text>
		<text transform="matrix(1 0 0 1 438.7337 165.4691)" class="st5 st6">0</text>
		<text transform="matrix(1 0 0 1 442.2187 165.4691)" class="st5 st6">0</text>
	</g>
</g>
<g>
	<g>
		<text transform="matrix(1 0 0 1 435.1357 148.2269)" class="st5 st6">3</text>
		<text transform="matrix(1 0 0 1 438.7337 148.2269)" class="st5 st6">0</text>
		<text transform="matrix(1 0 0 1 442.2187 148.2269)" class="st5 st6">0</text>
	</g>
</g>
<g>
	<g>
		<text transform="matrix(1 0 0 1 435.1357 130.9847)" class="st5 st6">4</text>
		<text transform="matrix(1 0 0 1 438.7337 130.9847)" class="st5 st6">0</text>
		<text transform="matrix(1 0 0 1 442.2187 130.9847)" class="st5 st6">0</text>
	</g>
</g>
<g>
	<g>
		<text transform="matrix(1 0 0 1 435.1357 113.7347)" class="st5 st6">5</text>
		<text transform="matrix(1 0 0 1 438.7337 113.7347)" class="st5 st6">0</text>
		<text transform="matrix(1 0 0 1 442.2187 113.7347)" class="st5 st6">0</text>
	</g>
</g>
<g>
	<g>
		<text transform="matrix(1 0 0 1 435.1357 96.4925)" class="st5 st6">6</text>
		<text transform="matrix(1 0 0 1 438.7337 96.4925)" class="st5 st6">0</text>
		<text transform="matrix(1 0 0 1 442.2187 96.4925)" class="st5 st6">0</text>
	</g>
</g>
<g>
	<g>
		<text transform="matrix(1.748456e-07 -1 1 1.748456e-07 418.689 185.072)" class="st7 st8">S</text>
		<text transform="matrix(1.748456e-07 -1 1 1.748456e-07 418.689 180.863)" class="st7 st8">a</text>
		<text transform="matrix(1.748456e-07 -1 1 1.748456e-07 418.689 176.4197)" class="st7 st8">l</text>
		<text transform="matrix(1.748456e-07 -1 1 1.748456e-07 418.689 174.2546)" class="st7 st8">m</text>
		<text transform="matrix(1.748456e-07 -1 1 1.748456e-07 418.689 166.9333)" class="st7 st8">o</text>
		<text transform="matrix(1.748456e-07 -1 1 1.748456e-07 418.689 162.1316)" class="st7 st8">n</text>
		<text transform="matrix(1.748456e-07 -1 1 1.748456e-07 418.689 157.3279)" class="st7 st8">e</text>
		<text transform="matrix(1.748456e-07 -1 1 1.748456e-07 418.689 152.7712)" class="st7 st8">ll</text>
		<text transform="matrix(1.748456e-07 -1 1 1.748456e-07 418.689 148.4402)" class="st7 st8">a</text>
		<text transform="matrix(1.748456e-07 -1 1 1.748456e-07 418.689 143.9968)" class="st7 st8"> </text>
		<text transform="matrix(1.748456e-07 -1 1 1.748456e-07 418.689 141.7195)" class="st7 st8">i</text>
		<text transform="matrix(1.748456e-07 -1 1 1.748456e-07 418.689 139.5544)" class="st7 st8">n</text>
		<text transform="matrix(1.748456e-07 -1 1 1.748456e-07 418.689 134.7507)" class="st7 st8"> </text>
		<text transform="matrix(1.748456e-07 -1 1 1.748456e-07 418.689 132.6003)" class="st7 st8">C</text>
		<text transform="matrix(1.748456e-07 -1 1 1.748456e-07 418.689 127.8005)" class="st7 st8">e</text>
		<text transform="matrix(1.748456e-07 -1 1 1.748456e-07 418.689 123.2419)" class="st7 st8">c</text>
		<text transform="matrix(1.748456e-07 -1 1 1.748456e-07 418.689 119.5212)" class="st7 st8">u</text>
		<text transform="matrix(1.748456e-07 -1 1 1.748456e-07 418.689 114.7185)" class="st7 st8">m </text>
	</g>
</g>
<g>
	<g>
		<text transform="matrix(1.748456e-07 -1 1 1.748456e-07 429.7281 169.5954)" class="st7 st8">(</text>
		<text transform="matrix(1.748456e-07 -1 1 1.748456e-07 429.7281 166.8279)" class="st7 st8">x</text>
		<text transform="matrix(1.748456e-07 -1 1 1.748456e-07 429.7281 162.7468)" class="st7 st8">10</text>
	</g>
</g>
<g>
	<g>
		<text transform="matrix(1.748456e-07 -1 1 1.748456e-07 426.9702 153.6267)" class="st7 st9">4</text>
	</g>
</g>
<g>
	<g>
		<text transform="matrix(1.748456e-07 -1 1 1.748456e-07 429.7281 148.4704)" class="st7 st8">C</text>
		<text transform="matrix(1.748456e-07 -1 1 1.748456e-07 429.7281 143.6706)" class="st7 st8">F</text>
		<text transform="matrix(1.748456e-07 -1 1 1.748456e-07 429.7281 139.5847)" class="st7 st8">U</text>
		<text transform="matrix(1.748456e-07 -1 1 1.748456e-07 429.7281 133.7097)" class="st7 st8">/</text>
		<text transform="matrix(1.748456e-07 -1 1 1.748456e-07 429.7281 129.8699)" class="st7 st8">g</text>
		<text transform="matrix(1.748456e-07 -1 1 1.748456e-07 429.7281 125.5574)" class="st7 st8">)</text>
	</g>
</g>
<g>
	<path class="st1" d="M85.4,293.3"/>
</g>
<g>
	<polygon class="st2" points="104,298.1 126.1,298.1 126.1,388.8 104,388.8 	"/>
	<polygon class="st3" points="104,298.1 126.1,298.1 126.1,388.8 104,388.8 	"/>
</g>
<g>
	<polygon class="st4" points="159.2,370.8 181.2,370.8 181.2,388.8 159.2,388.8 	"/>
	<polygon class="st3" points="159.2,370.8 181.2,370.8 181.2,388.8 159.2,388.8 	"/>
</g>
<g>
	<line class="st3" x1="110.7" y1="388.8" x2="115.3" y2="388.8"/>
</g>
<g>
	<path d="M115.1,298.1v-6.8 M112.8,291.2h4.6"/>
	<path class="st3" d="M115.1,298.1v-6.8 M112.8,291.2h4.6"/>
</g>
<g>
	<path d="M170.3,370.8v-1.6 M168,369.2h4.4"/>
	<path class="st3" d="M170.3,370.8v-1.6 M168,369.2h4.4"/>
</g>
<g>
	<line class="st1" x1="85.4" y1="388.8" x2="85.4" y2="285.2"/>
</g>
<g>
	<path class="st1" d="M83.2,388.8h2.2 M83.2,372.8h2.2 M83.2,356.9h2.2 M83.2,341h2.2 M83.2,325.1h2.2 M83.2,309.1h2.2 M83.2,293.3
		h2.2"/>
</g>
<g>
	<g>
		<text transform="matrix(1 0 0 1 75.3755 390.805)" class="st5 st6">0</text>
	</g>
</g>
<g>
	<g>
		<text transform="matrix(1 0 0 1 71.8364 374.891)" class="st5 st6">2</text>
		<text transform="matrix(1 0 0 1 75.4334 374.891)" class="st5 st6">0</text>
	</g>
</g>
<g>
	<g>
		<text transform="matrix(1 0 0 1 71.8364 358.9691)" class="st5 st6">4</text>
		<text transform="matrix(1 0 0 1 75.4334 358.9691)" class="st5 st6">0</text>
	</g>
</g>
<g>
	<g>
		<text transform="matrix(1 0 0 1 71.8364 343.055)" class="st5 st6">6</text>
		<text transform="matrix(1 0 0 1 75.4334 343.055)" class="st5 st6">0</text>
	</g>
</g>
<g>
	<g>
		<text transform="matrix(1 0 0 1 71.8364 327.1331)" class="st5 st6">8</text>
		<text transform="matrix(1 0 0 1 75.4334 327.1331)" class="st5 st6">0</text>
	</g>
</g>
<g>
	<g>
		<text transform="matrix(1 0 0 1 68.2739 311.2191)" class="st5 st6">1</text>
		<text transform="matrix(1 0 0 1 71.8709 311.2191)" class="st5 st6">0</text>
		<text transform="matrix(1 0 0 1 75.3569 311.2191)" class="st5 st6">0</text>
	</g>
</g>
<g>
	<g>
		<text transform="matrix(1 0 0 1 68.2739 295.2972)" class="st5 st6">1</text>
		<text transform="matrix(1 0 0 1 71.8709 295.2972)" class="st5 st6">2</text>
		<text transform="matrix(1 0 0 1 75.3569 295.2972)" class="st5 st6">0</text>
	</g>
</g>
<g>
	<g>
		<text transform="matrix(1.748456e-07 -1 1 1.748456e-07 50.585 394.1345)" class="st7 st12">S</text>
		<text transform="matrix(1.748456e-07 -1 1 1.748456e-07 50.585 390.3025)" class="st7 st12">a</text>
		<text transform="matrix(1.748456e-07 -1 1 1.748456e-07 50.585 386.3415)" class="st7 st12">l</text>
		<text transform="matrix(1.748456e-07 -1 1 1.748456e-07 50.585 384.4148)" class="st7 st12">m</text>
		<text transform="matrix(1.748456e-07 -1 1 1.748456e-07 50.585 377.8181)" class="st7 st12">on</text>
		<text transform="matrix(1.748456e-07 -1 1 1.748456e-07 50.585 369.1814)" class="st7 st12">e</text>
		<text transform="matrix(1.748456e-07 -1 1 1.748456e-07 50.585 365.1023)" class="st7 st12">ll</text>
		<text transform="matrix(1.748456e-07 -1 1 1.748456e-07 50.585 361.2487)" class="st7 st12">a</text>
		<text transform="matrix(1.748456e-07 -1 1 1.748456e-07 50.585 357.2878)" class="st7 st12"> </text>
		<text transform="matrix(1.748456e-07 -1 1 1.748456e-07 50.585 355.6071)" class="st7 st12">i</text>
		<text transform="matrix(1.748456e-07 -1 1 1.748456e-07 50.585 353.6804)" class="st7 st12">n</text>
		<text transform="matrix(1.748456e-07 -1 1 1.748456e-07 50.585 349.3659)" class="st7 st12"> </text>
		<text transform="matrix(1.748456e-07 -1 1 1.748456e-07 50.585 347.5652)" class="st7 st12">M</text>
		<text transform="matrix(1.748456e-07 -1 1 1.748456e-07 50.585 340.488)" class="st7 st12">ese</text>
		<text transform="matrix(1.748456e-07 -1 1 1.748456e-07 50.585 329.0905)" class="st7 st12">n</text>
		<text transform="matrix(1.748456e-07 -1 1 1.748456e-07 50.585 324.7761)" class="st7 st12">t</text>
		<text transform="matrix(1.748456e-07 -1 1 1.748456e-07 50.585 322.0134)" class="st7 st12">e</text>
		<text transform="matrix(1.748456e-07 -1 1 1.748456e-07 50.585 317.9333)" class="st7 st12">r</text>
		<text transform="matrix(1.748456e-07 -1 1 1.748456e-07 50.585 315.0593)" class="st7 st12">i</text>
		<text transform="matrix(1.748456e-07 -1 1 1.748456e-07 50.585 313.1325)" class="st7 st12">c</text>
		<text transform="matrix(1.748456e-07 -1 1 1.748456e-07 50.585 309.7683)" class="st7 st12"> </text>
		<text transform="matrix(1.748456e-07 -1 1 1.748456e-07 50.585 308.2087)" class="st7 st12">L</text>
		<text transform="matrix(1.748456e-07 -1 1 1.748456e-07 50.585 304.8405)" class="st7 st12">y</text>
		<text transform="matrix(1.748456e-07 -1 1 1.748456e-07 50.585 301.0085)" class="st7 st12">m</text>
		<text transform="matrix(1.748456e-07 -1 1 1.748456e-07 50.585 294.4118)" class="st7 st12">ph</text>
		<text transform="matrix(1.748456e-07 -1 1 1.748456e-07 50.585 285.7829)" class="st7 st12"> </text>
		<text transform="matrix(1.748456e-07 -1 1 1.748456e-07 50.585 284.2224)" class="st7 st12">node</text>
	</g>
</g>
<g>
	<g>
		<text transform="matrix(1.748456e-07 -1 1 1.748456e-07 60.4209 351.6579)" class="st7 st12">(</text>
		<text transform="matrix(1.748456e-07 -1 1 1.748456e-07 60.4209 349.1452)" class="st7 st12">x</text>
		<text transform="matrix(1.748456e-07 -1 1 1.748456e-07 60.4209 345.4284)" class="st7 st12">10</text>
	</g>
</g>
<g>
	<g>
		<text transform="matrix(1.748456e-07 -1 1 1.748456e-07 58.0225 337.2595)" class="st7 st13">5</text>
	</g>
</g>
<g>
	<g>
		<text transform="matrix(1.748456e-07 -1 1 1.748456e-07 60.4209 332.8142)" class="st7 st12">C</text>
		<text transform="matrix(1.748456e-07 -1 1 1.748456e-07 60.4209 328.6071)" class="st7 st12">FU/g</text>
		<text transform="matrix(1.748456e-07 -1 1 1.748456e-07 60.4209 312.3044)" class="st7 st12">)</text>
	</g>
</g>
<g>
	<path class="st1" d="M268.7,285.2"/>
</g>
<g>
	<polygon class="st2" points="285.2,298.8 307.2,298.8 307.2,388.8 285.2,388.8 	"/>
	<polygon class="st3" points="285.2,298.8 307.2,298.8 307.2,388.8 285.2,388.8 	"/>
</g>
<g>
	<polygon class="st4" points="340.4,378.2 362.3,378.2 362.3,388.8 340.4,388.8 	"/>
	<polygon class="st3" points="340.4,378.2 362.3,378.2 362.3,388.8 340.4,388.8 	"/>
</g>
<g>
	<line class="st3" x1="294" y1="388.8" x2="298.6" y2="388.8"/>
</g>
<g>
	<path d="M296.2,298.8v-7.7 M293.9,291.1h4.6"/>
	<path class="st3" d="M296.2,298.8v-7.7 M293.9,291.1h4.6"/>
</g>
<g>
	<path d="M351.4,378.2v-0.8 M349.1,377.4h4.4"/>
	<path class="st3" d="M351.4,378.2v-0.8 M349.1,377.4h4.4"/>
</g>
<g>
	<line class="st1" x1="268.7" y1="388.8" x2="268.7" y2="285.2"/>
</g>
<g>
	<path class="st1" d="M266.6,388.8h2.2 M266.6,374h2.2 M266.6,359.1h2.2 M266.6,344.4h2.2 M266.6,329.6h2.2 M266.6,314.9h2.2
		 M266.6,300.1h2.2 M266.6,285.2h2.2"/>
</g>
<g>
	<g>
		<text transform="matrix(1 0 0 1 258.6809 390.805)" class="st5 st6">0</text>
	</g>
</g>
<g>
	<g>
		<text transform="matrix(1 0 0 1 255.134 376.0316)" class="st5 st6">2</text>
		<text transform="matrix(1 0 0 1 258.731 376.0316)" class="st5 st6">0</text>
	</g>
</g>
<g>
	<g>
		<text transform="matrix(1 0 0 1 255.134 361.2503)" class="st5 st6">4</text>
		<text transform="matrix(1 0 0 1 258.731 361.2503)" class="st5 st6">0</text>
	</g>
</g>
<g>
	<g>
		<text transform="matrix(1 0 0 1 255.134 346.4613)" class="st5 st6">6</text>
		<text transform="matrix(1 0 0 1 258.731 346.4613)" class="st5 st6">0</text>
	</g>
</g>
<g>
	<g>
		<text transform="matrix(1 0 0 1 255.134 331.6878)" class="st5 st6">8</text>
		<text transform="matrix(1 0 0 1 258.731 331.6878)" class="st5 st6">0</text>
	</g>
</g>
<g>
	<g>
		<text transform="matrix(1 0 0 1 251.5871 316.8988)" class="st5 st6">1</text>
		<text transform="matrix(1 0 0 1 255.1841 316.8988)" class="st5 st6">0</text>
		<text transform="matrix(1 0 0 1 258.6701 316.8988)" class="st5 st6">0</text>
	</g>
</g>
<g>
	<g>
		<text transform="matrix(1 0 0 1 251.5871 302.1253)" class="st5 st6">1</text>
		<text transform="matrix(1 0 0 1 255.1841 302.1253)" class="st5 st6">2</text>
		<text transform="matrix(1 0 0 1 258.6701 302.1253)" class="st5 st6">0</text>
	</g>
</g>
<g>
	<g>
		<text transform="matrix(1 0 0 1 251.5871 287.3441)" class="st5 st6">1</text>
		<text transform="matrix(1 0 0 1 255.1841 287.3441)" class="st5 st6">4</text>
		<text transform="matrix(1 0 0 1 258.6701 287.3441)" class="st5 st6">0</text>
	</g>
</g>
<g>
	<g>
		<text transform="matrix(1.748456e-07 -1 1 1.748456e-07 233.7419 369.5798)" class="st7 st8">S</text>
		<text transform="matrix(1.748456e-07 -1 1 1.748456e-07 233.7419 365.3708)" class="st7 st8">a</text>
		<text transform="matrix(1.748456e-07 -1 1 1.748456e-07 233.7419 360.9284)" class="st7 st8">l</text>
		<text transform="matrix(1.748456e-07 -1 1 1.748456e-07 233.7419 358.7624)" class="st7 st8">m</text>
		<text transform="matrix(1.748456e-07 -1 1 1.748456e-07 233.7419 351.4411)" class="st7 st8">o</text>
		<text transform="matrix(1.748456e-07 -1 1 1.748456e-07 233.7419 346.6404)" class="st7 st8">n</text>
		<text transform="matrix(1.748456e-07 -1 1 1.748456e-07 233.7419 341.8366)" class="st7 st8">e</text>
		<text transform="matrix(1.748456e-07 -1 1 1.748456e-07 233.7419 337.279)" class="st7 st8">ll</text>
		<text transform="matrix(1.748456e-07 -1 1 1.748456e-07 233.7419 332.948)" class="st7 st8">a</text>
		<text transform="matrix(1.748456e-07 -1 1 1.748456e-07 233.7419 328.5046)" class="st7 st8"> </text>
		<text transform="matrix(1.748456e-07 -1 1 1.748456e-07 233.7419 326.2273)" class="st7 st8">i</text>
		<text transform="matrix(1.748456e-07 -1 1 1.748456e-07 233.7419 324.0612)" class="st7 st8">n</text>
		<text transform="matrix(1.748456e-07 -1 1 1.748456e-07 233.7419 319.2595)" class="st7 st8"> </text>
		<text transform="matrix(1.748456e-07 -1 1 1.748456e-07 233.7419 317.1071)" class="st7 st8">S</text>
		<text transform="matrix(1.748456e-07 -1 1 1.748456e-07 233.7419 312.8982)" class="st7 st8">p</text>
		<text transform="matrix(1.748456e-07 -1 1 1.748456e-07 233.7419 308.0954)" class="st7 st8">l</text>
		<text transform="matrix(1.748456e-07 -1 1 1.748456e-07 233.7419 305.9314)" class="st7 st8">ee</text>
		<text transform="matrix(1.748456e-07 -1 1 1.748456e-07 233.7419 296.8152)" class="st7 st8">n</text>
	</g>
</g>
<g>
	<g>
		<text transform="matrix(1.748456e-07 -1 1 1.748456e-07 244.781 354.2204)" class="st7 st8">(</text>
		<text transform="matrix(1.748456e-07 -1 1 1.748456e-07 244.781 351.4529)" class="st7 st8">x</text>
		<text transform="matrix(1.748456e-07 -1 1 1.748456e-07 244.781 347.3718)" class="st7 st8">10</text>
	</g>
</g>
<g>
	<g>
		<text transform="matrix(1.748456e-07 -1 1 1.748456e-07 242.0232 338.2673)" class="st7 st9">2</text>
	</g>
</g>
<g>
	<g>
		<text transform="matrix(1.748456e-07 -1 1 1.748456e-07 244.781 333.1111)" class="st7 st8">C</text>
		<text transform="matrix(1.748456e-07 -1 1 1.748456e-07 244.781 328.3112)" class="st7 st8">F</text>
		<text transform="matrix(1.748456e-07 -1 1 1.748456e-07 244.781 324.2253)" class="st7 st8">U</text>
		<text transform="matrix(1.748456e-07 -1 1 1.748456e-07 244.781 318.3503)" class="st7 st8">/</text>
		<text transform="matrix(1.748456e-07 -1 1 1.748456e-07 244.781 314.5095)" class="st7 st8">g</text>
		<text transform="matrix(1.748456e-07 -1 1 1.748456e-07 244.781 310.198)" class="st7 st8">)</text>
	</g>
</g>
<g>
	<path class="st1" d="M452.3,285.2"/>
</g>
<g>
	<polygon class="st2" points="469.3,306.2 491.4,306.2 491.4,388.8 469.3,388.8 	"/>
	<polygon class="st3" points="469.3,306.2 491.4,306.2 491.4,388.8 469.3,388.8 	"/>
</g>
<g>
	<polygon class="st4" points="524.5,379.2 546.5,379.2 546.5,388.8 524.5,388.8 	"/>
	<polygon class="st3" points="524.5,379.2 546.5,379.2 546.5,388.8 524.5,388.8 	"/>
</g>
<g>
	<line class="st3" x1="477.6" y1="388.8" x2="482.1" y2="388.8"/>
</g>
<g>
	<path d="M480.4,306.2v-5.6 M478.2,300.6h4.4"/>
	<path class="st3" d="M480.4,306.2v-5.6 M478.2,300.6h4.4"/>
</g>
<g>
	<path d="M535.5,379.2v-0.8 M533.3,378.3h4.4"/>
	<path class="st3" d="M535.5,379.2v-0.8 M533.3,378.3h4.4"/>
</g>
<g>
	<line class="st1" x1="452.3" y1="388.8" x2="452.3" y2="285.2"/>
</g>
<g>
	<path class="st1" d="M450.1,388.8h2.2 M450.1,368h2.2 M450.1,347.4h2.2 M450.1,326.6h2.2 M450.1,306h2.2 M450.1,285.2h2.2"/>
</g>
<g>
	<g>
		<text transform="matrix(1 0 0 1 442.2373 390.805)" class="st5 st6">0</text>
	</g>
</g>
<g>
	<g>
		<text transform="matrix(1 0 0 1 438.6826 370.1097)" class="st5 st6">2</text>
		<text transform="matrix(1 0 0 1 442.2806 370.1097)" class="st5 st6">0</text>
	</g>
</g>
<g>
	<g>
		<text transform="matrix(1 0 0 1 438.6826 349.4222)" class="st5 st6">4</text>
		<text transform="matrix(1 0 0 1 442.2806 349.4222)" class="st5 st6">0</text>
	</g>
</g>
<g>
	<g>
		<text transform="matrix(1 0 0 1 438.6826 328.7269)" class="st5 st6">6</text>
		<text transform="matrix(1 0 0 1 442.2806 328.7269)" class="st5 st6">0</text>
	</g>
</g>
<g>
	<g>
		<text transform="matrix(1 0 0 1 438.6826 308.0316)" class="st5 st6">8</text>
		<text transform="matrix(1 0 0 1 442.2806 308.0316)" class="st5 st6">0</text>
	</g>
</g>
<g>
	<g>
		<text transform="matrix(1 0 0 1 435.1357 287.3441)" class="st5 st6">1</text>
		<text transform="matrix(1 0 0 1 438.7337 287.3441)" class="st5 st6">0</text>
		<text transform="matrix(1 0 0 1 442.2187 287.3441)" class="st5 st6">0</text>
	</g>
</g>
<g>
	<g>
		<text transform="matrix(1.748456e-07 -1 1 1.748456e-07 418.2515 370.2517)" class="st7 st11">S</text>
		<text transform="matrix(1.748456e-07 -1 1 1.748456e-07 418.2515 365.5642)" class="st7 st11">a</text>
		<text transform="matrix(1.748456e-07 -1 1 1.748456e-07 418.2515 360.6482)" class="st7 st11">l</text>
		<text transform="matrix(1.748456e-07 -1 1 1.748456e-07 418.2515 358.2409)" class="st7 st11">m</text>
		<text transform="matrix(1.748456e-07 -1 1 1.748456e-07 418.2515 350.0886)" class="st7 st11">o</text>
		<text transform="matrix(1.748456e-07 -1 1 1.748456e-07 418.2515 344.6941)" class="st7 st11">n</text>
		<text transform="matrix(1.748456e-07 -1 1 1.748456e-07 418.2515 339.2995)" class="st7 st11">e</text>
		<text transform="matrix(1.748456e-07 -1 1 1.748456e-07 418.2515 334.2663)" class="st7 st11">ll</text>
		<text transform="matrix(1.748456e-07 -1 1 1.748456e-07 418.2515 329.4529)" class="st7 st11">a</text>
		<text transform="matrix(1.748456e-07 -1 1 1.748456e-07 418.2515 324.5368)" class="st7 st11"> </text>
		<text transform="matrix(1.748456e-07 -1 1 1.748456e-07 418.2515 322.1462)" class="st7 st11">i</text>
		<text transform="matrix(1.748456e-07 -1 1 1.748456e-07 418.2515 319.739)" class="st7 st11">n</text>
		<text transform="matrix(1.748456e-07 -1 1 1.748456e-07 418.2515 314.3445)" class="st7 st11"> </text>
		<text transform="matrix(1.748456e-07 -1 1 1.748456e-07 418.2515 312.073)" class="st7 st11">L</text>
		<text transform="matrix(1.748456e-07 -1 1 1.748456e-07 418.2515 307.8708)" class="st7 st11">i</text>
		<text transform="matrix(1.748456e-07 -1 1 1.748456e-07 418.2515 305.4646)" class="st7 st11">v</text>
		<text transform="matrix(1.748456e-07 -1 1 1.748456e-07 418.2515 300.782)" class="st7 st11">e</text>
		<text transform="matrix(1.748456e-07 -1 1 1.748456e-07 418.2515 295.7478)" class="st7 st11">r</text>
	</g>
</g>
<g>
	<g>
		<text transform="matrix(1.748456e-07 -1 1 1.748456e-07 430.4858 357.1814)" class="st7 st11">(</text>
		<text transform="matrix(1.748456e-07 -1 1 1.748456e-07 430.4858 354.0691)" class="st7 st11">x</text>
		<text transform="matrix(1.748456e-07 -1 1 1.748456e-07 430.4858 349.5027)" class="st7 st11">10</text>
	</g>
</g>
<g>
	<g>
		<text transform="matrix(1.748456e-07 -1 1 1.748456e-07 427.4937 339.4079)" class="st7 st14">2</text>
	</g>
</g>
<g>
	<g>
		<text transform="matrix(1.748456e-07 -1 1 1.748456e-07 430.4858 333.6423)" class="st7 st11">C</text>
		<text transform="matrix(1.748456e-07 -1 1 1.748456e-07 430.4858 328.3718)" class="st7 st11">F</text>
		<text transform="matrix(1.748456e-07 -1 1 1.748456e-07 430.4858 323.8093)" class="st7 st11">U</text>
		<text transform="matrix(1.748456e-07 -1 1 1.748456e-07 430.4858 317.3279)" class="st7 st11">/</text>
		<text transform="matrix(1.748456e-07 -1 1 1.748456e-07 430.4858 313.0075)" class="st7 st11">g</text>
		<text transform="matrix(1.748456e-07 -1 1 1.748456e-07 430.4858 308.3249)" class="st7 st11">)</text>
	</g>
</g>
<text transform="matrix(1 0 0 1 503.8511 83.8364)" class="st10 st15">맹장</text>
<text transform="matrix(1 0 0 1 503.8511 271.1801)" class="st10 st15">간</text>
<text transform="matrix(1 0 0 1 321.6733 271.1801)" class="st10 st15">비장</text>
<text transform="matrix(1 0 0 1 117.3354 271.1801)" class="st10 st15">장간막 림프절</text>
<text transform="matrix(1 0 0 1 212.3546 36.0221)" class="st10 st15">장기 및 분변에서 검출되는 살모넬라 CFU</text>
<g>
	<rect x="404.2" y="418.8" width="8.6" height="8.6"/>
	<rect x="404.2" y="431" class="st16" width="8.6" height="8.6"/>
	<text transform="matrix(1 0 0 1 418.7488 425.2109)" class="st17 st18">살모넬라 감염(SL1344)</text>
	<text transform="matrix(1 0 0 1 418.7488 439.1416)" class="st17 st18">살모넬라 감염(SL1344) + 헤미셀란</text>
</g>
</svg>
