<?xml version="1.0" encoding="utf-8"?>
<!-- Generator: Adobe Illustrator 28.0.0, SVG Export Plug-In . SVG Version: 6.00 Build 0)  -->
<svg version="1.1" id="_레이어_1" xmlns="http://www.w3.org/2000/svg" xmlns:xlink="http://www.w3.org/1999/xlink" x="0px"
	 y="0px" viewBox="0 0 349.8 141.3" style="enable-background:new 0 0 349.8 141.3;" xml:space="preserve">
<style type="text/css">
	.st0{fill:#FFFFFF;}
	.st1{fill:none;stroke:#231916;stroke-width:0.423;stroke-miterlimit:10;}
	.st2{fill:#056FB8;stroke:#231916;stroke-width:0.423;stroke-miterlimit:10;}
	.st3{fill:#2EA7E0;stroke:#231916;stroke-width:0.423;stroke-miterlimit:10;}
	.st4{fill:#9CD7EA;stroke:#231916;stroke-width:0.423;stroke-miterlimit:10;}
	.st5{fill:#FFFFFF;stroke:#231916;stroke-width:0.212;stroke-miterlimit:10;}
	.st6{fill:none;stroke:#231916;stroke-width:0.847;stroke-miterlimit:10;}
	.st7{fill:#231916;}
	.st8{font-family:'AppleSDGothicNeoSB00';}
	.st9{font-size:5.08px;}
	.st10{font-size:6.774px;}
	.st11{fill:#FFFFFF;stroke:#231916;stroke-width:0.146;stroke-miterlimit:10;}
	.st12{font-size:5.556px;}
	.st13{fill:#9CD7EA;stroke:#231916;stroke-width:0.292;stroke-miterlimit:10;}
	.st14{fill:#2EA7E0;stroke:#231916;stroke-width:0.292;stroke-miterlimit:10;}
	.st15{fill:#056FB8;stroke:#231916;stroke-width:0.292;stroke-miterlimit:10;}
	.st16{fill:none;stroke:#231916;stroke-width:0.687;stroke-miterlimit:10;}
	.st17{font-size:6.786px;}
	.st18{font-size:5.566px;}
	.st19{fill:#9CD7EA;stroke:#231916;stroke-width:0.293;stroke-miterlimit:10;}
	.st20{fill:#2EA7E0;stroke:#231916;stroke-width:0.293;stroke-miterlimit:10;}
	.st21{fill:#056FB8;stroke:#231916;stroke-width:0.293;stroke-miterlimit:10;}
	.st22{fill:#FFFFFF;stroke:#231916;stroke-width:0.229;stroke-miterlimit:10;}
	.st23{fill:#9CD7EA;stroke:#231916;stroke-width:0.229;stroke-miterlimit:10;}
	.st24{fill:#2EA7E0;stroke:#231916;stroke-width:0.229;stroke-miterlimit:10;}
	.st25{fill:#056FB8;stroke:#231916;stroke-width:0.229;stroke-miterlimit:10;}
	.st26{fill:none;stroke:#231916;stroke-width:0.636;stroke-miterlimit:10;}
	.st27{fill:none;stroke:#231916;stroke-width:0.848;stroke-miterlimit:10;}
	.st28{font-size:5.09px;}
	.st29{font-family:'AppleSDGothicNeoR00';}
	.st30{font-size:8px;}
</style>
<rect x="0" class="st0" width="349.8" height="142.3"/>
<g>
	<g>
		<polyline class="st1" points="109.5,107.9 109.5,98.7 107.2,98.7 111.7,98.7 		"/>
		<polyline class="st1" points="65.4,106.1 65.4,96.9 63.2,96.9 67.6,96.9 		"/>
		<polyline class="st1" points="124.6,96.1 124.6,86.9 122.4,86.9 126.8,86.9 		"/>
		<polyline class="st1" points="154,34.7 154,27.2 151.8,27.2 156.2,27.2 		"/>
		<polyline class="st1" points="139.3,67.3 139.3,58.1 137.1,58.1 141.5,58.1 		"/>
		<polyline class="st1" points="80.3,97.3 80.3,88.2 78.1,88.2 82.5,88.2 		"/>
		<polyline class="st1" points="50.7,123.5 50.7,114.3 48.5,114.3 52.9,114.3 		"/>
	</g>
	<rect x="146.3" y="33.8" class="st2" width="15.6" height="94.1"/>
	<rect x="72.1" y="89.8" class="st2" width="15.6" height="38"/>
	<rect x="131.5" y="62.3" class="st3" width="14.7" height="65.7"/>
	<rect x="57.6" y="98.7" class="st3" width="14.7" height="29.3"/>
	<rect x="116.8" y="89.8" class="st4" width="14.7" height="38.1"/>
	<rect x="42.9" y="115.2" class="st4" width="14.7" height="12.7"/>
	<rect x="102.1" y="100.5" class="st5" width="14.7" height="27.5"/>
	<rect x="28.2" y="118.3" class="st5" width="14.7" height="9.6"/>
	<line class="st6" x1="18.3" y1="127.8" x2="167.4" y2="127.8"/>
	<line class="st6" x1="18.3" y1="19.3" x2="21" y2="19.3"/>
	<line class="st6" x1="18.4" y1="37.4" x2="21.2" y2="37.4"/>
	<line class="st6" x1="18.4" y1="55.4" x2="21.2" y2="55.4"/>
	<line class="st6" x1="18.4" y1="73.5" x2="21.2" y2="73.5"/>
	<line class="st6" x1="18.4" y1="91.6" x2="21.2" y2="91.6"/>
	<line class="st6" x1="18.4" y1="109.7" x2="21.2" y2="109.7"/>
	<line class="st6" x1="18.4" y1="127.8" x2="21.2" y2="127.8"/>
	<text transform="matrix(1 0 0 1 14.289 129.375)" class="st7 st8 st9">0</text>
	<text transform="matrix(1 0 0 1 12.379 111.384)" class="st7 st8 st9">10</text>
	<text transform="matrix(1 0 0 1 11.576 93.393)" class="st7 st8 st9">20</text>
	<text transform="matrix(1 0 0 1 11.566 75.401)" class="st7 st8 st9">30</text>
	<text transform="matrix(1 0 0 1 11.377 57.411)" class="st7 st8 st9">40</text>
	<text transform="matrix(1 0 0 1 11.713 39.419)" class="st7 st8 st9">50</text>
	<text transform="matrix(1 0 0 1 11.408 21.429)" class="st7 st8 st9">60</text>
	<text transform="matrix(6.123234e-17 -1 1 6.123234e-17 5.501 115.2131)" class="st7 st8 st10">박테리아를 탐식한 면역세포 (%)</text>
	<text transform="matrix(1 0 0 1 50.686 138.321)" class="st7 st8 st10">30분 후</text>
	<text transform="matrix(1 0 0 1 124.174 138.856)" class="st7 st8 st10">60분 후</text>
	<g>
		<rect x="28.2" y="19.4" class="st11" width="11.5" height="4.4"/>
		<text transform="matrix(1 0 0 1 44.749 23.796)" class="st7 st8 st12">대조군</text>
	</g>
	<g>
		<rect x="28.2" y="26.1" class="st13" width="11.5" height="4.4"/>
		<text transform="matrix(1 0 0 1 44.646 30.558)" class="st7 st8 st12">Bio-BRB(1μg/mL)</text>
	</g>
	<g>
		<rect x="28.2" y="32.9" class="st14" width="11.5" height="4.4"/>
		<text transform="matrix(1 0 0 1 44.646 37.353)" class="st7 st8 st12">Bio-BRB(10μg/mL)</text>
	</g>
	<g>
		<rect x="28.2" y="39.7" class="st15" width="11.5" height="4.4"/>
		<text transform="matrix(1 0 0 1 44.646 44.148)" class="st7 st8 st12">Bio-BRB(100μg/mL)</text>
	</g>
</g>
<g>
	<g>
		<polyline class="st16" points="276.6,107 276.6,103.5 274.3,103.5 278.9,103.5 		"/>
		<polyline class="st16" points="237.9,31.7 237.9,22.3 235.6,22.3 240.2,22.3 		"/>
		<polyline class="st16" points="218.4,72.4 218.4,68.9 216.1,68.9 220.7,68.9 		"/>
		<polyline class="st16" points="228.1,53.8 228.1,45.6 225.8,45.6 230.4,45.6 		"/>
		<polyline class="st16" points="267.2,95.5 267.2,92 264.9,92 269.5,92 		"/>
		<polyline class="st16" points="257.5,93.2 257.5,89.7 255.2,89.7 259.8,89.7 		"/>
		<polyline class="st16" points="208.7,76.6 208.7,73.1 206.4,73.1 211,73.1 		"/>
		<polyline class="st16" points="286.7,111.8 286.7,108.3 284.4,108.3 289,108.3 		"/>
		<polyline class="st16" points="305.7,98.2 305.7,94.7 303.4,94.7 308,94.7 		"/>
		<polyline class="st16" points="315.1,103 315.1,99.4 312.8,99.4 317.4,99.4 		"/>
		<polyline class="st16" points="324.7,116.7 324.7,113.2 322.4,113.2 327,113.2 		"/>
		<polyline class="st16" points="334.8,120.3 334.8,116.8 332.5,116.8 337.1,116.8 		"/>
	</g>
	<text transform="matrix(6.123234e-17 -1 1 6.123234e-17 177.491 115.0392)" class="st7 st8 st17">면역세포내 살아있는 박테리아</text>
	<text transform="matrix(1 0 0 1 215.516 139.708)" class="st7 st8 st17">2시간</text>
	<text transform="matrix(1 0 0 1 265.136 139.708)" class="st7 st8 st17">4시간</text>
	<text transform="matrix(1 0 0 1 314.846 139.707)" class="st7 st8 st17">8시간</text>
	<g>
		<rect x="279.5" y="26.5" class="st11" width="11.5" height="4.4"/>
		<text transform="matrix(1 0 0 1 296.099 30.941)" class="st7 st8 st18">대조군</text>
	</g>
	<g>
		<rect x="279.5" y="33.3" class="st19" width="11.5" height="4.4"/>
		<text transform="matrix(1 0 0 1 295.996 37.715)" class="st7 st8 st18">Bio-BRB(1μg/mL)</text>
	</g>
	<g>
		<rect x="279.5" y="40.1" class="st20" width="11.5" height="4.4"/>
		<text transform="matrix(1 0 0 1 295.996 44.523)" class="st7 st8 st18">Bio-BRB(10μg/mL)</text>
	</g>
	<g>
		<rect x="279.5" y="46.9" class="st21" width="11.5" height="4.4"/>
		<text transform="matrix(1 0 0 1 295.996 51.33)" class="st7 st8 st18">Bio-BRB(100μg/mL)</text>
	</g>
	<g>
		<rect x="203.9" y="76" class="st22" width="9.4" height="53"/>
		<rect x="213.7" y="72" class="st23" width="9.4" height="57"/>
		<rect x="223.4" y="52" class="st24" width="9.4" height="76.9"/>
		<rect x="233.1" y="29.2" class="st25" width="9.4" height="99.8"/>
	</g>
	<rect x="252.8" y="91.5" class="st22" width="9.4" height="37.5"/>
	<rect x="262.5" y="94.7" class="st23" width="9.4" height="34.3"/>
	<rect x="272.2" y="105.2" class="st24" width="9.4" height="23.8"/>
	<rect x="282" y="109.1" class="st25" width="9.4" height="19.9"/>
	<rect x="301" y="97.4" class="st22" width="9.4" height="31.6"/>
	<rect x="310.7" y="101.1" class="st23" width="9.4" height="27.9"/>
	<rect x="320.4" y="114.1" class="st24" width="9.4" height="14.9"/>
	<rect x="330.2" y="117.8" class="st25" width="9.4" height="11.2"/>
	<line class="st26" x1="196" y1="19.4" x2="196" y2="129.5"/>
	<line class="st26" x1="21.2" y1="19.4" x2="21.2" y2="129.5"/>
	<line class="st26" x1="196" y1="129.1" x2="349.8" y2="129.1"/>
	<line class="st27" x1="192.9" y1="19.9" x2="195.7" y2="19.9"/>
	<line class="st27" x1="192.9" y1="56.2" x2="195.7" y2="56.2"/>
	<line class="st27" x1="193.3" y1="92.6" x2="196" y2="92.6"/>
	<line class="st27" x1="193.3" y1="129" x2="196" y2="129"/>
	<text transform="matrix(1 0 0 1 188.703 130.362)" class="st7 st8 st28">0</text>
	<text transform="matrix(1 0 0 1 184.973 94.213)" class="st7 st8 st28">5만</text>
	<text transform="matrix(1 0 0 1 182.388 58.033)" class="st7 st8 st28">10만</text>
	<text transform="matrix(1 0 0 1 183.06 21.853)" class="st7 st8 st28">15만</text>
</g>
<g>
	<text transform="matrix(1 0 0 1 40.554 7.04)" class="st7 st29 st30">헤미셀란의 살모넬라 Engulfment 촉진</text>
	<text transform="matrix(1 0 0 1 238.085 7.04)" class="st7 st29 st30">헤미셀란의 살모넬라 lysis 촉진</text>
</g>
</svg>
