<?xml version="1.0" encoding="utf-8"?>
<!-- Generator: Adobe Illustrator 28.0.0, SVG Export Plug-In . SVG Version: 6.00 Build 0)  -->
<svg version="1.1" id="_레이어_1" xmlns="http://www.w3.org/2000/svg" xmlns:xlink="http://www.w3.org/1999/xlink" x="0px"
	 y="0px" viewBox="0 0 189 141.4" style="enable-background:new 0 0 189 141.4;" xml:space="preserve">
<style type="text/css">
	.st0{fill:#FFFFFF;}
	.st1{fill-rule:evenodd;clip-rule:evenodd;fill:#7296CE;}
	.st2{fill-rule:evenodd;clip-rule:evenodd;fill:#9C5353;}
	.st3{fill:none;stroke:#BFBFBF;stroke-width:0.72;stroke-linejoin:round;}
	.st4{fill:none;stroke:#868686;stroke-width:0.622;stroke-linejoin:round;}
	.st5{font-family:'Calibri';}
	.st6{font-size:9.96px;}
	.st7{font-size:6.96px;}
	.st8{font-family:'AppleSDGothicNeoR00';}
	.st9{font-family:'Calibri-Bold';}
	.st10{font-size:6.72px;}
	.st11{fill:#231F20;}
	.st12{font-family:'AppleSDGothicNeoEB00';}
	.st13{font-size:12px;}
</style>
<rect class="st0" width="189.9" height="141.4"/>
<polygon class="st1" points="44.6,116.2 58.4,116.2 58.4,119.5 44.6,119.5 44.6,116.2 "/>
<polygon class="st2" points="78.9,66.1 92.7,66.1 92.7,119.5 78.9,119.5 78.9,66.1 "/>
<polygon class="st1" points="129,68 142.6,68 142.6,119.5 129,119.5 129,68 "/>
<polygon class="st1" points="163.3,42.4 177.1,42.4 177.1,119.5 163.3,119.5 163.3,42.4 "/>
<g>
	<path d="M51.5,116.2V116 M49.2,116h4.4"/>
	<path class="st3" d="M51.5,116.2V116 M49.2,116h4.4"/>
</g>
<g>
	<path d="M85.8,66.1v-4 M83.6,62.1H88"/>
	<path class="st3" d="M85.8,66.1v-4 M83.6,62.1H88"/>
</g>
<g>
	<path d="M135.8,68v-4.1 M133.5,63.9h4.6"/>
	<path class="st3" d="M135.8,68v-4.1 M133.5,63.9h4.6"/>
</g>
<g>
	<path d="M170.1,42.4v-5.9 M168,36.6h4.4"/>
	<path class="st3" d="M170.1,42.4v-5.9 M168,36.6h4.4"/>
</g>
<line class="st3" x1="34.2" y1="119.5" x2="34.2" y2="26.8"/>
<path class="st3" d="M31.1,119.5h3.1 M31.1,101h3.1 M31.1,82.4h3.1 M31.1,63.9h3.1 M31.1,45.4h3.1 M31.1,26.8h3.1"/>
<line class="st4" x1="34.2" y1="119.5" x2="188.2" y2="119.5"/>
<text transform="matrix(1 0 0 1 19.939 122.305)" class="st5 st6">0</text>
<text transform="matrix(1 0 0 1 12.353 103.774)" class="st5 st6">0.5</text>
<text transform="matrix(1 0 0 1 19.939 85.258)" class="st5 st6">1</text>
<text transform="matrix(1 0 0 1 12.353 66.734)" class="st5 st6">1.5</text>
<text transform="matrix(1 0 0 1 19.939 48.219)" class="st5 st6">2</text>
<text transform="matrix(1 0 0 1 12.353 29.695)" class="st5 st6">2.5</text>
<text transform="matrix(1 0 0 1 40.791 130.641)" class="st5 st7">v</text>
<text transform="matrix(1 0 0 1 43.914 130.641)" class="st5 st7">e</text>
<text transform="matrix(1 0 0 1 47.391 130.641)" class="st5 st7">c</text>
<text transform="matrix(1 0 0 1 50.389 130.641)" class="st5 st7">h</text>
<text transform="matrix(1 0 0 1 54.109 130.641)" class="st5 st7">c</text>
<text transform="matrix(1 0 0 1 56.989 130.641)" class="st5 st7">l</text>
<text transform="matrix(1 0 0 1 58.663 130.641)" class="st5 st7">e</text>
<text transform="matrix(1 0 0 1 80.908 130.641)" class="st5 st7">L</text>
<text transform="matrix(1 0 0 1 83.904 130.641)" class="st5 st7">PS</text>
<g>
	<text transform="matrix(1 0 0 1 122.915 130.703)" class="st8 st7">헤미셀란</text>
	<text transform="matrix(1 0 0 1 119.999 139.055)" class="st8 st7">(10μg/mL)</text>
	<text transform="matrix(1 0 0 1 159.844 130.703)" class="st8 st7">헤미셀란</text>
	<text transform="matrix(1 0 0 1 154.736 139.055)" class="st8 st7">(100μg/mL)</text>
</g>
<text transform="matrix(1 0 0 1 69.908 139.18)" class="st5 st7">(</text>
<text transform="matrix(1 0 0 1 72.067 139.18)" class="st5 st7">1</text>
<text transform="matrix(1 0 0 1 75.553 139.18)" class="st5 st7">0</text>
<text transform="matrix(1 0 0 1 79.15 139.18)" class="st5 st7">0</text>
<text transform="matrix(1 0 0 1 82.636 139.18)" class="st5 st7">n</text>
<text transform="matrix(1 0 0 1 86.355 139.18)" class="st5 st7">g</text>
<text transform="matrix(1 0 0 1 89.715 139.18)" class="st5 st7">/</text>
<text transform="matrix(1 0 0 1 92.361 139.18)" class="st5 st7">m</text>
<text transform="matrix(1 0 0 1 97.998 139.18)" class="st5 st7">l</text>
<text transform="matrix(1 0 0 1 99.56 139.18)" class="st5 st7">)</text>
<text transform="matrix(6.123234e-17 -1 1 6.123234e-17 8.126 86.5695)" class="st9 st6">O</text>
<text transform="matrix(6.123234e-17 -1 1 6.123234e-17 8.126 79.8439)" class="st9 st6">D</text>
<text transform="matrix(6.123234e-17 -1 1 6.123234e-17 10.533 71.2267)" class="st9 st10">405</text>
<text transform="matrix(6.123234e-17 -1 1 6.123234e-17 10.533 61.1301)" class="st9 st10">nm</text>
<text transform="matrix(1 0 0 1 62.567 10.56)" class="st11 st12 st13">라이소좀 효소 활성</text>
</svg>
