<?xml version="1.0" encoding="utf-8"?>
<!-- Generator: Adobe Illustrator 28.0.0, SVG Export Plug-In . SVG Version: 6.00 Build 0)  -->
<svg version="1.1" id="_레이어_1" xmlns="http://www.w3.org/2000/svg" xmlns:xlink="http://www.w3.org/1999/xlink" x="0px"
	 y="0px" viewBox="0 0 348.4 254.5" style="enable-background:new 0 0 348.4 254.5;" xml:space="preserve">
<style type="text/css">
	.st0{fill:#FFFFFF;}
	.st1{fill:none;stroke:#868686;stroke-width:0.72;stroke-linejoin:round;}
	.st2{fill:none;stroke:#000000;stroke-width:2.28;stroke-linecap:round;stroke-linejoin:round;}
	.st3{fill:none;stroke:#B3A3C7;stroke-width:2.28;stroke-linecap:round;stroke-linejoin:round;}
	.st4{fill:none;stroke:#614B7B;stroke-width:2.28;stroke-linecap:round;stroke-linejoin:round;}
	.st5{font-family:'Calibri';}
	.st6{font-size:9.96px;}
	.st7{font-family:'Calibri-Bold';}
	.st8{fill:#231F20;}
	.st9{font-family:'Freesentation-6SemiBold';}
	.st10{font-size:12px;}
	.st11{font-size:9px;}
</style>
<rect class="st0" width="348.4" height="254.5"/>
<line class="st1" x1="25.6" y1="223.8" x2="25.6" y2="33.8"/>
<path class="st1" d="M22.5,223.8h3.1 M22.5,192.1h3.1 M22.5,160.4h3.1 M22.5,128.7h3.1 M22.5,97.1h3.1 M22.5,65.5h3.1 M22.5,33.8
	h3.1"/>
<line class="st1" x1="25.6" y1="223.8" x2="343.4" y2="223.8"/>
<path class="st1" d="M25.6,223.8v3.2 M78.6,223.8v3.2 M131.6,223.8v3.2 M184.5,223.8v3.2 M237.4,223.8v3.2 M290.4,223.8v3.2
	 M343.4,223.8v3.2"/>
<polyline class="st2" points="36.3,65.4 46.8,65.4 46.8,81.3 57.4,81.3 57.4,97.1 68.1,97.1 68.1,113 78.6,113 78.6,160.5 
	89.2,160.5 89.2,192.2 99.7,192.2 99.7,223.8 "/>
<polyline class="st3" points="36.3,65.4 46.8,65.4 57.4,65.4 68.1,65.4 78.6,65.4 89.2,65.4 99.7,65.4 99.7,81.3 110.4,81.3 
	121,81.3 121,97.1 131.5,97.1 131.5,128.8 142.1,128.8 152.8,128.8 152.8,144.6 163.3,144.6 173.9,144.6 184.5,144.6 195.1,144.6 
	195.1,160.5 205.7,160.5 216.3,160.5 216.3,176.3 226.8,176.3 237.5,176.3 237.5,208 248.1,208 258.6,208 258.6,223.8 "/>
<polyline class="st4" points="36.3,65.4 46.8,65.4 57.4,65.4 68.1,65.4 78.6,65.4 89.2,65.4 99.7,65.4 110.4,65.4 121,65.4 
	121,81.3 131.5,81.3 142.1,81.3 142.1,97.1 152.8,97.1 163.3,97.1 163.3,113 173.9,113 184.5,113 184.5,128.8 195.1,128.8 
	205.7,128.8 216.3,128.8 216.3,144.6 226.8,144.6 237.5,144.6 237.5,160.5 248.1,160.5 258.6,160.5 258.6,176.3 269.2,176.3 
	279.9,176.3 290.4,176.3 290.4,192.2 301,192.2 301,208 311.5,208 322.2,208 322.2,223.8 "/>
<text transform="matrix(1 0 0 1 11.322 226.636)" class="st5 st6">0</text>
<text transform="matrix(1 0 0 1 11.322 194.964)" class="st5 st6">2</text>
<text transform="matrix(1 0 0 1 11.322 163.292)" class="st5 st6">4</text>
<text transform="matrix(1 0 0 1 11.322 131.612)" class="st5 st6">6</text>
<text transform="matrix(1 0 0 1 11.322 99.941)" class="st5 st6">8</text>
<text transform="matrix(1 0 0 1 6.252 68.269)" class="st5 st6">10</text>
<text transform="matrix(1 0 0 1 6.252 36.597)" class="st5 st6">12</text>
<text transform="matrix(1 0 0 1 23.134 239.644)" class="st5 st6">0</text>
<text transform="matrix(1 0 0 1 76.08 239.644)" class="st5 st6">5</text>
<text transform="matrix(1 0 0 1 126.486 239.644)" class="st5 st6">10</text>
<text transform="matrix(1 0 0 1 179.439 239.644)" class="st5 st6">15</text>
<text transform="matrix(1 0 0 1 232.384 239.644)" class="st5 st6">20</text>
<text transform="matrix(1 0 0 1 285.33 239.644)" class="st5 st6">25</text>
<text transform="matrix(1 0 0 1 338.275 239.644)" class="st5 st6">30</text>
<text transform="matrix(1 0 0 1 145.791 250.987)" class="st7 st6">D</text>
<text transform="matrix(1 0 0 1 152.04 250.987)" class="st7 st6">a</text>
<text transform="matrix(1 0 0 1 156.957 250.987)" class="st7 st6">y</text>
<text transform="matrix(1 0 0 1 161.644 250.987)" class="st7 st6">s</text>
<text transform="matrix(1 0 0 1 165.607 250.987)" class="st7 st6"> </text>
<text transform="matrix(1 0 0 1 167.999 250.987)" class="st7 st6">p</text>
<text transform="matrix(1 0 0 1 173.393 250.987)" class="st7 st6">o</text>
<text transform="matrix(1 0 0 1 178.787 250.987)" class="st7 st6">s</text>
<text transform="matrix(1 0 0 1 182.75 250.987)" class="st7 st6">ti</text>
<text transform="matrix(1 0 0 1 188.542 250.987)" class="st7 st6">n</text>
<text transform="matrix(1 0 0 1 193.937 250.987)" class="st7 st6">f</text>
<text transform="matrix(1 0 0 1 197.058 250.987)" class="st7 st6">e</text>
<text transform="matrix(1 0 0 1 202.092 250.987)" class="st7 st6">ct</text>
<text transform="matrix(1 0 0 1 206.289 250.987)" class="st7 st6">i</text>
<text transform="matrix(1 0 0 1 212.081 250.987)" class="st7 st6">o</text>
<text transform="matrix(1 0 0 1 217.475 250.987)" class="st7 st6">n</text>
<text transform="matrix(1 0 0 1 50.807 184.42)" class="st8 st9 st10">무처리</text>
<text transform="matrix(1 0 0 1 177.125 185.104)" class="st8 st9 st10">경구투여</text>
<text transform="matrix(1 0 0 1 248.358 152.203)" class="st8 st9 st10">복강투여</text>
<text transform="matrix(1 0 0 1 264.32 81.53)" class="st8 st9 st11">실험모델 : 마우스</text>
<text transform="matrix(1 0 0 1 264.32 92.33)" class="st8 st9 st11">시험물질 : 흑미강발효분말</text>
<text transform="matrix(1 0 0 1 264.32 103.13)" class="st8 st9 st11">투여량 : 10mg/kg</text>
<text transform="matrix(1 0 0 1 9.156 10.356)" class="st8 st9 st10">생존</text>
<text transform="matrix(1 0 0 1 0 24.756)" class="st8 st9 st10">마우스</text>
</svg>
